<?xml version="1.0" encoding="utf-8"?>
<!-- Generator: Adobe Illustrator 23.0.6, SVG Export Plug-In . SVG Version: 6.00 Build 0)  -->
<svg version="1.1" id="Layer_1" xmlns="http://www.w3.org/2000/svg" xmlns:xlink="http://www.w3.org/1999/xlink" x="0px" y="0px"
	 viewBox="0 0 288 288" style="enable-background:new 0 0 288 288;" xml:space="preserve">
<style type="text/css">
	.st0{opacity:0.5;}
	.st1{fill:#A6925C;}
	.st2{fill:#5B4E5C;}
	.st3{fill:#9B938F;}
	.st4{fill:#EEDD98;}
	.st5{fill:#030303;}
	.st6{fill:#E7DBB9;}
</style>
<g class="st0">
	<path d="M128.1,167.1c0,0-0.8,10-2.8,12.4c0,0-6,4.8-5.6,8s-8.4,8.4-8.4,8.4l-10.4,17.6l-1.6,12.4c0,0,10.4,2.8,21.2-8
		s14-28.3,14-28.3l6-25.9L128.1,167.1z"/>
	<path d="M190.8,184.6c0,0,24.7,8,57.5-32.3c0,0,24-8,23.6,18c0,0-31.1,57.9-67.5,56.3L190.8,184.6z"/>
	<path d="M255.9,141.9c2.8-4,7.1-11.2,9.2-21.2c2.3-10.9,0.8-19.9-0.4-24.7c0,0,2.8-4,7.2,3.2c2.7,3.9,5.4,8.9,7.4,15.1
		c6.4,19.7,0.5,37.3-2.2,44c-0.1-1.6-0.6-6.9-4.7-11.3C265.9,140.3,256.7,141.8,255.9,141.9z"/>
	<path d="M128.1,141.1c0,0-32.3,15.2,0,25.9c0,0,9.2,1.2,12.4-3.6s0.4-15.2,0.4-15.2L128.1,141.1z"/>
	<path d="M248.3,152.3c-0.3-0.8,0.5-1.5,4.4-6.8c1.3-1.8,2.4-3.3,3.2-4.4c1.3-0.3,8-1.7,14.2,2.5c1.2,0.8,6.9,4.7,7.3,11.4
		c0.2,3.7-1.2,6.6-2,8c-1.2,2.4-2.4,4.8-3.6,7.2c-1.4-7.8-4.1-14-9.2-16.4C256.7,151.1,249.2,154.5,248.3,152.3z"/>
	<path d="M151.3,239.3c0,0,8.4,7.2,25.9,1.6c0,0,22-1.2,28.7,4.4c6.8,5.6,15.6,3.6,15.6,3.6s6.8-2.8-3.6-10.4s-20-8.4-20-8.4
		l3.2-23.2l-7.2-2.8l-46.3,19.2L151.3,239.3z"/>
	<path d="M128.5,191.8c0,0-2.8-0.4-8.8,3.2c-6,3.6-21.2-0.8-21.2-0.8s-5.2-14.8-9.6-13.2c-4.3,1.6-6.7,11.6-6.7,11.6
		s-13.6,0.8-16,14.4l-4.8-23.6c0,0-2.8-4.4-11.2-11.6c-8.4-7.2-14-1.2-14-1.2s4.4,9.2,9.6,12.8s1.2,12.8,1.2,12.8l-4.8,3.6
		c0,0-7.2-4.4-6.8-7.2c0,0-7.6-5.2-11.6-4.4s-8.4,3.6-8.4,3.6s-8.4,8-6.8,11.2s6.8,2,6.8,2s5.6-1.6,8-3.6c0,0,11.6,6.4,12,9.6
		c0.4,3.2,13.6,23.6,13.6,23.6s-1.6,6.8-4.8,7.2s-6.4,6-6.4,6s2.4,2.8,12.4,2.4c10-0.4,10.8-6.8,10.8-6.8s9.6-17.2,20.4-16.8
		c0,0,16.4,9.2,18-0.8s1.6-12.4,1.6-12.4s17.6,0.8,19.6,4.4c2,3.6,8,2,8,2s-4.8,6-2.8,7.6s4.4,0,4.4,0s-0.4,3.6,2.4,4.4
		c2.8,0.8,4.4-6,4.4-6l2,1.6c0,0-15.6,8.8-5.2,22.4c0,0,4.8-2.4,6-7.2c0,0,10.8-1.6,11.6-3.2c0,0,12.4-10.4-3.6-16
		c0,0,11.2-6.4,18.4-4.4s30.7-11.6,31.9-10.4c0,0-0.4,8.4,1.2,8.4c0,0-10.8,1.2-4.8,11.2c0,0,2,2.8,3.6,2s8-4.8,8.4-7.2
		c0,0,6.8,2,7.2,0.4s0.4-7.2,0.4-7.2s10.8-7.6,1.6-17.6s-20.8-7.6-20.8-7.6h-1.6c0,0,0.4-3.6-2.4-6.4l6.4-26.3
		c0,0-15.2,5.6-15.6,6.8s-4.8,14-4.8,14s-20.8-20.4-38.7-6.8C138.1,172.3,127.8,185.4,128.5,191.8z"/>
	<path d="M178.4,129.9c0,0-0.8,4,2,4.4s1.2,30.7,1.2,30.7s-9.6,3.2-16.8-9.6c0,0-18-8.4-22.8,3.6s0,0,0,0l-1.2-6.4
		C140.9,152.7,174.1,127.9,178.4,129.9z"/>
	<path d="M197.2,158.3c0,0,15.2-14.8,19.2-2.4c0,0-8.8,12.4-20.8,9.6L197.2,158.3z"/>
	<path d="M128.5,191.8c0,0,0.4,19.2,6.8,19.6l-2.4,4.8C132.9,216.2,116.2,213.4,128.5,191.8z"/>
	<path d="M146.1,202.2c0,0,5.2-21.2,20.8-14.8l-0.8,2.4c0,0-8.4-3.6-11.2,8.8C154.9,198.6,147.3,202.6,146.1,202.2z"/>
	<path d="M197.2,158.3c0,0,14.4-13.6,19.2-2.4c0,0,5.6-3.6-0.8-8.8c0,0-13.6-16-22.8-15.6c-9.2,0.4-17.6,8.8-17.6,8.8
		s-10.4,18.4,10,24C185.2,164.3,190,165.5,197.2,158.3z"/>
	<path d="M138.1,172.3c0,0,18.4-8,38.7,6.8l2-1.6c0,0,2.4-8.8,2.8-12.4c0,0-8.8,3.6-16.8-9.6c0,0-21.2-10-24.4,8L138.1,172.3z"/>
	<path d="M130.5,72.5c0,0-27.9-8.4-30.7-4s10,37.1,10,37.1s-3.2,22,4.4,26.3c7.6,4.4,15.6,10.8,16.4,12.4c0.8,1.6,5.6,5.2,5.6,5.2
		s4-11.6,17.2-1.2c0,0,15.6-18.8,31.9-20c16.3-1.2,18-8.8,18-8.8s-1.7-15.9-5.7-21.9c0,0,8.8-31.1,5.6-37.5s-31.9,6.8-31.9,6.8
		S149.3,60.9,130.5,72.5z"/>
	<path d="M177.6,84.4c0,0,15.6,9.6,15.2,13.2c0,0,9.6-23.6,7.6-32.7C200.4,64.9,179.2,75.6,177.6,84.4z"/>
	<path d="M136.1,149.5c0,0,4.4-13.2,17.2-1.2C153.3,148.3,145.3,159.5,136.1,149.5z"/>
</g>
<g>
	<path class="st1" d="M122.5,162.5c0,0-0.8,10-2.8,12.4c0,0-6,4.8-5.6,8s-8.4,8.4-8.4,8.4l-10.4,17.6l-1.6,12.4c0,0,10.4,2.8,21.2-8
		s14-28.3,14-28.3l6-25.9L122.5,162.5z"/>
	<path class="st1" d="M185.2,180c0,0,24.7,8,57.5-32.3c0,0,24-8,23.6,18c0,0-31.1,57.9-67.5,56.3L185.2,180z"/>
	<path class="st1" d="M250.3,137.3c2.8-4,7.1-11.2,9.2-21.2c2.3-10.9,0.8-19.9-0.4-24.7c0,0,2.8-4,7.2,3.2c2.7,3.9,5.4,8.9,7.4,15.1
		c6.4,19.7,0.5,37.3-2.2,44c-0.1-1.6-0.6-6.9-4.7-11.3C260.3,135.7,251.1,137.2,250.3,137.3z"/>
	<path class="st2" d="M122.5,136.5c0,0-32.3,15.2,0,25.9c0,0,9.2,1.2,12.4-3.6s0.4-15.2,0.4-15.2L122.5,136.5z"/>
	<path class="st3" d="M242.7,147.7c-0.3-0.8,0.5-1.5,4.4-6.8c1.3-1.8,2.4-3.3,3.2-4.4c1.3-0.3,8-1.7,14.2,2.5
		c1.2,0.8,6.9,4.7,7.3,11.4c0.2,3.7-1.2,6.6-2,8c-1.2,2.4-2.4,4.8-3.6,7.2c-1.4-7.8-4.1-14-9.2-16.4
		C251.1,146.5,243.6,149.9,242.7,147.7z"/>
	<path class="st1" d="M145.7,234.7c0,0,8.4,7.2,25.9,1.6c0,0,22-1.2,28.7,4.4c6.8,5.6,15.6,3.6,15.6,3.6s6.8-2.8-3.6-10.4
		s-20-8.4-20-8.4l3.2-23.2l-7.2-2.8L142,218.7L145.7,234.7z"/>
	<path class="st4" d="M122.9,187.2c0,0-2.8-0.4-8.8,3.2c-6,3.6-21.2-0.8-21.2-0.8s-5.2-14.8-9.6-13.2C79,178,76.6,188,76.6,188
		s-13.6,0.8-16,14.4l-4.8-23.6c0,0-2.8-4.4-11.2-11.6c-8.4-7.2-14-1.2-14-1.2s4.4,9.2,9.6,12.8s1.2,12.8,1.2,12.8l-4.8,3.6
		c0,0-7.2-4.4-6.8-7.2c0,0-7.6-5.2-11.6-4.4s-8.4,3.6-8.4,3.6s-8.4,8-6.8,11.2s6.8,2,6.8,2s5.6-1.6,8-3.6c0,0,11.6,6.4,12,9.6
		S43.4,230,43.4,230s-1.6,6.8-4.8,7.2s-6.4,6-6.4,6s2.4,2.8,12.4,2.4c10-0.4,10.8-6.8,10.8-6.8S65,221.6,75.8,222
		c0,0,16.4,9.2,18-0.8s1.6-12.4,1.6-12.4s17.6,0.8,19.6,4.4c2,3.6,8,2,8,2s-4.8,6-2.8,7.6s4.4,0,4.4,0s-0.4,3.6,2.4,4.4
		c2.8,0.8,4.4-6,4.4-6l2,1.6c0,0-15.6,8.8-5.2,22.4c0,0,4.8-2.4,6-7.2c0,0,10.8-1.6,11.6-3.2c0,0,12.4-10.4-3.6-16
		c0,0,11.2-6.4,18.4-4.4s30.7-11.6,31.9-10.4c0,0-0.4,8.4,1.2,8.4c0,0-10.8,1.2-4.8,11.2c0,0,2,2.8,3.6,2s8-4.8,8.4-7.2
		c0,0,6.8,2,7.2,0.4s0.4-7.2,0.4-7.2s10.8-7.6,1.6-17.6s-20.8-7.6-20.8-7.6h-1.6c0,0,0.4-3.6-2.4-6.4l6.4-26.3
		c0,0-15.2,5.6-15.6,6.8s-4.8,14-4.8,14s-20.8-20.4-38.7-6.8C132.5,167.7,122.2,180.8,122.9,187.2z"/>
	<path class="st5" d="M172.8,125.3c0,0-0.8,4,2,4.4s1.2,30.7,1.2,30.7s-9.6,3.2-16.8-9.6c0,0-18-8.4-22.8,3.6s0,0,0,0l-1.2-6.4
		C135.3,148.1,168.5,123.3,172.8,125.3z"/>
	<path class="st2" d="M191.6,153.7c0,0,15.2-14.8,19.2-2.4c0,0-8.8,12.4-20.8,9.6L191.6,153.7z"/>
	<path class="st5" d="M122.9,187.2c0,0,0.4,19.2,6.8,19.6l-2.4,4.8C127.3,211.6,110.6,208.8,122.9,187.2z"/>
	<path class="st5" d="M140.5,197.6c0,0,5.2-21.2,20.8-14.8l-0.8,2.4c0,0-8.4-3.6-11.2,8.8C149.3,194,141.7,198,140.5,197.6z"/>
	<path class="st3" d="M191.6,153.7c0,0,14.4-13.6,19.2-2.4c0,0,5.6-3.6-0.8-8.8c0,0-13.6-16-22.8-15.6s-17.6,8.8-17.6,8.8
		s-10.4,18.4,10,24C179.6,159.7,184.4,160.9,191.6,153.7z"/>
	<path class="st3" d="M132.5,167.7c0,0,18.4-8,38.7,6.8l2-1.6c0,0,2.4-8.8,2.8-12.4c0,0-8.8,3.6-16.8-9.6c0,0-21.2-10-24.4,8
		L132.5,167.7z"/>
	<path class="st4" d="M124.9,67.9c0,0-27.9-8.4-30.7-4s10,37.1,10,37.1s-3.2,22,4.4,26.3c7.6,4.4,15.6,10.8,16.4,12.4
		c0.8,1.6,5.6,5.2,5.6,5.2s4-11.6,17.2-1.2c0,0,15.6-18.8,31.9-20s18-8.8,18-8.8S196,99,192,93c0,0,8.8-31.1,5.6-37.5
		s-31.9,6.8-31.9,6.8S143.7,56.3,124.9,67.9z"/>
	<path class="st6" d="M172,79.8c0,0,15.6,9.6,15.2,13.2c0,0,9.6-23.6,7.6-32.7C194.8,60.3,173.6,71,172,79.8z"/>
	<path class="st6" d="M130.5,144.9c0,0,4.4-13.2,17.2-1.2C147.7,143.7,139.7,154.9,130.5,144.9z"/>
</g>
</svg>
