<?xml version="1.0" encoding="utf-8"?>
<!-- Generator: Adobe Illustrator 23.0.6, SVG Export Plug-In . SVG Version: 6.00 Build 0)  -->
<svg version="1.1" id="Layer_1" xmlns="http://www.w3.org/2000/svg" xmlns:xlink="http://www.w3.org/1999/xlink" x="0px" y="0px"
	 viewBox="0 0 288 288" style="enable-background:new 0 0 288 288;" xml:space="preserve">
<style type="text/css">
	.st0{opacity:0.5;}
	.st1{fill:#868292;}
	.st2{fill:#605864;}
	.st3{fill:#C9CAD8;}
	.st4{fill:#6A5056;}
	.st5{fill:#CFACAC;}
	.st6{fill:#A395BB;}
	.st7{fill:#F0F0F8;}
</style>
<g class="st0">
	<path d="M106,158c-3.1,1.7-9.3-10.9-23.7-19.2c-7.5-4.3-8.6-2.6-14.1-6.7c-9.5-7.2-7.4-13.6-14.8-20.2c-10.4-9.3-29.8-10.1-38-2.5
		c-3.9,3.6-7.2,10.9-7.7,10.6c-0.1-0.1-0.1-0.4,0.1-1c1.1-3,8.2-14.2,8.2-14.2s18-17.2,24-17.2c0,0-1.5-4.9-5.2-4.1S30,85.3,30,85.3
		l-4.1-2.2c0,0,7.9-5.6,11.2-4.9s5.6,1.5,5.6,1.5s-8.2-6.7-2.6-6c5.6,0.8,9.4,4.9,9.4,4.9s3.4,9.7,4.9,10.5s0.4,4.5,0.4,4.5
		s19.9,26.6,19.9,30.4l12.4,6.4c0,0,19.5,15.7,23.2,15.7c-1.3,3.8-2.3,6.9-3,9C106.4,157.5,106.3,157.8,106,158z"/>
	<path d="M165,183.3c0,0,18.4,6.4,45.4-6s31.9-14.6,31.9-14.6l-5.6-1.9c0,0,10.5-6.4,25.9-5.6s6.4,3.8,6.4,3.8s-10.5,4.9-12,10.1
		c-1.5,5.2-9.4,8.2-9.4,8.2l1.5-11.6c0,0-7.1,1.5-29.6,17.2s-45.7,21-45.7,21s-27,4.5-36-0.8L165,183.3z"/>
	<path d="M10.9,117.1c0,0,36-16.5,55.1,20.2c0,0,36,14.6,39.7,30.7l1.5-13.1c0,0-15.4-22.5-35.6-25.1c0,0-4.5-24.7-27.7-39
		C43.9,90.9,16.5,101,10.9,117.1z"/>
	<path d="M126.7,139.3c0,0,2.2-1.1,3.4-6.7c1.2-5.6,8.2,0,8.2,0s2.2,16.1,6.4,15.4C144.7,147.9,129.4,144.5,126.7,139.3z"/>
	<path d="M112.9,209.1v10.5c0,0,7.5,5.6,9.4,5.2c1.9-0.4-3.4-5.2-3.4-5.2l-0.4-3.8c0,0,4.5,3.8,5.2,6c0.8,2.2,6.7,3,6.7,3
		s-6.4-11.2-5.6-18.4l5.6-4.5c0,0-18-5.2-22.5-19.5c0,0-8.6,15-0.4,22.9C107.6,205.4,109.5,209.1,112.9,209.1z"/>
	<path d="M161.2,215.4c0,0,1.5,18.4,7.9,21.4c0,0,0-1.1-0.4-4.5s0-8.6,0-8.6s2.2-3.4,3.4,1.9c1.1,5.2,5.6,11.6,5.6,11.6
		s0.8-4.5,0-11.2s-4.9-18.7-4.9-18.7S171.7,216.5,161.2,215.4z"/>
	<path d="M92.2,84.5l2.2-2.6l19.9,4.1c0,0,17.6-1.9,18.4-0.4s-12.4,11.6-12.4,11.6s0.7,7.1,1.9,8.2c1.2,1.1,0,4.1,0,4.1l-3.4,3
		C118.9,112.6,98.2,87.9,92.2,84.5z"/>
	<path d="M76.1,94.6c0,0,12.4,15.7,7.5,26.6c-4.9,10.9-16.5,22.9-16.5,22.9s-4.5,8.6,6,8.6s13.9-1.5,13.9-1.5s11.6-13.1,18-34.1
		l-4.1-8.6c0,0-13.5-11.2-13.9-12.7c0,0-5.2-6.4-8.2-3.7C75.7,94.6,76.1,94.6,76.1,94.6z"/>
	<path d="M104.5,120.4c0,0-4.9-1.5-7.5,0.8c0,0-7.1-2.6-9,1.9s-6,10.5-6,10.5s-10.9,13.5-5.2,20.2c0,0,10.9-1.5,11.2-1.5
		C88.4,152.3,103,131.6,104.5,120.4z"/>
	<path d="M148.1,153.1c0,0,24-19.5,34.1-19.5l4.5-5.2c0,0-7.1-6,14.2-39c0,0,5.6-1.1,9.4-7.1c0,0,45.7-4.9,67.9,6.4
		c0,0-34.9,7.1-47.2,25.5c-12.4,18.4-12.4,16.9-10.5,30.7L219,146c0,0-40.9-12.4-61.9,20.6c0,0-7.5-4.1-9.4-2.2L148.1,153.1z"/>
	<path d="M79.3,131.4c0,0-0.1-2.7-1.1-2.5s-0.9,2.3-0.9,2.3l-0.9-0.7c0,0-1.1,2.3-0.1,3.4c0,0-1.4-1-1.6-0.4s-1.4,3.5-0.4,4.1
		s2.3,0,2.2-0.7s0.1-2.3,0.1-2.3s1,1.3,1.4,0.1s-0.1-2.5-0.1-2.5S79.5,132.6,79.3,131.4z"/>
	<path d="M73.5,141.1c0,0,2.1-2.5-1.1-4.9c0,0-1.6,0.3-0.8,2.6C72.3,141.1,73.5,141.1,73.5,141.1z"/>
	<path d="M71,144.2c0,0,0.8-0.9,0.3-3c-0.6-2.1-1.8-2-1.8-2s-1,2.7,0.2,3.9C70.8,144.4,71,144.2,71,144.2z"/>
	<path d="M84.3,152.3c0,0-3.1-4.9-1.8-5.7c1.3-0.8,4.5,4.6,4.5,4.6L84.3,152.3z"/>
	<path d="M89.1,149.1c0,0-2.2-0.5-2-4.8c0,0,2.9,1.1,3.2,2.6C90.6,148.4,89.1,149.1,89.1,149.1z"/>
	<path d="M91.1,145.6c-0.4-0.1-1.3-3-0.6-3.2c0.6-0.1,2,1.3,2,1.3S92,145.8,91.1,145.6z"/>
	<path d="M93.2,142c0,0-1.1-2.4-0.5-2.5s1.8,0.8,1.8,0.8S94.3,142.2,93.2,142z"/>
	<path d="M95.4,138.4c0,0-1.8-2.8-0.6-2.9c1.1-0.1,2.3,0.3,2.3,0.3S96.1,138.5,95.4,138.4z"/>
	<path d="M97.2,134.7c-0.2-0.1-1.7-2.1-0.8-2.3c0.9-0.2,2,0.3,2,0.3S97.8,134.9,97.2,134.7z"/>
	<path d="M92.2,84.5c0,0-10.9-9-12-12.4c-1.1-3.4-6-0.4-6-0.4s-5.6,6.4-4.9,9.4c0,0-7.5,12.4,3.7,17.2l5.6-6.4c0,0,2.2-3,8.2,3.7
		s13.9,12.7,13.9,12.7l4.1,8.6c0,0-12.7,33.4-18,34.1c-5.2,0.8-13.9,1.5-13.9,1.5s-8.6-0.4-6-8.6c0,0-10.5,6.4,6.7,16.5
		c0,0,18.4,8.2,22.9-10.9s6.7-16.5,6.7-16.5l6.7,12.7c0,0-9,25.1-2.2,37.5c6.7,12.4,13.9,16.1,13.9,16.1s6,4.9,24,3.7
		c0,0,6.4,9.7,15.4,12c9,2.2,11.6-8.2,11.6-8.2s5.2-10.1-7.9-22.9c0,0-3.4-18-5.2-21l-2.6,3.4c0,0-6.7-3.4-9.4-2.2l0.4-11.2
		c0,0,24.7-18.7,34.1-19.5l4.5-5.2c0,0-3.8-9.4,14.2-39c0,0,8.2-2.6,9.4-7.1c0,0,49.5-3.4,67.9,6.4c0,0,10.1,2.6,10.5,3.7
		c0,0-17.6-15.7-77.6-16.1l0.4-4.1c0,0-2.6-4.5-4.5-3.7c-1.9,0.7-1.9,6.7-1.9,6.7l-3-0.8l-0.8-9.4c0,0-3.8-3-4.9,0
		c-1.1,3-1.1,6-1.1,6l1.9,1.5c0,0,0,6.4-6,7.5c0,0-4.5-4.9-6.4-1.9l1.9,6.4c0,0,2.2,3.4,8.2,2.2l0.4,3.4c0,0-15.7,27.7-15.4,36
		c0,0-32.6,17.2-35.2,21.7c0,0-26.6-1.9-25.9-35.2C118.9,112.6,96.4,85.6,92.2,84.5z"/>
	<path d="M68.3,149.8c0,0,0.8-1.8-0.3-4.2s-2.2-3.3-2.2-3.3s-0.8,4,0.4,5.5C67.3,149.2,67.6,150.1,68.3,149.8z"/>
</g>
<g>
	<path class="st1" d="M101,152.6c-3.1,1.7-9.3-10.9-23.7-19.2c-7.5-4.3-8.6-2.6-14.1-6.7c-9.5-7.2-7.4-13.6-14.8-20.2
		c-10.4-9.3-29.8-10.1-38-2.5c-3.9,3.6-7.2,10.9-7.7,10.6c-0.1-0.1-0.1-0.4,0.1-1c1.1-3,8.2-14.2,8.2-14.2s18-17.2,24-17.2
		c0,0-1.5-4.9-5.2-4.1S25,79.9,25,79.9l-4.1-2.2c0,0,7.9-5.6,11.2-4.9s5.6,1.5,5.6,1.5s-8.2-6.7-2.6-6c5.6,0.8,9.4,4.9,9.4,4.9
		s3.4,9.7,4.9,10.5s0.4,4.5,0.4,4.5s19.9,26.6,19.9,30.4l12.4,6.4c0,0,19.5,15.7,23.2,15.7c-1.3,3.8-2.3,6.9-3,9
		C101.4,152.1,101.3,152.4,101,152.6z"/>
	<path class="st1" d="M160,177.9c0,0,18.4,6.4,45.4-6s31.9-14.6,31.9-14.6l-5.6-1.9c0,0,10.5-6.4,25.9-5.6s6.4,3.8,6.4,3.8
		s-10.5,4.9-12,10.1c-1.5,5.2-9.4,8.2-9.4,8.2l1.5-11.6c0,0-7.1,1.5-29.6,17.2s-45.7,21-45.7,21s-27,4.5-36-0.8L160,177.9z"/>
	<path class="st2" d="M5.9,111.7c0,0,36-16.5,55.1,20.2c0,0,36,14.6,39.7,30.7l1.5-13.1c0,0-15.4-22.5-35.6-25.1
		c0,0-4.5-24.7-27.7-39C38.9,85.5,11.5,95.6,5.9,111.7z"/>
	<path class="st1" d="M121.7,133.9c0,0,2.2-1.1,3.4-6.7s8.2,0,8.2,0s2.2,16.1,6.4,15.4C139.7,142.5,124.4,139.1,121.7,133.9z"/>
	<path class="st1" d="M107.9,203.7v10.5c0,0,7.5,5.6,9.4,5.2c1.9-0.4-3.4-5.2-3.4-5.2l-0.4-3.8c0,0,4.5,3.8,5.2,6
		c0.8,2.2,6.7,3,6.7,3s-6.4-11.2-5.6-18.4l5.6-4.5c0,0-18-5.2-22.5-19.5c0,0-8.6,15-0.4,22.9C102.6,200,104.5,203.7,107.9,203.7z"/>
	<path class="st1" d="M156.2,210c0,0,1.5,18.4,7.9,21.4c0,0,0-1.1-0.4-4.5s0-8.6,0-8.6s2.2-3.4,3.4,1.9c1.1,5.2,5.6,11.6,5.6,11.6
		s0.8-4.5,0-11.2s-4.9-18.7-4.9-18.7S166.7,211.1,156.2,210z"/>
	<path class="st3" d="M87.2,79.1l2.2-2.6l19.9,4.1c0,0,17.6-1.9,18.4-0.4s-12.4,11.6-12.4,11.6s0.7,7.1,1.9,8.2s0,4.1,0,4.1l-3.4,3
		C113.9,107.2,93.2,82.5,87.2,79.1z"/>
	<path class="st4" d="M71.1,89.2c0,0,12.4,15.7,7.5,26.6s-16.5,22.9-16.5,22.9s-4.5,8.6,6,8.6s13.9-1.5,13.9-1.5s11.6-13.1,18-34.1
		l-4.1-8.6c0,0-13.5-11.2-13.9-12.7c0,0-5.2-6.4-8.2-3.7C70.7,89.2,71.1,89.2,71.1,89.2z"/>
	<path class="st5" d="M99.5,115c0,0-4.9-1.5-7.5,0.8c0,0-7.1-2.6-9,1.9s-6,10.5-6,10.5s-10.9,13.5-5.2,20.2c0,0,10.9-1.5,11.2-1.5
		C83.4,146.9,98,126.2,99.5,115z"/>
	<path class="st6" d="M143.1,147.7c0,0,24-19.5,34.1-19.5l4.5-5.2c0,0-7.1-6,14.2-39c0,0,5.6-1.1,9.4-7.1c0,0,45.7-4.9,67.9,6.4
		c0,0-34.9,7.1-47.2,25.5c-12.4,18.4-12.4,16.9-10.5,30.7l-1.5,1.1c0,0-40.9-12.4-61.9,20.6c0,0-7.5-4.1-9.4-2.2L143.1,147.7z"/>
	<path class="st7" d="M74.3,126c0,0-0.1-2.7-1.1-2.5s-0.9,2.3-0.9,2.3l-0.9-0.7c0,0-1.1,2.3-0.1,3.4c0,0-1.4-1-1.6-0.4
		s-1.4,3.5-0.4,4.1s2.3,0,2.2-0.7s0.1-2.3,0.1-2.3s1,1.3,1.4,0.1s-0.1-2.5-0.1-2.5S74.5,127.2,74.3,126z"/>
	<path class="st7" d="M68.5,135.7c0,0,2.1-2.5-1.1-4.9c0,0-1.6,0.3-0.8,2.6C67.3,135.7,68.5,135.7,68.5,135.7z"/>
	<path class="st7" d="M66,138.8c0,0,0.8-0.9,0.3-3c-0.6-2.1-1.8-2-1.8-2s-1,2.7,0.2,3.9C65.8,139,66,138.8,66,138.8z"/>
	<path class="st7" d="M79.3,146.9c0,0-3.1-4.9-1.8-5.7c1.3-0.8,4.5,4.6,4.5,4.6L79.3,146.9z"/>
	<path class="st7" d="M84.1,143.7c0,0-2.2-0.5-2-4.8c0,0,2.9,1.1,3.2,2.6C85.6,143,84.1,143.7,84.1,143.7z"/>
	<path class="st7" d="M86.1,140.2c-0.4-0.1-1.3-3-0.6-3.2c0.6-0.1,2,1.3,2,1.3S87,140.4,86.1,140.2z"/>
	<path class="st7" d="M88.2,136.6c0,0-1.1-2.4-0.5-2.5s1.8,0.8,1.8,0.8S89.3,136.8,88.2,136.6z"/>
	<path class="st7" d="M90.4,133c0,0-1.8-2.8-0.6-2.9c1.1-0.1,2.3,0.3,2.3,0.3S91.1,133.1,90.4,133z"/>
	<path class="st7" d="M92.2,129.3c-0.2-0.1-1.7-2.1-0.8-2.3s2,0.3,2,0.3S92.8,129.5,92.2,129.3z"/>
	<path class="st3" d="M87.2,79.1c0,0-10.9-9-12-12.4s-6-0.4-6-0.4s-5.6,6.4-4.9,9.4c0,0-7.5,12.4,3.7,17.2l5.6-6.4
		c0,0,2.2-3,8.2,3.7s13.9,12.7,13.9,12.7l4.1,8.6c0,0-12.7,33.4-18,34.1c-5.2,0.8-13.9,1.5-13.9,1.5s-8.6-0.4-6-8.6
		c0,0-10.5,6.4,6.7,16.5c0,0,18.4,8.2,22.9-10.9s6.7-16.5,6.7-16.5l6.7,12.7c0,0-9,25.1-2.2,37.5c6.7,12.4,13.9,16.1,13.9,16.1
		s6,4.9,24,3.7c0,0,6.4,9.7,15.4,12c9,2.2,11.6-8.2,11.6-8.2s5.2-10.1-7.9-22.9c0,0-3.4-18-5.2-21l-2.6,3.4c0,0-6.7-3.4-9.4-2.2
		l0.4-11.2c0,0,24.7-18.7,34.1-19.5l4.5-5.2c0,0-3.8-9.4,14.2-39c0,0,8.2-2.6,9.4-7.1c0,0,49.5-3.4,67.9,6.4c0,0,10.1,2.6,10.5,3.7
		c0,0-17.6-15.7-77.6-16.1l0.4-4.1c0,0-2.6-4.5-4.5-3.7c-1.9,0.7-1.9,6.7-1.9,6.7l-3-0.8l-0.8-9.4c0,0-3.8-3-4.9,0
		c-1.1,3-1.1,6-1.1,6l1.9,1.5c0,0,0,6.4-6,7.5c0,0-4.5-4.9-6.4-1.9l1.9,6.4c0,0,2.2,3.4,8.2,2.2l0.4,3.4c0,0-15.7,27.7-15.4,36
		c0,0-32.6,17.2-35.2,21.7c0,0-26.6-1.9-25.9-35.2C113.9,107.2,91.4,80.2,87.2,79.1z"/>
	<path class="st7" d="M63.3,144.4c0,0,0.8-1.8-0.3-4.2s-2.2-3.3-2.2-3.3s-0.8,4,0.4,5.5C62.3,143.8,62.6,144.7,63.3,144.4z"/>
</g>
</svg>
