<?xml version="1.0" encoding="utf-8"?>
<!-- Generator: Adobe Illustrator 23.0.6, SVG Export Plug-In . SVG Version: 6.00 Build 0)  -->
<svg version="1.1" id="Layer_1" xmlns="http://www.w3.org/2000/svg" xmlns:xlink="http://www.w3.org/1999/xlink" x="0px" y="0px"
	 viewBox="0 0 288 288" style="enable-background:new 0 0 288 288;" xml:space="preserve">
<style type="text/css">
	.st0{opacity:0.5;}
	.st1{fill:#4F4451;}
	.st2{fill:#8B7B4C;}
	.st3{fill:#EDD26C;}
	.st4{fill:#A1968E;}
	.st5{fill:#FFFFFF;}
	.st6{fill:#C4C3BB;}
</style>
<g class="st0">
	<path d="M124.8,87.9c0,0-20.9-12.6-35.4,6.8c0,0-2.9,32.5,36.4,34c0,0,4.4,8.3,7.8,13.1c0,0,3.4,7.8,1.5,11.2c0,0,4.9,16,35.4,7.3
		c0,0,3.4-12.1,7.8-13.1c0,0,8.3-1.9,9.2-5.3c0,0,30.1,0,36.9-6.3c0,0,16.5-11.6,1.9-27.2c-14.6-15.5-37.4-9.2-37.4-9.2L124.8,87.9z
		"/>
	<path d="M112.2,100c0,0-9.7,9.7-10.7,14.6c0,0-13.6,8.3-18.9,7.3l10.2,5.8c0,0,13.1-6.8,19.4-5.8s6.8-1.5,6.8-1.5
		S118.5,108.3,112.2,100z"/>
	<path d="M211.2,124.3c0,0,3.4,4.9,0,10.2l6.8,4.4l-7.3,6.3c0,0-10.7-6.3-15-5.8c-4.4,0.5-5.8-1.9-5.8-1.9s8.7-3.4,12.1-7.3
		C205.4,126.2,211.2,124.3,211.2,124.3z"/>
	<path d="M135,152.9c0,0-8.3,2.9-7.8,11.6c0,0-17.5,12.1-29.6,10.2c0,0-0.5,13.6,7.3,14.6c0,0,12.1-11.6,31.1-4.4
		c0,0-1,7.3,9.2,10.2s15.5-7.8,15.5-7.8s11.6-8.7,15-5.3c0,0,5.8-13.1,5.3-15l-4.4,0.5c0,0-1.9-4.9-8.3-9.7L135,152.9z"/>
	<path d="M181.1,192.7c0,0,8.7,15.5,5.3,29.6s0.5,19.4,0.5,19.4s12.6,15,11.6,21.4c-1,6.3,9.2,8.7,9.2,8.7l6.3-1.5
		c0,0,0-9.7,12.1-18c0,0,4.9-5.3,6.3-13.6c1.5-8.3,10.2-17,10.2-17l2.4-5.8l2.4-6.3c0,0,3.9-3.9-4.9-6.8c-8.7-2.9-15,2.9-15,2.9
		s-11.2-4.4-15.5-27.7l-21.8-2.9L181.1,192.7z"/>
	<path d="M73.8,192.7c0,0-8.7,16.5-17,18s-11.6-1.9-11.6-1.9s-15.5-3.4-14.6,6.3l1.9,8.3c0,0,3.4,3.4,8.3,4.4S52,238.5,52,238.5
		s7.8,11.2,7.8,15.5l5.8,4.4c0,0,8.3,9.7,9.7,9.7c1.5,0,4.9,0,4.9,0s6.8,1,11.6-16.5c4.9-17.5,1.5-31.1,1.5-31.1l5.8-21.8l-9.2-13.2
		L73.8,192.7z"/>
	<path d="M77.2,197.1c0,0-6.8-10.7,1-19.4s19.4-2.9,19.4-2.9s3.4,16,7.3,14.6l1.9,2.9l-3.4,8.7c0,0-5.8,1.9-6.8,4.9
		C96.7,205.8,99.6,187.4,77.2,197.1z"/>
	<path d="M181.1,192.7c0,0,7.3-20.9,25.2-5.8c0,0,10.2-6.8,4.4-18s-28.2-5.8-28.2-5.8S168.5,185.9,181.1,192.7z"/>
	<path d="M209.2,150c0,0-3.4-17,15-14.6c0,0,12.6,7.8,21.4,4.4c8.7-3.4,17.5,2.4,17.5,2.4l1,27.7c0,0-16.5,7.8-22.3,0.5
		C236,163.1,209.8,156.8,209.2,150z"/>
	<path d="M39.4,122.8c0,0-2.4-9.7,20.9-6.3s20.9,0.5,20.9,0.5s13.1-1,11.6,10.7c-1.5,11.6-18.4,10.2-18.4,10.2
		S39.4,128.7,39.4,122.8z"/>
	<path d="M31.6,118.5c0,0-9.2,4.9-9.2,12.1c0,7.2-1.9,16-1.9,16s-0.5,7.3,7.3,10.2s9.7-3.9,9.7-3.9s-1.5-5.3-2.4-7.3
		c-1-1.9,7.8,1,7.8,1s2.9,3.4,5.3,2.4c0,0,1.5,14.6,10.2,12.6c8.7-1.9,7.3-6.8,7.3-6.8l-0.5-3.4c0,0,4.9-2.9,5.3-1.5
		c0.5,1.5,6.3,23.8,18,14.1c11.6-9.7-9.2-22.3-9.2-22.3s-8.4-11.1-8.4-14.5c0-3.4-6.3-4.9-6.3-4.9s-8.7,1-13.6,3.4
		c-4.9,2.4-11.6-2.9-11.6-2.9S33.6,119.4,31.6,118.5z"/>
	<path d="M224.2,159.7c0,0,6.3-9.2,6.8-11.6c0.5-2.4,3.9-7.3,3.9-7.3l6.3-1.5c0,0,11.2,9.7,14.6,7.3c3.4-2.4,9.2-4.9,9.2-4.9
		s9.2-3.4,14.1,6.8c0,0,0.5,9.7,1.9,12.1c1.5,2.4-1.9,10.7-1.9,10.7s-15,12.1-15-1.5c0,0-7.3-4.4-15-1.5c0,0-0.5,11.6-8.7,10.2
		s-6.8-9.2-6.8-9.2s-12.1,17.5-17,11.2s2.9-13.6,2.9-13.6L224.2,159.7z"/>
	<path d="M127.7,82.1c0,0-20.9-57.3-17.5-56.8s32.5,34,32.5,34s7.3,7.3,12.1,6.3c0,0,14.6-1,18.9,2.9c0,0,57.8-31.1,57.8-27.2
		c0,3.9-39.3,45.6-39.3,45.6s-2.4,11.2,7.8,19.9s-16,2.4-30.1,10.7c0,0-11.2,6.3-11.2,10.2c0,0,26.2,7.8,49.5-19.9
		s49.5-30.1,49.5-30.1l10.7-8.3l-1.9,6.8l8.7-1.9l-1.5,2.4l15.5,1.5L278,85l4.4,0.5l-13.1,5.8l6.8,0.5l-10.2,9.7l5.8,1.5l-7.3,3.4
		l4.9,2.4l-11.6,1.9l1,5.8c0,0-14.6-9.7-47.6,4.9s-54.8,11.2-54.8,11.2s-6.8,9.2-13.1,4.9c-6.3-4.4-4.4-8.7-4.4-8.7
		s-20.9,4.4-37.4-14.1s-65-9.7-65-9.7l2.4-4.4h-9.2l7.8-7.3l-1.9-2.4l5.8-1.9l-8.3-3.4c0,0,11.6-5.3,14.6-3.9l-3.9-7.3l7.8,0.5
		l-6.8-9.7l13.1,6.3l1.5-4.9l7.3,8.3c0,0,32.5,12.1,40.8,30.1s31.6,19.4,31.6,19.4s-4.9-18.9-16.5-22.3s-8.7-9.2-8.7-9.2
		S128.7,86.4,127.7,82.1z"/>
	<path d="M37,212.6c0,0-11.6,0-14.1,11.2l9.7-0.5C32.6,223.3,39.9,225.3,37,212.6z"/>
	<path d="M65.1,228.2c0,0,1-12.1-7.8-5.3c0,0-5.3,14.1,0.5,11.6S65.1,228.2,65.1,228.2z"/>
	<path d="M72.9,262.1c0,0-2.4,12.6,0,12.1s7.3-6.3,7.3-6.3S85.5,260.2,72.9,262.1z"/>
	<path d="M203,201c0,0-9.2,7.3,1.5,17C204.4,218,216.1,202.9,203,201z"/>
	<path d="M240.8,208.3c0,0,8.3-4.4,9.7,10.7l-10.2-1C240.2,218,235,214.1,240.8,208.3z"/>
	<path d="M207.8,262.6c0,0-10.2,4.9,5.3,13.6C213.2,276.2,218.5,263.6,207.8,262.6z"/>
	<path d="M22.4,135.5c0,0-4.9,0.5-7.3-4.4c-2.4-4.9-5.8,0.5-5.8,0.5s0,14.1,4.9,11.6s7.8-0.5,7.8-0.5L22.4,135.5z"/>
	<polygon points="37,139.3 51,142.3 49.6,146.1 36,143.7 	"/>
	<path d="M67.1,144.7c0,0,9.2,0.5,12.1-2.9s11.6-2.9,11.6-2.9s18.9-0.5,19.4,17.5c0,0-6.3,13.6-21.8,7.8s-16.5-11.8-16.5-11.8
		l-6.8-1L67.1,144.7z"/>
	<path d="M281.1,160.7l8.3-4.9c0,0,3.4,4.9-2.4,12.1l-5.8-1.9v-5.3H281.1z"/>
	<polygon points="249.1,159.7 265.6,160.2 266.5,165.1 249.1,164.6 	"/>
	<path d="M232.1,158.8c0,0-6.8,1.9-11.6-2.4c-4.9-4.4-17.5-9.2-17.5-9.2s-21.4-2.9-22.3,12.6c-1,15.5,28.6,12.6,28.6,12.6
		s8.3-6.8,13.1-6.8c4.9,0,10.2-1,10.2-1L232.1,158.8z"/>
</g>
<g>
	<path class="st1" d="M119.9,82.7c0,0-20.9-12.6-35.4,6.8c0,0-2.9,32.5,36.4,34c0,0,4.4,8.3,7.8,13.1c0,0,3.4,7.8,1.5,11.2
		c0,0,4.9,16,35.4,7.3c0,0,3.4-12.1,7.8-13.1c0,0,8.3-1.9,9.2-5.3c0,0,30.1,0,36.9-6.3c0,0,16.5-11.6,1.9-27.2
		C206.8,87.7,184,94,184,94L119.9,82.7z"/>
	<path class="st2" d="M107.3,94.8c0,0-9.7,9.7-10.7,14.6c0,0-13.6,8.3-18.9,7.3l10.2,5.8c0,0,13.1-6.8,19.4-5.8s6.8-1.5,6.8-1.5
		S113.6,103.1,107.3,94.8z"/>
	<path class="st2" d="M206.3,119.1c0,0,3.4,4.9,0,10.2l6.8,4.4l-7.3,6.3c0,0-10.7-6.3-15-5.8c-4.4,0.5-5.8-1.9-5.8-1.9
		s8.7-3.4,12.1-7.3C200.5,121,206.3,119.1,206.3,119.1z"/>
	<path class="st2" d="M130.1,147.7c0,0-8.3,2.9-7.8,11.6c0,0-17.5,12.1-29.6,10.2c0,0-0.5,13.6,7.3,14.6c0,0,12.1-11.6,31.1-4.4
		c0,0-1,7.3,9.2,10.2s15.5-7.8,15.5-7.8s11.6-8.7,15-5.3c0,0,5.8-13.1,5.3-15l-4.4,0.5c0,0-1.9-4.9-8.3-9.7L130.1,147.7z"/>
	<path class="st3" d="M176.2,187.5c0,0,8.7,15.5,5.3,29.6s0.5,19.4,0.5,19.4s12.6,15,11.6,21.4c-1,6.3,9.2,8.7,9.2,8.7l6.3-1.5
		c0,0,0-9.7,12.1-18c0,0,4.9-5.3,6.3-13.6c1.5-8.3,10.2-17,10.2-17l2.4-5.8l2.4-6.3c0,0,3.9-3.9-4.9-6.8c-8.7-2.9-15,2.9-15,2.9
		s-11.2-4.4-15.5-27.7l-21.8-2.9L176.2,187.5z"/>
	<path class="st3" d="M68.9,187.5c0,0-8.7,16.5-17,18s-11.6-1.9-11.6-1.9s-15.5-3.4-14.6,6.3l1.9,8.3c0,0,3.4,3.4,8.3,4.4
		s11.2,10.7,11.2,10.7s7.8,11.2,7.8,15.5l5.8,4.4c0,0,8.3,9.7,9.7,9.7c1.5,0,4.9,0,4.9,0s6.8,1,11.6-16.5
		c4.9-17.5,1.5-31.1,1.5-31.1l5.8-21.8L85,180.3L68.9,187.5z"/>
	<path class="st4" d="M72.3,191.9c0,0-6.8-10.7,1-19.4s19.4-2.9,19.4-2.9s3.4,16,7.3,14.6l1.9,2.9l-3.4,8.7c0,0-5.8,1.9-6.8,4.9
		C91.8,200.6,94.7,182.2,72.3,191.9z"/>
	<path class="st4" d="M176.2,187.5c0,0,7.3-20.9,25.2-5.8c0,0,10.2-6.8,4.4-18s-28.2-5.8-28.2-5.8S163.6,180.7,176.2,187.5z"/>
	<path class="st4" d="M204.4,144.8c0,0-3.4-17,15-14.6c0,0,12.6,7.8,21.4,4.4c8.7-3.4,17.5,2.4,17.5,2.4l1,27.7
		c0,0-16.5,7.8-22.3,0.5C231.1,157.9,204.9,151.6,204.4,144.8z"/>
	<path class="st4" d="M34.5,117.6c0,0-2.4-9.7,20.9-6.3s20.9,0.5,20.9,0.5s13.1-1,11.6,10.7c-1.5,11.6-18.4,10.2-18.4,10.2
		S34.5,123.5,34.5,117.6z"/>
	<path class="st3" d="M26.7,113.3c0,0-9.2,4.9-9.2,12.1c0,7.2-1.9,16-1.9,16s-0.5,7.3,7.3,10.2s9.7-3.9,9.7-3.9s-1.5-5.3-2.4-7.3
		c-1-1.9,7.8,1,7.8,1s2.9,3.4,5.3,2.4c0,0,1.5,14.6,10.2,12.6c8.7-1.9,7.3-6.8,7.3-6.8l-0.5-3.4c0,0,4.9-2.9,5.3-1.5
		c0.5,1.5,6.3,23.8,18,14.1c11.6-9.7-9.2-22.3-9.2-22.3S66,125.4,66,122s-6.3-4.9-6.3-4.9s-8.7,1-13.6,3.4s-11.6-2.9-11.6-2.9
		S28.7,114.2,26.7,113.3z"/>
	<path class="st3" d="M219.4,154.5c0,0,6.3-9.2,6.8-11.6c0.5-2.4,3.9-7.3,3.9-7.3l6.3-1.5c0,0,11.2,9.7,14.6,7.3s9.2-4.9,9.2-4.9
		s9.2-3.4,14.1,6.8c0,0,0.5,9.7,1.9,12.1c1.5,2.4-1.9,10.7-1.9,10.7s-15,12.1-15-1.5c0,0-7.3-4.4-15-1.5c0,0-0.5,11.6-8.7,10.2
		s-6.8-9.2-6.8-9.2s-12.1,17.5-17,11.2s2.9-13.6,2.9-13.6L219.4,154.5z"/>
	<path class="st3" d="M122.8,76.9c0,0-20.9-57.3-17.5-56.8s32.5,34,32.5,34s7.3,7.3,12.1,6.3c0,0,14.6-1,18.9,2.9
		c0,0,57.8-31.1,57.8-27.2s-39.3,45.6-39.3,45.6s-2.4,11.2,7.8,19.9s-16,2.4-30.1,10.7c0,0-11.2,6.3-11.2,10.2
		c0,0,26.2,7.8,49.5-19.9s49.5-30.1,49.5-30.1l10.7-8.3l-1.9,6.8l8.7-1.9l-1.5,2.4l15.5,1.5l-11.2,6.8l4.4,0.5l-13.1,5.8l6.8,0.5
		L261,96.3l5.8,1.5l-7.3,3.4l4.9,2.4l-11.6,1.9l1,5.8c0,0-14.6-9.7-47.6,4.9s-54.8,11.2-54.8,11.2s-6.8,9.2-13.1,4.9
		c-6.3-4.4-4.4-8.7-4.4-8.7S113,128,96.5,109.5s-65-9.7-65-9.7l2.4-4.4h-9.2l7.8-7.3l-1.9-2.4l5.8-1.9l-8.3-3.4
		c0,0,11.6-5.3,14.6-3.9l-3.9-7.3l7.8,0.5L39.8,60l13.1,6.3l1.5-4.9l7.3,8.3c0,0,32.5,12.1,40.8,30.1s31.6,19.4,31.6,19.4
		s-4.9-18.9-16.5-22.3s-8.7-9.2-8.7-9.2S123.8,81.2,122.8,76.9z"/>
	<path class="st5" d="M32.1,207.4c0,0-11.6,0-14.1,11.2l9.7-0.5C27.7,218.1,35,220.1,32.1,207.4z"/>
	<path class="st5" d="M60.2,223c0,0,1-12.1-7.8-5.3c0,0-5.3,14.1,0.5,11.6S60.2,223,60.2,223z"/>
	<path class="st5" d="M68,256.9c0,0-2.4,12.6,0,12.1s7.3-6.3,7.3-6.3S80.6,255,68,256.9z"/>
	<path class="st5" d="M198.1,195.8c0,0-9.2,7.3,1.5,17C199.5,212.8,211.2,197.7,198.1,195.8z"/>
	<path class="st5" d="M235.9,203.1c0,0,8.3-4.4,9.7,10.7l-10.2-1C235.4,212.8,230.1,208.9,235.9,203.1z"/>
	<path class="st5" d="M202.9,257.4c0,0-10.2,4.9,5.3,13.6C208.3,271,213.6,258.4,202.9,257.4z"/>
	<path class="st6" d="M17.5,130.3c0,0-4.9,0.5-7.3-4.4s-5.8,0.5-5.8,0.5s0,14.1,4.9,11.6s7.8-0.5,7.8-0.5L17.5,130.3z"/>
	<polygon class="st6" points="32.1,134.1 46.1,137.1 44.7,140.9 31.1,138.5 	"/>
	<path class="st6" d="M62.2,139.5c0,0,9.2,0.5,12.1-2.9s11.6-2.9,11.6-2.9s18.9-0.5,19.4,17.5c0,0-6.3,13.6-21.8,7.8
		S67,147.2,67,147.2l-6.8-1L62.2,139.5z"/>
	<path class="st6" d="M276.2,155.5l8.3-4.9c0,0,3.4,4.9-2.4,12.1l-5.8-1.9v-5.3H276.2z"/>
	<polygon class="st6" points="244.2,154.5 260.7,155 261.6,159.9 244.2,159.4 	"/>
	<path class="st6" d="M227.2,153.6c0,0-6.8,1.9-11.6-2.4c-4.9-4.4-17.5-9.2-17.5-9.2s-21.4-2.9-22.3,12.6
		c-1,15.5,28.6,12.6,28.6,12.6s8.3-6.8,13.1-6.8c4.9,0,10.2-1,10.2-1L227.2,153.6z"/>
</g>
</svg>
