<?xml version="1.0" encoding="utf-8"?>
<!-- Generator: Adobe Illustrator 23.0.6, SVG Export Plug-In . SVG Version: 6.00 Build 0)  -->
<svg version="1.1" id="Layer_1" xmlns="http://www.w3.org/2000/svg" xmlns:xlink="http://www.w3.org/1999/xlink" x="0px" y="0px"
	 viewBox="0 0 288 288" style="enable-background:new 0 0 288 288;" xml:space="preserve">
<style type="text/css">
	.st0{opacity:0.5;}
	.st1{fill:#877989;}
	.st2{fill:#A7A0B5;}
	.st3{fill:#383433;}
	.st4{fill:#A35D57;}
	.st5{fill:#AC9064;}
	.st6{fill:#7B6062;}
	.st7{fill:#D8B4C0;}
	.st8{fill:#F4F4F8;}
</style>
<g class="st0">
	<path d="M105.4,259.5c-5.7,0.7-46.2,5.6-68.4-7.6c-4.6-2.8-12.5-7.5-15.2-16.6c-1.5-5.3-0.7-10.1,0-12.9c0.2-1.8,0.7-4.5,2-7.6
		c2.6-6.1,4.1-8.2,10.5-13.4c7.6-6.2,9.7-17.3,9.7-17.3c0.8-5-0.2-7.1-1.3-8c-0.9-0.7-1.9-0.9-7-3.1c-0.7-0.3-1.2-0.6-1.5-1.2
		c-0.9-1.9,2.2-5,2.2-5s25.6,0.7,18.7,19.3c-6.9,18.7-10.4,29-10.4,29c-0.5,4.4,0.7,7.1,1.5,8.5c4,7,15.7,9.7,28.7,5.5
		c11.4-5.5,25.1-11,41-15.4c26.1-7.2,49.3-9,67-9c0,0,38-7.6,61.5,15.2s0.7,47.7,0.7,47.7s-15.2,10.4-18.7,9c0,0,32.5-37.3-18-42.8
		c0,0-25.6,3.5-29,3.5C175.9,237.4,105.4,259.5,105.4,259.5z"/>
	<path d="M98.8,40c0,0-33.9,9-25.6,50.4s48.4,59.4,48.4,74.6s-6.9,30.4-6.9,30.4s-21.4,40.8-9,59.4S134,279,134,279
		s47.7,16.6,94.7-2.8c0,0,17.3-11.7,6.9-33.2s-38-9-38-9s-20,0-15.9-17.3s27.6-31.1,27.6-31.1s49.1-28.3,52.5-51.8
		c3.5-23.5-3.5-42.8-3.5-42.8s-21.4-44.9-56-56c0,0-19.3-25.6-51.8-22.1S98.8,40,98.8,40z"/>
	<path d="M89.8,61.4c0,0-41.5,18.7,44.2,96c0,0,84.3,20,105-4.1c0,0,38.7-44.9-18-94s-63.5,4.2-63.5,4.2L89.8,61.4z"/>
	<path d="M103.6,121.5c0,0,19.3,22.1,43.5,5.5c0,0,31.1,38.7,75.3-9.7c0,0,0,39.4-26.9,43.5s-36.6,8.3-36.6,8.3l-9,6.9
		c0,0-7.6-13.8-12.4-15.9S118.2,147,118.2,147S101.5,128.4,103.6,121.5z"/>
	<path d="M143.7,80.1l5.5,4.1l2.8-14.5l5.5-6.2c0,0,3.5-14.5,6.2-14.5c0,0,1.4,20.7-4.1,32.5c0,0,31.8-20.7,40.1-16.6
		c0,0-48.4,30.4-49.7,41.5l-9.7-15.2L143.7,80.1z"/>
	<path d="M97.4,80.8c0,0,0,33.9,25.6,41.5c0,0,15.9,2.1,9-19.3l2.8-4.8c0,0,13.8,16.6,0,25.6s-26.9-4.8-26.9-4.8s-20-16.6-13.8-40.1
		L97.4,80.8z"/>
	<path d="M159.1,108.4c2.1-4.4,5.8-10.7,12.4-15.9c6.9-5.5,12.7-6.5,25.4-11.9c5.1-2.2,12.4-5.5,21-10.4c0.9-0.2,2.1-0.2,3.3,0.3
		c2.6,1.2,5.5,5.5,3,19.2c-4.1,22.6-15.2,32.7-15.2,32.7s-14.7,18.9-35.7,12C152.2,127.5,159.1,108.4,159.1,108.4z"/>
	<path d="M165.3,121.3c0,0-8.5-15,18.9-28.3s31.6-17,31.6-17s8.5,0.7,0.2,21.6s-18.7,26.3-18.7,26.3S175.5,136.3,165.3,121.3z"/>
	<path d="M97.4,80.8l22.6-1.2c0,0,22.3,33.4,10.1,40.5c0,0-14.3,10.4-27.2-13.6S97.4,80.8,97.4,80.8z"/>
	<path d="M208.4,87.9c0,0-49.3,18.4-23.5,24c0,0-2.8,14.7,8.3,5.5C204.2,108.2,208.4,87.9,208.4,87.9z"/>
	<path d="M106.1,84.7c0,0,23,17,21.2,21.2c-1.8,4.1-7.8,1.8-7.8,1.8s0.5,11.1-6.9,0.9S106.1,84.7,106.1,84.7z"/>
	<path d="M89.8,61.4c0,0-5.5,19.3,11.7,19.3c0,0,11.1,5.5,17.3-0.7c6.2-6.2,23.5-9.7,23.5-9.7s-9,17.3-8.3,22.8
		c0.3,2.6-1.5,4.4-3.5,5.7c-2.3,1.4-4.8,1.9-4.8,1.9s-9.7,0-11.7-5.5c0,0,2.8,15.2,18,7.6c0,0,7.6-7.6,11.7-22.8
		c0,0,7.6-12.4,12.4-13.8c4.8-1.4,5.5-20.7,5.5-20.7L89.8,61.4z"/>
	<ellipse cx="147.6" cy="90.4" rx="1.2" ry="2.8"/>
	<path d="M159.1,87.4c0,0-4.1,2.1-2.8,5.8C156.3,93.2,159.8,93.4,159.1,87.4z"/>
	<path d="M117,81.7c0,0,7.6-8.1,24.2-10.6l-5.8,15.2c0,0-0.2,16.1-10.4,15s-11.1-6-11.1-6S118.1,84.9,117,81.7z"/>
	<path d="M123.6,76.8c0,0-3.7,11.1-7.8,12c-4.1,0.9-14.7,7.8-14.7,7.8s-16.2,12.9-12.5,28.1c0,0,2.5-12.4,5.3-10.6
		s2.5,12.4,2.5,12.4s1.4-4.1,1.2-14.3c-0.2-10.1,8.5-14.3,8.5-14.3s16.8-5.8,21-14.5c4.1-8.8,7.8-11.3,7.8-11.3
		c-2,0.6-4.2,1.3-6.6,2.3C126.6,75.3,125,76.1,123.6,76.8z"/>
	<polygon points="96.8,80.3 97.5,83.1 98.9,80.8 	"/>
	<polygon points="114,82.9 115.8,84.8 116,82 	"/>
	<path d="M117.3,99.2c-0.1-1-0.2-1.9-0.3-2.9l-2.5,0.2C115.4,97.4,116.3,98.3,117.3,99.2z"/>
	<path d="M119.3,100c0.1-1,0.2-2.1,0.2-3.1l3,3.5l-0.2-4.1c2.2,1.5,4.4,3,6.6,4.5c-0.9,0.4-2.3,0.8-4.2,0.8
		C122.1,101.4,120.2,100.5,119.3,100z"/>
	<polygon points="130.8,99.5 127.7,93.2 133,96.9 	"/>
	<path d="M134.3,93.3c-0.9-1.3-1.8-2.5-2.6-3.8l3-0.2l-1.4-4.1l2.5,0.2C135.3,88,134.8,90.7,134.3,93.3z"/>
</g>
<g>
	<path class="st1" d="M98.4,253c-5.7,0.7-46.2,5.6-68.4-7.6c-4.6-2.8-12.5-7.5-15.2-16.6c-1.5-5.3-0.7-10.1,0-12.9
		c0.2-1.8,0.7-4.5,2-7.6c2.6-6.1,4.1-8.2,10.5-13.4c7.6-6.2,9.7-17.3,9.7-17.3c0.8-5-0.2-7.1-1.3-8c-0.9-0.7-1.9-0.9-7-3.1
		c-0.7-0.3-1.2-0.6-1.5-1.2c-0.9-1.9,2.2-5,2.2-5S55,161,48.1,179.6c-6.9,18.7-10.4,29-10.4,29c-0.5,4.4,0.7,7.1,1.5,8.5
		c4,7,15.7,9.7,28.7,5.5c11.4-5.5,25.1-11,41-15.4c26.1-7.2,49.3-9,67-9c0,0,38-7.6,61.5,15.2s0.7,47.7,0.7,47.7s-15.2,10.4-18.7,9
		c0,0,32.5-37.3-18-42.8c0,0-25.6,3.5-29,3.5C168.9,230.9,98.4,253,98.4,253z"/>
	<path class="st2" d="M91.8,33.5c0,0-33.9,9-25.6,50.4s48.4,59.4,48.4,74.6s-6.9,30.4-6.9,30.4s-21.4,40.8-9,59.4
		s28.3,24.2,28.3,24.2s47.7,16.6,94.7-2.8c0,0,17.3-11.7,6.9-33.2s-38-9-38-9s-20,0-15.9-17.3s27.6-31.1,27.6-31.1
		s49.1-28.3,52.5-51.8c3.5-23.5-3.5-42.8-3.5-42.8s-21.4-44.9-56-56c0,0-19.3-25.6-51.8-22.1S91.8,33.5,91.8,33.5z"/>
	<path class="st1" d="M82.8,54.9c0,0-41.5,18.7,44.2,96c0,0,84.3,20,105-4.1c0,0,38.7-44.9-18-94S150.5,57,150.5,57L82.8,54.9z"/>
	<path class="st3" d="M96.6,115c0,0,19.3,22.1,43.5,5.5c0,0,31.1,38.7,75.3-9.7c0,0,0,39.4-26.9,43.5s-36.6,8.3-36.6,8.3l-9,6.9
		c0,0-7.6-13.8-12.4-15.9s-19.3-13.1-19.3-13.1S94.5,121.9,96.6,115z"/>
	<path class="st3" d="M136.7,73.6l5.5,4.1l2.8-14.5l5.5-6.2c0,0,3.5-14.5,6.2-14.5c0,0,1.4,20.7-4.1,32.5c0,0,31.8-20.7,40.1-16.6
		c0,0-48.4,30.4-49.7,41.5l-9.7-15.2L136.7,73.6z"/>
	<path class="st3" d="M90.4,74.3c0,0,0,33.9,25.6,41.5c0,0,15.9,2.1,9-19.3l2.8-4.8c0,0,13.8,16.6,0,25.6s-26.9-4.8-26.9-4.8
		s-20-16.6-13.8-40.1L90.4,74.3z"/>
	<path class="st3" d="M152.1,101.9c2.1-4.4,5.8-10.7,12.4-15.9c6.9-5.5,12.7-6.5,25.4-11.9c5.1-2.2,12.4-5.5,21-10.4
		c0.9-0.2,2.1-0.2,3.3,0.3c2.6,1.2,5.5,5.5,3,19.2c-4.1,22.6-15.2,32.7-15.2,32.7s-14.7,18.9-35.7,12
		C145.2,121,152.1,101.9,152.1,101.9z"/>
	<path class="st4" d="M158.3,114.8c0,0-8.5-15,18.9-28.3s31.6-17,31.6-17s8.5,0.7,0.2,21.6s-18.7,26.3-18.7,26.3
		S168.5,129.8,158.3,114.8z"/>
	<path class="st4" d="M90.4,74.3l22.6-1.2c0,0,22.3,33.4,10.1,40.5c0,0-14.3,10.4-27.2-13.6S90.4,74.3,90.4,74.3z"/>
	<path class="st5" d="M201.4,81.4c0,0-49.3,18.4-23.5,24c0,0-2.8,14.7,8.3,5.5C197.2,101.7,201.4,81.4,201.4,81.4z"/>
	<path class="st5" d="M99.1,78.2c0,0,23,17,21.2,21.2c-1.8,4.1-7.8,1.8-7.8,1.8s0.5,11.1-6.9,0.9S99.1,78.2,99.1,78.2z"/>
	<path class="st2" d="M82.8,54.9c0,0-5.5,19.3,11.7,19.3c0,0,11.1,5.5,17.3-0.7c6.2-6.2,23.5-9.7,23.5-9.7s-9,17.3-8.3,22.8
		c0.3,2.6-1.5,4.4-3.5,5.7c-2.3,1.4-4.8,1.9-4.8,1.9s-9.7,0-11.7-5.5c0,0,2.8,15.2,18,7.6c0,0,7.6-7.6,11.7-22.8
		c0,0,7.6-12.4,12.4-13.8s5.5-20.7,5.5-20.7L82.8,54.9z"/>
	<ellipse class="st4" cx="140.6" cy="83.9" rx="1.2" ry="2.8"/>
	<path class="st4" d="M152.1,80.9c0,0-4.1,2.1-2.8,5.8C149.3,86.7,152.8,86.9,152.1,80.9z"/>
	<path class="st6" d="M110,75.2c0,0,7.6-8.1,24.2-10.6l-5.8,15.2c0,0-0.2,16.1-10.4,15s-11.1-6-11.1-6S111.1,78.4,110,75.2z"/>
	<path class="st7" d="M116.6,70.3c0,0-3.7,11.1-7.8,12c-4.1,0.9-14.7,7.8-14.7,7.8S77.9,103,81.6,118.2c0,0,2.5-12.4,5.3-10.6
		s2.5,12.4,2.5,12.4s1.4-4.1,1.2-14.3c-0.2-10.1,8.5-14.3,8.5-14.3s16.8-5.8,21-14.5c4.1-8.8,7.8-11.3,7.8-11.3
		c-2,0.6-4.2,1.3-6.6,2.3C119.6,68.8,118,69.6,116.6,70.3z"/>
	<polygon class="st8" points="89.8,73.8 90.5,76.6 91.9,74.3 	"/>
	<polygon class="st8" points="107,76.4 108.8,78.3 109,75.5 	"/>
	<path class="st8" d="M110.3,92.7c-0.1-1-0.2-1.9-0.3-2.9l-2.5,0.2C108.4,90.9,109.3,91.8,110.3,92.7z"/>
	<path class="st8" d="M112.3,93.5c0.1-1,0.2-2.1,0.2-3.1l3,3.5l-0.2-4.1c2.2,1.5,4.4,3,6.6,4.5c-0.9,0.4-2.3,0.8-4.2,0.8
		C115.1,94.9,113.2,94,112.3,93.5z"/>
	<polygon class="st8" points="123.8,93 120.7,86.7 126,90.4 	"/>
	<path class="st8" d="M127.3,86.8c-0.9-1.3-1.8-2.5-2.6-3.8l3-0.2l-1.4-4.1l2.5,0.2C128.3,81.5,127.8,84.2,127.3,86.8z"/>
</g>
</svg>
