<?xml version="1.0" encoding="utf-8"?>
<!-- Generator: Adobe Illustrator 23.0.6, SVG Export Plug-In . SVG Version: 6.00 Build 0)  -->
<svg version="1.1" id="Layer_1" xmlns="http://www.w3.org/2000/svg" xmlns:xlink="http://www.w3.org/1999/xlink" x="0px" y="0px"
	 viewBox="0 0 288 288" style="enable-background:new 0 0 288 288;" xml:space="preserve">
<style type="text/css">
	.st0{opacity:0.5;}
	.st1{fill:#8A6B5E;}
	.st2{fill:#BCA9A0;}
	.st3{fill:#E0A57A;}
	.st4{fill:#6B7378;}
	.st5{fill:#42515A;}
	.st6{fill:#F2DBC1;}
	.st7{fill:#F6F0EE;}
</style>
<g class="st0">
	<path d="M173.8,229.7l15-5.5l-3-12.5l-23.4-19.4l-23.9,8l-7,51.3l1.5,2.5c0,0,5,2.5,7.5,1.5c0,0,5.5,1.5,7,0c0,0,3.5,0.5,9.5-1.5
		s11.5-4.5,11.5-4.5v-13.5l6.5-0.5v-2.5l5.5-1.5C180.3,231.7,175.3,229.2,173.8,229.7z"/>
	<polygon points="129.5,71.2 133.4,71.2 132,73.2 138.4,73.2 132,77.2 135.9,78.7 132.9,80.7 141.4,82.7 132,88.2 136.9,92.6 
		132.9,94.6 137.4,95.6 133.4,97.6 143.9,103.1 140.8,103.4 138.4,103.6 136.9,106.1 152.9,107.6 142.4,111.1 146.4,112.6 
		142.4,113.1 149.4,115.1 145.4,117.6 149.9,119.1 137.9,120.6 147.9,124 134.4,127 138.4,128 134.9,129.5 141.4,131.5 130.5,135 
		98.6,108.1 115.5,71.2 	"/>
	<path d="M162.9,134.5c0,0-23.4-13.5-16.9-38.4s16-29.9,16-29.9s25.9-22.4,40.9-26.4l-2,5l9-7l-1.5,6c0,0,12-10,13.5-8l-13,16.5
		l4-0.5l-3,6l15-4.5l-9.5,7.5h3.5l-2.5,3c0,0,36.9,23.9,43.4,55.3l10.5,1.5l-4,3l20.4,3.5l-9,4.5l15,4.5l-19.4,5.5l4,3l-8.5,1l1.5,2
		l-3,0.5l6,4.5l-26.4,0.5l3,5l-4.5,0.5l3.5,4.5l-27.4-15c0,0-8,24.4-15.5,27.4C198.3,178.4,162.9,134.5,162.9,134.5z"/>
	<polygon points="78.1,238.2 85.6,230.7 98.1,227.7 92.1,223.2 97.6,219.8 92.6,219.8 100.5,214.3 100,195.3 80.1,184.9 72.1,210.3 
			"/>
	<path d="M113.5,110.6l11.5,17.9l27.9,8c0,0,19.9-10.5,31.9-1.5s14,13.5,14,13.5s11.5,16,11,34.9s17.4,31.9,17.4,31.9l-13,31.9
		c0,0,4.5,11.5-2,15s-15,7-17.4,5.5c0,0-11,1.5-12.5-0.5c0,0-9-0.5-9-4s1.5-8,1.5-8s1.5-3,7-4s9-16.9,9-16.9l-8.5-17.9
		c0,0-16.9-6.5-20.4-17.4c-3.5-11-5.5-18.9-5.5-18.9l-26.9,30.4c0,0,8.5,42.9,2.5,63.3c0,0-12.5,10-17.4,6.5c0,0-11.5,1-14-1
		c0,0-12-0.5-11-6.5s7-8,7-8s9-13,1.5-48.9l-8-30.9l-12.5,17.9l2,41.9c0,0,2,20.9-4.5,22.4s-16,4-16,4l-3.5-2c0,0-10.5,3.5-11.5,1
		c0,0-9-1.5-6-8s6.5-7.5,6.5-7.5s9.5-12.5,6-36.4s-8-30.4-8-30.4l-2-12l3-21.4L91,108.6L113.5,110.6z"/>
	<path d="M111,118.1l10,15c0,0,24.4,9.5,39.4,18.4l-5.5-6.5l3,1l-3-3l3-1l-8-6l-22.4-6.5c0,0-12-9.5-12.5-16.9c-0.5-7.5-6-3-6-3
		S107,115.1,111,118.1z"/>
	<path d="M177.3,159.4c0,0,8-14,4-25.4c0,0,12.5,3.5,14.5,11c0,0-3.5,12.5-5.5,13v-3l-3.5,2l-0.5-2.5l-4,6.5l0.5-4.5L177.3,159.4z"
		/>
	<path d="M198.8,148.5c0,0,8.5,11,7.5,18.4c0,0-10,22.4-24.9,26.9l2.5-3.5c0,0-15.5,9-16,7.5s6-5.5,6-5.5l-3-1.5l7.5-4.5l-5.5,1.5
		C172.8,187.9,201.2,161.4,198.8,148.5z"/>
	<path d="M184.2,202.3c0,0,25.4-17.4,25.4-25.4c0,0,0.5,16,2.5,17.9c0,0-10.5,13.5-14,12l0.5-2.5l-6.5,2.5l3.5-4l-7,1.5l2.5-3
		L184.2,202.3z"/>
	<path d="M157.4,178.4c-1.5,1.2-3,2.3-4.5,3.5l-0.5-2.5l-4,9.5l-3-0.5l-3.5,5l-2-1.5c0,0-5.5,11.5-7.5,3.5l-4,3.5l1,11.5
		c10.8-3.3,21.6-6.6,32.4-10c-0.9-2.5-1.8-5.4-2.5-8.5C158.2,186.9,157.6,182.3,157.4,178.4z"/>
	<path d="M124,141.5l24.4,12.5l-2-5c0,0,12.5,11,12.5,14c0,0-31.4,24.9-31.4,30.9l0.5,8l-11-16l3,1L99.6,163l9-4l19.4,24.9l-1.5-11
		l16-13l-25.9-11L124,141.5z"/>
	<path d="M97.1,211.3l11.5,12l14-20.4l-1,7.5l2-2l1-1l3.5-5.5l2,12l-8,7.5l6.5-2l-15,27.4l-1.5-3.5l0.5,7l-3-4v5l-9-19.4
		C100.5,231.7,99.6,219.3,97.1,211.3z"/>
	<polygon points="131,229.2 128.5,241.2 131,241.2 128.5,246.2 133.4,241.7 	"/>
	<path d="M45.7,192.8l7.5-15l-3.5,0.5l8.5-13l-4.5-4c0,0-13,15.5-12.5,18.4C41.2,179.9,44.2,190.3,45.7,192.8z"/>
	<polygon points="50.7,211.8 55.7,220.8 76.1,193.3 77.6,202.8 78.6,227.2 73.1,234.7 75.1,228.7 71.1,231.7 72.6,216.8 58.2,244.2 
		56.7,238.7 54.7,241.7 51.7,232.7 	"/>
	<path d="M47.2,122.1c0,0,0.5,4.5-0.5,6l-11.5,7l4.5,1.5L28.8,147l8.5-1.5l-8,12l11-4.5l-2,2.5l3,0.5l-4.5,3.5l10.5,1l-2,3.5
		l8.5-2.5l-4,13l6-2.5l-3,14l2.5-3.5v3l2-2l1,10.5l3.5-5.5l7,11.5l-0.5-5l11.5,12l0.5-3.5l3,2.5l11,9l-3.5-15l4.5,5l-5-19.9l5,4.5
		v-5h2.5l-6-13l2.5,2v-5l2,1l-1-4l14.5,3l-3.5-4l4.5,2l-2-3.5l8.5,5.5l-5-9l4,1l-3.5-4l6,0.5l-6-5.5h16.5l-7.5-5l3.5-0.5l-3-3h5.5
		l-12.5-7.5l4-1l-10-3.5l-3-4l5,0.5l-8-7l-1.5-3.5l10.5,5.5l-3-3.5l4,1.5l-3-7l9.5,5l-4.5-6l8,2.5l-3.5-3.5h5l-4-5c0,0,11,3,13,1
		l-5-3.5l3.5,0.5l-6-4l17.9,2.5l-10.5-5.5l4-2l-6.5-4.5l7-1l-15.5-6.5l4-1.5l-11.5-5.5l12.5-22.9l4-2.5l-2-1.5l12.5-8l-21.4,3l9-8
		l-16.9,3.5l3.5-5l-11.5,5.5l1-6.5l-7,3.5l6-14.5l-8.5,5.5l9.5-16.5c0,0-16.5,7-16.5,10l4-8.5c0,0-18.9,13.5-19.4,23.4l-2-10l-2,3.5
		l-2,1l3.5-14c0,0-10,10-10.5,12.5l-2-4.5l-3.5,14l-2-4l-1.5,3l-3-9.5L46,48l-3-3.5L42.5,48L35,41l2.5,10L37,54.5l-5.5-3l4,9.5
		l-3.7,19.7l-7.5,5.5l7,0.5l-1.6,0.8l-1.4,0.7l-9,6l5.5,0.5l-3.5,2h5l-11.5,9l18.9-2l-2.5,5l5.5-1.5l-5,11l3-2l0.5,2l4-4.5l-0.5,7.5
		l7-4.5l-1.5,8.5L47.2,122.1z"/>
	<path d="M73.6,90.6c0,0,7.5,1.5,4.5,5s-6.5,3-6.5,3s-8.5-2-6-6C68.1,88.7,73.6,90.6,73.6,90.6z"/>
	<path d="M77.6,89.2c0,0,12.5-22.9,18.9-21.9l3.5,2c0,0,6.5-12,13-14s14.5-1.5,14.5-1.5l13.5,2.5c0,0-15.5,23.9-22.9,23.4
		c-7.5-0.5-16-2.5-16-2.5s-7.5,14.5-17.9,15L77.6,89.2z"/>
	<path d="M66.2,89.2c0,0-4.5-16-18.4-20.4l-2.5,2c0,0-3-9.5-7.5-11s-22.4-2.5-22.4-2.5l-8.5,2c0,0,11.5,21.9,16.9,22.4
		s22.4-2.5,22.4-2.5s2.5,7.5,5.5,8.5s8,5,8,5L66.2,89.2z"/>
	<polygon points="60.2,106.1 62.2,109.1 63.2,107.1 	"/>
	<polygon points="82.1,107.1 84.1,108.6 86.6,106.6 	"/>
</g>
<g>
	<path class="st1" d="M168,224.7l15-5.5l-3-12.5l-23.4-19.4l-23.9,8l-7,51.3l1.5,2.5c0,0,5,2.5,7.5,1.5c0,0,5.5,1.5,7,0
		c0,0,3.5,0.5,9.5-1.5s11.5-4.5,11.5-4.5v-13.5l6.5-0.5v-2.5l5.5-1.5C174.5,226.7,169.5,224.2,168,224.7z"/>
	<polygon class="st2" points="123.7,66.2 127.6,66.2 126.2,68.2 132.6,68.2 126.2,72.2 130.1,73.7 127.1,75.7 135.6,77.7 
		126.2,83.2 131.1,87.6 127.1,89.6 131.6,90.6 127.6,92.6 138.1,98.1 135,98.4 132.6,98.6 131.1,101.1 147.1,102.6 136.6,106.1 
		140.6,107.6 136.6,108.1 143.6,110.1 139.6,112.6 144.1,114.1 132.1,115.6 142.1,119 128.6,122 132.6,123 129.1,124.5 135.6,126.5 
		124.7,130 92.8,103.1 109.7,66.2 	"/>
	<path class="st2" d="M157.1,129.5c0,0-23.4-13.5-16.9-38.4s16-29.9,16-29.9s25.9-22.4,40.9-26.4l-2,5l9-7l-1.5,6c0,0,12-10,13.5-8
		l-13,16.5l4-0.5l-3,6l15-4.5l-9.5,7.5h3.5l-2.5,3c0,0,36.9,23.9,43.4,55.3l10.5,1.5l-4,3l20.4,3.5l-9,4.5l15,4.5l-19.4,5.5l4,3
		l-8.5,1l1.5,2l-3,0.5l6,4.5l-26.4,0.5l3,5l-4.5,0.5l3.5,4.5l-27.4-15c0,0-8,24.4-15.5,27.4C192.5,173.4,157.1,129.5,157.1,129.5z"
		/>
	<polygon class="st2" points="72.3,233.2 79.8,225.7 92.3,222.7 86.3,218.2 91.8,214.8 86.8,214.8 94.7,209.3 94.2,190.3 
		74.3,179.9 66.3,205.3 	"/>
	<path class="st3" d="M107.7,105.6l11.5,17.9l27.9,8c0,0,19.9-10.5,31.9-1.5s14,13.5,14,13.5s11.5,16,11,34.9s17.4,31.9,17.4,31.9
		l-13,31.9c0,0,4.5,11.5-2,15s-15,7-17.4,5.5c0,0-11,1.5-12.5-0.5c0,0-9-0.5-9-4s1.5-8,1.5-8s1.5-3,7-4s9-16.9,9-16.9l-8.5-17.9
		c0,0-16.9-6.5-20.4-17.4c-3.5-11-5.5-18.9-5.5-18.9l-26.9,30.4c0,0,8.5,42.9,2.5,63.3c0,0-12.5,10-17.4,6.5c0,0-11.5,1-14-1
		c0,0-12-0.5-11-6.5s7-8,7-8s9-13,1.5-48.9l-8-30.9l-12.5,17.9l2,41.9c0,0,2,20.9-4.5,22.4s-16,4-16,4l-3.5-2c0,0-10.5,3.5-11.5,1
		c0,0-9-1.5-6-8s6.5-7.5,6.5-7.5s9.5-12.5,6-36.4s-8-30.4-8-30.4l-2-12l3-21.4l47.4-45.9L107.7,105.6z"/>
	<path class="st4" d="M105.2,113.1l10,15c0,0,24.4,9.5,39.4,18.4l-5.5-6.5l3,1l-3-3l3-1l-8-6l-22.4-6.5c0,0-12-9.5-12.5-16.9
		c-0.5-7.5-6-3-6-3S101.2,110.1,105.2,113.1z"/>
	<path class="st4" d="M171.5,154.4c0,0,8-14,4-25.4c0,0,12.5,3.5,14.5,11c0,0-3.5,12.5-5.5,13v-3l-3.5,2l-0.5-2.5l-4,6.5l0.5-4.5
		L171.5,154.4z"/>
	<path class="st4" d="M193,143.5c0,0,8.5,11,7.5,18.4c0,0-10,22.4-24.9,26.9l2.5-3.5c0,0-15.5,9-16,7.5s6-5.5,6-5.5l-3-1.5l7.5-4.5
		l-5.5,1.5C167,182.9,195.4,156.4,193,143.5z"/>
	<path class="st4" d="M178.4,197.3c0,0,25.4-17.4,25.4-25.4c0,0,0.5,16,2.5,17.9c0,0-10.5,13.5-14,12l0.5-2.5l-6.5,2.5l3.5-4l-7,1.5
		l2.5-3L178.4,197.3z"/>
	<path class="st5" d="M151.6,173.4c-1.5,1.2-3,2.3-4.5,3.5l-0.5-2.5l-4,9.5l-3-0.5l-3.5,5l-2-1.5c0,0-5.5,11.5-7.5,3.5l-4,3.5
		l1,11.5c10.8-3.3,21.6-6.6,32.4-10c-0.9-2.5-1.8-5.4-2.5-8.5C152.4,181.9,151.8,177.3,151.6,173.4z"/>
	<path class="st4" d="M118.2,136.5l24.4,12.5l-2-5c0,0,12.5,11,12.5,14c0,0-31.4,24.9-31.4,30.9l0.5,8l-11-16l3,1L93.8,158l9-4
		l19.4,24.9l-1.5-11l16-13l-25.9-11L118.2,136.5z"/>
	<path class="st4" d="M91.3,206.3l11.5,12l14-20.4l-1,7.5l2-2l1-1l3.5-5.5l2,12l-8,7.5l6.5-2l-15,27.4l-1.5-3.5l0.5,7l-3-4v5
		l-9-19.4C94.7,226.7,93.8,214.3,91.3,206.3z"/>
	<polygon class="st4" points="125.2,224.2 122.7,236.2 125.2,236.2 122.7,241.2 127.6,236.7 	"/>
	<path class="st4" d="M39.9,187.8l7.5-15l-3.5,0.5l8.5-13l-4.5-4c0,0-13,15.5-12.5,18.4C35.4,174.9,38.4,185.3,39.9,187.8z"/>
	<polygon class="st4" points="44.9,206.8 49.9,215.8 70.3,188.3 71.8,197.8 72.8,222.2 67.3,229.7 69.3,223.7 65.3,226.7 
		66.8,211.8 52.4,239.2 50.9,233.7 48.9,236.7 45.9,227.7 	"/>
	<path class="st6" d="M41.4,117.1c0,0,0.5,4.5-0.5,6l-11.5,7l4.5,1.5L23,142l8.5-1.5l-8,12l11-4.5l-2,2.5l3,0.5l-4.5,3.5l10.5,1
		l-2,3.5l8.5-2.5l-4,13l6-2.5l-3,14l2.5-3.5v3l2-2l1,10.5l3.5-5.5l7,11.5l-0.5-5L74,202l0.5-3.5l3,2.5l11,9L85,195l4.5,5l-5-19.9
		l5,4.5v-5H92l-6-13l2.5,2v-5l2,1l-1-4l14.5,3l-3.5-4l4.5,2l-2-3.5l8.5,5.5l-5-9l4,1l-3.5-4l6,0.5l-6-5.5h16.5l-7.5-5l3.5-0.5l-3-3
		h5.5l-12.5-7.5l4-1l-10-3.5l-3-4l5,0.5l-8-7l-1.5-3.5l10.5,5.5l-3-3.5l4,1.5l-3-7l9.5,5l-4.5-6l8,2.5l-3.5-3.5h5l-4-5
		c0,0,11,3,13,1l-5-3.5l3.5,0.5l-6-4l17.9,2.5l-10.5-5.5l4-2l-6.5-4.5l7-1l-15.5-6.5l4-1.5l-11.5-5.5l12.5-22.9l4-2.5l-2-1.5l12.5-8
		l-21.4,3l9-8l-16.9,3.5l3.5-5l-11.5,5.5l1-6.5l-7,3.5l6-14.5l-8.5,5.5l9.5-16.5c0,0-16.5,7-16.5,10l4-8.5c0,0-18.9,13.5-19.4,23.4
		l-2-10l-2,3.5l-2,1l3.5-14c0,0-10,10-10.5,12.5l-2-4.5l-3.5,14l-2-4l-1.5,3l-3-9.5l-3,18.9l-3-3.5L36.7,43l-7.5-7l2.5,10l-0.5,3.5
		l-5.5-3l4,9.5L26,75.7l-7.5,5.5l7,0.5l-1.6,0.8l-1.4,0.7l-9,6l5.5,0.5l-3.5,2h5l-11.5,9l18.9-2l-2.5,5l5.5-1.5l-5,11l3-2l0.5,2
		l4-4.5l-0.5,7.5l7-4.5l-1.5,8.5L41.4,117.1z"/>
	<path class="st4" d="M67.8,85.6c0,0,7.5,1.5,4.5,5s-6.5,3-6.5,3s-8.5-2-6-6C62.3,83.7,67.8,85.6,67.8,85.6z"/>
	<path class="st3" d="M71.8,84.2c0,0,12.5-22.9,18.9-21.9l3.5,2c0,0,6.5-12,13-14s14.5-1.5,14.5-1.5l13.5,2.5
		c0,0-15.5,23.9-22.9,23.4c-7.5-0.5-16-2.5-16-2.5s-7.5,14.5-17.9,15L71.8,84.2z"/>
	<path class="st3" d="M60.4,84.2c0,0-4.5-16-18.4-20.4l-2.5,2c0,0-3-9.5-7.5-11S9.6,52.3,9.6,52.3l-8.5,2c0,0,11.5,21.9,16.9,22.4
		s22.4-2.5,22.4-2.5s2.5,7.5,5.5,8.5s8,5,8,5L60.4,84.2z"/>
	<polygon class="st7" points="54.4,101.1 56.4,104.1 57.4,102.1 	"/>
	<polygon class="st7" points="76.3,102.1 78.3,103.6 80.8,101.6 	"/>
</g>
</svg>
