<?xml version="1.0" encoding="utf-8"?>
<!-- Generator: Adobe Illustrator 23.0.6, SVG Export Plug-In . SVG Version: 6.00 Build 0)  -->
<svg version="1.1" id="Layer_1" xmlns="http://www.w3.org/2000/svg" xmlns:xlink="http://www.w3.org/1999/xlink" x="0px" y="0px"
	 viewBox="0 0 288 288" style="enable-background:new 0 0 288 288;" xml:space="preserve">
<style type="text/css">
	.st0{opacity:0.5;}
	.st1{fill:#E4E9F0;}
	.st2{fill:#ABACB7;}
	.st3{fill:#DFC06C;}
	.st4{fill:#534F4D;}
	.st5{fill:#DCE0DE;}
	.st6{fill:#B9C3C2;}
</style>
<g class="st0">
	<path d="M121.1,64.9c0,0-22.4-44.9-34.1-38.3S76.3,60.7,76.3,60.7s0,52.8,28,67.8c0,0-6.5,31.8,17.8,44.4l70.1,8.4
		c0,0,36.9,7.5,43.5-26.2c6.5-33.6-7.9-44.4-7.9-44.4s26.6-31.3,18.2-72c-8.4-40.7-73.8,13.6-73.8,13.6s-24.8,36-25.2,52.3
		C146.4,121,121.1,64.9,121.1,64.9z"/>
	<path d="M130.9,136.4c0,0-19.6,28-36,27.1c0,0-4.2,3.7-2.3,7l-4.7,0.5c0,0-3.3,27.1-10.7,36c0,0,0,6.1,2.3,10.7s1.9,10.3,1.9,10.3
		s-2.8,18.2-21,18.7c0,0-12.7,16.4-5.6,12.1c2.3-1.4,22.9-14.5,32.7-14c0,0,3.3,0.5,0.5-9.8s1.4-22.4,1.4-22.4l6.5-14.5l1.4-12.1
		l1.9-7.9l-2.8-3.7c0,0-0.9-3.3,8.4-7s14.5-6.5,14.5-6.5s5.1-5.1,6.1-11.2l9.8-11.2L130.9,136.4z"/>
	<path d="M124.4,114.4c0,0-37.9-2.3-39.7-5.1l-0.9,3.7c0,0-15.4,13.6-15.4,19.6l4.7,0.9c0,0,4.7-6.1,10.3-7.5s5.1-6.5,5.1-6.5
		s0-4.2,4.2-1.4c4.2,2.8,9.3,2.8,9.3,2.8s15-2.8,18.2-3.3s6.5,1.4,6.5,1.4L124.4,114.4z"/>
	<path d="M137.9,141.1c0,0-40.2,30.8,0.5,69.6l23.4,7.5c0,0,43.5-17.8,29.4-54.2s-41.1-30.4-41.1-30.4L137.9,141.1z"/>
	<path d="M138.4,208.4l3.3,41.6l20.1-31.8C161.8,218.2,160.8,204.2,138.4,208.4z"/>
	<path d="M147.3,142.5c0,0-19.2-2.3-21.5-13.1c-2.3-10.7,1.4-20.1,1.4-20.1s-17.3,4.2-21.5,7.5c-4.2,3.3-11.2-9.8-11.2-9.8
		s-11.2-32.7,17.3-40.2s34.1,12.6,34.1,12.6s3.7,13.6-5.6,20.1c0,0,15.9,4.7,20.6,16.4s-3.7,21.5-3.7,21.5S153.4,142.5,147.3,142.5z
		"/>
	<path d="M145.4,109.3c0,0,30.4,0.9,37.9,5.6c0,0,4.2-3.7,2.8-9.8l8.9-1.4c0,0,0.9,4.7,2.3,6.5c1.4,1.9-0.5,5.1-0.5,5.1
		s-6.1,4.2-5.6,6.5s-6.1-1.4-6.1-1.4s-13.1-3.7-23.4-1.4c0,0-5.6-0.5-8.4-4.2S145.4,109.3,145.4,109.3z"/>
	<path d="M110.4,75.2c0,0,4.2-23.8,11.7-29.9c0,0,2.8-5.1-29-0.9c0,0-2.8-7.9,3.3-8.9s23.8,1.9,23.8,1.9s11.7,2.8,6.1,7.5
		c-5.6,4.7-13.6,29.9-13.6,29.9L110.4,75.2z"/>
	<path d="M101,75.2c0,0-10.3-17.8-10.3-22s-23.4,7.9-23.4,7.9S52,70.5,55.2,76.6c3.3,6.1,6.5-1.4,6.5-1.4S81.8,55.1,86.5,57
		s12.1,20.1,12.1,20.1L101,75.2z"/>
	<path d="M122.5,163c1.6-1.9,13.3-15.9,32.7-15.9c15.1,0,29.2,8.4,36.9,22c0,0,4.2,13.1-0.9,15.9c0,0-14-27.1-36.9-27.1
		c-16.1,0-28.3,11.1-32.2,15c-0.6,0.6-1.1,1.1-1.4,1.4C121.3,170.5,121.9,166.8,122.5,163z"/>
	<path d="M122.1,186.4c0,0,4.7-19.2,31.8-15s31.8,28.5,31.8,28.5c-1.1,1.7-2.7,3.6-4.7,5.6c-2.7,2.6-5.3,4.4-7.5,5.6
		c0,0,8.4-15.4-17.8-24.8c-5.1-1.8-13.2-4.4-19.9,0.2c-5.6,3.8-6.8,10.4-7.2,12.4C126.4,194.8,124.2,190.6,122.1,186.4z"/>
	<path d="M154.8,133.6c0,0,3.7,5.6,18.7,26.2c0,0,20.1,18.7,26.2,20.1l1.9,8.9c0,0,19.2,23.4,22,36s5.1,27.1,5.1,27.1
		s-4.2,12.6-0.5,18.2s3.3,12.6,3.3,12.6s-0.5,8.9-3.7,4.2c0,0-5.1-13.1-7-13.6s0-9.3,0-9.3s-2.3-10.3-3.7-14s-17.8-51.4-17.8-51.4
		l-1.9-10.7l-6.1-2.8c0,0-10.3-18.2-19.2-21s-18.2-28-18.2-28L154.8,133.6z"/>
	<path d="M53.8,131.3c0,0-9.3,3.3-11.7,12.1c-2.3,8.9-25.2,62.1-25.2,62.1l57.5-47.2c0,0,4.5-5.7,3-12.3c-0.4-1.9-3.5-4.9-9.5-11.1
		c-2.1-2.2-3.1-3.1-4.7-3.7C59.6,129.7,55.9,130.6,53.8,131.3z"/>
	<path d="M172.1,96.7c0,0-6.1,2.8-3.3-83.2l39.3,70.1c0,0,1.9,16.8-15.9,17.8C174.4,102.3,172.1,96.7,172.1,96.7z"/>
	<path d="M53.8,131.3c0,0,10.3-4.2,17.3,1.9c7,6.1,5.6,19.2,5.6,19.2S76.3,134.5,53.8,131.3z"/>
	<path d="M172.1,96.7c1.6,0.8,4,1.9,7,2.8c4.3,1.3,8.7,2.6,13.1,1.9c9.6-1.7,16.8-13.6,16.8-13.6l0,0c-0.5,1.5-6.7,18.1-16.8,18.7
		c-2,0.1-3.9-0.4-5.6-0.9C179.5,103.5,174.7,99.4,172.1,96.7z"/>
</g>
<g>
	<path class="st1" d="M115.9,60.1c0,0-22.4-44.9-34.1-38.3S71.1,55.9,71.1,55.9s0,52.8,28,67.8c0,0-6.5,31.8,17.8,44.4l70.1,8.4
		c0,0,36.9,7.5,43.5-26.2c6.5-33.6-7.9-44.4-7.9-44.4s26.6-31.3,18.2-72C232.4-6.8,167,47.5,167,47.5s-24.8,36-25.2,52.3
		C141.2,116.2,115.9,60.1,115.9,60.1z"/>
	<path class="st2" d="M125.7,131.6c0,0-19.6,28-36,27.1c0,0-4.2,3.7-2.3,7l-4.7,0.5c0,0-3.3,27.1-10.7,36c0,0,0,6.1,2.3,10.7
		s1.9,10.3,1.9,10.3s-2.8,18.2-21,18.7c0,0-12.7,16.4-5.6,12.1c2.3-1.4,22.9-14.5,32.7-14c0,0,3.3,0.5,0.5-9.8s1.4-22.4,1.4-22.4
		l6.5-14.5l1.4-12.1l1.9-7.9l-2.8-3.7c0,0-0.9-3.3,8.4-7s14.5-6.5,14.5-6.5s5.1-5.1,6.1-11.2l9.8-11.2L125.7,131.6z"/>
	<path class="st2" d="M119.2,109.6c0,0-37.9-2.3-39.7-5.1l-0.9,3.7c0,0-15.4,13.6-15.4,19.6l4.7,0.9c0,0,4.7-6.1,10.3-7.5
		s5.1-6.5,5.1-6.5s0-4.2,4.2-1.4c4.2,2.8,9.3,2.8,9.3,2.8s15-2.8,18.2-3.3s6.5,1.4,6.5,1.4L119.2,109.6z"/>
	<path class="st3" d="M132.7,136.3c0,0-40.2,30.8,0.5,69.6l23.4,7.5c0,0,43.5-17.8,29.4-54.2s-41.1-30.4-41.1-30.4L132.7,136.3z"/>
	<path class="st3" d="M133.2,203.6l3.3,41.6l20.1-31.8C156.6,213.4,155.6,199.4,133.2,203.6z"/>
	<path class="st3" d="M142.1,137.7c0,0-19.2-2.3-21.5-13.1c-2.3-10.7,1.4-20.1,1.4-20.1s-17.3,4.2-21.5,7.5
		c-4.2,3.3-11.2-9.8-11.2-9.8S78.1,69.5,106.6,62s34.1,12.6,34.1,12.6s3.7,13.6-5.6,20.1c0,0,15.9,4.7,20.6,16.4s-3.7,21.5-3.7,21.5
		S148.2,137.7,142.1,137.7z"/>
	<path class="st2" d="M140.2,104.5c0,0,30.4,0.9,37.9,5.6c0,0,4.2-3.7,2.8-9.8l8.9-1.4c0,0,0.9,4.7,2.3,6.5c1.4,1.9-0.5,5.1-0.5,5.1
		s-6.1,4.2-5.6,6.5s-6.1-1.4-6.1-1.4s-13.1-3.7-23.4-1.4c0,0-5.6-0.5-8.4-4.2S140.2,104.5,140.2,104.5z"/>
	<path class="st2" d="M105.2,70.4c0,0,4.2-23.8,11.7-29.9c0,0,2.8-5.1-29-0.9c0,0-2.8-7.9,3.3-8.9s23.8,1.9,23.8,1.9
		s11.7,2.8,6.1,7.5S107.5,70,107.5,70L105.2,70.4z"/>
	<path class="st2" d="M95.8,70.4c0,0-10.3-17.8-10.3-22s-23.4,7.9-23.4,7.9S46.8,65.7,50,71.8c3.3,6.1,6.5-1.4,6.5-1.4
		s20.1-20.1,24.8-18.2s12.1,20.1,12.1,20.1L95.8,70.4z"/>
	<path class="st4" d="M117.3,158.2c1.6-1.9,13.3-15.9,32.7-15.9c15.1,0,29.2,8.4,36.9,22c0,0,4.2,13.1-0.9,15.9
		c0,0-14-27.1-36.9-27.1c-16.1,0-28.3,11.1-32.2,15c-0.6,0.6-1.1,1.1-1.4,1.4C116.1,165.7,116.7,162,117.3,158.2z"/>
	<path class="st4" d="M116.9,181.6c0,0,4.7-19.2,31.8-15s31.8,28.5,31.8,28.5c-1.1,1.7-2.7,3.6-4.7,5.6c-2.7,2.6-5.3,4.4-7.5,5.6
		c0,0,8.4-15.4-17.8-24.8c-5.1-1.8-13.2-4.4-19.9,0.2c-5.6,3.8-6.8,10.4-7.2,12.4C121.2,190,119,185.8,116.9,181.6z"/>
	<path class="st2" d="M149.6,128.8c0,0,3.7,5.6,18.7,26.2c0,0,20.1,18.7,26.2,20.1l1.9,8.9c0,0,19.2,23.4,22,36s5.1,27.1,5.1,27.1
		s-4.2,12.6-0.5,18.2s3.3,12.6,3.3,12.6s-0.5,8.9-3.7,4.2c0,0-5.1-13.1-7-13.6s0-9.3,0-9.3s-2.3-10.3-3.7-14s-17.8-51.4-17.8-51.4
		l-1.9-10.7l-6.1-2.8c0,0-10.3-18.2-19.2-21s-18.2-28-18.2-28L149.6,128.8z"/>
	<path class="st5" d="M48.6,126.5c0,0-9.3,3.3-11.7,12.1c-2.3,8.9-25.2,62.1-25.2,62.1l57.5-47.2c0,0,4.5-5.7,3-12.3
		c-0.4-1.9-3.5-4.9-9.5-11.1c-2.1-2.2-3.1-3.1-4.7-3.7C54.4,124.9,50.7,125.8,48.6,126.5z"/>
	<path class="st5" d="M166.9,91.9c0,0-6.1,2.8-3.3-83.2l39.3,70.1c0,0,1.9,16.8-15.9,17.8C169.2,97.5,166.9,91.9,166.9,91.9z"/>
	<path class="st6" d="M48.6,126.5c0,0,10.3-4.2,17.3,1.9c7,6.1,5.6,19.2,5.6,19.2S71.1,129.7,48.6,126.5z"/>
	<path class="st6" d="M166.9,91.9c1.6,0.8,4,1.9,7,2.8c4.3,1.3,8.7,2.6,13.1,1.9c9.6-1.7,16.8-13.6,16.8-13.6l0,0
		c-0.5,1.5-6.7,18.1-16.8,18.7c-2,0.1-3.9-0.4-5.6-0.9C174.3,98.7,169.5,94.6,166.9,91.9z"/>
</g>
</svg>
