<?xml version="1.0" encoding="utf-8"?>
<!-- Generator: Adobe Illustrator 23.0.6, SVG Export Plug-In . SVG Version: 6.00 Build 0)  -->
<svg version="1.1" id="Layer_1" xmlns="http://www.w3.org/2000/svg" xmlns:xlink="http://www.w3.org/1999/xlink" x="0px" y="0px"
	 viewBox="0 0 288 288" style="enable-background:new 0 0 288 288;" xml:space="preserve">
<style type="text/css">
	.st0{opacity:0.5;}
	.st1{fill:#DBDDE5;}
	.st2{fill:#AEADB3;}
	.st3{fill:#677993;}
	.st4{fill:#91ABCC;}
	.st5{fill:#CAC8C5;}
	.st6{fill:#645348;}
	.st7{fill:#C6B6A0;}
	.st8{fill:#9A826E;}
	.st9{fill:#1B1716;}
	.st10{fill:#BFBEBE;}
	.st11{fill:#F7F7F7;}
</style>
<g class="st0">
	<path d="M204.8,265.8c0,0,17.3,10.4,16.3,14.4l-4.5,1.5l-2,2l-18.3-2.5L204.8,265.8z"/>
	<path d="M33.6,138.6c0,0-3.5,6.9-1,7.9s4.9-1.5,4.9-1.5L33.6,138.6z"/>
	<polygon points="33.1,132.7 32.3,133 30.1,134.1 	"/>
	<polygon points="245.4,168.3 249.4,171.8 251.4,166.8 	"/>
	<path d="M33.1,251.9c0,0-10.9-4.5-11.9-0.5s-5.4,14.4-5.4,14.4h8.9L33.1,251.9z"/>
	<path d="M42,119.3c0,0-19.3,15.8-2.5,27.2l9.4-18.3L42,119.3z"/>
	<path d="M31.6,182.1c0,0-24.7,26.2-10.4,69.3l12.4,5.4L44,245.9L31.6,182.1z"/>
	<path d="M51.9,237.6c0,0-29.7,17.3-36.6,47c0,0,57.4,17.3,72.8-30.2C88,254.4,85.1,236.6,51.9,237.6z"/>
	<path d="M140,56.4c0,0,5.4-10.9,4.9-13.9s-7.4-22.8-7.4-22.8s16.6-4.6,21.3-3.5c2,0.5,9.9-4,9.9-4l11.4-3c0,0,1,2.5,4,2.5
		s6.9-2.5,6.9-2.5s12.4,3,13.4,8.4s-1.5,5.9-1.5,5.9l17.3-3c0,0,14.8,7.4,6.9,21.3c0,0-8.9-5.4-19.8,3S187,52.7,187,52.7
		s-15.3-3-15.3-5.4l-5.9,1l-3.5,14.8L140,56.4z"/>
	<path d="M227.6,110.9c0,0,10.4-0.5,20.8,17.8c0,0,19.8,12.4,14.8,28.2c-4.9,15.8-31.7,9.9-31.7,9.9s-25.7-0.5-29.2-6.4
		s0-44.5,0-44.5l12.4-8.4L227.6,110.9z"/>
	<path d="M264.2,149.5c0,0,7.9,10.4,7.4,12.4s-6.9-2-6.9-2s-0.5,7.9-1,10.4s-8.9-5.4-8.9-5.4L264.2,149.5z"/>
	<path d="M186,192.5c0,0,19.8,2.5,30.2,28.2s-12.4,47.5-12.4,47.5s-4.5,10.4-7.4,12.9c-3,2.5-33.7,4.5-33.7,4.5l-15.8-9.9
		c0,0-4.9-14.4-5.9-16.8c-1-2.5-3.5-18.3-3.5-18.3L186,192.5z"/>
	<path d="M159.8,275.2c0,0-14.4-5.4-19.8,11.4c0,0,23.3,5.4,29.2-4C169.2,282.6,168.2,276.2,159.8,275.2z"/>
	<path d="M52.9,97.5L50.4,96L36.5,77.7c0,0,1.5-17.8,20.3-15.3l15.3,18.3L54.9,98.5L52.9,97.5z"/>
	<path d="M90,77.7l-7.4-4c0,0-30.7,7.9-40.6,45.5l6.9,8.9L90,77.7z"/>
	<path d="M83.1,265.8c0,0,42.6,3,56.4-11.4L139,244c0,0-10.9,4.5-17.8,2c-6.9-2.5-26.7,6.4-26.7,6.4l-8.4-2l2,4
		C88,254.4,85.1,264.8,83.1,265.8z"/>
	<path d="M184,194.5c0.8-8.6,3.8-13.5,6.4-16.3c3.5-3.8,10.4-8.4,10.4-8.4l1.5-9.4c0,0,6.9,4,9.4,4.5c-0.4,3.5-1,7.4-2,11.5
		c-2.4,9.3-6,16.7-9.3,22.2c-2.1-0.9-4.6-1.8-7.4-2.5C189.6,195.2,186.6,194.7,184,194.5z"/>
	<path d="M227.1,42.1c0,0-4.9,34.2-30.7,35.6c0,0-25.2-20.8-33.2-19.8l2.5-9.4l5.9-1c0,0,9.9,5.4,15.3,5.4s20.3-7.9,20.3-7.9
		S217.2,37.1,227.1,42.1z"/>
	<path d="M34.1,214.3c0,0-2.5,27.2,6.9,30.2c0,0,9.9-6.4,10.9-6.9s27.7,2,34.2,12.9l8.4,2c0,0,25.2-8.9,26.7-6.4s17.8-2,17.8-2
		s8.9-8.4,11.4-11.9s11.9-14.8,11.9-14.8s20.8-19.8,22.8-20.3s1-4.5,1-4.5l4.5-14.4l10.4-8.4l1.5-9.4c0,0-2-41.1,5.9-47.5l-7-26.3
		c0,0-3-7.9-4.9-8.9c0,0-16.8-25.2-56.4-21.3l-15.8,7.4l47.5,5.9l-11.4,103l-71.3,45.5L34.1,214.3z"/>
	<path d="M178.6,158.4l-14.4-39.6l10.4-46c0,0,3-4,5.4-1.5s15.9,15.3,17.4,21.3l-1.5,3.5l-8.4-5.4l-6.4-7.9l-8.9,36.6l12.9,30.2
		L178.6,158.4z"/>
	<path d="M178.1,70.8l-6.4-1c0,0-15.3-14.4-44.5-8.4S82.1,83.6,82.1,83.6s-44.1,39.6-47,73.8c0,0-12.4,59.9,6.9,71.8
		c0,0,9.9-8.4,20.8-5.9s24.3,10.9,24.3,10.9s32.2-9.9,34.2-12.9s42.6-40.6,42.6-40.6s14.8-19.3,14.8-22.3l-14.4-39.6l10.4-46
		C174.6,72.8,176.1,70.3,178.1,70.8z"/>
	<path d="M179.1,91.1c2.5-0.5,4.9-1,7.4-1.5c-1.8-2.3-3.6-4.6-5.4-6.9L179.1,91.1z"/>
	<path d="M172.2,119.3l8.9-0.5c-0.3,2.7-0.5,5.6-0.6,8.7c-0.1,4.8,0.1,9.2,0.6,13.1C178.1,133.5,175.1,126.4,172.2,119.3z"/>
	<path d="M179.1,91.1c0,0,2.5-3,8.4-0.5s8.4,5.4,8.4,5.4l4.5-2l4,13.9c0,0-8.4,0-10.4,7.4c0,0-16.8,4.9-21.8,4L179.1,91.1z"/>
	<path d="M199.9,100c-0.7-2.2-1.7-6.1-0.1-9.9c2-4.8,6.7-7.5,12.9-8.9c17.3-4,23.3-4.5,23.3-4.5s6.4,1.5,8.4,8.9s1,18.3,1,18.3
		s-3,6.9-6.4,6.4c-3.5-0.5-28.2,4.5-28.2,4.5c-1.5-0.6-5.2-2.4-7.9-6.4C200.5,105,200,101.6,199.9,100z"/>
	<path d="M237.5,81.7c0,0-3,16.8,4.5,20.8C242,102.5,244.9,90.6,237.5,81.7z"/>
	<path d="M147.9,37.1l6.9-8.9c0,0-7.9-8.4-12.4-7.4L147.9,37.1z"/>
</g>
<g>
	<path class="st1" d="M199.9,261.2c0,0,17.3,10.4,16.3,14.4l-4.5,1.5l-2,2l-18.3-2.5L199.9,261.2z"/>
	<path class="st2" d="M28.7,134c0,0-3.5,6.9-1,7.9s4.9-1.5,4.9-1.5L28.7,134z"/>
	<polygon class="st2" points="28.2,128.1 27.4,128.4 25.2,129.5 	"/>
	<polygon class="st2" points="240.5,163.7 244.5,167.2 246.5,162.2 	"/>
	<path class="st2" d="M28.2,247.3c0,0-10.9-4.5-11.9-0.5s-5.4,14.4-5.4,14.4h8.9L28.2,247.3z"/>
	<path class="st3" d="M37.1,114.7c0,0-19.3,15.8-2.5,27.2l9.4-18.3L37.1,114.7z"/>
	<path class="st3" d="M26.7,177.5c0,0-24.7,26.2-10.4,69.3l12.4,5.4l10.4-10.9L26.7,177.5z"/>
	<path class="st4" d="M47,233c0,0-29.7,17.3-36.6,47c0,0,57.4,17.3,72.8-30.2C83.1,249.8,80.2,232,47,233z"/>
	<path class="st4" d="M135.1,51.8c0,0,5.4-10.9,4.9-13.9s-7.4-22.8-7.4-22.8s16.6-4.6,21.3-3.5c2,0.5,9.9-4,9.9-4l11.4-3
		c0,0,1,2.5,4,2.5s6.9-2.5,6.9-2.5s12.4,3,13.4,8.4s-1.5,5.9-1.5,5.9l17.3-3c0,0,14.8,7.4,6.9,21.3c0,0-8.9-5.4-19.8,3
		s-20.3,7.9-20.3,7.9s-15.3-3-15.3-5.4l-5.9,1l-3.5,14.8L135.1,51.8z"/>
	<path class="st4" d="M222.7,106.3c0,0,10.4-0.5,20.8,17.8c0,0,19.8,12.4,14.8,28.2c-4.9,15.8-31.7,9.9-31.7,9.9s-25.7-0.5-29.2-6.4
		s0-44.5,0-44.5l12.4-8.4L222.7,106.3z"/>
	<path class="st1" d="M259.3,144.9c0,0,7.9,10.4,7.4,12.4s-6.9-2-6.9-2s-0.5,7.9-1,10.4s-8.9-5.4-8.9-5.4L259.3,144.9z"/>
	<path class="st4" d="M181.1,187.9c0,0,19.8,2.5,30.2,28.2s-12.4,47.5-12.4,47.5s-4.5,10.4-7.4,12.9c-3,2.5-33.7,4.5-33.7,4.5
		l-15.8-9.9c0,0-4.9-14.4-5.9-16.8c-1-2.5-3.5-18.3-3.5-18.3L181.1,187.9z"/>
	<path class="st1" d="M154.9,270.6c0,0-14.4-5.4-19.8,11.4c0,0,23.3,5.4,29.2-4C164.3,278,163.3,271.6,154.9,270.6z"/>
	<path class="st5" d="M48,92.9l-2.5-1.5L31.6,73.1c0,0,1.5-17.8,20.3-15.3l15.3,18.3L50,93.9L48,92.9z"/>
	<path class="st6" d="M85.1,73.1l-7.4-4c0,0-30.7,7.9-40.6,45.5l6.9,8.9L85.1,73.1z"/>
	<path class="st7" d="M78.2,261.2c0,0,42.6,3,56.4-11.4l-0.5-10.4c0,0-10.9,4.5-17.8,2s-26.7,6.4-26.7,6.4l-8.4-2l2,4
		C83.1,249.8,80.2,260.2,78.2,261.2z"/>
	<path class="st7" d="M179.1,189.9c0.8-8.6,3.8-13.5,6.4-16.3c3.5-3.8,10.4-8.4,10.4-8.4l1.5-9.4c0,0,6.9,4,9.4,4.5
		c-0.4,3.5-1,7.4-2,11.5c-2.4,9.3-6,16.7-9.3,22.2c-2.1-0.9-4.6-1.8-7.4-2.5C184.7,190.6,181.7,190.1,179.1,189.9z"/>
	<path class="st7" d="M222.2,37.5c0,0-4.9,34.2-30.7,35.6c0,0-25.2-20.8-33.2-19.8l2.5-9.4l5.9-1c0,0,9.9,5.4,15.3,5.4
		s20.3-7.9,20.3-7.9S212.3,32.5,222.2,37.5z"/>
	<path class="st1" d="M29.2,209.7c0,0-2.5,27.2,6.9,30.2c0,0,9.9-6.4,10.9-6.9s27.7,2,34.2,12.9l8.4,2c0,0,25.2-8.9,26.7-6.4
		s17.8-2,17.8-2s8.9-8.4,11.4-11.9s11.9-14.8,11.9-14.8s20.8-19.8,22.8-20.3s1-4.5,1-4.5l4.5-14.4l10.4-8.4l1.5-9.4
		c0,0-2-41.1,5.9-47.5l-7-26.3c0,0-3-7.9-4.9-8.9c0,0-16.8-25.2-56.4-21.3l-15.8,7.4l47.5,5.9l-11.4,103l-71.3,45.5L29.2,209.7z"/>
	<path class="st6" d="M173.7,153.8l-14.4-39.6l10.4-46c0,0,3-4,5.4-1.5S191,82,192.5,88l-1.5,3.5l-8.4-5.4l-6.4-7.9l-8.9,36.6
		l12.9,30.2L173.7,153.8z"/>
	<path class="st8" d="M173.2,66.2l-6.4-1c0,0-15.3-14.4-44.5-8.4S77.2,79,77.2,79s-44.1,39.6-47,73.8c0,0-12.4,59.9,6.9,71.8
		c0,0,9.9-8.4,20.8-5.9s24.3,10.9,24.3,10.9s32.2-9.9,34.2-12.9s42.6-40.6,42.6-40.6s14.8-19.3,14.8-22.3l-14.4-39.6l10.4-46
		C169.7,68.2,171.2,65.7,173.2,66.2z"/>
	<path class="st9" d="M174.2,86.5c2.5-0.5,4.9-1,7.4-1.5c-1.8-2.3-3.6-4.6-5.4-6.9L174.2,86.5z"/>
	<path class="st9" d="M167.3,114.7l8.9-0.5c-0.3,2.7-0.5,5.6-0.6,8.7c-0.1,4.8,0.1,9.2,0.6,13.1
		C173.2,128.9,170.2,121.8,167.3,114.7z"/>
	<path class="st10" d="M174.2,86.5c0,0,2.5-3,8.4-0.5s8.4,5.4,8.4,5.4l4.5-2l4,13.9c0,0-8.4,0-10.4,7.4c0,0-16.8,4.9-21.8,4
		L174.2,86.5z"/>
	<path class="st11" d="M195,95.4c-0.7-2.2-1.7-6.1-0.1-9.9c2-4.8,6.7-7.5,12.9-8.9c17.3-4,23.3-4.5,23.3-4.5s6.4,1.5,8.4,8.9
		s1,18.3,1,18.3s-3,6.9-6.4,6.4c-3.5-0.5-28.2,4.5-28.2,4.5c-1.5-0.6-5.2-2.4-7.9-6.4C195.6,100.4,195.1,97,195,95.4z"/>
	<path class="st9" d="M232.6,77.1c0,0-3,16.8,4.5,20.8C237.1,97.9,240,86,232.6,77.1z"/>
	<path class="st9" d="M143,32.5l6.9-8.9c0,0-7.9-8.4-12.4-7.4L143,32.5z"/>
</g>
</svg>
