<?xml version="1.0" encoding="utf-8"?>
<!-- Generator: Adobe Illustrator 23.0.6, SVG Export Plug-In . SVG Version: 6.00 Build 0)  -->
<svg version="1.1" id="Layer_1" xmlns="http://www.w3.org/2000/svg" xmlns:xlink="http://www.w3.org/1999/xlink" x="0px" y="0px"
	 viewBox="0 0 288 288" style="enable-background:new 0 0 288 288;" xml:space="preserve">
<style type="text/css">
	.st0{opacity:0.5;}
	.st1{fill:#020202;}
	.st2{fill:#C1C8D8;}
	.st3{fill:#608FA7;}
	.st4{fill:#EDF2FA;}
	.st5{fill:#414242;}
	.st6{fill:#6D6A83;}
	.st7{fill:#99BAC7;}
	.st8{fill:#D3D6DD;}
	.st9{fill:#010101;}
</style>
<g class="st0">
	<path d="M90.1,229.3c0,0,1.9,43.9,35.5,38.3l1.9,2.8c0,0-15.9,14-33.6-7.5s0.9-46.7,0.9-46.7L90.1,229.3z"/>
	<path d="M207.8,232.1l12.2,1.4c0,0,5.1,33.6-20.1,38.3c-25.2,4.7-36-15.9-36-15.9l2.3-0.9c0,0,8.9,19.6,35.5,8.4L207.8,232.1z"/>
	<path d="M90.1,229.3c0,0-1.9,43.9,35.5,38.3c0,0,10.7-30.4,10.7-34.1s-33.6-13.6-33.6-13.6L90.1,229.3z"/>
	<path d="M207.8,232.1c0,0,13.1,29-16.4,35s-45.3-46.3-45.3-46.3l8.9-12.2L207.8,232.1z"/>
	<path d="M122.8,235.8c0,0-3.7,37.9,13.6,43.5c0,0,7.9,0.9,4.2-19.2s-7.9-24.3-7.9-24.3H122.8z"/>
	<path d="M143.3,230.7c0,0,0,29.4,9.8,39.3c9.8,9.8,10.7,7.5,10.7,7.5s6.5-17.3-5.1-36.9c-11.7-19.6-12.2-16.8-12.2-16.8
		L143.3,230.7z"/>
	<path d="M93.8,136.8c0,0-34.6-86.5-61.7-70.1c0,0-22.4,20.6-13.1,55.1s17.3,45.3,17.3,45.3s14,40.2,21.5,47.7c0,0,24.8,28.5,43,6.1
		l2.8-21.5L93.8,136.8z"/>
	<path d="M133,141.4c0,0,17.8-68.7,107.9-93l30.8,19.2l2.3,32.2l-20.6,80.8c0,0-12.2,45.8-32.7,50.5s-61.7-11.7-67.3-19.2
		s-27.6-29.4-27.6-29.4L133,141.4z"/>
	<path d="M168.6,102.2c0,0,29.4-18.7,37.9-5.6c8.4,13.1-7.5,27.6-7.5,27.6s28.5-15,15.9-36S168.6,102.2,168.6,102.2z"/>
	<path d="M237.3,48.4c0,0,17.3,2.8,12.6,15.9c0,0,6.5,1.4,3.3,4.7c0,0,9.3-6.1,16.8,7.5s-6.1,19.2-6.1,19.2s11.7,7.5,5.6,19.2
		S249.9,128,249.9,128s14,11.2,7,25.7S241,171.9,241,171.9s12.2,10.7,6.1,25.2c-6.1,14.5-21.5,16.8-21.5,16.8s1.4,15.4-17.8,18.2
		c0,0,29.9,9.8,42.5-28c12.6-37.8,16.8-64.5,16.8-64.5s15.9-45.3,9.8-65.9S254,49.4,254,49.4S239.6,46.6,237.3,48.4z"/>
	<path d="M66.2,106.8c0,0-15.4-7.9-18.2,1.9s4.7,22,4.7,22s-17.8-14-10.3-29S66.2,106.8,66.2,106.8z"/>
	<path d="M25.6,75.1l0.5,7c0,0-2.8,3.3-0.9,6.1c0,0-9.3,4.2-3.3,22.4c0,0-5.1,9.3,5.6,20.6c0,0-3.3,7.9-1.4,11.7
		c-3.6-8.9-8.7-23.7-8.9-37.9c0-3.5,0.2-6.2,0.3-6.9C18.6,87.7,22.6,79.8,25.6,75.1z"/>
	<path d="M32.6,159.2c0,0,3.7,4.7,5.6,4.2c0,0-0.9,3.7-0.5,6.1L32.6,159.2z"/>
	<path d="M52.2,205c0,0,2.8,3.3,5.1,2.3l0.5,7.5L52.2,205z"/>
	<path d="M72.8,155c0,0,14.5-25.7,39.3-21.5s30.8,22,30.8,22s7,19.2-7.5,32.2c0,0,17.3,10.3,17.3,19.6s-3.7,16.8-3.7,16.8
		s-8.9,16.8-26.2,11.7s-22-15-22-15s-3.7-18.7-0.9-22C99.9,198.9,67.2,200.3,72.8,155z"/>
	<path d="M125.1,200.8l2.8,3.3l-2.8,3.7l4.2,3.3l-1.9,4.2c0,0,13.6,2.8,12.2-9.8S125.1,200.8,125.1,200.8z"/>
	<path d="M94.7,216.2c0,0-3.7-9.3,5.6-10.3l-0.5,4.7l4.2,1.9l-2.8,3.7l3.7,3.7C105,219.9,97.1,223.7,94.7,216.2z"/>
	<polygon points="96.9,185.2 98.3,188.9 101.1,186.1 	"/>
	<polygon points="111.2,184.4 115.9,187.2 115,181.2 	"/>
	<path d="M104.1,174.1c0,0-13.1,3.3-10.3,8.4c2.8,5.1,12.2,4.2,12.2,4.2s9.8-2.3,9.3-7.9S104.1,174.1,104.1,174.1z"/>
	<path d="M88.7,147.5c0,0-20.6-44.9-14-82.2c0,0-3.3-27.1,4.7-24.3S78,65.8,78,65.8S71.8,106.8,88.7,147.5z"/>
	<path d="M105,144.7c0,0-4.2-37.9,29.9-75.7c0,0,15-24.3,16.8-14.5s-12.6,16.4-12.6,16.4S106.9,105,105,144.7z"/>
</g>
<g>
	<path class="st1" d="M84.9,224.1c0,0,1.9,43.9,35.5,38.3l1.9,2.8c0,0-15.9,14-33.6-7.5s0.9-46.7,0.9-46.7L84.9,224.1z"/>
	<path class="st1" d="M202.6,226.9l12.2,1.4c0,0,5.1,33.6-20.1,38.3c-25.2,4.7-36-15.9-36-15.9l2.3-0.9c0,0,8.9,19.6,35.5,8.4
		L202.6,226.9z"/>
	<path class="st2" d="M84.9,224.1c0,0-1.9,43.9,35.5,38.3c0,0,10.7-30.4,10.7-34.1s-33.6-13.6-33.6-13.6L84.9,224.1z"/>
	<path class="st2" d="M202.6,226.9c0,0,13.1,29-16.4,35s-45.3-46.3-45.3-46.3l8.9-12.2L202.6,226.9z"/>
	<path class="st3" d="M117.6,230.6c0,0-3.7,37.9,13.6,43.5c0,0,7.9,0.9,4.2-19.2s-7.9-24.3-7.9-24.3H117.6z"/>
	<path class="st3" d="M138.1,225.5c0,0,0,29.4,9.8,39.3c9.8,9.8,10.7,7.5,10.7,7.5s6.5-17.3-5.1-36.9
		c-11.7-19.6-12.2-16.8-12.2-16.8L138.1,225.5z"/>
	<path class="st4" d="M88.6,131.6c0,0-34.6-86.5-61.7-70.1c0,0-22.4,20.6-13.1,55.1s17.3,45.3,17.3,45.3s14,40.2,21.5,47.7
		c0,0,24.8,28.5,43,6.1l2.8-21.5L88.6,131.6z"/>
	<path class="st4" d="M127.8,136.2c0,0,17.8-68.7,107.9-93l30.8,19.2l2.3,32.2l-20.6,80.8c0,0-12.2,45.8-32.7,50.5
		s-61.7-11.7-67.3-19.2s-27.6-29.4-27.6-29.4L127.8,136.2z"/>
	<path class="st5" d="M163.4,97c0,0,29.4-18.7,37.9-5.6c8.4,13.1-7.5,27.6-7.5,27.6s28.5-15,15.9-36S163.4,97,163.4,97z"/>
	<path class="st5" d="M232.1,43.2c0,0,17.3,2.8,12.6,15.9c0,0,6.5,1.4,3.3,4.7c0,0,9.3-6.1,16.8,7.5s-6.1,19.2-6.1,19.2
		s11.7,7.5,5.6,19.2s-19.6,13.1-19.6,13.1s14,11.2,7,25.7s-15.9,18.2-15.9,18.2s12.2,10.7,6.1,25.2c-6.1,14.5-21.5,16.8-21.5,16.8
		s1.4,15.4-17.8,18.2c0,0,29.9,9.8,42.5-28c12.6-37.8,16.8-64.5,16.8-64.5s15.9-45.3,9.8-65.9s-22.9-24.3-22.9-24.3
		S234.4,41.4,232.1,43.2z"/>
	<path class="st5" d="M61,101.6c0,0-15.4-7.9-18.2,1.9s4.7,22,4.7,22s-17.8-14-10.3-29S61,101.6,61,101.6z"/>
	<path class="st5" d="M20.4,69.9l0.5,7c0,0-2.8,3.3-0.9,6.1c0,0-9.3,4.2-3.3,22.4c0,0-5.1,9.3,5.6,20.6c0,0-3.3,7.9-1.4,11.7
		c-3.6-8.9-8.7-23.7-8.9-37.9c0-3.5,0.2-6.2,0.3-6.9C13.4,82.5,17.4,74.6,20.4,69.9z"/>
	<path class="st5" d="M27.4,154c0,0,3.7,4.7,5.6,4.2c0,0-0.9,3.7-0.5,6.1L27.4,154z"/>
	<path class="st5" d="M47,199.8c0,0,2.8,3.3,5.1,2.3l0.5,7.5L47,199.8z"/>
	<path class="st6" d="M67.6,149.8c0,0,14.5-25.7,39.3-21.5s30.8,22,30.8,22s7,19.2-7.5,32.2c0,0,17.3,10.3,17.3,19.6
		s-3.7,16.8-3.7,16.8s-8.9,16.8-26.2,11.7s-22-15-22-15s-3.7-18.7-0.9-22C94.7,193.7,62,195.1,67.6,149.8z"/>
	<path class="st7" d="M119.9,195.6l2.8,3.3l-2.8,3.7l4.2,3.3l-1.9,4.2c0,0,13.6,2.8,12.2-9.8S119.9,195.6,119.9,195.6z"/>
	<path class="st7" d="M89.5,211c0,0-3.7-9.3,5.6-10.3l-0.5,4.7l4.2,1.9L96,211l3.7,3.7C99.8,214.7,91.9,218.5,89.5,211z"/>
	<polygon class="st8" points="91.7,180 93.1,183.7 95.9,180.9 	"/>
	<polygon class="st8" points="106,179.2 110.7,182 109.8,176 	"/>
	<path class="st7" d="M98.9,168.9c0,0-13.1,3.3-10.3,8.4c2.8,5.1,12.2,4.2,12.2,4.2s9.8-2.3,9.3-7.9S98.9,168.9,98.9,168.9z"/>
	<path class="st9" d="M83.5,142.3c0,0-20.6-44.9-14-82.2c0,0-3.3-27.1,4.7-24.3s-1.4,24.8-1.4,24.8S66.6,101.6,83.5,142.3z"/>
	<path class="st9" d="M99.8,139.5c0,0-4.2-37.9,29.9-75.7c0,0,15-24.3,16.8-14.5s-12.6,16.4-12.6,16.4S101.7,99.8,99.8,139.5z"/>
</g>
</svg>
