<?xml version="1.0" encoding="utf-8"?>
<!-- Generator: Adobe Illustrator 23.0.6, SVG Export Plug-In . SVG Version: 6.00 Build 0)  -->
<svg version="1.1" id="Layer_1" xmlns="http://www.w3.org/2000/svg" xmlns:xlink="http://www.w3.org/1999/xlink" x="0px" y="0px"
	 viewBox="0 0 288 288" style="enable-background:new 0 0 288 288;" xml:space="preserve">
<style type="text/css">
	.st0{opacity:0.5;}
	.st1{fill:#A18BA1;}
	.st2{fill:#BC8E93;}
	.st3{fill:#F1DAE7;}
	.st4{fill:#E5ADB3;}
	.st5{fill:#F2EDEB;}
</style>
<g class="st0">
	<path d="M241.4,198l25.4-4.6c0,0,20.8-1.5-11.2,18.8c-32,20.3-39.6,19.3-39.6,19.3S234.3,216.2,241.4,198z"/>
	<path d="M95,53.7c0,0-12.2,7.6-31,4.6s-5.1,11.2-5.1,11.2S91.9,65.9,95,53.7z"/>
	<path d="M219,76.1c0,0,10.7,7.1,27.4,8.6s-2.5,20.3-2.5,20.3s-28-15.8-27.4-18.3C216.9,84.2,219,76.1,219,76.1z"/>
	<path d="M66.5,58.7c0,0-25.4-5.1-26.4-7.6c0,0-16.3-1,1,21.3l23.9-1l2-3.6l-8.6-2l13.2-1.5l-11.2-3.6L66.5,58.7z"/>
	<path d="M246.4,84.7c0,0,28,4.6,31.5,3.6c3.6-1,7.6,2.5,7.6,2.5s4.6,17.8-36.1,16.8l-12.2-4.6h7.6l-7.1-4.1h8.6l-12.2-3.6h8.1
		l-10.5-9.1l15.2,3l-4.1-3.6L246.4,84.7z"/>
	<path d="M75.1,235.1c0,0-0.7,0.2-1.8,0.6c-6.5,2.3-28.1,10.9-22.1,21.2c7.1,12.2,47.8-8.1,47.8-8.1L75.1,235.1z"/>
	<path d="M210.8,235.6c0,0,25.4,23.9,13.2,36.6s-37.1-25.4-37.1-25.4L210.8,235.6z"/>
	<path d="M219,76.1c0,0-41.7-87.4-124-22.4c0,0-16.8,16.8-53.9,17.8l3.6,32l13.2-4.1c0,0-66.1,98.1,41.2,149.4
		c0,0,95.5,39.6,143.3-50.8c0,0,9.7-22.9,5.1-51.8l-16.3-11.7l12.7-29.5l-20.8-14.2L219,76.1z"/>
	<path d="M58.9,69.5c0,0-40.2,0-43.2-3s-6.6,3-6.6,3s-2.6,12.2,8.6,17.2c0,0-12.7,11.2,12.7,15.8c0,0,11.7,4.6,27.4-3l1.5-4.1
		l-13.7,2l6.1-5.1l-8.1-2l5.6-2l-6.1-2.5l7.6-3.6l-9.1-1l9.7-4.1l-9.1-1.5L58.9,69.5z"/>
	<path d="M70.1,186.9c0,0,4.6-20.3,8.1-21.3c0,0,10.2,4.1,9.7-9.7c0,0,20.3-16.8,42.7,6.1c0,0-7.6,7.6,5.6,9.7
		c0,0,6.6,12.7,5.6,24.9c0,0-6.6,25.4-37.6,14.7C104.1,211.2,68,211.8,70.1,186.9z"/>
	<path d="M237.3,103c0,0,35.1,11.2,41.7,12.7s6.6,7.6,6.6,7.6s-7.1,14.7-30,10.2c0,0,11.7,14.7-10.2,13.2
		c-21.9-1.5-40.2-22.4-40.2-22.4l6.6-0.5l-2.5-5.1l7.6,4.6l-2-9.1l7.6,5.6l-0.5-5.6l5.1,1l-1-6.6l11.7,6.1l-8.1-9.7l10.2,3
		L237.3,103z"/>
	<path d="M70.1,186.9c0,0-0.5,22.4,39.1,23.4c0,0,26.4-1,32.5-13.7c0,0,6.1,4.1,1,17.8c-5.1,13.7-15.2,23.9-15.2,23.9
		s-18.3,15.8-37.6,0.5c-19.3-15.2-22.4-32.5-22.4-32.5S64.5,188.9,70.1,186.9z"/>
</g>
<g>
	<path class="st1" d="M236.7,193.5l25.4-4.6c0,0,20.8-1.5-11.2,18.8S211.3,227,211.3,227S229.6,211.8,236.7,193.5z"/>
	<path class="st1" d="M90.3,49.2c0,0-12.2,7.6-31,4.6S54.2,65,54.2,65S87.2,61.4,90.3,49.2z"/>
	<path class="st1" d="M214.3,71.6c0,0,10.7,7.1,27.4,8.6s-2.5,20.3-2.5,20.3s-28-15.8-27.4-18.3C212.2,79.7,214.3,71.6,214.3,71.6z"
		/>
	<path class="st2" d="M61.8,54.2c0,0-25.4-5.1-26.4-7.6c0,0-16.3-1,1,21.3l23.9-1l2-3.6l-8.6-2l13.2-1.5l-11.2-3.6L61.8,54.2z"/>
	<path class="st2" d="M241.7,80.2c0,0,28,4.6,31.5,3.6c3.6-1,7.6,2.5,7.6,2.5s4.6,17.8-36.1,16.8l-12.2-4.6h7.6l-7.1-4.1h8.6
		l-12.2-3.6h8.1L227,81.7l15.2,3l-4.1-3.6L241.7,80.2z"/>
	<path class="st2" d="M70.4,230.6c0,0-0.7,0.2-1.8,0.6c-6.5,2.3-28.1,10.9-22.1,21.2c7.1,12.2,47.8-8.1,47.8-8.1L70.4,230.6z"/>
	<path class="st2" d="M206.1,231.2c0,0,25.4,23.9,13.2,36.6c-12.2,12.7-37.1-25.4-37.1-25.4L206.1,231.2z"/>
	<path class="st3" d="M214.3,71.6c0,0-41.7-87.4-124-22.4c0,0-16.8,16.8-53.9,17.8L40,99l13.2-4.1c0,0-66.1,98.1,41.2,149.4
		c0,0,95.5,39.6,143.3-50.8c0,0,9.7-22.9,5.1-51.8L226.5,130l12.7-29.5l-20.8-14.2L214.3,71.6z"/>
	<path class="st4" d="M54.2,65c0,0-40.2,0-43.2-3s-6.6,3-6.6,3S1.8,77.2,13,82.2c0,0-12.7,11.2,12.7,15.8c0,0,11.7,4.6,27.4-3
		l1.5-4.1l-13.7,2l6.1-5.1l-8.1-2l5.6-2l-6.1-2.5l7.6-3.6l-9.1-1l9.7-4.1l-9.1-1.5L54.2,65z"/>
	<path class="st5" d="M65.4,182.4c0,0,4.6-20.3,8.1-21.3c0,0,10.2,4.1,9.7-9.7c0,0,20.3-16.8,42.7,6.1c0,0-7.6,7.6,5.6,9.7
		c0,0,6.6,12.7,5.6,24.9c0,0-6.6,25.4-37.6,14.7C99.4,206.8,63.3,207.3,65.4,182.4z"/>
	<path class="st4" d="M232.6,98.5c0,0,35.1,11.2,41.7,12.7s6.6,7.6,6.6,7.6s-7.1,14.7-30,10.2c0,0,11.7,14.7-10.2,13.2
		s-40.2-22.4-40.2-22.4l6.6-0.5l-2.5-5.1l7.6,4.6l-2-9.1l7.6,5.6l-0.5-5.6l5.1,1l-1-6.6l11.7,6.1l-8.1-9.7l10.2,3L232.6,98.5z"/>
	<path class="st4" d="M65.4,182.4c0,0-0.5,22.4,39.1,23.4c0,0,26.4-1,32.5-13.7c0,0,6.1,4.1,1,17.8s-15.2,23.9-15.2,23.9
		s-18.3,15.8-37.6,0.5c-19.3-15.2-22.4-32.5-22.4-32.5S59.8,184.4,65.4,182.4z"/>
</g>
</svg>
