<?xml version="1.0" encoding="utf-8"?>
<!-- Generator: Adobe Illustrator 23.0.6, SVG Export Plug-In . SVG Version: 6.00 Build 0)  -->
<svg version="1.1" id="Layer_1" xmlns="http://www.w3.org/2000/svg" xmlns:xlink="http://www.w3.org/1999/xlink" x="0px" y="0px"
	 viewBox="0 0 288 288" style="enable-background:new 0 0 288 288;" xml:space="preserve">
<style type="text/css">
	.st0{opacity:0.5;}
	.st1{fill:#C1BAB1;}
	.st2{fill:#A78270;}
	.st3{fill:#E68E6A;}
	.st4{fill:#FBDD7D;}
	.st5{fill:#CCD4E5;}
	.st6{fill:#EBB28D;}
	.st7{fill:#FAF0DF;}
	.st8{fill:#956E80;}
	.st9{fill:#C6B6BF;}
	.st10{fill:#FFFFFF;}
</style>
<g class="st0">
	<path d="M183,248.5c2.7-5.3,12.2-1.4,20.9-6.3c5.3-3,7.6-7.6,9.9-11.7c4.8-8.4,12.9-20.3,28.1-36.1c-1,7.2-3.7,19.7-12.2,32.5
		c-5.9,8.9-12.2,14.2-13.8,15.6c-16.1,13.4-35.9,16.7-36.1,16c0-0.1,0.6-0.5,3.2-1.8C182.2,254.5,181.6,251.3,183,248.5z"/>
	<path d="M178.2,220.4c-0.9-2.2-4.2-2.4-4.2-2.9c0.1-1.5,30.6,5.2,47.5-7.2c9.4-6.9,12.9-18.4,14.3-27.8c-0.4-2,1-3.8,2.6-3.9
		c1.4-0.1,2.8,1,3.1,2.6c0.5,3.3,0.8,7.3,0.5,12c-0.2,2.8-0.6,5.3-1,7.5c-3.4,8-8.7,17.5-17.1,26.5c-5.5,5.8-11.1,11.8-20.5,15.8
		c-7.3,3.1-19,6-19,6c-9-14.5-9.3-20.7-7.5-23.6C177.4,224.6,179,222.3,178.2,220.4z"/>
	<path d="M241.6,183c0,0,14.8-0.3,15.6-4.7c0.8-4.4,0.3-11.4,0.3-11.4l-3.1-14.8l7.5-17.4l-10.7-9.9l-1.8-27l-2.6,2.3l-1.6-6
		l-2.9,1.6l-2.3-6.5l-3.4,27l-13.5,10.9v15.3l-6.2,11.4l16.1,24.2L241.6,183"/>
	<path d="M235.9,182.5c0,0-12.2-1.3-12.2-11.7c0,0-5.7-11.2-10.9-13.2c-5.2-2.1,10.4-15.1,10.4-15.1l-4.2,10.4l6-3.1l1,2.6
		c0,0,2.3-8.1,3.9-8.6c1.6-0.5,1.3,5.5,1.3,5.5l3.6,0.8c0,0-6,7.8-2.9,12s11.4-13.5,11.4-13.5s1,3.1,0.3,5.2c0,0,6-16.4,2.1-31.4
		c0,0,8.3,12,7.3,15.6l4.7-2.9l0.3,2.6c0,0,3.4-2.9,3.1-1.8c-0.3,1-8.1,13.8-6.8,16.4c1.3,2.6-3.4-1.6-3.4-1.6v8.3l-2.9-2.6
		c0,0-1.3,18.4-5.7,20.8s4.4-2.3,4.4-2.3l-2.9,6l-2.3,2.3L235.9,182.5"/>
	<path d="M223.2,127.1l-0.3-11.4l3.9,5.7c0,0,1.8-13.5,3.4-13.8c0,0,7,8.6,5.7,12l-2.9,6.5l-3.6-3.1l0.3,14.5l-2.1-12.2L223.2,127.1
		z"/>
	<path d="M255.1,153.9c0,0-0.3,13,1,13.8c1.3,0.8,4.9-11.2,4.4-14.8s-2.6,1.3-2.6,1.3l1.6-7L255.1,153.9z"/>
	<path d="M165.8,284.8c0,0,11.4,6,14,4.9c2.6-1-3.4-6.8-3.4-6.8s12.7,3.6,16.9,2.6s-3.4-6.8-3.4-6.8s9.1,1.8,8.8,0.3
		c-0.3-1.6-10.7-10.9-10.7-10.9S154.6,274.2,165.8,284.8z"/>
	<path d="M39,262.5c0,0-10.9,8.8-10.9,11.7s7.3,0.5,7.3,0.5s-3.9,4.4-1.8,5.7c2.1,1.3,11.7-4.9,11.7-4.9s-3.1,4.4-1.3,4.9
		s14.8-7,14.8-7s21-7.3,3.1-8.8C43.9,263,39,262.5,39,262.5z"/>
	<path d="M67.1,204.8c0,0-32.2,19.2-25.5,43.1s4.2,9.4,4.2,9.4l-6.8,5.2l1.6,4.2l4.7-2.1c0,0,3.1,3.6,2.6,5.7s5.7-1.6,5.7-1.6
		s6.8,2.1,5.2,4.7c0,0,21.3-6.2,26.5-6.2c0,0,3.6,0,1.6-8.3c0,0,18.2-9.9,26.5-7.3C113.3,251.6,73.3,245.3,67.1,204.8z"/>
	<path d="M67.6,174.2c-1.3,7.2-2.4,17.9-0.5,30.7c1.3,9.1,2.5,18.3,8.3,26.7c7.8,11.3,24.8,21.7,64,21.7
		c76.4,0-34.3-117.4-34.3-117.4c-2.8-1.6-14.1-7.3-22.9-2.6c-7.5,4-9.7,13.9-12.5,26.5C68.4,165.5,67.8,170.5,67.6,174.2z"/>
	<path d="M78.5,10c0,0-39.5,11.4-39,39.5s-5.2,43.1-5.2,43.1s-9.4,14.5,18.7,27c0,0,20.3,8.3,23.4,8.3c0,0-41,17.1-42.6,20.3
		l-3.6-2.1l-3.1,3.6l-4.2-2.6l1,5.2l-9.9,1.6l12.5,11.4l-1,8.3l8.8-2.6c8.1-0.8,14.6-0.2,19.2,0.5c6,1,11.1,2.6,13.5,0
		c1.3-1.4,1-3.2,1-5.7c0.2-7.7,4.2-13.5,6.8-17.1C79.5,142,87,137,91.5,136.2c13.3-2.4,33.2,26,47.8,70.1c0,0-19.2,38.4,0,46.8
		c0,0,18.2,21.8,17.1,25.5c-1,3.6,9.4,6.2,9.4,6.2s-1-8.3,2.1-7.8s8.3,4.7,8.3,4.7s1.6-6.8,4.2-6.8c2.6,0,5.7,1,5.7,1
		s0.5-8.3,2.1-7.8s-3.6-4.2-3.6-4.2V249c0,0-4.7-41-17.1-48.3l-18.7-28.6c0,0,33.3,0,35.9-7.3c0,0,7.8-4.2,9.4-3.1
		c1.6,1-3.1-4.7-3.1-4.7l7.8-6.2c0,0-7.8-3.6-10.9-2.1c0,0,4.7-7.8,3.1-7.8s-13,3.1-13,3.1s-44.7-17.7-48.8-18.2
		c0,0,1-14.5,6.2-19.7s4.2-32.7,4.2-32.7c-1-12.2-3.8-21.8-6.2-28.3c-2.3-6.4-5.3-14.3-12.2-22.6c-2.6-3.2-5.2-5.6-7-7.3
		c-3.4-1.8-7.9-3.7-13.5-4.9C91.1,8.2,83.3,9.1,78.5,10z"/>
	<path d="M51.9,104.1c0,0,7.6,12.9,25.8,18.2s37.8-10.2,37.8-10.2s7.6-7.1,8.4-14.2c0,0-46.2,13.8-55.1,11.6S51.9,104.1,51.9,104.1z
		"/>
	<path d="M77.7,122.3c0,0,4.9-15.6,37.8-10.2C115.4,112.1,102.1,132.6,77.7,122.3z"/>
	<path d="M47,101.9c0,0,3.6,9.3,6.2,6.7c2.7-2.7,2.7-2.7,2.7-2.7L47,101.9z"/>
	<path d="M112.8,100.6c0,0,4.9,9.8,6.7,4.9c1.8-4.9,1.8-7.1,1.8-7.1L112.8,100.6z"/>
	<polygon points="68.3,117.9 71.9,117 72.8,121 	"/>
	<path d="M110.6,116.1c0,0-2.2-4.9,0-4.4c2.2,0.4,4.9,0.4,4.9,0.4L110.6,116.1z"/>
</g>
<g>
	<path class="st1" d="M177,243.5c2.7-5.3,12.2-1.4,20.9-6.3c5.3-3,7.6-7.6,9.9-11.7c4.8-8.4,12.9-20.3,28.1-36.1
		c-1,7.2-3.7,19.7-12.2,32.5c-5.9,8.9-12.2,14.2-13.8,15.6c-16.1,13.4-35.9,16.7-36.1,16c0-0.1,0.6-0.5,3.2-1.8
		C176.2,249.5,175.6,246.3,177,243.5z"/>
	<path class="st2" d="M172.2,215.4c-0.9-2.2-4.2-2.4-4.2-2.9c0.1-1.5,30.6,5.2,47.5-7.2c9.4-6.9,12.9-18.4,14.3-27.8
		c-0.4-2,1-3.8,2.6-3.9c1.4-0.1,2.8,1,3.1,2.6c0.5,3.3,0.8,7.3,0.5,12c-0.2,2.8-0.6,5.3-1,7.5c-3.4,8-8.7,17.5-17.1,26.5
		c-5.5,5.8-11.1,11.8-20.5,15.8c-7.3,3.1-19,6-19,6c-9-14.5-9.3-20.7-7.5-23.6C171.4,219.6,173,217.3,172.2,215.4z"/>
	<path class="st3" d="M235.6,178c0,0,14.8-0.3,15.6-4.7s0.3-11.4,0.3-11.4l-3.1-14.8l7.5-17.4l-10.7-9.9l-1.8-27l-2.6,2.3l-1.6-6
		l-2.9,1.6l-2.3-6.5l-3.4,27l-13.5,10.9v15.3l-6.2,11.4L227,173L235.6,178"/>
	<path class="st4" d="M229.9,177.5c0,0-12.2-1.3-12.2-11.7c0,0-5.7-11.2-10.9-13.2c-5.2-2.1,10.4-15.1,10.4-15.1l-4.2,10.4l6-3.1
		l1,2.6c0,0,2.3-8.1,3.9-8.6c1.6-0.5,1.3,5.5,1.3,5.5l3.6,0.8c0,0-6,7.8-2.9,12s11.4-13.5,11.4-13.5s1,3.1,0.3,5.2
		c0,0,6-16.4,2.1-31.4c0,0,8.3,12,7.3,15.6l4.7-2.9l0.3,2.6c0,0,3.4-2.9,3.1-1.8c-0.3,1-8.1,13.8-6.8,16.4c1.3,2.6-3.4-1.6-3.4-1.6
		v8.3l-2.9-2.6c0,0-1.3,18.4-5.7,20.8s4.4-2.3,4.4-2.3l-2.9,6l-2.3,2.3L229.9,177.5"/>
	<path class="st4" d="M217.2,122.1l-0.3-11.4l3.9,5.7c0,0,1.8-13.5,3.4-13.8c0,0,7,8.6,5.7,12l-2.9,6.5l-3.6-3.1l0.3,14.5l-2.1-12.2
		L217.2,122.1z"/>
	<path class="st4" d="M249.1,148.9c0,0-0.3,13,1,13.8s4.9-11.2,4.4-14.8s-2.6,1.3-2.6,1.3l1.6-7L249.1,148.9z"/>
	<path class="st5" d="M159.8,279.8c0,0,11.4,6,14,4.9c2.6-1-3.4-6.8-3.4-6.8s12.7,3.6,16.9,2.6s-3.4-6.8-3.4-6.8s9.1,1.8,8.8,0.3
		c-0.3-1.6-10.7-10.9-10.7-10.9S148.6,269.2,159.8,279.8z"/>
	<path class="st5" d="M33,257.5c0,0-10.9,8.8-10.9,11.7s7.3,0.5,7.3,0.5s-3.9,4.4-1.8,5.7s11.7-4.9,11.7-4.9s-3.1,4.4-1.3,4.9
		s14.8-7,14.8-7s21-7.3,3.1-8.8C37.9,258,33,257.5,33,257.5z"/>
	<path class="st6" d="M61.1,199.8c0,0-32.2,19.2-25.5,43.1s4.2,9.4,4.2,9.4l-6.8,5.2l1.6,4.2l4.7-2.1c0,0,3.1,3.6,2.6,5.7
		s5.7-1.6,5.7-1.6s6.8,2.1,5.2,4.7c0,0,21.3-6.2,26.5-6.2c0,0,3.6,0,1.6-8.3c0,0,18.2-9.9,26.5-7.3
		C107.3,246.6,67.3,240.3,61.1,199.8z"/>
	<path class="st7" d="M61.6,169.2c-1.3,7.2-2.4,17.9-0.5,30.7c1.3,9.1,2.5,18.3,8.3,26.7c7.8,11.3,24.8,21.7,64,21.7
		c76.4,0-34.3-117.4-34.3-117.4c-2.8-1.6-14.1-7.3-22.9-2.6c-7.5,4-9.7,13.9-12.5,26.5C62.4,160.5,61.8,165.5,61.6,169.2z"/>
	<path class="st6" d="M72.5,5c0,0-39.5,11.4-39,39.5s-5.2,43.1-5.2,43.1s-9.4,14.5,18.7,27c0,0,20.3,8.3,23.4,8.3
		c0,0-41,17.1-42.6,20.3l-3.6-2.1l-3.1,3.6l-4.2-2.6l1,5.2L8,148.9l12.5,11.4l-1,8.3l8.8-2.6c8.1-0.8,14.6-0.2,19.2,0.5
		c6,1,11.1,2.6,13.5,0c1.3-1.4,1-3.2,1-5.7c0.2-7.7,4.2-13.5,6.8-17.1C73.5,137,81,132,85.5,131.2c13.3-2.4,33.2,26,47.8,70.1
		c0,0-19.2,38.4,0,46.8c0,0,18.2,21.8,17.1,25.5c-1,3.6,9.4,6.2,9.4,6.2s-1-8.3,2.1-7.8s8.3,4.7,8.3,4.7s1.6-6.8,4.2-6.8
		c2.6,0,5.7,1,5.7,1s0.5-8.3,2.1-7.8s-3.6-4.2-3.6-4.2V244c0,0-4.7-41-17.1-48.3l-18.7-28.6c0,0,33.3,0,35.9-7.3
		c0,0,7.8-4.2,9.4-3.1c1.6,1-3.1-4.7-3.1-4.7l7.8-6.2c0,0-7.8-3.6-10.9-2.1c0,0,4.7-7.8,3.1-7.8s-13,3.1-13,3.1
		s-44.7-17.7-48.8-18.2c0,0,1-14.5,6.2-19.7s4.2-32.7,4.2-32.7c-1-12.2-3.8-21.8-6.2-28.3c-2.3-6.4-5.3-14.3-12.2-22.6
		c-2.6-3.2-5.2-5.6-7-7.3c-3.4-1.8-7.9-3.7-13.5-4.9C85.1,3.2,77.3,4.1,72.5,5z"/>
	<path class="st8" d="M45.9,99.1c0,0,7.6,12.9,25.8,18.2s37.8-10.2,37.8-10.2s7.6-7.1,8.4-14.2c0,0-46.2,13.8-55.1,11.6
		S45.9,99.1,45.9,99.1z"/>
	<path class="st9" d="M71.7,117.3c0,0,4.9-15.6,37.8-10.2C109.4,107.1,96.1,127.6,71.7,117.3z"/>
	<path class="st10" d="M41,96.9c0,0,3.6,9.3,6.2,6.7c2.7-2.7,2.7-2.7,2.7-2.7L41,96.9z"/>
	<path class="st10" d="M106.8,95.6c0,0,4.9,9.8,6.7,4.9c1.8-4.9,1.8-7.1,1.8-7.1L106.8,95.6z"/>
	<polygon class="st10" points="62.3,112.9 65.9,112 66.8,116 	"/>
	<path class="st10" d="M104.6,111.1c0,0-2.2-4.9,0-4.4c2.2,0.4,4.9,0.4,4.9,0.4L104.6,111.1z"/>
</g>
</svg>
