<?xml version="1.0" encoding="utf-8"?>
<!-- Generator: Adobe Illustrator 23.0.6, SVG Export Plug-In . SVG Version: 6.00 Build 0)  -->
<svg version="1.1" id="Layer_1" xmlns="http://www.w3.org/2000/svg" xmlns:xlink="http://www.w3.org/1999/xlink" x="0px" y="0px"
	 viewBox="0 0 288 288" style="enable-background:new 0 0 288 288;" xml:space="preserve">
<style type="text/css">
	.st0{opacity:0.5;}
	.st1{fill:#AB9887;}
	.st2{fill:#D8D9E2;}
	.st3{fill:#AF969E;}
	.st4{fill:#1C1D1E;}
	.st5{fill:#F5D5D7;}
	.st6{fill:#E6C9DD;}
	.st7{fill:#D6B6C1;}
	.st8{fill:#FFFFFF;}
</style>
<g class="st0">
	<path d="M42.2,16.3c0,0,12.8-4.7,37.6,8.6c0,0-25.7,37.2-25.7,41.1S42.2,16.3,42.2,16.3z"/>
	<path d="M241.5,52.7c9.6,0.1,17.4,0.7,23.1,1.3c9.5,1,13.5,2,14.5,4.7c1.1,2.7-1.3,6-2.6,7.7c-6.5,8.7-15.1,20.4-25.7,34.2
		c0.7-5.8,1-14-0.7-23.5C248.3,66.3,244.5,58,241.5,52.7z"/>
	<path d="M67,275.9c0,0,2.1,8.6,9.8,9.4s15.8-5.6,15.8-5.6S91.4,268.2,67,275.9z"/>
	<path d="M166.7,282.8c0,0,12,8.6,25.2-0.4c13.3-9-12.8-12.8-12.8-12.8L166.7,282.8z"/>
	<path d="M207.7,267.4l34.3-107c0,0,31.6,0,20.5,62.9C262.5,223.3,248.4,267.4,207.7,267.4z"/>
	<path d="M234.3,122.4c7.1-10.1,14.3-20.3,21.6-30.5c7.8-10.9,15.5-21.7,23.3-32.4c-1.6,11.1-4.2,19.8-6.4,25.7
		c-9.6,26.4-25.3,42.1-33.8,50.4c-3.1,3.1-14.5,14.1-16.7,12.4C220.1,146.3,227.5,133.4,234.3,122.4z"/>
	<path d="M66.6,95.9c0,0-19.7-79.6-24.4-79.6c0,0-9,31.2,13.7,101.8L66.6,95.9z"/>
	<path d="M43.9,81.8l3,2.6c0,0,8.1-2.1,9.4-0.4c1.3,1.7,0,11.5,0,11.5l3.8,6.4c0,0,3.8-8.1,5.6-8.6l-8.6-34.6l22.7-33.8
		c0,0,34.2,15,37.2,21.8c0,0,25.2-31.2,48.8-16.7c23.5,14.5,29.5,23.5,29.5,23.5c14.9-0.8,26.2-1.4,32.1-1.7c0.9,0,3.4-0.2,6.8,0
		c3.3,0.2,6.8,0.4,9,1.3c5.3,2.2,6.6,10.6,7.7,18.4c0.2,1.5,0.4,2.8,0.5,4.1c0.4,5.2,0.6,12.9-0.9,22.8c-5.4,8-10.8,16-16.3,24
		c0,0,3.8,15,3.4,18.8c0,0,12.4-6.4,16.3-3.8c0,0,7.7-11.5,9.4-9.8c1.7,1.7,5.1,9.8,5.1,9.8l6,0.4l5.1,10.3l0.4,5.6l-3.8,12.4
		c0,0-16.7,21.4-38.9,25.7c0,0-0.9,59-27.8,73.1s-61.2-1.7-61.2-1.7s-26.1,2.1-33.8-3.4c0,0-3,6.4-7.7,8.6
		c-4.6,2-58.1-26.7-58.1-26.7s-15.4-47.5-9-80c0,0-27.4-47.5-20.5-65c6.8-17.5,19.2-15,19.2-15L43.9,81.8L43.9,81.8z"/>
	<ellipse cx="98.9" cy="132" rx="10.5" ry="3.6"/>
	<ellipse cx="188.5" cy="141.4" rx="10.5" ry="3.6"/>
	<path d="M148.3,263.1c0,0,13.7,18.4,18.4,19.7c0,0,6-12.4,25.2-0.4c4.2-3,9.8-7.4,15.9-13.2c4.5-4.3,10.1-9.7,14.9-16.7
		c3.7-5.6,9.6-16.1,11.5-32.1c-9.9,7-21.5,14.4-34.7,21.4C180.9,251.5,163.4,258.3,148.3,263.1z"/>
	<path d="M38.8,183.1c0,0,0.4,57.3,28.2,92.8c0,0,23.1-4.3,25.7,3.8c0,0,16.7-9,21.8-20.1C114.5,259.7,44.8,230.6,38.8,183.1z"/>
	<path d="M33.2,87.7c0,0-3.4-15.4,0.4-15.8s10.3,9.8,10.3,9.8S41.8,89.9,33.2,87.7z"/>
	<path d="M24.7,87.3c0,0-12,3.4-6.4,12s8.6-1.7,8.6-1.7L24.7,87.3z"/>
	<path d="M274.5,137.8c0,0,13.3-0.4,11.5,2.1c-1.7,2.6-6.4,8.1-6.4,8.1S268.9,149.3,274.5,137.8z"/>
	<path d="M280,153.6c0,0,4.7,9-3.8,12.4s-3-4.3-3-4.3L280,153.6z"/>
</g>
<g>
	<path class="st1" d="M36.6,11.9c0,0,12.8-4.7,37.6,8.6c0,0-25.7,37.2-25.7,41.1S36.6,11.9,36.6,11.9z"/>
	<path class="st1" d="M235.9,48.3c9.6,0.1,17.4,0.7,23.1,1.3c9.5,1,13.5,2,14.5,4.7c1.1,2.7-1.3,6-2.6,7.7
		c-6.5,8.7-15.1,20.4-25.7,34.2c0.7-5.8,1-14-0.7-23.5C242.7,61.9,238.9,53.6,235.9,48.3z"/>
	<path class="st2" d="M61.4,271.5c0,0,2.1,8.6,9.8,9.4s15.8-5.6,15.8-5.6S85.8,263.8,61.4,271.5z"/>
	<path class="st2" d="M161.1,278.4c0,0,12,8.6,25.2-0.4c13.3-9-12.8-12.8-12.8-12.8L161.1,278.4z"/>
	<path class="st3" d="M202.1,263l34.3-107c0,0,31.6,0,20.5,62.9C256.9,218.9,242.8,263,202.1,263z"/>
	<path class="st4" d="M228.7,118c7.1-10.1,14.3-20.3,21.6-30.5c7.8-10.9,15.5-21.7,23.3-32.4c-1.6,11.1-4.2,19.8-6.4,25.7
		c-9.6,26.4-25.3,42.1-33.8,50.4c-3.1,3.1-14.5,14.1-16.7,12.4C214.5,141.9,221.9,129,228.7,118z"/>
	<path class="st4" d="M61,91.5c0,0-19.7-79.6-24.4-79.6c0,0-9,31.2,13.7,101.8L61,91.5z"/>
	<path class="st5" d="M38.3,77.4l3,2.6c0,0,8.1-2.1,9.4-0.4c1.3,1.7,0,11.5,0,11.5l3.8,6.4c0,0,3.8-8.1,5.6-8.6l-8.6-34.6l22.7-33.8
		c0,0,34.2,15,37.2,21.8c0,0,25.2-31.2,48.8-16.7c23.5,14.5,29.5,23.5,29.5,23.5c14.9-0.8,26.2-1.4,32.1-1.7c0.9,0,3.4-0.2,6.8,0
		c3.3,0.2,6.8,0.4,9,1.3c5.3,2.2,6.6,10.6,7.7,18.4c0.2,1.5,0.4,2.8,0.5,4.1c0.4,5.2,0.6,12.9-0.9,22.8c-5.4,8-10.8,16-16.3,24
		c0,0,3.8,15,3.4,18.8c0,0,12.4-6.4,16.3-3.8c0,0,7.7-11.5,9.4-9.8c1.7,1.7,5.1,9.8,5.1,9.8l6,0.4l5.1,10.3l0.4,5.6l-3.8,12.4
		c0,0-16.7,21.4-38.9,25.7c0,0-0.9,59-27.8,73.1s-61.2-1.7-61.2-1.7s-26.1,2.1-33.8-3.4c0,0-3,6.4-7.7,8.6
		c-4.6,2-58.1-26.7-58.1-26.7s-15.4-47.5-9-80c0,0-27.4-47.5-20.5-65c6.8-17.5,19.2-15,19.2-15L38.3,77.4L38.3,77.4z"/>
	<ellipse class="st6" cx="93.3" cy="127.6" rx="10.5" ry="3.6"/>
	<ellipse class="st6" cx="182.9" cy="137" rx="10.5" ry="3.6"/>
	<path class="st7" d="M142.7,258.7c0,0,13.7,18.4,18.4,19.7c0,0,6-12.4,25.2-0.4c4.2-3,9.8-7.4,15.9-13.2
		c4.5-4.3,10.1-9.7,14.9-16.7c3.7-5.6,9.6-16.1,11.5-32.1c-9.9,7-21.5,14.4-34.7,21.4C175.3,247.1,157.8,253.9,142.7,258.7z"/>
	<path class="st7" d="M33.2,178.7c0,0,0.4,57.3,28.2,92.8c0,0,23.1-4.3,25.7,3.8c0,0,16.7-9,21.8-20.1
		C108.9,255.3,39.2,226.2,33.2,178.7z"/>
	<path class="st8" d="M27.6,83.3c0,0-3.4-15.4,0.4-15.8s10.3,9.8,10.3,9.8S36.2,85.5,27.6,83.3z"/>
	<path class="st8" d="M19.1,82.9c0,0-12,3.4-6.4,12s8.6-1.7,8.6-1.7L19.1,82.9z"/>
	<path class="st8" d="M268.9,133.4c0,0,13.3-0.4,11.5,2.1c-1.7,2.6-6.4,8.1-6.4,8.1S263.3,144.9,268.9,133.4z"/>
	<path class="st8" d="M274.4,149.2c0,0,4.7,9-3.8,12.4s-3-4.3-3-4.3L274.4,149.2z"/>
</g>
</svg>
