<?xml version="1.0" encoding="utf-8"?>
<!-- Generator: Adobe Illustrator 23.0.6, SVG Export Plug-In . SVG Version: 6.00 Build 0)  -->
<svg version="1.1" id="Layer_1" xmlns="http://www.w3.org/2000/svg" xmlns:xlink="http://www.w3.org/1999/xlink" x="0px" y="0px"
	 viewBox="0 0 288 288" style="enable-background:new 0 0 288 288;" xml:space="preserve">
<style type="text/css">
	.st0{opacity:0.5;}
	.st1{fill:#746E77;}
	.st2{fill:#6D6F7B;}
	.st3{fill:#464043;}
	.st4{fill:#A9B2BC;}
	.st5{fill:#9896B6;}
	.st6{fill:#CECDDB;}
	.st7{fill:#A4B0BD;}
	.st8{fill:#5D5E8B;}
	.st9{fill:#E0DEE1;}
</style>
<g class="st0">
	<path d="M64.2,137.5c0,0-3.8,3.8-2.9,7.2s0,6.2,0,6.2l10.5,13.8C71.8,164.7,71.3,138.9,64.2,137.5z"/>
	<path d="M67.5,174.3c0,0-14.3,7.6-21,10s-4.8,8.6-4.8,8.6s-1.4,4.3,9.5,6.2s15.3-1.9,18.6,2.9C73.3,206.7,67.5,174.3,67.5,174.3z"
		/>
	<path d="M83.8,218.7c0,0-2.9,7.2-4.3,7.6c-1.4,0.5,6.2,12.4,6.2,12.4s3.8,5.3,18.1,5.3C103.8,244,94.3,215.3,83.8,218.7z"/>
	<path d="M102.4,249.7l-12.9,19.1c0,0,2.9,11,10,7.6c0,0,15.8-16.7,21.5-16.7C121,259.7,108.1,244.9,102.4,249.7z"/>
	<path d="M75.2,112.7l-2.9-3.8c0,0-11.9,4.3-18.1,0S13.1,72.1,13.1,72.1s-8.6-7.6,0-10.5s68.3,19.6,68.3,19.6s-1.4,11,2.4,11.9
		c3.8,1,6.7,3.8,6.7,3.8L75.2,112.7z"/>
	<polygon points="131.5,93.1 141.1,93.1 173.5,102.6 178.8,140.4 194.5,169 188.8,202.4 182.6,233.5 165.4,248.3 150.1,229.2 
		175.9,189.1 155.4,128.9 	"/>
	<path d="M225.6,117.4l10-6.2c0,0,12.4,13.8,11.9,18.1c-0.5,4.3-3.3,7.2-3.3,7.2l6.2,18.1l6.2,16.2l-2.4,19.6c0,0-3.8,3.8-6.2,4.8
		s-7.2,15.3-7.2,15.3l1.9,7.2c0,0-8.6,14.8-12.9,14.3c-4.3-0.5-11-5.7-11-5.7L225.6,117.4z"/>
	<path d="M124.9,70.2c0,0-19.1-17.7-25.8-10s-3.3,23.4-3.3,23.4s-3.3,26.3-7.2,27.2c-3.8,1-12.9,8.1-12.9,8.1s-9.5,12.4-1.9,26.3
		s3.3,24.8,3.3,24.8s-7.2,20.1-2.9,29.6c4.3,9.5,6.2,9.1,6.2,9.1s15.8,3.8,18.6,12.9c2.9,9.1,6.7,20.1,6.7,20.1s10.5,11,20.5,13.4
		c10,2.4,4.3,14.3,12.9,18.6c8.6,4.3,9.5,7.2,9.5,7.2s4.8-11.5,11.5-11l0.5-21l-11.3-19.7L98.7,180l22.4-77.4l42-4.8L124.9,70.2z"/>
	<path d="M110,109.7c0,0-1,1.4-1.4,6.7c-0.5,5.3-6.2,19.1-11,21.5S88.5,156,88.5,156s-4.3,19.6,5.7,25.3s8.6,22,8.6,22
		s-1,20.5,14.3,24.8s9.5,4.3,13.4,11c0,0,7.2,14.8,21,7.6l3.8-2.9l6.2,5.7l3.3-3.8c0,0-10-6.2,2.9-21.5s23.9-13.4,23.9-13.4
		c0.2-7.1,0.3-14.3,0.5-21.4c-3.6-6.9-5.8-13.1-7.2-17.7c-2.2-7.3-4.1-13.7-3.3-22c0.3-4,1.2-7.3,1.9-9.5c-1.1-4.1-3.5-9.8-8.6-13.4
		c-3.6-2.5-4.9-1.5-10-3.8c-11.3-5.1-18.6-16.3-18.6-16.3l0,0c-4.2-9.5-14.2-14.3-22.9-11.9C116.8,96.7,111.6,102.5,110,109.7z"/>
	<path d="M129.6,52.5c0,0,23.4,5.7,27.7,12.9s16.7,17.2,23.9,16.7c0,0,14.3-4.3,14.3-10.5c0,0-6.2-14.3,4.8-20.1
		c11-5.7,66.4-33.4,66.4-33.4s8.6-4.3,9.1,6.2c0,0-37.2,46.3-51.6,60.6H207c0,0-6.7,6.7-3.8,10l8.1,5.3c0,0,4.8,11,7.2,12.4
		s7.2,4.8,7.2,4.8s7.2,7.2,7.2,13.4c0,6.2-2.9,10.5-2.9,10.5l3.3,6.7c0,0,34.4,3.3,43,1.4c8.6-1.9,11.5,6.2,11.5,6.2
		s5.7,8.6-10.5,11.9s-43,9.5-43,9.5l-0.5,7.6c0,0,7.2,1.9,5.7,7.6c-1.4,5.7-4.3,18.1-4.3,18.1l-6.7,1.9c0,0-10.5,18.1-10.5,21
		s23.9,24.4,23.9,24.4s7.2,8.1-5.7,11.9c0,0-29.6-16.7-33.9-14.8c0,0-6.2,18.6-23.4,23.4l-11-4.3l-1.9-19.1l1-11.5l14.8-12.4l1-26.7
		l10.5-22.4l-3.3-19.1c0,0-12.4-23.9-13.4-25.8c-1-1.9-2.9-28.2-3.3-29.6c-0.5-1.4-16.7-12.9-16.7-12.9l-21-11L129.6,52.5z"/>
	<path d="M111.5,60.6c-4.7-0.2-11.1,0.3-14.3,4.5c-2.7,3.4-2.2,8-1.9,9.8c2.4,17.2-2.4,33.4-5.7,35.8c0,0-19.1,7.2-14.8,34.4
		c0,0,10.5,17.7,0.5,36.8c0,0-4.3,22.4,11.9,29.1c16.1,6.7,17.1,18.7,17.1,18.7s-0.5,15.8,18.6,22c0,0,10.5-0.5,16.2,18.6
		c0,0,7.6,8.6,10.5,10.5c0,0-11.9,2.4-16.2-4.3c-4.3-6.7-8.1-12.4-8.1-12.4s-8.6-7.6-14.3-8.6c-5.7-1-12.4-13.4-12.4-13.4
		s-1.4-16.7-12.4-22S66.6,200,66.6,200s-4.8-13.8,2.9-34.9c0,0-3.3-23.4-4.3-30.1c-1-6.7,2.9-15.3,2.9-15.3s18.6-19.1,19.1-27.2
		s1.4-12.4,1.4-12.4c-0.5-2.4-1.1-6.5,0-11.5c0.6-2.9,1.5-6.7,4.3-9.1C97,56.1,104.5,56.7,111.5,60.6z"/>
	<path d="M125.3,125.6c0,0-50.6-43-48.2-46.3s59.7,22.4,59.7,22.4l11,17.2L125.3,125.6z"/>
	<path d="M147.7,118.9c0,0-47.7,1.9-43,51.6c0.5,5.1,2,17.6,11.2,26.9c19.9,20,61.8,10.2,65.2-1.6c0.8-2.7,0-6.8-1-11.5
		c-1.1-5.8-2.6-8.9-3.8-12.4c-5.1-15,0.4-21.1-5.3-31c-1.4-2.4-3.9-5.8-8.6-9.1C157.6,127.5,152.7,123.2,147.7,118.9z"/>
	<path d="M121.5,181.9c0,0,25.3,5.7,40.6-5.7c0,0,0,13.4-18.6,14.8S121.5,181.9,121.5,181.9z"/>
	<path d="M130.5,52.5c0,0-7.2-1-6.2,6.7s4.8,31.5,19.1,36.3s23.9,11.5,23.9,11.5s4.8,8.1,2.9,16.2s8.6,24.8,8.6,24.8
		s14.8,22.9,9.5,33.4s-7.6,16.7-7.6,16.7s-4.8,11.5-2.4,20.1c2.4,8.6-0.5,12.9-0.5,12.9s-22.4,14.3-16.7,31s9.5,18.1,9.5,18.1
		s8.1,0.5,9.1-1.9c0,0-9.1-5.3-8.6-16.2c0.5-10.9-2.4-15.3,8.1-22s9.5-16.2,9.5-16.2s-4.3-12.9,2.9-28.2s6.7-20.5,6.7-20.5
		s-3.3-21.5-10-30.1s-9.5-22.4-9.5-22.4s2.4-18.1-8.6-23.9c-11-5.7-22-7.6-25.3-12.4S132.4,79.2,130.5,52.5z"/>
</g>
<g>
	<path class="st1" d="M57.9,132.1c0,0-3.8,3.8-2.9,7.2s0,6.2,0,6.2l10.5,13.8C65.5,159.3,65,133.5,57.9,132.1z"/>
	<path class="st1" d="M61.2,168.9c0,0-14.3,7.6-21,10s-4.8,8.6-4.8,8.6s-1.4,4.3,9.5,6.2s15.3-1.9,18.6,2.9
		C67,201.3,61.2,168.9,61.2,168.9z"/>
	<path class="st1" d="M77.5,213.3c0,0-2.9,7.2-4.3,7.6c-1.4,0.5,6.2,12.4,6.2,12.4s3.8,5.3,18.1,5.3C97.5,238.6,88,209.9,77.5,213.3
		z"/>
	<path class="st1" d="M96.1,244.3l-12.9,19.1c0,0,2.9,11,10,7.6c0,0,15.8-16.7,21.5-16.7C114.7,254.3,101.8,239.5,96.1,244.3z"/>
	<path class="st1" d="M68.9,107.3l-2.9-3.8c0,0-11.9,4.3-18.1,0S6.8,66.7,6.8,66.7s-8.6-7.6,0-10.5s68.3,19.6,68.3,19.6
		s-1.4,11,2.4,11.9c3.8,1,6.7,3.8,6.7,3.8L68.9,107.3z"/>
	<polygon class="st2" points="125.2,87.7 134.8,87.7 167.2,97.2 172.5,135 188.2,163.6 182.5,197 176.3,228.1 159.1,242.9 
		143.8,223.8 169.6,183.7 149.1,123.5 	"/>
	<path class="st1" d="M219.3,112l10-6.2c0,0,12.4,13.8,11.9,18.1s-3.3,7.2-3.3,7.2l6.2,18.1l6.2,16.2l-2.4,19.6c0,0-3.8,3.8-6.2,4.8
		s-7.2,15.3-7.2,15.3l1.9,7.2c0,0-8.6,14.8-12.9,14.3c-4.3-0.5-11-5.7-11-5.7L219.3,112z"/>
	<path class="st3" d="M118.6,64.8c0,0-19.1-17.7-25.8-10s-3.3,23.4-3.3,23.4s-3.3,26.3-7.2,27.2c-3.8,1-12.9,8.1-12.9,8.1
		s-9.5,12.4-1.9,26.3s3.3,24.8,3.3,24.8s-7.2,20.1-2.9,29.6s6.2,9.1,6.2,9.1s15.8,3.8,18.6,12.9c2.9,9.1,6.7,20.1,6.7,20.1
		s10.5,11,20.5,13.4s4.3,14.3,12.9,18.6c8.6,4.3,9.5,7.2,9.5,7.2s4.8-11.5,11.5-11l0.5-21L143,223.8l-50.6-49.2l22.4-77.4l42-4.8
		L118.6,64.8z"/>
	<path class="st4" d="M103.7,104.3c0,0-1,1.4-1.4,6.7c-0.5,5.3-6.2,19.1-11,21.5s-9.1,18.1-9.1,18.1s-4.3,19.6,5.7,25.3
		s8.6,22,8.6,22s-1,20.5,14.3,24.8s9.5,4.3,13.4,11c0,0,7.2,14.8,21,7.6l3.8-2.9l6.2,5.7l3.3-3.8c0,0-10-6.2,2.9-21.5
		s23.9-13.4,23.9-13.4c0.2-7.1,0.3-14.3,0.5-21.4c-3.6-6.9-5.8-13.1-7.2-17.7c-2.2-7.3-4.1-13.7-3.3-22c0.3-4,1.2-7.3,1.9-9.5
		c-1.1-4.1-3.5-9.8-8.6-13.4c-3.6-2.5-4.9-1.5-10-3.8c-11.3-5.1-18.6-16.3-18.6-16.3l0,0c-4.2-9.5-14.2-14.3-22.9-11.9
		C110.5,91.3,105.3,97.1,103.7,104.3z"/>
	<path class="st5" d="M123.3,47.1c0,0,23.4,5.7,27.7,12.9s16.7,17.2,23.9,16.7c0,0,14.3-4.3,14.3-10.5c0,0-6.2-14.3,4.8-20.1
		c11-5.7,66.4-33.4,66.4-33.4s8.6-4.3,9.1,6.2c0,0-37.2,46.3-51.6,60.6h-17.2c0,0-6.7,6.7-3.8,10l8.1,5.3c0,0,4.8,11,7.2,12.4
		s7.2,4.8,7.2,4.8s7.2,7.2,7.2,13.4c0,6.2-2.9,10.5-2.9,10.5l3.3,6.7c0,0,34.4,3.3,43,1.4c8.6-1.9,11.5,6.2,11.5,6.2
		s5.7,8.6-10.5,11.9s-43,9.5-43,9.5l-0.5,7.6c0,0,7.2,1.9,5.7,7.6c-1.4,5.7-4.3,18.1-4.3,18.1l-6.7,1.9c0,0-10.5,18.1-10.5,21
		s23.9,24.4,23.9,24.4s7.2,8.1-5.7,11.9c0,0-29.6-16.7-33.9-14.8c0,0-6.2,18.6-23.4,23.4l-11-4.3l-1.9-19.1l1-11.5l14.8-12.4l1-26.7
		l10.5-22.4l-3.3-19.1c0,0-12.4-23.9-13.4-25.8c-1-1.9-2.9-28.2-3.3-29.6c-0.5-1.4-16.7-12.9-16.7-12.9l-21-11L123.3,47.1z"/>
	<path class="st6" d="M105.2,55.2c-4.7-0.2-11.1,0.3-14.3,4.5c-2.7,3.4-2.2,8-1.9,9.8c2.4,17.2-2.4,33.4-5.7,35.8
		c0,0-19.1,7.2-14.8,34.4c0,0,10.5,17.7,0.5,36.8c0,0-4.3,22.4,11.9,29.1C97,212.3,98,224.3,98,224.3s-0.5,15.8,18.6,22
		c0,0,10.5-0.5,16.2,18.6c0,0,7.6,8.6,10.5,10.5c0,0-11.9,2.4-16.2-4.3c-4.3-6.7-8.1-12.4-8.1-12.4s-8.6-7.6-14.3-8.6
		c-5.7-1-12.4-13.4-12.4-13.4s-1.4-16.7-12.4-22s-19.6-20.1-19.6-20.1s-4.8-13.8,2.9-34.9c0,0-3.3-23.4-4.3-30.1
		c-1-6.7,2.9-15.3,2.9-15.3s18.6-19.1,19.1-27.2s1.4-12.4,1.4-12.4c-0.5-2.4-1.1-6.5,0-11.5c0.6-2.9,1.5-6.7,4.3-9.1
		C90.7,50.7,98.2,51.3,105.2,55.2z"/>
	<path class="st7" d="M119,120.2c0,0-50.6-43-48.2-46.3s59.7,22.4,59.7,22.4l11,17.2L119,120.2z"/>
	<path class="st8" d="M141.4,113.5c0,0-47.7,1.9-43,51.6c0.5,5.1,2,17.6,11.2,26.9c19.9,20,61.8,10.2,65.2-1.6c0.8-2.7,0-6.8-1-11.5
		c-1.1-5.8-2.6-8.9-3.8-12.4c-5.1-15,0.4-21.1-5.3-31c-1.4-2.4-3.9-5.8-8.6-9.1C151.3,122.1,146.4,117.8,141.4,113.5z"/>
	<path class="st9" d="M115.2,176.5c0,0,25.3,5.7,40.6-5.7c0,0,0,13.4-18.6,14.8S115.2,176.5,115.2,176.5z"/>
	<path class="st6" d="M124.2,47.1c0,0-7.2-1-6.2,6.7s4.8,31.5,19.1,36.3s23.9,11.5,23.9,11.5s4.8,8.1,2.9,16.2s8.6,24.8,8.6,24.8
		s14.8,22.9,9.5,33.4s-7.6,16.7-7.6,16.7s-4.8,11.5-2.4,20.1c2.4,8.6-0.5,12.9-0.5,12.9s-22.4,14.3-16.7,31s9.5,18.1,9.5,18.1
		s8.1,0.5,9.1-1.9c0,0-9.1-5.3-8.6-16.2s-2.4-15.3,8.1-22s9.5-16.2,9.5-16.2s-4.3-12.9,2.9-28.2s6.7-20.5,6.7-20.5
		s-3.3-21.5-10-30.1s-9.5-22.4-9.5-22.4s2.4-18.1-8.6-23.9c-11-5.7-22-7.6-25.3-12.4S126.1,73.8,124.2,47.1z"/>
</g>
</svg>
