<?xml version="1.0" encoding="utf-8"?>
<!-- Generator: Adobe Illustrator 23.0.6, SVG Export Plug-In . SVG Version: 6.00 Build 0)  -->
<svg version="1.1" id="Layer_1" xmlns="http://www.w3.org/2000/svg" xmlns:xlink="http://www.w3.org/1999/xlink" x="0px" y="0px"
	 viewBox="0 0 288 288" style="enable-background:new 0 0 288 288;" xml:space="preserve">
<style type="text/css">
	.st0{opacity:0.5;}
	.st1{fill:#8D7F73;}
	.st2{fill:#AB9376;}
	.st3{fill:#B7BABE;}
	.st4{fill:#E9EAE9;}
	.st5{fill:#1E1C1C;}
	.st6{fill:#EBE1CC;}
</style>
<g class="st0">
	<path d="M93.3,221.9c0,0-7.3,5.6-11.2,3.9c-3.9-1.7-10.1-8.4-10.1-8.4s-18.6-10.7-19.7-0.6c-1.1,10.1,11.2,27,11.2,27
		s16.9,19.7,23.6,18.6S93.3,221.9,93.3,221.9z"/>
	<path d="M198,137c0,0,7.9,14.1,17.4,18c9.6,3.9,39.4,32.6,39.4,32.6s11.8,5.1,9,12.9s-14.1,15.2-14.1,15.2l-11.2-1.7
		c0,0-2.2-1.7-1.7-6.2S216,190.9,216,190.9l-21.4-32.6c-10.1-6.9-20.2-13.9-30.4-20.8C175.5,137.4,186.7,137.2,198,137z"/>
	<path d="M219.3,199.4c0,0,34.9,11.2,13.5,60.2l3.4,3.4l-12.9,8.4c0,0-29.8-1.1-42.2-11.2C168.7,250,219.3,199.4,219.3,199.4z"/>
	<path d="M100.7,170.7l-33.2,37.1c0,0,3.9,10.7,7.3,14.1s14.1-2.8,14.1-2.8l3.9,2.8c0,0-18,40.5,2.2,60.2l21.9,1.7
		c0,0,5.1-12.4,10.1-12.4c5.1,0,16.9-14.6,16.9-14.6s15.7-25.9-11.8-48.4c0,0,3.4-38.8,34.3-45s45.6,11.2,45.6,11.2
		s-13.5-27.6-29.2-33.7S100.7,170.7,100.7,170.7z"/>
	<path d="M233.4,262.4c0,0,12.4,3.9,10.7,9.6c-1.7,5.6-24.2,0-24.2,0S225.5,260.7,233.4,262.4z"/>
	<path d="M131.6,28.4c-19.1-3.6-28.6-9.3-33.8-14c-1.4-1.3-5.2-4.8-8.8-4.1c-5.1,1-7,9.2-7,9.2s20.8,28.7,19.1,32.6
		c0,0.1-0.1,0.3-0.1,0.3C101.8,53.2,116,41.6,131.6,28.4z"/>
	<polygon points="99,71.2 92.2,104.9 118.7,84.1 	"/>
	<path d="M101.2,52l-5.6,9.6c0,0,5.6,16.9,5.1,20.8S94,95.9,94,95.9l-20.3,23.6c0,0-1.7,3.4,4.5,20.8c0,0,0,6.7-1.7,10.1
		c-1.7,3.4,7.9,12.9,7.9,12.9s19.7,13.5,32.1,10.7c0,0,7.3-13.5,16.3-14.6s16.3-4.5,16.3-4.5s6.2,3.4,5.1,7.9
		c-1.1,4.5,6.2,1.1,6.2,1.1s9.6-10.1,7.9-20.8c0,0,10.1-7.3,13.5-4.5s12.4,4.5,12.4,4.5s11.2-6.7,12.9-12.4l15.7,3.4l13.5-30.9
		c0,0,2.8,1.1,5.1-2.8c2.2-3.9,7.3-13.5,7.3-13.5s-1.7-9-10.7-10.1s-21.9-21.9-21.9-21.9l20.2-33.2c0,0-3.4-18-20.2-3.4L196.8,29
		c0,0-24.2-23.1-74.8,0L101.2,52z"/>
	<path d="M185.6,59.9c0,0-11.2-7.3-14.1-4.5c-1.4,1.4-4.8,4.2-8.3,9.1c-3.3,4.7-6.1,10.6-8.1,19.6c-1.8,8.6-4.4,20.6,2.2,27.6
		c1.1,1.2,2.5,2.2,5.1,3.4c11.2,5.2,23.8,4,32.1,2.2l9-24.7L185.6,59.9z"/>
	<path d="M121.5,126.9c0,0-12.9,19.7-9.6,27.6l21.4-6.7l-1.1-13.5L121.5,126.9z"/>
	<path d="M121.5,126.9c0,0,7.3,6.7,9,12.4c1.7,5.6-2.8,9-2.8,9l-15.7,6.2c0,0,10.1-1.7,12.4-1.7s12.9-4.5,12.9-4.5
		s4.5-10.7-5.6-19.7C121.6,119.6,121.5,126.9,121.5,126.9z"/>
	<path d="M153.5,102.1c0,0,9-47.2,20.2-43.9c11.2,3.4,14.1,8.4,14.1,8.4s8.4,27,10.1,29.2C199.6,98,190,116,190,116
		s-22.5,1.7-30.9-2.2c0,0,28.7,11.2,37.1,6.2c8.4-5.1,12.9-27,12.9-27s-10-36.5-19-41.5S171,49.8,171,49.8S150.7,63.9,153.5,102.1z"
		/>
	<path d="M243.5,211.2c0,0,2.8,6.8,4.5,6.2s2.2-6.7,2.2-6.7S244.1,212.4,243.5,211.2z"/>
	<path d="M212,174.7c0,0,36.6,51.2-27.6,86.1c0,0-33.7,16.3-55.1,5.6c-21.4-10.7,9-82.1,9-82.1S164.2,138.1,212,174.7z"/>
	<path d="M79.8,208.4c0,0-24.2,45-27,45.6S32,265.8,32,265.8s-0.6,21.4,9,20.2s15.8-4.5,15.8-4.5l9.6,8.4l4.5-1.7c0,0,6.2-9,3.9-18
		c-2.2-9-1.1-17.4-1.1-17.4L90,216.1C90,216.3,90.5,208.4,79.8,208.4z"/>
	<path d="M95.6,282.7c0,0,8.4-14.6,21.4,1.1C117,283.8,106.8,293.4,95.6,282.7z"/>
</g>
<g>
	<path class="st1" d="M87.5,217.4c0,0-7.3,5.6-11.2,3.9c-3.9-1.7-10.1-8.4-10.1-8.4s-18.6-10.7-19.7-0.6c-1.1,10.1,11.2,27,11.2,27
		s16.9,19.7,23.6,18.6S87.5,217.4,87.5,217.4z"/>
	<path class="st1" d="M192.2,132.5c0,0,7.9,14.1,17.4,18c9.6,3.9,39.4,32.6,39.4,32.6s11.8,5.1,9,12.9s-14.1,15.2-14.1,15.2
		l-11.2-1.7c0,0-2.2-1.7-1.7-6.2s-20.8-16.9-20.8-16.9l-21.4-32.6c-10.1-6.9-20.2-13.9-30.4-20.8
		C169.7,132.9,180.9,132.7,192.2,132.5z"/>
	<path class="st1" d="M213.5,194.9c0,0,34.9,11.2,13.5,60.2l3.4,3.4l-12.9,8.4c0,0-29.8-1.1-42.2-11.2
		C162.9,245.5,213.5,194.9,213.5,194.9z"/>
	<path class="st2" d="M94.9,166.2l-33.2,37.1c0,0,3.9,10.7,7.3,14.1s14.1-2.8,14.1-2.8l3.9,2.8c0,0-18,40.5,2.2,60.2l21.9,1.7
		c0,0,5.1-12.4,10.1-12.4c5.1,0,16.9-14.6,16.9-14.6s15.7-25.9-11.8-48.4c0,0,3.4-38.8,34.3-45s45.6,11.2,45.6,11.2
		s-13.5-27.6-29.2-33.7S94.9,166.2,94.9,166.2z"/>
	<path class="st3" d="M227.6,257.9c0,0,12.4,3.9,10.7,9.6c-1.7,5.6-24.2,0-24.2,0S219.7,256.2,227.6,257.9z"/>
	<path class="st3" d="M125.8,23.9c-19.1-3.6-28.6-9.3-33.8-14c-1.4-1.3-5.2-4.8-8.8-4.1c-5.1,1-7,9.2-7,9.2S97,43.7,95.3,47.6
		c0,0.1-0.1,0.3-0.1,0.3C96,48.7,110.2,37.1,125.8,23.9z"/>
	<polygon class="st3" points="93.2,66.7 86.4,100.4 112.9,79.6 	"/>
	<path class="st4" d="M95.4,47.5l-5.6,9.6c0,0,5.6,16.9,5.1,20.8s-6.7,13.5-6.7,13.5L67.9,115c0,0-1.7,3.4,4.5,20.8
		c0,0,0,6.7-1.7,10.1c-1.7,3.4,7.9,12.9,7.9,12.9s19.7,13.5,32.1,10.7c0,0,7.3-13.5,16.3-14.6s16.3-4.5,16.3-4.5s6.2,3.4,5.1,7.9
		c-1.1,4.5,6.2,1.1,6.2,1.1s9.6-10.1,7.9-20.8c0,0,10.1-7.3,13.5-4.5s12.4,4.5,12.4,4.5s11.2-6.7,12.9-12.4l15.7,3.4l13.5-30.9
		c0,0,2.8,1.1,5.1-2.8c2.2-3.9,7.3-13.5,7.3-13.5s-1.7-9-10.7-10.1s-21.9-21.9-21.9-21.9l20.2-33.2c0,0-3.4-18-20.2-3.4L191,24.5
		c0,0-24.2-23.1-74.8,0L95.4,47.5z"/>
	<path class="st2" d="M179.8,55.4c0,0-11.2-7.3-14.1-4.5c-1.4,1.4-4.8,4.2-8.3,9.1c-3.3,4.7-6.1,10.6-8.1,19.6
		c-1.8,8.6-4.4,20.6,2.2,27.6c1.1,1.2,2.5,2.2,5.1,3.4c11.2,5.2,23.8,4,32.1,2.2l9-24.7L179.8,55.4z"/>
	<path class="st5" d="M115.7,122.4c0,0-12.9,19.7-9.6,27.6l21.4-6.7l-1.1-13.5L115.7,122.4z"/>
	<path class="st3" d="M115.7,122.4c0,0,7.3,6.7,9,12.4c1.7,5.6-2.8,9-2.8,9l-15.7,6.2c0,0,10.1-1.7,12.4-1.7s12.9-4.5,12.9-4.5
		s4.5-10.7-5.6-19.7S115.7,122.4,115.7,122.4z"/>
	<path class="st3" d="M147.7,97.6c0,0,9-47.2,20.2-43.9c11.2,3.4,14.1,8.4,14.1,8.4s8.4,27,10.1,29.2c1.7,2.2-7.9,20.2-7.9,20.2
		s-22.5,1.7-30.9-2.2c0,0,28.7,11.2,37.1,6.2c8.4-5.1,12.9-27,12.9-27s-10-36.5-19-41.5s-19.1-1.7-19.1-1.7S144.9,59.4,147.7,97.6z"
		/>
	<path class="st3" d="M237.7,206.7c0,0,2.8,6.8,4.5,6.2s2.2-6.7,2.2-6.7S238.3,207.9,237.7,206.7z"/>
	<path class="st6" d="M206.2,170.2c0,0,36.6,51.2-27.6,86.1c0,0-33.7,16.3-55.1,5.6c-21.4-10.7,9-82.1,9-82.1
		S158.4,133.6,206.2,170.2z"/>
	<path class="st4" d="M74,203.9c0,0-24.2,45-27,45.6s-20.8,11.8-20.8,11.8s-0.6,21.4,9,20.2S51,277,51,277l9.6,8.4l4.5-1.7
		c0,0,6.2-9,3.9-18c-2.2-9-1.1-17.4-1.1-17.4l16.3-36.6C84.2,211.8,84.7,203.9,74,203.9z"/>
	<path class="st4" d="M89.8,278.2c0,0,8.4-14.6,21.4,1.1C111.2,279.3,101,288.9,89.8,278.2z"/>
</g>
</svg>
