<?xml version="1.0" encoding="utf-8"?>
<!-- Generator: Adobe Illustrator 23.0.6, SVG Export Plug-In . SVG Version: 6.00 Build 0)  -->
<svg version="1.1" id="Layer_1" xmlns="http://www.w3.org/2000/svg" xmlns:xlink="http://www.w3.org/1999/xlink" x="0px" y="0px"
	 viewBox="0 0 288 288" style="enable-background:new 0 0 288 288;" xml:space="preserve">
<style type="text/css">
	.st0{opacity:0.5;}
	.st1{fill:#C5C9D8;}
	.st2{fill:#EDF1F4;}
	.st3{fill:#E6E7EB;}
</style>
<g class="st0">
	<path d="M47.1,162.2c0,0-15.2,0-20.6-7.6s-7.6-3.1-7.6-3.1s-1.8,3.6,0,6.3c1.8,2.7-0.9,7.6-0.9,7.6c-0.6,2.2-1.5,3.6-2.2,4.5
		c-1.8,2.1-3.5,2.4-4.5,4.5c-0.6,1.3-0.6,2.7-0.4,3.6c1.2,4.1,3,5.9,4.5,6.7c2.1,1.2,3.8,0.8,5.8,2.2c2,1.5,2.8,3.8,3.1,5.4
		c1,7.4,3.2,11,5.4,10.8c4.5-0.4,8.1,0,8.1,0s5.8,0.9,7.6,3.1c1.8,2.2,10.3-0.4,10.3-0.4L47.1,162.2z"/>
	<path d="M237.6,101.7c0,0-11.7-18.4-44.8,1.8c0,0-11.7,8.1-12.6,13.4c-0.9,5.4-6.3,10.3-6.3,10.3s-8.1,2.2-8.1-3.6
		c0-5.8-4.5-8.1-4.5-8.1s-6.7-4.9-12.6-7.6s0-13.4,0-13.4s0-9.9-4.9-15.2s-1.3-13-1.3-13l7.2-10.3c0,0,0.9-5.4,0.4-9.9
		s5.4-9.4,5.4-9.4s9.9-3.6,11.2-6.7s2.2-8.1,2.2-8.1s3.6-7.6,10.8,2.7s25.6,56.9,41.2,61.9C236.7,91.3,237.6,101.7,237.6,101.7z"/>
	<path d="M179.8,24.6c0,0,42.1,58.7,61.4,63.7c19.3,4.9,30.5,52,30.5,52s3.6,45.7-25.1,74s-40.8,30.9-40.8,30.9s0.9,7.2-1.3,11.2
		s-8.5,6.7-8.5,6.7s-4.5,2.2-4.9,10.3c-0.4,8.1-14.8,5.4-14.8,5.4s-20.2-10.8-25.1-17.5c0,0-32.3,4.9-68.1-22.4S49,185.1,49,185.1
		s-3.1-35.4,0.4-38.6c0,0-21.5-17-22.9-26.5l-3.6-4c0,0-7.6-9.4-1.3-15.7c6.3-6.3,12.1-6.7,12.1-6.7s8.1-22,30-26s21-0.9,21-0.9
		s12.1-14.8,13.4-11.2c1.4,3.6,1.4,16.6,1.4,16.6s17.9,9,22.4,35.4s28.2,41.7,28.2,41.7s36.8,29.6,75.3-1.3
		c6.6-5.3,15.8-13.6,16.6-26.5c0.4-7.3-1.8-17.8-8.5-23.3c-1.5-1.2-2.6-1.7-9-6.3c-3.6-2.6-6.6-4.8-8.5-6.3
		c-6.1-5-14-12.5-21.1-23.3C185.4,47.5,181.5,33.5,179.8,24.6z"/>
	<path d="M57.8,134.8c0,0-3.6,16.6,0.4,14.8s9.9-9,9.9-9L57.8,134.8z"/>
	<path d="M22.9,116c0,0-3.6,9,1.3,12.6c0,0,5.8-3.6,7.2-8.5L22.9,116z"/>
</g>
<g>
	<path class="st1" d="M41.6,157.5c0,0-15.2,0-20.6-7.6s-7.6-3.1-7.6-3.1s-1.8,3.6,0,6.3s-0.9,7.6-0.9,7.6c-0.6,2.2-1.5,3.6-2.2,4.5
		c-1.8,2.1-3.5,2.4-4.5,4.5c-0.6,1.3-0.6,2.7-0.4,3.6c1.2,4.1,3,5.9,4.5,6.7c2.1,1.2,3.8,0.8,5.8,2.2c2,1.5,2.8,3.8,3.1,5.4
		c1,7.4,3.2,11,5.4,10.8c4.5-0.4,8.1,0,8.1,0s5.8,0.9,7.6,3.1c1.8,2.2,10.3-0.4,10.3-0.4L41.6,157.5z"/>
	<path class="st1" d="M232.1,97c0,0-11.7-18.4-44.8,1.8c0,0-11.7,8.1-12.6,13.4c-0.9,5.4-6.3,10.3-6.3,10.3s-8.1,2.2-8.1-3.6
		c0-5.8-4.5-8.1-4.5-8.1s-6.7-4.9-12.6-7.6s0-13.4,0-13.4s0-9.9-4.9-15.2s-1.3-13-1.3-13l7.2-10.3c0,0,0.9-5.4,0.4-9.9
		S150,32,150,32s9.9-3.6,11.2-6.7s2.2-8.1,2.2-8.1s3.6-7.6,10.8,2.7s25.6,56.9,41.2,61.9C231.2,86.6,232.1,97,232.1,97z"/>
	<path class="st2" d="M174.3,19.9c0,0,42.1,58.7,61.4,63.7c19.3,4.9,30.5,52,30.5,52s3.6,45.7-25.1,74s-40.8,30.9-40.8,30.9
		s0.9,7.2-1.3,11.2s-8.5,6.7-8.5,6.7s-4.5,2.2-4.9,10.3c-0.4,8.1-14.8,5.4-14.8,5.4s-20.2-10.8-25.1-17.5c0,0-32.3,4.9-68.1-22.4
		s-34.1-53.8-34.1-53.8s-3.1-35.4,0.4-38.6c0,0-21.5-17-22.9-26.5l-3.6-4c0,0-7.6-9.4-1.3-15.7c6.3-6.3,12.1-6.7,12.1-6.7
		s8.1-22,30-26s21-0.9,21-0.9s12.1-14.8,13.4-11.2C94,54.4,94,67.4,94,67.4s17.9,9,22.4,35.4s28.2,41.7,28.2,41.7
		s36.8,29.6,75.3-1.3c6.6-5.3,15.8-13.6,16.6-26.5c0.4-7.3-1.8-17.8-8.5-23.3c-1.5-1.2-2.6-1.7-9-6.3c-3.6-2.6-6.6-4.8-8.5-6.3
		c-6.1-5-14-12.5-21.1-23.3C179.9,42.8,176,28.8,174.3,19.9z"/>
	<path class="st3" d="M52.3,130.1c0,0-3.6,16.6,0.4,14.8s9.9-9,9.9-9L52.3,130.1z"/>
	<path class="st3" d="M17.4,111.3c0,0-3.6,9,1.3,12.6c0,0,5.8-3.6,7.2-8.5L17.4,111.3z"/>
</g>
</svg>
