<?xml version="1.0" encoding="utf-8"?>
<!-- Generator: Adobe Illustrator 23.0.6, SVG Export Plug-In . SVG Version: 6.00 Build 0)  -->
<svg version="1.1" id="Layer_1" xmlns="http://www.w3.org/2000/svg" xmlns:xlink="http://www.w3.org/1999/xlink" x="0px" y="0px"
	 viewBox="0 0 288 288" style="enable-background:new 0 0 288 288;" xml:space="preserve">
<style type="text/css">
	.st0{opacity:0.5;}
	.st1{fill:#A38778;}
	.st2{fill:#B7B8BF;}
	.st3{fill:#86878B;}
	.st4{fill:#A3A7AF;}
	.st5{fill:#DEBAD3;}
</style>
<g class="st0">
	<path d="M67.9,220.3c0,0-10.8-122.8,12.1-147.7c0,0,26.6-49.9,86.1-37.5s68.2,65.7,68.2,65.7l2.9,119.4l-26.6,37l-75.3,8.7
		l-57.8-22.1L67.9,220.3z"/>
	<path d="M62.5,202c0,0-17.9-13.7-28.7,6.2s-1.2,21.2-1.2,21.2L62.5,202z"/>
	<path d="M67.9,202c-7-0.9-12,0.7-14.6,1.7c-1.4,0.6-3.3,1.5-5.5,3c-2,1.3-4.2,3.9-6.6,9.9c0,0-6.2,6.7-10.4,6.7
		c0,0-2.9-1.7-3.3,2.1s-2.9,7.9-6.7,9.2s-1.2,9.2-1.2,9.2s-5.8,10.8,6.2,8.3c0,0,7.9-2.5,17.9,2.5c0,0,5.4,4.6,3.3,7.5
		c0,0,18.3,9.2,24.1,5s7.5-8.7,12.5-5.8s12.1,0.8,12.1,0.8s9.2,4.6,10,9.2c0,0,10.4,4.2,13.3,3.3c0,0,13.3,7.9,23.3-2.9
		c0,0,2.9-2.1,17.5,2.1c0,0-3.7,3.7,12.9,1.2c0,0,12.9,4.2,17.5-2.1c0,0,13.3,1.2,13.7-0.8c0,0,7.9,3.3,10,1.2
		c0,0,17.5,7.1,20.4,1.2c0,0,7.5-2.9,5.8-10.4l21.6,1.2c0,0,7.5-1.7,6.2-10.4c-1.2-8.7,9.2-5.8,9.2-5.8s7.1-5,2.1-10
		c0,0-6.2-8.7-5.4-14.1c0,0,0.4-11.7-10.8-15c-11.2-3.3-12.5-0.8-12.5-0.8s-4.2-7.5-6.7-7.9s-7.5-2.9-7.5-2.9l0.8,22.1
		c0,0-16.2,0-17.9,10.8c0,0-1.7,2.9-6.7,3.7c0,0-17.1-13.7-43.7-2.1c0,0-7.5-0.4-10.8,8.3c0,0-15.4-12.9-31.6-11.7s-14.6,10-14.6,10
		s-6.7-15.8-18.7-5.4l-4.2-2.5c0,0,2.5-12.5-13.3-15.4l-7.9,4.2C67.9,214.2,67.9,208.1,67.9,202z"/>
	<path d="M102.9,231.1c0,0-16.6,5.4-7.5,14.6s15.4-2.9,15.4-2.9L102.9,231.1z"/>
	<path d="M75.8,216.2l-7.9,4.2c0,0-25.8,21.2-11.2,25.4s23.3-7.9,23.3-7.9s8.3-12.9,2.5-18.3C76.7,214.1,75.8,216.2,75.8,216.2z"/>
	<path d="M110.8,242.8c0,0-1.2-15.8-11.7-10.4C99.1,232.4,94.2,239.1,110.8,242.8z"/>
	<path d="M146.6,257.8c0,0,5.4-9.6,2.5-18.3s-22.5-10-22.5-10s-15.8-2.9-10,14.1s21.2,17.9,21.2,17.9L146.6,257.8z"/>
	<path d="M220.2,244.5c0,0-10.4-17.5-29.5-16.6c-19.1,0.8-21.6,5-21.6,5s-10.4,12.5,24.1,18.3c0,0,3.3-0.8,4.2-3.7
		c0,0,4.2-2.9,8.3-1.2S221.1,251.1,220.2,244.5z"/>
	<path d="M51.7,241.1c0,0-3.3,10.4,1.7,11.2s10.4-5,10.8-7.1C64.6,243.2,51.7,241.1,51.7,241.1z"/>
	<path d="M237.3,220.3c0,0-12.5,1.2-8.3,5.4s23.7,10,22.9,5.4S242.3,220.3,237.3,220.3z"/>
	<path d="M251,243.6c0,0-9.2-13.3-17.5-9.2C225.2,238.6,250.6,247.4,251,243.6z"/>
	<path d="M40.9,238.2c0,0-12.9,10-5.8,12.9S44.6,241.6,40.9,238.2z"/>
	<path d="M140.8,245.7c0,0-12.1-10-5.8,10.4c0,0,14.6,12.9,11.7,1.7C143.7,246.5,140.8,245.7,140.8,245.7z"/>
	<path d="M179.9,267.8c0,0-13.7-8.3-22.9,1.2c0,0,7.1,8.3,18.7,3.3C175.7,272.3,181.5,271.5,179.9,267.8z"/>
	<path d="M205.7,246.1c0,0-8.7-2.9-10.8,4.6c0,0,21.2,7.5,18.7,1.2C211.1,245.7,205.7,246.1,205.7,246.1z"/>
	<path d="M268.1,254.9c0,0-20-15.4-25-7.5s23.7,14.6,23.7,14.6S269.3,255.7,268.1,254.9z"/>
	<path d="M224.8,275.3c0,0-5.4-9.6-8.3-7.9s-2.5,5.8-2.5,5.8L224.8,275.3z"/>
	<path d="M93.3,123.4c0,0,2.1-16.6,31.2-17.5c29.1-0.8,34.1,17.5,34.1,17.5s1.2,17.9-26.6,17.9c-8.1,0.7-14.6-0.2-18.9-1.1
		c-7.3-1.6-13.7-2.9-17.3-8.4C93.8,128.7,93.4,125.5,93.3,123.4z"/>
</g>
<g>
	<path class="st1" d="M62.9,215.1c0,0-10.8-122.8,12.1-147.7c0,0,26.6-49.9,86.1-37.5s68.2,65.7,68.2,65.7l2.9,119.4l-26.6,37
		l-75.3,8.7l-57.8-22.1L62.9,215.1z"/>
	<path class="st2" d="M57.5,196.8c0,0-17.9-13.7-28.7,6.2s-1.2,21.2-1.2,21.2L57.5,196.8z"/>
	<path class="st3" d="M62.9,196.8c-7-0.9-12,0.7-14.6,1.7c-1.4,0.6-3.3,1.5-5.5,3c-2,1.3-4.2,3.9-6.6,9.9c0,0-6.2,6.7-10.4,6.7
		c0,0-2.9-1.7-3.3,2.1s-2.9,7.9-6.7,9.2s-1.2,9.2-1.2,9.2s-5.8,10.8,6.2,8.3c0,0,7.9-2.5,17.9,2.5c0,0,5.4,4.6,3.3,7.5
		c0,0,18.3,9.2,24.1,5s7.5-8.7,12.5-5.8c5,2.9,12.1,0.8,12.1,0.8s9.2,4.6,10,9.2c0,0,10.4,4.2,13.3,3.3c0,0,13.3,7.9,23.3-2.9
		c0,0,2.9-2.1,17.5,2.1c0,0-3.7,3.7,12.9,1.2c0,0,12.9,4.2,17.5-2.1c0,0,13.3,1.2,13.7-0.8c0,0,7.9,3.3,10,1.2
		c0,0,17.5,7.1,20.4,1.2c0,0,7.5-2.9,5.8-10.4l21.6,1.2c0,0,7.5-1.7,6.2-10.4c-1.2-8.7,9.2-5.8,9.2-5.8s7.1-5,2.1-10
		c0,0-6.2-8.7-5.4-14.1c0,0,0.4-11.7-10.8-15c-11.2-3.3-12.5-0.8-12.5-0.8s-4.2-7.5-6.7-7.9s-7.5-2.9-7.5-2.9l0.8,22.1
		c0,0-16.2,0-17.9,10.8c0,0-1.7,2.9-6.7,3.7c0,0-17.1-13.7-43.7-2.1c0,0-7.5-0.4-10.8,8.3c0,0-15.4-12.9-31.6-11.7s-14.6,10-14.6,10
		s-6.7-15.8-18.7-5.4l-4.2-2.5c0,0,2.5-12.5-13.3-15.4l-7.9,4.2C62.9,209,62.9,202.9,62.9,196.8z"/>
	<path class="st4" d="M97.9,225.9c0,0-16.6,5.4-7.5,14.6s15.4-2.9,15.4-2.9L97.9,225.9z"/>
	<path class="st2" d="M70.8,211l-7.9,4.2c0,0-25.8,21.2-11.2,25.4s23.3-7.9,23.3-7.9s8.3-12.9,2.5-18.3
		C71.7,208.9,70.8,211,70.8,211z"/>
	<path class="st2" d="M105.8,237.6c0,0-1.2-15.8-11.7-10.4C94.1,227.2,89.2,233.9,105.8,237.6z"/>
	<path class="st2" d="M141.6,252.6c0,0,5.4-9.6,2.5-18.3s-22.5-10-22.5-10s-15.8-2.9-10,14.1s21.2,17.9,21.2,17.9L141.6,252.6z"/>
	<path class="st2" d="M215.2,239.3c0,0-10.4-17.5-29.5-16.6c-19.1,0.8-21.6,5-21.6,5s-10.4,12.5,24.1,18.3c0,0,3.3-0.8,4.2-3.7
		c0,0,4.2-2.9,8.3-1.2S216.1,245.9,215.2,239.3z"/>
	<path class="st4" d="M46.7,235.9c0,0-3.3,10.4,1.7,11.2s10.4-5,10.8-7.1C59.6,238,46.7,235.9,46.7,235.9z"/>
	<path class="st2" d="M232.3,215.1c0,0-12.5,1.2-8.3,5.4s23.7,10,22.9,5.4S237.3,215.1,232.3,215.1z"/>
	<path class="st2" d="M246,238.4c0,0-9.2-13.3-17.5-9.2C220.2,233.4,245.6,242.2,246,238.4z"/>
	<path class="st4" d="M35.9,233c0,0-12.9,10-5.8,12.9S39.6,236.4,35.9,233z"/>
	<path class="st4" d="M135.8,240.5c0,0-12.1-10-5.8,10.4c0,0,14.6,12.9,11.7,1.7C138.7,241.3,135.8,240.5,135.8,240.5z"/>
	<path class="st4" d="M174.9,262.6c0,0-13.7-8.3-22.9,1.2c0,0,7.1,8.3,18.7,3.3C170.7,267.1,176.5,266.3,174.9,262.6z"/>
	<path class="st4" d="M200.7,240.9c0,0-8.7-2.9-10.8,4.6c0,0,21.2,7.5,18.7,1.2C206.1,240.5,200.7,240.9,200.7,240.9z"/>
	<path class="st4" d="M263.1,249.7c0,0-20-15.4-25-7.5s23.7,14.6,23.7,14.6S264.3,250.5,263.1,249.7z"/>
	<path class="st4" d="M219.8,270.1c0,0-5.4-9.6-8.3-7.9S209,268,209,268L219.8,270.1z"/>
	<path class="st5" d="M88.3,118.2c0,0,2.1-16.6,31.2-17.5c29.1-0.8,34.1,17.5,34.1,17.5s1.2,17.9-26.6,17.9
		c-8.1,0.7-14.6-0.2-18.9-1.1c-7.3-1.6-13.7-2.9-17.3-8.4C88.8,123.5,88.4,120.3,88.3,118.2z"/>
</g>
</svg>
