<?xml version="1.0" encoding="utf-8"?>
<!-- Generator: Adobe Illustrator 23.0.6, SVG Export Plug-In . SVG Version: 6.00 Build 0)  -->
<svg version="1.1" id="Layer_1" xmlns="http://www.w3.org/2000/svg" xmlns:xlink="http://www.w3.org/1999/xlink" x="0px" y="0px"
	 viewBox="0 0 288 288" style="enable-background:new 0 0 288 288;" xml:space="preserve">
<style type="text/css">
	.st0{opacity:0.5;}
	.st1{fill:#C4B7D5;}
	.st2{fill:#A68E8D;}
</style>
<g class="st0">
	<path d="M52.8,91.8c0,0-10.7-26.7,6.3-33s36.4-1.9,36.4-1.9s17-1.9,24.3-10.7s15.5-9.2,15.5-9.2s8.7-0.5,15.5,3.4
		s18.5,4.9,18.5,4.9s19.9-5.8,29.6,1.5c9.7,7.3,14.6,19.4,14.6,19.4s2.4,23.3,24.8,33s28.2,18.9,28.2,18.9s3.9,15.1-8.7,23.3
		c-12.6,8.3-7.8,27.2-7.8,27.2s3.4,18,17,28.2c13.6,10.2,15.5,24.8,15.5,24.8s2.4,17.5-6.8,23.8s-23.3,6.3-23.3,6.3
		s-34-8.3-55.4,1.9s-50,10.7-50,10.7s-35.4-4.9-51.5-16s-46.6-7.8-46.6-7.8s-36.4-4.9-36.4-26.2s18-36.9,18-36.9s33-39.3,29.1-61.2
		S52.8,91.8,52.8,91.8z"/>
	<path d="M126.6,75.8c0,0,20.9,15.1,47.6,9.7c0,0,9.2,0.5,2.9,5.3c0,0-36.4,5.3-53.4-11.2C123.7,79.7,120.3,73.9,126.6,75.8z"/>
</g>
<g>
	<path class="st1" d="M47.5,86.5c0,0-10.7-26.7,6.3-33s36.4-1.9,36.4-1.9s17-1.9,24.3-10.7s15.5-9.2,15.5-9.2s8.7-0.5,15.5,3.4
		S164,40,164,40s19.9-5.8,29.6,1.5c9.7,7.3,14.6,19.4,14.6,19.4s2.4,23.3,24.8,33s28.2,18.9,28.2,18.9s3.9,15.1-8.7,23.3
		c-12.6,8.3-7.8,27.2-7.8,27.2s3.4,18,17,28.2s15.5,24.8,15.5,24.8s2.4,17.5-6.8,23.8s-23.3,6.3-23.3,6.3s-34-8.3-55.4,1.9
		s-50,10.7-50,10.7s-35.4-4.9-51.5-16s-46.6-7.8-46.6-7.8S7.2,230.3,7.2,209s18-36.9,18-36.9s33-39.3,29.1-61.2S47.5,86.5,47.5,86.5
		z"/>
	<path class="st2" d="M121.3,70.5c0,0,20.9,15.1,47.6,9.7c0,0,9.2,0.5,2.9,5.3c0,0-36.4,5.3-53.4-11.2
		C118.4,74.4,115,68.6,121.3,70.5z"/>
</g>
</svg>
