<?xml version="1.0" encoding="utf-8"?>
<!-- Generator: Adobe Illustrator 23.0.6, SVG Export Plug-In . SVG Version: 6.00 Build 0)  -->
<svg version="1.1" id="Layer_1" xmlns="http://www.w3.org/2000/svg" xmlns:xlink="http://www.w3.org/1999/xlink" x="0px" y="0px"
	 viewBox="0 0 288 288" style="enable-background:new 0 0 288 288;" xml:space="preserve">
<style type="text/css">
	.st0{opacity:0.5;}
	.st1{fill:#D2D3DD;}
	.st2{fill:#B19E92;}
	.st3{fill:#CDB9A6;}
	.st4{fill:#E7CDCC;}
	.st5{fill:#A37772;}
	.st6{fill:#DC9690;}
	.st7{fill:#717172;}
	.st8{fill:#423E3E;}
	.st9{fill:#A99592;}
	.st10{fill:#A78A7B;}
	.st11{fill:#81665E;}
	.st12{fill:#FFFFFF;}
	.st13{fill:#E6D8CD;}
	.st14{fill:#82686B;}
	.st15{fill:#775F62;}
	.st16{fill:#AF8FA7;}
	.st17{fill:#D2BCA9;}
	.st18{fill:#A57C83;}
</style>
<g class="st0">
	<path d="M174.9,259.7c0,0,2.9,1.9,2.5,3.5c-0.3,1.6-2.9,1-2.9,1L174.9,259.7z"/>
	<path d="M96.6,251.7c0,0-5.8,5.7-3.8,5.7c1,0,5.7-1.3,5.7-1.3S98.1,252.7,96.6,251.7z"/>
	<path d="M133,253.3c0,0,4.1,1.9,4.5,3.5c0.3,1.6-5.7,0.6-5.7,0.6L133,253.3z"/>
	<path d="M122.3,245.4l-5.7,2.5l-8.6-0.6l-5.1,1.9l-5.1,1l-1.3,1.6c0,0,1.6,0.3,1.9,4.5l5.7,1.3l14.6-3.5
		C118.8,254,124.3,247.6,122.3,245.4z"/>
	<path d="M143.4,204.6l1.9,7.3c0,0-22.9,30.2-21.6,33.1c0,0-8.9,8.3-11.5,8.3s-5.4-0.3-5.4-0.3s-4.8,3.5-8.3,3.2
		c-3.5-0.3-4.1,3.5-4.1,3.5l4.1,4.5l2.5-0.6c0,0,15.6-6.7,18.8-5.7c0,0-4.8,4.5-6,4.5s-2.2,4.8-2.2,4.8l3.5,3.2h1.9
		c0,0,11.1-11.5,14.3-12.1c3.2-0.6,2.5-3.5,2.5-3.5l-2.2-3.8c0,0,12.1-29.9,19.4-33.4c0,0,2.5-2.5,1.9-7.3s-1-7.3-1-7.3l-3.8-1.6
		C148.1,201.1,141.8,196.3,143.4,204.6z"/>
	<path d="M166.9,207.2c0,0,8.3,9.6,8.3,13.7s-8.3,22.3-8.3,22.3s-1.9,15.3-11.5,17.8s-9.2,4.1-9.2,4.1l-4.1,2.5l-1.9,2.2l1.9,4.1
		l6.7-1.9c0,0,8.6-7.3,8.6-4.1c0,0-3.2,6-4.1,6.4c-1,0.3-3.2,4.5-1.6,6s6.4,0.6,6.4,0.6s1.6-1.3,2.5-4.5s5.4-7.6,5.4-7.6
		s1.3-0.6,2.2,5.1c1,5.7,1,5.7,1,5.7l4.5,3.5l2.5-3.2c0,0-1-3.8-1.6-6.7s0-9.2,0-9.2s1-1.9,0.3-4.5c-0.6-2.5-1.6-2.9-1.6-2.9
		s2.9-29.9,9.9-37.2c0,0,1.3-2.2-1.6-4.5c-2.9-2.2-6-9.9-6-9.9l-3.8-9.6l-6,5.7L166.9,207.2z"/>
	<path d="M193,203c0,0,13.1,15.6,26.1,10.2s9.9-9.6,9.9-9.6s12.7,0.6,17.2-4.8c4.5-5.4,4.5-5.4,4.5-5.4s-2.9-10.2-11.5-12.1
		l-36.9,9.2L193,203z"/>
	<path d="M178.7,180.1l-3.2,13.4c0,0,3.8,7.6,6,8.3l0.3-5.4l3.5,1.3l2.9-2.5L178.7,180.1z"/>
	<path d="M182.5,163.3c0,0,46.8,7,57,18.5c0,0-4.8,7-10.8,6.7s-13.7,5.7-13.7,5.7l-8.9,2.2l-5.7,5.4l-7.3,0.3l-14.3-20.4l-3.5-13.1
		L182.5,163.3z"/>
	<path d="M127.4,183.3c0,0,0.1,0.4,0.4,1.2c0.9,2.2,3.5,7.2,11.4,11.2l4.1,8.9l1.6-3.8l1.3,2.5l1.9-2.2l1,3.5l1.6-2.9l1,2.2
		c0,0,0-7,3.2-6.7c0,0,10.2,5.1,12.1,9.9v-2.2l1.9,2.5l-0.6-5.7l1.3,2.2l1-1.6l2.5,5.1l1.3-4.5l1.3,2.2c0,0,0-12.1,1.3-16.2
		c1.3-4.1,2.2-13.1,2.2-13.1L156.3,164l-29.9-1.6l-2.9,14.6L127.4,183.3z"/>
	<path d="M89.6,75c0,0,6-19.7,19.7-20.1l5.4,4.1L95.3,72.8l25.5-8.3l3.2,12.4c0,0-19.7,2.5-23.2,0.6C97.2,75.7,89.6,75,89.6,75z"/>
	<path d="M137.6,38.1c0,0,12.4-27.1,56.4-12.7c0,0-47.1,8.3-48.7,11.1c0,0,21.6-5.7,48.7,19.4l6.4,6.4c0,0-9.6-1.6-17.8-6.4
		s-38.5-13.4-38.5-13.4L137.6,38.1z"/>
	<path d="M180.7,200.8c0,0,6.6,11.2,15.9,2.4l-9.2-9l-2.9,2.5l-3.5-1.3L180.7,200.8z"/>
	<path d="M119.8,146l0.3,4.8l-1.9-1.6l0.3,4.5l-1.3,1l0.3,2.5l-2.9,2.2l1.6,1.9l-1.6,2.2l2.2,0.3l0.3,2.9l2.2-0.3
		c0,0-0.3,13.7,2.2,14l0.3-2.5l1.3,5.1l1.6-0.6l2.5,1l-0.3-12.1c0,0,5.4,13.4,7,13.4l0.3-2.5c0,0,1.9,6.4,3.5,5.7l1.3-4.8l1.3,3.8
		l1.6-4.1l1.9,4.8l1.6-3.5l2.2,1.9l3.5-17.8l5.1,15.3l0.6-2.9l2.9,2.9l1-2.9l3.2,2.9l2.9-2.5l1.6,3.5l3.8-3.8v2.2c0,0,4.5-3.8,3.8-6
		l2.9-0.6l-1-3.2c0,0,4.5-2.2,4.1-6l1.9-0.6l-1.6-1.9l-0.3-2.5h2.9l-1.9-2.9l1.6-1l-2.2-1.9l2.2-1.9l-2.5-1.3l2.2-2.9l-3.8-1.6
		l1.9-2.2l-2.9,0.3c0,0-1.6-5.1-2.9-5.4l1-3.2l-3.2,0.3l0.6-2.5h-1.6l0.6-3.8l-3.8,0.6l-0.3-2.9l-2.5,2.5l-4.8-5.1l-2.9,1l-8.3-1.6
		l-3.5,0.3l-1-2.9l-1.3,2.9l-1.6-1.6l-0.3,2.5l-1.9-1.9l-1.6,2.5l-3.8,1l-7,4.8l-2.9-1.6l0.6,3.5l-2.5-0.3l0.3,3.5l-1.6,1.3
		l-2.5-0.6L119.8,146z"/>
	<path d="M95.3,109.7c0,0,17.2,37.9,29.3,40.1l-1-2.2l3.5,2.2l-0.6-2.2l2.2-0.6c0,0-28-34.1-26.7-39.5l-1.9-4.8L95.3,109.7z"/>
	<path d="M124.6,82c0,0-5.7,51.9,11.1,56.4l0.3-2.2l3.2,4.5l0.3-3.8l1.6,0.6c0,0-17.8-27.7-10.5-54.4l0.3-7.3l-5.7-1.9L124.6,82z"/>
	<path d="M160.5,103.7c0,0-11.1,38.2-7.3,42.3l0.6-2.5l1,2.5l1.6-2.5l3.2,4.8c0,0,1-36.9,7.6-41.4l1.9-5.1l-5.4-1.6L160.5,103.7z"/>
	<path d="M83.8,74.1l0.6-5.1l-4.1,5.7l-1.9-3.2l-1,3.5l-1.9-1.6L74.3,76l-1.6-3.8l-2.2,6.7l-2.3-2.3l0.6,6.7l2.2,25.8l1.9-1.9l3.2,6
		l1.3-3.8l1,1.9l1.3-0.3l2.5,3.8l1.1-3l0.5-1.2l1,2.5c0,0,3.5,1.6,4.5-0.3s1-1.9,1-1.9l1.9,3.8l3.2-5.1l4.1,1.9l-1.3-4.8l2.9,1.9
		l0.3-2.9c0,0,1,2.5,3.2,1.6l-2.2-4.1h3.2l-1-2.9l2.2,0.6l-1.6-2.2l5.4-1.3l-4.1-3.5l3.5-0.3l-2.2-2.5l1.3-1.6l-2.9-1.3l-1-4.1
		l2.9-2.2l-4.1-1.3l1.3-1.6l-3.2-0.6L98.8,75l-3.2,0.6l1.3-3.2L89.6,75l-2.2-2.2L83.8,74.1z"/>
	<path d="M111.2,43.8l1.6-1l-0.6-3.5l3.8,2.9l0.3-2.9l2.2,0.6l0.3-2.5l1.6,1l1.9-4.1l1.3,3.5h3.2l3.5-5.4l1,2.9l4.8-2.5l-0.3,2.5
		l3.5-1.9l-1.6,4.8l7.6,1.3l-1.9,2.2l4.5,0.6l-1,1.6l3.5-0.6l-0.3,5.4l3.2-0.3l-0.6,1.9l3.2,1l-3.5,4.1l1.6,1.9l-2.2,0.3
		c0,0-1.3,6,0.3,6s-1,2.2-1,2.2l0.6,1.6l-2.5,1.3l1.6,2.9l-5.1,2.5l1,2.2l-2.2-1v3.5l-2.5-1l-1,1.3l-1.3-2.5c0,0-1.9,2.2-4.1,1.9
		l-0.6,1.6l-2.5-1.9l-1.6,4.8l-3.2-4.5l-2.9,3.5v-2.9l-1.9,2.5l0.6-3.2l-3.2,1.6l-0.6-3.8l-1.9-1.6l-2.9,2.2v-3.2h-1.3l0.6-1.9
		l-2.9,1.6V68l1.6-10.2L111.2,43.8z"/>
	<path d="M160.2,63.9l-1-2.9l1.9,1v-1.9l3.5,2.5l0.6-1.9l3.5,1.6l0.6-3.5l4.1,3.8l1.9-2.2l8.3,1.3l1.3,1.9l2.5-2.9l0.6,7l1.9-1.6
		l-0.3,2.2l2.9-2.2l-0.3,7.3l2.2-0.3l-1,2.2l3.8,0.6l-3.2,2.2l0.3,2.5l-1.9,1.3l-0.6,4.5l-1.3,8.6c0,0-2.2,4.8-3.5,4.8l-1,3.8
		l-2.2-1l0.3,3.5l-2.9-1l-0.3,2.5l-3.8-2.9l-0.6,2.9l-1.6-1.9l-2.5,3.5l-0.6-3.8l-2.2,1l-0.3-1.6l-2.2,1.9l-1-1.6l-1.6,1.6l0.6-2.9
		l-2.5,2.2l-0.6-3.8l-1.6,1.3l-1.9-4.8l-2.9,0.3l-1.3-2.9h-1.9v-1.9l-1.9-1.3l3.8-3.5l-3.2-0.6l1-1.9l-4.5-1.9l3.2-0.6l-3.6-2.4
		l5.1-1.9l-2.2-1.3l1.6-1.3l-2.9-2.9h4.1l-2.2-3.2l3.2-0.6l-0.3-2.5l2.9-2.9l1.3,0.3v-2.2L160.2,63.9z"/>
	<path d="M182.2,70.6c0,0-9.6-12.7-14.3-15.6S152,33.4,152,33.4s-8.6-17.8-8-18.8s18.8,21.6,18.8,21.6l10.8,12.1
		c0,0-5.1-12.4-4.8-17.5s-2.2-21-2.2-21s15.9,29.6,17.5,37.6C185.7,55.3,182.2,70.6,182.2,70.6z"/>
	<path d="M97.5,259.1c0,0-5.4,1.3-6,7.6l7.6-3.8C99.1,262.9,100.1,260.3,97.5,259.1z"/>
	<path d="M113.4,265.1c0,0-6,7.6-3.8,10.5l5.4-5.4C115,270.2,116.9,267.3,113.4,265.1z"/>
	<path d="M141.8,269.2c0,0-5.4,4.1-5.4,5.7s7.3-2.9,7.3-2.9S142.7,268.6,141.8,269.2z"/>
	<path d="M152.3,276.9c0,0-1.9,11.1,0,9.9s5.1-7,5.1-7S159.3,275.9,152.3,276.9z"/>
	<path d="M172.3,278.8c0,0-0.3,5.1,2.5,10.2c0,0,3.8-6.7,1.3-8.9S173.6,277.5,172.3,278.8z"/>
	<path d="M187.3,81.4c0,0,5.4,7,18.1,7.3c12.8,0.3,21.4,1.3,21.4,1.3s13.7,2.5,14.3,8.6l-15.3-3.2c0,0-10.8,2.5-21.3,1.3
		c-10.5-1.3-17.8-1.6-17.8-1.6l-5.7-1.6l-4.1-0.3C176.8,93.2,184.1,81.7,187.3,81.4z"/>
	<path d="M78.1,12.3c0,0,10.5,10.5,14.3,18.1s17.2,27.4,17.2,27.4l-6.4,13.4L92.4,87.5c0,0,7.6-3.2,11.8-13.1s13.4-16.9,13.4-16.9
		l-2.2-8.6L95.6,25.4l-6.7-11.2L78.1,12.3z"/>
	<path d="M121.1,59.4c0,0-2.5-7.6-1.6-11.5c0,0-6.4-1.3-11.5-10.2s-15.3-22-15.3-22s-4.5-9.2-14.6-3.5c2.9,0.2,6.8,1,9.9,3.8
		c2.2,2,3.1,4.1,4.1,6.4c0.4,0.9,3.3,5.2,8.9,13.7c3,4.6,8.2,11.7,16.6,21.3c-5.3,7.4-12.4,11.8-13.4,17c-1,4.8-11.8,13.1-11.8,13.1
		s6,1,16.9-16.9C109.3,70.6,117.6,59.8,121.1,59.4z"/>
	<path d="M41.8,81.1l9.6,7.3c0,0,13.4,3.8,13.7,8.3c0.3,4.5-1.3,13.1-1.3,13.1l5.7-14.3C69.5,95.4,50.1,77.9,41.8,81.1z"/>
	<path d="M67.9,95.1c0,0-11.1,8-10.2,11.5c0,0,2.5,0.6,3.8-1.9s6-4.1,6-4.1l1.9-5.1L67.9,95.1z"/>
	<path d="M70.1,83.6c0,0-9.9,0.3-12.4-2.2s-20.4-8.3-20.4-8.3s-14-0.6-15.3,2.2l7,0.6c0,0,19.4,8.6,23.2,8.9
		c3.8,0.3,17.2,10.5,17.2,10.5s-11.5,29-13.7,30.9c-2.2,1.9-3.2,3.8-3.2,3.8s3.2,1.3,8.6-6.4s6.7-18.1,6.7-18.1l4.5-4.1l-1-4.5
		L70.1,83.6z"/>
	<path d="M117.6,57.8c-3.8-1.2-7.9-0.2-10.7,2.6c-2.8,2.8-3.9,7-2.7,10.8c0.5-0.3,1.2-0.7,2-1.3c1.7-1.2,3.4-2.6,6.7-6.4
		C114.1,62.1,115.7,60.2,117.6,57.8z"/>
</g>
<g>
	<path class="st1" d="M169.7,254.7c0,0,2.9,1.9,2.5,3.5c-0.3,1.6-2.9,1-2.9,1L169.7,254.7z"/>
	<path class="st1" d="M91.4,246.7c0,0-5.8,5.7-3.8,5.7c1,0,5.7-1.3,5.7-1.3S92.9,247.7,91.4,246.7z"/>
	<path class="st1" d="M127.8,248.3c0,0,4.1,1.9,4.5,3.5c0.3,1.6-5.7,0.6-5.7,0.6L127.8,248.3z"/>
	<path class="st2" d="M117.1,240.4l-5.7,2.5l-8.6-0.6l-5.1,1.9l-5.1,1l-1.3,1.6c0,0,1.6,0.3,1.9,4.5l5.7,1.3l14.6-3.5
		C113.6,249,119.1,242.6,117.1,240.4z"/>
	<path class="st3" d="M138.2,199.6l1.9,7.3c0,0-22.9,30.2-21.6,33.1c0,0-8.9,8.3-11.5,8.3s-5.4-0.3-5.4-0.3s-4.8,3.5-8.3,3.2
		s-4.1,3.5-4.1,3.5l4.1,4.5l2.5-0.6c0,0,15.6-6.7,18.8-5.7c0,0-4.8,4.5-6,4.5s-2.2,4.8-2.2,4.8l3.5,3.2h1.9c0,0,11.1-11.5,14.3-12.1
		s2.5-3.5,2.5-3.5l-2.2-3.8c0,0,12.1-29.9,19.4-33.4c0,0,2.5-2.5,1.9-7.3s-1-7.3-1-7.3l-3.8-1.6
		C142.9,196.1,136.6,191.3,138.2,199.6z"/>
	<path class="st3" d="M161.7,202.2c0,0,8.3,9.6,8.3,13.7s-8.3,22.3-8.3,22.3s-1.9,15.3-11.5,17.8s-9.2,4.1-9.2,4.1l-4.1,2.5
		l-1.9,2.2l1.9,4.1l6.7-1.9c0,0,8.6-7.3,8.6-4.1c0,0-3.2,6-4.1,6.4c-1,0.3-3.2,4.5-1.6,6s6.4,0.6,6.4,0.6s1.6-1.3,2.5-4.5
		s5.4-7.6,5.4-7.6s1.3-0.6,2.2,5.1c1,5.7,1,5.7,1,5.7l4.5,3.5l2.5-3.2c0,0-1-3.8-1.6-6.7s0-9.2,0-9.2s1-1.9,0.3-4.5
		c-0.6-2.5-1.6-2.9-1.6-2.9s2.9-29.9,9.9-37.2c0,0,1.3-2.2-1.6-4.5c-2.9-2.2-6-9.9-6-9.9l-3.8-9.6l-6,5.7L161.7,202.2z"/>
	<path class="st4" d="M187.8,198c0,0,13.1,15.6,26.1,10.2s9.9-9.6,9.9-9.6s12.7,0.6,17.2-4.8c4.5-5.4,4.5-5.4,4.5-5.4
		s-2.9-10.2-11.5-12.1l-36.9,9.2L187.8,198z"/>
	<path class="st5" d="M173.5,175.1l-3.2,13.4c0,0,3.8,7.6,6,8.3l0.3-5.4l3.5,1.3l2.9-2.5L173.5,175.1z"/>
	<path class="st6" d="M177.3,158.3c0,0,46.8,7,57,18.5c0,0-4.8,7-10.8,6.7s-13.7,5.7-13.7,5.7l-8.9,2.2l-5.7,5.4l-7.3,0.3
		l-14.3-20.4l-3.5-13.1L177.3,158.3z"/>
	<path class="st7" d="M122.2,178.3c0,0,0.1,0.4,0.4,1.2c0.9,2.2,3.5,7.2,11.4,11.2l4.1,8.9l1.6-3.8l1.3,2.5l1.9-2.2l1,3.5l1.6-2.9
		l1,2.2c0,0,0-7,3.2-6.7c0,0,10.2,5.1,12.1,9.9v-2.2l1.9,2.5l-0.6-5.7l1.3,2.2l1-1.6l2.5,5.1l1.3-4.5l1.3,2.2c0,0,0-12.1,1.3-16.2
		c1.3-4.1,2.2-13.1,2.2-13.1L151.1,159l-29.9-1.6l-2.9,14.6L122.2,178.3z"/>
	<path class="st8" d="M84.4,70c0,0,6-19.7,19.7-20.1l5.4,4.1L90.1,67.8l25.5-8.3l3.2,12.4c0,0-19.7,2.5-23.2,0.6
		C92,70.7,84.4,70,84.4,70z"/>
	<path class="st8" d="M132.4,33.1c0,0,12.4-27.1,56.4-12.7c0,0-47.1,8.3-48.7,11.1c0,0,21.6-5.7,48.7,19.4l6.4,6.4
		c0,0-9.6-1.6-17.8-6.4s-38.5-13.4-38.5-13.4L132.4,33.1z"/>
	<path class="st9" d="M175.5,195.8c0,0,6.6,11.2,15.9,2.4l-9.2-9l-2.9,2.5l-3.5-1.3L175.5,195.8z"/>
	<path class="st10" d="M114.6,141l0.3,4.8l-1.9-1.6l0.3,4.5l-1.3,1l0.3,2.5l-2.9,2.2l1.6,1.9l-1.6,2.2l2.2,0.3l0.3,2.9l2.2-0.3
		c0,0-0.3,13.7,2.2,14l0.3-2.5l1.3,5.1l1.6-0.6l2.5,1l-0.3-12.1c0,0,5.4,13.4,7,13.4l0.3-2.5c0,0,1.9,6.4,3.5,5.7l1.3-4.8l1.3,3.8
		l1.6-4.1l1.9,4.8l1.6-3.5l2.2,1.9l3.5-17.8l5.1,15.3l0.6-2.9l2.9,2.9l1-2.9l3.2,2.9l2.9-2.5l1.6,3.5l3.8-3.8v2.2c0,0,4.5-3.8,3.8-6
		l2.9-0.6l-1-3.2c0,0,4.5-2.2,4.1-6l1.9-0.6l-1.6-1.9l-0.3-2.5h2.9l-1.9-2.9l1.6-1l-2.2-1.9l2.2-1.9l-2.5-1.3l2.2-2.9l-3.8-1.6
		l1.9-2.2l-2.9,0.3c0,0-1.6-5.1-2.9-5.4l1-3.2l-3.2,0.3l0.6-2.5h-1.6l0.6-3.8l-3.8,0.6l-0.3-2.9l-2.5,2.5l-4.8-5.1l-2.9,1l-8.3-1.6
		l-3.5,0.3l-1-2.9l-1.3,2.9l-1.6-1.6l-0.3,2.5l-1.9-1.9l-1.6,2.5l-3.8,1l-7,4.8l-2.9-1.6l0.6,3.5l-2.5-0.3l0.3,3.5l-1.6,1.3
		l-2.5-0.6L114.6,141z"/>
	<path class="st3" d="M90.1,104.7c0,0,17.2,37.9,29.3,40.1l-1-2.2l3.5,2.2l-0.6-2.2l2.2-0.6c0,0-28-34.1-26.7-39.5l-1.9-4.8
		L90.1,104.7z"/>
	<path class="st3" d="M119.4,77c0,0-5.7,51.9,11.1,56.4l0.3-2.2l3.2,4.5l0.3-3.8l1.6,0.6c0,0-17.8-27.7-10.5-54.4l0.3-7.3l-5.7-1.9
		L119.4,77z"/>
	<path class="st3" d="M155.3,98.7c0,0-11.1,38.2-7.3,42.3l0.6-2.5l1,2.5l1.6-2.5l3.2,4.8c0,0,1-36.9,7.6-41.4l1.9-5.1l-5.4-1.6
		L155.3,98.7z"/>
	<path class="st11" d="M78.6,69.1l0.6-5.1l-4.1,5.7l-1.9-3.2l-1,3.5l-1.9-1.6L69.1,71l-1.6-3.8l-2.2,6.7L63,71.6l0.6,6.7l2.2,25.8
		l1.9-1.9l3.2,6l1.3-3.8l1,1.9l1.3-0.3l2.5,3.8l1.1-3l0.5-1.2l1,2.5c0,0,3.5,1.6,4.5-0.3s1-1.9,1-1.9l1.9,3.8l3.2-5.1l4.1,1.9
		l-1.3-4.8l2.9,1.9l0.3-2.9c0,0,1,2.5,3.2,1.6l-2.2-4.1h3.2l-1-2.9l2.2,0.6l-1.6-2.2l5.4-1.3l-4.1-3.5l3.5-0.3l-2.2-2.5l1.3-1.6
		l-2.9-1.3l-1-4.1l2.9-2.2l-4.1-1.3l1.3-1.6l-3.2-0.6L93.6,70l-3.2,0.6l1.3-3.2L84.4,70l-2.2-2.2L78.6,69.1z"/>
	<path class="st10" d="M106,38.8l1.6-1l-0.6-3.5l3.8,2.9l0.3-2.9l2.2,0.6l0.3-2.5l1.6,1l1.9-4.1l1.3,3.5h3.2l3.5-5.4l1,2.9l4.8-2.5
		l-0.3,2.5l3.5-1.9l-1.6,4.8l7.6,1.3l-1.9,2.2l4.5,0.6l-1,1.6l3.5-0.6l-0.3,5.4l3.2-0.3l-0.6,1.9l3.2,1l-3.5,4.1l1.6,1.9l-2.2,0.3
		c0,0-1.3,6,0.3,6s-1,2.2-1,2.2l0.6,1.6l-2.5,1.3l1.6,2.9l-5.1,2.5l1,2.2l-2.2-1v3.5l-2.5-1l-1,1.3l-1.3-2.5c0,0-1.9,2.2-4.1,1.9
		l-0.6,1.6l-2.5-1.9l-1.6,4.8l-3.2-4.5l-2.9,3.5v-2.9l-1.9,2.5l0.6-3.2l-3.2,1.6l-0.6-3.8l-1.9-1.6l-2.9,2.2v-3.2h-1.3l0.6-1.9
		l-2.9,1.6V63l1.6-10.2L106,38.8z"/>
	<path class="st10" d="M155,58.9l-1-2.9l1.9,1v-1.9l3.5,2.5l0.6-1.9l3.5,1.6l0.6-3.5l4.1,3.8l1.9-2.2l8.3,1.3l1.3,1.9l2.5-2.9l0.6,7
		l1.9-1.6l-0.3,2.2l2.9-2.2l-0.3,7.3l2.2-0.3l-1,2.2l3.8,0.6l-3.2,2.2l0.3,2.5l-1.9,1.3l-0.6,4.5l-1.3,8.6c0,0-2.2,4.8-3.5,4.8
		l-1,3.8l-2.2-1l0.3,3.5l-2.9-1l-0.3,2.5l-3.8-2.9l-0.6,2.9l-1.6-1.9l-2.5,3.5l-0.6-3.8l-2.2,1l-0.3-1.6l-2.2,1.9l-1-1.6l-1.6,1.6
		l0.6-2.9l-2.5,2.2l-0.6-3.8l-1.6,1.3l-1.9-4.8l-2.9,0.3l-1.3-2.9h-1.9v-1.9l-1.9-1.3l3.8-3.5l-3.2-0.6l1-1.9l-4.5-1.9l3.2-0.6
		L142,77l5.1-1.9l-2.2-1.3l1.6-1.3l-2.9-2.9h4.1l-2.2-3.2l3.2-0.6l-0.3-2.5l2.9-2.9l1.3,0.3v-2.2L155,58.9z"/>
	<path class="st7" d="M177,65.6c0,0-9.6-12.7-14.3-15.6s-15.9-21.6-15.9-21.6s-8.6-17.8-8-18.8s18.8,21.6,18.8,21.6l10.8,12.1
		c0,0-5.1-12.4-4.8-17.5s-2.2-21-2.2-21s15.9,29.6,17.5,37.6C180.5,50.3,177,65.6,177,65.6z"/>
	<path class="st12" d="M92.3,254.1c0,0-5.4,1.3-6,7.6l7.6-3.8C93.9,257.9,94.9,255.3,92.3,254.1z"/>
	<path class="st12" d="M108.2,260.1c0,0-6,7.6-3.8,10.5l5.4-5.4C109.8,265.2,111.7,262.3,108.2,260.1z"/>
	<path class="st12" d="M136.6,264.2c0,0-5.4,4.1-5.4,5.7s7.3-2.9,7.3-2.9S137.5,263.6,136.6,264.2z"/>
	<path class="st12" d="M147.1,271.9c0,0-1.9,11.1,0,9.9s5.1-7,5.1-7S154.1,270.9,147.1,271.9z"/>
	<path class="st12" d="M167.1,273.8c0,0-0.3,5.1,2.5,10.2c0,0,3.8-6.7,1.3-8.9S168.4,272.5,167.1,273.8z"/>
	<path class="st13" d="M182.1,76.4c0,0,5.4,7,18.1,7.3C213,84,221.6,85,221.6,85s13.7,2.5,14.3,8.6l-15.3-3.2c0,0-10.8,2.5-21.3,1.3
		c-10.5-1.3-17.8-1.6-17.8-1.6l-5.7-1.6l-4.1-0.3C171.6,88.2,178.9,76.7,182.1,76.4z"/>
	<path class="st14" d="M72.9,7.3c0,0,10.5,10.5,14.3,18.1s17.2,27.4,17.2,27.4L98,66.2L87.2,82.5c0,0,7.6-3.2,11.8-13.1
		s13.4-16.9,13.4-16.9l-2.2-8.6L90.4,20.4L83.7,9.2L72.9,7.3z"/>
	<path class="st13" d="M115.9,54.4c0,0-2.5-7.6-1.6-11.5c0,0-6.4-1.3-11.5-10.2s-15.3-22-15.3-22S83,1.5,72.9,7.2
		c2.9,0.2,6.8,1,9.9,3.8c2.2,2,3.1,4.1,4.1,6.4c0.4,0.9,3.3,5.2,8.9,13.7c3,4.6,8.2,11.7,16.6,21.3c-5.3,7.4-12.4,11.8-13.4,17
		c-1,4.8-11.8,13.1-11.8,13.1s6,1,16.9-16.9C104.1,65.6,112.4,54.8,115.9,54.4z"/>
	<path class="st15" d="M36.6,76.1l9.6,7.3c0,0,13.4,3.8,13.7,8.3s-1.3,13.1-1.3,13.1l5.7-14.3C64.3,90.4,44.9,72.9,36.6,76.1z"/>
	<path class="st16" d="M62.7,90.1c0,0-11.1,8-10.2,11.5c0,0,2.5,0.6,3.8-1.9s6-4.1,6-4.1l1.9-5.1L62.7,90.1z"/>
	<path class="st17" d="M64.9,78.6c0,0-9.9,0.3-12.4-2.2s-20.4-8.3-20.4-8.3s-14-0.6-15.3,2.2l7,0.6c0,0,19.4,8.6,23.2,8.9
		c3.8,0.3,17.2,10.5,17.2,10.5s-11.5,29-13.7,30.9s-3.2,3.8-3.2,3.8s3.2,1.3,8.6-6.4s6.7-18.1,6.7-18.1l4.5-4.1l-1-4.5L64.9,78.6z"
		/>
	<path class="st18" d="M112.4,52.8c-3.8-1.2-7.9-0.2-10.7,2.6c-2.8,2.8-3.9,7-2.7,10.8c0.5-0.3,1.2-0.7,2-1.3
		c1.7-1.2,3.4-2.6,6.7-6.4C108.9,57.1,110.5,55.2,112.4,52.8z"/>
</g>
</svg>
