<?xml version="1.0" encoding="utf-8"?>
<!-- Generator: Adobe Illustrator 23.0.6, SVG Export Plug-In . SVG Version: 6.00 Build 0)  -->
<svg version="1.1" id="Layer_1" xmlns="http://www.w3.org/2000/svg" xmlns:xlink="http://www.w3.org/1999/xlink" x="0px" y="0px"
	 viewBox="0 0 288 288" style="enable-background:new 0 0 288 288;" xml:space="preserve">
<style type="text/css">
	.st0{opacity:0.5;}
	.st1{fill:#968784;}
	.st2{fill:#C4C4D0;}
	.st3{fill:#E8D6C6;}
	.st4{fill:#FFFFFF;}
	.st5{fill:#C8987A;}
	.st6{fill:#444545;}
	.st7{fill:#E5CCB4;}
	.st8{fill:#B9A89C;}
</style>
<g class="st0">
	<path d="M164.7,205.8l7.9,14.2l-1.4,7.6l-7.6,21.1c0,0-4.1,1.4-5.2,0s-3.8,4.8-3.8,4.8s-10,3.1-12.8,2.1s-4.5,3.5-4.5,3.5l-4.8,1.7
		l-1.7,4.1l4.1,3.8c0,0,4.5,1.4,10-5.2c0,0,10.7-3.5,12.8-2.1l-8.3,7.9c0,0-2.1,3.1-0.7,4.1c1.4,1,4.8,2.4,4.8,2.4s5.2-1.7,6.6-6.2
		c1.4-4.5,9.3-7.9,9.3-7.9l6.2-1.7c0,0,11.4,2.8,11.4,4.8c0,0,3.8,0,3.1-5.9c0,0-5.2-3.1-5.2-4.8s-6.6,0.3-6.6,0.3l-7.3-3.1
		c0,0,4.1-21.1,10.7-27.6l-1.7-8.6c0,0-2.8,3.1-7.3-15.2L164.7,205.8z"/>
	<path d="M133.7,264.2c0,0-7.9,4.5-7.9,7.9l9.3-3.5C135,268.7,135,264.6,133.7,264.2z"/>
	<path d="M151.6,271.1c0,0-6.2,6.6-6.2,7.9l8.3-3.1C153.7,276,157.5,273.2,151.6,271.1z"/>
	<path d="M191.7,260.4c0,0,7.3,2.8,6.9,4.8l-11.4-0.3C187.2,264.9,190,259.4,191.7,260.4z"/>
	<polygon points="159.2,233.8 162.7,235.2 161.3,231.1 	"/>
	<path d="M183.1,200c0,0,7.3,5.5,7.6,9c0,0-13.5,8.3-19,8.3s-8.3,0.7-8.3,0.7s-3.8,3.8-6.2,3.5s-3.5,6.9-3.5,6.9l1.4,1.7h-2.8
		l-4.5,7.9c0,0,2.1,6.6,4.8,6.9l2.1-2.8l4.5-8.3l7.3-8.3c0,0,3.8-0.7,3.5,5.5s1.4,11.1,1.4,11.1s1.7,2.4,4.1,2.1
		c2.4-0.3,3.5-1,3.5-1s1.4,0.3-0.7-4.8c-2.1-5.2-1.4-13.1-1.4-13.1s1.4-3.5,7.3,0.3c5.9,3.8,6.6,2.4,6.6,2.4s9,1.7,5.2-3.1
		s-8.6-3.8-8.6-3.8l-3.1-1c0,0,5.2-5.5,14.9-4.5c0,0,4.8-4.1,0.7-6.9c-4.1-2.8-7.9-12.4-7.9-12.4S183.1,195.1,183.1,200z"/>
	<path d="M154.7,242.1c0,0-5.2-3.8-5.2-1.4c0,2.4,5.2,8.6,5.2,8.6V242.1z"/>
	<path d="M175.5,244.2c0,0,2.4,4.1,5.5,4.5l-2.1-5.5C178.9,243.2,176.1,241.1,175.5,244.2z"/>
	<path d="M192.4,228c0,0,4.5,2.8,3.8,5.5c0,0,1.7-3.5,0.7-6.9s-1-1.7-1-1.7S192.4,224.8,192.4,228z"/>
	<path d="M141.3,141.2c0,0-3.5,1.7-3.5,4.1l-2.1-1.7l-1,3.5l-3.1-1v3.1c0,0-5.2-1-4.1,0.3c1,1.4,2.1,2.8,2.1,2.8l-1.4,1.4l2.8,3.5
		l-2.8,1l-0.3,2.8l-2.1,1.4l2.4,2.1l-2.8,2.8l1.4,4.8l-1.4,1.4l3.1,1.4l-1.7,2.8l2.4,0.3l-2.4,3.1l2.1,0.7l-1.7,3.1l4.5,0.3
		l-2.1,2.1l2.8-0.3l-0.7,2.8l4.5,3.8l-0.7,2.1c0,0,4.8,0,4.8,1.7h2.1l1.7,2.8l4.1-0.3l1,2.4l2.1-0.3l0.7,4.8l2.4-3.5l1.4,2.4l1-2.1
		l1.4,3.1l2.8-2.8l1.4,1.7l1.4-1.4l2.1,2.8l1.4-2.8l1.7,2.4l0.3-2.8l2.1,3.5l3.8-4.5c0,0,6.6,1.4,7.9-2.8c0,0,3.8-0.7,4.1-2.8
		l2.4,2.8l0.7-2.8l2.4,2.4l1-5.2l2.1,0.3l-1.4-2.8l3.5-1l-1.4-2.4h1.7l-2.1-2.1l5.2-1.4l-1-1.7l4.1-0.3l-2.1-3.8l2.4-1.7l-3.1-1.4
		c0,0,2.4-1.4,1-5.2c0,0,1.7-2.1,0-4.1v-3.5h2.4l-1.7-2.1l2.1-1l-2.8-1.7l2.8-3.8l-3.1-0.3l0.7-1.7l-2.1,0.7l-1.7-2.8l1-1.4
		l-3.5-1.4v-3.1c0,0-4.5-3.8-5.5-3.5l0.3-2.1l-2.8,0.7l0.3-4.5l-3.1,2.1l-1-2.8l-1.7,1l-3.5-2.8l-6.9-0.7l-2.4,1.4
		c0,0-3.1-2.4-5.2,0l-1-1.7l-2.4,0.7l-1.4-2.1l-0.7,2.8l-3.5-3.1l-1.7,3.8l-3.1-1l0.3,3.1l-3.5-0.3v1.4L141.3,141.2z"/>
	<path d="M106,99.1l-1.4,3.5l2.8-1l-1,2.8l2.8-0.7l1,6.6l2.4-2.1l0.7,3.8l0.7-1.4c0,0,0.3,2.8,3.5,2.4l1,2.1l1.4-1
		c0,0,1.4-0.8,3.1,0.3c1,0.7,2.1,0.3,2.1,2.1l2.8-1l2.1,1.7l0.7-2.1l2.1,1.4l1-2.1l4.1-0.7l1.7-2.1l2.4,0.7c0,0,2.1-2.1,1.4-4.8
		c0,0,3.5,1.7,4.1,0.3s-0.7-4.1-0.7-4.1l2.8-0.3l-0.3-1.4l1.7-1l-1.7-2.1l2.8-2.1l-2.1-2.1l3.8-3.1l-3.5-1l1-1.7l-1.7-0.7l2.8-2.8
		l-4.1-0.7l1-2.1l-2.8-0.7l3.1-3.8l-4.5,1c0,0-4.5-4.1-6.9-3.8l-0.3-3.1l-3.8,1.4l0.7-3.8c0,0-5.5,1.7-5.9,2.8l-2.4-2.1l-0.4,1.6
		h-1.4l-1.4-2.4l-1.4,3.5l-2.1-2.1v2.4l-3.5,0.7l-3.5,3.5l-2.4-2.1C110.5,75.6,102.2,93.6,106,99.1z"/>
	<path d="M182,97.7l-0.3-4.1l2.8,2.1l1.4-2.8l1.4,2.4l2.1-1.7l1,6.6l1.7-2.1l2.1,1.4l1-1.7l2.1,0.7l0.3-3.8l2.8,2.1v-1.7l3.1,1
		l0.3-4.8h3.1l-1-2.8l3.8-0.7l-2.4-2.8l1.4-0.7l0.3-5.2c0,0,3.5-3.1-0.3-4.1l2.8-4.1l-2.4-1l1-2.4l-2.4-1l0.7-3.1l-13.9-2.3
		l-1.4-6.6c0,0-3.1-2.4-4.8-0.7l-1.4-3.1l-1.7,3.5l-3.5-1.7l-2.1,2.8c0,0-4.5-1-4.5,0.7l-2.1-1.7l-0.3,5.5l-2.8-0.7l0.7,2.4l-4.8-1
		l0.7,2.8l-2.4,1l1.7,1.7c0,0-2.8,4.1-1,6.9l-2,3.8l0,0l1.7,2.4l-1.4,3.1l2.4-0.7l-3.5,3.8l2.8-0.3l-1,2.4l4.1-0.7l-1.7,3.1l2.4-0.7
		v4.5l3.5-1.4v1.7l2.8-0.7l-0.3,3.5l2.1-1v2.4l2.1-2.8L182,97.7z"/>
	<path d="M129.9,117.1c0,0,0.3,22.5,15.5,29.4l4.1,4.1l1-2.4l3.8,2.8l-1.4-2.8l1.4-1.4c0,0-18.7-17.3-16.6-33.2l-4.1,0.7l-1,2.1
		l-2.1-1.4L129.9,117.1z"/>
	<path d="M182,97.7c0,0-5.9,37.7-13.8,43.9l-0.7,5.5l2.4-3.1l0.7,2.8l2.4-0.7l0.3,2.4c0,0,22.1-38,16.9-48.4l-1-6.6l-2.1,1.7
		l-1.4-2.4l-1.4,2.8l-2.8-2.1L182,97.7z"/>
	<path d="M109.5,87.3c0,0-23.8-2.4-33.5-7.6s-15.9,3.2-15.9,3.2s2.4,1.4,3.8,1.4c1.4,0,13.5,2.4,13.5,2.4s34.9,11.7,37,11.1
		S109.5,87.3,109.5,87.3z"/>
	<path d="M190,67.3c0,0-3.1-0.7,5.5-17.6S210,22.4,210,22.4s10-10.7,10.7-8.3s-5.9,17.6-5.9,17.6S209.7,34.5,190,67.3z"/>
	<path d="M77.3,86.7c0,0,17.6,18,37,11.1L77.3,86.7z"/>
	<path d="M190,67.3c0,0,5.9,12.8,13.5-2.8c7.6-15.5,9-25.2,9-25.2s4.1-12.1-1-9.3s-8.6,10-8.6,10S189.6,62.8,190,67.3z"/>
</g>
<g>
	<path class="st1" d="M159.6,200.7l7.9,14.2l-1.4,7.6l-7.6,21.1c0,0-4.1,1.4-5.2,0s-3.8,4.8-3.8,4.8s-10,3.1-12.8,2.1
		s-4.5,3.5-4.5,3.5l-4.8,1.7l-1.7,4.1l4.1,3.8c0,0,4.5,1.4,10-5.2c0,0,10.7-3.5,12.8-2.1l-8.3,7.9c0,0-2.1,3.1-0.7,4.1
		c1.4,1,4.8,2.4,4.8,2.4s5.2-1.7,6.6-6.2c1.4-4.5,9.3-7.9,9.3-7.9l6.2-1.7c0,0,11.4,2.8,11.4,4.8c0,0,3.8,0,3.1-5.9
		c0,0-5.2-3.1-5.2-4.8s-6.6,0.3-6.6,0.3l-7.3-3.1c0,0,4.1-21.1,10.7-27.6l-1.7-8.6c0,0-2.8,3.1-7.3-15.2L159.6,200.7z"/>
	<path class="st2" d="M128.6,259.1c0,0-7.9,4.5-7.9,7.9l9.3-3.5C129.9,263.6,129.9,259.5,128.6,259.1z"/>
	<path class="st2" d="M146.5,266c0,0-6.2,6.6-6.2,7.9l8.3-3.1C148.6,270.9,152.4,268.1,146.5,266z"/>
	<path class="st2" d="M186.6,255.3c0,0,7.3,2.8,6.9,4.8l-11.4-0.3C182.1,259.8,184.9,254.3,186.6,255.3z"/>
	<polygon class="st2" points="154.1,228.7 157.6,230.1 156.2,226 	"/>
	<path class="st3" d="M178,194.9c0,0,7.3,5.5,7.6,9c0,0-13.5,8.3-19,8.3s-8.3,0.7-8.3,0.7s-3.8,3.8-6.2,3.5s-3.5,6.9-3.5,6.9
		l1.4,1.7h-2.8l-4.5,7.9c0,0,2.1,6.6,4.8,6.9l2.1-2.8l4.5-8.3l7.3-8.3c0,0,3.8-0.7,3.5,5.5s1.4,11.1,1.4,11.1s1.7,2.4,4.1,2.1
		c2.4-0.3,3.5-1,3.5-1s1.4,0.3-0.7-4.8c-2.1-5.2-1.4-13.1-1.4-13.1s1.4-3.5,7.3,0.3c5.9,3.8,6.6,2.4,6.6,2.4s9,1.7,5.2-3.1
		s-8.6-3.8-8.6-3.8l-3.1-1c0,0,5.2-5.5,14.9-4.5c0,0,4.8-4.1,0.7-6.9c-4.1-2.8-7.9-12.4-7.9-12.4S178,190,178,194.9z"/>
	<path class="st4" d="M149.6,237c0,0-5.2-3.8-5.2-1.4c0,2.4,5.2,8.6,5.2,8.6V237z"/>
	<path class="st4" d="M170.4,239.1c0,0,2.4,4.1,5.5,4.5l-2.1-5.5C173.8,238.1,171,236,170.4,239.1z"/>
	<path class="st4" d="M187.3,222.9c0,0,4.5,2.8,3.8,5.5c0,0,1.7-3.5,0.7-6.9s-1-1.7-1-1.7S187.3,219.7,187.3,222.9z"/>
	<path class="st5" d="M136.2,136.1c0,0-3.5,1.7-3.5,4.1l-2.1-1.7l-1,3.5l-3.1-1v3.1c0,0-5.2-1-4.1,0.3c1,1.4,2.1,2.8,2.1,2.8
		l-1.4,1.4l2.8,3.5l-2.8,1l-0.3,2.8l-2.1,1.4l2.4,2.1l-2.8,2.8l1.4,4.8l-1.4,1.4l3.1,1.4l-1.7,2.8l2.4,0.3l-2.4,3.1l2.1,0.7
		l-1.7,3.1l4.5,0.3l-2.1,2.1l2.8-0.3l-0.7,2.8l4.5,3.8l-0.7,2.1c0,0,4.8,0,4.8,1.7h2.1l1.7,2.8l4.1-0.3l1,2.4l2.1-0.3l0.7,4.8
		l2.4-3.5l1.4,2.4l1-2.1l1.4,3.1l2.8-2.8l1.4,1.7l1.4-1.4l2.1,2.8l1.4-2.8l1.7,2.4l0.3-2.8l2.1,3.5l3.8-4.5c0,0,6.6,1.4,7.9-2.8
		c0,0,3.8-0.7,4.1-2.8l2.4,2.8l0.7-2.8l2.4,2.4l1-5.2l2.1,0.3l-1.4-2.8l3.5-1l-1.4-2.4h1.7l-2.1-2.1l5.2-1.4l-1-1.7l4.1-0.3
		l-2.1-3.8l2.4-1.7l-3.1-1.4c0,0,2.4-1.4,1-5.2c0,0,1.7-2.1,0-4.1v-3.5h2.4l-1.7-2.1l2.1-1l-2.8-1.7l2.8-3.8l-3.1-0.3l0.7-1.7
		l-2.1,0.7l-1.7-2.8l1-1.4l-3.5-1.4v-3.1c0,0-4.5-3.8-5.5-3.5l0.3-2.1l-2.8,0.7l0.3-4.5l-3.1,2.1l-1-2.8l-1.7,1l-3.5-2.8l-6.9-0.7
		l-2.4,1.4c0,0-3.1-2.4-5.2,0l-1-1.7l-2.4,0.7l-1.4-2.1l-0.7,2.8l-3.5-3.1l-1.7,3.8l-3.1-1l0.3,3.1l-3.5-0.3v1.4L136.2,136.1z"/>
	<path class="st5" d="M100.9,94l-1.4,3.5l2.8-1l-1,2.8l2.8-0.7l1,6.6l2.4-2.1l0.7,3.8l0.7-1.4c0,0,0.3,2.8,3.5,2.4l1,2.1l1.4-1
		c0,0,1.4-0.8,3.1,0.3c1,0.7,2.1,0.3,2.1,2.1l2.8-1l2.1,1.7l0.7-2.1l2.1,1.4l1-2.1l4.1-0.7l1.7-2.1l2.4,0.7c0,0,2.1-2.1,1.4-4.8
		c0,0,3.5,1.7,4.1,0.3s-0.7-4.1-0.7-4.1l2.8-0.3l-0.3-1.4l1.7-1l-1.7-2.1l2.8-2.1l-2.1-2.1l3.8-3.1l-3.5-1l1-1.7l-1.7-0.7l2.8-2.8
		l-4.1-0.7l1-2.1l-2.8-0.7l3.1-3.8l-4.5,1c0,0-4.5-4.1-6.9-3.8l-0.3-3.1l-3.8,1.4l0.7-3.8c0,0-5.5,1.7-5.9,2.8l-2.4-2.1L121,67h-1.4
		l-1.4-2.4l-1.4,3.5l-2.1-2.1v2.4l-3.5,0.7l-3.5,3.5l-2.4-2.1C105.4,70.5,97.1,88.5,100.9,94z"/>
	<path class="st5" d="M176.9,92.6l-0.3-4.1l2.8,2.1l1.4-2.8l1.4,2.4l2.1-1.7l1,6.6L187,93l2.1,1.4l1-1.7l2.1,0.7l0.3-3.8l2.8,2.1V90
		l3.1,1l0.3-4.8h3.1l-1-2.8l3.8-0.7l-2.4-2.8l1.4-0.7l0.3-5.2c0,0,3.5-3.1-0.3-4.1l2.8-4.1l-2.4-1l1-2.4l-2.4-1l0.7-3.1L189.4,56
		l-1.4-6.6c0,0-3.1-2.4-4.8-0.7l-1.4-3.1l-1.7,3.5l-3.5-1.7l-2.1,2.8c0,0-4.5-1-4.5,0.7l-2.1-1.7l-0.3,5.5l-2.8-0.7l0.7,2.4l-4.8-1
		l0.7,2.8l-2.4,1l1.7,1.7c0,0-2.8,4.1-1,6.9l-2,3.8l0,0l1.7,2.4l-1.4,3.1l2.4-0.7l-3.5,3.8l2.8-0.3l-1,2.4l4.1-0.7l-1.7,3.1l2.4-0.7
		v4.5l3.5-1.4v1.7l2.8-0.7l-0.3,3.5l2.1-1V93l2.1-2.8L176.9,92.6z"/>
	<path class="st6" d="M124.8,112c0,0,0.3,22.5,15.5,29.4l4.1,4.1l1-2.4l3.8,2.8l-1.4-2.8l1.4-1.4c0,0-18.7-17.3-16.6-33.2l-4.1,0.7
		l-1,2.1l-2.1-1.4L124.8,112z"/>
	<path class="st6" d="M176.9,92.6c0,0-5.9,37.7-13.8,43.9l-0.7,5.5l2.4-3.1l0.7,2.8l2.4-0.7l0.3,2.4c0,0,22.1-38,16.9-48.4l-1-6.6
		l-2.1,1.7l-1.4-2.4l-1.4,2.8l-2.8-2.1L176.9,92.6z"/>
	<path class="st7" d="M104.4,82.2c0,0-23.8-2.4-33.5-7.6S55,77.8,55,77.8s2.4,1.4,3.8,1.4c1.4,0,13.5,2.4,13.5,2.4
		s34.9,11.7,37,11.1S104.4,82.2,104.4,82.2z"/>
	<path class="st7" d="M184.9,62.2c0,0-3.1-0.7,5.5-17.6s14.5-27.3,14.5-27.3s10-10.7,10.7-8.3s-5.9,17.6-5.9,17.6
		S204.6,29.4,184.9,62.2z"/>
	<path class="st8" d="M72.2,81.6c0,0,17.6,18,37,11.1L72.2,81.6z"/>
	<path class="st8" d="M184.9,62.2c0,0,5.9,12.8,13.5-2.8c7.6-15.5,9-25.2,9-25.2s4.1-12.1-1-9.3s-8.6,10-8.6,10
		S184.5,57.7,184.9,62.2z"/>
</g>
</svg>
