<?xml version="1.0" encoding="utf-8"?>
<!-- Generator: Adobe Illustrator 23.0.6, SVG Export Plug-In . SVG Version: 6.00 Build 0)  -->
<svg version="1.1" id="Layer_1" xmlns="http://www.w3.org/2000/svg" xmlns:xlink="http://www.w3.org/1999/xlink" x="0px" y="0px"
	 viewBox="0 0 288 288" style="enable-background:new 0 0 288 288;" xml:space="preserve">
<style type="text/css">
	.st0{opacity:0.5;}
	.st1{fill:#C7C7C6;}
	.st2{fill:#49628A;}
	.st3{fill:#3F6997;}
	.st4{fill:#83B1D9;}
	.st5{fill:#F8FCFA;}
	.st6{fill:#36689D;}
</style>
<g class="st0">
	<path d="M138.9,51.3c0,0-7.6-31.6-22.2-30.7c0,0,11.1,24.9,10.2,30.2c0,0-3.1,10.7,3.6,17.3c6.7,6.7,6.7,6.7,6.7,6.7L138.9,51.3z"
		/>
	<path d="M44.7,227.3c0,0,20.9,21.3,80.9,24.4l-3.6-8.9V241h-18.2L44.7,227.3z"/>
	<path d="M42.9,157c0,0,6.7-10.7,9.3-9.8l-4.9,11.6L42.9,157z"/>
	<path d="M38,181.1c0,0-9.3,56.9,65.3,47.1c74.7-9.8,88.9-39.6,120.4-40.9c31.6-1.3,39.1,5.8,39.1,5.8s-20.4,34.2-79.6,44
		c-59.1,9.8-79.6,4-79.6,4s-48,3.1-61.8-18.2s-7.6-43.1-7.6-43.1S38,177.6,38,181.1z"/>
	<path d="M34.4,180.8c0,0-0.7-0.4-1.7-1c-3.3-2.3-9-8.1,4.8-15c0,0-2.2-10.2,7.6-8.9c0,0,7.6,5.8-0.9,10.7c0,0,9.3,13.8-6.2,15.6
		C38,182.1,35.3,178.1,34.4,180.8z"/>
	<path d="M262.9,193.1c0,0,9.8,6.7,11.6,14.2c0,0-8.9,35.6-57.8,40.4c-48.9,4.9-64.4-4.9-64.4-4.9s-32-14.2-16.9-61.8
		s27.1-64.9,23.6-74.7c0,0-20.9,4-23.1-5.8L138,90c0,0-15.6-31.6,2.7-40s21.8-5.8,21.8-5.8s9.8,2.7,11.6,8.4s8.4,23.1,8.4,23.1
		l-0.9,4c0,0-0.9,12.4-4.4,16c0,0-33.8,82.7-32,95.6c0,0-8,44.9,31.6,44.9S262.9,193.1,262.9,193.1z"/>
	<path d="M158.9,106.4c0,0-33.8,58.7-38.2,63.1c-4.4,4.4-14.7,28-14.7,28c-1.4,5-8.8,33.3,2.7,55.1c2,3.8,5.7,11,13.8,16.4
		c5.4,3.7,10.3,4.9,17.3,6.7c0,0,6.8,1.7,28.9,3.6l0,0c3.3-0.6,8.5-1.5,14.7-2.8c10.3-2.2,16.5-3.8,25.8-6.1
		c6.1-1.5,14.9-3.5,25.8-5.8c0,0,58.2-7.6,39.6-57.3c0,0-18.2,40.4-74.2,40.9c-56,0.4-64.4-29.8-64.4-29.8s-4-17.8,3.6-45.8
		C139.3,172.7,164.7,112.7,158.9,106.4z"/>
	<path d="M142,66.9c0,0-15.6,2.7-14.2,4c1.3,1.3,11.6,5.8,11.6,5.8S148.2,73.1,142,66.9z"/>
	<path d="M176.7,75.3c0,0-12-7.1-6.7-22.7s15.6-32,14.7-39.1c-0.9-7.1,3.6-2.7,3.6-2.7l2.2,8c0,0,4-1.3,4.4,4.9s0,9.8,0,9.8
		s5.3-5.8,3.6,2.7c-1.8,8.4-3.1,16.4-3.1,16.4s-1.3,15.6-10.7,19.1C184.7,71.8,186,80.2,176.7,75.3z"/>
	<circle cx="154" cy="117.1" r="8"/>
</g>
<g>
	<path class="st1" d="M133.9,45.3c0,0-7.6-31.6-22.2-30.7c0,0,11.1,24.9,10.2,30.2c0,0-3.1,10.7,3.6,17.3c6.7,6.7,6.7,6.7,6.7,6.7
		L133.9,45.3z"/>
	<path class="st1" d="M39.7,221.3c0,0,20.9,21.3,80.9,24.4l-3.6-8.9V235H98.8L39.7,221.3z"/>
	<path class="st2" d="M37.9,151c0,0,6.7-10.7,9.3-9.8l-4.9,11.6L37.9,151z"/>
	<path class="st2" d="M33,175.1c0,0-9.3,56.9,65.3,47.1c74.7-9.8,88.9-39.6,120.4-40.9c31.6-1.3,39.1,5.8,39.1,5.8
		s-20.4,34.2-79.6,44c-59.1,9.8-79.6,4-79.6,4s-48,3.1-61.8-18.2s-7.6-43.1-7.6-43.1S33,171.6,33,175.1z"/>
	<path class="st3" d="M29.4,174.8c0,0-0.7-0.4-1.7-1c-3.3-2.3-9-8.1,4.8-15c0,0-2.2-10.2,7.6-8.9c0,0,7.6,5.8-0.9,10.7
		c0,0,9.3,13.8-6.2,15.6C33,176.1,30.3,172.1,29.4,174.8z"/>
	<path class="st4" d="M257.9,187.1c0,0,9.8,6.7,11.6,14.2c0,0-8.9,35.6-57.8,40.4c-48.9,4.9-64.4-4.9-64.4-4.9s-32-14.2-16.9-61.8
		s27.1-64.9,23.6-74.7c0,0-20.9,4-23.1-5.8L133,84c0,0-15.6-31.6,2.7-40s21.8-5.8,21.8-5.8s9.8,2.7,11.6,8.4s8.4,23.1,8.4,23.1
		l-0.9,4c0,0-0.9,12.4-4.4,16c0,0-33.8,82.7-32,95.6c0,0-8,44.9,31.6,44.9S257.9,187.1,257.9,187.1z"/>
	<path class="st5" d="M153.9,100.4c0,0-33.8,58.7-38.2,63.1c-4.4,4.4-14.7,28-14.7,28c-1.4,5-8.8,33.3,2.7,55.1
		c2,3.8,5.7,11,13.8,16.4c5.4,3.7,10.3,4.9,17.3,6.7c0,0,6.8,1.7,28.9,3.6l0,0c3.3-0.6,8.5-1.5,14.7-2.8c10.3-2.2,16.5-3.8,25.8-6.1
		c6.1-1.5,14.9-3.5,25.8-5.8c0,0,58.2-7.6,39.6-57.3c0,0-18.2,40.4-74.2,40.9c-56,0.4-64.4-29.8-64.4-29.8s-4-17.8,3.6-45.8
		C134.3,166.7,159.7,106.7,153.9,100.4z"/>
	<path class="st5" d="M137,60.9c0,0-15.6,2.7-14.2,4c1.3,1.3,11.6,5.8,11.6,5.8S143.2,67.1,137,60.9z"/>
	<path class="st5" d="M171.7,69.3c0,0-12-7.1-6.7-22.7s15.6-32,14.7-39.1c-0.9-7.1,3.6-2.7,3.6-2.7l2.2,8c0,0,4-1.3,4.4,4.9
		s0,9.8,0,9.8s5.3-5.8,3.6,2.7c-1.8,8.4-3.1,16.4-3.1,16.4s-1.3,15.6-10.7,19.1C179.7,65.8,181,74.2,171.7,69.3z"/>
	<circle class="st6" cx="149" cy="111.1" r="8"/>
</g>
</svg>
