<?xml version="1.0" encoding="utf-8"?>
<!-- Generator: Adobe Illustrator 23.0.6, SVG Export Plug-In . SVG Version: 6.00 Build 0)  -->
<svg version="1.1" id="Layer_1" xmlns="http://www.w3.org/2000/svg" xmlns:xlink="http://www.w3.org/1999/xlink" x="0px" y="0px"
	 viewBox="0 0 288 288" style="enable-background:new 0 0 288 288;" xml:space="preserve">
<style type="text/css">
	.st0{display:none;}
	.st1{display:inline;}
	.st2{opacity:0.5;}
	.st3{fill:#FFFFFF;}
	.st4{fill:#437A7D;}
	.st5{fill:#B0A297;}
	.st6{fill:#BD9371;}
	.st7{fill:#E3D7BA;}
	.st8{fill:#CFCBCA;}
	.st9{fill:#54A799;}
	.st10{fill:#F8ECCB;}
	.st11{fill:#EAB577;}
	.st12{fill:#FFFCE3;}
</style>
<g class="st0">
	<g id="b7zmek.tif" class="st1">
	</g>
</g>
<g class="st2">
	<path d="M188.8,175.1l4.9,2.7l-2.2-10.2C191.4,167.5,189.7,173.3,188.8,175.1z"/>
	<path d="M92,85.3c0,0-12.6,15.1-9.3,25.2c0,0,18.2,4.4,23.3-4.9c5.1-9.2,3.3-16.5,3.3-16.5L92,85.3z"/>
	<path d="M177.7,240.9c0,0,59-23.1,68-47.1S185.8,224,185.8,224L177.7,240.9z"/>
	<path d="M92.8,87.5l3.1-5.8H91c0,0-12.4,18.7-11.6,28.9h4.4C83.9,110.6,77.7,107.1,92.8,87.5z"/>
	<path d="M183,187.1c0,0,23.1,9.3,48-10.7s28.4-28,28.4-28s3.6,1.3,2.2,6.7c0,0-7.6,61.8-73.3,72L183,187.1z"/>
	<path d="M75.4,167.1c0,0-22.2,25.3-10.7,45.8s20.9,20,20.9,20l-5.8,4.9c0,0-22.2,4.4-21.8,9.3c0.4,4.9,16.9,12,16.9,12
		s12.9,2.7,24-8.9c11.1-11.6,16.4-16.9,16.4-16.9L75.4,167.1z"/>
	<path d="M106.1,104.4c0,0-15.6,11.6-36.4-5.3c0,0-19.6-11.6-21.3,3.6s13.7,23.5,13.7,23.5s18.2,11.6,36,0S106.1,104.4,106.1,104.4z
		"/>
	<path d="M90.5,46.2c0,0-3.1-9.8-8.4-7.6S71,43,71,43s-15.6,5.3-18.2-2.7c-2.7-8-1.3-12.4-1.3-12.4s5.3-12,7.1-9.3s-0.9,4.9-0.9,4.9
		s-8.4,11.6-1.3,15.6s16.4-0.9,16.4-0.9s8-4.4,13.3-1.3c5.3,3.1,7.6,6.7,7.6,6.7L90.5,46.2z"/>
	<path d="M47.9,104.9l-5.3-5.8c0,0,8.4-1.3,8.4,0.9S47.9,104.9,47.9,104.9z"/>
	<path d="M54.1,99.1c0,0-3.6-9.8,0-8.4c3.6,1.3,6.2,5.3,6.2,5.3S55,100,54.1,99.1z"/>
	<path d="M63,96.4c0,0,5.8-6.7,6.2-3.1s0,8,0,8S62.5,99.1,63,96.4z"/>
	<path d="M59.4,245.3c0,0-8,3.6-8,5.8l4,1.3l-3.1,2.2c0,0,8,5.3,10.7,3.6l-2.7,1.8c0,0,12.4,0,14.7-0.9c0,0,0-9.8-5.3-5.8
		c0,0-4.9-8.4-7.6-4.9C62.1,248.4,59.4,244.4,59.4,245.3z"/>
	<path d="M165.7,118.2c0,0,20.4-9.3,29.3,6.2c0,0,16-17.3,24-13.8c8,3.6,13.3,13.3,13.3,13.3s-0.4-49.8-40.4-64.4
		c0,0-3.6,27.1-33.3,46.7L165.7,118.2z"/>
	<path d="M108.3,93.7c0,0-2.7,20-16.4,36.4s-17.8,41-17.8,41s-0.4,49.8,39.6,63.1c40,13.3,48.9,8.4,48.9,8.4l-3.1-7.6l-20.9-25.3
		l3.1-19.1l-7.1-84.9l-4-23.6C130.5,82.2,121.2,92.9,108.3,93.7z"/>
	<path d="M89.7,55.1c0,0-0.4-18.2,13.8-23.1c0,0,4.4-11.1,6.2-9.8c1.8,1.3,6.7,8,6.7,8s11.6-1.8,19.6,12s5.3,20,7.1,24.9
		s11.1,35.1,13.8,36c0,0,24.9-10.2,30.7-42.7c0,0-1.8-9.3,2.7-7.6c4.4,1.8,13.3,6.7,13.3,6.7s44,34.2,27.6,75.6
		c0,0-2.7,0.4,1.3-11.1c0,0-0.9-48.9-40.4-64.4c0,0,0.9,27.1-33.3,46.7c0,0,34.7,41.3,32.9,61.3c0,0,0,7.1-10.2,11.6
		c0,0,11.6,26.2,11.1,36.4c-0.4,10.2-12.9,20-10.7,25.3s8.4,15.6,8.4,15.6s16,23.1-4.9,23.1s-24.4-4-24.4-4s-7.1-6.7-4.4-12.9
		c2.7-6.2,7.1-16.9,6.2-20c-0.9-3.1-4.9-9.3-4.9-9.3s-29.3-9.8-18.7-40.9c0,0-14.7-23.6-10.2-48c4.4-24.4,2.7-60,1.8-62.2
		c0,0-25.8,26.2-39.6-0.4c0,0-1.8-3.6,2.2-12.9C93.2,68.9,90.5,61.7,89.7,55.1z"/>
	<path d="M117.2,40c0,0,3.6-14.7,20-15.1s16.4,5.3,25.3-0.9s7.6-15.6,7.6-15.6s1.8-6.2,4-0.4s-2.7,14.7-2.7,14.7s-9.3,9.8-22.2,7.1
		S135,28.5,135,28.5s-8.4-1.3-14.2,11.6C120.8,40,117.7,42.6,117.2,40z"/>
	<path d="M170.1,173.3l-0.4,8c0,0,6.2-0.9,5.8-3.1C175.4,178.2,171,172,170.1,173.3z"/>
	<path d="M177.7,176.9l7.1,7.1l0.9-10.2C185.7,173.7,176.8,174.6,177.7,176.9z"/>
	<path d="M160.3,273.7c0,0,6.2-6.7,10.2,0c1,1.7,1.5,3.2,1.7,4.5c0.6,4.1-1.7,6.6-1.7,6.6S158.5,277.3,160.3,273.7z"/>
	<path d="M182.1,271.5c0,0-12-0.4-8.4,8.9c0,0,8.4,8.9,10.2,7.1C183.9,287.5,187,278.2,182.1,271.5z"/>
	<path d="M191.4,270.6c0,0-7.1,2.7-2.7,8.9s5.3,4.9,5.3,4.9S199.9,271.5,191.4,270.6z"/>
</g>
<g>
	<path class="st3" d="M183.7,169.8l4.9,2.7l-2.2-10.2C186.3,162.2,184.6,168,183.7,169.8z"/>
	<path class="st4" d="M86.9,80c0,0-12.6,15.1-9.3,25.2c0,0,18.2,4.4,23.3-4.9c5.1-9.2,3.3-16.5,3.3-16.5L86.9,80z"/>
	<path class="st5" d="M172.6,235.6c0,0,59-23.1,68-47.1s-59.9,30.2-59.9,30.2L172.6,235.6z"/>
	<path class="st6" d="M87.7,82.2l3.1-5.8h-4.9c0,0-12.4,18.7-11.6,28.9h4.4C78.8,105.3,72.6,101.8,87.7,82.2z"/>
	<path class="st6" d="M177.9,181.8c0,0,23.1,9.3,48-10.7s28.4-28,28.4-28s3.6,1.3,2.2,6.7c0,0-7.6,61.8-73.3,72L177.9,181.8z"/>
	<path class="st6" d="M70.3,161.8c0,0-22.2,25.3-10.7,45.8s20.9,20,20.9,20l-5.8,4.9c0,0-22.2,4.4-21.8,9.3c0.4,4.9,16.9,12,16.9,12
		s12.9,2.7,24-8.9s16.4-16.9,16.4-16.9L70.3,161.8z"/>
	<path class="st6" d="M101,99.1c0,0-15.6,11.6-36.4-5.3c0,0-19.6-11.6-21.3,3.6S57,120.9,57,120.9s18.2,11.6,36,0S101,99.1,101,99.1
		z"/>
	<path class="st7" d="M85.4,40.9c0,0-3.1-9.8-8.4-7.6s-11.1,4.4-11.1,4.4S50.3,43,47.7,35c-2.7-8-1.3-12.4-1.3-12.4s5.3-12,7.1-9.3
		s-0.9,4.9-0.9,4.9s-8.4,11.6-1.3,15.6s16.4-0.9,16.4-0.9s8-4.4,13.3-1.3c5.3,3.1,7.6,6.7,7.6,6.7L85.4,40.9z"/>
	<path class="st8" d="M42.8,99.6l-5.3-5.8c0,0,8.4-1.3,8.4,0.9S42.8,99.6,42.8,99.6z"/>
	<path class="st8" d="M49,93.8c0,0-3.6-9.8,0-8.4c3.6,1.3,6.2,5.3,6.2,5.3S49.9,94.7,49,93.8z"/>
	<path class="st8" d="M57.9,91.1c0,0,5.8-6.7,6.2-3.1c0.4,3.6,0,8,0,8S57.4,93.8,57.9,91.1z"/>
	<path class="st8" d="M54.3,240c0,0-8,3.6-8,5.8l4,1.3l-3.1,2.2c0,0,8,5.3,10.7,3.6l-2.7,1.8c0,0,12.4,0,14.7-0.9c0,0,0-9.8-5.3-5.8
		c0,0-4.9-8.4-7.6-4.9C57,243.1,54.3,239.1,54.3,240z"/>
	<path class="st9" d="M160.6,112.9c0,0,20.4-9.3,29.3,6.2c0,0,16-17.3,24-13.8c8,3.6,13.3,13.3,13.3,13.3s-0.4-49.8-40.4-64.4
		c0,0-3.6,27.1-33.3,46.7L160.6,112.9z"/>
	<path class="st10" d="M103.2,88.4c0,0-2.7,20-16.4,36.4s-17.8,41-17.8,41s-0.4,49.8,39.6,63.1c40,13.3,48.9,8.4,48.9,8.4l-3.1-7.6
		l-20.9-25.3l3.1-19.1l-7.1-84.9l-4-23.6C125.4,76.9,116.1,87.6,103.2,88.4z"/>
	<path class="st11" d="M84.6,49.8c0,0-0.4-18.2,13.8-23.1c0,0,4.4-11.1,6.2-9.8c1.8,1.3,6.7,8,6.7,8s11.6-1.8,19.6,12
		s5.3,20,7.1,24.9s11.1,35.1,13.8,36c0,0,24.9-10.2,30.7-42.7c0,0-1.8-9.3,2.7-7.6c4.4,1.8,13.3,6.7,13.3,6.7s44,34.2,27.6,75.6
		c0,0-2.7,0.4,1.3-11.1c0,0-0.9-48.9-40.4-64.4c0,0,0.9,27.1-33.3,46.7c0,0,34.7,41.3,32.9,61.3c0,0,0,7.1-10.2,11.6
		c0,0,11.6,26.2,11.1,36.4c-0.4,10.2-12.9,20-10.7,25.3s8.4,15.6,8.4,15.6s16,23.1-4.9,23.1s-24.4-4-24.4-4s-7.1-6.7-4.4-12.9
		c2.7-6.2,7.1-16.9,6.2-20c-0.9-3.1-4.9-9.3-4.9-9.3s-29.3-9.8-18.7-40.9c0,0-14.7-23.6-10.2-48c4.4-24.4,2.7-60,1.8-62.2
		c0,0-25.8,26.2-39.6-0.4c0,0-1.8-3.6,2.2-12.9C88.1,63.6,85.4,56.4,84.6,49.8z"/>
	<path class="st12" d="M112.1,34.7c0,0,3.6-14.7,20-15.1s16.4,5.3,25.3-0.9S165,3.1,165,3.1s1.8-6.2,4-0.4s-2.7,14.7-2.7,14.7
		s-9.3,9.8-22.2,7.1s-14.2-1.3-14.2-1.3s-8.4-1.3-14.2,11.6C115.7,34.7,112.6,37.3,112.1,34.7z"/>
	<path class="st3" d="M165,168l-0.4,8c0,0,6.2-0.9,5.8-3.1C170.3,172.9,165.9,166.7,165,168z"/>
	<path class="st3" d="M172.6,171.6l7.1,7.1l0.9-10.2C180.6,168.4,171.7,169.3,172.6,171.6z"/>
	<path class="st3" d="M155.2,268.4c0,0,6.2-6.7,10.2,0c1,1.7,1.5,3.2,1.7,4.5c0.6,4.1-1.7,6.6-1.7,6.6S153.4,272,155.2,268.4z"/>
	<path class="st3" d="M177,266.2c0,0-12-0.4-8.4,8.9c0,0,8.4,8.9,10.2,7.1C178.8,282.2,181.9,272.9,177,266.2z"/>
	<path class="st3" d="M186.3,265.3c0,0-7.1,2.7-2.7,8.9s5.3,4.9,5.3,4.9S194.8,266.2,186.3,265.3z"/>
</g>
</svg>
