<?xml version="1.0" encoding="utf-8"?>
<!-- Generator: Adobe Illustrator 23.0.6, SVG Export Plug-In . SVG Version: 6.00 Build 0)  -->
<svg version="1.1" id="Layer_1" xmlns="http://www.w3.org/2000/svg" xmlns:xlink="http://www.w3.org/1999/xlink" x="0px" y="0px"
	 viewBox="0 0 288 288" style="enable-background:new 0 0 288 288;" xml:space="preserve">
<style type="text/css">
	.st0{opacity:0.5;}
	.st1{fill:#BBB7B5;}
	.st2{fill:#A7C0DF;}
	.st3{fill:#EEECEA;}
</style>
<g class="st0">
	<path d="M234,45.4c0,0-7.6-34.9-3.1-36c4.5-1.1,20.5,36,20.5,36l7.6,2.2l-1.7,18.6L234,45.4z"/>
	<path d="M261,78.5c0,0-2.8-28.7-27-33.2c-24.2-4.5-39.4,9-39.4,9s-15.2,7.9-11.2,31.5c3.9,23.6-1.1,23.1-1.1,23.1
		s55.7,68.6,47.2,100.1s-39.9,25.9-39.9,25.9s-38.2-2.8-65.2-19.7s-64.1-18-64.1-18s-44.4,0-52.9,12.4c0,0,39.4-0.6,51.2,5.1
		l110.2,45.6l77.1-6.8l14.6-51.2l-25.9-49.5l16.3-24.2c0,0-3.9-14.6-1.1-16.3C252.5,110.6,261,78.5,261,78.5z"/>
	<path d="M250.8,128.7c0,0-5.6-9.6-15.7-2.8c-10.1,6.8-10.7,17.4-10.7,17.4s9.6,35.4,16.3,50.1c6.7,14.6-2.2,39.4-2.2,39.4
		s-6.7,13.4-22.7,20.8c-13.8,6.4-26.5,4.6-38.1,2.8c-19.4-2.9-35-10.9-46.1-18.6c-7-5.6-19.2-14.1-36.6-19.1
		c-15.1-4.4-28.1-4.5-36.6-3.9c9,4.2,22.7,10.6,39.4,18.6c24.9,11.9,27.3,13.3,39.9,19.1c31.1,14.3,46.9,21.4,62.4,23.1
		c10.7,1.1,25,1,42.2-3.9c5.5-1.9,21.8-8.2,32.6-25.3c9.2-14.4,9.5-28.8,9.6-34.3c0.1-8.6-1.4-15.6-2.8-20.2
		c-1.5-3.6-3-7.2-4.7-10.9c-5.1-11.1-10.6-21.2-16.1-30.2L250.8,128.7z"/>
	<path d="M195.2,85.9c0,0-28.1-53.4-59.6-50.1c0,0,21.4,37.7,20.2,39.9c0,0-10.1,0.6-6.7,5.1C152.5,85.3,166,94.3,166,96
		s6.7,24.7,6.7,24.7l20.8-20.2l1.7-12.4L195.2,85.9L195.2,85.9z"/>
	<path d="M270,85.3c0,0-15.7-18.6-34.3-1.7s-15.2,22.5-15.2,22.5s6.2,24.7,36,9.6C256.5,115.7,278.4,103.9,270,85.3z"/>
	<path d="M232.3,53.8c0,0-6.7,5.6,0.6,9c7.3,3.4,5.1-7.3,5.1-7.3S235.1,53.2,232.3,53.8z"/>
</g>
<g>
	<path class="st1" d="M227.2,41.4c0,0-7.6-34.9-3.1-36c4.5-1.1,20.5,36,20.5,36l7.6,2.2l-1.7,18.6L227.2,41.4z"/>
	<path class="st2" d="M254.2,74.5c0,0-2.8-28.7-27-33.2s-39.4,9-39.4,9s-15.2,7.9-11.2,31.5c3.9,23.6-1.1,23.1-1.1,23.1
		s55.7,68.6,47.2,100.1s-39.9,25.9-39.9,25.9s-38.2-2.8-65.2-19.7s-64.1-18-64.1-18s-44.4,0-52.9,12.4c0,0,39.4-0.6,51.2,5.1
		L162,256.3l77.1-6.8l14.6-51.2l-25.9-49.5l16.3-24.2c0,0-3.9-14.6-1.1-16.3C245.7,106.6,254.2,74.5,254.2,74.5z"/>
	<path class="st3" d="M244,124.6c0,0-5.6-9.6-15.7-2.8c-10.1,6.8-10.7,17.4-10.7,17.4s9.6,35.4,16.3,50.1
		c6.7,14.6-2.2,39.4-2.2,39.4s-6.7,13.4-22.7,20.8c-13.8,6.4-26.5,4.6-38.1,2.8c-19.4-2.9-35-10.9-46.1-18.6
		c-7-5.6-19.2-14.1-36.6-19.1c-15.1-4.4-28.1-4.5-36.6-3.9c9,4.2,22.7,10.6,39.4,18.6c24.9,11.9,27.3,13.3,39.9,19.1
		c31.1,14.3,46.9,21.4,62.4,23.1c10.7,1.1,25,1,42.2-3.9c5.5-1.9,21.8-8.2,32.6-25.3c9.2-14.4,9.5-28.8,9.6-34.3
		c0.1-8.6-1.4-15.6-2.8-20.2c-1.5-3.6-3-7.2-4.7-10.9c-5.1-11.1-10.6-21.2-16.1-30.2L244,124.6z"/>
	<path class="st3" d="M188.4,81.9c0,0-28.1-53.4-59.6-50.1c0,0,21.4,37.7,20.2,39.9c0,0-10.1,0.6-6.7,5.1
		c3.4,4.5,16.9,13.5,16.9,15.2s6.7,24.7,6.7,24.7l20.8-20.2l1.7-12.4L188.4,81.9L188.4,81.9z"/>
	<path class="st3" d="M263.2,81.3c0,0-15.7-18.6-34.3-1.7s-15.2,22.5-15.2,22.5s6.2,24.7,36,9.6C249.7,111.7,271.6,99.9,263.2,81.3z
		"/>
	<path class="st3" d="M225.5,49.8c0,0-6.7,5.6,0.6,9c7.3,3.4,5.1-7.3,5.1-7.3S228.3,49.2,225.5,49.8z"/>
</g>
</svg>
