<?xml version="1.0" encoding="utf-8"?>
<!-- Generator: Adobe Illustrator 23.0.6, SVG Export Plug-In . SVG Version: 6.00 Build 0)  -->
<svg version="1.1" id="Layer_1" xmlns="http://www.w3.org/2000/svg" xmlns:xlink="http://www.w3.org/1999/xlink" x="0px" y="0px"
	 viewBox="0 0 288 288" style="enable-background:new 0 0 288 288;" xml:space="preserve">
<style type="text/css">
	.st0{opacity:0.5;}
	.st1{stroke:#F4E2BF;stroke-miterlimit:10;}
	.st2{fill:#6B504C;}
	.st3{fill:#CBA47B;}
	.st4{fill:#5F3E1F;}
	.st5{fill:#DECEAF;}
	.st6{fill:#F4E2BF;}
	.st7{fill:none;stroke:#F4E2BF;stroke-miterlimit:10;}
</style>
<g class="st0">
	<path d="M123.3,270c0,0,9,3.2,11.9-1.6c2.9-4.8,13.6-18.7,13.6-18.7s3.6-5.2,1-17.1c-2.6-11.9-24.2,6.8-24.2,6.8L123.3,270z"/>
	<path d="M164.6,168.3c0,0-0.3-30,18.7-35.8c19-5.8,34.5-10.3,34.5-10.3l-11,8.1l23.6-4.5l-7.4,8.1l18.7-6.5l-2.6,10.7l4.8-1.9
		l-2.9,11.9l5.5-4.2l-7.4,19.4l11.6-12.6l2.9,0.6l-1.9,10.7l4.5-6.1l-1.6,18.7c0,0-18.7,50.4-67.1,34.5S164.6,168.3,164.6,168.3z"/>
	<path d="M64.5,107.7c0,0-28.1-27.8-29.4-51.3s-1.3-23.6-1.3-23.6s3.9-28.1,6.5-26.5s12.3,17.1,12.3,17.1s24.8,36.8,24.2,69.4
		C76.1,125.4,64.5,107.7,64.5,107.7z"/>
	<path d="M65.5,101.5c0,0-28.7-26.8-26.8-55.5s2.6-30.3,2.6-30.3s8.7,16.8,12.9,21s8.1,16.1,8.1,16.1S73,80.6,70.7,96.1l-3.3-3.3
		v6.8L63.5,97L65.5,101.5z"/>
	<path d="M65.5,101.5l-1.6-6.1l3.6,4.2l-0.6-8.1l3.9,4.5c0,0,6.5-5.5,8.7-6.5l-2.1-5.7l4.5,1.9l1.4-0.1l-0.8-8.7l10.7,6.4
		c0,0-1-10.9,0.6-11l10.5,9.6l-0.1-3.4c0,0,5.3,4.7,6.7,4.7c0,0,0.1-14,1.9-12.6L124,86.1l0.1-2.3l2.8,1.5c0,0-0.4-4.8,0.6-4.8
		c0,0,5.2,9.7,6.6,9.7c0,0,0.6-4.8,2.8-4.7c0,0,5.2,11.9,10.7,15.3c0,0,17.8-20.5,36.1-22.4c1.3-0.1,18.6-6.8,30.6-6.9
		s27.2-4.4,27.2-4.4s5.6-1.6,0.9,3.7c-4.7,5.3-10.9,13.1-10.9,13.1s-27.3,29.8-41.7,34.1s-33.3,5.8-33.3,5.8s-4.3,25.9-8,32.6
		s18.6,21.4,18.6,21.4s19,14,20.4,31.2s-2.6,43.1-2.6,43.1s-11.2,20.9-10.5,22.7s-4.2,3.9-4.2,3.9s-10.9,0.8-13.3-0.8
		c0,0-10-0.8-6.3-10c0,0,6-4.1,7.6-11.8c1.5-7.7,1.5-8.8,1.5-8.8s-7.6-9.5-6.5-14.9c0,0-17.7,6.5-19.6,8.8c0,0-5.3,25.1-8.6,26.9
		c-3.2,1.8-4.8,13.5-4.8,13.5s-1.4,9.5-17.4,6.6c0,0-5.8,1.4-8.7-7c0,0-16.8,5.8-20.8-6.2c0,0-1.1-3.4,3.5-7l-0.7-13
		c0,0-9.5-24-8-29.5S55.6,153,55.6,153l1.8-4.8c0,0,1.8-6,2.8-6.5c0,0,0.8-36.3,5.3-38.8L65.5,101.5z"/>
	<path d="M94.9,154.8c0,0,3.1-1.8,5.6,0.7c0,0-0.6,2.4-3.1,1.7S94.9,155.5,94.9,154.8z"/>
	<path d="M146.5,111c0,0,12.7-23.7,46-29.5s39.7-7.2,39.7-7.2s-24.8,28.6-33.6,33.3c-8.8,4.7-15.4,5.8-15.4,5.8l-32.2,5.5l5.2-3.9
		l-4.7-0.6l5.5-7.2C157,107.4,149.2,108.8,146.5,111z"/>
	<path d="M217.8,122.2c0,0,25.9-4.9,34.1-25.5c0,0,2.8,1.1,2.8,5.8c0,0,0.8-9.1-0.3-10.7c0,0,21.3,31.2,0.2,82.8l1.6-18.7
		c0,0-2.3,6.7-4.5,6.1c0,0,0.8-4.9-0.3-8.2l-2.2,1.1l0.3-2.8c0,0-8.8,12.7-11.3,12.9l7.4-19.6l-5,3.6l3.3-12.9c0,0-4.4,4.1-6.9,4.1
		l4.6-12.8c0,0-15.1,8.7-20.1,7.6l2.8-7.4l-19,3.6l8.5-7.7L217.8,122.2z"/>
	<path d="M57.5,148.4c0,0-13.2,5.6-16,11.1s-7.2,5.5-7.2,5.5s4.4,0.8,6.6-0.3c0,0-9.1,10.2-6.3,27.8l3.6-7.2c0,0,0,12.7,2.2,14
		l0.6-4.1c0,0,5.9,12.3,16.3,15.9c0,0,6.7,13.8,14.5,17.1s7.9,6.2,7.9,6.2l-1.7-4.3c0,0,10.4,3.6,14.9,17.2l0.9-3.9l1.5,4.1
		c0,0,3.4-9.4,4.9-9.1v4.6c0,0,8-8.7,10.1-8.5l-0.2,4l3.6-3.2l-0.1,3.8c0,0,6.2-8.2,9.4-9.2c3.2-1,6.4-5.6,6.4-5.6l4.9-2.9l0.1,4.2
		l4-4.5v2.3c0,0,9.9-8.4,13-8.8c3.1-0.4,7.9-7.5,7.9-7.5s3.6-5.9,3.5-11.6c0,0,2.7,4,3.2,4.9c0,0,1.5-3.5,1.1-7.5
		c0,0,2.6,3.2,2.7,4.9c0,0-0.1-14-3.2-18.1c0,0,3.3,2.1,4.6,1.9c0,0-3.1-2.1-2.9-3.9c0,0,4.9,1.7,6.4,1.3c0,0-7.7-6.2-11-12.9
		c-3.4-6.6-13.7-10.9-15.8-8.7c0,0-1.6,17.9-20.1,22.4s-34.7,0.9-34.7,0.9c-6-1.7-10.7-3.9-14.1-5.7c-4.5-2.4-14-7.7-21.3-18.2
		c-0.4-0.5-0.7-1-0.9-1.3c-0.2-0.8-0.5-1.9-0.5-3.2C56.5,150.7,57.1,149.2,57.5,148.4z"/>
	<path class="st1" d="M48.8,149.3"/>
</g>
<g>
	<path class="st2" d="M118.9,264.7c0,0,9,3.2,11.9-1.6c2.9-4.8,13.6-18.7,13.6-18.7s3.6-5.2,1-17.1c-2.6-11.9-24.2,6.8-24.2,6.8
		L118.9,264.7z"/>
	<path class="st2" d="M160.2,163c0,0-0.3-30,18.7-35.8s34.5-10.3,34.5-10.3l-11,8.1l23.6-4.5l-7.4,8.1l18.7-6.5l-2.6,10.7l4.8-1.9
		l-2.9,11.9l5.5-4.2l-7.4,19.4l11.6-12.6l2.9,0.6l-1.9,10.7l4.5-6.1l-1.6,18.7c0,0-18.7,50.4-67.1,34.5S160.2,163,160.2,163z"/>
	<path class="st3" d="M60.1,102.4c0,0-28.1-27.8-29.4-51.3s-1.3-23.6-1.3-23.6S33.3-0.6,35.9,1s12.3,17.1,12.3,17.1
		S73,54.9,72.4,87.5C71.7,120.1,60.1,102.4,60.1,102.4z"/>
	<path class="st4" d="M61.1,96.2c0,0-28.7-26.8-26.8-55.5s2.6-30.3,2.6-30.3s8.7,16.8,12.9,21s8.1,16.1,8.1,16.1s10.7,27.8,8.4,43.3
		L63,87.5v6.8l-3.9-2.6L61.1,96.2z"/>
	<path class="st3" d="M61.1,96.2l-1.6-6.1l3.6,4.2l-0.6-8.1l3.9,4.5c0,0,6.5-5.5,8.7-6.5L73,78.5l4.5,1.9l1.4-0.1l-0.8-8.7L88.8,78
		c0,0-1-10.9,0.6-11l10.5,9.6l-0.1-3.4c0,0,5.3,4.7,6.7,4.7c0,0,0.1-14,1.9-12.6l11.2,15.5l0.1-2.3l2.8,1.5c0,0-0.4-4.8,0.6-4.8
		c0,0,5.2,9.7,6.6,9.7c0,0,0.6-4.8,2.8-4.7c0,0,5.2,11.9,10.7,15.3c0,0,17.8-20.5,36.1-22.4c1.3-0.1,18.6-6.8,30.6-6.9
		s27.2-4.4,27.2-4.4s5.6-1.6,0.9,3.7c-4.7,5.3-10.9,13.1-10.9,13.1s-27.3,29.8-41.7,34.1s-33.3,5.8-33.3,5.8s-4.3,25.9-8,32.6
		s18.6,21.4,18.6,21.4s19,14,20.4,31.2s-2.6,43.1-2.6,43.1s-11.2,20.9-10.5,22.7s-4.2,3.9-4.2,3.9s-10.9,0.8-13.3-0.8
		c0,0-10-0.8-6.3-10c0,0,6-4.1,7.6-11.8c1.5-7.7,1.5-8.8,1.5-8.8s-7.6-9.5-6.5-14.9c0,0-17.7,6.5-19.6,8.8c0,0-5.3,25.1-8.6,26.9
		c-3.2,1.8-4.8,13.5-4.8,13.5s-1.4,9.5-17.4,6.6c0,0-5.8,1.4-8.7-7c0,0-16.8,5.8-20.8-6.2c0,0-1.1-3.4,3.5-7l-0.7-13
		c0,0-9.5-24-8-29.5s-12.5-72.5-12.5-72.5l1.8-4.8c0,0,1.8-6,2.8-6.5c0,0,0.8-36.3,5.3-38.8L61.1,96.2z"/>
	<path d="M90.5,149.5c0,0,3.1-1.8,5.6,0.7c0,0-0.6,2.4-3.1,1.7S90.5,150.2,90.5,149.5z"/>
	<path class="st4" d="M142.1,105.7c0,0,12.7-23.7,46-29.5s39.7-7.2,39.7-7.2s-24.8,28.6-33.6,33.3c-8.8,4.7-15.4,5.8-15.4,5.8
		l-32.2,5.5l5.2-3.9l-4.7-0.6l5.5-7.2C152.6,102.1,144.8,103.5,142.1,105.7z"/>
	<path class="st5" d="M213.4,116.9c0,0,25.9-4.9,34.1-25.5c0,0,2.8,1.1,2.8,5.8c0,0,0.8-9.1-0.3-10.7c0,0,21.3,31.2,0.2,82.8
		l1.6-18.7c0,0-2.3,6.7-4.5,6.1c0,0,0.8-4.9-0.3-8.2l-2.2,1.1l0.3-2.8c0,0-8.8,12.7-11.3,12.9l7.4-19.6l-5,3.6l3.3-12.9
		c0,0-4.4,4.1-6.9,4.1l4.6-12.8c0,0-15.1,8.7-20.1,7.6l2.8-7.4l-19,3.6l8.5-7.7L213.4,116.9z"/>
	<path class="st6" d="M53.1,143.1c0,0-13.2,5.6-16,11.1s-7.2,5.5-7.2,5.5s4.4,0.8,6.6-0.3c0,0-9.1,10.2-6.3,27.8l3.6-7.2
		c0,0,0,12.7,2.2,14l0.6-4.1c0,0,5.9,12.3,16.3,15.9c0,0,6.7,13.8,14.5,17.1s7.9,6.2,7.9,6.2l-1.7-4.3c0,0,10.4,3.6,14.9,17.2
		l0.9-3.9l1.5,4.1c0,0,3.4-9.4,4.9-9.1v4.6c0,0,8-8.7,10.1-8.5l-0.2,4l3.6-3.2l-0.1,3.8c0,0,6.2-8.2,9.4-9.2c3.2-1,6.4-5.6,6.4-5.6
		l4.9-2.9l0.1,4.2l4-4.5v2.3c0,0,9.9-8.4,13-8.8c3.1-0.4,7.9-7.5,7.9-7.5s3.6-5.9,3.5-11.6c0,0,2.7,4,3.2,4.9c0,0,1.5-3.5,1.1-7.5
		c0,0,2.6,3.2,2.7,4.9c0,0-0.1-14-3.2-18.1c0,0,3.3,2.1,4.6,1.9c0,0-3.1-2.1-2.9-3.9c0,0,4.9,1.7,6.4,1.3c0,0-7.7-6.2-11-12.9
		c-3.4-6.6-13.7-10.9-15.8-8.7c0,0-1.6,17.9-20.1,22.4s-34.7,0.9-34.7,0.9c-6-1.7-10.7-3.9-14.1-5.7c-4.5-2.4-14-7.7-21.3-18.2
		c-0.4-0.5-0.7-1-0.9-1.3c-0.2-0.8-0.5-1.9-0.5-3.2C52.1,145.4,52.7,143.9,53.1,143.1z"/>
	<path class="st7" d="M44.4,144"/>
</g>
</svg>
