<?xml version="1.0" encoding="utf-8"?>
<!-- Generator: Adobe Illustrator 23.0.6, SVG Export Plug-In . SVG Version: 6.00 Build 0)  -->
<svg version="1.1" id="Layer_1" xmlns="http://www.w3.org/2000/svg" xmlns:xlink="http://www.w3.org/1999/xlink" x="0px" y="0px"
	 viewBox="0 0 288 288" style="enable-background:new 0 0 288 288;" xml:space="preserve">
<style type="text/css">
	.st0{opacity:0.5;}
	.st1{fill:#CF9290;}
	.st2{fill:#EAEBED;}
</style>
<g class="st0">
	<path d="M16,172.3c0,0,31.9,34.2,130.7,30s134.8-47.1,134.8-47.1s0.9,123.3-126.1,130.7C28.4,293.2,16,172.3,16,172.3z"/>
	<path d="M55.2,207.3c0,0,109.9,25.9,146.8,7.4c0,0-10.2,47.6-73.9,34.2C64.4,235.5,55.2,207.3,55.2,207.3z"/>
	<path d="M16,173.9c0,0-28.2-139.4,120-154.2s145.4,137.1,145.4,137.1s-52.6,56.8-151.4,48C31.2,196.1,16,173.9,16,173.9z"/>
</g>
<g>
	<path class="st1" d="M10.3,164.3c0,0,31.9,34.2,130.7,30s134.8-47.1,134.8-47.1s0.9,123.3-126.1,130.7
		C22.7,285.2,10.3,164.3,10.3,164.3z"/>
	<path class="st2" d="M49.5,199.3c0,0,109.9,25.9,146.8,7.4c0,0-10.2,47.6-73.9,34.2S49.5,199.3,49.5,199.3z"/>
	<path class="st2" d="M10.3,165.9c0,0-28.2-139.4,120-154.2s145.4,137.1,145.4,137.1s-52.6,56.8-151.4,48
		C25.5,188.1,10.3,165.9,10.3,165.9z"/>
</g>
</svg>
