<?xml version="1.0" encoding="utf-8"?>
<!-- Generator: Adobe Illustrator 23.0.6, SVG Export Plug-In . SVG Version: 6.00 Build 0)  -->
<svg version="1.1" id="Layer_1" xmlns="http://www.w3.org/2000/svg" xmlns:xlink="http://www.w3.org/1999/xlink" x="0px" y="0px"
	 viewBox="0 0 288 288" style="enable-background:new 0 0 288 288;" xml:space="preserve">
<style type="text/css">
	.st0{opacity:0.5;}
	.st1{fill:#AEB1B4;}
	.st2{fill:#7F6E5C;}
	.st3{fill:#0B2339;}
	.st4{fill:#F5D38C;}
	.st5{fill:#546878;}
	.st6{fill:#D0ABAD;}
	.st7{fill:#FFFFFF;}
</style>
<g class="st0">
	<polygon points="77.4,236.8 82.3,243.7 76.4,245.2 	"/>
	<polygon points="154.1,248.6 146.7,253.5 153.6,257 	"/>
	<path d="M138.8,226.5c0,0,28.5,12.8,52.1-5.9s28-25.6,28-25.6s13.3-9.3,15.2-0.5c2,8.9-20.2,26.1-20.2,26.1s-42.8,38.8-91.5,7.4
		C122.6,227.9,127.5,220.1,138.8,226.5z"/>
	<path d="M138.3,236.8c0,0,7.9-2,5.4-7.9l-13.3-7.9l-7.9,6.9C122.6,227.9,135.9,237.8,138.3,236.8z"/>
	<path d="M147.2,238.8c0,0,6.4-3,3.9-7.9l7.4-0.5c0,0,5.9,4.9,0.5,9.8L147.2,238.8z"/>
	<path d="M181.1,226.5c0,0,5.4,2.5,1.5,9.8c0,0,8.9,0,10.8-3.9c0,0,4.4-8.9-3-9.3C190.5,223,187.5,224,181.1,226.5z"/>
	<path d="M196.8,215.2c0,0,10.8,3.4,7.4,11.8l9.8-6.4c0,0,3-11.3-9.8-11.3L196.8,215.2z"/>
	<path d="M210.6,204.3c0,0,12.8-3.9,11.3,10.3l9.3-10.8c0,0-0.5-13.3-12.3-8.9L210.6,204.3z"/>
	<path d="M101,131.6c0,0-1.5-3.4-5.9-6.9C90.7,121.3,73,89.8,73,89.8l-2,3.9l-2-6.4l-4.9,9.3c0,0-3-11.3-1.5-13.8l-7.9,2.5L65,60.7
		c0,0,17.7-28,39.3-40.8c0,0,6.4-5.9,12.8-4.9s11.3,0,11.3,0s12.4-4.4,17.8,17.7l-3.4,5.4c0,0,1,8.4-6.9,8.9s-13.3-0.5-13.3-0.5
		S98.5,58.3,94.1,71.6L90.2,77c0,0-5.4,1,5.4,16.7s16.2,30.5,16.2,30.5L101,131.6z"/>
	<polygon points="97,126.2 98.5,117.3 109.8,125.7 101,131.6 	"/>
	<path d="M91.1,118.8L95,108l-3.4-6.4c0,0-5.9,0.5-4.4,12.3L91.1,118.8z"/>
	<path d="M81.3,105c0,0,3.4-11.8,13.8-9.3l-3.4-7.9c0,0-14.8-0.5-13.8,9.3L81.3,105z"/>
	<path d="M65.1,60.8c0,0,6.9,14.8,14.3,14.3l-2-3.9l5.9,2.5l-3.5-3.6l3.9,1c0,0-11.3-11.3-9.3-23.1L65.1,60.8z"/>
	<path d="M82.8,50.4c0,0,0.5,10.3,18.2,10.3l-6.9,10.9c0,0-12.8-4.9-13.3-11.3l4.4,0.5l-6.4-5.4l4.4,2L82.8,50.4z"/>
	<path d="M85.7,36.7c0,0-4.9,18.7,17.2,22.6l6.4-5.4c0,0-18.2-3-15.7-26.6L85.7,36.7z"/>
	<path d="M100,89.3l-5.9-6.9c0,0-8.9,1.5-9.8-4.9c-1-6.4,3.9-7.9,3.9-7.9s9.8-2.5,10.3,4.9s-3,5.4-3,5.4l9.8,6.9L100,89.3z"/>
	<path d="M101,131.6c0,0-35.9,27-24.6,71.8l-18.2,14.2c0,0-5.9,13.8-5.9,15.7c0,0-20.7,12.8-23.1,11.3s-2,8.4-2,8.4l5.9,7.9
		l10.3,1.5c0,0,8.4,2.5,15.2-3.9c6.8-6.4,17.7-13.3,17.7-13.3s5.9-4.9-2-12.3c0,0,7.4-13.8,15.7-14.3c0,0,28.5,19.2,57,4.4
		c0,0,11.3,4.9,11.8,10.3c0.5,5.4-0.5,11.8-0.5,11.8s-11.3,7.4-5.4,15.7c5.9,8.4,7.4,7.9,7.4,7.9s5.4,2,12.8,1.5l5.9,2.5l23.6-3.4
		l1-6.9c0,0,0-4.9-7.4-7.4c-7.4-2.5-18.7-7.4-18.7-7.4v-18.7c0,0,0-3.9-4.9-7.4c-4.9-3.4-14.3-12.8-14.3-12.8s14.8-44.3,0.5-67.9
		c0,0,22.1-11.3,31.5-12.8c0,0,31.5,7.9,32.5,11.3c0,0,2.5,12.8,13.8,13.8s11.8-3.9,11.8-3.9s11.8,8.9,13.8,7.9s2-1,2-1
		s11.3,4.4,13.8,2c0,0,4.4,2.5,5.9-3.4s1.5-15.7,1.5-15.7s-2.5-19.2-17.7-24.6s-61.5-9.8-61.5-9.8l-3.4-6.4l-3.9,4.9l-14.3-3.9
		c0,0,2.5,8.4,5.4,8.4l-8.4,1l4.9,4.4c0,0-20.2,2-21.1,3.9l-6.4-1.5c0,0,20.2-10.3,6.4-23.1s-15.7-6.9-15.7-6.9l5.9-3.9
		c0,0,12.8,3,11.8-6.9s-11.4-5-11.4-5s-5.4,4.4-3,8.4l-5.4,3c0,0-16.7-7.9-22.6-5.4c0,0,18.2-30.5,14.3-41.3
		c0,0-20.2,11.8-22.6,41.8l-2,1.5c0,0-3.4-36.4-7.4-37.9c0,0-6.4,25.6-1,41.3c0,0-9.8,7.4-9.3,9.8c0,0-8.9,3.9-8.4,9.3
		s3.9,12.8,3.9,12.8s2,13.3,9.8,13.3h5.4l-2,3L101,131.6z"/>
	<path d="M55.7,223.5c0,0,9.8,7.9,20.2,4.9l-2,6.9c0,0-13.8,11.3-21.6-2L55.7,223.5z"/>
	<path d="M159,240.2c0,0,16.2,2.5,17.7-0.5l1,7.9c0,0,0.5,8.1-14.2,1.5c-0.6-0.3-1.3-0.6-2-1l-3-3l3.9-0.5L159,240.2z"/>
	<path d="M156.5,228.4c0,0,7.9-8.9,16.2-6.9l-12.3-10.8c0,0-13.8,5.9-10.3,13.3L156.5,228.4z"/>
	<path d="M67.5,211.2c0,0,11.3,12.8,13.3,12.3c0,0,5.9-6.4,9.3-4.9c0,0-14.8-11.3-13.8-15.2L67.5,211.2z"/>
	<path d="M163.9,168.9c0,0-24.1,20.7-33.4,21.6h5.9l-20.7,12.3c0,0,6.9,0.5,8.9-1l-3,3.9c0,0,38.4-9.8,41.8-19.2
		C163.4,186.6,167.3,171.9,163.9,168.9z"/>
	<path d="M100,89.3l4.9,14.3c0,0,18.2-18.7,22.6-18.2l-1,3l6.4-3.4c0,0-28.5,30.5-28,33.4C104.9,118.3,95.1,105,100,89.3z"/>
	<path d="M246.5,109.9c-1.5,0-16.7,2.5-18.2,11.3l-1.5-3.9l-2.5,3.9l-1-3.9l-4.4,10.3c0,0-3.9-16.2,11.3-20.7L246.5,109.9z"/>
	<path d="M217,135.5c0,0-7.9-13.3,2.5-24.6l-4.9,1.5l0.5-3.4l-4.4,6.4v-4.9c0,0-11.8,7.4-4.9,21.6L217,135.5z"/>
	<path d="M206.2,104.5c0,0-12.8,4.9-11.3,16.7l4.4-6.4l0.5,4.9c0,0,6.9-13.8,13.8-13.8L206.2,104.5z"/>
	<path d="M186.5,112.9c0,0-6.9,3.4-4.4,13.8l-2.5-3l0.5,6.9c0,0-6.4-10.8-3.9-15.2L186.5,112.9z"/>
	<path d="M168.8,135c0,0-3.9-12.3,1.5-17.7l1,4.4l2.5-3c0,0-2,9.3,3.9,12.8L168.8,135z"/>
	<path d="M159,140.9c0,0-15.2-5.4,0-23.6l2-2l4.4,1.5c0,0-7.9,15.2,1.5,18.7L159,140.9z"/>
	<path d="M105.9,139.4c0,0-25.1,14.3-26.6,20.7s-4.4,13.8-4.4,13.8s27-8.9,35.9-5.9c0,0-21.1,20.1-27.6,30.5
		c-1.3,2.1-2.1,3.8-1.9,4.9l3.4-3l-2,8.9c0,0,45.2-38.8,63.9-40.8l-3.9-1l8.9-2l-30.5-5.4c0,0,26.1-30.5,27.5-37.4
		c0,0-11.3,6.9-12.3,11.8C135.4,139.4,119.7,153.2,105.9,139.4z"/>
	<path d="M109.8,125.7c0,0,15.7-3.9,18.2-6.9l6.9,3c0,0-0.5,15.7-6.9,17.7c-6.4,2-11.3,0-11.3,0c-0.6,0.1-1.5,0.2-2.5,0
		c-2-0.3-3.4-1.4-3.9-2c-0.5-1-1.1-2.3-1.4-4.1C108.3,129.9,109.3,127,109.8,125.7z"/>
	<polygon points="128,118.8 138.8,126.7 136.4,114.4 	"/>
	<path d="M31.6,246.6c0,0-12.8,4.4-14.8,3.9s-4.9,8.4-4.9,8.4s13.3-3.9,16.2-1l-2,8.9c0,0,7.4-5.4,16.7-2.5c0,0,6.4-7.9,1.5-13.3
		L31,255.4C31.1,255.5,32.6,250.1,31.6,246.6z"/>
	<path d="M181.6,261.4c0,0,6.4,6.4,10.3,5.4c3.9-1,0.5,15.2,0.5,15.2s-5.4-7.4-10.8-8.4c-5.4-1-5.9-3.4-5.9-3.4
		S177.7,262.9,181.6,261.4z"/>
	<path d="M197.3,269.2c0,0-0.5-10.3,2.5-10.3s13.3,6.4,13.3,6.4l1.5,9.3C214.6,274.7,207.7,268.3,197.3,269.2z"/>
</g>
<g>
	<polygon class="st1" points="72.6,231.2 77.5,238.1 71.6,239.6 	"/>
	<polygon class="st1" points="149.3,243 141.9,247.9 148.8,251.4 	"/>
	<path class="st2" d="M134,220.9c0,0,28.5,12.8,52.1-5.9s28-25.6,28-25.6s13.3-9.3,15.2-0.5c2,8.9-20.2,26.1-20.2,26.1
		s-42.8,38.8-91.5,7.4C117.8,222.3,122.7,214.5,134,220.9z"/>
	<path class="st3" d="M133.5,231.2c0,0,7.9-2,5.4-7.9l-13.3-7.9l-7.9,6.9C117.8,222.3,131.1,232.2,133.5,231.2z"/>
	<path class="st3" d="M142.4,233.2c0,0,6.4-3,3.9-7.9l7.4-0.5c0,0,5.9,4.9,0.5,9.8L142.4,233.2z"/>
	<path class="st3" d="M176.3,220.9c0,0,5.4,2.5,1.5,9.8c0,0,8.9,0,10.8-3.9c0,0,4.4-8.9-3-9.3C185.7,217.4,182.7,218.4,176.3,220.9z
		"/>
	<path class="st3" d="M192,209.6c0,0,10.8,3.4,7.4,11.8l9.8-6.4c0,0,3-11.3-9.8-11.3L192,209.6z"/>
	<path class="st3" d="M205.8,198.7c0,0,12.8-3.9,11.3,10.3l9.3-10.8c0,0-0.5-13.3-12.3-8.9L205.8,198.7z"/>
	<path class="st2" d="M96.2,126c0,0-1.5-3.4-5.9-6.9c-4.4-3.4-22.1-34.9-22.1-34.9l-2,3.9l-2-6.4L59.3,91c0,0-3-11.3-1.5-13.8
		l-7.9,2.5l10.3-24.6c0,0,17.7-28,39.3-40.8c0,0,6.4-5.9,12.8-4.9s11.3,0,11.3,0S136,5,141.4,27.1l-3.4,5.4c0,0,1,8.4-6.9,8.9
		s-13.3-0.5-13.3-0.5S93.7,52.7,89.3,66l-3.9,5.4c0,0-5.4,1,5.4,16.7s16.2,30.5,16.2,30.5L96.2,126z"/>
	<polygon class="st3" points="92.2,120.6 93.7,111.7 105,120.1 96.2,126 	"/>
	<path class="st3" d="M86.3,113.2l3.9-10.8L86.8,96c0,0-5.9,0.5-4.4,12.3L86.3,113.2z"/>
	<path class="st3" d="M76.5,99.4c0,0,3.4-11.8,13.8-9.3l-3.4-7.9c0,0-14.8-0.5-13.8,9.3L76.5,99.4z"/>
	<path class="st3" d="M60.3,55.2c0,0,6.9,14.8,14.3,14.3l-2-3.9l5.9,2.5L75,64.5l3.9,1c0,0-11.3-11.3-9.3-23.1L60.3,55.2z"/>
	<path class="st3" d="M78,44.8c0,0,0.5,10.3,18.2,10.3L89.3,66c0,0-12.8-4.9-13.3-11.3l4.4,0.5L74,49.8l4.4,2L78,44.8z"/>
	<path class="st3" d="M80.9,31.1c0,0-4.9,18.7,17.2,22.6l6.4-5.4c0,0-18.2-3-15.7-26.6L80.9,31.1z"/>
	<path class="st2" d="M95.2,83.7l-5.9-6.9c0,0-8.9,1.5-9.8-4.9c-1-6.4,3.9-7.9,3.9-7.9s9.8-2.5,10.3,4.9s-3,5.4-3,5.4l9.8,6.9
		L95.2,83.7z"/>
	<path class="st4" d="M96.2,126c0,0-35.9,27-24.6,71.8L53.4,212c0,0-5.9,13.8-5.9,15.7c0,0-20.7,12.8-23.1,11.3s-2,8.4-2,8.4
		l5.9,7.9l10.3,1.5c0,0,8.4,2.5,15.2-3.9s17.7-13.3,17.7-13.3s5.9-4.9-2-12.3c0,0,7.4-13.8,15.7-14.3c0,0,28.5,19.2,57,4.4
		c0,0,11.3,4.9,11.8,10.3c0.5,5.4-0.5,11.8-0.5,11.8s-11.3,7.4-5.4,15.7c5.9,8.4,7.4,7.9,7.4,7.9s5.4,2,12.8,1.5l5.9,2.5l23.6-3.4
		l1-6.9c0,0,0-4.9-7.4-7.4s-18.7-7.4-18.7-7.4v-18.7c0,0,0-3.9-4.9-7.4c-4.9-3.4-14.3-12.8-14.3-12.8s14.8-44.3,0.5-67.9
		c0,0,22.1-11.3,31.5-12.8c0,0,31.5,7.9,32.5,11.3c0,0,2.5,12.8,13.8,13.8s11.8-3.9,11.8-3.9s11.8,8.9,13.8,7.9s2-1,2-1
		s11.3,4.4,13.8,2c0,0,4.4,2.5,5.9-3.4s1.5-15.7,1.5-15.7s-2.5-19.2-17.7-24.6c-15.2-5.4-61.5-9.8-61.5-9.8l-3.4-6.4l-3.9,4.9
		l-14.3-3.9c0,0,2.5,8.4,5.4,8.4l-8.4,1l4.9,4.4c0,0-20.2,2-21.1,3.9l-6.4-1.5c0,0,20.2-10.3,6.4-23.1s-15.7-6.9-15.7-6.9l5.9-3.9
		c0,0,12.8,3,11.8-6.9s-11.4-5-11.4-5s-5.4,4.4-3,8.4l-5.4,3c0,0-16.7-7.9-22.6-5.4c0,0,18.2-30.5,14.3-41.3
		c0,0-20.2,11.8-22.6,41.8l-2,1.5c0,0-3.4-36.4-7.4-37.9c0,0-6.4,25.6-1,41.3c0,0-9.8,7.4-9.3,9.8c0,0-8.9,3.9-8.4,9.3
		s3.9,12.8,3.9,12.8s2,13.3,9.8,13.3h5.4l-2,3L96.2,126z"/>
	<path class="st5" d="M50.9,217.9c0,0,9.8,7.9,20.2,4.9l-2,6.9c0,0-13.8,11.3-21.6-2L50.9,217.9z"/>
	<path class="st5" d="M154.2,234.6c0,0,16.2,2.5,17.7-0.5l1,7.9c0,0,0.5,8.1-14.2,1.5c-0.6-0.3-1.3-0.6-2-1l-3-3l3.9-0.5
		L154.2,234.6z"/>
	<path class="st5" d="M151.7,222.8c0,0,7.9-8.9,16.2-6.9l-12.3-10.8c0,0-13.8,5.9-10.3,13.3L151.7,222.8z"/>
	<path class="st5" d="M62.7,205.6c0,0,11.3,12.8,13.3,12.3c0,0,5.9-6.4,9.3-4.9c0,0-14.8-11.3-13.8-15.2L62.7,205.6z"/>
	<path class="st5" d="M159.1,163.3c0,0-24.1,20.7-33.4,21.6h5.9l-20.7,12.3c0,0,6.9,0.5,8.9-1l-3,3.9c0,0,38.4-9.8,41.8-19.2
		C158.6,181,162.5,166.3,159.1,163.3z"/>
	<path class="st5" d="M95.2,83.7l4.9,14.3c0,0,18.2-18.7,22.6-18.2l-1,3l6.4-3.4c0,0-28.5,30.5-28,33.4
		C100.1,112.7,90.3,99.4,95.2,83.7z"/>
	<path class="st5" d="M241.7,104.3c-1.5,0-16.7,2.5-18.2,11.3l-1.5-3.9l-2.5,3.9l-1-3.9l-4.4,10.3c0,0-3.9-16.2,11.3-20.7
		L241.7,104.3z"/>
	<path class="st5" d="M212.2,129.9c0,0-7.9-13.3,2.5-24.6l-4.9,1.5l0.5-3.4l-4.4,6.4v-4.9c0,0-11.8,7.4-4.9,21.6L212.2,129.9z"/>
	<path class="st5" d="M201.4,98.9c0,0-12.8,4.9-11.3,16.7l4.4-6.4l0.5,4.9c0,0,6.9-13.8,13.8-13.8L201.4,98.9z"/>
	<path class="st5" d="M181.7,107.3c0,0-6.9,3.4-4.4,13.8l-2.5-3l0.5,6.9c0,0-6.4-10.8-3.9-15.2L181.7,107.3z"/>
	<path class="st5" d="M164,129.4c0,0-3.9-12.3,1.5-17.7l1,4.4l2.5-3c0,0-2,9.3,3.9,12.8L164,129.4z"/>
	<path class="st5" d="M154.2,135.3c0,0-15.2-5.4,0-23.6l2-2l4.4,1.5c0,0-7.9,15.2,1.5,18.7L154.2,135.3z"/>
	<path class="st5" d="M101.1,133.8c0,0-25.1,14.3-26.6,20.7s-4.4,13.8-4.4,13.8s27-8.9,35.9-5.9c0,0-21.1,20.1-27.6,30.5
		c-1.3,2.1-2.1,3.8-1.9,4.9l3.4-3l-2,8.9c0,0,45.2-38.8,63.9-40.8l-3.9-1l8.9-2l-30.5-5.4c0,0,26.1-30.5,27.5-37.4
		c0,0-11.3,6.9-12.3,11.8C130.6,133.8,114.9,147.6,101.1,133.8z"/>
	<path class="st6" d="M105,120.1c0,0,15.7-3.9,18.2-6.9l6.9,3c0,0-0.5,15.7-6.9,17.7s-11.3,0-11.3,0c-0.6,0.1-1.5,0.2-2.5,0
		c-2-0.3-3.4-1.4-3.9-2c-0.5-1-1.1-2.3-1.4-4.1C103.5,124.3,104.5,121.4,105,120.1z"/>
	<polygon class="st7" points="123.2,113.2 134,121.1 131.6,108.8 	"/>
	<path class="st7" d="M26.8,241c0,0-12.8,4.4-14.8,3.9s-4.9,8.4-4.9,8.4s13.3-3.9,16.2-1l-2,8.9c0,0,7.4-5.4,16.7-2.5
		c0,0,6.4-7.9,1.5-13.3l-13.3,4.4C26.3,249.9,27.8,244.5,26.8,241z"/>
	<path class="st7" d="M176.8,255.8c0,0,6.4,6.4,10.3,5.4c3.9-1,0.5,15.2,0.5,15.2s-5.4-7.4-10.8-8.4c-5.4-1-5.9-3.4-5.9-3.4
		S172.9,257.3,176.8,255.8z"/>
	<path class="st7" d="M192.5,263.6c0,0-0.5-10.3,2.5-10.3s13.3,6.4,13.3,6.4l1.5,9.3C209.8,269.1,202.9,262.7,192.5,263.6z"/>
</g>
</svg>
