<?xml version="1.0" encoding="utf-8"?>
<!-- Generator: Adobe Illustrator 23.0.6, SVG Export Plug-In . SVG Version: 6.00 Build 0)  -->
<svg version="1.1" id="Layer_1" xmlns="http://www.w3.org/2000/svg" xmlns:xlink="http://www.w3.org/1999/xlink" x="0px" y="0px"
	 viewBox="0 0 288 288" style="enable-background:new 0 0 288 288;" xml:space="preserve">
<style type="text/css">
	.st0{opacity:0.5;}
	.st1{fill:#565050;}
	.st2{fill:#F8E5A5;}
	.st3{fill:#E7D0D1;}
	.st4{fill:#F4DADC;}
	.st5{fill:#F6E6E7;}
	.st6{fill:#AF90A0;}
	.st7{fill:#8E7C82;}
</style>
<g class="st0">
	<polygon points="61.5,70.9 64.4,66.9 73.4,70.9 77.3,65.8 82.9,66.9 86.3,58.5 98.7,61.3 106,70.3 100.4,81.5 102.6,92.2 
		94.2,100.1 67.2,87.2 62.1,75.4 	"/>
	<path d="M67.2,87.2c0,0,11.2-21.4,36-9.6l-2.8,3.9l2.2,10.7l-8.4,7.9L67.2,87.2z"/>
	<path d="M170.1,83.8c0,0,4.5-25.9,21.4-31.5c0,0,14.6-17.4,36.6-2.2s22.4,52.8,22.4,52.8l-47.2,47.2l-22.5-7.3L170.1,83.8z"/>
	<path d="M61.5,70.9l0.6,4.5l5.6,1.7l-0.6,10.1l13-1.2c0,0,6.2,6.7,10.7,6.7l3.4,7.3c0,0,6.2-8.4,8.4-7.9l-2.2-10.7l5.6-11.2l-7.3-9
		c0,0,25.9,11.2,26.4,25.3s-30.4,54.6-30.4,54.6l-38.2-19.6C56.5,121.5,35.7,99.5,61.5,70.9z"/>
	<path d="M199.9,145.1c0,0-2.8-46.7,40.5-44.4s45,47.8,45,47.8s2.8,35.4-25.3,48.4c-28.1,12.9-48.4-19.1-48.4-19.1L199.9,145.1z"/>
	<path d="M94.7,141.2c0,0,3.4-65.8,48.9-64.7c45.6,1.1,52.3,50.1,52.3,50.1l1.1,25.3l-53.4,35.4C143.7,187.3,99.8,187.3,94.7,141.2z
		"/>
	<path d="M70.5,122c0,0-47.2-18-61.9,45c0,0-6.7,59.1,40.5,60.2s52.9-30.4,52.9-30.4S120,146.2,70.5,122z"/>
	<path d="M207.8,144.5c0,0-57.9-8.4-70.3,52.9s50.6,64.7,50.6,64.7c4.5-0.4,25.2-2.8,38.8-20.2c10.7-13.7,10.7-28.6,10.7-40.5
		c0-8.9,0-34.1-18-49.5C215.2,148,210.8,145.8,207.8,144.5z"/>
	<path d="M165,228.9l22.5,6.7C187.5,235.7,177.4,220.5,165,228.9z"/>
	<path d="M210,100.1l22.5,0.6C232.5,100.7,225.8,86,210,100.1z"/>
</g>
<g>
	<polygon class="st1" points="56,66.9 58.9,62.9 67.9,66.9 71.8,61.8 77.4,62.9 80.8,54.5 93.2,57.3 100.5,66.3 94.9,77.5 
		97.1,88.2 88.7,96.1 61.7,83.2 56.6,71.4 	"/>
	<path class="st2" d="M61.7,83.2c0,0,11.2-21.4,36-9.6l-2.8,3.9l2.2,10.7l-8.4,7.9L61.7,83.2z"/>
	<path class="st3" d="M164.6,79.8c0,0,4.5-25.9,21.4-31.5c0,0,14.6-17.4,36.6-2.2S245,98.9,245,98.9l-47.2,47.2l-22.5-7.3
		L164.6,79.8z"/>
	<path class="st3" d="M56,66.9l0.6,4.5l5.6,1.7l-0.6,10.1l13-1.2c0,0,6.2,6.7,10.7,6.7l3.4,7.3c0,0,6.2-8.4,8.4-7.9l-2.2-10.7
		l5.6-11.2l-7.3-9c0,0,25.9,11.2,26.4,25.3s-30.4,54.6-30.4,54.6L51,117.5C51,117.5,30.2,95.5,56,66.9z"/>
	<path class="st4" d="M194.4,141.1c0,0-2.8-46.7,40.5-44.4s45,47.8,45,47.8s2.8,35.4-25.3,48.4c-28.1,12.9-48.4-19.1-48.4-19.1
		L194.4,141.1z"/>
	<path class="st4" d="M89.2,137.2c0,0,3.4-65.8,48.9-64.7c45.6,1.1,52.3,50.1,52.3,50.1l1.1,25.3l-53.4,35.4
		C138.2,183.3,94.3,183.3,89.2,137.2z"/>
	<path class="st5" d="M65,118c0,0-47.2-18-61.9,45c0,0-6.7,59.1,40.5,60.2s52.9-30.4,52.9-30.4S114.5,142.2,65,118z"/>
	<path class="st5" d="M202.3,140.5c0,0-57.9-8.4-70.3,52.9s50.6,64.7,50.6,64.7c4.5-0.4,25.2-2.8,38.8-20.2
		c10.7-13.7,10.7-28.6,10.7-40.5c0-8.9,0-34.1-18-49.5C209.7,144,205.3,141.8,202.3,140.5z"/>
	<path class="st6" d="M159.5,224.9l22.5,6.7C182,231.7,171.9,216.5,159.5,224.9z"/>
	<path class="st7" d="M204.5,96.1l22.5,0.6C227,96.7,220.3,82,204.5,96.1z"/>
</g>
</svg>
