<?xml version="1.0" encoding="utf-8"?>
<!-- Generator: Adobe Illustrator 23.0.6, SVG Export Plug-In . SVG Version: 6.00 Build 0)  -->
<svg version="1.1" id="Layer_1" xmlns="http://www.w3.org/2000/svg" xmlns:xlink="http://www.w3.org/1999/xlink" x="0px" y="0px"
	 viewBox="0 0 288 288" style="enable-background:new 0 0 288 288;" xml:space="preserve">
<style type="text/css">
	.st0{opacity:0.5;}
	.st1{fill:#D1D4DA;}
	.st2{fill:#B0B3C6;}
	.st3{fill:#C2A5C1;}
	.st4{fill:#B2AA98;}
	.st5{fill:#847F7C;}
	.st6{fill:#C7BEA5;}
	.st7{fill:#78AC80;}
	.st8{fill:#BFB5A9;}
	.st9{fill:#EAE4C5;}
	.st10{fill:#ECEEF0;}
	.st11{fill:#F4F0CE;}
	.st12{fill:#C3A9B1;}
	.st13{fill:#8D7479;}
	.st14{fill:#FFFFFF;}
</style>
<g class="st0">
	<path d="M79.4,230.6c0,0-13.7-5.7-11.9-1.3c1.8,4.4,8.8,8.4,8.8,8.4L79.4,230.6z"/>
	<path d="M83.3,149.8c0,0,0.4,5.7,2.2,5.3c1.8-0.4,1.8-6.2,1.8-6.2L83.3,149.8z"/>
	<path d="M91.3,156.8c0,0-8,0.4-5.3,12.4C86,169.2,93.1,169.6,91.3,156.8z"/>
	<path d="M84.7,137.3c0,0-0.9,4.4-3.5,4.4s-4,4-4,4s1.3,5.7,13.3,4c0,0,2.7,13.3-4.4,19.4c0,0,4.4,8.4,9.3,4.4s19.9-31.4,19.9-31.4
		l-4-6.6L84.7,137.3z"/>
	<path d="M115.6,232.4c0,0-8.4-6.2-14.6,2.7c0,0-15.9-13.3-21.7-4.4c-5.7,8.8-2.2,15.9-2.2,15.9l23.4,22.1c0,0,6.2,3.5,10.2-8
		c0,0,9.3-6.6,26.5-4C154.5,259.3,115.6,232.4,115.6,232.4z"/>
	<path d="M77.2,246.5c0,0,12.4,24.3,23.4,22.1c0,0,8.4-6.2-7.1-25.2S76.7,245.6,77.2,246.5z"/>
	<path d="M86,235c0,0-5.7-13.7-3.1-12.8s11,8.4,11,8.4S92.6,238.1,86,235z"/>
	<path d="M113,141.8c0,0-43.3-19.9-81.8,34c0,0-3.5-30.1,43.7-45.1c0,0-35.8-3.1-57,9.7c0,0,18.6-40.2,90.2-19
		c0,0-51.7-35.8-93.2-27c0,0,29.2-41.5,96.3,7.1L70.1,32.6c0,0,37.1,18.1,53,59.2c0,0-4.4-31.8-1.8-33.6c0,0,7.5,38.9,9.3,39.8
		c0,0-4.4-56.1,42.9-80c0,0-33.1,52.1-30.9,87.9c0,0,31.8-87.9,92.8-79.1c0,0-45.1,21.7-54.8,45.5c0,0,49.5-32.3,68.1-23.9
		c0,0-68.5,32.7-80,55.2c0,0,53-34.9,105.2-4.4c0,0-70.7-7.1-95.9,17.7c0,0,65.4-19.4,78.7,30.1c0,0-49.9-37.6-85.7-12.4l-23.9,33.6
		l-9.7-1.8L113,141.8z"/>
	<path d="M114.7,197.4c0,0-9.7,51.7,22.5,59.2c32.3,7.5,38.9,1.8,38.9,1.8s11.9,0.4,16.8,3.1c0,0,9.3,14.1,15.9,11
		c6.6-3.1,11.9-11,11.9-11s7.1-23.4-2.7-31.8c-9.7-8.4-17.7-4.9-17.7-4.9s0.4-27.8-19.9-42c-20.3-14.1-33.6-14.6-33.6-14.6l-5.7-1.3
		L114.7,197.4z"/>
	<path d="M201.3,235c0,0-15.9,6.2-4.9,24.3s15.5,11.5,15.5,11.5s12.4-5.7,8.8-23S201.3,235,201.3,235z"/>
	<path d="M187.6,235.9c0,0-6.2-12.4-3.1-12.4c3.1,0,10.6,5.7,10.6,5.7S194.7,237.2,187.6,235.9z"/>
	<path d="M206.6,228.8c0,0,1.3-15.9,5.3-14.6c4,1.3,6.2,15.5,6.2,15.5S211.1,231.5,206.6,228.8z"/>
	<path d="M113,141.8c0,0-17.7,3.5-19,18.6c0,0-9.7,2.2-2.2,7.5c0,0-3.1,26.5,23,29.6s28.3-27.4,28.3-27.4S145.7,140,113,141.8z"/>
	<path d="M162,133.4c0,0,27-3.1,30.5,22.5s-18.6,29.2-18.6,29.2s-23.4,4.4-29.2-18.1S162,133.4,162,133.4z"/>
	<path d="M164.2,161.2c0,0,14.1,3.1,21.2-4C185.4,157.2,182.8,173.1,164.2,161.2z"/>
	<path d="M103.2,185.1c0,0-7.1-11.5-6.6-15l10.6,3.5L103.2,185.1z"/>
	<path d="M103.2,185.1c0,0-3.1-9.7,4-11.5l16.8-0.4C124,173.1,122.2,201.4,103.2,185.1z"/>
	<path d="M94,169.3l2.7,6.6c0,0,3.5-3.5,3.1-4.9C99.3,169.7,94,169.3,94,169.3z"/>
	<path d="M117.4,172.8c0,0,2.2,7.5,3.1,6.2s3.5-6.6,3.5-6.6L117.4,172.8z"/>
</g>
<g>
	<path class="st1" d="M73.7,225.5c0,0-13.7-5.7-11.9-1.3s8.8,8.4,8.8,8.4L73.7,225.5z"/>
	<path class="st2" d="M77.6,144.7c0,0,0.4,5.7,2.2,5.3c1.8-0.4,1.8-6.2,1.8-6.2L77.6,144.7z"/>
	<path class="st3" d="M85.6,151.7c0,0-8,0.4-5.3,12.4C80.3,164.1,87.4,164.5,85.6,151.7z"/>
	<path class="st4" d="M79,132.2c0,0-0.9,4.4-3.5,4.4s-4,4-4,4s1.3,5.7,13.3,4c0,0,2.7,13.3-4.4,19.4c0,0,4.4,8.4,9.3,4.4
		s19.9-31.4,19.9-31.4l-4-6.6L79,132.2z"/>
	<path class="st5" d="M109.9,227.3c0,0-8.4-6.2-14.6,2.7c0,0-15.9-13.3-21.7-4.4c-5.7,8.8-2.2,15.9-2.2,15.9l23.4,22.1
		c0,0,6.2,3.5,10.2-8c0,0,9.3-6.6,26.5-4C148.8,254.2,109.9,227.3,109.9,227.3z"/>
	<path class="st6" d="M71.5,241.4c0,0,12.4,24.3,23.4,22.1c0,0,8.4-6.2-7.1-25.2S71,240.5,71.5,241.4z"/>
	<path class="st1" d="M80.3,229.9c0,0-5.7-13.7-3.1-12.8s11,8.4,11,8.4S86.9,233,80.3,229.9z"/>
	<path class="st7" d="M107.3,136.7c0,0-43.3-19.9-81.8,34c0,0-3.5-30.1,43.7-45.1c0,0-35.8-3.1-57,9.7c0,0,18.6-40.2,90.2-19
		c0,0-51.7-35.8-93.2-27c0,0,29.2-41.5,96.3,7.1L64.4,27.5c0,0,37.1,18.1,53,59.2c0,0-4.4-31.8-1.8-33.6c0,0,7.5,38.9,9.3,39.8
		c0,0-4.4-56.1,42.9-80c0,0-33.1,52.1-30.9,87.9c0,0,31.8-87.9,92.8-79.1c0,0-45.1,21.7-54.8,45.5c0,0,49.5-32.3,68.1-23.9
		c0,0-68.5,32.7-80,55.2c0,0,53-34.9,105.2-4.4c0,0-70.7-7.1-95.9,17.7c0,0,65.4-19.4,78.7,30.1c0,0-49.9-37.6-85.7-12.4l-23.9,33.6
		l-9.7-1.8L107.3,136.7z"/>
	<path class="st8" d="M109,192.3c0,0-9.7,51.7,22.5,59.2c32.3,7.5,38.9,1.8,38.9,1.8s11.9,0.4,16.8,3.1c0,0,9.3,14.1,15.9,11
		c6.6-3.1,11.9-11,11.9-11s7.1-23.4-2.7-31.8c-9.7-8.4-17.7-4.9-17.7-4.9s0.4-27.8-19.9-42c-20.3-14.1-33.6-14.6-33.6-14.6l-5.7-1.3
		L109,192.3z"/>
	<path class="st9" d="M195.6,229.9c0,0-15.9,6.2-4.9,24.3s15.5,11.5,15.5,11.5s12.4-5.7,8.8-23S195.6,229.9,195.6,229.9z"/>
	<path class="st10" d="M181.9,230.8c0,0-6.2-12.4-3.1-12.4c3.1,0,10.6,5.7,10.6,5.7S189,232.1,181.9,230.8z"/>
	<path class="st10" d="M200.9,223.7c0,0,1.3-15.9,5.3-14.6c4,1.3,6.2,15.5,6.2,15.5S205.4,226.4,200.9,223.7z"/>
	<path class="st11" d="M107.3,136.7c0,0-17.7,3.5-19,18.6c0,0-9.7,2.2-2.2,7.5c0,0-3.1,26.5,23,29.6s28.3-27.4,28.3-27.4
		S140,134.9,107.3,136.7z"/>
	<path class="st11" d="M156.3,128.3c0,0,27-3.1,30.5,22.5S168.2,180,168.2,180s-23.4,4.4-29.2-18.1S156.3,128.3,156.3,128.3z"/>
	<path class="st12" d="M158.5,156.1c0,0,14.1,3.1,21.2-4C179.7,152.1,177.1,168,158.5,156.1z"/>
	<path class="st13" d="M97.5,180c0,0-7.1-11.5-6.6-15l10.6,3.5L97.5,180z"/>
	<path class="st12" d="M97.5,180c0,0-3.1-9.7,4-11.5l16.8-0.4C118.3,168,116.5,196.3,97.5,180z"/>
	<path class="st14" d="M88.3,164.2l2.7,6.6c0,0,3.5-3.5,3.1-4.9C93.6,164.6,88.3,164.2,88.3,164.2z"/>
	<path class="st14" d="M111.7,167.7c0,0,2.2,7.5,3.1,6.2s3.5-6.6,3.5-6.6L111.7,167.7z"/>
</g>
</svg>
