<?xml version="1.0" encoding="utf-8"?>
<!-- Generator: Adobe Illustrator 23.0.6, SVG Export Plug-In . SVG Version: 6.00 Build 0)  -->
<svg version="1.1" id="Layer_1" xmlns="http://www.w3.org/2000/svg" xmlns:xlink="http://www.w3.org/1999/xlink" x="0px" y="0px"
	 viewBox="0 0 288 288" style="enable-background:new 0 0 288 288;" xml:space="preserve">
<style type="text/css">
	.st0{opacity:0.5;}
	.st1{fill:#C59A50;}
	.st2{fill:#F0BE5D;}
	.st3{fill:#91817B;}
	.st4{fill:#C9C3B5;}
	.st5{fill:#56704D;}
	.st6{fill:#99AE4D;}
	.st7{fill:#DDDEC2;}
	.st8{fill:#9C908C;}
	.st9{fill:#2C2926;}
	.st10{fill:#EEBC5D;}
</style>
<g class="st0">
	<path d="M153.3,226.6l1.6,9.9c0,0-5.8,5.2-5.8,7.3s-27.7,6.3-27.7,6.3l4.7,7.3c0,0-6.8,5.2-4.2,6.8c2.6,1.6,12-1.6,12-1.6
		s-1,5.2,2.1,5.2c0,0,29.8-14.1,43.4-12.5c0,0,2.1,0-3.7-5.8s-7.3-4.7-7.3-4.7l-2.6-18.8L153.3,226.6z"/>
	<path d="M190.9,229.3l4.2,19.9c0,0-7.3,10.5-12.5,13.6c-5.2,3.1-7.3,9.4-7.3,9.4s17.8-2.1,18.8,1c0,0,5.2,7.8,7.3,7.8
		s6.3-5.2,6.3-5.2s12.5-5.2,18.8-3.1s7.8,2.1,7.8,2.1s-0.5-7.8-8.9-12.5c-8.4-4.7-12.5-8.4-12.5-8.4s-3.7-6.8-5.2-6.8l-3.1-22
		L190.9,229.3z"/>
	<path d="M231.7,169.7c0,0,22-18.3,23.5-15.7c1.6,2.6-15.2,38.7-15.2,38.7L231.7,169.7z"/>
	<path d="M99.4,24.8l2.6,0.5c0,0,20.9,41.8,31.9,48.6l-5.2,5.8C128.7,79.7,97.9,30.1,99.4,24.8z"/>
	<path d="M99.4,24.8c0,0-8.9,0-11,9.9s22.5,58,22.5,58L83.2,57.3c0,0-2.6-0.5-5.8,4.7c-3.1,5.2,4.2,33.5,4.2,33.5l23,27.7L80.1,109
		c0,0-8.9,9.9-6.3,19.9l14.1,8.4l16.2-6.8c0,0,2.6-7.8,7.8-8.9c5.2-1,16.2-3.7,16.2-3.7s-11-26.1,0.5-38.2
		C128.7,79.7,98.9,30.6,99.4,24.8z"/>
	<path d="M51.3,80.3c0,0-21.4-30.8-20.9-35c0,0,7.8-17.8,20.4-11.5l3.7,9.4c0,0,1-11.5,11.5-8.4s11.5,10.5,11.5,10.5l1,39.2
		l-9.9-6.3L60.7,62l2.1,9.4l-9.4-5.8L51.3,80.3z"/>
	<polygon points="51.3,80.3 62.8,95.4 72.8,118.4 74.9,124.7 80.6,116.9 87.4,124.7 78.5,84.4 68.6,78.2 60.7,62 62.8,71.4 
		53.4,65.6 	"/>
	<path d="M74.9,124.7l5.8,13.6l25.1,96.7c0,0-4.2,28.2,11.5,24.6c15.7-3.7,8.4-13.6,8.4-13.6l-22-61.7l-11-49.1l-5.2-10.5l-6.8-7.8
		L74.9,124.7z"/>
	<path d="M128.2,117.9c0,0-13.6-29.3,5.8-43.9c0,0,8.9-7.3,11.5-6.8l-13.6-21.4c0,0,4.7-12.5,11.5-11l9.4,17.8
		c0,0-2.1-39.7,4.2-38.7s15.7,10.5,15.7,10.5L171.1,51l11-13.6c0,0,7.3,4.7,7.3,8.4c0,0-9.4,16.7-11,16.7c0,0,24.6,2.1,28.2,38.2
		c0,0-1,25.1-5.8,28.8c0,0,41.8,42.9,39.2,63.3l-5.8,6.3l-1-4.2l-4.7,6.3l-1-7.3l-3.1,4.2l-2.1-2.6l-8.9,7.3v-5.2l-8.4,5.2v-4.2
		c0,0-31.9,20.9-67.4,18.8c0,0-53.9-16.7-54.9-21.4s-4.2-17.3-4.2-17.3s-11-1-9.9-12.5c1-11.5,4.2-16.2,4.2-16.2s2.6-11.5,7.8-11.5
		c5.2,0,23.5-7.8,23.5-7.8s3.7-6.8,17.3,0.5c13.6,7.3,40.8,13.6,52.3,11.5l1.6-11L128.2,117.9z"/>
	<path d="M139.7,138.3c11.7-2.3,23.4-4.5,35-6.8c2.1,3.8,5.1,6.1,7.8,5.8c0.5-0.1,1-0.2,1.6-0.5l-5.8,2.1l5.2,1.6l-2.1,4.7l-4.2-2.1
		c-3.3,0.2-6.8,0.2-10.5,0C156.3,142.5,147.2,140.6,139.7,138.3z"/>
	<path d="M140.2,217.2c0,0,16.7,19.9,50.7,12c34-7.8,43.4-30.3,43.4-30.3l-1-4.2l-4.7,6.3l-1-7.3l-3.1,4.2l-2.1-2.6l-8.9,7.3v-5.2
		l-8.4,5.2v-4.2C205,198.4,179.4,216.7,140.2,217.2z"/>
	<path d="M138.1,76.1l8.9,11c0,0,19.3-19.3,25.1-17.8c0,0-20.4,30.8-25.6,33.5C146.5,102.7,135,79.2,138.1,76.1z"/>
	<path d="M143.3,106.4c0,0-7.8,11.5-15.2,11.5c-7.3,0-16.2,3.7-16.2,3.7s-9.9,5.8-7.8,8.9c0,0,3.1-5.2,17.3,0.5
		c14.2,5.7,18.3,7.3,18.3,7.3l22-0.5c0,0,8.9-3.1,15.7-7.3c6.8-4.2,8.4-7.8,8.4-7.8s-2.6-5.2-11-5.8S156,105.4,156,105.4
		S147,102.2,143.3,106.4z"/>
</g>
<g>
	<path class="st1" d="M148.3,221.6l1.6,9.9c0,0-5.8,5.2-5.8,7.3s-27.7,6.3-27.7,6.3l4.7,7.3c0,0-6.8,5.2-4.2,6.8
		c2.6,1.6,12-1.6,12-1.6s-1,5.2,2.1,5.2c0,0,29.8-14.1,43.4-12.5c0,0,2.1,0-3.7-5.8s-7.3-4.7-7.3-4.7l-2.6-18.8L148.3,221.6z"/>
	<path class="st2" d="M185.9,224.3l4.2,19.9c0,0-7.3,10.5-12.5,13.6c-5.2,3.1-7.3,9.4-7.3,9.4s17.8-2.1,18.8,1c0,0,5.2,7.8,7.3,7.8
		s6.3-5.2,6.3-5.2s12.5-5.2,18.8-3.1s7.8,2.1,7.8,2.1s-0.5-7.8-8.9-12.5c-8.4-4.7-12.5-8.4-12.5-8.4s-3.7-6.8-5.2-6.8l-3.1-22
		L185.9,224.3z"/>
	<path class="st3" d="M226.7,164.7c0,0,22-18.3,23.5-15.7c1.6,2.6-15.2,38.7-15.2,38.7L226.7,164.7z"/>
	<path class="st3" d="M94.4,19.8l2.6,0.5c0,0,20.9,41.8,31.9,48.6l-5.2,5.8C123.7,74.7,92.9,25.1,94.4,19.8z"/>
	<path class="st4" d="M94.4,19.8c0,0-8.9,0-11,9.9s22.5,58,22.5,58L78.2,52.3c0,0-2.6-0.5-5.8,4.7c-3.1,5.2,4.2,33.5,4.2,33.5
		l23,27.7L75.1,104c0,0-8.9,9.9-6.3,19.9l14.1,8.4l16.2-6.8c0,0,2.6-7.8,7.8-8.9c5.2-1,16.2-3.7,16.2-3.7s-11-26.1,0.5-38.2
		C123.7,74.7,93.9,25.6,94.4,19.8z"/>
	<path class="st5" d="M46.3,75.3c0,0-21.4-30.8-20.9-35c0,0,7.8-17.8,20.4-11.5l3.7,9.4c0,0,1-11.5,11.5-8.4s11.5,10.5,11.5,10.5
		l1,39.2l-9.9-6.3L55.7,57l2.1,9.4l-9.4-5.8L46.3,75.3z"/>
	<polygon class="st6" points="46.3,75.3 57.8,90.4 67.8,113.4 69.9,119.7 75.6,111.9 82.4,119.7 73.5,79.4 63.6,73.2 55.7,57 
		57.8,66.4 48.4,60.6 	"/>
	<path class="st7" d="M69.9,119.7l5.8,13.6l25.1,96.7c0,0-4.2,28.2,11.5,24.6c15.7-3.7,8.4-13.6,8.4-13.6l-22-61.7l-11-49.1
		l-5.2-10.5l-6.8-7.8L69.9,119.7z"/>
	<path class="st8" d="M123.2,112.9c0,0-13.6-29.3,5.8-43.9c0,0,8.9-7.3,11.5-6.8l-13.6-21.4c0,0,4.7-12.5,11.5-11l9.4,17.8
		c0,0-2.1-39.7,4.2-38.7s15.7,10.5,15.7,10.5L166.1,46l11-13.6c0,0,7.3,4.7,7.3,8.4c0,0-9.4,16.7-11,16.7c0,0,24.6,2.1,28.2,38.2
		c0,0-1,25.1-5.8,28.8c0,0,41.8,42.9,39.2,63.3l-5.8,6.3l-1-4.2l-4.7,6.3l-1-7.3l-3.1,4.2l-2.1-2.6l-8.9,7.3v-5.2l-8.4,5.2v-4.2
		c0,0-31.9,20.9-67.4,18.8c0,0-53.9-16.7-54.9-21.4s-4.2-17.3-4.2-17.3s-11-1-9.9-12.5c1-11.5,4.2-16.2,4.2-16.2s2.6-11.5,7.8-11.5
		c5.2,0,23.5-7.8,23.5-7.8s3.7-6.8,17.3,0.5s40.8,13.6,52.3,11.5l1.6-11L123.2,112.9z"/>
	<path class="st4" d="M134.7,133.3c11.7-2.3,23.4-4.5,35-6.8c2.1,3.8,5.1,6.1,7.8,5.8c0.5-0.1,1-0.2,1.6-0.5l-5.8,2.1l5.2,1.6
		l-2.1,4.7l-4.2-2.1c-3.3,0.2-6.8,0.2-10.5,0C151.3,137.5,142.2,135.6,134.7,133.3z"/>
	<path class="st4" d="M135.2,212.2c0,0,16.7,19.9,50.7,12c34-7.8,43.4-30.3,43.4-30.3l-1-4.2l-4.7,6.3l-1-7.3l-3.1,4.2l-2.1-2.6
		l-8.9,7.3v-5.2l-8.4,5.2v-4.2C200,193.4,174.4,211.7,135.2,212.2z"/>
	<path class="st9" d="M133.1,71.1l8.9,11c0,0,19.3-19.3,25.1-17.8c0,0-20.4,30.8-25.6,33.5C141.5,97.7,130,74.2,133.1,71.1z"/>
	<path class="st10" d="M138.3,101.4c0,0-7.8,11.5-15.2,11.5c-7.3,0-16.2,3.7-16.2,3.7s-9.9,5.8-7.8,8.9c0,0,3.1-5.2,17.3,0.5
		s18.3,7.3,18.3,7.3l22-0.5c0,0,8.9-3.1,15.7-7.3s8.4-7.8,8.4-7.8s-2.6-5.2-11-5.8S151,100.4,151,100.4S142,97.2,138.3,101.4z"/>
</g>
</svg>
