<?xml version="1.0" encoding="utf-8"?>
<!-- Generator: Adobe Illustrator 23.0.6, SVG Export Plug-In . SVG Version: 6.00 Build 0)  -->
<svg version="1.1" id="Layer_1" xmlns="http://www.w3.org/2000/svg" xmlns:xlink="http://www.w3.org/1999/xlink" x="0px" y="0px"
	 viewBox="0 0 288 288" style="enable-background:new 0 0 288 288;" xml:space="preserve">
<style type="text/css">
	.st0{opacity:0.5;}
	.st1{fill:#ABABB3;}
	.st2{fill:#A3A2A8;}
	.st3{fill:#A88E90;}
	.st4{fill:#7F5B4E;}
	.st5{fill:#A89A8B;}
	.st6{fill:#D2B3BA;}
	.st7{fill:#A67957;}
	.st8{fill:#E2D0B9;}
	.st9{fill:#C07164;}
	.st10{fill:#B09793;}
	.st11{fill:#CFA1A1;}
	.st12{fill:#E0C4CB;}
</style>
<g class="st0">
	<path d="M178.2,237c0,0,2.5,2.2,2.4,3.6l-3.1-0.6L178.2,237z"/>
	<path d="M178.7,261.8l2.5,2.4c0,0-3.5,1.6-4.4,1.6S178.6,263.7,178.7,261.8z"/>
	<path d="M171.2,266.7c0,0,1.4,1.1,3.1,0.8s0.2-1.7,0.2-1.7L171.2,266.7z"/>
	<polygon points="208.5,240.3 210.4,243 207.4,242.8 	"/>
	<path d="M193.2,267.8c0,0,2,1.1,3.5,1.1c1.4,0-1.1-2.8-1.1-2.8L193.2,267.8z"/>
	<polygon points="203,269.7 206.1,271 204.8,267.5 	"/>
	<path d="M210.7,266.1c0,0,3.8,1.6,4.9,1.3l-2.8-3.8L210.7,266.1z"/>
	<path d="M162.7,233.2l3.8,8l-6.1,10.4l-0.5,6.1c0,0-3.3,5.7,4.7,7.6l2.4-1.4l-1.9-3.3l0.9-4.7l-1.4,7.1c0,0,3.3,4.7,6.6,3.8
		c3.3-0.9,3.3-0.9,3.3-0.9s0.9,0.9,2.8-0.9c1.9-1.9,0.9-3.3,0.9-3.3l-1.9-2.4c0,0-1.9-16.1,0-17.9c1.9-1.9,1.9-4.2,1.9-4.2l-4.2-2.4
		l-3.3,4.2c-0.3-2.6-0.5-5.2-0.8-7.9c-0.7-0.1-1.5-0.1-2.5,0C165,231.3,163.4,232.6,162.7,233.2z"/>
	<path d="M121.1,167.6c0,0-18.9-29.7-25-30.7L84.3,82.6c0,0-3.8-32.1-1.9-34.9l7.1-0.5l1.4,4.7l2.4-14.2l14.6,5.7l-1.4,6.6l4.2-9
		l10.4,14.2L132,67.5l9.9,12.7l-2.4,9.4l3.3-4.7l6.6,10.9l-6.1,17.5l4.2-5.2l2.8,13.2l-3.8,6.6l3.3,10.4l2.4,10.9
		c0,0-3.3,8.5-7.6,9.9c-4.2,1.4-19.4,10.9-19.4,10.9L121.1,167.6z"/>
	<polygon points="159.8,231.3 159.4,235.1 162.7,233.2 166.4,236 168.3,234.2 170.7,235.1 171.2,232.3 	"/>
	<path d="M197.1,204.4c0,0,43-2.8,61.9,9.4h-4.2l3.3,2.4c0,0-2.4,7.1-9.9,5.2s-21.2-4.7-21.2-4.7s19.8,8,14.2,10.4
		c-5.7,2.4-11.8,0.5-11.8,0.5s-1.4,5.2-7.6,2.8c-6.1-2.4-10.9-3.8-10.9-3.8s-5.2,2.8-7.1,1.9c-1.9-0.9-3.8-1.9-3.8-1.9l1.9,0.9
		l-8.5-6.6L197.1,204.4z"/>
	<polygon points="125.8,178.9 122.1,173.7 118.8,168.5 125.4,169.9 124,155.8 128.7,163.8 128.7,145.9 132,152.9 139.5,135 
		140.5,147.7 141.9,143.5 142.8,146.8 147.1,144 146.6,154.4 148.5,150.6 149,160 154.2,152.5 152.8,163.3 155.1,165.2 156.1,156.7 
		158.4,159.6 159.4,144.9 162.7,151.5 163.6,145.4 166.4,150.6 167,148.6 167.9,145.9 170.2,151.1 154.6,181.3 138.6,185.5 	"/>
	<path d="M82.4,47.7c0,0,0-16.5,2.4-17l1.9,3.8c0,0,2.8-6.1,4.2-5.7c1.4,0.5,0,23.1,0,23.1l-4.2-3.8l-4.2,5.2v-5.6H82.4z"/>
	<path d="M92.6,40.3c0,0,7.1-26.9,9.4-26.9l0.9,6.6l2.4-5.7l6.1,4.2l-4.6,31.7l-2.8-7.1l-5.7,6.6l-2.8-8L92.6,40.3z"/>
	<path d="M110.7,41c0,0,10.4-27.4,11.8-26.9l-0.9,6.1l2.8-4.2c0,0,4.7,1.9,2.8,11.8c-1.9,9.9-6.1,27.4-6.1,27.4s-6.1-1.4-8,1.9
		c-1.9,3.3-0.5-13.2-0.5-13.2l-5.2,3.8L110.7,41z"/>
	<path d="M133.9,30.7c0,0,6.1,6.1,5.7,9.9c-0.5,3.8-8.5,30.7-8.5,30.7s-2.8-5.7-5.7-1.9l-3.8,1.9l2.8-11.8l-4.2-2.4L133.9,30.7z"/>
	<path d="M143.8,45.8c0,0,7.1,2.8,4.2,13.2s-6.6,23.1-6.6,23.1s-3.8-3.8-6.6,0.9c0,0,1.4-12.3-0.5-11.3s-3.3,2.4-3.3,2.4L143.8,45.8
		z"/>
	<path d="M141.4,88.3c0,0,7.6-19.8,10.9-17.9c3.3,1.9,4.2,8,4.2,8l-7.1,17.5c0,0-5.7,5.2-7.1,2.8C140.9,96.3,141.4,88.3,141.4,88.3z
		"/>
	<path d="M147.6,108.1l8-14.2c0,0,5.2,6.1,1.9,13.2s-7.1,14.2-7.1,14.2l-6.6,0.9L147.6,108.1z"/>
	<path d="M146.6,127.9l7.1-6.6c0,0,5.3,4.6-0.3,12.9c-0.9,1.3-2,2.7-3.5,4.1l5.7-3.8v3.3v2.8l-1.4,6.6l-5.7,3.3l1.9-9l-2.4-4.7
		l-3.3-0.5l1.4-5.7L146.6,127.9z"/>
	<path d="M189.6,237.9l5.7,9c0,0-1.9,7.6-3.3,7.6c-1.4,0-1.4,2.8-1.4,2.8s-2.4,3.8-0.9,6.1c1.4,2.4,2.8,4.7,2.8,4.7s4.7,1.9,3.8-4.2
		s1.4-7.6,1.4-7.6s3.8,15.6,6.6,14.2s0-5.7,0-5.7l0.5-8.5c0,0,4.2,11.8,7.1,9.9c2.8-1.9,1.4-5.7,1.4-5.7s-4.2-7.6-3.3-9
		s-4.2-6.1-4.2-6.1l2.8-5.2c0,0-2.8-7.6-6.6-2.4l-1.9,4.7l-5.2-7.1L189.6,237.9z"/>
	<path d="M58.2,198.9c0,0,18.9-18.6,25.5-18.6s14.5-0.6,14.5-0.6s6-0.6,9.4-5c0,0,3.8-0.6,8.5,1.6c4.7,2.2,9.8,2.7,9.8,2.7
		s11,0.8,12.6-1.7l-2.8,4.1l6.9-1.6l-1.9,3.5c0,0,17.3-4.7,27.1-29.3s9.1-39.3,9.1-39.3s5-15.7,14.5-21.4c9.4-5.7,43.4-39,43.4-39
		l7.9,4.7l-3.8,4.4l6.9-3.1L254,71l-4.4,4.1l8.2-2.5l2.2,13.8l-13.2,8.8l10.4-4.1l0.6,14.2l-15.1,8.5l5-0.6l-3.1,16.1l-7.9,2.8
		l-6.9,14.5l-4.7,1.6l-7.2,10.1l-12.6,12.6l-5.4-0.3l6.3,1.9l-6,7.6l-4.7-0.3l3.8,2.8l-6.6,5.4l-3.5-1.6l2.2,2.5l-5.7,4.1l5.7,2.2
		c0,0,16.1,13.5,2,26.1l0.5,6.3l2.8,0.3l-1.6,3.5l3.5,1.3l-3.8,3.3l-0.3,4.6l-4.9-2.2l-1.7,3.5l-1.9-5.4c0,0-8.8,0.9-11-3.5
		c0,0-18.9,1.9-27.4-7.2v3.5c0,0-6-3.1-5.7-5.7l-0.3,6c0,0-5-2.2-4.4-5l-0.3,6.9c0,0-6-8.2-5-9.8l-2.8,2.8l0.3-4.4l-3.8,7.9
		l-1.3-15.7c0,0-3.5,5-4.7,4.4c0,0,5.7-18.3,3.1-24.9l-2.2-2.2l-9.8-5.7l-18.6,7.6c0,0-11,21.1-15.7,20.5
		c-4.7-1.1-12.9-0.8-12.9-0.8l-5-11.3L58.2,198.9z"/>
	<path d="M234.7,54.1c0,0,13.2-11.3,15.4-10.4l-1.3,2.2l3.5-0.6c0,0-3.1,16.7-15.7,17.3C236.6,62.6,228.1,62.6,234.7,54.1z"/>
	<path d="M275.4,47.5l3.8-4.7c0,0-30.5,13.5-35.6,18.6l-1.3,7.6l10.4,0.6l-4.1,4.4l27.7-15.4c0,0,7.2-8.5,3.5-11.6L275.4,47.5z"/>
	<path d="M257.7,72.4c0,0,25.2-14.2,29.3-12l-2.5,3.1l2.5,0.3l0.3,6.6l-27.4,15.8l-3.5-1.3l1.9-2.2l-4.7-0.3l4.4-7.9L257.7,72.4z"/>
	<path d="M257.1,90.9c0,0-4.7,5-2.2,6.3s1.9,5,1.9,5l-3.8,5.7c0,0,26.4-10.4,27.4-21.7l-2.2-0.9l2.8-4.1L257.1,90.9z"/>
	<path d="M247.7,113l23.6-6.6c0,0-0.3,3.5-3.1,4.1c0,0,1.6,13.2-23.6,18.6l0.6-4.4c0,0-7.6-1.9,1.9-6.9l-1.9-2.2L247.7,113z"/>
	<path d="M232.9,132.8c0,0,21.4-4.4,22.3-2.5c0,0-3.5,3.5-6,3.5h2.5c0,0-6.3,10.4-10.7,10.4s-11.3,2.2-11.3,2.2l-0.6-3.1
		c0,0-8.8-2.2-3.5-4.7s8.5-3.8,8.5-3.8L232.9,132.8z"/>
	<path d="M225,147.9l13.2,0.3l-1.3,1.9l-1.9,0.6c0,0-1.9,6.6-8.5,6.6s-11.3,0.9-11.3,0.9l3.1-1.9c0,0-1.9-5,1.9-6
		C224,149.5,225,147.9,225,147.9z"/>
	<path d="M211.1,160.2l16.4,1.6L224,164l2.5,0.3l-5.4,6l-18.3-0.6c0,0,1.6-2.5,5.7-3.5c0,0,2.8-2.2,1.6-2.8
		c-1.3-0.6,1.6-0.6,1.6-0.6l-2.5-1.3L211.1,160.2z"/>
	<polygon points="204.5,171.8 217.4,175.6 213.7,176.5 216.2,178.4 211.1,182.5 200.1,179.7 197.6,176.2 202,175.9 201.4,173.4 
		204.5,173.7 	"/>
	<path d="M199.2,182.2l8.2,3.5c0,0-2.2,5-5.4,5c-3.1,0-9.4-3.1-9.4-3.1l-0.9-2.2l3.1-0.9l0.3-1.9L199.2,182.2z"/>
	<path d="M191.3,188.5c0,0,5.4,2.2,4.4,3.8s-3.8,4.4-6.3,3.1c-2.5-1.3-5-3.1-5-3.1l0.3-2.8l3.5,0.6l0.6-1.6H191.3z"/>
	<path d="M55.3,198.3L55,167.1l5.4,12.3L67,147c0,0,2.5,16.4,2.5,19.8c0,0,7.6-28,9.1-26.1l-0.6,28l9.4-17.6c0,0-0.9,15.4-3.5,19.5
		l6.9-5.4l-7.2,15.1c0,0-24.9,14.8-25.2,19.5s-0.3-0.9-0.3-0.9L55.3,198.3z"/>
	<path d="M52.5,217.5c0,0-2.2,13.2-6,15.4c0,0,7.5,0.6,8.5-5.7c0.3-1.9,1.9-13.2,3.1-14.8L52.5,217.5z"/>
	<path d="M56,207.7c0,0-11.6,11.3-8.8,16.4l12.9-13.9l1.6-3.5L56,207.7z"/>
	<path d="M55.3,198.3c0,0-31.8,25.5-40.9,27.7s-7.2,18.2-7.2,18.2s18.6-19.5,29.3-19.5c0,0,3.5-2.5,5-7.9c1.6-5.4,18.6-8.8,18.6-8.8
		l-1.9,4.4c0,0-3.8,12-3.1,14.8c0.6,2.8-8.5,5.7-8.5,5.7s6,5.4,10.7-7.6c4.6-12.9,6.2-14.1,6.2-14.1S61,197.6,55.3,198.3z"/>
</g>
<g>
	<path class="st1" d="M172.7,231.8c0,0,2.5,2.2,2.4,3.6l-3.1-0.6L172.7,231.8z"/>
	<path class="st1" d="M173.2,256.6l2.5,2.4c0,0-3.5,1.6-4.4,1.6S173.1,258.5,173.2,256.6z"/>
	<path class="st1" d="M165.7,261.5c0,0,1.4,1.1,3.1,0.8s0.2-1.7,0.2-1.7L165.7,261.5z"/>
	<polygon class="st2" points="203,235.1 204.9,237.8 201.9,237.6 	"/>
	<path class="st2" d="M187.7,262.6c0,0,2,1.1,3.5,1.1c1.4,0-1.1-2.8-1.1-2.8L187.7,262.6z"/>
	<polygon class="st2" points="197.5,264.5 200.6,265.8 199.3,262.3 	"/>
	<path class="st2" d="M205.2,260.9c0,0,3.8,1.6,4.9,1.3l-2.8-3.8L205.2,260.9z"/>
	<path class="st3" d="M157.2,228l3.8,8l-6.1,10.4l-0.5,6.1c0,0-3.3,5.7,4.7,7.6l2.4-1.4l-1.9-3.3l0.9-4.7l-1.4,7.1
		c0,0,3.3,4.7,6.6,3.8c3.3-0.9,3.3-0.9,3.3-0.9s0.9,0.9,2.8-0.9c1.9-1.9,0.9-3.3,0.9-3.3l-1.9-2.4c0,0-1.9-16.1,0-17.9
		c1.9-1.9,1.9-4.2,1.9-4.2l-4.2-2.4l-3.3,4.2c-0.3-2.6-0.5-5.2-0.8-7.9c-0.7-0.1-1.5-0.1-2.5,0C159.5,226.1,157.9,227.4,157.2,228z"
		/>
	<path class="st4" d="M115.6,162.4c0,0-18.9-29.7-25-30.7L78.8,77.4c0,0-3.8-32.1-1.9-34.9L84,42l1.4,4.7l2.4-14.2l14.6,5.7
		l-1.4,6.6l4.2-9L115.6,50l10.9,12.3l9.9,12.7l-2.4,9.4l3.3-4.7l6.6,10.9l-6.1,17.5l4.2-5.2l2.8,13.2l-3.8,6.6l3.3,10.4l2.4,10.9
		c0,0-3.3,8.5-7.6,9.9c-4.2,1.4-19.4,10.9-19.4,10.9L115.6,162.4z"/>
	<polygon class="st4" points="154.3,226.1 153.9,229.9 157.2,228 160.9,230.8 162.8,229 165.2,229.9 165.7,227.1 	"/>
	<path class="st4" d="M191.6,199.2c0,0,43-2.8,61.9,9.4h-4.2l3.3,2.4c0,0-2.4,7.1-9.9,5.2s-21.2-4.7-21.2-4.7s19.8,8,14.2,10.4
		c-5.7,2.4-11.8,0.5-11.8,0.5s-1.4,5.2-7.6,2.8c-6.1-2.4-10.9-3.8-10.9-3.8s-5.2,2.8-7.1,1.9c-1.9-0.9-3.8-1.9-3.8-1.9l1.9,0.9
		l-8.5-6.6L191.6,199.2z"/>
	<polygon class="st5" points="120.3,173.7 116.6,168.5 113.3,163.3 119.9,164.7 118.5,150.6 123.2,158.6 123.2,140.7 126.5,147.7 
		134,129.8 135,142.5 136.4,138.3 137.3,141.6 141.6,138.8 141.1,149.2 143,145.4 143.5,154.8 148.7,147.3 147.3,158.1 149.6,160 
		150.6,151.5 152.9,154.4 153.9,139.7 157.2,146.3 158.1,140.2 160.9,145.4 161.5,143.4 162.4,140.7 164.7,145.9 149.1,176.1 
		133.1,180.3 	"/>
	<path class="st5" d="M76.9,42.5c0,0,0-16.5,2.4-17l1.9,3.8c0,0,2.8-6.1,4.2-5.7c1.4,0.5,0,23.1,0,23.1l-4.2-3.8L77,48.1v-5.6H76.9z
		"/>
	<path class="st5" d="M87.1,35.1c0,0,7.1-26.9,9.4-26.9l0.9,6.6l2.4-5.7l6.1,4.2L101.3,45l-2.8-7.1l-5.7,6.6l-2.8-8L87.1,35.1z"/>
	<path class="st5" d="M105.2,35.8c0,0,10.4-27.4,11.8-26.9l-0.9,6.1l2.8-4.2c0,0,4.7,1.9,2.8,11.8c-1.9,9.9-6.1,27.4-6.1,27.4
		s-6.1-1.4-8,1.9c-1.9,3.3-0.5-13.2-0.5-13.2l-5.2,3.8L105.2,35.8z"/>
	<path class="st5" d="M128.4,25.5c0,0,6.1,6.1,5.7,9.9c-0.5,3.8-8.5,30.7-8.5,30.7s-2.8-5.7-5.7-1.9l-3.8,1.9l2.8-11.8l-4.2-2.4
		L128.4,25.5z"/>
	<path class="st5" d="M138.3,40.6c0,0,7.1,2.8,4.2,13.2s-6.6,23.1-6.6,23.1s-3.8-3.8-6.6,0.9c0,0,1.4-12.3-0.5-11.3
		s-3.3,2.4-3.3,2.4L138.3,40.6z"/>
	<path class="st5" d="M135.9,83.1c0,0,7.6-19.8,10.9-17.9c3.3,1.9,4.2,8,4.2,8l-7.1,17.5c0,0-5.7,5.2-7.1,2.8
		C135.4,91.1,135.9,83.1,135.9,83.1z"/>
	<path class="st5" d="M142.1,102.9l8-14.2c0,0,5.2,6.1,1.9,13.2s-7.1,14.2-7.1,14.2l-6.6,0.9L142.1,102.9z"/>
	<path class="st5" d="M141.1,122.7l7.1-6.6c0,0,5.3,4.6-0.3,12.9c-0.9,1.3-2,2.7-3.5,4.1l5.7-3.8v3.3v2.8l-1.4,6.6l-5.7,3.3l1.9-9
		l-2.4-4.7l-3.3-0.5l1.4-5.7L141.1,122.7z"/>
	<path class="st6" d="M184.1,232.7l5.7,9c0,0-1.9,7.6-3.3,7.6c-1.4,0-1.4,2.8-1.4,2.8s-2.4,3.8-0.9,6.1c1.4,2.4,2.8,4.7,2.8,4.7
		s4.7,1.9,3.8-4.2s1.4-7.6,1.4-7.6s3.8,15.6,6.6,14.2s0-5.7,0-5.7l0.5-8.5c0,0,4.2,11.8,7.1,9.9c2.8-1.9,1.4-5.7,1.4-5.7
		s-4.2-7.6-3.3-9s-4.2-6.1-4.2-6.1l2.8-5.2c0,0-2.8-7.6-6.6-2.4l-1.9,4.7l-5.2-7.1L184.1,232.7z"/>
	<path class="st7" d="M52.7,193.7c0,0,18.9-18.6,25.5-18.6s14.5-0.6,14.5-0.6s6-0.6,9.4-5c0,0,3.8-0.6,8.5,1.6
		c4.7,2.2,9.8,2.7,9.8,2.7s11,0.8,12.6-1.7l-2.8,4.1l6.9-1.6l-1.9,3.5c0,0,17.3-4.7,27.1-29.3s9.1-39.3,9.1-39.3s5-15.7,14.5-21.4
		c9.4-5.7,43.4-39,43.4-39l7.9,4.7l-3.8,4.4l6.9-3.1l8.2,10.7l-4.4,4.1l8.2-2.5l2.2,13.8L241.3,90l10.4-4.1l0.6,14.2l-15.1,8.5
		l5-0.6l-3.1,16.1l-7.9,2.8l-6.9,14.5l-4.7,1.6l-7.2,10.1l-12.6,12.6l-5.4-0.3l6.3,1.9l-6,7.6l-4.7-0.3l3.8,2.8l-6.6,5.4l-3.5-1.6
		l2.2,2.5l-5.7,4.1l5.7,2.2c0,0,16.1,13.5,2,26.1l0.5,6.3l2.8,0.3l-1.6,3.5l3.5,1.3l-3.8,3.3l-0.3,4.6l-4.9-2.2l-1.7,3.5l-1.9-5.4
		c0,0-8.8,0.9-11-3.5c0,0-18.9,1.9-27.4-7.2v3.5c0,0-6-3.1-5.7-5.7l-0.3,6c0,0-5-2.2-4.4-5l-0.3,6.9c0,0-6-8.2-5-9.8l-2.8,2.8
		l0.3-4.4l-3.8,7.9l-1.3-15.7c0,0-3.5,5-4.7,4.4c0,0,5.7-18.3,3.1-24.9l-2.2-2.2l-9.8-5.7l-18.6,7.6c0,0-11,21.1-15.7,20.5
		C66.2,205.7,58,206,58,206l-5-11.3L52.7,193.7z"/>
	<path class="st8" d="M229.2,48.9c0,0,13.2-11.3,15.4-10.4l-1.3,2.2l3.5-0.6c0,0-3.1,16.7-15.7,17.3
		C231.1,57.4,222.6,57.4,229.2,48.9z"/>
	<path class="st8" d="M269.9,42.3l3.8-4.7c0,0-30.5,13.5-35.6,18.6l-1.3,7.6l10.4,0.6l-4.1,4.4l27.7-15.4c0,0,7.2-8.5,3.5-11.6
		L269.9,42.3z"/>
	<path class="st8" d="M252.2,67.2c0,0,25.2-14.2,29.3-12l-2.5,3.1l2.5,0.3l0.3,6.6L254.4,81l-3.5-1.3l1.9-2.2l-4.7-0.3l4.4-7.9
		L252.2,67.2z"/>
	<path class="st8" d="M251.6,85.7c0,0-4.7,5-2.2,6.3s1.9,5,1.9,5l-3.8,5.7c0,0,26.4-10.4,27.4-21.7l-2.2-0.9l2.8-4.1L251.6,85.7z"/>
	<path class="st8" d="M242.2,107.8l23.6-6.6c0,0-0.3,3.5-3.1,4.1c0,0,1.6,13.2-23.6,18.6l0.6-4.4c0,0-7.6-1.9,1.9-6.9l-1.9-2.2
		L242.2,107.8z"/>
	<path class="st8" d="M227.4,127.6c0,0,21.4-4.4,22.3-2.5c0,0-3.5,3.5-6,3.5h2.5c0,0-6.3,10.4-10.7,10.4s-11.3,2.2-11.3,2.2
		l-0.6-3.1c0,0-8.8-2.2-3.5-4.7s8.5-3.8,8.5-3.8L227.4,127.6z"/>
	<path class="st8" d="M219.5,142.7l13.2,0.3l-1.3,1.9l-1.9,0.6c0,0-1.9,6.6-8.5,6.6s-11.3,0.9-11.3,0.9l3.1-1.9c0,0-1.9-5,1.9-6
		C218.5,144.3,219.5,142.7,219.5,142.7z"/>
	<path class="st8" d="M205.6,155l16.4,1.6l-3.5,2.2l2.5,0.3l-5.4,6l-18.3-0.6c0,0,1.6-2.5,5.7-3.5c0,0,2.8-2.2,1.6-2.8
		c-1.3-0.6,1.6-0.6,1.6-0.6l-2.5-1.3L205.6,155z"/>
	<polygon class="st8" points="199,166.6 211.9,170.4 208.2,171.3 210.7,173.2 205.6,177.3 194.6,174.5 192.1,171 196.5,170.7 
		195.9,168.2 199,168.5 	"/>
	<path class="st8" d="M193.7,177l8.2,3.5c0,0-2.2,5-5.4,5c-3.1,0-9.4-3.1-9.4-3.1l-0.9-2.2l3.1-0.9l0.3-1.9L193.7,177z"/>
	<path class="st8" d="M185.8,183.3c0,0,5.4,2.2,4.4,3.8s-3.8,4.4-6.3,3.1c-2.5-1.3-5-3.1-5-3.1l0.3-2.8l3.5,0.6l0.6-1.6H185.8z"/>
	<path class="st9" d="M49.8,193.1l-0.3-31.2l5.4,12.3l6.6-32.4c0,0,2.5,16.4,2.5,19.8c0,0,7.6-28,9.1-26.1l-0.6,28l9.4-17.6
		c0,0-0.9,15.4-3.5,19.5l6.9-5.4l-7.2,15.1c0,0-24.9,14.8-25.2,19.5s-0.3-0.9-0.3-0.9L49.8,193.1z"/>
	<path class="st10" d="M47,212.3c0,0-2.2,13.2-6,15.4c0,0,7.5,0.6,8.5-5.7c0.3-1.9,1.9-13.2,3.1-14.8L47,212.3z"/>
	<path class="st11" d="M50.5,202.5c0,0-11.6,11.3-8.8,16.4L54.6,205l1.6-3.5L50.5,202.5z"/>
	<path class="st12" d="M49.8,193.1c0,0-31.8,25.5-40.9,27.7S1.7,239,1.7,239s18.6-19.5,29.3-19.5c0,0,3.5-2.5,5-7.9
		c1.6-5.4,18.6-8.8,18.6-8.8l-1.9,4.4c0,0-3.8,12-3.1,14.8c0.6,2.8-8.5,5.7-8.5,5.7s6,5.4,10.7-7.6C56.4,207.2,58,206,58,206
		S55.5,192.4,49.8,193.1z"/>
</g>
</svg>
