<?xml version="1.0" encoding="utf-8"?>
<!-- Generator: Adobe Illustrator 23.0.6, SVG Export Plug-In . SVG Version: 6.00 Build 0)  -->
<svg version="1.1" id="Layer_1" xmlns="http://www.w3.org/2000/svg" xmlns:xlink="http://www.w3.org/1999/xlink" x="0px" y="0px"
	 viewBox="0 0 288 288" style="enable-background:new 0 0 288 288;" xml:space="preserve">
<style type="text/css">
	.st0{opacity:0.5;}
	.st1{fill:#A8947B;}
	.st2{fill:#A15C53;}
	.st3{fill:#DE825B;}
	.st4{fill:#020E16;}
	.st5{fill:#BE9FAE;}
	.st6{fill:#FAEECA;}
</style>
<g class="st0">
	<path d="M80.6,121.6c0,0,6.7-5.5,8.7-5.2l-1.5,4.1c0,0,6.1-3.2,8.2-1.5s-18.9,25.6-18.9,25.6l-1.2-12.8L80.6,121.6z"/>
	<path d="M149.6,136.5l-3.8-3.8h3.8l-3.8-6.1l12.8-27.7c0,0,3.5,3.5,3.8,5.8l-0.3-9.9l3.5,4.4l1.5-5.2l1.5,7.9
		c0,0,11.7-31.8,13.4-30.9l0.3,9.9c0,0,5.8-8.7,7-8.2l-1.2,7.9l1.2-0.6v3.2L191,82l-0.9,9.9c0,0,13.7-15.1,16-14.3l-2.6,6.1l5.5-2.3
		l-2,4.1c0,0,11.7-1.5,22.7,3.5c11.1,5,14.3,3.2,14.3,3.2s17.5-2,15.4-14.3s-2-9.9-2-9.9s4.4,2.9,5,5.2c0,0-0.9-9.3-2.3-11.1
		c0,0,2.9,1.2,3.2,3.2c0,0-6.4-20.7-10.2-24.5c0,0,8.4,4.4,10.2,8.7l-0.9-5c0,0,14.9,16.9,18.9,37.6l-5.8,19.8l-2.9,4.4h1.7
		l-1.7,3.5c6.1-3.9,9.2-5.7,9.4-5.4c0.1,0.1-0.4,0.6-1.5,1.6c-2.3,2.1-4.8,4.6-7.3,7.5c-2.9,3.3-5.3,6.6-7.3,9.5
		c0,0,3.8-2.9,4.7-2.3c0,0-12.2,16-8.2,34.4l2.6-1.2l-2,5.8l4.7-3.8l-1.5,6.1l7.3-4.7c0,0-11.4,19.5-16.6,21.6l2,0.3l-2.3,2.3h4.7
		c0,0-16.9,9.9-16.9,14.6c0,0-15.7,3.5-16.3,4.7c0,0-14-0.3-19.8-4.7C202.3,191.9,149.6,136.5,149.6,136.5z"/>
	<path d="M40.1,122.1c0,0-2-1.7,2.6-10.2s8.2-23,8.2-23s2.3-10.5,1.7-11.9c-0.6-1.5,3.2,5.2,3.2,5.2l0.6-6.4l2.9,4.4
		c0,0,25.1-32,30.3-31.8L89,51.6l4.1-4.7l-6.7,28c0,0-4.1,13.7-3.8,18.1s-7,16-7,16l-16.3,11.3L40.1,122.1z"/>
	<path d="M156.9,206.1c0,0-2.3,12.5-1.7,14s-7.6,6.4-7.6,6.4l-10.2-10.2C137.4,216.3,151.9,202.1,156.9,206.1z"/>
	<path d="M77.6,141.6c0,0,28.6-38,32.6-37.3c0,0,0,3.7-0.7,5.7l6.1-4.7l-0.7,4c0,0,23.9-12.8,28.6-12.8s14.2-10.1,14.2-10.1v4.7
		l11.1-6.4c0,0-17.8,31.6-17.8,34.7c0,3-10.8,20.2-10.8,20.2s21.9-9.4,45.8,12.8s18.2,43.4,43.7,61.9c0,0,2.7,8.1-16.5,42.4
		c0,0-14.8,14.1-26.6-0.3c0,0-2.4-8.1,4.4-11.8c6.7-3.7,11.8-19.5,11.8-19.5s-3.4-4.7-16.8-5c-13.5-0.3-14.1-2.4-14.1-2.4
		s-7.4-3.4-11.4-11.8c0,0-5-0.7-11.1,4s-10.1,6.7-10.1,6.7l17.5,17.5c0,0,2.4,7.7-3.4,16.8c-5.7,9.1-21.9,28.9-21.9,28.9
		s-12.4,9.4-25.2,1.3c0,0-9.8-6.4,1.7-15.1c0,0,6,0.5,11.1-8s8-13,8-13s0.9-2.6-4.6-3.4c-5.5-0.8-10.5-5-10.5-5L69.4,239l-26.8,20.4
		c0,0-6.4,7.9-17.3,7.9s-16-3.7-16-3.7s-3.5-8.7,2.5-12.1s17.7-5.2,32.8-25.4l-8.9-28.7c0,0-15.8-3.3-14.6-15.8
		c0,0,2.7-5.2,2.1-12.9s2.3-14.1,2.3-14.1L77.6,141.6z"/>
	<path d="M22.4,185.8c0,0,2.9,2.3,7.3,1.7c0,0,1,2.3-2.1,3.1s-4.2-1-4.2-1S21,187.1,22.4,185.8z"/>
	<path d="M40.1,197.7c0,0,5.6-1.2,7.3,5.4C47.4,203.1,39.5,202.2,40.1,197.7z"/>
	<path d="M25.4,154.6c0,0-8.9-26.4,14.3-32.6s31.2-6.9,26.6-22.9c0,0,8.9-1.2,13.3,15.8s-2,26.7-2,26.7s-3.2,8.2-10.9,13.2
		c0,0-6.7,11.6-18.3,12.5C36.8,168.1,29.3,164.4,25.4,154.6z"/>
	<path d="M35.5,197.5l1,6.4l-3.5-2.1c0,0,2.5,9.1,4.4,10v7.1l5.6,3.7c0,0,2.9,5.8,6.4,6.2s5,3.1,5,3.1l0.3,2.4l7.1,0.2l0.4,6.2
		l4.6-4c0,0,3.3,6.2,7.7,8.3l-0.2-3.5c0,0,9.6,5.8,11.4,5.6c1.9-0.2,8.1-2.3,8.3-4.6c0,0,9.8,0.6,17-5.4c0,0,9.1-0.2,10.8-3.5
		l-4.8-1.7l9.4-4l-2.9-0.6c0,0,5.2-1.9,5.2-3.3l-3.5-0.6c0,0,4.8-1.9,8.3-5.8c3.5-4,12.7-12.1,12.7-12.1l-4.2,0.4
		c0,0,3.5-8.7,6-12.1l-4.6,2.3l1.2-3.5c0,0,3.7-4.8,2.1-10.8l0.8-10.8l-3.1-7.7l0.6-15.6l-4.2,4.6l-0.8-3.5l-1.2,6.4l-1.9-10.8
		c0,0-6.4,10.4-21.4,12.1s-16.4,2.1-16.4,2.1s5.2,30.4-18.7,39.9c-23.9,9.6-35.3,4.4-35.3,4.4s-6-1.9-5.8-5L35.5,197.5z"/>
	<path d="M80.3,151.7c0,0,11.4-23.9,24.8-30s49.2-23,49.2-23s-12.5,34.4-27.1,44.9s-41.4,11.7-41.4,11.7l7.3-7.9
		C93.1,147.3,85.2,147.6,80.3,151.7z"/>
</g>
<g>
	<path class="st1" d="M75.9,116.3c0,0,6.7-5.5,8.7-5.2l-1.5,4.1c0,0,6.1-3.2,8.2-1.5s-18.9,25.6-18.9,25.6l-1.2-12.8L75.9,116.3z"/>
	<path class="st1" d="M144.9,131.2l-3.8-3.8h3.8l-3.8-6.1l12.8-27.7c0,0,3.5,3.5,3.8,5.8l-0.3-9.9l3.5,4.4l1.5-5.2l1.5,7.9
		c0,0,11.7-31.8,13.4-30.9l0.3,9.9c0,0,5.8-8.7,7-8.2l-1.2,7.9l1.2-0.6v3.2l1.7-1.2l-0.9,9.9c0,0,13.7-15.1,16-14.3l-2.6,6.1
		l5.5-2.3l-2,4.1c0,0,11.7-1.5,22.7,3.5c11.1,5,14.3,3.2,14.3,3.2s17.5-2,15.4-14.3s-2-9.9-2-9.9s4.4,2.9,5,5.2
		c0,0-0.9-9.3-2.3-11.1c0,0,2.9,1.2,3.2,3.2c0,0-6.4-20.7-10.2-24.5c0,0,8.4,4.4,10.2,8.7l-0.9-5c0,0,14.9,16.9,18.9,37.6l-5.8,19.8
		l-2.9,4.4h1.7l-1.7,3.5c6.1-3.9,9.2-5.7,9.4-5.4c0.1,0.1-0.4,0.6-1.5,1.6c-2.3,2.1-4.8,4.6-7.3,7.5c-2.9,3.3-5.3,6.6-7.3,9.5
		c0,0,3.8-2.9,4.7-2.3c0,0-12.2,16-8.2,34.4l2.6-1.2l-2,5.8l4.7-3.8l-1.5,6.1l7.3-4.7c0,0-11.4,19.5-16.6,21.6l2,0.3l-2.3,2.3h4.7
		c0,0-16.9,9.9-16.9,14.6c0,0-15.7,3.5-16.3,4.7c0,0-14-0.3-19.8-4.7C197.6,186.6,144.9,131.2,144.9,131.2z"/>
	<path class="st2" d="M35.4,116.8c0,0-2-1.7,2.6-10.2s8.2-23,8.2-23s2.3-10.5,1.7-11.9c-0.6-1.5,3.2,5.2,3.2,5.2l0.6-6.4l2.9,4.4
		c0,0,25.1-32,30.3-31.8l-0.6,3.2l4.1-4.7l-6.7,28c0,0-4.1,13.7-3.8,18.1s-7,16-7,16L54.6,115L35.4,116.8z"/>
	<path class="st2" d="M152.2,200.8c0,0-2.3,12.5-1.7,14s-7.6,6.4-7.6,6.4L132.7,211C132.7,211,147.2,196.8,152.2,200.8z"/>
	<path class="st3" d="M72.9,136.3c0,0,28.6-38,32.6-37.3c0,0,0,3.7-0.7,5.7l6.1-4.7l-0.7,4c0,0,23.9-12.8,28.6-12.8
		S153,81.1,153,81.1v4.7l11.1-6.4c0,0-17.8,31.6-17.8,34.7c0,3-10.8,20.2-10.8,20.2s21.9-9.4,45.8,12.8s18.2,43.4,43.7,61.9
		c0,0,2.7,8.1-16.5,42.4c0,0-14.8,14.1-26.6-0.3c0,0-2.4-8.1,4.4-11.8c6.7-3.7,11.8-19.5,11.8-19.5s-3.4-4.7-16.8-5
		c-13.5-0.3-14.1-2.4-14.1-2.4s-7.4-3.4-11.4-11.8c0,0-5-0.7-11.1,4s-10.1,6.7-10.1,6.7l17.5,17.5c0,0,2.4,7.7-3.4,16.8
		c-5.7,9.1-21.9,28.9-21.9,28.9s-12.4,9.4-25.2,1.3c0,0-9.8-6.4,1.7-15.1c0,0,6,0.5,11.1-8s8-13,8-13s0.9-2.6-4.6-3.4
		c-5.5-0.8-10.5-5-10.5-5l-42.6,2.4l-26.8,20.4c0,0-6.4,7.9-17.3,7.9s-16-3.7-16-3.7s-3.5-8.7,2.5-12.1s17.7-5.2,32.8-25.4L31,192.1
		c0,0-15.8-3.3-14.6-15.8c0,0,2.7-5.2,2.1-12.9s2.3-14.1,2.3-14.1L72.9,136.3z"/>
	<path class="st4" d="M17.7,180.5c0,0,2.9,2.3,7.3,1.7c0,0,1,2.3-2.1,3.1s-4.2-1-4.2-1S16.3,181.8,17.7,180.5z"/>
	<path class="st5" d="M35.4,192.4c0,0,5.6-1.2,7.3,5.4C42.7,197.8,34.8,196.9,35.4,192.4z"/>
	<path class="st6" d="M20.7,149.3c0,0-8.9-26.4,14.3-32.6s31.2-6.9,26.6-22.9c0,0,8.9-1.2,13.3,15.8s-2,26.7-2,26.7
		s-3.2,8.2-10.9,13.2c0,0-6.7,11.6-18.3,12.5C32.1,162.8,24.6,159.1,20.7,149.3z"/>
	<path class="st6" d="M30.8,192.2l1,6.4l-3.5-2.1c0,0,2.5,9.1,4.4,10v7.1l5.6,3.7c0,0,2.9,5.8,6.4,6.2s5,3.1,5,3.1L50,229l7.1,0.2
		l0.4,6.2l4.6-4c0,0,3.3,6.2,7.7,8.3l-0.2-3.5c0,0,9.6,5.8,11.4,5.6c1.9-0.2,8.1-2.3,8.3-4.6c0,0,9.8,0.6,17-5.4
		c0,0,9.1-0.2,10.8-3.5l-4.8-1.7l9.4-4l-2.9-0.6c0,0,5.2-1.9,5.2-3.3l-3.5-0.6c0,0,4.8-1.9,8.3-5.8c3.5-4,12.7-12.1,12.7-12.1
		l-4.2,0.4c0,0,3.5-8.7,6-12.1l-4.6,2.3l1.2-3.5c0,0,3.7-4.8,2.1-10.8l0.8-10.8l-3.1-7.7l0.6-15.6l-4.2,4.6l-0.8-3.5l-1.2,6.4
		l-1.9-10.8c0,0-6.4,10.4-21.4,12.1s-16.4,2.1-16.4,2.1s5.2,30.4-18.7,39.9c-23.9,9.6-35.3,4.4-35.3,4.4s-6-1.9-5.8-5L30.8,192.2z"
		/>
	<path class="st4" d="M75.6,146.4c0,0,11.4-23.9,24.8-30s49.2-23,49.2-23s-12.5,34.4-27.1,44.9S81.1,150,81.1,150l7.3-7.9
		C88.4,142,80.5,142.3,75.6,146.4z"/>
</g>
</svg>
