<?xml version="1.0" encoding="utf-8"?>
<!-- Generator: Adobe Illustrator 23.0.6, SVG Export Plug-In . SVG Version: 6.00 Build 0)  -->
<svg version="1.1" id="Layer_1" xmlns="http://www.w3.org/2000/svg" xmlns:xlink="http://www.w3.org/1999/xlink" x="0px" y="0px"
	 viewBox="0 0 288 288" style="enable-background:new 0 0 288 288;" xml:space="preserve">
<style type="text/css">
	.st0{opacity:0.5;}
	.st1{fill:#58576F;}
	.st2{fill:#83839E;}
	.st3{fill:#FFFFFF;}
</style>
<g class="st0">
	<path d="M45.6,183.4c0,0-28.4,32.6,7.8,53.2c0,0,3.2,12.4,8.7,11.9l0.9-4.1c0,0,6,7.3,7.8,6l-0.5-6c0,0,6.9,2.8,7.3,1.4
		s0.5-8.3,0.5-8.3l2.3-2.3L45.6,183.4z"/>
	<path d="M103,249.9c0,0,13.3,17.4,19.3,15.6c0,0,6.4-13.3,10.1-13.8C132.3,251.7,103,243.9,103,249.9z"/>
	<path d="M126.4,61.8l0.5-14.2l15.6,13.8c0,0,1.4-11,2.8-9.2c1.4,1.8,5.5,9.2,5.5,9.2s40.8-17.4,45.4-14.2l-12.4,23.4l21.1-2.3
		l-8.7,11.5L126.4,61.8z"/>
	<path d="M74.5,88.9c0,0-7.8-75.2-4.1-76.6c3.7-1.4,56,49.5,56,49.5s43.6-1.4,69.7,17.9c0,0,79.8-3.2,86.7,0.5l-65.1,57.3l0.5,2.8
		c0,0,18.8,4.1,26.1,2.8c7.3-1.4,26.6,5.5,26.6,5.5l-4.1,3.2c0,0,9.6,3.2,9.2,5c-0.5,1.8-10.6,6-10.6,6l-0.5,8.3l-6.4-2.3
		c0,0-47.2,21.6-50,19.7c0,0-6.9,24.8-18.8,33.9c0,0,19.7,48.2-27.5,58.7c0,0-12.4,1.4-14.7-6.9s-8.3-21.6-12.8-22.5
		c0,0-37.2,9.2-70.6-31.2s-16.5-84.4-16.5-84.4l3.2-8.7c0,0-16.1-25.2-16.5-31.7l-11-5.5l6.9-6l-9.6-8.3c0,0,6.4-3.7,10.6-2.3V64
		c0,0,5.5,4.6,11,6.9S74.5,88.9,74.5,88.9z"/>
	<path d="M152,273.3c0,0,2.3-16.5,7.8-16.5l4.1,6l7.3-6.4c0,0,2.3,4.1,1.8,7.3c0,0,6.4-5,6.4-2.3s-1.8,8.7-1.8,8.7
		S161.7,292.1,152,273.3z"/>
	<path d="M75.9,142.5c0,0,34.4,54.1,102.3,31.2c0,0-17.4,44.5-66.1,24.8S75.9,142.5,75.9,142.5z"/>
</g>
<g>
	<path class="st1" d="M40.3,178.6c0,0-28.4,32.6,7.8,53.2c0,0,3.2,12.4,8.7,11.9l0.9-4.1c0,0,6,7.3,7.8,6l-0.5-6
		c0,0,6.9,2.8,7.3,1.4s0.5-8.3,0.5-8.3l2.3-2.3L40.3,178.6z"/>
	<path class="st1" d="M97.7,245.1c0,0,13.3,17.4,19.3,15.6c0,0,6.4-13.3,10.1-13.8C127,246.9,97.7,239.1,97.7,245.1z"/>
	<path class="st1" d="M121.1,57l0.5-14.2l15.6,13.8c0,0,1.4-11,2.8-9.2c1.4,1.8,5.5,9.2,5.5,9.2s40.8-17.4,45.4-14.2l-12.4,23.4
		l21.1-2.3L190.9,75L121.1,57z"/>
	<path class="st2" d="M69.2,84.1c0,0-7.8-75.2-4.1-76.6c3.7-1.4,56,49.5,56,49.5s43.6-1.4,69.7,17.9c0,0,79.8-3.2,86.7,0.5
		l-65.1,57.3l0.5,2.8c0,0,18.8,4.1,26.1,2.8c7.3-1.4,26.6,5.5,26.6,5.5l-4.1,3.2c0,0,9.6,3.2,9.2,5c-0.5,1.8-10.6,6-10.6,6l-0.5,8.3
		l-6.4-2.3c0,0-47.2,21.6-50,19.7c0,0-6.9,24.8-18.8,33.9c0,0,19.7,48.2-27.5,58.7c0,0-12.4,1.4-14.7-6.9s-8.3-21.6-12.8-22.5
		c0,0-37.2,9.2-70.6-31.2s-16.5-84.4-16.5-84.4l3.2-8.7c0,0-16.1-25.2-16.5-31.7l-11-5.5l6.9-6l-9.6-8.3c0,0,6.4-3.7,10.6-2.3v-9.6
		c0,0,5.5,4.6,11,6.9S69.2,84.1,69.2,84.1z"/>
	<path class="st1" d="M146.7,268.5c0,0,2.3-16.5,7.8-16.5l4.1,6l7.3-6.4c0,0,2.3,4.1,1.8,7.3c0,0,6.4-5,6.4-2.3s-1.8,8.7-1.8,8.7
		S156.4,287.3,146.7,268.5z"/>
	<path class="st3" d="M70.6,137.7c0,0,34.4,54.1,102.3,31.2c0,0-17.4,44.5-66.1,24.8S70.6,137.7,70.6,137.7z"/>
</g>
</svg>
