<?xml version="1.0" encoding="utf-8"?>
<!-- Generator: Adobe Illustrator 23.0.6, SVG Export Plug-In . SVG Version: 6.00 Build 0)  -->
<svg version="1.1" id="Layer_1" xmlns="http://www.w3.org/2000/svg" xmlns:xlink="http://www.w3.org/1999/xlink" x="0px" y="0px"
	 viewBox="0 0 288 288" style="enable-background:new 0 0 288 288;" xml:space="preserve">
<style type="text/css">
	.st0{opacity:0.5;}
	.st1{fill:#9B9894;}
	.st2{fill:#B6B5AD;}
</style>
<g class="st0">
	<path d="M88.9,168.8l-2.4,3.2c0,0-15.3-0.8-18.1,14.1l-2.4,2.4c0,0-4-2.4-5.2-2c0,0-3.2-10.9-2.4-14.9s-6-10.9-6-10.9
		s-6.4-6.4-5.6-10.5c0,0,9.2-6.8,8.8-9.2c0,0,6,0.8,6.8-6.8c0.8-7.6-8.4-7.2-8.4-7.2s3.6-8.8,3.2-10.9c-0.4-2-7.6-7.2-7.6-7.2
		s-7.2-1.6-8.8,0.8c0,0-4.4-4.8-13.3,3.6c0,0-7.2,0-10.5,6c0,0-8.4,1.6-8.4,11.7c0,10.1,14.5,29.8,14.5,29.8s11.1,29.3,17.1,32.1
		s11.7,5.2,11.7,5.2s9.7,6.8,13.7,4.8s7.6-7.2,7.6-7.2s12.1-10.9,16.1-10.5S88.9,168.8,88.9,168.8z"/>
	<path d="M86.5,144.2c0,0-6.4,8.8-2.8,13.3s5.2,8.4,5.2,11.3c0,0,0,12.1-1.2,14.1s13.3,8.4,13.3,8.4l64.7-3.2c0,0,3.6-0.4,4.8-1.6
		l1.2-2.4l2.4-2l3.2-6.8v-2.4l1.6-3.2l0.8-5.2c0,0,20.1-0.4,24.5,2.8c0,0,2,2.8,6.4,3.2s16.9-0.8,16.9-0.8s13.7-1.2,21.7-9.2
		c0,0,6.8-6.8,9.7-4.8c0,0,1.2,2.8,14.1-2s10.1-11.3,10.1-11.3s-0.4-3.6-2-4.4c0,0,0.4-9.7-4.4-11.3c-4.8-1.6-3.2-8-3.2-8
		s-3.2-5.6-7.6-7.2s-9.7-9.2-9.7-9.2s-5.6-6-17.3,5.2c-11.7,11.3-9.7,12.1-9.7,12.1v6c0,0-6.8,5.2-6,8.8s4,8.4,4,8.4
		s-15.3-2-24.1,10.9c0,0-12.1-14.5-22.9-4.8l-2.8-7.2c0,0-4.8-5.2-7.6-4.8c0,0-13.3-17.7-12.9-20.1c0,0-18.9-6-23.7-2
		s-2.8,3.6-2.8,3.6s-17.7,2.4-17.7,0.8c0,0-9.7,0.8-10.5,8.8C102.2,127.7,92.1,127.7,86.5,144.2z"/>
	<path d="M101,191.3c0,0,17.7,17.7,39.4,11.3c21.7-6.4,25.3-14.5,25.3-14.5s4-8-3.6-11.7c0,0-4.4,4.4-6.8,3.2
		c0,0-15.7-12.1-20.9-8.8c0,0-22.1,10.5-31,8.4C103.4,179.2,94.9,186.1,101,191.3z"/>
</g>
<g>
	<path class="st1" d="M83.7,163.7l-2.4,3.2c0,0-15.3-0.8-18.1,14.1l-2.4,2.4c0,0-4-2.4-5.2-2c0,0-3.2-10.9-2.4-14.9s-6-10.9-6-10.9
		s-6.4-6.4-5.6-10.5c0,0,9.2-6.8,8.8-9.2c0,0,6,0.8,6.8-6.8s-8.4-7.2-8.4-7.2s3.6-8.8,3.2-10.9c-0.4-2-7.6-7.2-7.6-7.2
		s-7.2-1.6-8.8,0.8c0,0-4.4-4.8-13.3,3.6c0,0-7.2,0-10.5,6c0,0-8.4,1.6-8.4,11.7s14.5,29.8,14.5,29.8S29,185,35,187.8
		s11.7,5.2,11.7,5.2s9.7,6.8,13.7,4.8s7.6-7.2,7.6-7.2s12.1-10.9,16.1-10.5S83.7,163.7,83.7,163.7z"/>
	<path class="st2" d="M81.3,139.1c0,0-6.4,8.8-2.8,13.3s5.2,8.4,5.2,11.3c0,0,0,12.1-1.2,14.1s13.3,8.4,13.3,8.4l64.7-3.2
		c0,0,3.6-0.4,4.8-1.6l1.2-2.4l2.4-2l3.2-6.8v-2.4l1.6-3.2l0.8-5.2c0,0,20.1-0.4,24.5,2.8c0,0,2,2.8,6.4,3.2s16.9-0.8,16.9-0.8
		s13.7-1.2,21.7-9.2c0,0,6.8-6.8,9.7-4.8c0,0,1.2,2.8,14.1-2s10.1-11.3,10.1-11.3s-0.4-3.6-2-4.4c0,0,0.4-9.7-4.4-11.3s-3.2-8-3.2-8
		s-3.2-5.6-7.6-7.2s-9.7-9.2-9.7-9.2s-5.6-6-17.3,5.2c-11.7,11.3-9.7,12.1-9.7,12.1v6c0,0-6.8,5.2-6,8.8c0.8,3.6,4,8.4,4,8.4
		s-15.3-2-24.1,10.9c0,0-12.1-14.5-22.9-4.8l-2.8-7.2c0,0-4.8-5.2-7.6-4.8c0,0-13.3-17.7-12.9-20.1c0,0-18.9-6-23.7-2
		s-2.8,3.6-2.8,3.6s-17.7,2.4-17.7,0.8c0,0-9.7,0.8-10.5,8.8C97,122.6,86.9,122.6,81.3,139.1z"/>
	<path class="st1" d="M95.8,186.2c0,0,17.7,17.7,39.4,11.3s25.3-14.5,25.3-14.5s4-8-3.6-11.7c0,0-4.4,4.4-6.8,3.2
		c0,0-15.7-12.1-20.9-8.8c0,0-22.1,10.5-31,8.4C98.2,174.1,89.7,181,95.8,186.2z"/>
</g>
</svg>
