<?xml version="1.0" encoding="utf-8"?>
<!-- Generator: Adobe Illustrator 23.0.6, SVG Export Plug-In . SVG Version: 6.00 Build 0)  -->
<svg version="1.1" id="Layer_1" xmlns="http://www.w3.org/2000/svg" xmlns:xlink="http://www.w3.org/1999/xlink" x="0px" y="0px"
	 viewBox="0 0 288 288" style="enable-background:new 0 0 288 288;" xml:space="preserve">
<style type="text/css">
	.st0{opacity:0.5;}
	.st1{fill:#847088;}
	.st2{fill:#130E0F;}
	.st3{fill:#BCA6B0;}
	.st4{fill:#F1EDED;}
</style>
<g class="st0">
	<path d="M7.6,84.8c0,0,11.5-3.3,9.9,5.5s-4.9,9.3-4.9,9.3S4.9,98,6,94.7C7,91.4,7.6,84.8,7.6,84.8z"/>
	<path d="M121.6,7c0,0-15.3,8.8-11,15.9c4.4,7.1,4.9,1.6,4.9,1.6l0.5,2.7c0,0,7.7-3.3,9.3-6.6c1.6-3.3,1.6-9.3,1.6-9.3
		S124.9,7,121.6,7z"/>
	<path d="M219.2,272.8c0,0,0.5,5.5,3.3,3.8c2.7-1.6,0.5-4.4,0.5-4.4S220.3,272.3,219.2,272.8z"/>
	<path d="M234,252c0,0-5.5,6-1.1,12.1c4.4,6.1,12.1-1.1,12.1-1.1S247.1,250.4,234,252z"/>
	<path d="M274,117.2l-8.2,6.6l1.6,8.8c0,0,7.1,3.3,8.2,7.7c0,0,8.8,1.6,9.9-3.3s1.1-7.7,1.1-7.7s-3.3-6-8.8-6l2.2-7.7
		c0,0,12.1-5.5,2.7-9.3c0,0-2.2-6-9.3-1.1C273.4,105.1,268.5,107.8,274,117.2z"/>
	<path d="M25.1,181.3c0,0-1.1,7.7-8.2,8.2c0,0,1.1,6.8,1.1,14.3c0,1.6-1.1,10.4,9.3,8.8s10.4,19.1,10.4,19.1s-1.6,9.9,6,12.1
		s8.8,0.5,8.8,0.5s-1.1-8.2,6.6-4.4s13.2,8.8,13.2,8.8s2.7,4.9,1.6,9.3c-1.1,4.4-1.1,8.8-1.1,8.8s2.2,4.4,12.6,7.1
		c0,0,5.1,12.1,9.3,12.1c0.5,0,15.3-5.5,21.4-2.7c6,2.7,7.1-8.2,7.1-8.2l-7.7-2.2c0,0,0-8.8,7.7-7.7s9.3,5.5,9.3,5.5s-2.2,5.5-0.5,6
		c1.6,0.5,8.2,3.3,8.2,3.3s6.6-5.5,10.4-2.2c3.8,3.3,15.3-11,15.3-11s-3.8-10.4,4.4-8.8c8.2,1.6,13.7,6,13.7,6s-1.6,13.2,12.6,12.1
		c0,0,6.6,0,7.7-7.7c0,0,11.5-13.2,19.2-12.1c7.7,1.1-1.1-6-1.1-6s4.4-16.4,2.2-19.7c0,0,9.9-8.8,12.6-6.6l0.5,2.7h9.3
		c0,0,10.4-6.6,9.3-17.5l9.9-8.2l7.1,1.1l13.2-17c0,0-9.9-15.3-8.2-18.6c1.6-3.3,3.3-6.6,3.3-6.6s-11-11.5-14.8-11
		c0,0-2.2,1.6-8.8,0.5c-6.6-1.1-8.2,4.4-8.2,4.4l2.7,4.4c0,0-4.4,11.5-14.8,4.9c-10.4-6.6,1.1-26.3,1.1-26.3s10.4-0.5,9.9-7.7
		c-0.5-7.1,3.3-15.3,3.3-15.3s0.5-6.6-7.7-11s-6-8.2-6-8.2s-6-5.5-13.7,0s-12.6,5.5-12.6,5.5s-9.9-1.1-10.4-6s-4.4-6.6-4.4-6.6
		s2.2-17,16.4-13.2c0,0,3.3,7.1,11,6s11-12.6,11-12.6s-5.5-13.7,0.5-18.1c0,0,0.5-4.4-8.8-9.9s-12.6,0.5-12.6,0.5l-3.8,1.1l-2.2,4.4
		c0,0,1.6,11.5-5.5,10.4s-8.8-6-8.8-6s-12.1-4.9-12.6-9.3l-2.7-0.5c0,0-3.8-5.5-4.4-3.8s-13.2,17-27.4,15.3c0,0,0.5,14.3-10.4,10.4
		c0,0-9.9-0.5-13.2,1.1c-3.3,1.6-6-6.6-6-6.6l1.1-4.4c0,0,9.9-0.5,9.9-11.5s-10.4-7-10.4-7l-9.3,8.8l-12.6-2.2L92,40.9L88.7,36
		c0,0-14.8,8.8-16.4,6.6s-2.7,12.1-2.7,12.1s-5.5,6-8.2,1.6c-2.7-4.4-2.2,1.1-2.2,1.1l-3.3,3.8c0,0,9.9,14.8,2.7,18.6
		c0,0-10.3-2.1-16.4,7.1c-1.1,1.6-0.5,15.9-10.4,17.5c0,0-12.6-7.1-17.5,8.2s-7.1,13.7-7.1,13.7s8.8,4.9,9.9,17.5l11,7.1
		c0,0-12.6,14.3-9.3,18.6S25.1,181.3,25.1,181.3z"/>
	<path d="M55.8,219.7c0,0,21.9,52.1,89.4,30.1s63-81.1,63-81.1S212,76.6,118.3,75S30,192.3,30,192.3S46.5,215.3,55.8,219.7z"/>
	<path d="M62.4,221.9c0,0,7.7,26.9,42.2,24.1c34.5-2.7,36.7-25.2,36.7-25.2S106.2,241.6,62.4,221.9z"/>
	<path d="M44.3,210.3c0,0-1.6,20.3,1.1,19.7s10.4-10.4,10.4-10.4L44.3,210.3z"/>
	<path d="M119.9,228.4c0,0,8.8,17,11,14.8s2.7-18.6,2.7-18.6L119.9,228.4z"/>
</g>
<g>
	<path class="st1" d="M2.9,80c0,0,11.5-3.3,9.9,5.5s-4.9,9.3-4.9,9.3s-7.7-1.6-6.6-4.9C2.3,86.6,2.9,80,2.9,80z"/>
	<path class="st1" d="M116.9,2.2c0,0-15.3,8.8-11,15.9c4.4,7.1,4.9,1.6,4.9,1.6l0.5,2.7c0,0,7.7-3.3,9.3-6.6
		c1.6-3.3,1.6-9.3,1.6-9.3S120.2,2.2,116.9,2.2z"/>
	<path class="st1" d="M214.5,268c0,0,0.5,5.5,3.3,3.8c2.7-1.6,0.5-4.4,0.5-4.4S215.6,267.5,214.5,268z"/>
	<path class="st1" d="M229.3,247.2c0,0-5.5,6-1.1,12.1c4.4,6.1,12.1-1.1,12.1-1.1S242.4,245.6,229.3,247.2z"/>
	<path class="st1" d="M269.3,112.4l-8.2,6.6l1.6,8.8c0,0,7.1,3.3,8.2,7.7c0,0,8.8,1.6,9.9-3.3c1.1-4.9,1.1-7.7,1.1-7.7s-3.3-6-8.8-6
		l2.2-7.7c0,0,12.1-5.5,2.7-9.3c0,0-2.2-6-9.3-1.1C268.7,100.3,263.8,103,269.3,112.4z"/>
	<path class="st1" d="M20.4,176.5c0,0-1.1,7.7-8.2,8.2c0,0,1.1,6.8,1.1,14.3c0,1.6-1.1,10.4,9.3,8.8S33,226.9,33,226.9
		s-1.6,9.9,6,12.1s8.8,0.5,8.8,0.5s-1.1-8.2,6.6-4.4s13.2,8.8,13.2,8.8s2.7,4.9,1.6,9.3c-1.1,4.4-1.1,8.8-1.1,8.8s2.2,4.4,12.6,7.1
		c0,0,5.1,12.1,9.3,12.1c0.5,0,15.3-5.5,21.4-2.7c6,2.7,7.1-8.2,7.1-8.2l-7.7-2.2c0,0,0-8.8,7.7-7.7s9.3,5.5,9.3,5.5s-2.2,5.5-0.5,6
		c1.6,0.5,8.2,3.3,8.2,3.3s6.6-5.5,10.4-2.2c3.8,3.3,15.3-11,15.3-11s-3.8-10.4,4.4-8.8c8.2,1.6,13.7,6,13.7,6s-1.6,13.2,12.6,12.1
		c0,0,6.6,0,7.7-7.7c0,0,11.5-13.2,19.2-12.1c7.7,1.1-1.1-6-1.1-6s4.4-16.4,2.2-19.7c0,0,9.9-8.8,12.6-6.6l0.5,2.7h9.3
		c0,0,10.4-6.6,9.3-17.5l9.9-8.2l7.1,1.1l13.2-17c0,0-9.9-15.3-8.2-18.6c1.6-3.3,3.3-6.6,3.3-6.6s-11-11.5-14.8-11
		c0,0-2.2,1.6-8.8,0.5c-6.6-1.1-8.2,4.4-8.2,4.4l2.7,4.4c0,0-4.4,11.5-14.8,4.9c-10.4-6.6,1.1-26.3,1.1-26.3s10.4-0.5,9.9-7.7
		c-0.5-7.1,3.3-15.3,3.3-15.3s0.5-6.6-7.7-11s-6-8.2-6-8.2s-6-5.5-13.7,0s-12.6,5.5-12.6,5.5s-9.9-1.1-10.4-6s-4.4-6.6-4.4-6.6
		s2.2-17,16.4-13.2c0,0,3.3,7.1,11,6s11-12.6,11-12.6s-5.5-13.7,0.5-18.1c0,0,0.5-4.4-8.8-9.9S210,35.4,210,35.4l-3.8,1.1l-2.2,4.4
		c0,0,1.6,11.5-5.5,10.4s-8.8-6-8.8-6s-12.1-4.9-12.6-9.3l-2.7-0.5c0,0-3.8-5.5-4.4-3.8s-13.2,17-27.4,15.3c0,0,0.5,14.3-10.4,10.4
		c0,0-9.9-0.5-13.2,1.1c-3.3,1.6-6-6.6-6-6.6l1.1-4.4c0,0,9.9-0.5,9.9-11.5s-10.4-7-10.4-7l-9.3,8.8l-12.6-2.2l-4.4,0.5L84,31.2
		c0,0-14.8,8.8-16.4,6.6s-2.7,12.1-2.7,12.1s-5.5,6-8.2,1.6s-2.2,1.1-2.2,1.1l-3.3,3.8c0,0,9.9,14.8,2.7,18.6c0,0-10.3-2.1-16.4,7.1
		C36.4,83.7,37,98,27.1,99.6c0,0-12.6-7.1-17.5,8.2s-7.1,13.7-7.1,13.7s8.8,4.9,9.9,17.5l11,7.1c0,0-12.6,14.3-9.3,18.6
		S20.4,176.5,20.4,176.5z"/>
	<path class="st2" d="M51.1,214.9c0,0,21.9,52.1,89.4,30.1s63-81.1,63-81.1s3.8-92.1-89.9-93.7S25.3,187.5,25.3,187.5
		S41.8,210.5,51.1,214.9z"/>
	<path class="st3" d="M57.7,217.1c0,0,7.7,26.9,42.2,24.1c34.5-2.7,36.7-25.2,36.7-25.2S101.5,236.8,57.7,217.1z"/>
	<path class="st4" d="M39.6,205.5c0,0-1.6,20.3,1.1,19.7s10.4-10.4,10.4-10.4L39.6,205.5z"/>
	<path class="st4" d="M115.2,223.6c0,0,8.8,17,11,14.8s2.7-18.6,2.7-18.6L115.2,223.6z"/>
</g>
</svg>
