<?xml version="1.0" encoding="utf-8"?>
<!-- Generator: Adobe Illustrator 23.0.6, SVG Export Plug-In . SVG Version: 6.00 Build 0)  -->
<svg version="1.1" id="Layer_1" xmlns="http://www.w3.org/2000/svg" xmlns:xlink="http://www.w3.org/1999/xlink" x="0px" y="0px"
	 viewBox="0 0 288 288" style="enable-background:new 0 0 288 288;" xml:space="preserve">
<style type="text/css">
	.st0{opacity:0.5;}
	.st1{fill:#51738F;}
	.st2{fill:#815249;}
	.st3{fill:#B06950;}
	.st4{fill:#6C8DA3;}
	.st5{fill:#D07655;}
	.st6{fill:#A57466;}
	.st7{fill:#D59D8A;}
	.st8{fill:#DDCCC7;}
	.st9{fill:#DFCFCA;}
	.st10{fill:#BA8074;}
	.st11{fill:#A6A4BE;}
	.st12{fill:#D2CFD3;}
</style>
<g class="st0">
	<path d="M87,192.9c0,0-8.6,14.4-18.2,17.2s-4.3,11.5-4.3,11.5s11,9.6,20.1,1s8.1-20.1,8.1-20.1L87,192.9z"/>
	<path d="M120.1,228.3c0,0-0.5,9.6-2.4,10.5c-1.9,1-24.4,10.5-30.2,10.5s-9.6,7.7-9.6,7.7s-1,10.1,16.8,7.7
		c17.7-2.4,32.6-15.8,32.6-15.8s5.7-6.2-1.4-11.5c0,0-0.5-7.2,2.4-8.1C131.1,228.3,120.1,228.3,120.1,228.3z"/>
	<path d="M177.5,233.6c0,0,1,7.7,7.2,8.1c6.2,0.5,31.1,9.1,31.1,9.1s13.9,8.6,1.4,14.8c-12.5,6.2-45.5-14.8-45.5-14.8
		s-4.3-8.1,0-9.6s-2.4-9.1-2.4-9.1L177.5,233.6z"/>
	<path d="M145.4,71.2L132,55.9c0,0,9.6-15.3,31.1-11.5s24.5,17.3,24.5,17.3l-18.2,12.5L145.4,71.2z"/>
	<path d="M88.8,78.9c0,0-45,2.4-62.7,32.6s-14.9,46.9-14.9,46.9s-1.4,10.5,8.1,16.8s17.2-1.4,17.2-1.4s4.3-5.7,4.3-9.6
		c0,0-8.6,9.1-15.8,2.9c-7.2-6.2-6.2-16.3-6.2-16.3s10.5-33,61.8-29.2l26.8-8.6L88.8,78.9z"/>
	<path d="M224.5,107.6c0,0,24.4-1.4,36.9-15.3C273.9,78.4,271.9,53,271.9,53s26.8,25.4,7.7,60.3c-19.2,35-45,25.9-45,25.9L215,122.9
		L224.5,107.6z"/>
	<path d="M96.6,149.8c0,0-21.1,35.9-4.3,58s40.7,26.3,40.7,26.3s39.8,7.2,59.4-7.2s14.8-11.5,14.8-11.5s21.1,21.1,30.7,9.6
		s0.5-13.9,0.5-13.9l-20.6-8.6c0,0,8.1-36.4-4.3-54.6s-29.2-21.6-29.2-21.6s-66.1,3.4-67.5,4.3C115.3,131.6,96.6,149.8,96.6,149.8z"
		/>
	<path d="M94.7,115.3c0,0-65.1,28.3-24.4,81.9c0,0-12-46.5,61.3-60.8l-1.9-13.4L94.7,115.3z"/>
	<path d="M217.3,121.5c0,0,33,1.4,41.2,39.8s-9.1,45.5-9.1,45.5s5.7-40.2-59.4-74.7L217.3,121.5z"/>
	<path d="M147.8,66.4c0,0-14.4-19.2-38.8-8.1S85.1,99,85.1,99s3.8,32.6,39.3,25.9C159.8,118.2,147.8,66.4,147.8,66.4z"/>
	<path d="M167.9,68.4c0,0,16.3-13.4,33-7.2s23,23,23,23s11,23-9.1,38.8s-35.4,4.3-35.4,4.3L167.9,68.4z"/>
	<path d="M142.1,74.1c0,0,3.8-9.6,16.3-7.7s15.8,12,15.8,12L142.1,74.1z"/>
	<polygon points="168.9,50.2 170.3,54 174.7,57.3 178,55.9 177.5,52.1 173.2,50.2 	"/>
	<polygon points="159.3,46.8 162.2,49.7 162.7,52.1 160.3,52.1 156.9,50.2 	"/>
	<polygon points="104.2,68.4 108.1,66.4 105.2,63.6 102.8,66.4 	"/>
	<path d="M112.9,68.8l-3.8,3.4c0,0-1.9,3.4,1.4,4.8c3.4,1.4,3.4,1.4,3.4,1.4l4.3-6.7L112.9,68.8z"/>
	<polygon points="98.5,73.2 99.5,77 95.6,80.3 94.2,77 96.6,72.2 	"/>
	<polygon points="198.6,75.1 198.6,71.2 202,68.8 206.7,72.2 207.7,76.5 	"/>
	<path d="M188.5,69.3c0,0,2.9,0,2.9-1.4s-2.4-2.4-2.4-2.4L188.5,69.3z"/>
	<path d="M192.4,85.6c0,0-1.9-4.3,4.3-1.9s6.2,3.8,6.2,3.8l-1.4,1.9l-2.9,0.5L192.4,85.6z"/>
	<path d="M183.8,79.4c1.4,0,5.3-2.4,5.3-2.4l-3.8-1.9l-1.4,2.4v1.9H183.8z"/>
	<path d="M149.7,72.7c-16.2,2.6-29,14.4-32.1,29.2c-3.5,16.9,7.2,29.9,8.6,31.6c2.7,2.1,14.2,10.6,30.2,9.1
		c3.6-0.3,17.4-1.6,26.8-13.4c1.8-2.2,8.7-12.4,7.5-24.6c-1.6-16.5-16.6-26.1-16.6-26.1c-1.9-1.1-4-2.1-6.5-3.1
		C160.6,72.8,154.2,72.5,149.7,72.7z"/>
	<polygon points="149.7,87.5 151.2,91.4 153.1,88.5 	"/>
	<path d="M163.6,85.6c0,0-6.7,3.8-2.9,7.7c3.8,3.8,5.7,3.8,5.7,3.8l2.4-1.4v-7.2L163.6,85.6z"/>
	<polygon points="147.8,97.1 154.1,103.3 153.1,108.1 148.3,108.1 144.5,105.2 143,99.5 	"/>
	<path d="M169.4,103.8l-5.3,1.4c0,0,2.4,6.7,4.8,4.8C171.3,108.1,169.4,103.8,169.4,103.8z"/>
	<path d="M120.1,173.3c0,0-12.5,3.4-9.1,9.1c3.4,5.7,8.1,4.8,8.1,4.8s27.3-3.4,35.9,1s21.1,2.9,21.1,2.9s9.1-5.7,1.9-12.5
		c-7.2-6.7-23.5-8.1-23.5-8.1S126.3,169.9,120.1,173.3z"/>
	<path d="M121,180.4c0,0-4.3-1.4,2.4-3.4c6.7-1.9,16.8-1.4,16.8-1.4s28.3,1.9,29.2,7.2c0,0,4.3,14.8-3.8,13.9c0,0,2.4,19.2-4.8,18.7
		s-3.8-26.3-3.8-26.3s2.4-4.8-4.3-7.7C145.9,178.5,127.2,179,121,180.4z"/>
</g>
<g>
	<path class="st1" d="M82,188.2c0,0-8.6,14.4-18.2,17.2s-4.3,11.5-4.3,11.5s11,9.6,20.1,1s8.1-20.1,8.1-20.1L82,188.2z"/>
	<path class="st1" d="M115.1,223.6c0,0-0.5,9.6-2.4,10.5c-1.9,1-24.4,10.5-30.2,10.5s-9.6,7.7-9.6,7.7s-1,10.1,16.8,7.7
		c17.7-2.4,32.6-15.8,32.6-15.8s5.7-6.2-1.4-11.5c0,0-0.5-7.2,2.4-8.1C126.1,223.6,115.1,223.6,115.1,223.6z"/>
	<path class="st1" d="M172.5,228.9c0,0,1,7.7,7.2,8.1c6.2,0.5,31.1,9.1,31.1,9.1s13.9,8.6,1.4,14.8c-12.5,6.2-45.5-14.8-45.5-14.8
		s-4.3-8.1,0-9.6s-2.4-9.1-2.4-9.1L172.5,228.9z"/>
	<path class="st2" d="M140.4,66.5L127,51.2c0,0,9.6-15.3,31.1-11.5S182.6,57,182.6,57l-18.2,12.5L140.4,66.5z"/>
	<path class="st3" d="M83.8,74.2c0,0-45,2.4-62.7,32.6S6.2,153.7,6.2,153.7s-1.4,10.5,8.1,16.8s17.2-1.4,17.2-1.4s4.3-5.7,4.3-9.6
		c0,0-8.6,9.1-15.8,2.9c-7.2-6.2-6.2-16.3-6.2-16.3s10.5-33,61.8-29.2l26.8-8.6L83.8,74.2z"/>
	<path class="st3" d="M219.5,102.9c0,0,24.4-1.4,36.9-15.3s10.5-39.3,10.5-39.3s26.8,25.4,7.7,60.3c-19.2,35-45,25.9-45,25.9
		L210,118.2L219.5,102.9z"/>
	<path class="st4" d="M91.6,145.1c0,0-21.1,35.9-4.3,58s40.7,26.3,40.7,26.3s39.8,7.2,59.4-7.2s14.8-11.5,14.8-11.5
		s21.1,21.1,30.7,9.6s0.5-13.9,0.5-13.9l-20.6-8.6c0,0,8.1-36.4-4.3-54.6s-29.2-21.6-29.2-21.6s-66.1,3.4-67.5,4.3
		C110.3,126.9,91.6,145.1,91.6,145.1z"/>
	<path class="st5" d="M89.7,110.6c0,0-65.1,28.3-24.4,81.9c0,0-12-46.5,61.3-60.8l-1.9-13.4L89.7,110.6z"/>
	<path class="st5" d="M212.3,116.8c0,0,33,1.4,41.2,39.8c8.2,38.4-9.1,45.5-9.1,45.5s5.7-40.2-59.4-74.7L212.3,116.8z"/>
	<path class="st6" d="M142.8,61.7c0,0-14.4-19.2-38.8-8.1S80.1,94.3,80.1,94.3s3.8,32.6,39.3,25.9
		C154.8,113.5,142.8,61.7,142.8,61.7z"/>
	<path class="st6" d="M162.9,63.7c0,0,16.3-13.4,33-7.2s23,23,23,23s11,23-9.1,38.8s-35.4,4.3-35.4,4.3L162.9,63.7z"/>
	<path class="st7" d="M137.1,69.4c0,0,3.8-9.6,16.3-7.7c12.5,1.9,15.8,12,15.8,12L137.1,69.4z"/>
	<polygon class="st8" points="163.9,45.5 165.3,49.3 169.7,52.6 173,51.2 172.5,47.4 168.2,45.5 	"/>
	<polygon class="st8" points="154.3,42.1 157.2,45 157.7,47.4 155.3,47.4 151.9,45.5 	"/>
	<polygon class="st9" points="99.2,63.7 103.1,61.7 100.2,58.9 97.8,61.7 	"/>
	<path class="st9" d="M107.9,64.1l-3.8,3.4c0,0-1.9,3.4,1.4,4.8c3.4,1.4,3.4,1.4,3.4,1.4l4.3-6.7L107.9,64.1z"/>
	<polygon class="st9" points="93.5,68.5 94.5,72.3 90.6,75.6 89.2,72.3 91.6,67.5 	"/>
	<polygon class="st9" points="193.6,70.4 193.6,66.5 197,64.1 201.7,67.5 202.7,71.8 	"/>
	<path class="st9" d="M183.5,64.6c0,0,2.9,0,2.9-1.4s-2.4-2.4-2.4-2.4L183.5,64.6z"/>
	<path class="st9" d="M187.4,80.9c0,0-1.9-4.3,4.3-1.9s6.2,3.8,6.2,3.8l-1.4,1.9l-2.9,0.5L187.4,80.9z"/>
	<path class="st9" d="M178.8,74.7c1.4,0,5.3-2.4,5.3-2.4l-3.8-1.9l-1.4,2.4v1.9H178.8z"/>
	<path class="st10" d="M144.7,68c-16.2,2.6-29,14.4-32.1,29.2c-3.5,16.9,7.2,29.9,8.6,31.6c2.7,2.1,14.2,10.6,30.2,9.1
		c3.6-0.3,17.4-1.6,26.8-13.4c1.8-2.2,8.7-12.4,7.5-24.6c-1.6-16.5-16.6-26.1-16.6-26.1c-1.9-1.1-4-2.1-6.5-3.1
		C155.6,68.1,149.2,67.8,144.7,68z"/>
	<polygon class="st9" points="144.7,82.8 146.2,86.7 148.1,83.8 	"/>
	<path class="st9" d="M158.6,80.9c0,0-6.7,3.8-2.9,7.7c3.8,3.8,5.7,3.8,5.7,3.8l2.4-1.4v-7.2L158.6,80.9z"/>
	<polygon class="st9" points="142.8,92.4 149.1,98.6 148.1,103.4 143.3,103.4 139.5,100.5 138,94.8 	"/>
	<path class="st9" d="M164.4,99.1l-5.3,1.4c0,0,2.4,6.7,4.8,4.8C166.3,103.4,164.4,99.1,164.4,99.1z"/>
	<path class="st11" d="M115.1,168.6c0,0-12.5,3.4-9.1,9.1c3.4,5.7,8.1,4.8,8.1,4.8s27.3-3.4,35.9,1s21.1,2.9,21.1,2.9
		s9.1-5.7,1.9-12.5c-7.2-6.7-23.5-8.1-23.5-8.1S121.3,165.2,115.1,168.6z"/>
	<path class="st12" d="M116,175.7c0,0-4.3-1.4,2.4-3.4c6.7-1.9,16.8-1.4,16.8-1.4s28.3,1.9,29.2,7.2c0,0,4.3,14.8-3.8,13.9
		c0,0,2.4,19.2-4.8,18.7s-3.8-26.3-3.8-26.3s2.4-4.8-4.3-7.7C140.9,173.8,122.2,174.3,116,175.7z"/>
</g>
</svg>
