<?xml version="1.0" encoding="utf-8"?>
<!-- Generator: Adobe Illustrator 23.0.6, SVG Export Plug-In . SVG Version: 6.00 Build 0)  -->
<svg version="1.1" id="Layer_1" xmlns="http://www.w3.org/2000/svg" xmlns:xlink="http://www.w3.org/1999/xlink" x="0px" y="0px"
	 viewBox="0 0 288 288" style="enable-background:new 0 0 288 288;" xml:space="preserve">
<style type="text/css">
	.st0{opacity:0.5;}
	.st1{fill:#AEA8BA;}
	.st2{fill:#AB5C4D;}
	.st3{fill:#F1EEF3;}
	.st4{fill:#E18161;}
	.st5{fill:#CCC1B5;}
	.st6{fill:#F3CFCF;}
	.st7{fill:#AF949D;}
</style>
<g class="st0">
	<path d="M156.4,112.3c0,0,4.1-2.7,10.5,1.4c0,0,15.6-4.8,17.3,8.2c0,0-2.4,2.7-3.7,2.7s-20.7-4.1-20.7-4.1L156.4,112.3z"/>
	<path d="M240.7,171.4c0,0,37.4,22.5,44.6,42.5c0,0-12.6-3.4-16.3,4.1c-3.7,7.5-15.3,0-15.3,0s-3.7-5.8-16.7,0s-12.9-10.9-12.9-10.9
		l2.4-5.8l-2.7-6.5L240.7,171.4z"/>
	<path d="M239.5,151.4c0,0,4.1,9.5,0.7,14.3l-2.7-11.6L239.5,151.4z"/>
	<path d="M131.5,169.7c0,0-13.3-9.9-21.8,4.1L88.3,185c0,0-11.2,2.4-20.7-9.9c-9.5-12.2-30.6,1.4-30.6,1.4s-18.7,1.4-22.5-5.1
		l-6.1,1.4c0,0-5.8-5.4,11.9-16.3c0,0-0.7-9.9,6.8-12.9s8.8-9.5,8.8-9.5s-2-10.9,7.8-13.6S55,113,55,113s12.2-6.1,17.7,1
		c5.4,7.1,10.2,6.1,10.2,6.1s0-8.5,3.4-10.5c0,0-2.7-13.6,5.1-16c7.8-2.4,10.5-2.7,10.5-2.7s6.8-3.1,6.8-9.9s9.2-8.2,9.2-8.2
		s13.9,1.7,15.3,10.2s11.2,8.2,11.2,8.2s7.5-0.3,4.1,15c0,0,4.4,6.1,7.8,6.1c0,0,4.8,4.1,3.4,8.2c0,0-1.7,8.5-11.2,9.5
		s-7.5,13.3-7.5,13.3s-2.7,10.2-1,14.3c0,0-2.7,6.8-2.4,8.5s-0.3-1.7-0.3-1.7S135.6,168,131.5,169.7z"/>
	<path d="M237.5,154.1c0,0-6.5-9.9-8.2-10.5c0,0,8.2,0.7,10.2,7.8L237.5,154.1z"/>
	<path d="M240.7,171.4l10.2,6.5c0,0-10.9,9.9-15.6,6.1L240.7,171.4z"/>
	<path d="M148.6,129.9c0,0-5.4-6.5-8.8-5.8l4.8-4.4c0,0-5.1,1.4-3.7-1.4c1.4-2.7,3.1-3.4,3.1-3.4s-12.9,9.5-10.2,1
		s0.3-10.2,0.3-10.2s-14.3,0.7-11.2,5.1c3.1,4.4,4.4,1.7,4.4,1.7s-17,8.2-14.6,12.9c2.4,4.8,5.1,3.1,5.1,3.1s-5.1,4.8-2.4,8.2
		c0,0-2,5.4,2,7.8c4.1,2.4-2.4,8.5-2.4,8.5s-12.9-6.5-16.7,0.3c0,0-6.5-0.7-4.4-2.4c2-1.7-3.1-4.8-3.1-4.8s-10.5-1-6.8,5.4
		c3.7,6.5-9.9,1-9.9,1s0-5.8-6.1-4.4s0,5.8,0,5.8s4.4,4.1,0,5.4c-4.4,1.4,7.1,4.4,7.1,4.4s6.1-5.1,6.8-0.7s5.4,2.7,5.4,2.7
		s6.1,0.3,6.1,4.1s7.5,1.7,7.5,1.7l8.8,2.4c0,0,7.5-11.9,21.8-4.1c0,0,8.5-4.8,8.5-12.2L148.6,129.9z"/>
	<path d="M197.5,128.2c0,0-1-11.9-13.3-6.5c0,0-6.5,2.7-10.9-2.7c-4.4-5.4-7.5-3.1-7.5-3.1s-5.4-1.7-10.2,9.9c0,0-4.4,4.1-9.9,4.8
		c-5.4,0.7-4.8,12.6-4.8,12.6s-3.1,10.2-1,14.3c0,0-3.7,6.5-2.4,8.5c0,0-23.5,9.2-27.9,7.8s-30.3,15.3-30.3,15.3s-16,12.6-12.6,16
		c0,0,1-1,5.1,0s7.5,4.4,7.5,4.4s3.7,16,12.9,17.3c9.2,1.4,13.3-2,13.3-2s6.8-8.2,16-6.8s11.6,4.1,11.6,4.1s2.4,5.1,3.1-9.5
		c0.7-14.6,4.1-21.1,4.1-21.1c1.7,2.8,14.1,22.1,38.4,25.5c19.1,2.7,33.4-6.1,37.1-8.5c2.6-2,5.2-4.1,7.8-6.1
		c2.3-2.9,4.5-5.9,6.8-8.8c1.7-2.2,3.4-4.3,5.1-6.5c1.3-2.3,2.7-5.3,3.7-8.8c1.5-5.1,2-9.6,2-12.9c-0.5-3.6-1.7-8.4-4.3-13.4
		c-6.8-12.9-18.7-18.2-22.9-19.9L197.5,128.2z"/>
	<path d="M128.1,169.7c0,0-9.5,4.4,1,7.8c10.5,3.4,13.9,3.1,13.9,3.1s-3.7-9.2,0-8.2s3.1,4.4,3.1,4.4l3.1,1l12.9-13.9
		c0,0-3.7-3.7-16.3-0.3S128.1,169.7,128.1,169.7z"/>
	<path d="M146.5,146.3c0,0,3.7,0.7,8.2-1.4c4.4-2,3.1,2.7,6.5-0.3c3.4-3.1,5.4-4.8,8.5-3.7c3.1,1,3.4-4.8,6.1-5.1
		c2.7-0.3,6.8-3.4,4.8-4.8s0.7-4.1,0.7-4.1S158.1,126.9,146.5,146.3z"/>
	<path d="M185.3,126.7c0,0,5.4,6.1,10.9,6.8c0,0,4.4,7.5,10.9,7.5s9.5,4.1,9.5,4.1s3.7,0.3,7.8-2c4.1-2.4-0.7-4.1-0.7-4.1l0.3-1.7
		C224.1,137.2,200.3,122.9,185.3,126.7z"/>
	<path d="M197.5,131c0,0,16.3-39.8,18-39.8s1.7,4.4,1.7,4.4s-1.7,37.4-3.4,39.8C212.2,137.8,197.5,131,197.5,131z"/>
	<path d="M212.5,180.6l10.5-9.2c0,0,6.1,0.3,9.2-0.3c3.1-0.7,5.1,1,5.1,1s-1,3.4-2.7,6.1c-1.7,2.7,0.7,5.8,0.7,5.8
		s-3.4,8.5-10.9,5.8C224.4,189.8,212.2,191.2,212.5,180.6z"/>
	<path d="M219.3,181c0,0,7.8-4.1,9.5-2c1.7,2-2,4.1-2,4.1S220,184.7,219.3,181z"/>
</g>
<g>
	<path class="st1" d="M151.1,108.6c0,0,4.1-2.7,10.5,1.4c0,0,15.6-4.8,17.3,8.2c0,0-2.4,2.7-3.7,2.7s-20.7-4.1-20.7-4.1L151.1,108.6
		z"/>
	<path class="st1" d="M235.4,167.7c0,0,37.4,22.5,44.6,42.5c0,0-12.6-3.4-16.3,4.1c-3.7,7.5-15.3,0-15.3,0s-3.7-5.8-16.7,0
		s-12.9-10.9-12.9-10.9l2.4-5.8l-2.7-6.5L235.4,167.7z"/>
	<path class="st1" d="M234.2,147.7c0,0,4.1,9.5,0.7,14.3l-2.7-11.6L234.2,147.7z"/>
	<path class="st1" d="M126.2,166c0,0-13.3-9.9-21.8,4.1L83,181.3c0,0-11.2,2.4-20.7-9.9c-9.5-12.2-30.6,1.4-30.6,1.4
		s-18.7,1.4-22.5-5.1l-6.1,1.4c0,0-5.8-5.4,11.9-16.3c0,0-0.7-9.9,6.8-12.9s8.8-9.5,8.8-9.5s-2-10.9,7.8-13.6s11.2-7.5,11.2-7.5
		s12.2-6.1,17.7,1c5.4,7.1,10.2,6.1,10.2,6.1s0-8.5,3.4-10.5c0,0-2.7-13.6,5.1-16s10.5-2.7,10.5-2.7s6.8-3.1,6.8-9.9
		s9.2-8.2,9.2-8.2s13.9,1.7,15.3,10.2s11.2,8.2,11.2,8.2s7.5-0.3,4.1,15c0,0,4.4,6.1,7.8,6.1c0,0,4.8,4.1,3.4,8.2
		c0,0-1.7,8.5-11.2,9.5s-7.5,13.3-7.5,13.3s-2.7,10.2-1,14.3c0,0-2.7,6.8-2.4,8.5s-0.3-1.7-0.3-1.7S130.3,164.3,126.2,166z"/>
	<path class="st2" d="M232.2,150.4c0,0-6.5-9.9-8.2-10.5c0,0,8.2,0.7,10.2,7.8L232.2,150.4z"/>
	<path class="st2" d="M235.4,167.7l10.2,6.5c0,0-10.9,9.9-15.6,6.1L235.4,167.7z"/>
	<path class="st2" d="M143.3,126.2c0,0-5.4-6.5-8.8-5.8l4.8-4.4c0,0-5.1,1.4-3.7-1.4c1.4-2.7,3.1-3.4,3.1-3.4s-12.9,9.5-10.2,1
		s0.3-10.2,0.3-10.2s-14.3,0.7-11.2,5.1c3.1,4.4,4.4,1.7,4.4,1.7s-17,8.2-14.6,12.9c2.4,4.8,5.1,3.1,5.1,3.1s-5.1,4.8-2.4,8.2
		c0,0-2,5.4,2,7.8c4.1,2.4-2.4,8.5-2.4,8.5s-12.9-6.5-16.7,0.3c0,0-6.5-0.7-4.4-2.4c2-1.7-3.1-4.8-3.1-4.8s-10.5-1-6.8,5.4
		c3.7,6.5-9.9,1-9.9,1s0-5.8-6.1-4.4s0,5.8,0,5.8s4.4,4.1,0,5.4c-4.4,1.4,7.1,4.4,7.1,4.4s6.1-5.1,6.8-0.7S82,162,82,162
		s6.1,0.3,6.1,4.1s7.5,1.7,7.5,1.7l8.8,2.4c0,0,7.5-11.9,21.8-4.1c0,0,8.5-4.8,8.5-12.2L143.3,126.2z"/>
	<path class="st3" d="M192.2,124.5c0,0-1-11.9-13.3-6.5c0,0-6.5,2.7-10.9-2.7c-4.4-5.4-7.5-3.1-7.5-3.1s-5.4-1.7-10.2,9.9
		c0,0-4.4,4.1-9.9,4.8c-5.4,0.7-4.8,12.6-4.8,12.6s-3.1,10.2-1,14.3c0,0-3.7,6.5-2.4,8.5c0,0-23.5,9.2-27.9,7.8S74,185.4,74,185.4
		s-16,12.6-12.6,16c0,0,1-1,5.1,0s7.5,4.4,7.5,4.4s3.7,16,12.9,17.3c9.2,1.4,13.3-2,13.3-2s6.8-8.2,16-6.8s11.6,4.1,11.6,4.1
		s2.4,5.1,3.1-9.5c0.7-14.6,4.1-21.1,4.1-21.1c1.7,2.8,14.1,22.1,38.4,25.5c19.1,2.7,33.4-6.1,37.1-8.5c2.6-2,5.2-4.1,7.8-6.1
		c2.3-2.9,4.5-5.9,6.8-8.8c1.7-2.2,3.4-4.3,5.1-6.5c1.3-2.3,2.7-5.3,3.7-8.8c1.5-5.1,2-9.6,2-12.9c-0.5-3.6-1.7-8.4-4.3-13.4
		c-6.8-12.9-18.7-18.2-22.9-19.9L192.2,124.5z"/>
	<path class="st4" d="M122.8,166c0,0-9.5,4.4,1,7.8c10.5,3.4,13.9,3.1,13.9,3.1s-3.7-9.2,0-8.2s3.1,4.4,3.1,4.4l3.1,1l12.9-13.9
		c0,0-3.7-3.7-16.3-0.3S122.8,166,122.8,166z"/>
	<path class="st4" d="M141.2,142.6c0,0,3.7,0.7,8.2-1.4c4.4-2,3.1,2.7,6.5-0.3c3.4-3.1,5.4-4.8,8.5-3.7c3.1,1,3.4-4.8,6.1-5.1
		c2.7-0.3,6.8-3.4,4.8-4.8c-2-1.4,0.7-4.1,0.7-4.1S152.8,123.2,141.2,142.6z"/>
	<path class="st4" d="M180,123c0,0,5.4,6.1,10.9,6.8c0,0,4.4,7.5,10.9,7.5s9.5,4.1,9.5,4.1s3.7,0.3,7.8-2c4.1-2.4-0.7-4.1-0.7-4.1
		l0.3-1.7C218.8,133.5,195,119.2,180,123z"/>
	<path class="st5" d="M192.2,127.3c0,0,16.3-39.8,18-39.8s1.7,4.4,1.7,4.4s-1.7,37.4-3.4,39.8C206.9,134.1,192.2,127.3,192.2,127.3z
		"/>
	<path class="st6" d="M207.2,176.9l10.5-9.2c0,0,6.1,0.3,9.2-0.3c3.1-0.7,5.1,1,5.1,1s-1,3.4-2.7,6.1c-1.7,2.7,0.7,5.8,0.7,5.8
		s-3.4,8.5-10.9,5.8C219.1,186.1,206.9,187.5,207.2,176.9z"/>
	<path class="st7" d="M214,177.3c0,0,7.8-4.1,9.5-2c1.7,2-2,4.1-2,4.1S214.7,181,214,177.3z"/>
</g>
</svg>
