<?xml version="1.0" encoding="utf-8"?>
<!-- Generator: Adobe Illustrator 23.0.6, SVG Export Plug-In . SVG Version: 6.00 Build 0)  -->
<svg version="1.1" id="Layer_1" xmlns="http://www.w3.org/2000/svg" xmlns:xlink="http://www.w3.org/1999/xlink" x="0px" y="0px"
	 viewBox="0 0 288 288" style="enable-background:new 0 0 288 288;" xml:space="preserve">
<style type="text/css">
	.st0{opacity:0.5;}
	.st1{fill:#96948D;}
	.st2{fill:#B7B5AB;}
	.st3{fill:#BC8C9C;}
</style>
<g class="st0">
	<path d="M106.9,212.2l0.3,6.1l5.8,2.6l3.2,1.9l8.3,1.9l1.3-2.2l10.9-1.3l0.3-3.8C137,217.4,108.8,210.6,106.9,212.2z"/>
	<path d="M170.3,211.6l1.6,5.4c0,0,8,0,8.6-1.3v-3.2l2.2,2.9c0,0,8.3-0.3,8.6-2.6l-1-4.2l3.8,1.9l5.8-3.5c0,0-3.2-16-6.4-17.9
		C190.4,187.3,170.3,211.6,170.3,211.6z"/>
	<path d="M88.3,201.3c0,0,1,5.4,6.4,7s12.2,3.8,12.2,3.8l11.2,5.8l6.7-1.3l6.7,2.9l5.4-2.2c0,0,5.4,1.9,9.3,1s5.4-2.9,5.4-2.9
		s7.7,2.2,13.8-1s11.5-6.4,11.5-6.4s5.1-1.9,4.5-6.7l8-7l4.8-2.6c0,0,12.5-15.7,7-20.5c0,0,1.6-8.6,0.6-9.9l4.8-6.7l-0.6-9.9
		c0,0,5.8-1,11.8,10.9l6.1,1.9l1,3.5l7.7,4.5c0,0-8.3,7.7-8.3,10.2c0,0-6.4,4.8-4.2,7.7s6.4,4.8,6.4,4.8l12.5-7.7c0,0,6.4,0,6.7,1.6
		l8.6-8c0,0,7.7-3.2,13.1-1.6c0,0,6.1-7.7,3.5-12.2c0,0,4.5-1.9,11.2-1l2.2-1.9l1.6-3.5l-5.1-7.4c0,0-10.2-0.6-12.8-1.3l-5.8,4.5
		l-3.2-4.2c0,0,3.8-11.5-9.6-11.2c0,0-3.5-3.8-7.4-5.1c-3.9-1.3-7-3.8-7-3.8s-3.2-5.8-4.8-7.7c-1.6-1.9-12.5-4.2-12.5-4.2l-6.1,3.8
		l-9.3-1l-1.6-2.2l-7-4.2l-2.2,0.3c0,0-2.6-6.4-3.8-7s-6.7,0.3-6.7,0.3s-10.1-12.3-12.3-12.3s-9.9,3.2-9.9,3.2s-14.4-3.2-20.8-1.9
		l-2.2,0.3l-7.7-4.2c0,0-17.6,0-18.9,3.2s-4.5,8.6-4.5,8.6l-4.8,3.3h-6.1l-10.9,12.8c0,0-0.6,6.4,0.6,8l-2.2,4.5
		c0,0-8.6,3.5-11.2,2.9c-2.6-0.6-9.6,6.4-9.6,6.4l-1.3,6.7l-4.8,3.5c0,0-5.1-1-10.2,1.6s-6.4,6.1-6.4,6.1l-2.2,8
		c0,0-7.4,3.5-8.6,10.9c-1.3,7.4-3.5,10.9-3.5,10.9s-5.4,2.2-7.4,1c0,0-6.1,4.8-6.1,8.3s1.9,6.4,1.9,6.4l6.1,1c0,0-5.4,8.3-8.6,8.6
		c0,0-1.3,10.2-3.5,9.6c0,0,4.8,5.8,7,4.5s11.2-9.6,11.2-9.6l6.1,1c0,0,4.8-6.7,19.5-4.8l0.3-2.2c0,0,12.8,4.2,15.4,1.3
		s2.9-10.6,2.9-10.6s-1-2.6-4.8-2.6s-8.3-2.2-8.3-2.2s0.6-7.4-1.9-8.6l1.3-1.9l2.9-0.6l8-8.6c0,0,0-6.1-2.2-6.4l8-9.3l3.2-0.3
		l-1.3,7c0,0,2.2,9.3,1.9,10.2l3.5,1.3l1.6,4.5c0,0-3.2,7-2.2,9.6s3.5,6.7,3.5,6.7L88.3,201.3z"/>
	<path d="M116.5,171.3c0,0,14.7-5.8,32.6-3.5c0,0-7.7,7-16,7S116.5,171.3,116.5,171.3z"/>
	<path d="M196.5,152.1c0,0-5.1-1-5.1,3.5s2.2,9.3,2.2,9.3s5.8-2.6,5.1-6.7C198.1,154,196.5,152.1,196.5,152.1z"/>
	<path d="M158.8,94.4l9.9-3.2c0,0,9,5.8,12.5,12.5c0,0,5.1-2.9,6.7-0.3s3.8,7,3.8,7l-6.1,0.6C185.6,111.1,167.1,95.1,158.8,94.4z"/>
	<path d="M75.2,142.8l-2.6-3.2l3.5-6.1l7-2.9c0,0,1,1.9-1.9,6.7s-0.3,4.2-0.3,4.2L75.2,142.8z"/>
	<path d="M11.5,225c0,0,4.2-9.3,3.5-10.2c-0.6-1,10.2-10.2,10.2-10.2l-1.9-2.9l-5.4,1l-6.1-1c0,0,9-8.3,8.3-9.3
		c0,0,15.7-3.2,15.7-8.3l4.2,1.3v5.8l9.3,5.4c0,0,9.3,5.8,12.5,4.5l-1,10.6c0,0-9.9-0.6-10.9-1.9l-0.3,2.2c0,0-12.2-1-19.5,4.8
		l-6.1-1c0,0-10.2,9.6-11.2,9.6S11.5,225,11.5,225z"/>
	<path d="M229.5,186.6l-4.2-5.1c0,0,14.7-18.9,14.4-23.7c0,0,9-11.5,9-16l10.2-0.6l-2.9,10.6l6.4-1.9l-1,4.8l8-4.5l9.6,1l5.4,6.4
		l-2.2,1.9l-11.2,1c0,0,1.9,7.4-3.5,12.2c0,0-12.5-2.2-21.8,9.6c0,0-7-2.2-6.7-1.6L229.5,186.6z"/>
	<path d="M73,166.8l9.6,7.7c0,0,4.5,17,12.5,21.4c8,4.5,25.3,4.2,25.3,4.2l1.9-4.8l4.5-0.6l0.3-4.2l13.8,1.9l1.3,1.6l4.5-3.2
		l3.2,4.8c0,0,24.3-3.8,33-14.4l10.9-16.3l6.7-20.8l5.8,0.6l0.6,9.9l-4.8,6.7c0,0,1.6,6.1-0.6,9.9c0,0,7.4,6.1-7,20.5l-12.8,9.6
		c0,0,2.9,2.9-4.5,6.7l-11.5,6.4c0,0-4.8,4.5-13.8,1c0,0-1.6,2.6-5.4,2.9s-9.3-1-9.3-1l-5.4,2.2l-6.7-2.9l-6.7,1.3l-11.2-5.8
		l-12.5-3.7c0,0-6.7-1.3-6.4-7l-7-2.2l-3.5-6.7c0,0-1.6-3.8,2.2-9.6l-1.6-4.5l-3.5-1.3L73,166.8z"/>
</g>
<g>
	<path class="st1" d="M102.2,207.5l0.3,6.1l5.8,2.6l3.2,1.9l8.3,1.9l1.3-2.2l10.9-1.3l0.3-3.8C132.3,212.7,104.1,205.9,102.2,207.5z
		"/>
	<path class="st1" d="M165.6,206.9l1.6,5.4c0,0,8,0,8.6-1.3v-3.2l2.2,2.9c0,0,8.3-0.3,8.6-2.6l-1-4.2l3.8,1.9l5.8-3.5
		c0,0-3.2-16-6.4-17.9C185.7,182.6,165.6,206.9,165.6,206.9z"/>
	<path class="st2" d="M83.6,196.6c0,0,1,5.4,6.4,7s12.2,3.8,12.2,3.8l11.2,5.8l6.7-1.3l6.7,2.9l5.4-2.2c0,0,5.4,1.9,9.3,1
		s5.4-2.9,5.4-2.9s7.7,2.2,13.8-1s11.5-6.4,11.5-6.4s5.1-1.9,4.5-6.7l8-7l4.8-2.6c0,0,12.5-15.7,7-20.5c0,0,1.6-8.6,0.6-9.9l4.8-6.7
		l-0.6-9.9c0,0,5.8-1,11.8,10.9l6.1,1.9l1,3.5l7.7,4.5c0,0-8.3,7.7-8.3,10.2c0,0-6.4,4.8-4.2,7.7s6.4,4.8,6.4,4.8l12.5-7.7
		c0,0,6.4,0,6.7,1.6l8.6-8c0,0,7.7-3.2,13.1-1.6c0,0,6.1-7.7,3.5-12.2c0,0,4.5-1.9,11.2-1l2.2-1.9l1.6-3.5l-5.1-7.4
		c0,0-10.2-0.6-12.8-1.3l-5.8,4.5l-3.2-4.2c0,0,3.8-11.5-9.6-11.2c0,0-3.5-3.8-7.4-5.1s-7-3.8-7-3.8s-3.2-5.8-4.8-7.7
		c-1.6-1.9-12.5-4.2-12.5-4.2l-6.1,3.8l-9.3-1l-1.6-2.2l-7-4.2l-2.2,0.3c0,0-2.6-6.4-3.8-7s-6.7,0.3-6.7,0.3S166.2,86.5,164,86.5
		s-9.9,3.2-9.9,3.2s-14.4-3.2-20.8-1.9l-2.2,0.3l-7.7-4.2c0,0-17.6,0-18.9,3.2s-4.5,8.6-4.5,8.6L95.2,99h-6.1l-10.9,12.8
		c0,0-0.6,6.4,0.6,8l-2.2,4.5c0,0-8.6,3.5-11.2,2.9s-9.6,6.4-9.6,6.4l-1.3,6.7l-4.8,3.5c0,0-5.1-1-10.2,1.6s-6.4,6.1-6.4,6.1l-2.2,8
		c0,0-7.4,3.5-8.6,10.9c-1.3,7.4-3.5,10.9-3.5,10.9s-5.4,2.2-7.4,1c0,0-6.1,4.8-6.1,8.3s1.9,6.4,1.9,6.4l6.1,1c0,0-5.4,8.3-8.6,8.6
		c0,0-1.3,10.2-3.5,9.6c0,0,4.8,5.8,7,4.5s11.2-9.6,11.2-9.6l6.1,1c0,0,4.8-6.7,19.5-4.8l0.3-2.2c0,0,12.8,4.2,15.4,1.3
		s2.9-10.6,2.9-10.6s-1-2.6-4.8-2.6s-8.3-2.2-8.3-2.2s0.6-7.4-1.9-8.6l1.3-1.9l2.9-0.6l8-8.6c0,0,0-6.1-2.2-6.4l8-9.3l3.2-0.3
		l-1.3,7c0,0,2.2,9.3,1.9,10.2l3.5,1.3l1.6,4.5c0,0-3.2,7-2.2,9.6s3.5,6.7,3.5,6.7L83.6,196.6z"/>
	<path class="st3" d="M111.8,166.6c0,0,14.7-5.8,32.6-3.5c0,0-7.7,7-16,7S111.8,166.6,111.8,166.6z"/>
	<path class="st1" d="M191.8,147.4c0,0-5.1-1-5.1,3.5s2.2,9.3,2.2,9.3s5.8-2.6,5.1-6.7C193.4,149.3,191.8,147.4,191.8,147.4z"/>
	<path class="st1" d="M154.1,89.7l9.9-3.2c0,0,9,5.8,12.5,12.5c0,0,5.1-2.9,6.7-0.3s3.8,7,3.8,7l-6.1,0.6
		C180.9,106.4,162.4,90.4,154.1,89.7z"/>
	<path class="st1" d="M70.5,138.1l-2.6-3.2l3.5-6.1l7-2.9c0,0,1,1.9-1.9,6.7s-0.3,4.2-0.3,4.2L70.5,138.1z"/>
	<path class="st1" d="M6.8,220.3c0,0,4.2-9.3,3.5-10.2c-0.6-1,10.2-10.2,10.2-10.2l-1.9-2.9l-5.4,1l-6.1-1c0,0,9-8.3,8.3-9.3
		c0,0,15.7-3.2,15.7-8.3l4.2,1.3v5.8l9.3,5.4c0,0,9.3,5.8,12.5,4.5l-1,10.6c0,0-9.9-0.6-10.9-1.9l-0.3,2.2c0,0-12.2-1-19.5,4.8
		l-6.1-1c0,0-10.2,9.6-11.2,9.6S6.8,220.3,6.8,220.3z"/>
	<path class="st1" d="M224.8,181.9l-4.2-5.1c0,0,14.7-18.9,14.4-23.7c0,0,9-11.5,9-16l10.2-0.6l-2.9,10.6l6.4-1.9l-1,4.8l8-4.5
		l9.6,1l5.4,6.4l-2.2,1.9l-11.2,1c0,0,1.9,7.4-3.5,12.2c0,0-12.5-2.2-21.8,9.6c0,0-7-2.2-6.7-1.6L224.8,181.9z"/>
	<path class="st1" d="M68.3,162.1l9.6,7.7c0,0,4.5,17,12.5,21.4c8,4.5,25.3,4.2,25.3,4.2l1.9-4.8l4.5-0.6l0.3-4.2l13.8,1.9l1.3,1.6
		l4.5-3.2l3.2,4.8c0,0,24.3-3.8,33-14.4l10.9-16.3l6.7-20.8l5.8,0.6l0.6,9.9l-4.8,6.7c0,0,1.6,6.1-0.6,9.9c0,0,7.4,6.1-7,20.5
		l-12.8,9.6c0,0,2.9,2.9-4.5,6.7l-11.5,6.4c0,0-4.8,4.5-13.8,1c0,0-1.6,2.6-5.4,2.9s-9.3-1-9.3-1l-5.4,2.2l-6.7-2.9l-6.7,1.3
		l-11.2-5.8L90,203.7c0,0-6.7-1.3-6.4-7l-7-2.2l-3.5-6.7c0,0-1.6-3.8,2.2-9.6l-1.6-4.5l-3.5-1.3L68.3,162.1z"/>
</g>
</svg>
