<?xml version="1.0" encoding="utf-8"?>
<!-- Generator: Adobe Illustrator 23.0.6, SVG Export Plug-In . SVG Version: 6.00 Build 0)  -->
<svg version="1.1" id="Layer_1" xmlns="http://www.w3.org/2000/svg" xmlns:xlink="http://www.w3.org/1999/xlink" x="0px" y="0px"
	 viewBox="0 0 288 288" style="enable-background:new 0 0 288 288;" xml:space="preserve">
<style type="text/css">
	.st0{opacity:0.5;}
	.st1{fill:#C1AFA0;}
	.st2{fill:#B48967;}
	.st3{fill:#918275;}
	.st4{fill:#E2B494;}
	.st5{fill:#B09E8D;}
	.st6{fill:#696F74;}
	.st7{fill:#EEDABE;}
	.st8{fill:#F3F0ED;}
</style>
<g class="st0">
	<path d="M129.9,212.6l6.9-4.4c0,0,6.1,56.1,6.9,59.3c0.8,3.2-18.2,4-18.2,4l-14.1-6.5l17-52.9L129.9,212.6z"/>
	<path d="M136,65.2c0,0-3.6-7.3-12.1,0.8s-10.5,21.4-10.5,21.4s0.8,10.9,5.2,10.1S136,65.2,136,65.2z"/>
	<path d="M132.8,68c0,0-5.7-2-10.9,6.1s-4.8,14.1-4.8,14.1s0.4,5.2,4,5.2s6.5-8.9,6.5-8.9L132.8,68z"/>
	<path d="M130.7,156.4c0,0-14.9-23.4-49.7-14.9c0,0-21,6.9-21,9.7l6.5,0.8c0,0-16.6,8.1-15.3,10.1l9.7-0.8c0,0-15.7,18.2-14.1,19
		l14.1-2.8l-2.8,3.2l7.7-2l-16.6,28.7l13.3-7.7v6.9l6-4.1l0.5-0.3v3.6l3.2-2.4c0,0,7.7,19.4,11.7,19s46.8-54.1,46.8-54.1V156.4z"/>
	<path d="M182.4,243.2l6.5-4.8v29.5C188.9,267.9,180,248.9,182.4,243.2z"/>
	<path d="M127.5,166.9c0,0-21.4,23.4-31.5,31.1s-13.7,33.5-13.7,33.5s0.8,30.7,10.1,33.9c0,0-8.5,12.5,8.9,10.5c0,0,23,2,24.2-4.4
		c1.2-6.5-8.5-8.1-8.5-8.1s23.8-14.5,12.9-50.9l6.9-4.4c0,0-0.8,40.4,10.1,70.7c0,0,2.4,4,8.5,2.4c0,0,1.6-10.1,7.3-8.1
		c0,0,4.4,4.4,4.4,7.3c0,0,12.5-1.6,18.2,0.8c0,0,0-7.7,4.4-8.5c0,0,1.2-1.2-4.8-18.6c0,0-7.3-56.1-14.9-61l-0.4,9.7l-3.2-8.1
		l-1.2,2.4l-0.4-4.4l-6.5,12.5l-5.7-21.4l-4.4,6.9l0.8-7.7l-6.1,3.2l0.8-7.7l-11.3,7.3l8.9-21L127.5,166.9z"/>
	<path d="M122.7,89.8c0,0-0.4-26.2,31.9-32.3c0,0,29.5-0.4,36.7,8.5c0,0,8.5-8.5,15.3-6.1c6.9,2.4,18.2,14.9,18.2,14.9
		s14.1,18.6,6.9,21.4c0,0-7.3,7.7-16.6,8.9c0,0,5.2,32.3,10.1,41.2c4.8,8.9,5.7,49.7,5.7,49.7s-7.3,66.2-3.2,70.7
		c0,0-9.3,10.1-5.7,10.9l-14.9,0.4c0,0-2.4-12.1-7.7-7.7c-5.2,4.4-2.4,7.3-2.4,7.3h-2.8l-9.7-12.5l2.8-2.4l1.6-29.5L122.7,89.8z"/>
	<path d="M190.1,77.7c0,0,9.3,2.4,8.1,19.8c0,0,27.9,7.3,29.5-6.5s-18.6-25-18.6-25S197.4,61.2,190.1,77.7z"/>
	<polygon points="206.6,219.8 218,235.6 227.6,225.5 226.8,240.8 216.3,253.3 198.6,232.7 	"/>
	<polygon points="141.2,219.8 171.1,237.2 180.8,223.5 183.2,241.6 173.5,257 138.8,231.5 142.5,230.3 138,223.9 142.9,225.9 	"/>
	<path d="M123.9,171c0,0-2.8,19.4,0.4,23.4l1.2-1.6l0.8,2.8l1.2-3.2c0,0-0.4,9.7,1.6,9.7c0,0,6.5-39.2,8.9-39.6
		C140.4,162.1,129.5,163.3,123.9,171z"/>
	<path d="M119.8,175l0.4,20.2l-2.8-4l-0.8,4.4c0,0-7.7-8.5-6.5-12.1C111.4,179.9,119.8,175,119.8,175z"/>
	<path d="M90.8,205.3c0,0,11.7-5.7,13.7-2.8l-3.2,2l6.1,1.2l-2.4,1.4l-1.2,0.7l4,1.2c0,0-23,10.5-23.8,13.3
		C83.9,222.2,88,206.1,90.8,205.3z"/>
	<path d="M82.3,231.5c0,0,16.6-13.7,20.6-12.5l-2,3.6l5.2-2.4l-2,4h2l-2.8,2.8l8.1-2.4c0,0-28.3,19.8-25.4,30.3
		C85.9,254.9,81.5,240,82.3,231.5z"/>
	<path d="M145.3,65.2c0,0-8.5-9.7-4.8-17.8s24.6-36.7,45.6-37.5l-4.4,7.3c0,0,20.2-7.3,21.4-5.7L192.2,22l4.4,0.8l-6.9,2
		c0,0,35.1-0.4,36.3,3.2l-15.7,6.1l6.1,2.8l-6.5,3.2c0,0,18.2,14.1,18.2,17l-17.8-0.8l4.4,3.6l-4.8,0.8l-3.2-0.8
		c0,0-6.1-2.4-15.3,6.1c-9.3,8.5,0,0,0,0s-22.6-12.1-38.8-6.9s0,0,0,0S148.1,64.8,145.3,65.2z"/>
	<path d="M146.5,93.5c0,0,28.7,4.4,35.9,2.8c7.3-1.6,14.1,14.9,14.1,14.9s1.6,11.3-2.8,15.3c0,0,24.2-6.1,26.6-4l-9.7,7.7l8.9-0.4
		l-4.8,3.6l24.2,5.2l-23,12.1l13.7,5.2l-8.5,3.6c0,0,17,17.8,17.4,20.2l-14.9-1.6c0,0,12.1,11.7,11.7,13.7l-8.1-2
		c0,0,9.3,13.3,8.5,17l-14.1-5.7l2,11.7l-6.5-7.3l-6.1,27l-3.2-9.3l-1.6,8.5l-3.2-3.2l-2.8,13.7l-3.2-12.1c0,0-7.3,11.3-14.5,12.9
		c-7.3,1.6,0,0,0,0s-6.5-42-12.5-50.1c-6.1-8.1,0,0,0,0l-0.4,9.7l-3.2-8.1l-1.2,2.4l-0.4-4.4l-6.5,12.5l-5.7-21.4l-4.4,6.9l0.8-7.7
		l-6.1,3.2l0.8-7.7l-11.3,7.3l8.9-21l-20.6,3.2l14.9-14.9h-6.9l6.5-4.8l-8.1-0.8l6.5-4.4l-2.8-4.8l7.3-1.2c0,0-17.8-11.3-17.4-20.2
		c0,0-13.3-4.8-6.5-19.8c6.9-14.9,24.2-6.5,24.2-6.5L146.5,93.5z"/>
	<path d="M129.1,88.6c0,0,11.7,1.6,6.5,8.1s-10.9,4-10.9,4s-8.5-4.8-4-8.5C125.1,88.6,129.1,88.6,129.1,88.6z"/>
	<path d="M162.6,273.1c0,0-6.1-2-7.3,8.1c0,0,8.5,5.7,11.7,3.6C167.1,284.8,169.9,281.2,162.6,273.1z"/>
	<path d="M189.7,272.7c0,0-8.1,1.2-4.4,8.5c0,0,6.9,3.2,10.1,2C195.3,283.2,196.6,279.2,189.7,272.7z"/>
	<path d="M202.2,269.1c0,0-6.1,0.4-5.7,7.3c0,0,2.4,5.7,8.5,4.8C205,281.2,210.7,277.2,202.2,269.1z"/>
	<path d="M227.6,266.7c0,0-8.5,7.3-5.7,10.9s12.1,2,12.1,2L227.6,266.7z"/>
</g>
<g>
	<path class="st1" d="M124.4,207.2l6.9-4.4c0,0,6.1,56.1,6.9,59.3c0.8,3.2-18.2,4-18.2,4l-14.1-6.5l17-52.9L124.4,207.2z"/>
	<path class="st2" d="M130.5,59.8c0,0-3.6-7.3-12.1,0.8S107.9,82,107.9,82s0.8,10.9,5.2,10.1S130.5,59.8,130.5,59.8z"/>
	<path class="st3" d="M127.3,62.6c0,0-5.7-2-10.9,6.1s-4.8,14.1-4.8,14.1s0.4,5.2,4,5.2s6.5-8.9,6.5-8.9L127.3,62.6z"/>
	<path class="st1" d="M125.2,151c0,0-14.9-23.4-49.7-14.9c0,0-21,6.9-21,9.7l6.5,0.8c0,0-16.6,8.1-15.3,10.1l9.7-0.8
		c0,0-15.7,18.2-14.1,19l14.1-2.8l-2.8,3.2l7.7-2L43.7,202l13.3-7.7v6.9l6-4.1l0.5-0.3v3.6l3.2-2.4c0,0,7.7,19.4,11.7,19
		s46.8-54.1,46.8-54.1V151z"/>
	<path class="st2" d="M176.9,237.8l6.5-4.8v29.5C183.4,262.5,174.5,243.5,176.9,237.8z"/>
	<path class="st4" d="M122,161.5c0,0-21.4,23.4-31.5,31.1s-13.7,33.5-13.7,33.5s0.8,30.7,10.1,33.9c0,0-8.5,12.5,8.9,10.5
		c0,0,23,2,24.2-4.4c1.2-6.5-8.5-8.1-8.5-8.1s23.8-14.5,12.9-50.9l6.9-4.4c0,0-0.8,40.4,10.1,70.7c0,0,2.4,4,8.5,2.4
		c0,0,1.6-10.1,7.3-8.1c0,0,4.4,4.4,4.4,7.3c0,0,12.5-1.6,18.2,0.8c0,0,0-7.7,4.4-8.5c0,0,1.2-1.2-4.8-18.6c0,0-7.3-56.1-14.9-61
		l-0.4,9.7l-3.2-8.1l-1.2,2.4l-0.4-4.4l-6.5,12.5l-5.7-21.4l-4.4,6.9l0.8-7.7l-6.1,3.2l0.8-7.7l-11.3,7.3l8.9-21L122,161.5z"/>
	<path class="st4" d="M117.2,84.4c0,0-0.4-26.2,31.9-32.3c0,0,29.5-0.4,36.7,8.5c0,0,8.5-8.5,15.3-6.1c6.9,2.4,18.2,14.9,18.2,14.9
		s14.1,18.6,6.9,21.4c0,0-7.3,7.7-16.6,8.9c0,0,5.2,32.3,10.1,41.2c4.8,8.9,5.7,49.7,5.7,49.7s-7.3,66.2-3.2,70.7
		c0,0-9.3,10.1-5.7,10.9l-14.9,0.4c0,0-2.4-12.1-7.7-7.7c-5.2,4.4-2.4,7.3-2.4,7.3h-2.8l-9.7-12.5l2.8-2.4l1.6-29.5L117.2,84.4z"/>
	<path class="st5" d="M184.6,72.3c0,0,9.3,2.4,8.1,19.8c0,0,27.9,7.3,29.5-6.5s-18.6-25-18.6-25S191.9,55.8,184.6,72.3z"/>
	<polygon class="st6" points="201.1,214.4 212.5,230.2 222.1,220.1 221.3,235.4 210.8,247.9 193.1,227.3 	"/>
	<polygon class="st6" points="135.7,214.4 165.6,231.8 175.3,218.1 177.7,236.2 168,251.6 133.3,226.1 137,224.9 132.5,218.5 
		137.4,220.5 	"/>
	<path class="st6" d="M118.4,165.6c0,0-2.8,19.4,0.4,23.4l1.2-1.6l0.8,2.8l1.2-3.2c0,0-0.4,9.7,1.6,9.7c0,0,6.5-39.2,8.9-39.6
		C134.9,156.7,124,157.9,118.4,165.6z"/>
	<path class="st6" d="M114.3,169.6l0.4,20.2l-2.8-4l-0.8,4.4c0,0-7.7-8.5-6.5-12.1C105.9,174.5,114.3,169.6,114.3,169.6z"/>
	<path class="st6" d="M85.3,199.9c0,0,11.7-5.7,13.7-2.8l-3.2,2l6.1,1.2l-2.4,1.4l-1.2,0.7l4,1.2c0,0-23,10.5-23.8,13.3
		C78.4,216.8,82.5,200.7,85.3,199.9z"/>
	<path class="st6" d="M76.8,226.1c0,0,16.6-13.7,20.6-12.5l-2,3.6l5.2-2.4l-2,4h2l-2.8,2.8l8.1-2.4c0,0-28.3,19.8-25.4,30.3
		C80.4,249.5,76,234.6,76.8,226.1z"/>
	<path class="st7" d="M139.8,59.8c0,0-8.5-9.7-4.8-17.8s24.6-36.7,45.6-37.5l-4.4,7.3c0,0,20.2-7.3,21.4-5.7l-10.9,10.5l4.4,0.8
		l-6.9,2c0,0,35.1-0.4,36.3,3.2l-15.7,6.1l6.1,2.8l-6.5,3.2c0,0,18.2,14.1,18.2,17l-17.8-0.8l4.4,3.6l-4.8,0.8l-3.2-0.8
		c0,0-6.1-2.4-15.3,6.1c-9.3,8.5,0,0,0,0s-22.6-12.1-38.8-6.9s0,0,0,0S142.6,59.4,139.8,59.8z"/>
	<path class="st7" d="M141,88.1c0,0,28.7,4.4,35.9,2.8c7.3-1.6,14.1,14.9,14.1,14.9s1.6,11.3-2.8,15.3c0,0,24.2-6.1,26.6-4l-9.7,7.7
		l8.9-0.4l-4.8,3.6l24.2,5.2l-23,12.1l13.7,5.2l-8.5,3.6c0,0,17,17.8,17.4,20.2l-14.9-1.6c0,0,12.1,11.7,11.7,13.7l-8.1-2
		c0,0,9.3,13.3,8.5,17l-14.1-5.7l2,11.7l-6.5-7.3l-6.1,27l-3.2-9.3l-1.6,8.5l-3.2-3.2l-2.8,13.7l-3.2-12.1c0,0-7.3,11.3-14.5,12.9
		c-7.3,1.6,0,0,0,0s-6.5-42-12.5-50.1c-6.1-8.1,0,0,0,0l-0.4,9.7l-3.2-8.1l-1.2,2.4l-0.4-4.4l-6.5,12.5l-5.7-21.4l-4.4,6.9l0.8-7.7
		l-6.1,3.2l0.8-7.7l-11.3,7.3l8.9-21l-20.6,3.2l14.9-14.9h-6.9l6.5-4.8l-8.1-0.8l6.5-4.4l-2.8-4.8l7.3-1.2c0,0-17.8-11.3-17.4-20.2
		c0,0-13.3-4.8-6.5-19.8c6.9-14.9,24.2-6.5,24.2-6.5L141,88.1z"/>
	<path class="st6" d="M123.6,83.2c0,0,11.7,1.6,6.5,8.1s-10.9,4-10.9,4s-8.5-4.8-4-8.5C119.6,83.2,123.6,83.2,123.6,83.2z"/>
	<path class="st8" d="M157.1,267.7c0,0-6.1-2-7.3,8.1c0,0,8.5,5.7,11.7,3.6C161.6,279.4,164.4,275.8,157.1,267.7z"/>
	<path class="st8" d="M184.2,267.3c0,0-8.1,1.2-4.4,8.5c0,0,6.9,3.2,10.1,2C189.8,277.8,191.1,273.8,184.2,267.3z"/>
	<path class="st8" d="M196.7,263.7c0,0-6.1,0.4-5.7,7.3c0,0,2.4,5.7,8.5,4.8C199.5,275.8,205.2,271.8,196.7,263.7z"/>
	<path class="st8" d="M222.1,261.3c0,0-8.5,7.3-5.7,10.9s12.1,2,12.1,2L222.1,261.3z"/>
</g>
</svg>
