<?xml version="1.0" encoding="utf-8"?>
<!-- Generator: Adobe Illustrator 23.0.6, SVG Export Plug-In . SVG Version: 6.00 Build 0)  -->
<svg version="1.1" id="Layer_1" xmlns="http://www.w3.org/2000/svg" xmlns:xlink="http://www.w3.org/1999/xlink" x="0px" y="0px"
	 viewBox="0 0 288 288" style="enable-background:new 0 0 288 288;" xml:space="preserve">
<style type="text/css">
	.st0{opacity:0.5;}
	.st1{fill:#95898B;}
	.st2{fill:#6E6773;}
	.st3{fill:#94908B;}
	.st4{fill:#AAA69D;}
	.st5{fill:#D7C893;}
	.st6{fill:#E6E4E7;}
	.st7{fill:#BCA9A4;}
	.st8{fill:#E0D9C3;}
	.st9{fill:#F6F5F8;}
	.st10{fill:#EADCB4;}
</style>
<g class="st0">
	<path d="M135.1,102.4c0,0,2.8,5.1,5.1,5.1s8.4-0.6,8.4-0.6c1.3,0.6,4.8,2.3,6.8,6.2c2.4,4.9,1.3,11.1-2.8,15.7
		c0,0-22.5,7.9-41.6,30.9c3.8-8.4,7.5-16.9,11.2-25.3c1.9-5.3,3.9-10.7,6.2-16.3C130.5,112.7,132.8,107.4,135.1,102.4z"/>
	<path d="M233.5,88.9c0,0,10.7-25.9,14.6-25.3c3.9,0.6,14.1,1.7,14.1,1.7l14.1,9.6c0,0,9.6,8.4,2.8,16.3
		c-6.7,7.9-15.2,17.4-15.2,17.4s-17.4,17.4-27.6,4.5S233.5,88.9,233.5,88.9z"/>
	<path d="M135.6,65.8c0,0,8.4,10.1,15.2,10.7s8.4,8.4,8.4,8.4l7.3,5.1c0,0-1.1,11.2-9,11.2c0,0-5.6,0-8.4-3.4
		c-2.8-3.4-14.6-0.6-14.6-0.6L135.6,65.8z"/>
	<path d="M204.2,113.1l12.4,6.2l1.1,5.6c0,0-2.2,3.9-5.1,1.7c-2.8-2.2-5.1-4.5-5.1-4.5s-5.6-1.7-5.6,1.7s1.7,7.9,1.7,7.9
		s-3.9,7.3-6.7,2.8s-2.8-4.5-2.8-4.5l-2.8,0.6c0,0-5.1-1.7-3.4-6.2l-6.2-6.7L204.2,113.1z"/>
	<path d="M166,92.3c0,0,16.9,13.5,24.2,14.6s-18,3.9-18,3.9s-10.7-10.1-14.6-9.6C157.6,101.3,163.2,100.7,166,92.3z"/>
	<path d="M150.8,108c0,0,8.4-4.5,10.1-1.1c0,0,9.6-3.9,10.7-1.7c0,0,12.4-5.1,12.9-2.2c0,0,9.6-6.2,11.8-2.8c0,0,11.2-5.6,14.1-2.8
		c0,0,9-6.7,11.8-2.8c0,0,7.3-6.7,11.2-5.6c0,0,13.5-5.1,16.3,9s-8.4,16.3-8.4,16.3s-4.5,0-5.1-1.1c0,0-6.2,1.1-10.1-1.1
		c0,0-1.7,6.2-11.8,2.2c0,0-6.7,5.6-14.6,2.8c0,0-5.1,3.9-11.8,0.6c0,0-6.2,6.2-11.8,3.9c0,0-2.2,3.9-10.7,2.2c0,0-2.2,5.1-11.2,2.8
		C154.2,126.6,158.7,112.5,150.8,108z"/>
	<path d="M266.7,105.2c0,0-6.2-4.5-14.1,11.2C252.6,116.5,265,116.5,266.7,105.2z"/>
	<path d="M248.1,63.6c0,0,7.9-15.2,10.1-12.9s-1.1,15.7-1.1,15.7S248.1,66.4,248.1,63.6z"/>
	<path d="M259.4,67.5c0,0,12.9-15.2,15.2-13.5c2.2,1.7-4.5,19.1-4.5,19.1S257.7,68.1,259.4,67.5z"/>
	<path d="M272.3,74.3c0,0,11.8-11.8,12.9-9c1.1,2.8-4.5,16.9-4.5,16.9S271.7,78.2,272.3,74.3z"/>
	<path d="M131.7,55.1c0,0,8.4,0,3.9,10.7l3.4,5.1c0,0,0.6,3.4-1.1,4.5c0,0,0.6,20.2-2.8,27c0,0-8.4,32.6-6.7,34.3
		c0,0-15.2,15.2-17.4,23.1c0,0-6.2,7.3-5.6,12.9l-2.8,2.2c0,0-12.9-5.6-23.6,0.6c0,0-3.9-1.1-2.8-5.6s-2.8-18-2.8-18l-21.9-43.3
		H41.1c0,0-2.2,5.1-8.4,3.4s-11.2,1.1-11.2,1.1s-15.8-0.6-15.3-13l7.9-7.9c0,0,9-6.7,16.9-3.4l7.9-2.2c0,0,6.7-10.7,10.1-10.1
		c0,0-2.8-48.9,33.7-48.9s43.9,15.7,43.9,15.7S132.2,50.6,131.7,55.1z"/>
	<path d="M90.6,243c0,0-5.1,8.4-4.5,15.7c0.6,7.3,18.6,5.6,18.6,5.6l16.9-0.6c0,0,16.9-2.2,0.6-18.6c0,0-7.9-6.7-12.4-11.8
		C105.2,228.4,90.6,243,90.6,243z"/>
	<path d="M36.1,96.8c0,0,14.6,2.8,20.2,1.1c0,0-5.6,6.2-1.1,11.8H33.8C33.8,109.7,26.5,101.3,36.1,96.8z"/>
	<path d="M78.8,175.5c0,0,0,9-1.7,11.2c-1.7,2.2,2.2,3.4,2.2,3.4s-2.2,9-0.6,11.8c0,0-1.7,11.2,3.9,14.6c0,0-3.9,9,2.2,12.4
		c0,0-1.7,6.7,4.5,10.1c0,0-2.2,4.5,5.1,6.7c7.3,2.2,15.7-2.8,15.7-2.8s10.1-7.3-0.6-9.6c0,0,4.5-10.1-3.4-12.9c0,0,5.1-4.5-2.8-9.6
		c0,0,5.1-1.1-1.7-11.2c0,0,4.5-3.9-1.1-12.4c0,0,6.2-5.1,1.7-12.4C102.4,175,88.4,168.2,78.8,175.5z"/>
	<path d="M121,261.6c0,0-5.6-11.2-11.2,0c0,0-6.2-11.2-14.1,1.1c0,0-6.2-15.7-12.9,4.5c0,0,9.6,0,11.8-1.7l2.2,3.9l11.8-3.2l0.6-0.2
		C109.2,266.1,118.2,267.8,121,261.6z"/>
	<path d="M122.7,245.8c0,0-1.1,9.6,6.7,11.8C129.4,257.6,135.1,249.8,122.7,245.8z"/>
</g>
<g>
	<path class="st1" d="M129.6,98c0,0,2.8,5.1,5.1,5.1s8.4-0.6,8.4-0.6c1.3,0.6,4.8,2.3,6.8,6.2c2.4,4.9,1.3,11.1-2.8,15.7
		c0,0-22.5,7.9-41.6,30.9c3.8-8.4,7.5-16.9,11.2-25.3c1.9-5.3,3.9-10.7,6.2-16.3C125,108.3,127.3,103,129.6,98z"/>
	<path class="st1" d="M228,84.5c0,0,10.7-25.9,14.6-25.3c3.9,0.6,14.1,1.7,14.1,1.7l14.1,9.6c0,0,9.6,8.4,2.8,16.3
		c-6.7,7.9-15.2,17.4-15.2,17.4s-17.4,17.4-27.6,4.5S228,84.5,228,84.5z"/>
	<path class="st2" d="M130.1,61.4c0,0,8.4,10.1,15.2,10.7s8.4,8.4,8.4,8.4l7.3,5.1c0,0-1.1,11.2-9,11.2c0,0-5.6,0-8.4-3.4
		c-2.8-3.4-14.6-0.6-14.6-0.6L130.1,61.4z"/>
	<path class="st2" d="M198.7,108.7l12.4,6.2l1.1,5.6c0,0-2.2,3.9-5.1,1.7c-2.8-2.2-5.1-4.5-5.1-4.5s-5.6-1.7-5.6,1.7
		s1.7,7.9,1.7,7.9s-3.9,7.3-6.7,2.8s-2.8-4.5-2.8-4.5l-2.8,0.6c0,0-5.1-1.7-3.4-6.2l-6.2-6.7L198.7,108.7z"/>
	<path class="st3" d="M160.5,87.9c0,0,16.9,13.5,24.2,14.6s-18,3.9-18,3.9s-10.7-10.1-14.6-9.6C152.1,96.9,157.7,96.3,160.5,87.9z"
		/>
	<path class="st4" d="M145.3,103.6c0,0,8.4-4.5,10.1-1.1c0,0,9.6-3.9,10.7-1.7c0,0,12.4-5.1,12.9-2.2c0,0,9.6-6.2,11.8-2.8
		c0,0,11.2-5.6,14.1-2.8c0,0,9-6.7,11.8-2.8c0,0,7.3-6.7,11.2-5.6c0,0,13.5-5.1,16.3,9s-8.4,16.3-8.4,16.3s-4.5,0-5.1-1.1
		c0,0-6.2,1.1-10.1-1.1c0,0-1.7,6.2-11.8,2.2c0,0-6.7,5.6-14.6,2.8c0,0-5.1,3.9-11.8,0.6c0,0-6.2,6.2-11.8,3.9c0,0-2.2,3.9-10.7,2.2
		c0,0-2.2,5.1-11.2,2.8C148.7,122.2,153.2,108.1,145.3,103.6z"/>
	<path class="st5" d="M261.2,100.8c0,0-6.2-4.5-14.1,11.2C247.1,112.1,259.5,112.1,261.2,100.8z"/>
	<path class="st6" d="M242.6,59.2c0,0,7.9-15.2,10.1-12.9S251.6,62,251.6,62S242.6,62,242.6,59.2z"/>
	<path class="st6" d="M253.9,63.1c0,0,12.9-15.2,15.2-13.5c2.2,1.7-4.5,19.1-4.5,19.1S252.2,63.7,253.9,63.1z"/>
	<path class="st6" d="M266.8,69.9c0,0,11.8-11.8,12.9-9s-4.5,16.9-4.5,16.9S266.2,73.8,266.8,69.9z"/>
	<path class="st7" d="M126.2,50.7c0,0,8.4,0,3.9,10.7l3.4,5.1c0,0,0.6,3.4-1.1,4.5c0,0,0.6,20.2-2.8,27c0,0-8.4,32.6-6.7,34.3
		c0,0-15.2,15.2-17.4,23.1c0,0-6.2,7.3-5.6,12.9l-2.8,2.2c0,0-12.9-5.6-23.6,0.6c0,0-3.9-1.1-2.8-5.6s-2.8-18-2.8-18L46,104.2H35.6
		c0,0-2.2,5.1-8.4,3.4S16,108.7,16,108.7s-15.8-0.6-15.3-13l7.9-7.9c0,0,9-6.7,16.9-3.4l7.9-2.2c0,0,6.7-10.7,10.1-10.1
		c0,0-2.8-48.9,33.7-48.9s43.9,15.7,43.9,15.7S126.7,46.2,126.2,50.7z"/>
	<path class="st7" d="M85.1,238.6c0,0-5.1,8.4-4.5,15.7s18.6,5.6,18.6,5.6l16.9-0.6c0,0,16.9-2.2,0.6-18.6c0,0-7.9-6.7-12.4-11.8
		C99.7,224,85.1,238.6,85.1,238.6z"/>
	<path class="st8" d="M30.6,92.4c0,0,14.6,2.8,20.2,1.1c0,0-5.6,6.2-1.1,11.8H28.3C28.3,105.3,21,96.9,30.6,92.4z"/>
	<path class="st8" d="M73.3,171.1c0,0,0,9-1.7,11.2s2.2,3.4,2.2,3.4s-2.2,9-0.6,11.8c0,0-1.7,11.2,3.9,14.6c0,0-3.9,9,2.2,12.4
		c0,0-1.7,6.7,4.5,10.1c0,0-2.2,4.5,5.1,6.7c7.3,2.2,15.7-2.8,15.7-2.8s10.1-7.3-0.6-9.6c0,0,4.5-10.1-3.4-12.9c0,0,5.1-4.5-2.8-9.6
		c0,0,5.1-1.1-1.7-11.2c0,0,4.5-3.9-1.1-12.4c0,0,6.2-5.1,1.7-12.4C96.9,170.6,82.9,163.8,73.3,171.1z"/>
	<path class="st9" d="M115.5,257.2c0,0-5.6-11.2-11.2,0c0,0-6.2-11.2-14.1,1.1c0,0-6.2-15.7-12.9,4.5c0,0,9.6,0,11.8-1.7l2.2,3.9
		l11.8-3.2l0.6-0.2C103.7,261.7,112.7,263.4,115.5,257.2z"/>
	<path class="st10" d="M117.2,241.4c0,0-1.1,9.6,6.7,11.8C123.9,253.2,129.6,245.4,117.2,241.4z"/>
</g>
</svg>
