<?xml version="1.0" encoding="utf-8"?>
<!-- Generator: Adobe Illustrator 23.0.6, SVG Export Plug-In . SVG Version: 6.00 Build 0)  -->
<svg version="1.1" id="Layer_1" xmlns="http://www.w3.org/2000/svg" xmlns:xlink="http://www.w3.org/1999/xlink" x="0px" y="0px"
	 viewBox="0 0 288 288" style="enable-background:new 0 0 288 288;" xml:space="preserve">
<style type="text/css">
	.st0{opacity:0.5;}
	.st1{fill:#837A7A;}
	.st2{fill:#25211E;}
	.st3{fill:#C5B8AB;}
	.st4{fill:#8D8B9F;}
	.st5{fill:#4E505C;}
	.st6{fill:#8D8C9F;}
	.st7{fill:#B76C64;}
</style>
<g class="st0">
	<path d="M146.7,165.8l-4.5,25.9c0,0,10.7,16.9,18,20.2l27,47.8c0,0,10.7-7.9,3.4-20.8c0,0-4.5-20.8-12.9-28.7l-15.2-29.8V168
		L146.7,165.8z"/>
	<path d="M211.9,121.8l5.6,19.7c3.9-1.5,7.9-3,11.8-4.5c-2.8-3.4-5.6-6.7-8.4-10.1L211.9,121.8z"/>
	<path d="M150.6,74.1c0,0-11.8-16.3-18-15.2s-7.3,5.1-7.3,5.1l1.1,5.6l8.4,16.9c0,0,10.7,19.7,16.3,20.2
		C156.8,107.2,150.6,74.1,150.6,74.1z"/>
	<path d="M164.1,173.1c-2.8,7.3-5.6,14.6-8.4,21.9c0,0-0.6,10.1,4.5,16.9c5.1,6.8,2.2,36,2.2,36l18.6,11.8c0,0,6.7-25.3,1.7-43.3
		c-5.1-18-5.1-18-5.1-18c3.4-7.1,6.7-14.2,10.1-21.4C179.9,175.8,172,174.4,164.1,173.1z"/>
	<path d="M217.6,141.6c0,0,3.9,14.6,14.1,7.9c0,0,6.7-9.6,1.1-28.1l-11.8,5.6C220.9,127,224.3,137.7,217.6,141.6z"/>
	<path d="M103.4,59.5c0,0,16.3,3.9,19.7,6.7l10.1,1.1c0,0,15.7,7.3,17.4,6.7c1.7-0.6,1.7-0.6,1.7-0.6s8.4,19.7,5.6,31.5l-3.9,4.5
		c0,0-11.2-13.5-11.8-19.1s-7.3-3.9-7.3-3.9s-16.3-3.9-19.7-8.4c0,0-10.1,1.7-23.6-7.3L103.4,59.5z"/>
	<path d="M126.5,67.3l-1.1-3.4l7.3-5.1c0,0,5.6-1.1,18,15.2c0,0,5.6,38.8,11.8,36.6s12.9-15.7,12.9-15.7c0.6,0.9,3.1,4.3,7.9,5.6
		c5.1,1.4,9.2-0.6,10.1-1.1l5.1,9c0,0-5.1,20.2,13.5,13.5l44.4-20.8c0,0-3.4-22.5-34.3-24.7L235,60.2l-1.1-8.4l-14.6,5.6l12.4-20.2
		c0,0-3.9-11.2-7.3-11.8l-18,18l7.3-31.5c0,0-11.2-7.3-12.9-5.1L186.7,36l-0.6-21.4l-11.8,3.9l-1.7,19.7l-3.9-9.6
		c0,0-7.3,5.6-7.3,7.9l-2.2,24.7c0,0-19.1-8.4-22.5-7.3c-3.4,1.1-11.8,7.3-11.8,7.3C125.3,63.3,125.9,65.2,126.5,67.3z"/>
	<path d="M131.5,85.8c0,0,11.8,23.1,19.1,25.9l0.6-5.1c0,0-6.8-3.9-16.3-20.2L131.5,85.8z"/>
	<path d="M175.4,94.8c0,0-10.7,16.9-12.9,15.7s-4.5-5.6-4.5-5.6l-6.7,1.7l-0.6,5.1c0,0,2.8,11.8,7.9,17.4c0,0-27,7.3-26.4,10.1
		c0,0,2.2,7.9,4.5,9l-5.1,5.6c0,0,6.2,13.5,10.7,13.5l3.4-3.9c0,0,7.3,7.3,9,6.7l-1.7,3.4l7.3,2.2l-1.1,3.4c0,0,27.6,2.2,26.4,3.9
		l-2.2,2.8l15.7-1.7l-1.1-6.2c0,0,16.9-6.7,15.7-10.1l-6.2-8.4l7.3-9.6c0,0-12.9-10.1-16.9-10.1l-1.1-2.8c0,0,14.1-7.3,15.2-15.2
		c0,0-15.7,7.9-13.5-13.5l-5.1-9C193.4,99.3,187.2,101.7,175.4,94.8z"/>
	<path d="M161.3,128.1l-1.1,3.4c0,0,16.9,15.7,30.9,5.6C191.1,137.1,186.6,128.7,161.3,128.1z"/>
	<path d="M174.8,251.3c0,0-7.9-8.4-15.7-1.1c0,0-3.4,12.4-14.6,12.4c0,0-7.3,7.9-0.6,16.9s21.4,5.1,21.4,5.1s19.7-1.1,21.9-24.7
		l-4.5-8.4l-1.7,8.4L174.8,251.3z"/>
	<path d="M84.3,70.2c0,0,9.6,3.4,15.7-7.3c0,0,11.8-5.6,6.2-24.7c-5.6-19.1-33.7-16.9-33.7-16.9S37.6,32.5,47.7,55
		c0,0,3.4,11.2,17.4,12.9C65.1,67.8,73,73.6,84.3,70.2z"/>
	<path d="M201.3,89.8c0,0-11.8,6.2-2.8,18.6c0,0,11.8,16.3,22.5,18.6c0,0,23.6,0,18-27C238.9,100,226,60.1,201.3,89.8z"/>
</g>
<g>
	<path class="st1" d="M141,161.1l-4.5,25.9c0,0,10.7,16.9,18,20.2l27,47.8c0,0,10.7-7.9,3.4-20.8c0,0-4.5-20.8-12.9-28.7l-15.2-29.8
		v-12.4L141,161.1z"/>
	<path class="st1" d="M206.2,117.2l5.6,19.7c3.9-1.5,7.9-3,11.8-4.5c-2.8-3.4-5.6-6.7-8.4-10.1L206.2,117.2z"/>
	<path class="st2" d="M144.9,69.4c0,0-11.8-16.3-18-15.2s-7.3,5.1-7.3,5.1l1.1,5.6l8.4,16.9c0,0,10.7,19.7,16.3,20.2
		C151.1,102.6,144.9,69.4,144.9,69.4z"/>
	<path class="st3" d="M158.4,168.4c-2.8,7.3-5.6,14.6-8.4,21.9c0,0-0.6,10.1,4.5,16.9c5.1,6.8,2.2,36,2.2,36l18.6,11.8
		c0,0,6.7-25.3,1.7-43.3c-5.1-18-5.1-18-5.1-18c3.4-7.1,6.7-14.2,10.1-21.4C174.2,171.1,166.3,169.7,158.4,168.4z"/>
	<path class="st3" d="M211.9,136.9c0,0,3.9,14.6,14.1,7.9c0,0,6.7-9.6,1.1-28.1l-11.8,5.6C215.2,122.3,218.6,133,211.9,136.9z"/>
	<path class="st3" d="M97.7,54.8c0,0,16.3,3.9,19.7,6.7l10.1,1.1c0,0,15.7,7.3,17.4,6.7c1.7-0.6,1.7-0.6,1.7-0.6s8.4,19.7,5.6,31.5
		l-3.9,4.5c0,0-11.2-13.5-11.8-19.1s-7.3-3.9-7.3-3.9s-16.3-3.9-19.7-8.4c0,0-10.1,1.7-23.6-7.3L97.7,54.8z"/>
	<path class="st3" d="M120.8,62.7l-1.1-3.4l7.3-5.1c0,0,5.6-1.1,18,15.2c0,0,5.6,38.8,11.8,36.6s12.9-15.7,12.9-15.7
		c0.6,0.9,3.1,4.3,7.9,5.6c5.1,1.4,9.2-0.6,10.1-1.1l5.1,9c0,0-5.1,20.2,13.5,13.5l44.4-20.8c0,0-3.4-22.5-34.3-24.7l12.9-16.3
		l-1.1-8.4l-14.6,5.6L226,32.5c0,0-3.9-11.2-7.3-11.8l-18,18L208,7.2c0,0-11.2-7.3-12.9-5.1L181,31.3l-0.6-21.4l-11.8,3.9l-1.7,19.7
		l-3.9-9.6c0,0-7.3,5.6-7.3,7.9l-2.2,24.7c0,0-19.1-8.4-22.5-7.3c-3.4,1.1-11.8,7.3-11.8,7.3C119.6,58.6,120.2,60.6,120.8,62.7z"/>
	<path class="st1" d="M125.8,81.2c0,0,11.8,23.1,19.1,25.9l0.6-5.1c0,0-6.8-3.9-16.3-20.2L125.8,81.2z"/>
	<path class="st4" d="M169.7,90.2c0,0-10.7,16.9-12.9,15.7s-4.5-5.6-4.5-5.6l-6.7,1.7l-0.6,5.1c0,0,2.8,11.8,7.9,17.4
		c0,0-27,7.3-26.4,10.1c0,0,2.2,7.9,4.5,9l-5.1,5.6c0,0,6.2,13.5,10.7,13.5l3.4-3.9c0,0,7.3,7.3,9,6.7l-1.7,3.4l7.3,2.2l-1.1,3.4
		c0,0,27.6,2.2,26.4,3.9l-2.2,2.8l15.7-1.7l-1.1-6.2c0,0,16.9-6.7,15.7-10.1l-6.2-8.4l7.3-9.6c0,0-12.9-10.1-16.9-10.1l-1.1-2.8
		c0,0,14.1-7.3,15.2-15.2c0,0-15.7,7.9-13.5-13.5l-5.1-9C187.7,94.7,181.5,97,169.7,90.2z"/>
	<path class="st5" d="M155.6,123.4l-1.1,3.4c0,0,16.9,15.7,30.9,5.6C185.4,132.4,180.9,124,155.6,123.4z"/>
	<path class="st6" d="M169.1,246.6c0,0-7.9-8.4-15.7-1.1c0,0-3.4,12.4-14.6,12.4c0,0-7.3,7.9-0.6,16.9s21.4,5.1,21.4,5.1
		s19.7-1.1,21.9-24.7l-4.5-8.4l-1.7,8.4L169.1,246.6z"/>
	<path class="st7" d="M78.6,65.5c0,0,9.6,3.4,15.7-7.3c0,0,11.8-5.6,6.2-24.7c-5.6-19.1-33.7-16.9-33.7-16.9S31.9,27.8,42,50.3
		c0,0,3.4,11.2,17.4,12.9C59.4,63.2,67.3,68.9,78.6,65.5z"/>
	<path class="st7" d="M195.6,85.2c0,0-11.8,6.2-2.8,18.6c0,0,11.8,16.3,22.5,18.6c0,0,23.6,0,18-27
		C233.2,95.3,220.3,55.4,195.6,85.2z"/>
</g>
</svg>
