<?xml version="1.0" encoding="utf-8"?>
<!-- Generator: Adobe Illustrator 23.0.6, SVG Export Plug-In . SVG Version: 6.00 Build 0)  -->
<svg version="1.1" id="Layer_1" xmlns="http://www.w3.org/2000/svg" xmlns:xlink="http://www.w3.org/1999/xlink" x="0px" y="0px"
	 viewBox="0 0 288 288" style="enable-background:new 0 0 288 288;" xml:space="preserve">
<style type="text/css">
	.st0{opacity:0.5;}
	.st1{fill:#D0B461;}
	.st2{fill:#F5D66B;}
	.st3{fill:#F4F3EF;}
	.st4{fill:#A89082;}
	.st5{fill:#92928E;}
</style>
<g class="st0">
	<path d="M105.6,58.7c0,0,5.4-47.4,9.9-47.4s20.8,33.4,20.8,33.4L105.6,58.7z"/>
	<path d="M182.3,218.9c0,0,34.8,14,41.1,0.5c0,0-9,16.7-12.2,18.1l1.4,5c0,0,11.3,2.3,11.3,11.7c0,0-5.9,2.7-7.2,1.8
		c0,0-10.8,5-15.8,2.7l-19.4-0.9l-9.9-10.8c0,0,1.4-11.3-1.8-14.9c-3.2-3.6,0.5-6.8,0.5-6.8S181.4,223.4,182.3,218.9z"/>
	<path d="M199.9,110.6c0,0,16.2,1.4,17.6-3.2c1.4-4.5,8.1-25.3,8.1-25.3l2.3-1.4c0,0,9.5,2.3,17.6-1.8h5l10.4,2.7l2.3,1.4
		c0,0-22.6,52.4-31.6,54.2c0,0-45.1-1.4-47.4,2.3l10.8-29.3L199.9,110.6z"/>
	<path d="M91.2,96.2l-9-2.3c0,0-5.4-48.7-3.2-51.9c2.3-3.2-14.9-11.3-14.9-11.3l-2.7,0.5l-1.8-2.8l-5.9,0.5c0,0-10.4-4.1-12.2-1.8
		s-7.2,19-7.2,19s-6.8,8.1-3.6,10.8s17.6,2.3,17.6,2.3s4.5-0.9,4.5,7.2s2.7,44.7,2.7,44.7s1.4,4.5,7.2,6.3
		c5.9,1.8,22.6,7.2,23.5,8.6C87.1,127.3,91.2,96.2,91.2,96.2z"/>
	<path d="M227,42c0,0-2.3,13.1-14,20.8c0,0-7.7,10.4-0.9,15.3c6.8,5,10.8,5.9,10.8,5.9l5-3.2c0,0,11.7,2.7,17.6-1.8h5
		c0,0,6.8,4.1,10.4,2.7c0,0,1.4,3.6,6.8,1.8c5.4-1.8,10.8-5.9,10.8-5.9l0.5-6.3l-5-14c0,0-3.2-5-9.5-6.3c0,0-2.3-4.1-3.2-5.4
		c0,0-3.6-4.5-11.3-6.3c0,0-6.3-2.3-7.2-4.5s-5.4-2.3-5.4-2.3S226.1,33.9,227,42z"/>
	<path d="M106.5,153.5c0,0,1.4,17.6-6.3,23.9s-29.4,27.1-29.4,27.1s-9.5,11.7-4.5,22.6c5,10.8,9.9,20.3,9.9,20.3s-4.5,11.7-8.6,14
		c-4.1,2.3-8.6,4.5-8.6,4.5s-4.1,7.2,1.8,8.1s14,0,14,0s5.4,3.2,18.1,0.9c0,0,20.3,2.3,22.6-1.8c2.3-4.1-0.5-23-0.5-23l-2.3-5.4
		c0,0-4.5-14.9-2.7-18.1c0,0,4.1-13.5,30.2-19.4c0,0,24.4-0.9,42,11.7c0,0,28.9,19.4,41.1,0.5c0,0,6.8-11.3-12.2-25.7
		s-19.4-16.2-19.4-16.2s-6.8-23.9-5-36.1C186.9,141.3,104.7,144,106.5,153.5z"/>
	<path d="M97,91.6c0,0-7.2,3.6-7.7,0.5l1.8,4.1l-3.6,1.3l1.8,2.3l-7.2,3.6l5.4,2.7c0,0-4.5,1.4-3.2,3.6l4.5,1.8c0,0-5.4,3.6-5,5
		c0.5,1.4,5.9,0.9,5.9,0.9s-6.3,6.8-5.9,9.5l3.6,0.5l-3.2,2.7l3.2,1.4l-1.8,4.5l4.5,0.9l-2.3,3.2l4.5-0.5l-3.2,3.6
		c0,0,7.2,1.4,8.1-0.5v5.9l3.6,0.5l-1.4,3.2c0,0,5-2.3,5-0.9s-0.9,5.9-0.9,5.9l5-3.2l1.8,6.3l3.6-3.6l0.9,2.7l3.2-2.3l0.9,4.1
		l4.1-3.2l2.3,5.4l4.5-4.1l2.3,3.2l3.2-2.7l2.7,4.5l2.3-3.2l1.3-1.8l1.8,1.8l1.8,2.3l4.5-5.4l1.8,5.4l2.7-2.7l1.8,2.7l1.4-1.8
		l1.8,2.3l1.4-5.9l3.6,1.8l1.8-4.1l7.2,5.4l0.5-6.8l3.2,1.8l0.5-3.6l4.5,3.2l0.9-5l2.7,0.9l-0.5-5.4l4.1,3.2l-1.4-6.3l4.5,1.8
		l-2.7-5.9h1.8l-0.9-4.5l7.2-2.3l-5-5.4l7.7-2.7l-4.5-1.8l5-1.8l-3.6-0.5l5.9-3.6l-5.4-3.6l3.6-4.1l-4.5-1.8l2.7-2.7l-3.6-2.3l5-3.2
		l-10.4-2.7l1.4-3.2h-4.1l1.8-5.4l-7.7,2.3L97,91.6z"/>
	<path d="M105.6,58.7c0,0-8.1,5.4-7.2,30.2c0,0-5.4,11.7-0.9,18.1c0,0-10.8,17.2,2.7,19.9l11.3-4.1c0,0,23,14,43.3,3.2
		s26.6-27.5,26.6-27.5s1.4-9.9,0-18.1c0,0,14.4-52.4,10.8-57.3c0,0-24.8,16.7-33.9,25.7C158.4,48.8,134,33.4,105.6,58.7z"/>
	<path d="M160.2,60c0,0,22.1-24.8,25.3-23.9c0,0-6.8,36.1-7.7,38.4C177.8,74.5,165.2,59.1,160.2,60z"/>
	<path d="M237.4,118.3c0,0-14.4,3.6-13.5,14.9s9.9,14.4,9.9,14.4s16.7-0.9,18.1-11.7c1.4-10.8-3.6-15.3-3.6-15.3l-8.1-2.3l-0.9,9.5
		c0,0,7.7,0.9,5.9,6.8c-1.8,5.9-9.5,6.8-10.4,4.1s-4.1-7.2-0.5-9c3.6-1.8,3.6-1.8,3.6-1.8L237.4,118.3z"/>
	<path d="M229.7,80.4c0,0,10.8,38.8,9.5,47.4h-1.4L229.7,80.4z"/>
</g>
<g>
	<path class="st1" d="M101,53.2c0,0,5.4-47.4,9.9-47.4s20.8,33.4,20.8,33.4L101,53.2z"/>
	<path class="st1" d="M177.7,213.4c0,0,34.8,14,41.1,0.5c0,0-9,16.7-12.2,18.1l1.4,5c0,0,11.3,2.3,11.3,11.7c0,0-5.9,2.7-7.2,1.8
		c0,0-10.8,5-15.8,2.7l-19.4-0.9l-9.9-10.8c0,0,1.4-11.3-1.8-14.9c-3.2-3.6,0.5-6.8,0.5-6.8S176.8,217.9,177.7,213.4z"/>
	<path class="st1" d="M195.3,105.1c0,0,16.2,1.4,17.6-3.2c1.4-4.5,8.1-25.3,8.1-25.3l2.3-1.4c0,0,9.5,2.3,17.6-1.8h5l10.4,2.7
		l2.3,1.4c0,0-22.6,52.4-31.6,54.2c0,0-45.1-1.4-47.4,2.3l10.8-29.3L195.3,105.1z"/>
	<path class="st2" d="M86.6,90.7l-9-2.3c0,0-5.4-48.7-3.2-51.9c2.3-3.2-14.9-11.3-14.9-11.3l-2.7,0.5L55,22.9l-5.9,0.5
		c0,0-10.4-4.1-12.2-1.8s-7.2,19-7.2,19s-6.8,8.1-3.6,10.8s17.6,2.3,17.6,2.3s4.5-0.9,4.5,7.2s2.7,44.7,2.7,44.7s1.4,4.5,7.2,6.3
		c5.9,1.8,22.6,7.2,23.5,8.6C82.5,121.8,86.6,90.7,86.6,90.7z"/>
	<path class="st2" d="M222.4,36.5c0,0-2.3,13.1-14,20.8c0,0-7.7,10.4-0.9,15.3c6.8,5,10.8,5.9,10.8,5.9l5-3.2c0,0,11.7,2.7,17.6-1.8
		h5c0,0,6.8,4.1,10.4,2.7c0,0,1.4,3.6,6.8,1.8c5.4-1.8,10.8-5.9,10.8-5.9l0.5-6.3l-5-14c0,0-3.2-5-9.5-6.3c0,0-2.3-4.1-3.2-5.4
		c0,0-3.6-4.5-11.3-6.3c0,0-6.3-2.3-7.2-4.5s-5.4-2.3-5.4-2.3S221.5,28.4,222.4,36.5z"/>
	<path class="st2" d="M101.9,148c0,0,1.4,17.6-6.3,23.9S66.2,199,66.2,199s-9.5,11.7-4.5,22.6c5,10.8,9.9,20.3,9.9,20.3
		s-4.5,11.7-8.6,14s-8.6,4.5-8.6,4.5s-4.1,7.2,1.8,8.1s14,0,14,0s5.4,3.2,18.1,0.9c0,0,20.3,2.3,22.6-1.8c2.3-4.1-0.5-23-0.5-23
		l-2.3-5.4c0,0-4.5-14.9-2.7-18.1c0,0,4.1-13.5,30.2-19.4c0,0,24.4-0.9,42,11.7c0,0,28.9,19.4,41.1,0.5c0,0,6.8-11.3-12.2-25.7
		S187.1,172,187.1,172s-6.8-23.9-5-36.1C182.3,135.8,100.1,138.5,101.9,148z"/>
	<path class="st3" d="M92.4,86.1c0,0-7.2,3.6-7.7,0.5l1.8,4.1L82.9,92l1.8,2.3l-7.2,3.6l5.4,2.7c0,0-4.5,1.4-3.2,3.6l4.5,1.8
		c0,0-5.4,3.6-5,5c0.5,1.4,5.9,0.9,5.9,0.9s-6.3,6.8-5.9,9.5l3.6,0.5l-3.2,2.7l3.2,1.4l-1.8,4.5l4.5,0.9l-2.3,3.2l4.5-0.5l-3.2,3.6
		c0,0,7.2,1.4,8.1-0.5v5.9l3.6,0.5l-1.4,3.2c0,0,5-2.3,5-0.9s-0.9,5.9-0.9,5.9l5-3.2l1.8,6.3l3.6-3.6l0.9,2.7l3.2-2.3l0.9,4.1
		l4.1-3.2l2.3,5.4l4.5-4.1l2.3,3.2l3.2-2.7l2.7,4.5l2.3-3.2l1.3-1.8l1.8,1.8l1.8,2.3l4.5-5.4l1.8,5.4l2.7-2.7l1.8,2.7l1.4-1.8
		l1.8,2.3l1.4-5.9l3.6,1.8l1.8-4.1l7.2,5.4l0.5-6.8l3.2,1.8l0.5-3.6l4.5,3.2l0.9-5l2.7,0.9l-0.5-5.4l4.1,3.2l-1.4-6.3l4.5,1.8
		l-2.7-5.9h1.8l-0.9-4.5l7.2-2.3l-5-5.4l7.7-2.7l-4.5-1.8l5-1.8l-3.6-0.5l5.9-3.6l-5.4-3.6l3.6-4.1l-4.5-1.8l2.7-2.7l-3.6-2.3l5-3.2
		l-10.4-2.7l1.4-3.2h-4.1L185,82l-7.7,2.3L92.4,86.1z"/>
	<path class="st2" d="M101,53.2c0,0-8.1,5.4-7.2,30.2c0,0-5.4,11.7-0.9,18.1c0,0-10.8,17.2,2.7,19.9l11.3-4.1c0,0,23,14,43.3,3.2
		S176.8,93,176.8,93s1.4-9.9,0-18.1c0,0,14.4-52.4,10.8-57.3c0,0-24.8,16.7-33.9,25.7C153.8,43.3,129.4,27.9,101,53.2z"/>
	<path class="st4" d="M155.6,54.5c0,0,22.1-24.8,25.3-23.9c0,0-6.8,36.1-7.7,38.4C173.2,69,160.6,53.6,155.6,54.5z"/>
	<path class="st5" d="M232.8,112.8c0,0-14.4,3.6-13.5,14.9s9.9,14.4,9.9,14.4s16.7-0.9,18.1-11.7c1.4-10.8-3.6-15.3-3.6-15.3
		l-8.1-2.3l-0.9,9.5c0,0,7.7,0.9,5.9,6.8c-1.8,5.9-9.5,6.8-10.4,4.1s-4.1-7.2-0.5-9s3.6-1.8,3.6-1.8L232.8,112.8z"/>
	<path class="st3" d="M225.1,74.9c0,0,10.8,38.8,9.5,47.4h-1.4L225.1,74.9z"/>
</g>
</svg>
