<?xml version="1.0" encoding="utf-8"?>
<!-- Generator: Adobe Illustrator 23.0.6, SVG Export Plug-In . SVG Version: 6.00 Build 0)  -->
<svg version="1.1" id="Layer_1" xmlns="http://www.w3.org/2000/svg" xmlns:xlink="http://www.w3.org/1999/xlink" x="0px" y="0px"
	 viewBox="0 0 288 288" style="enable-background:new 0 0 288 288;" xml:space="preserve">
<style type="text/css">
	.st0{opacity:0.5;}
	.st1{fill:#C0737E;}
	.st2{fill:#DF989E;}
	.st3{fill:#425147;}
	.st4{fill:#5F7668;}
	.st5{fill:#7D9F83;}
	.st6{fill:#598C9F;}
	.st7{fill:#91BCC1;}
	.st8{fill:#050706;}
	.st9{fill:#F7F7F8;}
	.st10{fill:#CED5E5;}
	.st11{fill:#436B7B;}
	.st12{fill:#32515B;}
</style>
<g class="st0">
	<path d="M117.7,88.6c-3.7-3.3-5.7-6.7-6.9-9.4c-8.1-18,6.8-38,7.9-39.4l2.5,1.5c0,0,5.9-6.4,5.9-9.4c1.9,5.5,5.7,19,1.5,35
		C125.9,77.1,121.1,84.4,117.7,88.6z"/>
	<path d="M117.7,88.6c0,0-0.5-19.2,4.4-25.1c4.9-5.9,4.9-31.6,4.9-31.6l-2.5-10.4c0,0,11.8,5.9,10.8,9.4l3-4.9l2.5,3.9l3.5-4.4
		l3,7.4c0,0,3-5.4,6.4-4.9c0,0,1,10.8,6.4,11.8s26.6,24.7,26.6,24.7c1.7,1.6,3.8,4,5.4,7.4c3.9,8.2,2.2,16.1,1.5,18.7
		c-13.5,18.1-27,36.2-40.4,54.2c-14.5-5.4-28.9-10.8-43.4-16.3L89.6,91.1c0,0-1.5-24.7,15.3-46.8c0,0,2.5-5.9,1-12.8
		c0,0,6.9,3.5,6.4,6.9l7.4-5.9l-1,7.4C118.7,39.8,112.3,74.8,117.7,88.6z"/>
	<path d="M70.9,202c2.3,0.3,4.6,0.7,6.9,1c-0.8-4.1-1.6-8.2-2.5-12.3L70.9,202z"/>
	<path d="M83.7,166c0,0-45.4,19.2-46.8,26.1l1,7.9l11.8-6.4l-10.8,15.3l7.9,3l8.4-10.4l-3.5,11.8c0,0,13.8,1,15.3-2l3.9-9.4
		l4.4-11.3l-0.5,20.7l7.4-0.5l35.5-38.5l-17.3-33L83.7,166z"/>
	<path d="M155.2,101.9l1-5.4c0,0,10.8,3.5,10.8,5.9c0,0-6.9-11.3-10.4-11.3l7.4-14.8l16.8,11.8l-14.3-14.8l7.9-10.4l17.3,15.3
		L185.3,57l9.9-10.4l9.4,14.3l1.5-21.7c0,0,14.8-3,15.3-0.5l1,3.9l5.9-0.5v12.3l15.3-5.9v15.3l-8.9,4.9l14.3-1.5l-2.6,15l-19.3,4
		l11.3,3.5l-2.4,12.7l-38.5,5.4L155.2,101.9z"/>
	<path d="M154.2,135.9l-7.9,4.9l3.9-8.4l-9.9-10.4l-4.4,7.4l2-18.7c0,0-13.3-10.4-15.3-8.9l-3.5,15.8l-4.4-16.8l-5.4-2.5l-2,15.8
		l-7.4-20.2L77.7,89l1.5,21.2L66.9,87.1l-15.3-1.5l3,17.3L44.2,81.7L26,84.2l3,5.4l-9.9,3.5l10.4,15.8l-17.3-7l-2.5,10.8l10.4,5.4
		l-10.8,3l10.4,15.8l12.8-4.9l-9.4,6.9l5.9,7.9l9.4-3.9l-5.9,4.9l16.3,8.4c0,0,9.4-9.4,13.8-8.9l-5.4,5.9c0,0,11.8,3.9,11.3,6.4
		l10.8-7.9l-6.9,8.9l13.3,7.9l12.8-6.9l-6.9,7.4l8.4,5.4l7.2-5.1l3.2-2.3l-2.5,4.9l9.4,3.5l40.9-30.6L154.2,135.9z"/>
	<path d="M233.6,102.9c0,0,20.2-7.4,22.7-4.9c2.5,2.5,11.3,22.7,11.3,22.7L233.6,102.9z"/>
	<path d="M210.9,233.1l20.2-26.6l19.2-8.9c0,0,18.2,31.1,8.4,66.6l-14.3,4.9l-12.8-2C231.6,267.1,225.2,271,210.9,233.1z"/>
	<path d="M151.7,101.9c0,0,18.2-3,39.4,3.5c0,0,40.4-5.4,44.9-3c0,0,30.1,9.9,31.6,18.2c0,0,8.9,3.5,6.9,9.4l11.3,26.6
		c0,0,3,4.4-3.9,8.9l-3.5,3c0,0-12.3,25.1-28.1,29.1c0,0-14.8,8.9-19.2,8.9c0,0-4.4,17.3-20.2,26.6c0,0-13.8,8.4-16.8,9.4
		c0,0,3.9,27.1-1,29.6s-19.7,3.9-19.7,3.9s-10.8,1.5-12.8-0.5s-11.3-19.2-11.3-19.2s-20.7-2-27.6-9.4c0,0-10.8,18.7-10.4,22.7
		c0,0-32,2-35.5,0s-3-18.2-3-18.2s4.4-44.4,22.7-63.6s24.2-16.8,24.2-16.8s34-23.2,34-29.6C153.7,141.4,147.8,102.9,151.7,101.9z"/>
	<path d="M157.1,106.9c0,0,16.3,12.3,15.3,15.8l-15.3,14.8C157.1,137.4,153.7,108.8,157.1,106.9z"/>
	<path d="M203.5,165.5c0,0,6.4,9.9,7.9,8.4s3-12.8,3-12.8S203.5,164.1,203.5,165.5z"/>
	<path d="M276.9,162.1l1,8.9c0,0,3.9,0.5,3.9-5.4l-1.5-5.9L276.9,162.1z"/>
	<path d="M86.6,269.1l2-4.4c0,0,3.5,4.4,3,9.4L86.6,269.1z"/>
	<path d="M97.5,270.5c0,0,1.5-5.9,3.5-5.4c0,0,5.4,1.5,4.4,8.4L97.5,270.5z"/>
	<path d="M168.5,275c0,0,4.4-6.4,5.9-4.9s3.5,9.4,3.5,9.4L168.5,275z"/>
	<path d="M180.3,274.5c0,0,1-7.4,6.4-6.4s7.4,9.4,7.4,9.4L180.3,274.5z"/>
	<path d="M237.5,267.1c0,0,2.5-4.9,4.4-3.9c2,1,5.4,7.4,5.4,7.4L237.5,267.1z"/>
	<path d="M248.3,267.6c0,0,2-7.9,4.4-6.9c2.5,1,7.4,9.4,7.4,9.4L248.3,267.6z"/>
	<path d="M113.3,263.6c0,0,4.4,4.4,3.9,6.4c-0.1,0.2-0.1,0.4-0.3,0.5c-0.5,0.5-1.7-0.1-4.2-1c-0.7-0.2-1.2-0.4-1.5-0.5
		C111.9,267.3,112.6,265.5,113.3,263.6z"/>
	<path d="M196.1,266.6c0,0,4.9,3.9,4.9,7.4l-7.9-2L196.1,266.6z"/>
	<polygon points="259.1,260.2 266.6,265.6 259.6,267.1 258.6,264.1 	"/>
	<path d="M162.1,244.4c0,0-2,5.9,0,8.9s3.9,3.9,3.9,3.9l7.4-4.9C173.4,252.3,166.5,242,162.1,244.4z"/>
	<path d="M160.6,212.9l-2.5,13.8c0,0,9.9,15.8,14.3,14.3s7.4-2.5,7.4-2.5l2.5-10.8C182.3,227.7,163.1,209.9,160.6,212.9z"/>
	<path d="M81.2,218.8l4.9,1.5l7.4,14.8c0,0,2.5,7.4-8.9,12.8c0,0-7.9-2-9.9-5.9C74.8,242,78.3,219.3,81.2,218.8z"/>
	<path d="M102.9,198.1c0,0-6.9,11.3-3,11.3s7.4-3.5,7.4-3.5L102.9,198.1z"/>
	<path d="M119.7,171c0,0-8.9,21.2-6.4,26.6s5.4,4.9,5.4,4.9s10.4,2,10.4-9.4c0-11.3,4.4-22.2,4.4-22.2S129,164.5,119.7,171z"/>
	<path d="M236.5,234.6l-1,12.3c0,0,9.4-1,7.4-4.4C240.9,239,236.5,234.6,236.5,234.6z"/>
	<path d="M243.9,216.3l-1.5,11.8l11.8,15.3c0,0,5.9-2,5.9-5.4c0-3.5-2.5-17.7-2.5-17.7S244.4,211.4,243.9,216.3z"/>
	<path d="M238.5,121.7c0,0-10.4-3.9-8.4,0.5s11.8,11.8,11.8,11.8S241.4,127.6,238.5,121.7z"/>
	<path d="M222.7,101.4c0,0,28.1,27.6,29.6,23.2s0.5-15.3,0.5-15.3S237,99.5,222.7,101.4z"/>
</g>
<g>
	<path class="st1" d="M112.7,83.4c-3.7-3.3-5.7-6.7-6.9-9.4c-8.1-18,6.8-38,7.9-39.4l2.5,1.5c0,0,5.9-6.4,5.9-9.4
		c1.9,5.5,5.7,19,1.5,35C120.9,71.9,116.1,79.2,112.7,83.4z"/>
	<path class="st2" d="M112.7,83.4c0,0-0.5-19.2,4.4-25.1c4.9-5.9,4.9-31.6,4.9-31.6l-2.5-10.4c0,0,11.8,5.9,10.8,9.4l3-4.9l2.5,3.9
		l3.5-4.4l3,7.4c0,0,3-5.4,6.4-4.9c0,0,1,10.8,6.4,11.8s26.6,24.7,26.6,24.7c1.7,1.6,3.8,4,5.4,7.4c3.9,8.2,2.2,16.1,1.5,18.7
		c-13.5,18.1-27,36.2-40.4,54.2c-14.5-5.4-28.9-10.8-43.4-16.3L84.6,85.9c0,0-1.5-24.7,15.3-46.8c0,0,2.5-5.9,1-12.8
		c0,0,6.9,3.5,6.4,6.9l7.4-5.9l-1,7.4C113.7,34.6,107.3,69.6,112.7,83.4z"/>
	<path class="st3" d="M65.9,196.8c2.3,0.3,4.6,0.7,6.9,1c-0.8-4.1-1.6-8.2-2.5-12.3L65.9,196.8z"/>
	<path class="st4" d="M78.7,160.8c0,0-45.4,19.2-46.8,26.1l1,7.9l11.8-6.4l-10.8,15.3l7.9,3l8.4-10.4l-3.5,11.8c0,0,13.8,1,15.3-2
		l3.9-9.4l4.4-11.3l-0.5,20.7l7.4-0.5l35.5-38.5l-17.3-33L78.7,160.8z"/>
	<path class="st5" d="M150.2,96.7l1-5.4c0,0,10.8,3.5,10.8,5.9c0,0-6.9-11.3-10.4-11.3l7.4-14.8l16.8,11.8l-14.3-14.8l7.9-10.4
		L186.7,73l-6.4-21.2l9.9-10.4l9.4,14.3l1.5-21.7c0,0,14.8-3,15.3-0.5l1,3.9l5.9-0.5v12.3l15.3-5.9v15.3l-8.9,4.9L244,62l-2.6,15
		l-19.3,4l11.3,3.5L231,97.2l-38.5,5.4L150.2,96.7z"/>
	<path class="st5" d="M149.2,130.7l-7.9,4.9l3.9-8.4l-9.9-10.4l-4.4,7.4l2-18.7c0,0-13.3-10.4-15.3-8.9l-3.5,15.8l-4.4-16.8
		l-5.4-2.5l-2,15.8l-7.4-20.2l-22.2-4.9l1.5,21.2L61.9,81.9l-15.3-1.5l3,17.3L39.2,76.5L21,79l3,5.4l-9.9,3.5l10.4,15.8l-17.3-7
		l-2.5,10.8l10.4,5.4l-10.8,3l10.4,15.8l12.8-4.9l-9.4,6.9l5.9,7.9l9.4-3.9l-5.9,4.9l16.3,8.4c0,0,9.4-9.4,13.8-8.9l-5.4,5.9
		c0,0,11.8,3.9,11.3,6.4l10.8-7.9l-6.9,8.9l13.3,7.9l12.8-6.9l-6.9,7.4l8.4,5.4l7.2-5.1l3.2-2.3l-2.5,4.9l9.4,3.5l40.9-30.6
		L149.2,130.7z"/>
	<path class="st6" d="M228.6,97.7c0,0,20.2-7.4,22.7-4.9s11.3,22.7,11.3,22.7L228.6,97.7z"/>
	<path class="st6" d="M205.9,227.9l20.2-26.6l19.2-8.9c0,0,18.2,31.1,8.4,66.6l-14.3,4.9l-12.8-2
		C226.6,261.9,220.2,265.8,205.9,227.9z"/>
	<path class="st7" d="M146.7,96.7c0,0,18.2-3,39.4,3.5c0,0,40.4-5.4,44.9-3c0,0,30.1,9.9,31.6,18.2c0,0,8.9,3.5,6.9,9.4l11.3,26.6
		c0,0,3,4.4-3.9,8.9l-3.5,3c0,0-12.3,25.1-28.1,29.1c0,0-14.8,8.9-19.2,8.9c0,0-4.4,17.3-20.2,26.6c0,0-13.8,8.4-16.8,9.4
		c0,0,3.9,27.1-1,29.6s-19.7,3.9-19.7,3.9s-10.8,1.5-12.8-0.5s-11.3-19.2-11.3-19.2s-20.7-2-27.6-9.4c0,0-10.8,18.7-10.4,22.7
		c0,0-32,2-35.5,0s-3-18.2-3-18.2s4.4-44.4,22.7-63.6s24.2-16.8,24.2-16.8s34-23.2,34-29.6C148.7,136.2,142.8,97.7,146.7,96.7z"/>
	<path class="st8" d="M152.1,101.7c0,0,16.3,12.3,15.3,15.8l-15.3,14.8C152.1,132.2,148.7,103.6,152.1,101.7z"/>
	<path class="st9" d="M198.5,160.3c0,0,6.4,9.9,7.9,8.4s3-12.8,3-12.8S198.5,158.9,198.5,160.3z"/>
	<path class="st9" d="M271.9,156.9l1,8.9c0,0,3.9,0.5,3.9-5.4l-1.5-5.9L271.9,156.9z"/>
	<path class="st9" d="M81.6,263.9l2-4.4c0,0,3.5,4.4,3,9.4L81.6,263.9z"/>
	<path class="st9" d="M92.5,265.3c0,0,1.5-5.9,3.5-5.4c0,0,5.4,1.5,4.4,8.4L92.5,265.3z"/>
	<path class="st9" d="M163.5,269.8c0,0,4.4-6.4,5.9-4.9s3.5,9.4,3.5,9.4L163.5,269.8z"/>
	<path class="st9" d="M175.3,269.3c0,0,1-7.4,6.4-6.4s7.4,9.4,7.4,9.4L175.3,269.3z"/>
	<path class="st9" d="M232.5,261.9c0,0,2.5-4.9,4.4-3.9c2,1,5.4,7.4,5.4,7.4L232.5,261.9z"/>
	<path class="st9" d="M243.3,262.4c0,0,2-7.9,4.4-6.9c2.5,1,7.4,9.4,7.4,9.4L243.3,262.4z"/>
	<path class="st10" d="M108.3,258.4c0,0,4.4,4.4,3.9,6.4c-0.1,0.2-0.1,0.4-0.3,0.5c-0.5,0.5-1.7-0.1-4.2-1c-0.7-0.2-1.2-0.4-1.5-0.5
		C106.9,262.1,107.6,260.3,108.3,258.4z"/>
	<path class="st10" d="M191.1,261.4c0,0,4.9,3.9,4.9,7.4l-7.9-2L191.1,261.4z"/>
	<polygon class="st10" points="254.2,255 261.6,260.4 254.7,261.9 253.7,258.9 	"/>
	<path class="st11" d="M157.1,239.2c0,0-2,5.9,0,8.9s3.9,3.9,3.9,3.9l7.4-4.9C168.4,247.1,161.5,236.8,157.1,239.2z"/>
	<path class="st11" d="M155.6,207.7l-2.5,13.8c0,0,9.9,15.8,14.3,14.3s7.4-2.5,7.4-2.5l2.5-10.8
		C177.3,222.5,158.1,204.7,155.6,207.7z"/>
	<path class="st11" d="M76.2,213.6l4.9,1.5l7.4,14.8c0,0,2.5,7.4-8.9,12.8c0,0-7.9-2-9.9-5.9C69.8,236.8,73.3,214.1,76.2,213.6z"/>
	<path class="st11" d="M97.9,192.9c0,0-6.9,11.3-3,11.3s7.4-3.5,7.4-3.5L97.9,192.9z"/>
	<path class="st11" d="M114.7,165.8c0,0-8.9,21.2-6.4,26.6c2.5,5.4,5.4,4.9,5.4,4.9s10.4,2,10.4-9.4c0-11.3,4.4-22.2,4.4-22.2
		S124,159.3,114.7,165.8z"/>
	<path class="st12" d="M231.5,229.4l-1,12.3c0,0,9.4-1,7.4-4.4C235.9,233.8,231.5,229.4,231.5,229.4z"/>
	<path class="st12" d="M238.9,211.1l-1.5,11.8l11.8,15.3c0,0,5.9-2,5.9-5.4c0-3.5-2.5-17.7-2.5-17.7S239.4,206.2,238.9,211.1z"/>
	<path class="st11" d="M233.5,116.5c0,0-10.4-3.9-8.4,0.5s11.8,11.8,11.8,11.8S236.4,122.4,233.5,116.5z"/>
	<path class="st11" d="M217.7,96.2c0,0,28.1,27.6,29.6,23.2s0.5-15.3,0.5-15.3S232,94.3,217.7,96.2z"/>
</g>
</svg>
