<?xml version="1.0" encoding="utf-8"?>
<!-- Generator: Adobe Illustrator 23.0.6, SVG Export Plug-In . SVG Version: 6.00 Build 0)  -->
<svg version="1.1" id="Layer_1" xmlns="http://www.w3.org/2000/svg" xmlns:xlink="http://www.w3.org/1999/xlink" x="0px" y="0px"
	 viewBox="0 0 288 288" style="enable-background:new 0 0 288 288;" xml:space="preserve">
<style type="text/css">
	.st0{opacity:0.5;}
	.st1{fill:#C49DAC;}
	.st2{fill:#ECD0D7;}
	.st3{fill:#535968;}
</style>
<g class="st0">
	<path d="M35.9,173.4c0,0-25.9-2.2-24.1,6.9s34.5,27.2,34.5,27.2L35.9,173.4z"/>
	<path d="M69.1,238.1c0,0-36.2,12.1-26.7,27.6s48.3-1.7,53.9-9.1C101.9,249.2,69.1,238.1,69.1,238.1"/>
	<path d="M193.3,254.9c0,0,19.8,15.5,13.8,23.3c0,0-17.2,17.7-50.9-14.2S193.3,254.9,193.3,254.9"/>
	<path d="M207.1,88c0,0-7.3-56-72.9-26.3c0,0-33.6-37.5-54.8-35.4c0,0-23.7,20.7-19.4,70.3c0,0-30.2,31-22.8,85.4
		s68.1,78.5,68.1,78.5s55.6,16.4,76.3-6.9c0,0,2.2,3,7.3,3.4s8.2-10.3,8.2-10.3s40.1-30.2,42.2-73.7c0,0,41.8-30.6,44.8-56.5
		c0,0-21.1-24.1-67.7-19.4C216.5,97.1,210.1,87.2,207.1,88z"/>
	<path d="M67.8,90.6c0,0,32.3-23.7,39.2-21.6c0,0-19.8-30.6-26.7-29.7C80.3,39.3,64.4,57.4,67.8,90.6z"/>
	<path d="M226.5,117.3c0,0,14.2,20.7,12.9,44c0,0,32.8-22.8,33.6-40.1C273,121.2,254.9,110,226.5,117.3z"/>
</g>
<g>
	<path class="st1" d="M30.9,168.3c0,0-25.9-2.2-24.1,6.9s34.5,27.2,34.5,27.2L30.9,168.3z"/>
	<path class="st1" d="M64.1,233c0,0-36.2,12.1-26.7,27.6s48.3-1.7,53.9-9.1S64.1,233,64.1,233"/>
	<path class="st1" d="M188.3,249.8c0,0,19.8,15.5,13.8,23.3c0,0-17.2,17.7-50.9-14.2S188.3,249.8,188.3,249.8"/>
	<path class="st2" d="M202.1,82.9c0,0-7.3-56-72.9-26.3c0,0-33.6-37.5-54.8-35.4c0,0-23.7,20.7-19.4,70.3c0,0-30.2,31-22.8,85.4
		s68.1,78.5,68.1,78.5s55.6,16.4,76.3-6.9c0,0,2.2,3,7.3,3.4s8.2-10.3,8.2-10.3s40.1-30.2,42.2-73.7c0,0,41.8-30.6,44.8-56.5
		c0,0-21.1-24.1-67.7-19.4C211.5,92,205.1,82.1,202.1,82.9z"/>
	<path class="st3" d="M62.8,85.5c0,0,32.3-23.7,39.2-21.6c0,0-19.8-30.6-26.7-29.7C75.3,34.2,59.4,52.3,62.8,85.5z"/>
	<path class="st3" d="M221.5,112.2c0,0,14.2,20.7,12.9,44c0,0,32.8-22.8,33.6-40.1C268,116.1,249.9,104.9,221.5,112.2z"/>
</g>
</svg>
