<?xml version="1.0" encoding="utf-8"?>
<!-- Generator: Adobe Illustrator 23.0.6, SVG Export Plug-In . SVG Version: 6.00 Build 0)  -->
<svg version="1.1" id="Layer_1" xmlns="http://www.w3.org/2000/svg" xmlns:xlink="http://www.w3.org/1999/xlink" x="0px" y="0px"
	 viewBox="0 0 288 288" style="enable-background:new 0 0 288 288;" xml:space="preserve">
<style type="text/css">
	.st0{opacity:0.5;}
	.st1{fill:#99908B;}
	.st2{fill:#D37270;}
	.st3{fill:#9A928D;}
	.st4{fill:#8D80A3;}
	.st5{fill:#F2DC8E;}
	.st6{fill:#C5C6CC;}
	.st7{fill:#F5EAC6;}
	.st8{fill:#ECBDC0;}
	.st9{fill:#A4838D;}
</style>
<g class="st0">
	<path d="M190,51.1c0,0,67.4,77,19.1,139.8l1.5-6l-8.1,10.5l-5.5-10.1L190,51.1z"/>
	<path d="M98.3,174.4c0,0-4.5,15.6-36.3,29.2c0,0-10.1,7.6,10.1,4c0,0-10.1,14.1-21.7,14.6s-22.7,12.1-22.7,12.1s-8.6,11.5,4,10.5
		c0,0,16.6-4.5,34.7,5.5c18.1,10.1,34.2,9.6,34.2,9.6s25.1-1,33.2-6c8.1-5,13.1-3.1,13.1-3.1s8.1-1,20.1,9.1
		c12.1,10.1,27.7-0.5,27.7-0.5s13.1-9.6,23.2-5c10.1,4.5,15.6-1,15.6-1s6-5,9.6-5c3.5,0,4.5-4,4.5-4s-3.5-5.5-14.1-9.1
		c-10.5-3.5-19.6-11.5-19.6-11.5l-1.5-4c0,0,18.6,5.5,16.1,1c0,0-26.1-27.7-28.7-40.2c-2.6-12.6-15.1-20.1-15.1-20.1l-15.1,3.1
		c0,0-14.6,0-26.1-5.5s-16.6,8.1-28.7,2C102.7,153.8,98.3,174.4,98.3,174.4z"/>
	<path d="M142.6,64.2c0,0-8.1-13.1-9.6-10.1c0,0-15.6,11-15.1,21.1L142.6,64.2z"/>
	<path d="M177.3,77.8c0,0-12.1-29.7-20.6-26.7c-8.6,3.1-14.1,13.1-14.1,13.1L177.3,77.8z"/>
	<path d="M107.3,127.1c0,0-8.1-60.9,35.2-62.9c43.3-2,46.3,44.7,46.3,44.7l-7,29.2L107.3,127.1z"/>
	<path d="M107.3,127.1c0,0,2-11.5,12.6-10.1c10.5,1.5,13.6,15.6,20.6,10.1s14.6-9.1,14.6-9.1s12.1-7.6,27.2,11s0,30.2,0,30.2
		s-7.6,10.5-33.2,1.5c0,0-7-8.1-21.1-1.5c-14.1,6.6-23.2-5-23.2-5L107.3,127.1z"/>
	<path d="M160.6,123.6c0,0-20.6,5.5-15.6,22.7c5,17.1,32.7,10.5,32.7,10.5l3.1-20.6C180.8,136.2,177.3,125.6,160.6,123.6z"/>
	<path d="M107.3,127.1c0,0,9.1-9.1,21.1,3.5c12,12.6-5.5,24.1-5.5,24.1s-17.1,5-18.6-4.5C102.8,140.7,107.3,127.1,107.3,127.1z"/>
	<path d="M214.6,153.8c0,0,9.6-5.5,20.1-0.5l6.5-2l11,11c0,0-17.6,11-17.6,16.1S221,185,221,185s-13.6,0-14.6-15.1
		C205.5,154.8,214.6,153.8,214.6,153.8z"/>
	<path d="M55.5,155.3l3.5,0.5c0,0,8.6-6.5,20.6,0.5l8.1-1.5l4,12.6c0,0-6.5,3.5-7,7c-0.5,3.4-9.6,7-9.6,7s-9.1,3.1-19.1-6
		c-10.1-9.1-17.6-11.5-17.6-11.5L55.5,155.3z"/>
	<path d="M28.4,170.9c0,0,26.7,1.5,27.7-17.6c0,0,14.1-5,12.1-12.6s-8.1-2-8.1-2l-8.1,7c0,0-10.1-3.5-10.1-7.6
		c0-4-3.1-10.1-3.1-10.1s-7.6-7.6-8.1,2c-0.5,9.6,3.5,12.1,3.5,12.1s-3.1,4-5,1S18.8,135,18.8,135s-9.6-2-5,6.5l12.1,9.1
		c0,0,0,5-6,4c-6-1-10.1-2-10.1-2s-7.6,5.5,0,8.1c7.6,2.6,12.6,1,12.6,1s3.5,2.6,1,4s-11,3.1-11,3.1s-2.6,8.6,5,7
		C24.8,174.4,28.4,170.9,28.4,170.9z"/>
	<path d="M239.2,155.3c0,0-4-6-2-11.5c0,0-11.5-11-9.1-14.6c2.6-3.5,7-2.6,7-2.6s6,2.6,7,10.1c0,0,8.1-1.5,8.1-3.5
		c0,0,9.1-23.2,14.6-17.6c5.5,5.5-7.6,20.1-7.6,20.1l3.1,1.5c0,0,13.6-18.1,18.1-12.6c4.5,5.5-12.1,17.6-12.1,17.6l3.1,4.5
		c0,0,18.1-4.5,16.6,5c0,0-2,3.1-7.6,3.1c-5.5,0-8.6-0.5-8.6-0.5l-2,3.1c0,0,11.5,13.1,5,14.6c-6.5,1.5-11.5-9.1-11.5-9.1
		S247.2,166.8,239.2,155.3z"/>
	<path d="M149.6,44.9l-13.6-7c0,0-52.3,26.7-53.8,71.9c-1.5,45.2-7,41.8,14.1,65.9v-3.1c0,0,3.1,8.1,8.1,8.1l-3.5-10.5
		c0,0,10.5,14.1,13.1,13.1l-5.5-10.1c0,0,16.6,13.1,18.6,11c-12.3-20.5-16.8-38.6-18.6-50.1c-1.3-7.8-2.6-16.1-1-26.9
		c2.3-16.5,9.8-28.5,14-35.7c2.9-4.8,6.2-9,11.6-15.7c0,0,4,2.6,9.6,10.1c0,0,9.6-12.6,14.1-13.1c0,0,17.6,3.1,27.2,59.8
		c0,0-2,49.8-35.7,71.4c0,0,5.5,4.5,19.1-5.5l-4.5,6.5c0,0,19.6-5.5,26.1-17.1l-10.1,22.2c0,0,13.6-3.5,14.1-8.6l-3.5,10.5
		c0,0,9.6-7,10.5-10.1c1-3.1,1.5,4,1.5,4s25.1-39.2,11-87.5s-32.2-55.9-32.2-55.9S166.2,32.3,149.6,44.9z"/>
	<path d="M136.5,87.9h5.5c0,0,9.1,6,7.6,17.1c-1.5,11-8.6,12.1-8.6,12.1s-9.6,0-10.5-12.6S136.5,87.9,136.5,87.9z"/>
	<path d="M136.5,101c0,0-1-8.6,3.5-5.5c4.5,3.1,2,9.6,2,9.6S138.1,112,136.5,101z"/>
</g>
<g>
	<path class="st1" d="M184.2,46.2c0,0,67.4,77,19.1,139.8l1.5-6l-8.1,10.5l-5.5-10.1L184.2,46.2z"/>
	<path class="st2" d="M92.4,169.5c0,0-4.5,15.6-36.3,29.2c0,0-10.1,7.6,10.1,4c0,0-10.1,14.1-21.7,14.6s-22.7,12.1-22.7,12.1
		s-8.6,11.5,4,10.5c0,0,16.6-4.5,34.7,5.5c18.1,10.1,34.2,9.6,34.2,9.6s25.1-1,33.2-6s13.1-3.1,13.1-3.1s8.1-1,20.1,9.1
		c12.1,10.1,27.7-0.5,27.7-0.5s13.1-9.6,23.2-5s15.6-1,15.6-1s6-5,9.6-5c3.5,0,4.5-4,4.5-4s-3.5-5.5-14.1-9.1
		c-10.5-3.5-19.6-11.5-19.6-11.5l-1.5-4c0,0,18.6,5.5,16.1,1c0,0-26.1-27.7-28.7-40.2c-2.6-12.6-15.1-20.1-15.1-20.1l-15.1,3.1
		c0,0-14.6,0-26.1-5.5c-11.5-5.5-16.6,8.1-28.7,2C96.9,148.9,92.4,169.5,92.4,169.5z"/>
	<path class="st3" d="M136.8,59.3c0,0-8.1-13.1-9.6-10.1c0,0-15.6,11-15.1,21.1L136.8,59.3z"/>
	<path class="st3" d="M171.5,72.9c0,0-12.1-29.7-20.6-26.7c-8.6,3.1-14.1,13.1-14.1,13.1L171.5,72.9z"/>
	<path class="st4" d="M101.5,122.2c0,0-8.1-60.9,35.2-62.9c43.3-2,46.3,44.7,46.3,44.7l-7,29.2L101.5,122.2z"/>
	<path class="st5" d="M101.5,122.2c0,0,2-11.5,12.6-10.1c10.5,1.5,13.6,15.6,20.6,10.1c7-5.5,14.6-9.1,14.6-9.1s12.1-7.6,27.2,11
		c15.1,18.6,0,30.2,0,30.2s-7.6,10.5-33.2,1.5c0,0-7-8.1-21.1-1.5c-14.1,6.6-23.2-5-23.2-5L101.5,122.2z"/>
	<path class="st2" d="M154.8,118.6c0,0-20.6,5.5-15.6,22.7c5,17.1,32.7,10.5,32.7,10.5l3.1-20.6
		C174.9,131.3,171.5,120.7,154.8,118.6z"/>
	<path class="st2" d="M101.5,122.2c0,0,9.1-9.1,21.1,3.5c12,12.6-5.5,24.1-5.5,24.1s-17.1,5-18.6-4.5
		C97,135.8,101.5,122.2,101.5,122.2z"/>
	<path class="st6" d="M208.7,148.9c0,0,9.6-5.5,20.1-0.5l6.5-2l11,11c0,0-17.6,11-17.6,16.1s-13.6,6.5-13.6,6.5s-13.6,0-14.6-15.1
		C199.7,149.9,208.7,148.9,208.7,148.9z"/>
	<path class="st6" d="M49.7,150.4l3.5,0.5c0,0,8.6-6.5,20.6,0.5l8.1-1.5l4,12.6c0,0-6.5,3.5-7,7c-0.5,3.4-9.6,7-9.6,7
		s-9.1,3.1-19.1-6C40.2,161.4,32.6,159,32.6,159L49.7,150.4z"/>
	<path class="st4" d="M22.6,165.9c0,0,26.7,1.5,27.7-17.6c0,0,14.1-5,12.1-12.6c-2-7.6-8.1-2-8.1-2l-8.1,7c0,0-10.1-3.5-10.1-7.6
		c0-4-3.1-10.1-3.1-10.1s-7.6-7.6-8.1,2s3.5,12.1,3.5,12.1s-3.1,4-5,1S13,130.1,13,130.1s-9.6-2-5,6.5l12.1,9.1c0,0,0,5-6,4
		c-6-1-10.1-2-10.1-2s-7.6,5.5,0,8.1c7.6,2.6,12.6,1,12.6,1s3.5,2.6,1,4c-2.6,1.5-11,3.1-11,3.1s-2.6,8.6,5,7
		C19,169.5,22.6,165.9,22.6,165.9z"/>
	<path class="st4" d="M233.4,150.4c0,0-4-6-2-11.5c0,0-11.5-11-9.1-14.6c2.6-3.5,7-2.6,7-2.6s6,2.6,7,10.1c0,0,8.1-1.5,8.1-3.5
		c0,0,9.1-23.2,14.6-17.6c5.5,5.5-7.6,20.1-7.6,20.1l3.1,1.5c0,0,13.6-18.1,18.1-12.6c4.5,5.5-12.1,17.6-12.1,17.6l3.1,4.5
		c0,0,18.1-4.5,16.6,5c0,0-2,3.1-7.6,3.1c-5.5,0-8.6-0.5-8.6-0.5l-2,3.1c0,0,11.5,13.1,5,14.6c-6.5,1.5-11.5-9.1-11.5-9.1
		S241.4,161.9,233.4,150.4z"/>
	<path class="st7" d="M143.8,40l-13.6-7c0,0-52.3,26.7-53.8,71.9c-1.5,45.2-7,41.8,14.1,65.9v-3.1c0,0,3.1,8.1,8.1,8.1L95,165.4
		c0,0,10.5,14.1,13.1,13.1l-5.5-10.1c0,0,16.6,13.1,18.6,11c-12.3-20.5-16.8-38.6-18.6-50.1c-1.3-7.8-2.6-16.1-1-26.9
		c2.3-16.5,9.8-28.5,14-35.7c2.9-4.8,6.2-9,11.6-15.7c0,0,4,2.6,9.6,10.1c0,0,9.6-12.6,14.1-13.1c0,0,17.6,3.1,27.2,59.8
		c0,0-2,49.8-35.7,71.4c0,0,5.5,4.5,19.1-5.5l-4.5,6.5c0,0,19.6-5.5,26.1-17.1l-10.1,22.2c0,0,13.6-3.5,14.1-8.6l-3.5,10.5
		c0,0,9.6-7,10.5-10.1c1-3.1,1.5,4,1.5,4s25.1-39.2,11-87.5c-14.1-48.3-32.2-55.9-32.2-55.9S160.4,27.4,143.8,40z"/>
	<path class="st8" d="M130.7,83h5.5c0,0,9.1,6,7.6,17.1c-1.5,11-8.6,12.1-8.6,12.1s-9.6,0-10.5-12.6C123.7,87,130.7,83,130.7,83z"/>
	<path class="st9" d="M130.7,96.1c0,0-1-8.6,3.5-5.5c4.5,3.1,2,9.6,2,9.6S132.3,107.1,130.7,96.1z"/>
</g>
</svg>
