<?xml version="1.0" encoding="utf-8"?>
<!-- Generator: Adobe Illustrator 23.0.6, SVG Export Plug-In . SVG Version: 6.00 Build 0)  -->
<svg version="1.1" id="Layer_1" xmlns="http://www.w3.org/2000/svg" xmlns:xlink="http://www.w3.org/1999/xlink" x="0px" y="0px"
	 viewBox="0 0 288 288" style="enable-background:new 0 0 288 288;" xml:space="preserve">
<style type="text/css">
	.st0{opacity:0.5;}
	.st1{fill:#5B4946;}
	.st2{fill:#9F806D;}
	.st3{fill:#F5C885;}
	.st4{fill:#B69069;}
</style>
<g class="st0">
	<path d="M63.5,201.4c0,0,59.2,33.4,90,16.5c0,0-64.1-2.2-85.9-21.7L63.5,201.4z"/>
	<path d="M252.9,189.4c0,0,7.9-11.2,7.9-12c0-0.8,12.4,21,9,31.5c0,0-9.8-5.2-10.5-3.4L252.9,189.4z"/>
	<path d="M252.9,188.4l6.4,16.1c0,0-4.9,28.9-21.4,30s-21.4-0.8-21.4-0.8l16.9-32.2C233.4,201.6,249.4,193.7,252.9,188.4z"/>
	<path d="M41.8,172.9c0,0,31.5,49.9,111.7,45c0,0,88.9,1.5,107.2-40.5c0,0-10.5-36-49.1-34.5c-6.6-24.7-25-42-45.4-43.5
		c-12.8-1-23,4.5-28.1,7.9l-83.6,4.5c0,0-34.9-9-27,18.7C27.5,130.6,21.9,162.8,41.8,172.9z"/>
	<path d="M95.3,210.8c0,0-2.6,12,5.6,11.6c0,0,7.5-2.6,8.6-5.2c0,0,2.6-5.2,4.5-1.5c1.9,3.8,0,10.1,0,10.1s-3,14.6-13.5,14.6
		s-18.7-1.5-18.7-1.5s-13.9-4.5-13.9-16.9s5.2-20.6,5.2-20.6S93.4,210.8,95.3,210.8z"/>
	<path d="M27.5,130.6c0,0-11.2,9-1.5,24s15.8,18.3,15.8,18.3S27.2,148.6,27.5,130.6z"/>
	<path d="M241.2,83.3l17.2,43.1c0,0,25.9,23.2,27.7,40.1C286.2,166.6,278,104.3,241.2,83.3z"/>
	<path d="M41.8,172.9c0,0-35.2,25.9-8.2,55.5s49.1-4.5,49.1-4.5s8.6-7.9-4.9-6.7c-13.5,1.2-11.2,0.8-11.2,0.8s-9.7-12.7,1.1-21.7
		C67.7,196.2,44,178.9,41.8,172.9z"/>
	<path d="M229.9,183.1l-2.2-9c0,0-5.6-13.1-24.7-1.5s-9.4,25.5-9.4,25.5s1.9,14.2-3.4,20.2c-5.2,6-11.2,9-11.2,9s-13.5,0.4-15.4-1.9
		c0,0,3.4,24,34.5,18c0,0,10.1-0.8,18.4-8.6c8.3-7.8,15.4-19.9,15.7-23.6C232.6,207.4,233.4,193.9,229.9,183.1z"/>
	<path d="M32.8,180.8c0,0-7.5-9.4-9.4-9.7c-1.9-0.3-10.5-7.9-10.5-7.9s-13.5-7.1-0.4-45c0,0,11.6-30.7,30-41.2
		c0,0,43.5-36,88.5-34.9s60.7,9.4,60.7,9.4s41.6,16.1,49.5,31.9s17.2,43.1,17.2,43.1s25.1,21.7,27.7,40.1s-2.2,33-2.2,33
		s-4.5,18.7-14.2,9.4c0,0,3-10.5-9-31.5s-34.1-30.4-34.1-30.4s-12-5.2-15-4.1c0,0-5.2,0.4-13.1-15s-30-24-30-24s-13.1-6-34.1,10.9
		s-45.4,12.7-45.4,12.7s-24-4.5-34.5-15.7c0,0-18-4.9-27,18.7c0,0-16.1,12.4,14.2,42.4L32.8,180.8z"/>
</g>
<g>
	<path class="st1" d="M57.7,196.7c0,0,59.2,33.4,90,16.5c0,0-64.1-2.2-85.9-21.7L57.7,196.7z"/>
	<path class="st1" d="M247.1,184.7c0,0,7.9-11.2,7.9-12s12.4,21,9,31.5c0,0-9.8-5.2-10.5-3.4L247.1,184.7z"/>
	<path class="st2" d="M247.1,183.7l6.4,16.1c0,0-4.9,28.9-21.4,30s-21.4-0.8-21.4-0.8l16.9-32.2C227.6,196.9,243.7,189,247.1,183.7z
		"/>
	<path d="M36,168.2c0,0,31.5,49.9,111.7,45c0,0,88.9,1.5,107.2-40.5c0,0-10.5-36-49.1-34.5c-6.6-24.7-25-42-45.4-43.5
		c-12.8-1-23,4.5-28.1,7.9l-83.6,4.5c0,0-34.9-9-27,18.7C21.7,125.9,16.1,158.1,36,168.2z"/>
	<path class="st2" d="M89.6,206.1c0,0-2.6,12,5.6,11.6c0,0,7.5-2.6,8.6-5.2c0,0,2.6-5.2,4.5-1.5c1.9,3.8,0,10.1,0,10.1
		s-3,14.6-13.5,14.6s-18.7-1.5-18.7-1.5s-13.9-4.5-13.9-16.9s5.2-20.6,5.2-20.6S87.7,206.1,89.6,206.1z"/>
	<path class="st1" d="M21.7,125.9c0,0-11.2,9-1.5,24S36,168.2,36,168.2S21.4,143.9,21.7,125.9z"/>
	<path class="st1" d="M235.5,78.6l17.2,43.1c0,0,25.9,23.2,27.7,40.1C280.5,161.9,272.2,99.6,235.5,78.6z"/>
	<path class="st3" d="M36,168.2c0,0-35.2,25.9-8.2,55.5s49.1-4.5,49.1-4.5s8.6-7.9-4.9-6.7s-11.2,0.8-11.2,0.8s-9.7-12.7,1.1-21.7
		C61.9,191.5,38.2,174.2,36,168.2z"/>
	<path class="st3" d="M224.2,178.4l-2.2-9c0,0-5.6-13.1-24.7-1.5s-9.4,25.5-9.4,25.5s1.9,14.2-3.4,20.2c-5.2,6-11.2,9-11.2,9
		s-13.5,0.4-15.4-1.9c0,0,3.4,24,34.5,18c0,0,10.1-0.8,18.4-8.6s15.4-19.9,15.7-23.6C226.9,202.7,227.6,189.2,224.2,178.4z"/>
	<path class="st4" d="M27,176.1c0,0-7.5-9.4-9.4-9.7s-10.5-7.9-10.5-7.9s-13.5-7.1-0.4-45c0,0,11.6-30.7,30-41.2
		c0,0,43.5-36,88.5-34.9s60.7,9.4,60.7,9.4s41.6,16.1,49.5,31.9s17.2,43.1,17.2,43.1s25.1,21.7,27.7,40.1s-2.2,33-2.2,33
		s-4.5,18.7-14.2,9.4c0,0,3-10.5-9-31.5s-34.1-30.4-34.1-30.4s-12-5.2-15-4.1c0,0-5.2,0.4-13.1-15s-30-24-30-24s-13.1-6-34.1,10.9
		s-45.4,12.7-45.4,12.7s-24-4.5-34.5-15.7c0,0-18-4.9-27,18.7c0,0-16.1,12.4,14.2,42.4L27,176.1z"/>
</g>
</svg>
