<?xml version="1.0" encoding="utf-8"?>
<!-- Generator: Adobe Illustrator 23.0.6, SVG Export Plug-In . SVG Version: 6.00 Build 0)  -->
<svg version="1.1" id="Layer_1" xmlns="http://www.w3.org/2000/svg" xmlns:xlink="http://www.w3.org/1999/xlink" x="0px" y="0px"
	 viewBox="0 0 288 288" style="enable-background:new 0 0 288 288;" xml:space="preserve">
<style type="text/css">
	.st0{opacity:0.5;}
	.st1{fill:#594443;}
	.st2{fill:#9B97A4;}
	.st3{fill:#010101;}
	.st4{fill:#8E6F54;}
	.st5{fill:#C3BFBB;}
</style>
<g class="st0">
	<path d="M186.7,80.9c0,0,11.2,12.2,9.7,13.8c-1.5,1.5-19.4-5.6-19.4-5.6L186.7,80.9z"/>
	<path d="M206.8,121.3c0,0,16.8,18.4,16.3,20.9s-16.8-2.5-16.8-2.5s10.2,7.6,9.7,11.2s-6.6,0.5-6.6,0.5s8.7,8.7,8.2,10.7
		s-10.2-1-10.2-1s47.4,44.4,46.4,67.3c0,0-50-47.9-57.1-49c-7.1-1-21.9-9.7-21.9-9.7l-7.1-6.6l12.2-27c0,0-4.1-25.5-0.5-28
		C182.8,105.5,206.8,121.3,206.8,121.3z"/>
	<path d="M93.3,110.4c0,0-4.1,4.1-3.6,6.6s4.1,5.6,4.1,5.6s5.6,1.5,7.6-5.1C103.5,111,93.3,110.4,93.3,110.4z"/>
	<path d="M137.7,137.5c0,0-36.2,12.2-37.2,33.1c0,0-6.1,5.6-1.5,11.7c0,0-1,3.6,5.6,10.2s9.2,13.8,9.2,13.8s2.5,8.7,1,12.2s0,2,0,2
		s-18.9,5.6-21.9,5.1c-3.1-0.5-4.6,3.1-4.6,3.1l2.5,9.7l10.2,1c0,0,13.3-5.1,18.4-5.1s9.2-2.5,9.2-2.5l2-3.6c0,0-3.6-9.7-2-10.7
		c0,0,6.1-0.5,1-7.6c0,0-17.3-17.8-13.8-27.5c0,0,29.6-12.2,31.6-14.8c0,0,11.7,1,12.2-3.1s-2.5-12.7-2.5-12.7l-8.7-10.2
		L137.7,137.5z"/>
	<path d="M135.2,113l3.6,3.1c0,0,4.1-3.6,5.1-5.1C144.9,109.4,135.2,113,135.2,113z"/>
	<path d="M89.8,117.1l-31.6-13.3c0,0-1-6.6-5.1-5.6s-5.1,3.1-7.6,2.5c-2.5-0.5-3.6,4.6-3.6,4.6s-9.2,21.9-11.7,24.5
		c-2.5,2.5-4.6,31.6-4.6,31.6s0.5,26.5,14.3,37.7s21.4,15.8,21.4,15.8S34.8,168,46,150.6s14.3-22.4,14.3-22.4s-5.1-18.4-4.6-17.8
		c0.5,0.5,0.5,0.5,0.5,0.5s20.9,6.6,25,10.7s9.2,3.1,9.2,3.1s2.5,1,3.6-2S93.9,115,89.8,117.1z"/>
	<path d="M90.8,227.2c0,0-12.7-1.5-15.3,2s-4.6,9.2-4.6,9.2s9.7-6.1,17.8-3.1c0,0-8.2,2.5-6.6,14.8c0,0,15.3-10.2,18.9-10.7
		c0,0,0-6.6-4.1-7.6l-5.6,3.6L90.8,227.2z"/>
	<path d="M165.8,99.7l3.6-3.1c0,0-1,10.2,4.1,11.2s5.1,3.6,5.1,3.6l3.1,25.5l-5.1,4.1l-4.1-13.8l5.6-8.7l-13.8-5.1L165.8,99.7z"/>
	<path d="M118.8,114.1c0,0,3.1,13.8,15.3,14.3c0,0,5.6,13.3,14.8,14.8c0,0,11.7,13.8,10.7,20.4c-1,6.6,0.5,6.6,0.5,6.6
		s10.7-0.5,12.7-9.2l3.6-20.9c0,0-2-11.2-4.1-13.8c0,0,6.6-5.6,5.6-8.7c0,0-6.1-1-9.7-6.6s-2.5-12.2-2.5-12.2L143.8,110l-5.1,5.1
		l-3.6-3.1L118.8,114.1z"/>
	<path d="M148.9,144.1c0,0-10.7,13.3-4.1,17.3s14.8,3.1,14.8,3.1S156.1,145.1,148.9,144.1z"/>
	<path d="M177,91.6c0,0,5.1-0.5,7.6,5.1s8.2,10.2,8.2,10.2s12.7,3.6,13.8,7.1c1,3.6,2,8.2,2,8.2s-7.6,6.6-15.8,0
		c0,0-7.1-9.7-14.3-10.7s-9.2-7.1-9.2-7.1v-7.6c0,0-15.8,20.4-58.1,16.8c0,0-10.7,10.2-19.9-3.1c0,0-22.4-24.5-15.3-47.9
		s33.7-49,33.7-49s-3.1,19.4-0.5,20.9c0,0,20.9,9.7,44.4,8.2c0,0,8.7-2.5,13.3,1.5c4.6,4.1,7.6,4.6,7.6,4.6s5.6-5.1,16.3-5.1
		s25-4.6,25-4.6s-1.5,2-2,6.1S177,91.6,177,91.6z"/>
	<path d="M181.6,137c0,0,3.1-7.1,14.8,4.1c11.7,11.2,5.1,50,5.1,50l3.1,8.2c0,0,5.6,6.6,9.7,8.2c4.1,1.5,11.7,11.7,11.7,11.7
		s5.6,12.2,1,25c0,0,0.5,4.6,3.6,8.7s3.6,14.8,3.6,14.8s-23.5,6.1-24.5,1.5s-3.1-7.6-3.1-7.6s0.5-5.6,5.1-8.7
		c4.6-3.1,3.6-8.2,3.6-8.2l-2-1.5c0,0,2-13.8-6.6-24c-8.7-10.2-18.4-18.4-18.4-18.4l-1.5-4.1c0,0-12.2-5.6-11.2-11.2s0-19.9,0-19.9
		s-6.6-12.7-4.6-17.3C172.9,143.6,181.6,137,181.6,137z"/>
	<path d="M211.1,257.3c0,0-15.8,9.7-14.8,16.3c1,6.6,1,6.6,1,6.6s10.2-11.2,16.8-11.2C214.2,269,215.2,262.4,211.1,257.3z"/>
	<path d="M229,258.3c1.5,2,14.8,9.7,7.6,24c0,0-8.2-10.7-11.2-13.3C222.4,266.5,229,258.3,229,258.3z"/>
	<path d="M206.6,114c0,0,25-8.2,27-21.9s10.7-8.2,10.7-8.2s3.1,8.2,5.1,13.8c2,5.6,12.2,29.6,12.2,29.6s9.7,26-11.2,64.3
		s-34.7,38.2-34.7,38.2s30.1-39.3,26-67.3s-8.7-40.3-8.7-40.3s3.1-12.7,0.5-15.3c0,0-4.1,5.1-3.6,8.7c0,0-4.1,2.5-7.1,3.1
		c-3.1,0.5-14.3,3.6-14.3,3.6S199.9,123.7,206.6,114z"/>
</g>
<g>
	<path class="st1" d="M181.6,75.7c0,0,11.2,12.2,9.7,13.8c-1.5,1.5-19.4-5.6-19.4-5.6L181.6,75.7z"/>
	<path class="st1" d="M201.7,116.1c0,0,16.8,18.4,16.3,20.9s-16.8-2.5-16.8-2.5s10.2,7.6,9.7,11.2s-6.6,0.5-6.6,0.5
		s8.7,8.7,8.2,10.7s-10.2-1-10.2-1s47.4,44.4,46.4,67.3c0,0-50-47.9-57.1-49c-7.1-1-21.9-9.7-21.9-9.7l-7.1-6.6l12.2-27
		c0,0-4.1-25.5-0.5-28C177.7,100.3,201.7,116.1,201.7,116.1z"/>
	<path class="st1" d="M88.2,105.2c0,0-4.1,4.1-3.6,6.6s4.1,5.6,4.1,5.6s5.6,1.5,7.6-5.1C98.4,105.8,88.2,105.2,88.2,105.2z"/>
	<path class="st1" d="M132.6,132.3c0,0-36.2,12.2-37.2,33.1c0,0-6.1,5.6-1.5,11.7c0,0-1,3.6,5.6,10.2s9.2,13.8,9.2,13.8
		s2.5,8.7,1,12.2s0,2,0,2s-18.9,5.6-21.9,5.1c-3.1-0.5-4.6,3.1-4.6,3.1l2.5,9.7l10.2,1c0,0,13.3-5.1,18.4-5.1s9.2-2.5,9.2-2.5l2-3.6
		c0,0-3.6-9.7-2-10.7c0,0,6.1-0.5,1-7.6c0,0-17.3-17.8-13.8-27.5c0,0,29.6-12.2,31.6-14.8c0,0,11.7,1,12.2-3.1s-2.5-12.7-2.5-12.7
		l-8.7-10.2L132.6,132.3z"/>
	<path class="st1" d="M130.1,107.8l3.6,3.1c0,0,4.1-3.6,5.1-5.1C139.8,104.2,130.1,107.8,130.1,107.8z"/>
	<path class="st2" d="M84.7,111.9L53.1,98.6c0,0-1-6.6-5.1-5.6s-5.1,3.1-7.6,2.5c-2.5-0.5-3.6,4.6-3.6,4.6s-9.2,21.9-11.7,24.5
		c-2.5,2.5-4.6,31.6-4.6,31.6s0.5,26.5,14.3,37.7s21.4,15.8,21.4,15.8s-26.5-46.9-15.3-64.3S55.2,123,55.2,123s-5.1-18.4-4.6-17.8
		c0.5,0.5,0.5,0.5,0.5,0.5s20.9,6.6,25,10.7s9.2,3.1,9.2,3.1s2.5,1,3.6-2S88.8,109.8,84.7,111.9z"/>
	<path class="st2" d="M85.7,222c0,0-12.7-1.5-15.3,2s-4.6,9.2-4.6,9.2s9.7-6.1,17.8-3.1c0,0-8.2,2.5-6.6,14.8
		c0,0,15.3-10.2,18.9-10.7c0,0,0-6.6-4.1-7.6l-5.6,3.6L85.7,222z"/>
	<path class="st3" d="M160.7,94.5l3.6-3.1c0,0-1,10.2,4.1,11.2s5.1,3.6,5.1,3.6l3.1,25.5l-5.1,4.1l-4.1-13.8l5.6-8.7l-13.8-5.1
		L160.7,94.5z"/>
	<path class="st2" d="M113.7,108.9c0,0,3.1,13.8,15.3,14.3c0,0,5.6,13.3,14.8,14.8c0,0,11.7,13.8,10.7,20.4c-1,6.6,0.5,6.6,0.5,6.6
		s10.7-0.5,12.7-9.2l3.6-20.9c0,0-2-11.2-4.1-13.8c0,0,6.6-5.6,5.6-8.7c0,0-6.1-1-9.7-6.6s-2.5-12.2-2.5-12.2l-21.9,11.2l-5.1,5.1
		l-3.6-3.1L113.7,108.9z"/>
	<path class="st3" d="M143.8,138.9c0,0-10.7,13.3-4.1,17.3s14.8,3.1,14.8,3.1S151,139.9,143.8,138.9z"/>
	<path class="st4" d="M171.9,86.4c0,0,5.1-0.5,7.6,5.1s8.2,10.2,8.2,10.2s12.7,3.6,13.8,7.1c1,3.6,2,8.2,2,8.2s-7.6,6.6-15.8,0
		c0,0-7.1-9.7-14.3-10.7s-9.2-7.1-9.2-7.1v-7.6c0,0-15.8,20.4-58.1,16.8c0,0-10.7,10.2-19.9-3.1c0,0-22.4-24.5-15.3-47.9
		s33.7-49,33.7-49s-3.1,19.4-0.5,20.9c0,0,20.9,9.7,44.4,8.2c0,0,8.7-2.5,13.3,1.5c4.6,4.1,7.6,4.6,7.6,4.6s5.6-5.1,16.3-5.1
		s25-4.6,25-4.6s-1.5,2-2,6.1S171.9,86.4,171.9,86.4z"/>
	<path class="st4" d="M176.5,131.8c0,0,3.1-7.1,14.8,4.1c11.7,11.2,5.1,50,5.1,50l3.1,8.2c0,0,5.6,6.6,9.7,8.2
		c4.1,1.5,11.7,11.7,11.7,11.7s5.6,12.2,1,25c0,0,0.5,4.6,3.6,8.7c3.1,4.1,3.6,14.8,3.6,14.8s-23.5,6.1-24.5,1.5s-3.1-7.6-3.1-7.6
		s0.5-5.6,5.1-8.7c4.6-3.1,3.6-8.2,3.6-8.2l-2-1.5c0,0,2-13.8-6.6-24c-8.7-10.2-18.4-18.4-18.4-18.4l-1.5-4.1
		c0,0-12.2-5.6-11.2-11.2s0-19.9,0-19.9s-6.6-12.7-4.6-17.3C167.8,138.4,176.5,131.8,176.5,131.8z"/>
	<path class="st5" d="M206,252.1c0,0-15.8,9.7-14.8,16.3c1,6.6,1,6.6,1,6.6s10.2-11.2,16.8-11.2C209.1,263.8,210.1,257.2,206,252.1z
		"/>
	<path class="st5" d="M223.9,253.1c1.5,2,14.8,9.7,7.6,24c0,0-8.2-10.7-11.2-13.3C217.3,261.3,223.9,253.1,223.9,253.1z"/>
	<path class="st5" d="M201.5,108.8c0,0,25-8.2,27-21.9s10.7-8.2,10.7-8.2s3.1,8.2,5.1,13.8c2,5.6,12.2,29.6,12.2,29.6
		s9.7,26-11.2,64.3s-34.7,38.2-34.7,38.2s30.1-39.3,26-67.3s-8.7-40.3-8.7-40.3s3.1-12.7,0.5-15.3c0,0-4.1,5.1-3.6,8.7
		c0,0-4.1,2.5-7.1,3.1c-3.1,0.5-14.3,3.6-14.3,3.6S194.8,118.5,201.5,108.8z"/>
</g>
</svg>
