<?xml version="1.0" encoding="utf-8"?>
<!-- Generator: Adobe Illustrator 23.0.6, SVG Export Plug-In . SVG Version: 6.00 Build 0)  -->
<svg version="1.1" id="Layer_1" xmlns="http://www.w3.org/2000/svg" xmlns:xlink="http://www.w3.org/1999/xlink" x="0px" y="0px"
	 viewBox="0 0 288 288" style="enable-background:new 0 0 288 288;" xml:space="preserve">
<style type="text/css">
	.st0{opacity:0.5;}
	.st1{fill:#EDD688;}
	.st2{fill:#A08550;}
	.st3{fill:#836942;}
</style>
<g class="st0">
	<path d="M198.3,25.5c0,0-37.5-31.4-77.4-10.8S74.9,72,74.9,72s-1.4,9.4,2.8,13.6L96,106.2l-8.4,19.2l4.2,6.6l-8.9,23.9
		c0,0,6.6,15,8.4,13.6c0,0,0,30.5,3.3,37.1c0,0,4.7,16.4,9.9,17.4c0,0,11.7,57.3,29.6,60.1s0-1.9,0-1.9l-11.7-85.4l-0.5-86.8
		l20.2-80.7L198.3,25.5z"/>
	<path d="M108.2,106.2c0,0-1.4,24.9,8.4,34.3c0,0-6.1,74.6,5.2,82.1c0,0-1.4,61,16,61.5s32.4-30.5,32.4-30.5s34.3-22.5,42.2-100
		l7-6.1l-3.3-8l8-11.7c0,0-11.7-28.2-17.4-31c0,0,17.8-22.1,15.5-27.7C222.3,69.2,188,113.8,108.2,106.2z"/>
	<path d="M129.3,127.8l30.5,11.3c0,0,59.6-2.8,61.5-15l2.8,3.8l-8,11.7l-55.4,3.8L129.3,127.8z"/>
	<path d="M94.6,206.7c0,0,9.4,15,11.7,12.2l0.5,10.3C106.8,229.2,97.4,224,94.6,206.7z"/>
	<path d="M87.6,125.5c0,0,6.1,11.3,17.4,3.3l3.8,4.2l-12.7,5.2C96,138.2,85.7,128.8,87.6,125.5z"/>
	<path d="M77.7,85.6c0,0,20.2,18.3,23,15c0,0-4.2-65.7,30-77.4s60.1-1.9,60.1-1.9s24.4,8.9,31.4,47.9c0,0-33.8,49.7-114,37.1
		l-3.8-1.9l-8.4,1.9C96,106.2,78.2,88.9,77.7,85.6z"/>
</g>
<g>
	<path class="st1" d="M192.5,20.1c0,0-37.5-31.4-77.4-10.8s-46,57.3-46,57.3s-1.4,9.4,2.8,13.6l18.3,20.6L81.8,120l4.2,6.6
		l-8.9,23.9c0,0,6.6,15,8.4,13.6c0,0,0,30.5,3.3,37.1c0,0,4.7,16.4,9.9,17.4c0,0,11.7,57.3,29.6,60.1s0-1.9,0-1.9l-11.7-85.4
		l-0.5-86.8l20.2-80.7L192.5,20.1z"/>
	<path class="st2" d="M102.4,100.8c0,0-1.4,24.9,8.4,34.3c0,0-6.1,74.6,5.2,82.1c0,0-1.4,61,16,61.5s32.4-30.5,32.4-30.5
		s34.3-22.5,42.2-100l7-6.1l-3.3-8l8-11.7c0,0-11.7-28.2-17.4-31c0,0,17.8-22.1,15.5-27.7C216.5,63.8,182.2,108.4,102.4,100.8z"/>
	<path class="st3" d="M123.5,122.4l30.5,11.3c0,0,59.6-2.8,61.5-15l2.8,3.8l-8,11.7l-55.4,3.8L123.5,122.4z"/>
	<path class="st2" d="M88.8,201.3c0,0,9.4,15,11.7,12.2l0.5,10.3C101,223.8,91.6,218.6,88.8,201.3z"/>
	<path class="st2" d="M81.8,120.1c0,0,6.1,11.3,17.4,3.3l3.8,4.2l-12.7,5.2C90.2,132.8,79.9,123.4,81.8,120.1z"/>
	<path class="st2" d="M71.9,80.2c0,0,20.2,18.3,23,15c0,0-4.2-65.7,30-77.4s60.1-1.9,60.1-1.9s24.4,8.9,31.4,47.9
		c0,0-33.8,49.7-114,37.1L98.6,99l-8.4,1.9C90.2,100.8,72.4,83.5,71.9,80.2z"/>
</g>
</svg>
