<?xml version="1.0" encoding="utf-8"?>
<!-- Generator: Adobe Illustrator 23.0.6, SVG Export Plug-In . SVG Version: 6.00 Build 0)  -->
<svg version="1.1" id="Layer_1" xmlns="http://www.w3.org/2000/svg" xmlns:xlink="http://www.w3.org/1999/xlink" x="0px" y="0px"
	 viewBox="0 0 288 288" style="enable-background:new 0 0 288 288;" xml:space="preserve">
<style type="text/css">
	.st0{opacity:0.5;}
	.st1{fill:#7A6B74;}
	.st2{fill:#D0BC99;}
	.st3{fill:#9D8A83;}
	.st4{fill:#B2AFB9;}
	.st5{fill:#F5F4F3;}
	.st6{fill:#F4E8D0;}
	.st7{fill:#AB8590;}
	.st8{fill:#E1C7D1;}
	.st9{fill:#616160;}
	.st10{fill:#BEBDD9;}
	.st11{fill:#E1D5B5;}
	.st12{fill:#C095A0;}
	.st13{fill:#C2AF8E;}
	.st14{fill:#656464;}
</style>
<g class="st0">
	<path d="M72.8,215.2l-9.1,6.5l-1.5,9.1l-11,7.6c0,0-9.6-1.5-11.6,6.5l-13.1,6c0,0-6.5,16.6,55.4,15.6s91.6-36.7,91.6-36.7
		L72.8,215.2z"/>
	<path d="M208.2,36.7c0,0,13.6,10.1,12.6,14.1s-8.6,9.6-8.6,9.6l13.1,14.1l1,3.5l-11.6,1.5c0,0-5-38.2-8.6-41.8
		C202.6,34.2,208.2,36.7,208.2,36.7z"/>
	<polygon points="219.2,125.2 220.3,144.9 225.3,133.2 220.3,122.7 	"/>
	<path d="M221.8,156.4l5.5,6c0,0,3,13.6,1,19.1l-4.5,9.6C223.8,191.1,220.8,159.4,221.8,156.4z"/>
	<path d="M139.2,15.4c0,0-8.1-2-9.1,0s0,6.5,0,6.5L139.2,15.4z"/>
	<path d="M38.1,167.4l2.5-1.5v-3.5l18.1-11.6c0,0,8.1,0.5,11.1,4.5c0,0,16.1-4,21.1,0c0,0,7,63.9,16.6,72.5c0,0-17.1-18.6-48.3-13.1
		c0,0-17.1,11.6-30.7-5s-10.1-24.2-10.1-24.2L38.1,167.4z"/>
	<path d="M41.6,170.4c0,0,33.7,4.5,13.1,38.8c0,0-12.6,25.2-36.2-23.7C18.5,185.6,26,164.4,41.6,170.4z"/>
	<path d="M100.8,96.9c0.2,1.4,0.7,6.7-2.7,11.8c-4.2,6.3-11.1,7.3-12.2,7.4l-18.6-9.6c0,0,3.5,9.1,7.5,10.1c0,0,5.5,0.5,7.5,0.5
		l6,1.5l27.2-1.5c1-2.1,2.7-4.9,5.3-7.7c3.5-3.8,7.3-5.9,9.7-7.1c-3.2-2.3-6.4-4.5-9.5-6.8c2.2,0.8,4.7,0,5.9-1.9
		c1.1-1.7,1-4-0.3-5.6l-3.5-4l-8.1,3l-2.5-2C108.6,88.9,104.7,92.9,100.8,96.9z"/>
	<path d="M229.4,261c0,0,7,5.5,6,8.6c-1,3-13.1,5.5-13.1,5.5S229.9,264.6,229.4,261z"/>
	<path d="M129.7,24.1c0,0-15.6,7-8.1,15.1c0,0,2.5,7.5,12.1,4c9.6-3.5,9.6-3.5,9.6-3.5s11.1-2,32.2,9.1c0,0,6.5,3,8.1,3
		c0,0-6,26.7-50.3,21.6l1.5-3c0,0-4.5,1-4.5,3s2,4.5,2,4.5s-15.1,0-16.6,2l4.5-9.6l-6.5-24.2c0,0-10.6-4.5-19.6,2.5
		c0,0-12.6,0.5-16.6,14.6c0,0-15.1,33.2-13.1,38.8c2,5.5,2,5.5,2,5.5l16.1,9.6c3.3-0.2,7-1,10.7-2.8c15.8-7.5,19.1-26.8,19.5-29.5
		l2.5,2l8.1-3l3.5,4l-5.5,7.5l7,6.5c0,0-11.1,10.1-12.6,15.1s-3.5,6-3.5,6s29.2-28.7,55.9-20.1c0,0,36.2,5.5,33.2,73.5l4.5,6
		c0,0-7,34.7-37.7,46.8l-3,12.6c0,0-2.5,10.6,10.6,18.6l2.5,1l9.6,11.6c0,0,12.6,6,20.1,5.5s13.6-3,13.6-3l9.1-9.1v-5.5
		c0,0,3-7.5,3-9.6c0,0,7.5-7.5,7.5-18.1s-2.5-15.6-2.5-15.6l-5-4c0,0-5.5-17.1-9.6-22.6l-4.5-65.9c0,0,18.6,1.5,29.2,9.6
		c0,0,1.5,5.5,10.1,5s9.1-2,9.1-2l3-5.5c0,0,11.6-4,7.5-31.2c-4-27.2-2-31.2-2-31.2s1.5-8.6-7-11.1l-7-2.5c0,0-12.1-8.6-16.6-7.5
		l-15.1,17.1l-4,12.1l-11.6,1.5c0,0-2.5-32.7-8.6-41.8l-28.2-20.1L129.7,24.1z"/>
	<path d="M18.5,191.9c0,0-9.1-7.5-7.5-10.6c1.5-3,11.6-1.5,11.6-1.5s-3.5-26.2,0-26.2s21,17.1,21,17.1s-11.6,14.1-18.1,9.6
		C25.5,180.4,23,191.4,18.5,191.9z"/>
	<path d="M45.6,173.4c0.7-2,2.7-6.2,7.2-9.1c1.6-1,3.1-1.6,4.4-2c0.7,1.5,1.5,3.4,2,5.7c1.1,5.2,0.2,9.5-0.5,12
		C58.7,179.9,45.6,176.4,45.6,173.4z"/>
	<path d="M179.5,264c0,0-6.5,9.6-6,11.6s14.1-2.5,14.1-2.5S184.5,265.6,179.5,264z"/>
	<path d="M191.6,275.5c0,0,10.1-10.6,20.1-7c10.1,3.5,11.6,7.5,11.6,7.5s-5.5,8.1-11.6,7.5C205.7,283.1,191.6,275.5,191.6,275.5z"/>
	<path d="M84.9,61.8c0,0,5-13.6,10.1-8.6c5,5,7,11.1,7,11.1s1.5,7.5-1.5,9.1C100.5,73.3,83.4,63.9,84.9,61.8z"/>
	<path d="M105.5,53.3c0,0,3-10.6,8.1-7c5,3.5,7.5,6.5,7.5,6.5s3.5,5,1,8.1c0,0,7.5,8.1-0.5,12.6l-9.1,0.5l1.5-5l-2-0.5
		C112.1,68.3,102.5,58.8,105.5,53.3z"/>
	<path d="M269.6,64.8c0,0,0-11.6-10.1-7.5c-10.1,4-4.5,20.6-4.5,20.6S271.1,69.3,269.6,64.8z"/>
	<path d="M253,57.8c-0.1-1.6-2.5-10.6-10.1-8.6c-7.5,2-9.1,16.1-9.1,16.1s-7.5-2-8.1,1.5c-0.6,3.5,0.5,11.1,0.5,11.1
		s8.6,6.5,10.6,2.5s-0.5-5.5-0.5-5.5l2.5,1.5C238.9,76.3,253.5,63.9,253,57.8z"/>
	<path d="M179.5,31.1c0,0,2-17.1,18.1-18.1s28.7,0,28.7,0s2,4-2.5,10.1s-21.6,16.6-21.6,16.6l-6,2C196.1,41.7,187,29.6,179.5,31.1z"
		/>
	<path d="M182.5,30.1c0,0,20.6-20.1,40.8-14.1c0,0-11.6,20.1-25.2,23.1C198.1,39.2,194.6,28.1,182.5,30.1z"/>
	<path d="M133.7,43.2c1.2,2.7,2.6,6.6,3,11.5c0.8,8.7-1.8,15.5-3.4,18.8c14.9-3.9,29.8-7.8,44.6-11.7c0,0,5.5-5.5,5.5-10.1
		c0,0-27.2-14.1-40.3-12.1L133.7,43.2z"/>
	<path d="M133.2,73.3c0,0,9.1-16.6,24.2-15.6c15.1,1,20.6,4,20.6,4S173.5,76.3,133.2,73.3z"/>
	<path d="M170.9,45.9c0,0-0.5,8.6,2.5,8.1s2-6,2-6L170.9,45.9z"/>
	<path d="M135,42.6c0.6,7,1.4,8.5,2,8.6c0.7,0.1,1.8-1.4,3.7-9.8C138.8,41.7,136.9,42.1,135,42.6z"/>
	<path d="M189.1,15c0,0-28.2-22.1-63.4,11.1c0,0,17.6-5.5,21.1,3.5c0,0,22.6-9.6,34.2-6L189.1,15z"/>
	<path d="M97.5,150.9c0,0,11.6-48.8,59.9-50.3s43.8,76,43.8,76l4.5,6c0,0-8.2,34.8-31.6,44.8c-1.9,0.8-4,1.5-6.1,2l5.5,0.5
		l-8.6,12.1c0,0-33.2,19.1-57.4-14.1c0,0-8.6-11.7-8.6-16.6c0-2.5-21.1-19.1-8.1-55.9C90.9,155.4,94.4,149.9,97.5,150.9z"/>
	<path d="M130.7,122.7c0,0-4.5,13.1,5,19.6l-0.5,2.5c0,0-22.1-1-24.7,3.5l1,2.5l17.1,1l31.2,6.5c0,0,9.6-2-2-11.6l-3-2
		c0,0,6.5-5.5,4.5-16.6C157.3,117.2,130.2,117.7,130.7,122.7z"/>
	<path d="M128.7,151.9c0,0,7.5-10.1,11.1-7.5c3.5,2.5,6.5,11.1,6.5,11.1L128.7,151.9z"/>
	<path d="M157.9,146.9c0,0-15.6,1-15.6,8.1l17.6,3.5L157.9,146.9z"/>
	<path d="M135.7,130.2c0,0-0.5,9.6,1.5,7.5C139.2,135.8,137.7,130.2,135.7,130.2z"/>
	<path d="M155.3,124.2c0,0,8.6-1.5,9.6,2c1,3.5-6.5,10.6-6.5,10.6S159.4,125.8,155.3,124.2z"/>
	<path d="M157,123.9c-1.2-1.6-3.4-4-6.6-5.7c-1.2-0.7-9.4-5-15.5-0.9c-2.2,1.5-3.5,3.7-4.2,5.4c1.1-0.3,2.5-0.6,4.2-0.6
		c3.2,0,5.6,0.9,7,1.6c2.8-0.7,4.9-0.6,6.5-0.3c2.1,0.4,4.1,1.2,7.1,0.8C156.1,124.2,156.6,124.1,157,123.9z"/>
	<path d="M110.5,148.4c0,0-3,4-1,4.5l2.9-2.7L110.5,148.4z"/>
	<path d="M116.1,149.2c0,0-3.2,0.6-1.5,3.7l3.4-2.1C117.9,150.8,117.2,148.9,116.1,149.2z"/>
	<path d="M145.3,151.6c0,0-3.1,2.3-1.8,4.9l2.9-1.7C146.3,154.9,146.7,151.4,145.3,151.6z"/>
	<path d="M152.6,153.9c0,0-3.6,1.2-2.9,4.2l4.1-1.3C153.8,156.6,154.1,153.8,152.6,153.9z"/>
</g>
<g>
	<path class="st1" d="M67.6,210.5l-9.1,6.5l-1.5,9.1l-11,7.6c0,0-9.6-1.5-11.6,6.5l-13.1,6c0,0-6.5,16.6,55.4,15.6
		s91.6-36.7,91.6-36.7L67.6,210.5z"/>
	<path class="st1" d="M203,31.9c0,0,13.6,10.1,12.6,14.1s-8.6,9.6-8.6,9.6l13.1,14.1l1,3.5l-11.6,1.5c0,0-5-38.2-8.6-41.8
		C197.4,29.4,203,31.9,203,31.9z"/>
	<polygon class="st1" points="214,120.5 215.1,140.1 220.1,128.5 215.1,117.9 	"/>
	<path class="st1" d="M216.6,151.7l5.5,6c0,0,3,13.6,1,19.1l-4.5,9.6C218.6,186.4,215.6,154.7,216.6,151.7z"/>
	<path class="st2" d="M134,10.6c0,0-8.1-2-9.1,0s0,6.5,0,6.5L134,10.6z"/>
	<path class="st3" d="M32.9,162.7l2.5-1.5v-3.5l18.1-11.6c0,0,8.1,0.5,11.1,4.5c0,0,16.1-4,21.1,0c0,0,7,63.9,16.6,72.5
		c0,0-17.1-18.6-48.3-13.1c0,0-17.1,11.6-30.7-5s-10.1-24.2-10.1-24.2L32.9,162.7z"/>
	<path class="st1" d="M36.4,165.7c0,0,33.7,4.5,13.1,38.8c0,0-12.6,25.2-36.2-23.7C13.3,180.8,20.8,159.7,36.4,165.7z"/>
	<path class="st1" d="M95.6,92.2c0.2,1.4,0.7,6.7-2.7,11.8c-4.2,6.3-11.1,7.3-12.2,7.4l-18.6-9.6c0,0,3.5,9.1,7.5,10.1
		c0,0,5.5,0.5,7.5,0.5l6,1.5l27.2-1.5c1-2.1,2.7-4.9,5.3-7.7c3.5-3.8,7.3-5.9,9.7-7.1c-3.2-2.3-6.4-4.5-9.5-6.8
		c2.2,0.8,4.7,0,5.9-1.9c1.1-1.7,1-4-0.3-5.6l-3.5-4l-8.1,3l-2.5-2C103.4,84.2,99.5,88.2,95.6,92.2z"/>
	<path class="st4" d="M224.2,256.3c0,0,7,5.5,6,8.6c-1,3-13.1,5.5-13.1,5.5S224.7,259.9,224.2,256.3z"/>
	<path class="st3" d="M124.5,19.3c0,0-15.6,7-8.1,15.1c0,0,2.5,7.5,12.1,4s9.6-3.5,9.6-3.5s11.1-2,32.2,9.1c0,0,6.5,3,8.1,3
		c0,0-6,26.7-50.3,21.6l1.5-3c0,0-4.5,1-4.5,3s2,4.5,2,4.5s-15.1,0-16.6,2l4.5-9.6l-6.5-24.2c0,0-10.6-4.5-19.6,2.5
		c0,0-12.6,0.5-16.6,14.6c0,0-15.1,33.2-13.1,38.8c2,5.5,2,5.5,2,5.5l16.1,9.6c3.3-0.2,7-1,10.7-2.8c15.8-7.5,19.1-26.8,19.5-29.5
		l2.5,2l8.1-3l3.5,4l-5.5,7.5l7,6.5c0,0-11.1,10.1-12.6,15.1s-3.5,6-3.5,6s29.2-28.7,55.9-20.1c0,0,36.2,5.5,33.2,73.5l4.5,6
		c0,0-7,34.7-37.7,46.8l-3,12.6c0,0-2.5,10.6,10.6,18.6l2.5,1l9.6,11.6c0,0,12.6,6,20.1,5.5s13.6-3,13.6-3l9.1-9.1V256
		c0,0,3-7.5,3-9.6c0,0,7.5-7.5,7.5-18.1s-2.5-15.6-2.5-15.6l-5-4c0,0-5.5-17.1-9.6-22.6l-4.5-65.9c0,0,18.6,1.5,29.2,9.6
		c0,0,1.5,5.5,10.1,5s9.1-2,9.1-2l3-5.5c0,0,11.6-4,7.5-31.2c-4-27.2-2-31.2-2-31.2s1.5-8.6-7-11.1l-7-2.5c0,0-12.1-8.6-16.6-7.5
		l-15.1,17.1l-4,12.1l-11.6,1.5c0,0-2.5-32.7-8.6-41.8l-28.2-20.1L124.5,19.3z"/>
	<path class="st4" d="M13.3,187.2c0,0-9.1-7.5-7.5-10.6c1.5-3,11.6-1.5,11.6-1.5s-3.5-26.2,0-26.2s21,17.1,21,17.1
		s-11.6,14.1-18.1,9.6C20.3,175.6,17.8,186.7,13.3,187.2z"/>
	<path class="st4" d="M40.4,168.7c0.7-2,2.7-6.2,7.2-9.1c1.6-1,3.1-1.6,4.4-2c0.7,1.5,1.5,3.4,2,5.7c1.1,5.2,0.2,9.5-0.5,12
		C53.5,175.2,40.4,171.7,40.4,168.7z"/>
	<path class="st5" d="M174.3,259.3c0,0-6.5,9.6-6,11.6s14.1-2.5,14.1-2.5S179.3,260.9,174.3,259.3z"/>
	<path class="st5" d="M186.4,270.8c0,0,10.1-10.6,20.1-7c10.1,3.5,11.6,7.5,11.6,7.5s-5.5,8.1-11.6,7.5
		C200.5,278.4,186.4,270.8,186.4,270.8z"/>
	<path class="st5" d="M79.7,57c0,0,5-13.6,10.1-8.6c5,5,7,11.1,7,11.1s1.5,7.5-1.5,9.1C95.3,68.6,78.2,59.1,79.7,57z"/>
	<path class="st5" d="M100.3,48.5c0,0,3-10.6,8.1-7c5,3.5,7.5,6.5,7.5,6.5s3.5,5,1,8.1c0,0,7.5,8.1-0.5,12.6l-9.1,0.5l1.5-5l-2-0.5
		C106.9,63.6,97.3,54,100.3,48.5z"/>
	<path class="st5" d="M264.4,60.1c0,0,0-11.6-10.1-7.5c-10.1,4-4.5,20.6-4.5,20.6S265.9,64.6,264.4,60.1z"/>
	<path class="st5" d="M247.8,53c-0.1-1.6-2.5-10.6-10.1-8.6c-7.5,2-9.1,16.1-9.1,16.1s-7.5-2-8.1,1.5s0.5,11.1,0.5,11.1
		s8.6,6.5,10.6,2.5s-0.5-5.5-0.5-5.5l2.5,1.5C233.7,71.6,248.3,59.1,247.8,53z"/>
	<path class="st6" d="M174.3,26.3c0,0,2-17.1,18.1-18.1s28.7,0,28.7,0s2,4-2.5,10.1S197,34.9,197,34.9l-6,2
		C190.9,36.9,181.8,24.8,174.3,26.3z"/>
	<path class="st2" d="M177.3,25.3c0,0,20.6-20.1,40.8-14.1c0,0-11.6,20.1-25.2,23.1C192.9,34.4,189.4,23.3,177.3,25.3z"/>
	<path class="st7" d="M128.5,38.4c1.2,2.7,2.6,6.6,3,11.5c0.8,8.7-1.8,15.5-3.4,18.8c14.9-3.9,29.8-7.8,44.6-11.7
		c0,0,5.5-5.5,5.5-10.1c0,0-27.2-14.1-40.3-12.1L128.5,38.4z"/>
	<path class="st8" d="M128,68.6c0,0,9.1-16.6,24.2-15.6c15.1,1,20.6,4,20.6,4S168.3,71.6,128,68.6z"/>
	<path class="st5" d="M165.7,41.1c0,0-0.5,8.6,2.5,8.1s2-6,2-6L165.7,41.1z"/>
	<path class="st5" d="M129.8,37.8c0.6,7,1.4,8.5,2,8.6c0.7,0.1,1.8-1.4,3.7-9.8C133.6,36.9,131.7,37.3,129.8,37.8z"/>
	<path class="st9" d="M183.9,10.2c0,0-28.2-22.1-63.4,11.1c0,0,17.6-5.5,21.1,3.5c0,0,22.6-9.6,34.2-6L183.9,10.2z"/>
	<path class="st6" d="M92.3,146.1c0,0,11.6-48.8,59.9-50.3s43.8,76,43.8,76l4.5,6c0,0-8.2,34.8-31.6,44.8c-1.9,0.8-4,1.5-6.1,2
		l5.5,0.5l-8.6,12.1c0,0-33.2,19.1-57.4-14.1c0,0-8.6-11.7-8.6-16.6c0-2.5-21.1-19.1-8.1-55.9C85.7,150.6,89.2,145.1,92.3,146.1z"/>
	<path class="st10" d="M125.5,117.9c0,0-4.5,13.1,5,19.6L130,140c0,0-22.1-1-24.7,3.5l1,2.5l17.1,1l31.2,6.5c0,0,9.6-2-2-11.6l-3-2
		c0,0,6.5-5.5,4.5-16.6C152.1,112.4,125,112.9,125.5,117.9z"/>
	<path class="st11" d="M123.5,147.1c0,0,7.5-10.1,11.1-7.5c3.5,2.5,6.5,11.1,6.5,11.1L123.5,147.1z"/>
	<path class="st10" d="M152.7,142.1c0,0-15.6,1-15.6,8.1l17.6,3.5L152.7,142.1z"/>
	<path class="st12" d="M130.5,125.5c0,0-0.5,9.6,1.5,7.5C134,131,132.5,125.5,130.5,125.5z"/>
	<path class="st13" d="M150.1,119.4c0,0,8.6-1.5,9.6,2c1,3.5-6.5,10.6-6.5,10.6S154.2,121,150.1,119.4z"/>
	<path class="st14" d="M151.8,119.2c-1.2-1.6-3.4-4-6.6-5.7c-1.2-0.7-9.4-5-15.5-0.9c-2.2,1.5-3.5,3.7-4.2,5.4
		c1.1-0.3,2.5-0.6,4.2-0.6c3.2,0,5.6,0.9,7,1.6c2.8-0.7,4.9-0.6,6.5-0.3c2.1,0.4,4.1,1.2,7.1,0.8
		C150.9,119.4,151.4,119.3,151.8,119.2z"/>
	<path class="st5" d="M105.3,143.6c0,0-3,4-1,4.5l2.9-2.7L105.3,143.6z"/>
	<path class="st5" d="M110.9,144.5c0,0-3.2,0.6-1.5,3.7l3.4-2.1C112.7,146,112,144.2,110.9,144.5z"/>
	<path class="st5" d="M140.1,146.9c0,0-3.1,2.3-1.8,4.9l2.9-1.7C141.1,150.1,141.5,146.6,140.1,146.9z"/>
	<path class="st5" d="M147.4,149.1c0,0-3.6,1.2-2.9,4.2l4.1-1.3C148.6,151.9,148.9,149,147.4,149.1z"/>
</g>
</svg>
