<?xml version="1.0" encoding="utf-8"?>
<!-- Generator: Adobe Illustrator 23.0.6, SVG Export Plug-In . SVG Version: 6.00 Build 0)  -->
<svg version="1.1" id="Layer_1" xmlns="http://www.w3.org/2000/svg" xmlns:xlink="http://www.w3.org/1999/xlink" x="0px" y="0px"
	 viewBox="0 0 288 288" style="enable-background:new 0 0 288 288;" xml:space="preserve">
<style type="text/css">
	.st0{opacity:0.5;}
	.st1{fill:#94909C;}
	.st2{fill:#A9A0A1;}
	.st3{fill:#845A59;}
	.st4{fill:#E8AE91;}
	.st5{fill:#F5EFED;}
	.st6{fill:#111213;}
	.st7{fill:#E7B89F;}
	.st8{fill:#58514F;}
</style>
<g class="st0">
	<path d="M185.7,216c0,0,1.4,1.4,4.7,0.9s19.6-3.7,19.6-3.7l12.6-3.3c0,0,1.9,2.8,4.7,2.8s13.5,17.7,13.5,17.7s3.3,2.3,4.7,1.9
		c1.4-0.5,5.1,0,9.3-1.9c4.2-1.9,7,0.9,7,0.9l-6.5-6.1l-5.6,0.9c0,0-1.9-3.7-5.1-6.1c-3.3-2.3-19.1-17.7-19.1-17.7l-22.4,7.5
		l-14,2.8L185.7,216z"/>
	<path d="M88.1,193.6l-7.5-6.1l-0.9-1.9c0,0-14,13.5-14,18.2c0,0-8.4,12.1-10.3,12.1c-1.9,0-2.8,4.7-2.8,4.7s-4.2-0.9-4.2,3.3
		c0,0,4.7,1.9,6.1,0.9c0,0,7.5,1.4,9.8-2.8s8.4-14.9,8.4-14.9l6.5-12.6l3.7,3.7L88.1,193.6z"/>
	<path d="M91.9,206.7c0,0-16.3-2.8-18.2-5.6c-1.9-2.8-10.3-6.5-10.3-6.5l-5.6,2.8l-4.2,0.9c0,0-25.7,24.3-31.3,24.7
		c-5.6,0.5-3.7,4.2-3.7,4.2s-8.9-3.7-10.3,4.7c0,0,5.1-0.9,7,1.9c1.9,2.8,6.5,1.9,6.5,1.9l4.2-2.3c0,0,3.7-0.9,5.1-4.2
		c1.4-3.3,27.5-21.9,27.5-21.9h14l21.5,10.3c0,0,4.7,2.8,7.5,0.9C104.5,216.5,91.9,206.7,91.9,206.7z"/>
	<path d="M194.1,202.5l43.9-7l23.3,21c0,0,7.9,4.2,7,8.4c0,0,5.6,0,8.4-0.9s7,8.9,7,8.9s-4.7-3.7-9.3-0.5c-4.7,3.3-10.3,0-10.3,0
		s-5.1-1.9-8.9-4.7c-3.7-2.8-23.3-26.6-26.1-28S203,210,203,210s-13.1,5.1-14,2.8C188,210.4,194.1,202.5,194.1,202.5z"/>
	<path d="M178.7,157.2c0,0,14.9-9.3,15.4-14.9c0.5-5.6,5.1,5.6,5.1,5.6L195,153c0,0-10.3,11.7-10.3,13.5S178.7,157.2,178.7,157.2z"
		/>
	<path d="M251,166.6c0,0,7,7.9,3.3,14c-3.7,6.1-14.9,1.9-14.9,1.9L251,166.6z"/>
	<path d="M47.5,191.8h-6c0,0-14.9-8.4-15.4-12.1c0,0,0.5-27.1-3.7-33.6c-4.2-6.5,23.3-28.9,23.3-28.9s17.3-0.9,24.7,5.1l-6.1,1.9
		c0,0-8.9,10.7-2.3,24.3c0,0,8.4,6.5,7.5,16.3s-11.7,21.9-11.7,21.9L47.5,191.8z"/>
	<path d="M95.6,173.6c0,0,11.2-6.1,9.3-9.8c-1.9-3.7-6.5-9.3-6.5-9.3s-7.9-7.5-1.9-7c0,0,14.9,10.7,17.3,8.4
		c2.3-2.3-1.4-6.5-1.4-6.5s-11.2-21.5-6.5-20.1c4.7,1.4,16.8,17.3,16.8,17.3s7,7,4.2-5.6c-2.8-12.6-4.2-16.8-4.2-16.8
		s0.5-6.1,4.2-1.4c3.7,4.7,10.7,23.3,10.7,23.3s6.5,1.9,8.4-4.2s7.9-21,7.9-21s7.5-4.2,6.1,2.3s-4.7,21.5-4.7,21.5s0,9.3,5.1,2.8
		s12.1-15.4,12.1-15.4l4.7,9.3c0,0-5.1,7-4.7,9.3c0.5,2.3,0,8.4,0,8.4l-1.4,16.3l0.5,12.6l-20.1,5.1l-38.7,2.3L93.7,187l-1.4-11.7
		L95.6,173.6z"/>
	<path d="M88.1,193.6c0,0-4.2-21.9,6.1-29.4c0,0,0.9,0,1.4,4.7c0,0,3.7,19.1,7.9,19.1c0,0,2.8-5.6,4.2-2.8c1.4,2.8,2.3,4.2,2.3,4.2
		s6.1-7.9,7.5-5.1s0.5,6.5,3.3,7s16.8,0.9,20.5-1.4c3.7-2.3,3.7-8.4,3.7-8.4s7.5,3.3,7.9,6.1l2.8-6.5c0,0,5.1,2.8,5.6,5.6
		c0,0,14.9-8.9,10.3-33.1c0,0,2.3-4.7,10.3,6.1s8.4,16.3,8.4,16.3l1.9,1.9l1.9,24.7c0,0-5.6,25.7-40.6,19.6c0,0-24.3,2.3-28,0
		c0,0-18.2,4.7-28.5-7.5S85.3,203,85.3,203s-17.7,8.4-21,6.1c0,0-6.1-1.4-7-5.1c-0.9-3.7-6.5-9.3-6.5-9.3s-7.9-5.6-1.9-9.3
		s8.9-2.3,8.9-2.3l0.5,7.5c0,0,2.8,9.8,6.5,10.3s16.3-4.2,16.3-4.2S86.3,190.8,88.1,193.6z"/>
	<path d="M45.2,138.6c0,0,4.2-6.5,13.5,7c0,0-5.1-14,3.3-21.9C62,123.6,47.1,126.4,45.2,138.6z"/>
	<path d="M186.1,69.5c0,0-21.9,30.8-19.1,39.2s3.7,12.1,3.7,12.1l0.9,17.7c0,0,12.6,15.9,18.7,15.4l3.7-11.7c0,0,3.7,3.7,2.8,7.9
		s-2.3,9.3-2.3,9.3s-0.5,10.3,1.9,14.5c2.3,4.2,2.3,5.6,2.3,5.6l-4.7-3.7c0,0-5.1,7.5-6.1,13.1c-0.9,5.6,7.9,14.9,7.9,14.9
		s11.2,10.3,16.3,9.3c5.1-0.9,22.9-15.4,22.9-15.4s13.1-16.3,15.9-31.3s2.8-26.6,2.8-26.6s0.5-5.6-12.1-14c0,0-4.7-21.9-9.3-27.1
		c-4.7-5.1-15.4-11.2-21-21S200.6,67,200.6,67S194.1,64.4,186.1,69.5z"/>
	<path d="M196.9,140.4c0,0,11.7-14,19.1-8.4c7.5,5.6,10.3,13.1,10.3,13.1s-3.7,20.5,0.5,24.7c0,0-14.5,27.5-28,9.8
		c0,0,4.2-3.7,2.8-6.5s-2.3-6.1-2.3-6.1s-0.9-8.4,0.5-14.9C201.1,145.6,196.9,140.4,196.9,140.4z"/>
</g>
<g>
	<path class="st1" d="M181.2,210.5c0,0,1.4,1.4,4.7,0.9s19.6-3.7,19.6-3.7l12.6-3.3c0,0,1.9,2.8,4.7,2.8s13.5,17.7,13.5,17.7
		s3.3,2.3,4.7,1.9c1.4-0.5,5.1,0,9.3-1.9s7,0.9,7,0.9l-6.5-6.1l-5.6,0.9c0,0-1.9-3.7-5.1-6.1c-3.3-2.3-19.1-17.7-19.1-17.7
		l-22.4,7.5l-14,2.8L181.2,210.5z"/>
	<path class="st1" d="M83.6,188.1l-7.5-6.1l-0.9-1.9c0,0-14,13.5-14,18.2c0,0-8.4,12.1-10.3,12.1c-1.9,0-2.8,4.7-2.8,4.7
		s-4.2-0.9-4.2,3.3c0,0,4.7,1.9,6.1,0.9c0,0,7.5,1.4,9.8-2.8c2.3-4.2,8.4-14.9,8.4-14.9l6.5-12.6l3.7,3.7L83.6,188.1z"/>
	<path class="st2" d="M87.4,201.2c0,0-16.3-2.8-18.2-5.6c-1.9-2.8-10.3-6.5-10.3-6.5l-5.6,2.8l-4.2,0.9c0,0-25.7,24.3-31.3,24.7
		c-5.6,0.5-3.7,4.2-3.7,4.2s-8.9-3.7-10.3,4.7c0,0,5.1-0.9,7,1.9c1.9,2.8,6.5,1.9,6.5,1.9l4.2-2.3c0,0,3.7-0.9,5.1-4.2
		s27.5-21.9,27.5-21.9h14l21.5,10.3c0,0,4.7,2.8,7.5,0.9C100,211,87.4,201.2,87.4,201.2z"/>
	<path class="st2" d="M189.6,197l43.9-7l23.3,21c0,0,7.9,4.2,7,8.4c0,0,5.6,0,8.4-0.9s7,8.9,7,8.9s-4.7-3.7-9.3-0.5
		c-4.7,3.3-10.3,0-10.3,0s-5.1-1.9-8.9-4.7c-3.7-2.8-23.3-26.6-26.1-28s-26.1,10.3-26.1,10.3s-13.1,5.1-14,2.8
		C183.5,204.9,189.6,197,189.6,197z"/>
	<path class="st3" d="M174.2,151.7c0,0,14.9-9.3,15.4-14.9c0.5-5.6,5.1,5.6,5.1,5.6l-4.2,5.1c0,0-10.3,11.7-10.3,13.5
		S174.2,151.7,174.2,151.7z"/>
	<path class="st2" d="M246.5,161.1c0,0,7,7.9,3.3,14s-14.9,1.9-14.9,1.9L246.5,161.1z"/>
	<path class="st4" d="M43,186.3h-6c0,0-14.9-8.4-15.4-12.1c0,0,0.5-27.1-3.7-33.6c-4.2-6.5,23.3-28.9,23.3-28.9s17.3-0.9,24.7,5.1
		l-6.1,1.9c0,0-8.9,10.7-2.3,24.3c0,0,8.4,6.5,7.5,16.3s-11.7,21.9-11.7,21.9L43,186.3z"/>
	<path class="st4" d="M91.1,168.1c0,0,11.2-6.1,9.3-9.8c-1.9-3.7-6.5-9.3-6.5-9.3s-7.9-7.5-1.9-7c0,0,14.9,10.7,17.3,8.4
		c2.3-2.3-1.4-6.5-1.4-6.5s-11.2-21.5-6.5-20.1s16.8,17.3,16.8,17.3s7,7,4.2-5.6s-4.2-16.8-4.2-16.8s0.5-6.1,4.2-1.4
		s10.7,23.3,10.7,23.3s6.5,1.9,8.4-4.2s7.9-21,7.9-21s7.5-4.2,6.1,2.3s-4.7,21.5-4.7,21.5s0,9.3,5.1,2.8s12.1-15.4,12.1-15.4
		l4.7,9.3c0,0-5.1,7-4.7,9.3c0.5,2.3,0,8.4,0,8.4l-1.4,16.3l0.5,12.6l-20.1,5.1l-38.7,2.3l-19.1-8.4l-1.4-11.7L91.1,168.1z"/>
	<path class="st5" d="M83.6,188.1c0,0-4.2-21.9,6.1-29.4c0,0,0.9,0,1.4,4.7c0,0,3.7,19.1,7.9,19.1c0,0,2.8-5.6,4.2-2.8
		c1.4,2.8,2.3,4.2,2.3,4.2s6.1-7.9,7.5-5.1s0.5,6.5,3.3,7s16.8,0.9,20.5-1.4c3.7-2.3,3.7-8.4,3.7-8.4s7.5,3.3,7.9,6.1l2.8-6.5
		c0,0,5.1,2.8,5.6,5.6c0,0,14.9-8.9,10.3-33.1c0,0,2.3-4.7,10.3,6.1s8.4,16.3,8.4,16.3l1.9,1.9l1.9,24.7c0,0-5.6,25.7-40.6,19.6
		c0,0-24.3,2.3-28,0c0,0-18.2,4.7-28.5-7.5s-11.7-11.7-11.7-11.7s-17.7,8.4-21,6.1c0,0-6.1-1.4-7-5.1c-0.9-3.7-6.5-9.3-6.5-9.3
		s-7.9-5.6-1.9-9.3s8.9-2.3,8.9-2.3l0.5,7.5c0,0,2.8,9.8,6.5,10.3c3.7,0.5,16.3-4.2,16.3-4.2S81.8,185.3,83.6,188.1z"/>
	<path class="st6" d="M40.7,133.1c0,0,4.2-6.5,13.5,7c0,0-5.1-14,3.3-21.9C57.5,118.1,42.6,120.9,40.7,133.1z"/>
	<path class="st7" d="M181.6,64c0,0-21.9,30.8-19.1,39.2s3.7,12.1,3.7,12.1l0.9,17.7c0,0,12.6,15.9,18.7,15.4l3.7-11.7
		c0,0,3.7,3.7,2.8,7.9s-2.3,9.3-2.3,9.3s-0.5,10.3,1.9,14.5c2.3,4.2,2.3,5.6,2.3,5.6l-4.7-3.7c0,0-5.1,7.5-6.1,13.1
		c-0.9,5.6,7.9,14.9,7.9,14.9s11.2,10.3,16.3,9.3c5.1-0.9,22.9-15.4,22.9-15.4s13.1-16.3,15.9-31.3s2.8-26.6,2.8-26.6
		s0.5-5.6-12.1-14c0,0-4.7-21.9-9.3-27.1c-4.7-5.1-15.4-11.2-21-21s-10.7-10.7-10.7-10.7S189.6,58.9,181.6,64z"/>
	<path class="st8" d="M192.4,134.9c0,0,11.7-14,19.1-8.4c7.5,5.6,10.3,13.1,10.3,13.1s-3.7,20.5,0.5,24.7c0,0-14.5,27.5-28,9.8
		c0,0,4.2-3.7,2.8-6.5s-2.3-6.1-2.3-6.1s-0.9-8.4,0.5-14.9C196.6,140.1,192.4,134.9,192.4,134.9z"/>
</g>
</svg>
