<?xml version="1.0" encoding="utf-8"?>
<!-- Generator: Adobe Illustrator 23.0.6, SVG Export Plug-In . SVG Version: 6.00 Build 0)  -->
<svg version="1.1" id="Layer_1" xmlns="http://www.w3.org/2000/svg" xmlns:xlink="http://www.w3.org/1999/xlink" x="0px" y="0px"
	 viewBox="0 0 288 288" style="enable-background:new 0 0 288 288;" xml:space="preserve">
<style type="text/css">
	.st0{opacity:0.5;}
	.st1{fill:#D7CFAB;}
	.st2{fill:#77768D;}
	.st3{fill:#ACAECF;}
	.st4{fill:#BB8D9C;}
	.st5{fill:#E9E4E0;}
</style>
<g class="st0">
	<path d="M16.8,51.1c0,0,6.2-19.7,18.6-17.4c0,0,16.3-2.8,19.1,9c0,0,10.1,3.9,10.1,7.3c0,0,16.3,9,2.8,25.9c0,0,7.9,7.9,2.2,17.4
		l8.4,11.8l-14.6-9.6l2.8,4.5l-12.4-9c0,0-6.2,10.7-15.2,3.4c0,0-8.4,10.7-21.9,3.4S8.3,76.3,8.3,76.3S4.4,57.9,16.8,51.1z"/>
	<path d="M222.1,103.9l-3.9,3.9l5.1,1.1l-14.1,7.9l19.7-6.7c0,0,5.1,14.1,14.6,12.9c9.6-1.1,13.5-7.3,13.5-7.3s15.7,3.4,20.2-4.5
		s1.7-16.3,1.7-16.3s11.8-9.6,3.9-20.2C275,64.1,270,68.1,270,68.1s-5.1-11.8-16.3-7.3c0,0-15.2-11.2-22.5,1.1
		c0,0-11.2,6.2-10.1,16.9C220.9,78.7,208.1,92.7,222.1,103.9z"/>
	<path d="M129.3,236.9c0,0,13.5,13.5,23.6-1.7L129.3,236.9z"/>
	<path d="M197.9,100.6c0,0,25.9,2.2,16.3,28.7L197.9,100.6z"/>
	<path d="M86.6,94.9c0,0-18,0-18,20.8c0,0-11.2,26.4-10.1,34.9c0,0-17.4,15.2,3.9,29.8c0,0,7.9,30.4,21.4,36c0,0-3.4,16.9,19.7,14.1
		c0,0,41.1,18.6,77.6-6.2c0,0,16.9,5.1,18.6-13.5c0,0,7.3-9,7.9-12.9c0,0,24.2-2.8,11.2-25.9c0,0,5.1-48.4-23.1-73.1
		s-46.1-21.9-46.1-21.9s-14.6-27-30.9,3.9C118.7,80.8,94.4,83.7,86.6,94.9z"/>
	<path d="M104.6,129.2c0,0,80.4-3.4,86.1,0C190.6,129.2,154.6,172.6,104.6,129.2z"/>
	<path d="M104.6,129.2c0,0,4.5,9,6.2,8.4s4.5-9,4.5-9L104.6,129.2z"/>
	<path d="M182.1,127.2c0,0,0,8.4,5.1,8.4s3.4-7.3,3.4-7.3L182.1,127.2z"/>
	<path d="M141.1,161.9c-0.5,0.3-6.1,3.9-6.3,10.3c-0.2,5.6,3.7,10.9,9.7,12.8c0,0,2.2,5.6,6.8,2.8c0,0,5.1,5.6,8.4,0
		c0.8,0.3,4.5,1.3,8.3-0.7c2.3-1.2,3.5-2.9,4.1-3.8c0.7-0.5,6.1-4.8,5.6-10.7c-0.4-5.6-5.7-8.7-9-10.7c-6-3.6-12-3.5-14.6-3.4
		C148.1,158.6,143.6,160.6,141.1,161.9z"/>
	<path d="M131.6,183.9c0,0,21.4,12.9,23.1,12.4c1.7-0.6,16.9-5.6,20.2-10.1c0,0,9.6-10.7,14.1-4.5s-4.5,10.1-4.5,10.1l-3.9,0.6
		c0,0-13.5,9-15.2,9c0,0,2.2,3.9,6.7,3.4c4.5-0.6,9-0.6,9-0.6s9,4.5-3.9,11.2c0,0-5.1,2.2-10.7-2.8c-5.6-5.1-10.7-5.1-10.7-5.1
		l-22.5,9c0,0-9,9-13.5-2.2s10.7-6.7,10.7-6.7l14.1-6.2l-14.1-7.3c0,0-14.6-5.1-9.6-11.8C125.9,175.4,131.6,183.9,131.6,183.9z"/>
	<ellipse cx="156.9" cy="172.6" rx="12.4" ry="5.6"/>
	<path d="M250.2,139.4c0,0-8.4,1.7-5.1,6.2c0,0,5.6,5.6,7.9-0.6C255.4,138.9,250.2,139.4,250.2,139.4z"/>
	<path d="M189.4,49.4c0,0-12.4-7.3-15.7,9.6c0,0-1.7,9,4.5,10.7c0,0,3.9,10.1,11.8,6.2c0,0,9,1.1,12.4-9c0,0,2.2-7.3,0.6-11.2
		C202.9,55.6,201.9,46.6,189.4,49.4z"/>
	<path d="M35.9,110.7c0,0,12.4-4.5,13.5,4.5c0,0,6.2,9-5.1,15.2c0,0-6.7,10.7-14.6-1.1C29.7,129.2,16.8,115.8,35.9,110.7z"/>
	<path d="M98.9,257.5c0,0,0-6.7-9.6-4.5s0.6,9.6,0.6,9.6s7.9,5.6,6.7-1.7L98.9,257.5z"/>
	<path d="M50.5,216.4c0,0-10.1-5.6-16.9,1.7s-3.4,18-3.4,18s-9.6,12.4,3.4,19.7c12.9,7.3,12.4,1.7,12.4,1.7s8.4,7.3,16.9,3.4
		c8.4-3.9,6.2-9.6,6.2-9.6s12.9-9.6,0.6-20.2c0,0-3-3.1-4.5-6.2C64.7,223.8,66.8,217.6,50.5,216.4z"/>
</g>
<g>
	<path class="st1" d="M11.6,46.3c0,0,6.2-19.7,18.6-17.4c0,0,16.3-2.8,19.1,9c0,0,10.1,3.9,10.1,7.3c0,0,16.3,9,2.8,25.9
		c0,0,7.9,7.9,2.2,17.4l8.4,11.8l-14.6-9.6l2.8,4.5l-12.4-9c0,0-6.2,10.7-15.2,3.4c0,0-8.4,10.7-21.9,3.4S3.1,71.6,3.1,71.6
		S-0.8,53.1,11.6,46.3z"/>
	<path class="st1" d="M216.9,99.2l-3.9,3.9l5.1,1.1l-14.1,7.9l19.7-6.7c0,0,5.1,14.1,14.6,12.9c9.6-1.1,13.5-7.3,13.5-7.3
		s15.7,3.4,20.2-4.5s1.7-16.3,1.7-16.3s11.8-9.6,3.9-20.2c-7.9-10.7-12.9-6.7-12.9-6.7s-5.1-11.8-16.3-7.3c0,0-15.2-11.2-22.5,1.1
		c0,0-11.2,6.2-10.1,16.9C215.7,73.9,202.8,87.9,216.9,99.2z"/>
	<path class="st2" d="M124.1,232.1c0,0,13.5,13.5,23.6-1.7L124.1,232.1z"/>
	<path class="st2" d="M192.7,95.8c0,0,25.9,2.2,16.3,28.7L192.7,95.8z"/>
	<path class="st3" d="M81.3,90.2c0,0-18,0-18,20.8c0,0-11.2,26.4-10.1,34.9c0,0-17.4,15.2,3.9,29.8c0,0,7.9,30.4,21.4,36
		c0,0-3.4,16.9,19.7,14.1c0,0,41.1,18.6,77.6-6.2c0,0,16.9,5.1,18.6-13.5c0,0,7.3-9,7.9-12.9c0,0,24.2-2.8,11.2-25.9
		c0,0,5.1-48.4-23.1-73.1s-46.1-21.9-46.1-21.9s-14.6-27-30.9,3.9C113.4,76.1,89.2,78.9,81.3,90.2z"/>
	<path class="st4" d="M99.3,124.5c0,0,80.4-3.4,86.1,0C185.4,124.5,149.4,167.8,99.3,124.5z"/>
	<path class="st5" d="M99.3,124.5c0,0,4.5,9,6.2,8.4s4.5-9,4.5-9L99.3,124.5z"/>
	<path class="st5" d="M176.9,122.4c0,0,0,8.4,5.1,8.4s3.4-7.3,3.4-7.3L176.9,122.4z"/>
	<path class="st5" d="M135.9,157.1c-0.5,0.3-6.1,3.9-6.3,10.3c-0.2,5.6,3.7,10.9,9.7,12.8c0,0,2.2,5.6,6.8,2.8c0,0,5.1,5.6,8.4,0
		c0.8,0.3,4.5,1.3,8.3-0.7c2.3-1.2,3.5-2.9,4.1-3.8c0.7-0.5,6.1-4.8,5.6-10.7c-0.4-5.6-5.7-8.7-9-10.7c-6-3.6-12-3.5-14.6-3.4
		C142.9,153.9,138.3,155.9,135.9,157.1z"/>
	<path class="st5" d="M126.3,179.1c0,0,21.4,12.9,23.1,12.4c1.7-0.6,16.9-5.6,20.2-10.1c0,0,9.6-10.7,14.1-4.5s-4.5,10.1-4.5,10.1
		l-3.9,0.6c0,0-13.5,9-15.2,9c0,0,2.2,3.9,6.7,3.4c4.5-0.6,9-0.6,9-0.6s9,4.5-3.9,11.2c0,0-5.1,2.2-10.7-2.8
		c-5.6-5.1-10.7-5.1-10.7-5.1l-22.5,9c0,0-9,9-13.5-2.2s10.7-6.7,10.7-6.7l14.1-6.2l-14.1-7.3c0,0-14.6-5.1-9.6-11.8
		C120.7,170.6,126.3,179.1,126.3,179.1z"/>
	<ellipse class="st3" cx="151.6" cy="167.8" rx="12.4" ry="5.6"/>
	<path class="st1" d="M245,134.6c0,0-8.4,1.7-5.1,6.2c0,0,5.6,5.6,7.9-0.6C250.1,134.1,245,134.6,245,134.6z"/>
	<path class="st1" d="M184.2,44.6c0,0-12.4-7.3-15.7,9.6c0,0-1.7,9,4.5,10.7c0,0,3.9,10.1,11.8,6.2c0,0,9,1.1,12.4-9
		c0,0,2.2-7.3,0.6-11.2C197.7,50.8,196.6,41.8,184.2,44.6z"/>
	<path class="st1" d="M30.7,105.9c0,0,12.4-4.5,13.5,4.5c0,0,6.2,9-5.1,15.2c0,0-6.7,10.7-14.6-1.1C24.5,124.5,11.6,111,30.7,105.9z
		"/>
	<path class="st1" d="M93.7,252.7c0,0,0-6.7-9.6-4.5s0.6,9.6,0.6,9.6s7.9,5.6,6.7-1.7L93.7,252.7z"/>
	<path class="st1" d="M45.3,211.7c0,0-10.1-5.6-16.9,1.7s-3.4,18-3.4,18s-9.6,12.4,3.4,19.7c12.9,7.3,12.4,1.7,12.4,1.7
		s8.4,7.3,16.9,3.4c8.4-3.9,6.2-9.6,6.2-9.6s12.9-9.6,0.6-20.2c0,0-3-3.1-4.5-6.2C59.4,219,61.6,212.8,45.3,211.7z"/>
</g>
</svg>
