<?xml version="1.0" encoding="utf-8"?>
<!-- Generator: Adobe Illustrator 23.0.6, SVG Export Plug-In . SVG Version: 6.00 Build 0)  -->
<svg version="1.1" id="Layer_1" xmlns="http://www.w3.org/2000/svg" xmlns:xlink="http://www.w3.org/1999/xlink" x="0px" y="0px"
	 viewBox="0 0 288 288" style="enable-background:new 0 0 288 288;" xml:space="preserve">
<style type="text/css">
	.st0{opacity:0.5;}
	.st1{fill:#8C858D;}
	.st2{fill:#B5A8A4;}
	.st3{fill:#4B4543;}
	.st4{fill:#E59873;}
	.st5{fill:#EFE1DD;}
</style>
<g class="st0">
	<path d="M88.7,217.2c0,0-1.1,3.9-7.3-3.4c0,0-21.9-9-23.1-13.5l-14.1,12.4L29,225.1l-21.8,1.6c0,0,0.6-10.1,10.1-9
		c9.6,1.1,16.9-2.8,16.9-2.8l15.2-19.7l23.1-3.9L88.7,217.2z"/>
	<path d="M199.6,205.3l36-9l27,20.8c0,0,14.1-2.2,14.1-3.9c0,0,10.1,5.1,9,11.2l-6.2-0.6l-29.8-8.4c0,0-12.9-10.7-15.2-10.1
		C232.3,205.9,203,216,203,216L199.6,205.3z"/>
	<path d="M82.6,195.2c0,0-12.4-11.8-14.1-15.2s-5.6-0.6-5.6-0.6l-3.4-0.6l-3.4-1.7c0,0-28.1,39.4-28.1,42.2l-1.1,2.8
		c0,0-7.3,1.1-9.6-1.1s-6.7,11.8-6.7,11.8s8.4-5.6,15.2-2.2c6.7,3.4,8.4,0.6,8.4,0.6l3.4-3.4c0,0,9-7.3,9.6-24.7
		c0,0,12.9-16.9,15.2-14.6c2.2,2.2,18.6,20.2,18.6,20.2s7.3,13.5,14.1,8.4C101.7,212.1,82.6,195.2,82.6,195.2z"/>
	<path d="M200.7,200.8c0,0,14.1-6.7,22.5-18.6c0,0,11.2-4.5,15.2,3.9l6.7,4.5l19.1,22.5c0,0,2.8,4.5,0.6,6.2l11.8-0.6
		c0,0,7.3,5.6,6.2,10.7c0,0-7.3-5.1-15.7-1.1c-8.4,3.9-10.1-1.7-10.1-1.7s-6.2,2.2-7.3-9S236.2,194,236.2,194l-12.4,1.1
		c0,0-18.6,14.6-20.8,20.8s-25.9-5.1-25.9-5.1L200.7,200.8z"/>
	<polygon points="96.1,96.2 87.6,105.2 84.8,132.8 67.9,146.3 60.6,121 74.7,91.7 	"/>
	<path d="M188.9,86.7c9.3,5.6,12.9,11.7,14.6,15.7c1.8,4.3,0,33.2,0,33.2l0,0l28.1,6.8l-1.1-38.8l-15.2-19.1
		C206.5,85.2,197.7,85.9,188.9,86.7z"/>
	<path d="M226.6,166.5c0,0,11.8,5.6,15.7-3.9C246.2,153,226.6,166.5,226.6,166.5z"/>
	<path d="M39.8,155.3c0,0,1.7,13.5,11.8,11.8S42.1,150.8,39.8,155.3z"/>
	<path d="M89.3,183.4c0,0-6.2-12.4,10.1-25.9c0,0,24.7,1.7,25.9-29.2c0,0,5.1-9.6,7.9,6.8s12.9,10.7,12.9,10.7s10.7,2.2,10.7-21.9
		c0,0,8.4-5.1,7.3,14.6s19.7,18.6,19.7,18.6l4.5-0.6c0,0,16.3,16.9,11.8,34.9c-15.3,2.5-35.6,4.2-59.1,2.2
		C120.4,191.8,102.9,187.7,89.3,183.4z"/>
	<path d="M40.4,154.7c0,0-2.8,14.6,12.9,11.2l7.3,5.6c0,0-6.2,7.3-11.2,7.3l1.1,11.8c0,0,26.4,0,30.4-9.6l2.8,0.6l3.4-2.2l1.7,3.9
		c0,0,3.4-5.1,3.9-3.4c0,0,5.1-14.6,8.4-12.4c3.4,2.2,2.8,9.6,2.8,9.6s18-2.8,38.8,12.4c0,0,23.6-18,34.9-13.5c0,0,1.7-11.2,5.1-8.4
		c3.4,2.8,6.2,11.8,6.2,11.8l11.2,11.2l0.6-11.2l2.2,0.6c0,0,0.6-1.1,5.6,2.2c5.1,3.4,24.7,6.7,24.7,6.7l-1-10.6
		c0,0-14.1-0.6-12.4-9.6l5.1-1.7c0,0,12.4,3.9,15.7-4.5l6.2-3.4c0,0,4.5,9-4.5,15.2c0,0,3.4,13.5,5.1,17.4c1.7,3.9-2.8,7.3-2.8,7.3
		l-6.7,1.7c0,0-25.3-13.5-36.6-6.7c0,0,1.1,9-2.2,11.8c0,0-5.6,24.7-39.9,17.4c0,0-21.4-2.2-31.5,0c0,0-24.2,9-40.5-15.7
		c0,0-7.9-7.3-3.4-13.5c0,0-19.7,1.7-29.2,8.4s-17-2.1-17-2.1s3.9-19.7,0-25.3c0,0-13.5-7.9-3.4-24.2L40.4,154.7z"/>
	<path d="M70.7,141.2c0,0-0.6-45.6,25.3-45l16.9,1.7c0,0,0-8.4-15.2-23.1c0,0-18.6-5.1-41.6-1.1c0,0-28.1,38.8-27,46.7
		s5.6,30.4,5.6,30.4s2.8,5.1,8.4,5.1c0,0,10.7,11.2,14.1,15.7c3.4,4.5,25.9-1.1,25.9-1.1s8.5-24.2,15.2-33.2c0,0-2.8-12.9-6.7-12.9
		C91.6,124.3,82,140.1,70.7,141.2z"/>
	<path d="M177.1,93.4c6.1-0.9,14.2-2,23.6-2.8c2.9-0.3,7.7-0.6,10.7,2.2c0.4,0.4,0.3,0.3,1.7,2.2c3.5,4.7,4.7,5.5,6.2,7.9
		c0,0,1.7,2.6,2.8,6.7c2.7,9.7-2.5,20.7-3.4,22.5c0,0-23.1-7.3-24.7-14.1s-5.6,11.8-5.6,11.8s7.3,14.1,7.3,23.1l15.2,14.6
		c0,0,14.6,1.1,25.3-5.1c0,0,18,4.5,21.9-32.6C262,92.7,223.2,63,223.2,63s-28.7,2.2-32.1,4.5C191.1,67.5,173.1,85.5,177.1,93.4z"/>
</g>
<g>
	<path class="st1" d="M83.5,212.9c0,0-1.1,3.9-7.3-3.4c0,0-21.9-9-23.1-13.5L39,208.4l-15.2,12.4L2,222.4c0,0,0.6-10.1,10.1-9
		c9.6,1.1,16.9-2.8,16.9-2.8l15.2-19.7l23.1-3.9L83.5,212.9z"/>
	<path class="st1" d="M194.4,201l36-9l27,20.8c0,0,14.1-2.2,14.1-3.9c0,0,10.1,5.1,9,11.2l-6.2-0.6l-29.8-8.4
		c0,0-12.9-10.7-15.2-10.1c-2.2,0.6-31.5,10.7-31.5,10.7L194.4,201z"/>
	<path class="st2" d="M77.4,190.9c0,0-12.4-11.8-14.1-15.2c-1.7-3.4-5.6-0.6-5.6-0.6l-3.4-0.6l-3.4-1.7c0,0-28.1,39.4-28.1,42.2
		l-1.1,2.8c0,0-7.3,1.1-9.6-1.1s-6.7,11.8-6.7,11.8s8.4-5.6,15.2-2.2c6.7,3.4,8.4,0.6,8.4,0.6l3.4-3.4c0,0,9-7.3,9.6-24.7
		c0,0,12.9-16.9,15.2-14.6c2.2,2.2,18.6,20.2,18.6,20.2s7.3,13.5,14.1,8.4C96.5,207.8,77.4,190.9,77.4,190.9z"/>
	<path class="st2" d="M195.5,196.5c0,0,14.1-6.7,22.5-18.6c0,0,11.2-4.5,15.2,3.9l6.7,4.5l19.1,22.5c0,0,2.8,4.5,0.6,6.2l11.8-0.6
		c0,0,7.3,5.6,6.2,10.7c0,0-7.3-5.1-15.7-1.1c-8.4,3.9-10.1-1.7-10.1-1.7s-6.2,2.2-7.3-9S231,189.7,231,189.7l-12.4,1.1
		c0,0-18.6,14.6-20.8,20.8s-25.9-5.1-25.9-5.1L195.5,196.5z"/>
	<polygon class="st3" points="90.9,91.9 82.4,100.9 79.6,128.5 62.7,142 55.4,116.7 69.5,87.4 	"/>
	<path class="st3" d="M183.7,82.4c9.3,5.6,12.9,11.7,14.6,15.7c1.8,4.3,0,33.2,0,33.2l0,0l28.1,6.8l-1.1-38.8l-15.2-19.1
		C201.3,80.9,192.5,81.6,183.7,82.4z"/>
	<path class="st3" d="M221.4,162.2c0,0,11.8,5.6,15.7-3.9C241,148.7,221.4,162.2,221.4,162.2z"/>
	<path class="st3" d="M34.6,151c0,0,1.7,13.5,11.8,11.8S36.9,146.5,34.6,151z"/>
	<path class="st4" d="M84.1,179.1c0,0-6.2-12.4,10.1-25.9c0,0,24.7,1.7,25.9-29.2c0,0,5.1-9.6,7.9,6.8s12.9,10.7,12.9,10.7
		s10.7,2.2,10.7-21.9c0,0,8.4-5.1,7.3,14.6s19.7,18.6,19.7,18.6l4.5-0.6c0,0,16.3,16.9,11.8,34.9c-15.3,2.5-35.6,4.2-59.1,2.2
		C115.2,187.5,97.7,183.4,84.1,179.1z"/>
	<path class="st5" d="M35.2,150.4c0,0-2.8,14.6,12.9,11.2l7.3,5.6c0,0-6.2,7.3-11.2,7.3l1.1,11.8c0,0,26.4,0,30.4-9.6l2.8,0.6
		l3.4-2.2l1.7,3.9c0,0,3.4-5.1,3.9-3.4c0,0,5.1-14.6,8.4-12.4c3.4,2.2,2.8,9.6,2.8,9.6s18-2.8,38.8,12.4c0,0,23.6-18,34.9-13.5
		c0,0,1.7-11.2,5.1-8.4c3.4,2.8,6.2,11.8,6.2,11.8l11.2,11.2l0.6-11.2l2.2,0.6c0,0,0.6-1.1,5.6,2.2c5.1,3.4,24.7,6.7,24.7,6.7
		l-1-10.6c0,0-14.1-0.6-12.4-9.6l5.1-1.7c0,0,12.4,3.9,15.7-4.5l6.2-3.4c0,0,4.5,9-4.5,15.2c0,0,3.4,13.5,5.1,17.4
		c1.7,3.9-2.8,7.3-2.8,7.3l-6.7,1.7c0,0-25.3-13.5-36.6-6.7c0,0,1.1,9-2.2,11.8c0,0-5.6,24.7-39.9,17.4c0,0-21.4-2.2-31.5,0
		c0,0-24.2,9-40.5-15.7c0,0-7.9-7.3-3.4-13.5c0,0-19.7,1.7-29.2,8.4s-17-2.1-17-2.1s3.9-19.7,0-25.3c0,0-13.5-7.9-3.4-24.2
		L35.2,150.4z"/>
	<path class="st4" d="M65.5,136.9c0,0-0.6-45.6,25.3-45l16.9,1.7c0,0,0-8.4-15.2-23.1c0,0-18.6-5.1-41.6-1.1c0,0-28.1,38.8-27,46.7
		s5.6,30.4,5.6,30.4s2.8,5.1,8.4,5.1c0,0,10.7,11.2,14.1,15.7c3.4,4.5,25.9-1.1,25.9-1.1S86.4,142,93.1,133c0,0-2.8-12.9-6.7-12.9
		C86.4,120,76.8,135.8,65.5,136.9z"/>
	<path class="st4" d="M171.9,89.1c6.1-0.9,14.2-2,23.6-2.8c2.9-0.3,7.7-0.6,10.7,2.2c0.4,0.4,0.3,0.3,1.7,2.2
		c3.5,4.7,4.7,5.5,6.2,7.9c0,0,1.7,2.6,2.8,6.7c2.7,9.7-2.5,20.7-3.4,22.5c0,0-23.1-7.3-24.7-14.1s-5.6,11.8-5.6,11.8
		s7.3,14.1,7.3,23.1l15.2,14.6c0,0,14.6,1.1,25.3-5.1c0,0,18,4.5,21.9-32.6S218,58.7,218,58.7s-28.7,2.2-32.1,4.5
		C185.9,63.2,167.9,81.2,171.9,89.1z"/>
</g>
</svg>
