<?xml version="1.0" encoding="utf-8"?>
<!-- Generator: Adobe Illustrator 23.0.6, SVG Export Plug-In . SVG Version: 6.00 Build 0)  -->
<svg version="1.1" id="Layer_1" xmlns="http://www.w3.org/2000/svg" xmlns:xlink="http://www.w3.org/1999/xlink" x="0px" y="0px"
	 viewBox="0 0 288 288" style="enable-background:new 0 0 288 288;" xml:space="preserve">
<style type="text/css">
	.st0{opacity:0.5;}
	.st1{fill:#F3E6CF;}
	.st2{fill:#5C554C;}
	.st3{fill:#5A98B4;}
	.st4{fill:#8BC1E0;}
	.st5{fill:#487FAC;}
	.st6{fill:#DADBE2;}
	.st7{fill:#909096;}
	.st8{fill:#B4B6BF;}
</style>
<g class="st0">
	<path d="M103.7,275.8c0,0,6.2-7.2,25.8-6.7s26.8-1.4,26.8-1.4s10.5-4.3,11-9.1c0,0,14.4,1.4,20.1,5.7s32.1,6.7,32.1,6.7l-10.1-11
		l-35.9-15.3L146.2,259C146.3,259,103.7,262.8,103.7,275.8z"/>
	<path d="M91.7,172.8c0,0,42.1-65.6,38.8-81.9c0,0-23.5-1.4-25.8-6.7l13.4-7.2l35.9-9.6l6.2,17.2l-31.1,50.3L91.7,172.8z"/>
	<path d="M15.6,263.2c0,0,8.6-7.7,22-7.2c13.4,0.5,35.9-2.9,35.9-2.9s21.5-3.8,25.8-13.4c0,0,12.9,8.6,15.8,8.1l6.7-4.8l-18.2-15.3
		C103.7,227.9,13.7,243.1,15.6,263.2z"/>
	<path d="M280.3,234.6c0,0-12.4,7.2-28.7,6.2s-9.6-8.6-9.6-8.6L280.3,234.6z"/>
	<path d="M216.2,247.9c0,0,0.5,0.5,1.3,1.2c4.1,3.5,17.3,13.2,35.1,10.8c21.5-2.9,18.2-1.9,18.2-1.9L216.2,247.9z"/>
	<path d="M228.1,210.6c0,0,13.9-1.9,22.5,5.7c8.6,7.7,29.7,18.2,29.7,18.2s-9.1,2.4-16.8,2.4c-7.7,0-16.3,1.4-16.3,1.4
		s23.5,14.8,23.5,19.6c0,0-20.1-1.4-26.3-0.5c-6.2,1-28.2-9.6-28.2-9.6s6.7-3.8,8.1-16.3C225.7,219.2,228.1,210.6,228.1,210.6z"/>
	<path d="M143.9,34.5c0,0,0.5-17.2-18.7-15.3c-19.2,1.9-7.7,30.2-7.7,30.2L143.9,34.5z"/>
	<path d="M216.2,247.9c0,0,5.3,18.7,7.2,19.6c1.9,1-3.8,3.4-3.8,3.4s-28.7-7.7-32.1-11.5c-3.4-3.8-20.1-3.4-20.1-3.4
		s-11,13.4-32.1,10.1c-21.1-3.4-31.6,9.6-31.6,9.6s-7.7-13.9,18.2-32.6c0,0-20.1-6.2-18.7-10.5c0,0-19.1,15.8-44,16.8
		s-44,7.2-43.6,13.9c0,0,0-34,31.1-45.5s36.9-5.7,36.9-5.7s-4.4-27.4,8.1-39.4c12.4-12,24.9-29.2,24.9-29.2s21.1-29.2,17.7-52.2
		c0,0,26.8-9.1,15.3-17.7c0,0-15.8,10.5-30.2,8.6l-14.8,1.9c0,0-10.5,1-10.5-3.8c0,0-1.9-12.4,4.3-20.6s7.7-11.5,7.7-11.5
		s-6.2-14.4-1.4-14.8c4.8-0.5,11.5,8.1,11.5,8.1s10.5-14.4,32.6-5.3c0,0,9.6-15.8,24.4-8.6c14.8,7.2,10.1,22,10.1,22
		s-6.2,12-14.8,12.4c0,0-1.4,13.4-3.4,17.7c-1.9,4.3-17.2,44-13.9,54.6s77.1,76.1,77.1,76.1S228.6,241.8,216.2,247.9z"/>
	<path d="M161.1,73.2c0,0-5.7,9.1-1,11.5C164.9,87.1,166.4,71.2,161.1,73.2z"/>
	<path d="M154.4,88.6c-0.5,1.4-4.8,5.3-1.9,7.7C155.4,98.6,154.4,88.6,154.4,88.6z"/>
	<path d="M93.1,181.4c0,0-7.7,8.1-6.7,12.9c1,4.8,6.2-2.4,6.2-2.4S96,184.8,93.1,181.4z"/>
	<path d="M86.9,201.6c0,0-3.4,3.4,0.5,7.2C91.2,212.6,87.4,201.9,86.9,201.6z"/>
	<path d="M120.9,218.8c0,0-5.7,7.2-1.4,10.5c4.3,3.4,6.2,1.9,6.2,1.9S126.2,221.1,120.9,218.8z"/>
	<path d="M130.9,234.1c0,0-2.9,1.9-1,3.4c1.9,1.4,1.9,1.4,1.9,1.4L130.9,234.1z"/>
	<path d="M162.5,140.8c0,0-11-13.9-25.8-1.9S118,154.2,118,154.2s-28.7,23.9-23,54.6c0,0,4.8,1.9,15.3,1.9s23,15.3,23,15.3
		s9.6,15.8,27.3,14.8s24.4,1.9,24.4,1.9l16.8,5.3c0,0,5.7,5.7,13.9-5.3c8.1-11,10.1-16.8,10.1-16.8s6.7-17.7-1.4-20.6l-18.2,23.9
		l-46.9-6.7L136.8,198L162.5,140.8z"/>
	<path d="M191.3,154.6l5.7-5.7c0,0,5.7,0,6.2,5.7s-1,3.8,1,8.6C206.1,167.9,191.3,154.6,191.3,154.6z"/>
	<path d="M215.7,179.1l5.3-1c0,0,10.6,0.8,7.2,7.7c-1,1.9-6.2,7.7-5.7,13.4C222.9,204.9,215.7,179.1,215.7,179.1z"/>
	<path d="M162.5,140.8c0,0,1.4-12,6.7-11.5s9.6,2.4,9.6,2.4l-0.5,15.8c0,0,29.7,11.5,37.3,31.6c0,0,11.5,12,8.6,31.6
		s-13.9,26.8-13.9,26.8s-6.7,1.9-11.5-0.5s-21.5-4.3-21.5-4.3s-23.5,3.8-29.7-2.4s-15.8-18.2-15.8-18.2s-10.1-10.1-21.1-11
		c-11-1-9.6-11.5-9.6-11.5s8.6-24.4,12.4-25.8s12.9-5.7,12.9-5.7s-2.9-6.7,3.8-7.2c6.7-0.5,6.7-0.5,6.7-0.5s9.1-5.7,11.5-8.6
		C151,138.8,162.5,140.8,162.5,140.8z"/>
</g>
<g>
	<path class="st1" d="M98.5,271c0,0,6.2-7.2,25.8-6.7s26.8-1.4,26.8-1.4s10.5-4.3,11-9.1c0,0,14.4,1.4,20.1,5.7s32.1,6.7,32.1,6.7
		l-10.1-11l-35.9-15.3L141,254.3C141.1,254.2,98.5,258,98.5,271z"/>
	<path class="st1" d="M86.5,168c0,0,42.1-65.6,38.8-81.9c0,0-23.5-1.4-25.8-6.7l13.4-7.2l35.9-9.6l6.2,17.2l-31.1,50.3L86.5,168z"/>
	<path class="st1" d="M10.4,258.5c0,0,8.6-7.7,22-7.2s35.9-2.9,35.9-2.9s21.5-3.8,25.8-13.4c0,0,12.9,8.6,15.8,8.1l6.7-4.8L98.4,223
		C98.5,223.1,8.5,238.4,10.4,258.5z"/>
	<path class="st2" d="M275.1,229.8c0,0-12.4,7.2-28.7,6.2s-9.6-8.6-9.6-8.6L275.1,229.8z"/>
	<path class="st2" d="M211,243.2c0,0,0.5,0.5,1.3,1.2c4.1,3.5,17.3,13.2,35.1,10.8c21.5-2.9,18.2-1.9,18.2-1.9L211,243.2z"/>
	<path class="st3" d="M222.9,205.9c0,0,13.9-1.9,22.5,5.7c8.6,7.7,29.7,18.2,29.7,18.2s-9.1,2.4-16.8,2.4c-7.7,0-16.3,1.4-16.3,1.4
		s23.5,14.8,23.5,19.6c0,0-20.1-1.4-26.3-0.5c-6.2,1-28.2-9.6-28.2-9.6s6.7-3.8,8.1-16.3C220.5,214.5,222.9,205.9,222.9,205.9z"/>
	<path class="st3" d="M138.7,29.7c0,0,0.5-17.2-18.7-15.3s-7.7,30.2-7.7,30.2L138.7,29.7z"/>
	<path class="st4" d="M211,243.2c0,0,5.3,18.7,7.2,19.6c1.9,1-3.8,3.4-3.8,3.4s-28.7-7.7-32.1-11.5c-3.4-3.8-20.1-3.4-20.1-3.4
		s-11,13.4-32.1,10.1C109,258,98.5,271,98.5,271s-7.7-13.9,18.2-32.6c0,0-20.1-6.2-18.7-10.5c0,0-19.1,15.8-44,16.8
		s-44,7.2-43.6,13.9c0,0,0-34,31.1-45.5s36.9-5.7,36.9-5.7S74,180,86.5,168c12.4-12,24.9-29.2,24.9-29.2s21.1-29.2,17.7-52.2
		c0,0,26.8-9.1,15.3-17.7c0,0-15.8,10.5-30.2,8.6l-14.8,1.9c0,0-10.5,1-10.5-3.8c0,0-1.9-12.4,4.3-20.6s7.7-11.5,7.7-11.5
		s-6.2-14.4-1.4-14.8c4.8-0.5,11.5,8.1,11.5,8.1s10.5-14.4,32.6-5.3c0,0,9.6-15.8,24.4-8.6c14.8,7.2,10.1,22,10.1,22
		s-6.2,12-14.8,12.4c0,0-1.4,13.4-3.4,17.7c-1.9,4.3-17.2,44-13.9,54.6s77.1,76.1,77.1,76.1S223.4,237,211,243.2z"/>
	<path class="st5" d="M155.9,68.5c0,0-5.7,9.1-1,11.5C159.7,82.3,161.2,66.5,155.9,68.5z"/>
	<path class="st5" d="M149.2,83.8c-0.5,1.4-4.8,5.3-1.9,7.7C150.2,93.8,149.2,83.8,149.2,83.8z"/>
	<path class="st5" d="M87.9,176.7c0,0-7.7,8.1-6.7,12.9c1,4.8,6.2-2.4,6.2-2.4S90.8,180,87.9,176.7z"/>
	<path class="st5" d="M81.7,196.8c0,0-3.4,3.4,0.5,7.2C86,207.8,82.2,197.2,81.7,196.8z"/>
	<path class="st5" d="M115.7,214c0,0-5.7,7.2-1.4,10.5c4.3,3.4,6.2,1.9,6.2,1.9S121,216.4,115.7,214z"/>
	<path class="st5" d="M125.7,229.3c0,0-2.9,1.9-1,3.4c1.9,1.4,1.9,1.4,1.9,1.4L125.7,229.3z"/>
	<path class="st6" d="M157.3,136c0,0-11-13.9-25.8-1.9s-18.7,15.3-18.7,15.3s-28.7,23.9-23,54.6c0,0,4.8,1.9,15.3,1.9
		s23,15.3,23,15.3s9.6,15.8,27.3,14.8s24.4,1.9,24.4,1.9l16.8,5.3c0,0,5.7,5.7,13.9-5.3c8.1-11,10.1-16.8,10.1-16.8
		s6.7-17.7-1.4-20.6L201,224.4l-46.9-6.7l-22.5-24.4L157.3,136z"/>
	<path class="st7" d="M186.1,149.8l5.7-5.7c0,0,5.7,0,6.2,5.7s-1,3.8,1,8.6C200.9,163.2,186.1,149.8,186.1,149.8z"/>
	<path class="st7" d="M210.5,174.3l5.3-1c0,0,10.6,0.8,7.2,7.7c-1,1.9-6.2,7.7-5.7,13.4C217.7,200.1,210.5,174.3,210.5,174.3z"/>
	<path class="st8" d="M157.3,136c0,0,1.4-12,6.7-11.5s9.6,2.4,9.6,2.4l-0.5,15.8c0,0,29.7,11.5,37.3,31.6c0,0,11.5,12,8.6,31.6
		s-13.9,26.8-13.9,26.8s-6.7,1.9-11.5-0.5s-21.5-4.3-21.5-4.3s-23.5,3.8-29.7-2.4s-15.8-18.2-15.8-18.2s-10.1-10.1-21.1-11
		c-11-1-9.6-11.5-9.6-11.5s8.6-24.4,12.4-25.8s12.9-5.7,12.9-5.7s-2.9-6.7,3.8-7.2c6.7-0.5,6.7-0.5,6.7-0.5s9.1-5.7,11.5-8.6
		C145.8,134,157.3,136,157.3,136z"/>
</g>
</svg>
