<?xml version="1.0" encoding="utf-8"?>
<!-- Generator: Adobe Illustrator 23.0.6, SVG Export Plug-In . SVG Version: 6.00 Build 0)  -->
<svg version="1.1" id="Layer_1" xmlns="http://www.w3.org/2000/svg" xmlns:xlink="http://www.w3.org/1999/xlink" x="0px" y="0px"
	 viewBox="0 0 288 288" style="enable-background:new 0 0 288 288;" xml:space="preserve">
<style type="text/css">
	.st0{opacity:0.5;}
	.st1{fill:#BA939A;}
	.st2{fill:#ECB6BA;}
	.st3{fill:#B0AFB9;}
	.st4{fill:#F4F3F4;}
	.st5{fill:#F4EAC8;}
	.st6{fill:#B7AC99;}
	.st7{fill:#695D71;}
	.st8{fill:#DFC1CB;}
</style>
<g class="st0">
	<path d="M55.3,250c0,0,3.4,5.1,6.7,5.6l-2.2,5.1l17.4,9.6c0,0,20.8-4.5,25.3-7.9s6.2-5.1,6.2-5.1s0-9,3.4-11.8
		C115.5,242.7,80,214,80,214L55.3,250z"/>
	<path d="M175.7,81.2c0,0,21.9-35.4,73.1-19.1s36,102.9,36,102.9s-24.2,65.2-14.6,81c0,0-9,13.5-27.6-19.7c0,0-12.9,15.2-14.6,14.6
		C226.3,240.4,175.7,81.2,175.7,81.2z"/>
	<path d="M80.6,98.1c0,0-3.4-9-14.1-16.9s2.2-19.7,2.2-19.7S80.6,23.3,112,22.1c31.5-1.1,48.9,14.1,48.9,14.1s18,25.3,14.6,45
		L190.3,97c0,0,61.9-7.3,69.2,32.1c0,0-1.1,23.1-18.6,21.4c0,0-29.8-14.6-30.9-11.8c0,0,10.1,18,7.3,37.1c0,0,33.2,36-0.6,95.6
		l-11.2,2.2l-30.4-7.3l-11.8-14.7c0,0-57.9,11.8-82.7-26.4s-19.7-95.6-19.7-95.6s-11.2,1.7-18.6,5.6c-7.3,3.9-16.3-1.1-16.3-1.1
		s-22.5-11.8,9.6-33.7C35.6,100.3,51.4,90.2,80.6,98.1z"/>
	<path d="M59.8,260.6c0,0-19.7,5.6-1.7,9.6c18,3.9,19.1,0,19.1,0S85.1,263.5,59.8,260.6z"/>
	<path d="M175.1,266.2c0,0-10.7,9,18.6,11.8c0,0,24.7-2.8-1.7-13.5C192,264.6,175.1,261.2,175.1,266.2z"/>
	<path d="M26,134.1c0,0,6.2-4.5,8.4,0c0,0-1.7,5.1-4.5,3.9C27.2,136.9,26,134.1,26,134.1z"/>
	<path d="M229.7,144.2c0,0,11.8,1.1,11.2,6.2c0,0-3.9,3.4-5.6,2.8C233.6,152.6,229.7,144.2,229.7,144.2z"/>
	<circle cx="186.4" cy="229.1" r="19.7"/>
	<circle cx="185.7" cy="228.9" r="13.9"/>
	<path d="M120.5,128.5c0,0,28.7,1.7,39.9-24.2c0,0,21.9,47.8-27,63.6s-57.9-20.8-57.9-20.8L120.5,128.5z"/>
	<path d="M93,178.5c4.9,2.2,20.3,8.3,39.2,3.4c13.3-3.4,22-10.7,26.1-14.7c2.7-3,5.8-6.9,8.4-11.8c6.4-12,7-23.5,6.8-29.8
		c6.8,25.2-0.1,51.5-18,68.1c-18.2,16.8-40.6,17-46.1,16.9c-18-4.7-30.6-13.2-30.9-21.9c0-0.8-0.2-6.5,3.8-9.5
		C86.5,176,92.4,178.2,93,178.5z"/>
	<path d="M83.4,214c0,0,37.7,34.9,78.2-7.3c0,0-4.5,19.1-2.2,21.9c0,0-29.2,34.3-78.7-3.4L83.4,214z"/>
	<path d="M142.5,252.8c0,0,15.2-3.4,17.4-9.6c0,0-0.6,5.1,3.4,8.4C163.3,251.6,144.2,253.9,142.5,252.8z"/>
	<path d="M84.5,94.7c0,0,2.2-9.6-3.4-16.3c0,0,24.7,11.8,52.3-4.5c0,0,16.9-1.1,20.2,6.2c3.4,7.3-3.9,22.5-3.9,22.5L84.5,94.7z"/>
	<path d="M108.8,93.6c0,0-14.6-7.9-24.2,1.1s-23.6,34.9-23.6,34.9s-63,59.1-53.4,96.2s39.4,30.9,39.4,30.9s31.5,10.1,46.1-78.2
		c0,0,30.9-58.5,36.6-59.6c0,0,20.2-7.3,20.2-16.3s-16.9-12.9-16.9-12.9S116,90.2,108.8,93.6z"/>
</g>
<g>
	<path class="st1" d="M50,244.6c0,0,3.4,5.1,6.7,5.6l-2.2,5.1l17.4,9.6c0,0,20.8-4.5,25.3-7.9s6.2-5.1,6.2-5.1s0-9,3.4-11.8
		s-32.1-31.5-32.1-31.5L50,244.6z"/>
	<path class="st1" d="M170.4,75.8c0,0,21.9-35.4,73.1-19.1s36,102.9,36,102.9s-24.2,65.2-14.6,81c0,0-9,13.5-27.6-19.7
		c0,0-12.9,15.2-14.6,14.6C221,235,170.4,75.8,170.4,75.8z"/>
	<path class="st2" d="M75.3,92.7c0,0-3.4-9-14.1-16.9s2.2-19.7,2.2-19.7s11.8-38.2,43.3-39.4c31.5-1.1,48.9,14.1,48.9,14.1
		s18,25.3,14.6,45L185,91.6c0,0,61.9-7.3,69.2,32.1c0,0-1.1,23.1-18.6,21.4c0,0-29.8-14.6-30.9-11.8c0,0,10.1,18,7.3,37.1
		c0,0,33.2,36-0.6,95.6l-11.2,2.2l-30.4-7.3L158,246.2c0,0-57.9,11.8-82.7-26.4s-19.7-95.6-19.7-95.6s-11.2,1.7-18.6,5.6
		c-7.3,3.9-16.3-1.1-16.3-1.1S-1.8,116.9,30.3,95C30.3,94.9,46.1,84.8,75.3,92.7z"/>
	<path class="st3" d="M54.5,255.2c0,0-19.7,5.6-1.7,9.6c18,3.9,19.1,0,19.1,0S79.8,258.1,54.5,255.2z"/>
	<path class="st4" d="M169.8,260.9c0,0-10.7,9,18.6,11.8c0,0,24.7-2.8-1.7-13.5C186.7,259.2,169.8,255.8,169.8,260.9z"/>
	<path class="st4" d="M20.7,128.7c0,0,6.2-4.5,8.4,0c0,0-1.7,5.1-4.5,3.9C21.9,131.5,20.7,128.7,20.7,128.7z"/>
	<path class="st4" d="M224.4,138.8c0,0,11.8,1.1,11.2,6.2c0,0-3.9,3.4-5.6,2.8C228.3,147.2,224.4,138.8,224.4,138.8z"/>
	<circle class="st5" cx="181.1" cy="223.7" r="19.7"/>
	<circle class="st2" cx="180.4" cy="223.5" r="13.9"/>
	<path class="st5" d="M115.2,123.1c0,0,28.7,1.7,39.9-24.2c0,0,21.9,47.8-27,63.6s-57.9-20.8-57.9-20.8L115.2,123.1z"/>
	<path class="st5" d="M87.7,173.1c4.9,2.2,20.3,8.3,39.2,3.4c13.3-3.4,22-10.7,26.1-14.7c2.7-3,5.8-6.9,8.4-11.8
		c6.4-12,7-23.5,6.8-29.8c6.8,25.2-0.1,51.5-18,68.1c-18.2,16.8-40.6,17-46.1,16.9c-18-4.7-30.6-13.2-30.9-21.9
		c0-0.8-0.2-6.5,3.8-9.5C81.2,170.6,87.1,172.9,87.7,173.1z"/>
	<path class="st6" d="M78.1,208.6c0,0,37.7,34.9,78.2-7.3c0,0-4.5,19.1-2.2,21.9c0,0-29.2,34.3-78.7-3.4L78.1,208.6z"/>
	<path class="st6" d="M137.2,247.4c0,0,15.2-3.4,17.4-9.6c0,0-0.6,5.1,3.4,8.4C158,246.2,138.9,248.5,137.2,247.4z"/>
	<path class="st7" d="M79.2,89.3c0,0,2.2-9.6-3.4-16.3c0,0,24.7,11.8,52.3-4.5c0,0,16.9-1.1,20.2,6.2c3.4,7.3-3.9,22.5-3.9,22.5
		L79.2,89.3z"/>
	<path class="st8" d="M103.4,88.2c0,0-14.6-7.9-24.2,1.1s-23.6,34.9-23.6,34.9s-63,59.1-53.4,96.2s39.4,30.9,39.4,30.9
		s31.5,10.1,46.1-78.2c0,0,30.9-58.5,36.6-59.6c0,0,20.2-7.3,20.2-16.3s-16.9-12.9-16.9-12.9S110.7,84.8,103.4,88.2z"/>
</g>
</svg>
