<?xml version="1.0" encoding="utf-8"?>
<!-- Generator: Adobe Illustrator 23.0.6, SVG Export Plug-In . SVG Version: 6.00 Build 0)  -->
<svg version="1.1" id="Layer_1" xmlns="http://www.w3.org/2000/svg" xmlns:xlink="http://www.w3.org/1999/xlink" x="0px" y="0px"
	 viewBox="0 0 288 288" style="enable-background:new 0 0 288 288;" xml:space="preserve">
<style type="text/css">
	.st0{opacity:0.5;}
	.st1{fill:#6E798A;}
	.st2{fill:#A0B2C2;}
	.st3{fill:#474D55;}
	.st4{fill:#D5C489;}
	.st5{fill:#5D534B;}
	.st6{fill:#E9DCB9;}
	.st7{fill:#B89AA9;}
	.st8{fill:#88807A;}
	.st9{fill:#B9AFA5;}
</style>
<g class="st0">
	<path d="M182.8,100.1l3.3,0.9c0,0,4.7-7.6,13.3-6.6s10.9,1.9,10.9,1.9s0.5-10.4,1.4-14.2c0.9-3.8-3.3-10.9-3.3-10.9
		s-13.3,6.6-17.1-4.3l0.9-5.7c0,0-6.2-10.9-4.3-13.3c1.9-2.4,5.2-8.1,5.2-8.1s10.9-5.2,17.1-3.8c6.2,1.4,19.5,8.1,19.5,8.1
		s5.7,0.9,4.7,14.2s10,36.1,10,36.1s2.4,10,0.5,14.7l-1.4,3.8c0,0-3.3,5.7-11.9,5.7c0,0-30.8,13.3-32.3,16.6l-31.8-1.9l-80.1-23.7
		L77,103.9l-10.4-8.5c0,0-7.1,0.9-7.6-3.8c-0.5-4.7-0.9-8.5-0.9-8.5L48,44.6c0,0-5.7-10.4-2.8-13.8s6.2-6.6,6.2-6.6l7.1-3.3
		c0,0,3.3-2.8,7.6-3.8s6.6-7.1,6.6-7.1s14.7-1.4,22.8,16.6l-1.9,6.2l2.4,2.4c0,0,2.8,9.5-3.8,10.4c-6.6,0.9-7.6-0.5-7.6-0.5
		s-0.9,2.4-4.3,1.9c0,0,0,10.9,5.2,15.7c5.2,4.7,4.7,12.3,4.7,12.3l10.4,7.6c0,0,10.9-2.8,19,3.3c8.1,6.2,10.9,4.3,10.9,4.3
		l10.4-0.9L182.8,100.1z"/>
	<path d="M182.4,128.1c0,0,21.4-1.4,25.6,16.1c0,0,10.4,9.5,17.1,9.5c0,0,9,2.4,14.7,6.6s10.9,12.3,10.9,12.3l9.5,6.2l11.4,14.7
		l0.5,4.7c0,0,5.2,3.8-0.5,6.6c0,0,5.2,5.7-0.9,6.6c-6.2,0.9-5.7-0.5-5.7-0.5s-9,3.8-15.2-5.2c0,0-5.2,6.2-8.1,4.3
		c0,0-7.1-6.6-11.4-6.6c-4.3,0,0-10,0-10s1.4-5.2-3.8-6.2c-5.2-0.9-19.5-6.6-19.5-6.6s-6.6-7.6-9.5-13.8c-2.8-6.2-10-4.7-10-4.7
		l-7.1,12.3c0,0-6.2,6.6-10.4,5.7c-4.3-0.9-9.5,5.2-9.5,5.2s1.4,4.3,5.7,6.2c0,0,17.6,7.1,22.8,12.8c0,0,10.4,2.8,10.4,17.6l1.4,2.8
		l-4.3,7.6l-2.8,1.4c0,0-8.1,3.8-8.1,7.6c0,1.4-2.8,2.4,3.8,12.8c0,0,10.4,5.7,17.1,7.6c6.6,1.9,1.4,8.5,1.4,8.5l-14.2-0.5l-0.9,2.4
		l-16.1-0.9c0,0-5.7-6.2-8.5-8.1c-2.8-1.9-7.1-3.8-7.1-3.8s-4.3-7.1-0.5-9s5.2-6.2,5.2-6.2s-8.5-9-4.3-12.3c4.3-3.3,5.2-4.7,5.2-4.7
		s-16.1-1.4-20.4-7.1c-4.3-5.7-4.7-10-4.7-10l-20.4,9.5c0,0-3.8,9.5-11.4,10.9S97,232.8,97,232.8s1.4,8.1-1.4,12.8s-10,8.1-10,8.1
		s-7.1,1.9-7.6,7.1c0,0,5.2,8.5,2.8,11.9c0,0-12.3,8.1-11.9,11.9S55.1,286,55.1,286s-2.4-4.7,0-5.7c0,0-7.1,0-9.5,3.3
		c0,0-14.7,2.8-13.8-1.9c0.9-4.7,4.7-7.6,4.7-7.6l6.6-0.9c0,0,17.1-11.4,17.6-20.9c0.5-9.5,1.4-16.6,1.4-16.6s1.9-5.7,7.1-8.5
		s8.1-7.1,8.1-7.1s6.2-25.6,29.9-31.3l9-5.7l-1.4-4.7c0,0,1.4-2.4-4.3-6.2c-5.7-3.8-10.9-15.2-10.9-15.2s-3.8,6.2-7.1,6.6
		c-3.3,0.5-0.5,5.7-0.5,5.7s11.9,3.3,7.1,8.5s-14.2-2.4-14.2-2.4s-5.7-0.9-16.1,1.4s-13.3-7.1-13.3-7.1l23.3-18l-2.8-4.3l3.8-0.9
		L77,158.4l10.4-10l-1.4-4.3l5.2-0.5l-4.2,12l-27.5,17.6c0,0-9.5-10-11.9-10c0,0-6.2-3.8-7.1-13.8l-2.4-7.1c0,0,0.5-12.3,6.6-13.3
		c6.2-0.9,10.9-7.1,10.9-7.1s12.8-3.8,19.9-4.7l4.3-1.9c0,0,11.9-10.9,21.8-9s31.3-1.9,31.3-1.9s11.9-12.3,24.7-11.4
		s22.3,10.4,22.3,10.4l-0.5,23.3L182.4,128.1z"/>
	<path d="M107.4,188.8c0,0,27.5-1.4,13.8,30.8c0,0,15.2-2.8,17.6-3.8c2.4-0.9,7.6,4.3,7.6,4.3s-5.7-23.3,19.9-28.5
		c0,0-4.7-3.8-5.7-6.2l-44.1-2.4L107.4,188.8z"/>
	<path d="M115,178.4c0,0-4.5-0.8-0.7,3.2L115,178.4z"/>
	<path d="M113.8,183.7l17.1,8.5l21.1-1.7l9.7-2.8l-1.2-2.3c0,0-38.5-0.8-45.6-7.1L113.8,183.7z"/>
	<path d="M126.8,181.6h3.8c0,0,3.3-3.6,8.8-3.1s8.3,4.3,8.3,4.3l3.6,0.7l-0.2,7.4l-2.4,1.2c0,0-0.5,6.9-10.4,5.7
		c-10-1.2-9-6.2-9-6.2l-4-1.4L126.8,181.6z"/>
	<ellipse cx="122" cy="184.6" rx="1.8" ry="2"/>
	<ellipse cx="158.8" cy="187" rx="1.1" ry="0.7"/>
	<ellipse cx="154.4" cy="187.6" rx="0.9" ry="1.1"/>
	<circle cx="117.7" cy="182.4" r="1.3"/>
	<path d="M140.8,112.1c0,0,5.2,4.3,7.1,6.6l2.1,1.2c0,0,12.3,3.1,19.2,11.6c0,0,9.5-0.2,10.2-8.1c0,0,3.8,3.1,3.1,5.7
		c-0.7,2.6-13.5,9.5-13.5,9.5s0.9,8.8-4.3,8.1s-7.4-0.5-7.4-0.5s-7.6,3.8-11.2,0c-3.6-3.8-12.6-12.3-12.6-12.3s-0.2-4,1.2-7.6
		S134,117,134,117S135.1,109.9,140.8,112.1z"/>
	<path d="M144.2,123c0,0,3.6,3.1,8.1,4.3s10.4,8.1,10.4,8.1s1.9,2.8,3.3,2.8c0,0,0.9,4-3.8,3.3s-9.5,0.9-9.5,0.9s-7.1-0.2-6.6-3.6
		C146.5,135.6,144.2,123,144.2,123z"/>
	<path d="M172.4,92.6c0,0,10.2-4,11.2,5.7s-9.7,28.5-9.7,28.5L172.4,92.6z"/>
	<path d="M150.6,89c0,0,12.6-23.7,20.9,2.6s-1.2,35.4-1.2,35.4s1.4-30.8-14.5-33.7c0,0,15.9,19.9,9.3,33.7c0,0-13.3-33.9-27.8-26.6
		c0,0-0.5-15.2,5.2-14.9C148.2,85.7,150.6,89,150.6,89z"/>
</g>
<g>
	<path class="st1" d="M178.9,94.5l3.3,0.9c0,0,4.7-7.6,13.3-6.6s10.9,1.9,10.9,1.9s0.5-10.4,1.4-14.2c0.9-3.8-3.3-10.9-3.3-10.9
		s-13.3,6.6-17.1-4.3l0.9-5.7c0,0-6.2-10.9-4.3-13.3c1.9-2.4,5.2-8.1,5.2-8.1s10.9-5.2,17.1-3.8c6.2,1.4,19.5,8.1,19.5,8.1
		s5.7,0.9,4.7,14.2s10,36.1,10,36.1s2.4,10,0.5,14.7l-1.4,3.8c0,0-3.3,5.7-11.9,5.7c0,0-30.8,13.3-32.3,16.6l-31.8-1.9L83.5,104
		l-10.4-5.7l-10.4-8.5c0,0-7.1,0.9-7.6-3.8c-0.5-4.7-0.9-8.5-0.9-8.5L44.1,39c0,0-5.7-10.4-2.8-13.8s6.2-6.6,6.2-6.6l7.1-3.3
		c0,0,3.3-2.8,7.6-3.8s6.6-7.1,6.6-7.1S83.5,3,91.6,21l-1.9,6.2l2.4,2.4c0,0,2.8,9.5-3.8,10.4c-6.6,0.9-7.6-0.5-7.6-0.5
		s-0.9,2.4-4.3,1.9c0,0,0,10.9,5.2,15.7c5.2,4.7,4.7,12.3,4.7,12.3L96.7,77c0,0,10.9-2.8,19,3.3c8.1,6.2,10.9,4.3,10.9,4.3l10.4-0.9
		L178.9,94.5z"/>
	<path class="st2" d="M178.5,122.5c0,0,21.4-1.4,25.6,16.1c0,0,10.4,9.5,17.1,9.5c0,0,9,2.4,14.7,6.6s10.9,12.3,10.9,12.3l9.5,6.2
		l11.4,14.7l0.5,4.7c0,0,5.2,3.8-0.5,6.6c0,0,5.2,5.7-0.9,6.6c-6.2,0.9-5.7-0.5-5.7-0.5s-9,3.8-15.2-5.2c0,0-5.2,6.2-8.1,4.3
		c0,0-7.1-6.6-11.4-6.6c-4.3,0,0-10,0-10s1.4-5.2-3.8-6.2c-5.2-0.9-19.5-6.6-19.5-6.6s-6.6-7.6-9.5-13.8c-2.8-6.2-10-4.7-10-4.7
		l-7.1,12.3c0,0-6.2,6.6-10.4,5.7c-4.3-0.9-9.5,5.2-9.5,5.2s1.4,4.3,5.7,6.2c0,0,17.6,7.1,22.8,12.8c0,0,10.4,2.8,10.4,17.6l1.4,2.8
		l-4.3,7.6l-2.8,1.4c0,0-8.1,3.8-8.1,7.6c0,1.4-2.8,2.4,3.8,12.8c0,0,10.4,5.7,17.1,7.6c6.6,1.9,1.4,8.5,1.4,8.5l-14.2-0.5l-0.9,2.4
		l-16.1-0.9c0,0-5.7-6.2-8.5-8.1s-7.1-3.8-7.1-3.8s-4.3-7.1-0.5-9s5.2-6.2,5.2-6.2s-8.5-9-4.3-12.3c4.3-3.3,5.2-4.7,5.2-4.7
		s-16.1-1.4-20.4-7.1c-4.3-5.7-4.7-10-4.7-10l-20.4,9.5c0,0-3.8,9.5-11.4,10.9s-12.8,2.4-12.8,2.4s1.4,8.1-1.4,12.8s-10,8.1-10,8.1
		s-7.1,1.9-7.6,7.1c0,0,5.2,8.5,2.8,11.9c0,0-12.3,8.1-11.9,11.9s-13.8,1.4-13.8,1.4s-2.4-4.7,0-5.7c0,0-7.1,0-9.5,3.3
		c0,0-14.7,2.8-13.8-1.9s4.7-7.6,4.7-7.6l6.6-0.9c0,0,17.1-11.4,17.6-20.9s1.4-16.6,1.4-16.6s1.9-5.7,7.1-8.5s8.1-7.1,8.1-7.1
		s6.2-25.6,29.9-31.3l9-5.7l-1.4-4.7c0,0,1.4-2.4-4.3-6.2c-5.7-3.8-10.9-15.2-10.9-15.2s-3.8,6.2-7.1,6.6c-3.3,0.5-0.5,5.7-0.5,5.7
		s11.9,3.3,7.1,8.5S81,169.8,81,169.8s-5.7-0.9-16.1,1.4s-13.3-7.1-13.3-7.1l23.3-18l-2.8-4.3l3.8-0.9l-2.8,11.9l10.4-10l-1.4-4.3
		l5.2-0.5l-4.2,12l-27.5,17.6c0,0-9.5-10-11.9-10c0,0-6.2-3.8-7.1-13.8l-2.4-7.1c0,0,0.5-12.3,6.6-13.3c6.2-0.9,10.9-7.1,10.9-7.1
		s12.8-3.8,19.9-4.7l4.3-1.9c0,0,11.9-10.9,21.8-9s31.3-1.9,31.3-1.9s11.9-12.3,24.7-11.4S176,97.8,176,97.8l-0.5,23.3L178.5,122.5z
		"/>
	<path class="st3" d="M103.5,183.2c0,0,27.5-1.4,13.8,30.8c0,0,15.2-2.8,17.6-3.8c2.4-0.9,7.6,4.3,7.6,4.3s-5.7-23.3,19.9-28.5
		c0,0-4.7-3.8-5.7-6.2l-44.1-2.4L103.5,183.2z"/>
	<path class="st4" d="M111.1,172.8c0,0-4.5-0.8-0.7,3.2L111.1,172.8z"/>
	<path class="st5" d="M109.9,178.1l17.1,8.5l21.1-1.7l9.7-2.8l-1.2-2.3c0,0-38.5-0.8-45.6-7.1L109.9,178.1z"/>
	<path class="st4" d="M122.9,176h3.8c0,0,3.3-3.6,8.8-3.1s8.3,4.3,8.3,4.3l3.6,0.7l-0.2,7.4l-2.4,1.2c0,0-0.5,6.9-10.4,5.7
		c-10-1.2-9-6.2-9-6.2l-4-1.4L122.9,176z"/>
	<ellipse class="st4" cx="118.1" cy="179" rx="1.8" ry="2"/>
	<ellipse class="st4" cx="154.9" cy="181.4" rx="1.1" ry="0.7"/>
	<ellipse class="st4" cx="150.5" cy="182" rx="0.9" ry="1.1"/>
	<circle class="st4" cx="113.8" cy="176.8" r="1.3"/>
	<path class="st6" d="M136.9,106.5c0,0,5.2,4.3,7.1,6.6l2.1,1.2c0,0,12.3,3.1,19.2,11.6c0,0,9.5-0.2,10.2-8.1c0,0,3.8,3.1,3.1,5.7
		s-13.5,9.5-13.5,9.5s0.9,8.8-4.3,8.1s-7.4-0.5-7.4-0.5s-7.6,3.8-11.2,0c-3.6-3.8-12.6-12.3-12.6-12.3s-0.2-4,1.2-7.6
		s-0.7-9.3-0.7-9.3S131.2,104.3,136.9,106.5z"/>
	<path class="st7" d="M140.3,117.4c0,0,3.6,3.1,8.1,4.3c4.5,1.2,10.4,8.1,10.4,8.1s1.9,2.8,3.3,2.8c0,0,0.9,4-3.8,3.3
		s-9.5,0.9-9.5,0.9s-7.1-0.2-6.6-3.6C142.6,130,140.3,117.4,140.3,117.4z"/>
	<path class="st8" d="M168.5,87c0,0,10.2-4,11.2,5.7s-9.7,28.5-9.7,28.5L168.5,87z"/>
	<path class="st9" d="M146.7,83.4c0,0,12.6-23.7,20.9,2.6s-1.2,35.4-1.2,35.4s1.4-30.8-14.5-33.7c0,0,15.9,19.9,9.3,33.7
		c0,0-13.3-33.9-27.8-26.6c0,0-0.5-15.2,5.2-14.9C144.3,80.1,146.7,83.4,146.7,83.4z"/>
</g>
</svg>
