<?xml version="1.0" encoding="utf-8"?>
<!-- Generator: Adobe Illustrator 23.0.6, SVG Export Plug-In . SVG Version: 6.00 Build 0)  -->
<svg version="1.1" id="Layer_1" xmlns="http://www.w3.org/2000/svg" xmlns:xlink="http://www.w3.org/1999/xlink" x="0px" y="0px"
	 viewBox="0 0 288 288" style="enable-background:new 0 0 288 288;" xml:space="preserve">
<style type="text/css">
	.st0{opacity:0.5;}
	.st1{fill:#EFEBEA;}
	.st2{fill:#B2AEB8;}
	.st3{fill:#92534A;}
	.st4{fill:#C5A770;}
	.st5{fill:#0A2339;}
	.st6{fill:#A39167;}
	.st7{fill:#DB6F4C;}
	.st8{fill:#F4CE83;}
	.st9{fill:#E07852;}
	.st10{fill:#3D4A55;}
	.st11{fill:#E0BEAA;}
	.st12{fill:#A9828E;}
</style>
<g class="st0">
	<path d="M57.4,141.1c0,0-10.7,4.6-11.2,7.6l11.7-0.5l-3.6,9.7l15.3-3.1L57.4,141.1z"/>
	<path d="M256.2,124.8l4.1-5.1l0.5,4.1l5.1-6.1l1,5.6c0,0,9.7-12.8,9.7-10.2c0,2-2.5,12.2-2.5,12.2l10.7-7.1l-5.6,14.7l10.2,9.2
		l-15.3,0.5L256.2,124.8z"/>
	<path d="M142.8,97.8c0,0-35.1-11.7-37.1-10.2s25.9,29,25.9,29L142.8,97.8z"/>
	<path d="M122,121.6c0,0-28.5-12.2-29-8.1s19.8,20.8,19.8,20.8L122,121.6z"/>
	<path d="M126,158.2l-37.6-18.8l-1,11.7c0,0,45.2,22.4,47.8,36.1L126,158.2z"/>
	<path d="M119.9,175.1c0,0-32-8.1-30.5-5.1c1.5,3.1,20.3,22.9,20.3,22.9L119.9,175.1z"/>
	<path d="M217.6,114l6.6-1.5l3.1,6.6l0.5-6.1l5.1,0.5l4.6,8.1v-6.1l5.6-0.5l5.1,5.1h5.6l2.5,4.6c0,0,15.8-3.6,20.3,1.5
		c4.6,5.1,1.5,12.2,1.5,12.2s-10.2,15.8-25.4,8.1l-5.1,1.5l-2.5,4.1l-8.1-1.5v-3.1l-3.6,4.1l-6.1-3.6l1-3.6l-3.1,4.6l-2.5-3.1
		l-4.1,2l-5.1-5.1L217.6,114z"/>
	<path d="M188.1,107.9c0,0,22.9-8.1,31.5,11.7s-18.3,29.5-18.3,29.5l-17.3-32L188.1,107.9z"/>
	<path d="M211.5,227.9c0,0-12.2,6.1-4.1,18.3c0,0,1.5,3.6,10.7,5.1c0,0,18.8,13.2,24.9,11.2c6.1-2,20.8-6.6,20.8-6.6l-2.5-11.2
		c0,0-6.1-5.6-12.2-8.1c-6.1-2.5-14.2-9.7-14.2-9.7L211.5,227.9z"/>
	<path d="M210.4,222.3l3.1,8.6c0,0,17.8,9.7,23.4-3.1l-7.1-19.8L210.4,222.3z"/>
	<path d="M218.6,170.6c0,0,25.4,7.1,13.2,37.1s-50.3,1-50.3,1L218.6,170.6z"/>
	<path d="M103.7,221.8c0,0-21.9,8.6-45.2-11.2l-10.2-5.1l-3.6,1c0,0,14.7,36.1,49.3,38.1l28,4.6c0,0,41.7,2,58.5-29l-39.7-10.6
		L103.7,221.8z"/>
	<path d="M126,150.1c0,0-8.1,18.8-6.1,24.9c2,6.1,47.3,17.3,47.3,17.3l34.6,5.1l13.7-42.2c0,0-4.6-27.5-24.9-38.1l-32.5,4.6
		L126,150.1z"/>
	<path d="M18.8,176.6c0,0,3.1-11.7-1.5-14.7c-4.6-3.1-8.1-3.6-8.1-3.6s-4.6-6.6,0-14.7c4.6-8.1,1-16.8,1-16.8l3.1,1.5l-1.5-8.1
		c0,0,6.6,8.1,6.6,11.7c0,3.6,5.6,8.6,5.6,8.6s-0.5-3.6,3.1-5.6s4.6-6.6,4.6-6.6l0.5,10.2l2.5-1l-0.5,9.7l9.7,11.2l-5.6,19.8
		l-12.2,8.1l-6.6-4.6L18.8,176.6z"/>
	<path d="M44.7,206.6l-7.6-14.7c0,0-5.6,0.5-7.1,2s-11.2-4.6-11.2-4.6s-5.1-5.6,0-12.7l5.6,4.6l-2-5.6l5.1,2.5c0,0-5.1-7.6-4.1-10.2
		c1-2.5-1,2.5-1,2.5s7.6,11.2,10.2,8.6l-1.5-4.1l4.1,1.5c0,0-11.2-8.1-8.1-21.9c0,0,1.5,14.7,4.6,12.2c0,0-2.5-11.2,1.5-13.2
		l2.5,4.1c0,0,1-8.1-1.5-8.6s-3.6,1.5-3.6,1.5s2.5-12.7,4.1-13.2c0,0-2.5,9.7,4.6,13.7c7.1,4.1,7.6,7.6,7.6,7.6s-2,10.2-4.6,10.2
		s6.6,6.6,6.6,6.6s4.1,8.1-5.1,9.7C34.6,186.6,56,208,56,208l2.5,2.5l2,5.1L49.3,208l-0.5,6.6L44.7,206.6z"/>
	<path d="M134.2,58.6c0,0,7.1-2.5,7.6-6.1s-1-4.1-1-4.1s-9.7-1.5-8.1-7.1c1.5-5.6,12.2-8.1,12.2-8.1s5.1-2.5,1.5-5.6
		s-4.6-5.1-4.6-5.1h4.6c0,0,0.5-5.6-2-8.1c0,0,12.2,3.1,14.2,10.2l4.1-4.1c0,0,0.5,9.7,2,11.2s-5.1,4.6-5.1,4.6s-4.6,6.1,0.5,7.1
		l2-4.6l1,11.2l1.5-2l2.5,9.7c0,0,10.7,0,9.7-8.6s-1-8.6-1-8.6s4.1-3.1,10.2-1.5c6.1,1.5,2-11.2,2-11.2s-1-5.6,4.1-7.6
		s6.6-12.7,6.6-12.7s6.6,10.7,5.6,13.2l3.1-4.6c0,0-3.1,8.1,1,14.2s-8.6,5.6-7.1,8.6c1.5,3.1,8.6,11.2,8.6,11.2s-0.5,6.6-6.1,9.2
		c-5.6,2.5-2,6.6-2,6.6l-2.5,6.1l-48.9,4.9l-19.8-6.1L134.2,58.6z"/>
	<path d="M137.2,172.1c0,0-29-4.1-37.6,20.8s12.7,35.6,12.7,35.6s20.3,12.7,39.1-8.1c0,0,26.4,9.2,45.2-7.6s20.8-32.5,20.8-32.5
		s1.5-19.8-2-24.9c0,0-6.6,1.5-6.1-3.1s0.5-4.6,0.5-4.6s-15.3,4.6-11.2,9.7c0,0,8.1,5.6,3.1,7.6s-5.6,4.6-5.6,4.6s-2,4.6,3.6,7.1
		s1,5.1,1,5.1s-9.7,1.5-9.2,7.1s-6.1,3.6-6.1,3.6s2-6.6,0-9.7l-6.6,3.1c0,0,4.1-6.6-4.6-8.1c0,0,2-4.1,4.1-7.1s0-5.6,0-5.6
		s-3.1-5.1-6.1-5.1s3.1-9.2,3.1-9.2s-17.3,1.5-15.8,7.1c0,0,3.1,3.6-3.1,5.1c-6.1,1.5-4.1,5.1-4.1,5.1s-1,5.1,2.5,7.6
		c3.6,2.5-8.6,4.1-8.6,4.1S140.8,171.1,137.2,172.1z"/>
	<path d="M120.4,119.6c0,0,6.1-15.3,22.4-11.7s16.8,23.9,16.8,23.9s-2,32.5-33.6,18.3L120.4,119.6z"/>
	<path d="M134.2,58.6l5.6-1l-2.5,5.6c0,0,7.6-6.6,10.2-6.6c0,0-8.1,5.1-5.1,7.6l6.6-4.1l-2,3.6c0,0,7.6-4.1,11.2-4.1l-2,3.6
		c0,0,6.6-6.1,16.8-5.1c0,0-8.6,4.6-6.6,8.6l9.2-3.6l-1.5,4.1l12.7-7.1l-5.1,8.6l6.1-5.1l0.5,4.6l4.6-8.1v5.1c0,0,1.5-6.1,6.6-6.1
		c0,0-5.1,8.6-3.6,12.7l5.6-4.1c0,0-1,3.6,1.5,11.7l8.6-2.5l-5.1,9.2l1,3.1c0,0-4.6-1-6.1,5.6S188.2,108,188.2,108
		s-14.7,8.1-24.4,5.6s-23.4-13.7-23.4-13.7s-6.6-6.6-4.6-9.2c0,0-16.8-7.6-12.7-18.3C127.1,61.6,134.2,58.6,134.2,58.6z"/>
	<path d="M81.8,127.8l5.1-5.6l6.1,1.5l2-3.1l8.1,2l2.5-2.5l4.1,2.5l2-5.1l6.1,1l2.5-4.6l8.6,4.6l-2,6.1l3.6,2.5l5.6-1l2,6.6
		l-5.1,4.1l4.1,2.5c0,0-1.5,8.1-5.1,9.2l-3.1-3.1l-3.6,2l0.5,2.5l-6.6,4.1l-3.1-6.6l-3.1,5.1l-3.1-1l-5.1,6.1l-4.6-5.1l-13.7,5.6
		l-4.1-5.1c0,0-21.4,6.6-24.9-8.1C53.9,130.1,70.7,126,70.7,126S80.8,124.8,81.8,127.8z"/>
	<path d="M187.2,107.9l4.1,7.1c0,0-14.2,18.8-34.1,6.6l2-6.6l3.6-1.5C162.8,113.5,177,115.5,187.2,107.9z"/>
	<path d="M98.1,237.1c0,0-3.6-0.5-12.7,12.2c-9.2,12.7-9.2,18.3-9.2,18.3l7.6,7.1l22.9,0.5c0,0,16.8-1.5,17.8-12.7
		s-0.5-12.7-0.5-12.7s4.1-6.6-2.5-10.2C114.9,236.1,98.1,237.1,98.1,237.1z"/>
	<path d="M103.7,221.8c0,0-7.1,17.3-7.1,20.3c0,0,3.6,11.2,24.4,3.1l4.1-13.2C125,232.1,117.9,234.1,103.7,221.8z"/>
	<path d="M243,262.6c0,0-7.6-9.2,0.5-14.2c8.1-5.1,14.7,17.8,14.7,17.8S244,260.5,243,262.6z"/>
	<path d="M260.3,256.5c0,0-1.5-10.7,1-11.7s15.8,14.2,15.8,14.2L260.3,256.5z"/>
	<path d="M152.5,91.1c0,0-5.1,3.6-7.1,6.1s-10.2,2.5-10.2,2.5s-3.6,5.1,1,11.2l4.1-2.5l6.1,2c0,0-4.1,11.7,4.6,12.2
		c8.6,0.5,12.2-7.1,12.2-7.1s5.6-5.1,11.2-7.1s4.6-5.1,4.6-5.1s0.5-2-8.6-4.1s-12.7-6.1-12.7-6.1S158.6,92.8,152.5,91.1z"/>
	<path d="M146.4,110.5c0,0,10.7,1.5,13.2-1.5c0,0-2.5,10.2-8.1,8.6S146.4,110.5,146.4,110.5z"/>
	<path d="M83.8,274.8c0-1,8.6-10.7,2.5-14.7c-6.1-4.1-13.2,20.8-13.2,20.8L83.8,274.8z"/>
	<path d="M111.3,264.6c0,0-11.2-1.5-4.1,20.8C107.2,285.5,125.5,271.7,111.3,264.6z"/>
	<path d="M75.7,128.4c0,0-17.3-8.6-19.3-6.1l12.2,12.7C68.6,134.9,75.2,132.4,75.7,128.4z"/>
	<path d="M64,132.9c0,0-18.3-1.5-18.3,0c0,1.5,14.2,8.1,14.2,8.1S65,134.9,64,132.9z"/>
	<path d="M83.3,148.1c0,0-2-10.2,5.1-8.6c7.1,1.5,7.6,18.8,7.6,18.8S86.9,146.6,83.3,148.1z"/>
</g>
<g>
	<path class="st1" d="M51.6,136.1c0,0-10.7,4.6-11.2,7.6l11.7-0.5l-3.6,9.7l15.3-3.1L51.6,136.1z"/>
	<path class="st2" d="M250.4,119.8l4.1-5.1l0.5,4.1l5.1-6.1l1,5.6c0,0,9.7-12.8,9.7-10.2c0,2-2.5,12.2-2.5,12.2l10.7-7.1l-5.6,14.7
		l10.2,9.2l-15.3,0.5L250.4,119.8z"/>
	<path class="st3" d="M137,92.8c0,0-35.1-11.7-37.1-10.2s25.9,29,25.9,29L137,92.8z"/>
	<path class="st3" d="M116.2,116.7c0,0-28.5-12.2-29-8.1s19.8,20.8,19.8,20.8L116.2,116.7z"/>
	<path class="st3" d="M120.2,153.3l-37.6-18.8l-1,11.7c0,0,45.2,22.4,47.8,36.1L120.2,153.3z"/>
	<path class="st3" d="M114.1,170.1c0,0-32-8.1-30.5-5.1c1.5,3.1,20.3,22.9,20.3,22.9L114.1,170.1z"/>
	<path class="st3" d="M211.8,109.1l6.6-1.5l3.1,6.6l0.5-6.1l5.1,0.5l4.6,8.1v-6.1l5.6-0.5l5.1,5.1h5.6l2.5,4.6
		c0,0,15.8-3.6,20.3,1.5c4.6,5.1,1.5,12.2,1.5,12.2s-10.2,15.8-25.4,8.1l-5.1,1.5l-2.5,4.1l-8.1-1.5v-3.1l-3.6,4.1l-6.1-3.6l1-3.6
		l-3.1,4.6l-2.5-3.1l-4.1,2l-5.1-5.1L211.8,109.1z"/>
	<path class="st4" d="M182.3,103c0,0,22.9-8.1,31.5,11.7s-18.3,29.5-18.3,29.5l-17.3-32L182.3,103z"/>
	<path class="st3" d="M205.7,223c0,0-12.2,6.1-4.1,18.3c0,0,1.5,3.6,10.7,5.1c0,0,18.8,13.2,24.9,11.2c6.1-2,20.8-6.6,20.8-6.6
		l-2.5-11.2c0,0-6.1-5.6-12.2-8.1c-6.1-2.5-14.2-9.7-14.2-9.7L205.7,223z"/>
	<path class="st5" d="M204.6,217.4l3.1,8.6c0,0,17.8,9.7,23.4-3.1l-7.1-19.8L204.6,217.4z"/>
	<path class="st4" d="M212.8,165.6c0,0,25.4,7.1,13.2,37.1s-50.3,1-50.3,1L212.8,165.6z"/>
	<path class="st6" d="M97.9,216.9c0,0-21.9,8.6-45.2-11.2l-10.2-5.1l-3.6,1c0,0,14.7,36.1,49.3,38.1l28,4.6c0,0,41.7,2,58.5-29
		L135,204.7L97.9,216.9z"/>
	<path class="st7" d="M120.2,145.2c0,0-8.1,18.8-6.1,24.9c2,6.1,47.3,17.3,47.3,17.3l34.6,5.1l13.7-42.2c0,0-4.6-27.5-24.9-38.1
		l-32.5,4.6L120.2,145.2z"/>
	<path class="st8" d="M13,171.7c0,0,3.1-11.7-1.5-14.7c-4.6-3.1-8.1-3.6-8.1-3.6s-4.6-6.6,0-14.7c4.6-8.1,1-16.8,1-16.8l3.1,1.5
		L6,115.3c0,0,6.6,8.1,6.6,11.7s5.6,8.6,5.6,8.6s-0.5-3.6,3.1-5.6s4.6-6.6,4.6-6.6l0.5,10.2l2.5-1l-0.5,9.7l9.7,11.2l-5.6,19.8
		l-12.2,8.1l-6.6-4.6L13,171.7z"/>
	<path class="st9" d="M38.9,201.6l-7.6-14.7c0,0-5.6,0.5-7.1,2S13,184.3,13,184.3s-5.1-5.6,0-12.7l5.6,4.6l-2-5.6l5.1,2.5
		c0,0-5.1-7.6-4.1-10.2c1-2.5-1,2.5-1,2.5s7.6,11.2,10.2,8.6l-1.5-4.1l4.1,1.5c0,0-11.2-8.1-8.1-21.9c0,0,1.5,14.7,4.6,12.2
		c0,0-2.5-11.2,1.5-13.2l2.5,4.1c0,0,1-8.1-1.5-8.6s-3.6,1.5-3.6,1.5s2.5-12.7,4.1-13.2c0,0-2.5,9.7,4.6,13.7
		c7.1,4.1,7.6,7.6,7.6,7.6s-2,10.2-4.6,10.2s6.6,6.6,6.6,6.6s4.1,8.1-5.1,9.7c-9.2,1.5,12.2,22.9,12.2,22.9l2.5,2.5l2,5.1L43.5,203
		l-0.5,6.6L38.9,201.6z"/>
	<path class="st8" d="M128.4,53.7c0,0,7.1-2.5,7.6-6.1s-1-4.1-1-4.1s-9.7-1.5-8.1-7.1c1.5-5.6,12.2-8.1,12.2-8.1s5.1-2.5,1.5-5.6
		s-4.6-5.1-4.6-5.1h4.6c0,0,0.5-5.6-2-8.1c0,0,12.2,3.1,14.2,10.2l4.1-4.1c0,0,0.5,9.7,2,11.2s-5.1,4.6-5.1,4.6s-4.6,6.1,0.5,7.1
		l2-4.6l1,11.2l1.5-2l2.5,9.7c0,0,10.7,0,9.7-8.6s-1-8.6-1-8.6s4.1-3.1,10.2-1.5c6.1,1.5,2-11.2,2-11.2s-1-5.6,4.1-7.6
		s6.6-12.7,6.6-12.7s6.6,10.7,5.6,13.2l3.1-4.6c0,0-3.1,8.1,1,14.2S194,31,195.5,34c1.5,3.1,8.6,11.2,8.6,11.2s-0.5,6.6-6.1,9.2
		c-5.6,2.5-2,6.6-2,6.6l-2.5,6.1L144.6,72l-19.8-6.1L128.4,53.7z"/>
	<path class="st8" d="M131.4,167.1c0,0-29-4.1-37.6,20.8s12.7,35.6,12.7,35.6s20.3,12.7,39.1-8.1c0,0,26.4,9.2,45.2-7.6
		s20.8-32.5,20.8-32.5s1.5-19.8-2-24.9c0,0-6.6,1.5-6.1-3.1s0.5-4.6,0.5-4.6s-15.3,4.6-11.2,9.7c0,0,8.1,5.6,3.1,7.6
		s-5.6,4.6-5.6,4.6s-2,4.6,3.6,7.1s1,5.1,1,5.1s-9.7,1.5-9.2,7.1s-6.1,3.6-6.1,3.6s2-6.6,0-9.7l-6.6,3.1c0,0,4.1-6.6-4.6-8.1
		c0,0,2-4.1,4.1-7.1s0-5.6,0-5.6s-3.1-5.1-6.1-5.1s3.1-9.2,3.1-9.2s-17.3,1.5-15.8,7.1c0,0,3.1,3.6-3.1,5.1
		c-6.1,1.5-4.1,5.1-4.1,5.1s-1,5.1,2.5,7.6c3.6,2.5-8.6,4.1-8.6,4.1S135,166.1,131.4,167.1z"/>
	<path class="st8" d="M114.6,114.7c0,0,6.1-15.3,22.4-11.7s16.8,23.9,16.8,23.9s-2,32.5-33.6,18.3L114.6,114.7z"/>
	<path class="st7" d="M128.4,53.7l5.6-1l-2.5,5.6c0,0,7.6-6.6,10.2-6.6c0,0-8.1,5.1-5.1,7.6l6.6-4.1l-2,3.6c0,0,7.6-4.1,11.2-4.1
		l-2,3.6c0,0,6.6-6.1,16.8-5.1c0,0-8.6,4.6-6.6,8.6l9.2-3.6l-1.5,4.1l12.7-7.1l-5.1,8.6l6.1-5.1l0.5,4.6l4.6-8.1v5.1
		c0,0,1.5-6.1,6.6-6.1c0,0-5.1,8.6-3.6,12.7l5.6-4.1c0,0-1,3.6,1.5,11.7l8.6-2.5l-5.1,9.2l1,3.1c0,0-4.6-1-6.1,5.6
		s-13.2,13.2-13.2,13.2s-14.7,8.1-24.4,5.6S134.6,95,134.6,95s-6.6-6.6-4.6-9.2c0,0-16.8-7.6-12.7-18.3
		C121.3,56.7,128.4,53.7,128.4,53.7z"/>
	<path class="st7" d="M76,122.8l5.1-5.6l6.1,1.5l2-3.1l8.1,2l2.5-2.5l4.1,2.5l2-5.1l6.1,1l2.5-4.6l8.6,4.6l-2,6.1l3.6,2.5l5.6-1
		l2,6.6l-5.1,4.1l4.1,2.5c0,0-1.5,8.1-5.1,9.2l-3.1-3.1l-3.6,2l0.5,2.5l-6.6,4.1l-3.1-6.6l-3.1,5.1l-3.1-1l-5.1,6.1l-4.6-5.1
		l-13.7,5.6l-4.1-5.1c0,0-21.4,6.6-24.9-8.1c-3.6-14.7,13.2-18.8,13.2-18.8S75,119.8,76,122.8z"/>
	<path class="st10" d="M181.4,103l4.1,7.1c0,0-14.2,18.8-34.1,6.6l2-6.6l3.6-1.5C157,108.6,171.2,110.6,181.4,103z"/>
	<path class="st7" d="M92.3,232.2c0,0-3.6-0.5-12.7,12.2c-9.2,12.7-9.2,18.3-9.2,18.3l7.6,7.1l22.9,0.5c0,0,16.8-1.5,17.8-12.7
		c1-11.2-0.5-12.7-0.5-12.7s4.1-6.6-2.5-10.2C109.1,231.1,92.3,232.2,92.3,232.2z"/>
	<path class="st10" d="M97.9,216.9c0,0-7.1,17.3-7.1,20.3c0,0,3.6,11.2,24.4,3.1l4.1-13.2C119.2,227.1,112.1,229.1,97.9,216.9z"/>
	<path class="st2" d="M237.2,257.6c0,0-7.6-9.2,0.5-14.2c8.1-5.1,14.7,17.8,14.7,17.8S238.2,255.5,237.2,257.6z"/>
	<path class="st2" d="M254.5,251.5c0,0-1.5-10.7,1-11.7s15.8,14.2,15.8,14.2L254.5,251.5z"/>
	<path class="st11" d="M146.7,86.2c0,0-5.1,3.6-7.1,6.1s-10.2,2.5-10.2,2.5s-3.6,5.1,1,11.2l4.1-2.5l6.1,2c0,0-4.1,11.7,4.6,12.2
		c8.6,0.5,12.2-7.1,12.2-7.1s5.6-5.1,11.2-7.1s4.6-5.1,4.6-5.1s0.5-2-8.6-4.1s-12.7-6.1-12.7-6.1S152.8,87.8,146.7,86.2z"/>
	<path class="st12" d="M140.6,105.6c0,0,10.7,1.5,13.2-1.5c0,0-2.5,10.2-8.1,8.6S140.6,105.6,140.6,105.6z"/>
	<path class="st1" d="M78,269.8c0-1,8.6-10.7,2.5-14.7c-6.1-4.1-13.2,20.8-13.2,20.8L78,269.8z"/>
	<path class="st1" d="M105.5,259.6c0,0-11.2-1.5-4.1,20.8C101.4,280.5,119.7,266.7,105.5,259.6z"/>
	<path class="st1" d="M69.9,123.4c0,0-17.3-8.6-19.3-6.1L62.8,130C62.8,130,69.4,127.4,69.9,123.4z"/>
	<path class="st1" d="M58.2,127.9c0,0-18.3-1.5-18.3,0c0,1.5,14.2,8.1,14.2,8.1S59.2,130,58.2,127.9z"/>
	<path class="st1" d="M77.5,143.2c0,0-2-10.2,5.1-8.6c7.1,1.5,7.6,18.8,7.6,18.8S81.1,141.7,77.5,143.2z"/>
</g>
</svg>
