<?xml version="1.0" encoding="utf-8"?>
<!-- Generator: Adobe Illustrator 23.0.6, SVG Export Plug-In . SVG Version: 6.00 Build 0)  -->
<svg version="1.1" id="Layer_1" xmlns="http://www.w3.org/2000/svg" xmlns:xlink="http://www.w3.org/1999/xlink" x="0px" y="0px"
	 viewBox="0 0 288 288" style="enable-background:new 0 0 288 288;" xml:space="preserve">
<style type="text/css">
	.st0{opacity:0.5;}
	.st1{fill:#646162;}
	.st2{fill:#447896;}
	.st3{fill:#8B504A;}
	.st4{fill:#B3B4B3;}
	.st5{fill:#A4BFC8;}
	.st6{fill:#84BBCE;}
	.st7{fill:#B48580;}
	.st8{fill:#B48681;}
	.st9{fill:#9F696C;}
	.st10{fill:#508AAE;}
</style>
<g class="st0">
	<path d="M45.8,172.7l-6,8c0,0,36.7,1.1,31.3,13.2c0,0,12.1,3.3,8.5-9.3S45.8,172.7,45.8,172.7z"/>
	<path d="M73,214.1l-8,9.3c0,0,24.1,4.7,34-11.2l-1.1-2.7C97.9,209.5,93.3,217.4,73,214.1z"/>
	<path d="M257.5,108.3l-6.6-6.3c-19.4,1.1-33.5,10.6-35.2,21.6c-0.3,2.2-0.4,6.2,2.3,11.3c0.7,0.7,2,2,4.1,2.7
		c3.3,1.2,6.2,0.3,7.1,0C229.2,137.6,206.1,120.1,257.5,108.3z"/>
	<path d="M203.4,153c3.4,1.9,7.4,3.7,12.1,4.9c20.8,5.7,39.2-2.7,46.1-6.3l5.8,3.8c-5.1,3.1-13.4,7.2-24.3,8.5
		c-4.7,0.6-12.9,1.5-22.8-1.7C212.2,159.8,206.6,155.7,203.4,153z"/>
	<path d="M125.6,104.7c0,0-26.3,3.8-15.1-13.2s37-11.5,37-11.5c5.4,0.2,9.9,3,10.9,6.4c1.2,4.6-3.4,11.8-12.2,12.7
		c-1.3-0.5-2.6-0.9-3.8-1.4c0.5-0.5,0.9-1.1,1.4-1.6l-0.8-4.1c0,0-14.5-6.6-20,6.6l2.7,1.9L125.6,104.7L125.6,104.7z"/>
	<polygon points="73,214.1 57.3,214.4 47.2,224 65,223.5 	"/>
	<polygon points="250.9,102 271.5,95.7 277.8,101.2 257.5,108.3 	"/>
	<polygon points="27.2,169.2 45.8,172.7 39.8,180.7 18.9,178.2 	"/>
	<polygon points="261.5,151.6 281.5,144.8 286.5,148.9 267.4,155.5 	"/>
	<path d="M45.8,172.7l-13.7-21.4c0,0,51.8,0,62.8,25.8c11,25.8,3,32.4,3,32.4s-2.5,7.7-25,4.7s0,0,0,0l-12.6-19.7L71,194
		c0,0,11.5,2.2,8.5-9.3S45.8,172.7,45.8,172.7"/>
	<path d="M250.9,102c-49.1,10.7-31.8,32.9-31.8,32.9s-0.8-3.6,0,0s10.1,2.7,10.1,2.7l27.4-7.4l4.9,21.4c0,0-52.1,27.4-68-14.3
		S248.3,80,248.3,80L250.9,102"/>
	<path d="M125.6,104.7c0,0-2.2,3.3,1.6,5.2l0.8,1.9c0,0-3.3,4.1,0,4.7c0,0,17.8-6.3,19.7-4.7v-1.9c0,0,5.5-5.5-2.5-7.4
		c0,0,3-4.7-1.6-6.3c-4.7-1.6,0,0,0,0l-0.8-4.1c0,0-17.3-6-20,6.6s0,0,0,0l2.7,1.9v4.1"/>
	<circle cx="149.5" cy="167.9" r="56.4"/>
	<path d="M107.5,100.8c0,0-7.7-10.7,20.6-21.7c0,0,1.8-0.2,4.5-0.4c2.6-0.2,6-0.4,10-0.1s7.7,0.7,11.5,2.8c1.7,1,4.4,2.5,4.7,5.1
		c0.1,1.1-0.2,2-0.5,2.6c-1.2-1.5-3.2-3.8-6.3-5.8c-9.9-6.3-21.2-3.2-23.3-2.6c-5.8,1.6-10,4.6-12.1,6.2c-2.6,1.9-3.8,3.2-4.1,3.6
		C109.2,94.2,108,98.3,107.5,100.8z"/>
	<path d="M117.1,195c0,0,8,3.3,3,9.9l-2.7-11.2"/>
	<circle cx="181.6" cy="182.3" r="13.7"/>
	<circle cx="107.8" cy="202.8" r="13.3"/>
	<path d="M177.6,179.3c0,0-2.2-6.6,1.6-6.3c3.8,0.3,4.7,4.9,4.7,4.9s6.9-1.1,6.9,1.9s-4.4,3.3-4.4,3.3s1.6,6-1.4,6.9
		c-3,0.8-4.9-4.9-4.9-4.9s-6.3,2.5-7.1-1.4S177.6,179.3,177.6,179.3z"/>
	<path d="M102.3,200.4c0,0-1.6-5.2,1.4-6c3-0.8,4.1,4.1,4.1,4.1s6.6-1.1,6.3,0.8c-0.3,1.9-4.1,3.8-4.1,3.8s2.7,6.3-0.8,7.1
		c-3.5,0.8-5.5-4.1-5.5-4.1s-5.5,2.5-5.8-0.3C97.6,203.2,102.3,200.4,102.3,200.4z"/>
	<polygon points="60.3,194.4 42.8,193.6 57.3,214.4 73,214.1 	"/>
	<path d="M250.9,102c-1-7.2-2-14.4-3-21.7c6.8-2.5,13.5-4.9,20.3-7.4l3.3,22.8L250.9,102z"/>
	<polygon points="277,123.7 281.5,144.8 261.5,151.6 256.6,130.2 	"/>
	<path d="M26.9,169.1l-14.3-20.6l19.2,2.7c4.8,7.3,9.5,14.5,14.3,21.8C39.7,171.7,33.3,170.4,26.9,169.1z"/>
	<path d="M12.6,148.5l-7.1,9.4l13.4,20.3c2.7-3,5.3-6,8-9C22.1,162.3,17.4,155.4,12.6,148.5z"/>
	<polygon points="277,123.7 283.2,128.9 286.5,148.9 281.5,144.8 	"/>
	<polygon points="268.1,72.9 275,80.1 277.8,101.2 271.5,95.7 	"/>
	<polygon points="42.8,193.6 32.1,203.2 47.2,224 57.3,214.4 	"/>
</g>
<g>
	<path class="st1" d="M41,167.5l-6,8c0,0,36.7,1.1,31.3,13.2c0,0,12.1,3.3,8.5-9.3S41,167.5,41,167.5z"/>
	<path class="st1" d="M68.2,208.9l-8,9.3c0,0,24.1,4.7,34-11.2l-1.1-2.7C93.1,204.3,88.5,212.2,68.2,208.9z"/>
	<path class="st1" d="M252.7,103.1l-6.6-6.3c-19.4,1.1-33.5,10.6-35.2,21.6c-0.3,2.2-0.4,6.2,2.3,11.3c0.7,0.7,2,2,4.1,2.7
		c3.3,1.2,6.2,0.3,7.1,0C224.5,132.4,201.4,114.9,252.7,103.1z"/>
	<path class="st1" d="M198.7,147.8c3.4,1.9,7.4,3.7,12.1,4.9c20.8,5.7,39.2-2.7,46.1-6.3l5.8,3.8c-5.1,3.1-13.4,7.2-24.3,8.5
		c-4.7,0.6-12.9,1.5-22.8-1.7C207.5,154.6,201.9,150.5,198.7,147.8z"/>
	<path class="st1" d="M120.8,99.5c0,0-26.3,3.8-15.1-13.2s37-11.5,37-11.5c5.4,0.2,9.9,3,10.9,6.4c1.2,4.6-3.4,11.8-12.2,12.7
		c-1.3-0.5-2.6-0.9-3.8-1.4c0.5-0.5,0.9-1.1,1.4-1.6l-0.8-4.1c0,0-14.5-6.6-20,6.6l2.7,1.9L120.8,99.5L120.8,99.5z"/>
	<polygon class="st2" points="68.2,208.9 52.5,209.2 42.4,218.8 60.2,218.3 	"/>
	<polygon class="st2" points="246.1,96.8 266.7,90.5 273,96 252.7,103.1 	"/>
	<polygon class="st3" points="22.4,164 41,167.5 35,175.5 14.1,173 	"/>
	<polygon class="st3" points="256.8,146.4 276.8,139.6 281.8,143.7 262.6,150.3 	"/>
	<path class="st4" d="M41,167.5l-13.7-21.4c0,0,51.8,0,62.8,25.8s3,32.4,3,32.4s-2.5,7.7-25,4.7s0,0,0,0l-12.6-19.7l10.7-0.5
		c0,0,11.5,2.2,8.5-9.3S41,167.5,41,167.5"/>
	<path class="st4" d="M246.1,96.8c-49.1,10.7-31.8,32.9-31.8,32.9s-0.8-3.6,0,0c0.8,3.6,10.1,2.7,10.1,2.7l27.4-7.4l4.9,21.4
		c0,0-52.1,27.4-68-14.3s54.8-57.3,54.8-57.3L246.1,96.8"/>
	<path class="st4" d="M120.8,99.5c0,0-2.2,3.3,1.6,5.2l0.8,1.9c0,0-3.3,4.1,0,4.7c0,0,17.8-6.3,19.7-4.7v-1.9c0,0,5.5-5.5-2.5-7.4
		c0,0,3-4.7-1.6-6.3c-4.7-1.6,0,0,0,0l-0.8-4.1c0,0-17.3-6-20,6.6s0,0,0,0l2.7,1.9v4.1"/>
	<circle class="st5" cx="144.7" cy="162.7" r="56.4"/>
	<path class="st4" d="M102.7,95.6c0,0-7.7-10.7,20.6-21.7c0,0,1.8-0.2,4.5-0.4c2.6-0.2,6-0.4,10-0.1s7.7,0.7,11.5,2.8
		c1.7,1,4.4,2.5,4.7,5.1c0.1,1.1-0.2,2-0.5,2.6c-1.2-1.5-3.2-3.8-6.3-5.8c-9.9-6.3-21.2-3.2-23.3-2.6c-5.8,1.6-10,4.6-12.1,6.2
		c-2.6,1.9-3.8,3.2-4.1,3.6C104.4,89,103.2,93.1,102.7,95.6z"/>
	<path class="st1" d="M112.3,189.8c0,0,8,3.3,3,9.9l-2.7-11.2"/>
	<circle class="st4" cx="176.8" cy="177.1" r="13.7"/>
	<circle class="st4" cx="103" cy="197.6" r="13.3"/>
	<path class="st1" d="M172.9,174.1c0,0-2.2-6.6,1.6-6.3s4.7,4.9,4.7,4.9s6.9-1.1,6.9,1.9s-4.4,3.3-4.4,3.3s1.6,6-1.4,6.9
		c-3,0.8-4.9-4.9-4.9-4.9s-6.3,2.5-7.1-1.4S172.9,174.1,172.9,174.1z"/>
	<path class="st1" d="M97.5,195.2c0,0-1.6-5.2,1.4-6s4.1,4.1,4.1,4.1s6.6-1.1,6.3,0.8c-0.3,1.9-4.1,3.8-4.1,3.8s2.7,6.3-0.8,7.1
		s-5.5-4.1-5.5-4.1s-5.5,2.5-5.8-0.3C92.8,198,97.5,195.2,97.5,195.2z"/>
	<polygon class="st6" points="55.5,189.2 38,188.4 52.5,209.2 68.2,208.9 	"/>
	<path class="st6" d="M246.1,96.8c-1-7.2-2-14.4-3-21.7c6.8-2.5,13.5-4.9,20.3-7.4l3.3,22.8L246.1,96.8z"/>
	<polygon class="st7" points="272.2,118.5 276.8,139.6 256.8,146.4 251.9,125 	"/>
	<path class="st8" d="M22.1,163.9L7.8,143.3L27,146c4.8,7.3,9.5,14.5,14.3,21.8C34.9,166.5,28.5,165.2,22.1,163.9z"/>
	<path class="st9" d="M7.8,143.3l-7.1,9.4L14.1,173c2.7-3,5.3-6,8-9C17.3,157.1,12.6,150.2,7.8,143.3z"/>
	<polygon class="st9" points="272.2,118.5 278.5,123.7 281.8,143.7 276.8,139.6 	"/>
	<polygon class="st10" points="263.4,67.7 270.3,74.9 273,96 266.7,90.5 	"/>
	<polygon class="st10" points="38,188.4 27.3,198 42.4,218.8 52.5,209.2 	"/>
</g>
</svg>
