<?xml version="1.0" encoding="utf-8"?>
<!-- Generator: Adobe Illustrator 23.0.6, SVG Export Plug-In . SVG Version: 6.00 Build 0)  -->
<svg version="1.1" id="Layer_1" xmlns="http://www.w3.org/2000/svg" xmlns:xlink="http://www.w3.org/1999/xlink" x="0px" y="0px"
	 viewBox="0 0 288 288" style="enable-background:new 0 0 288 288;" xml:space="preserve">
<style type="text/css">
	.st0{opacity:0.5;}
	.st1{fill:#5F595A;}
	.st2{fill:#989899;}
	.st3{fill:#94949A;}
	.st4{fill:#DCE1E5;}
	.st5{fill:#DAD9DB;}
	.st6{fill:#305A72;}
	.st7{fill:#894C46;}
	.st8{fill:#75BEDF;}
	.st9{fill:#CD8F89;}
</style>
<g class="st0">
	<path d="M52.5,119.9c0,0,29.1,0.3,27.8,26.8l-22,35.5c0,0-11.8,1.6-29.7-6.4l0.3-2.2c8.9,6.2,20.5,6.1,28.7,0
		c7-5.2,10.5-14.1,9.3-23c4.3-7.2,4.2-16-0.2-22.4C61.8,121.1,53.8,120,52.5,119.9z"/>
	<path d="M240,118.3l12.8-3.5l7.3,17.6c0,0-25.2,3.8-20.1,17.2s25.2,1,25.2,1l7,17.6l-6.7,3.2c0,0-29.1,18.2-39.6-10.2l-5.1-10.7
		C220.8,150.4,208.4,126.2,240,118.3z"/>
	<path d="M52.5,119.9l-15.3-2.6l-5.1,17.6c0,0,23.6,1.9,18.5,16.6s-24.9,2.2-24.9,2.2l-5.7,18.5l8.6,3.5c0,0,30.7,10.2,32.9-10.7
		c2.2-20.9,0-1.1,0-1.1l8.6-11.2C70.2,152.8,79,125.3,52.5,119.9z"/>
	<path d="M240,118.3c0,0-29.7,6.4-19.2,32.3l12.1,21.4c0,0,10.2,11.5,32.6-0.6c0,0-24.6,14.1-32.3,8.3c-7.7-5.7-22-34.5-22-34.5
		S206.5,122.4,240,118.3z"/>
	<path d="M219.1,212.4l3.8,1.4c0,0,1,4.8,2.4,3.4l5.7-8.6c0,0-1.4-4.3-3.4-3.4L219.1,212.4z"/>
	<path d="M63.4,221.1c0,0-0.5-3.8,2.9-2.9c0,0-1-3.4,3.4-2.9l3.8-2.9l9.6,4.8c0,0-3.4,6.7-5.3,3.8l-1.4,1.9l-2.4,1.9l0.5,2.9
		l-3.4-0.5L63.4,221.1z"/>
	<path d="M115.7,145.3c0,0-23.5-19.6-7.2-47.4S151,73.5,151,73.5s28.7-0.5,36.9,26.8s-6.2,41.7-6.2,41.7l7.2,1
		c0,0,31.6-5.7,41.7,20.6c10.1,26.4-5.3,44.1-5.3,44.1s-20.6,20.6-41.2,9.6s-24.4-24.9-24.4-24.9s-7.7-24.9,10.1-37.9
		c0,0-29.2,15.3-49.4-3.4c0,0,25.4,21.1,8.1,49.8c0,0-24.9,31.6-52.7,12.9s-14.4-48.9-14.4-48.9s11-25.9,40.7-21.6L115.7,145.3z"/>
	<path d="M143.4,76.4c0,0,6.7,7.2,17.2,3.4c0,0,4.8-6.2,1.9-6.2v-3.4c0,0,3.8,1,1-3.8c0,0,11,0.5,12-4.8c0,0-24.4,7.2-40.2-5.3
		c0,0,0,5.7,8.6,7.2v2.4l2.4,1l-0.5,1.9C145.8,68.7,140,72.6,143.4,76.4z"/>
	<path d="M135.2,56.2c0,0,1.9-7.2,7.2-7.7s24,2.4,24,2.4l6.2,3.4c0,0,2.9,2.4,2.9,7.2C175.5,61.6,152.5,73.1,135.2,56.2z"/>
	<path d="M231.1,208.6c0,0,9.6-3.8,7.7,5.7c-1.9,9.6-8.1,10.1-8.1,10.1s-8.6,0-5.3-7.2S231.1,208.6,231.1,208.6z"/>
	<path d="M63.4,221.1c0,0-7.7-5.3-8.6,1.4s4.8,12.5,4.8,12.5s11.5,7.2,12.9,1s-1.4-8.6-1.4-8.6L63.4,221.1z"/>
	<path d="M107,174.1c0,0-11,5.3-6.2,13.9c4.8,8.6,10.1,7.2,10.1,7.2s13.4,0,9.6-12S107,174.1,107,174.1z"/>
	<path d="M115.2,132.9c0,0-13.9-2.4-12.9,13.4c0,0,6.7,15.3,20.1,2.9C122.3,149.1,129,137.6,115.2,132.9z"/>
	<path d="M174,178.4c0,0-9.6,3.8-8.1,10.5s7.7,9.1,7.7,9.1s11.5,0.5,11-9.6C184.1,178.4,174,178.4,174,178.4z"/>
	<path d="M176.9,139.6c0,0-11.5,7.7-2.4,17.7c9.1,10.1,17.2-1.4,17.2-1.4S198.5,136.8,176.9,139.6z"/>
	<path d="M57.6,231.6l1-2.4l-1.9-2.9c0,0,0.5-3.8,2.4-2.9c1.9,1,1.9,1,1.9,1h2.4l3.4,4.8l-2.4,0.5l2.9,3.4l-1.9,1.4l-3.4-2.9
		l-2.4,3.4L57.6,231.6z"/>
	<polygon points="106,185.6 102.7,181.8 107.4,179.3 109.3,182.2 112.8,179.8 115.7,183.6 112.8,185.6 115.2,188.4 112.2,191.3 
		108.9,188.9 106,191.8 103.7,187.1 	"/>
	<polygon points="109.8,141.6 108.8,138.1 112.9,136.8 114.5,141.2 118.9,140.8 119.9,145.9 117,145.9 117,149.6 112.2,150.8 
		110.9,147.6 106.2,148.2 104.9,143.4 	"/>
	<path d="M178.3,148.2l3.2,0.6c0,0,1.9-1,1.6-4.2c0,0,4.2-1.9,4.8,0.6c0.6,2.6-0.6,5.1-0.6,5.1l1.9,0.6l-1.3,3.2h-2.6l-2.2,3.5
		c0,0-4.2,0-4.2-1.9s1.3-2.9,1.3-2.9l-3.5-1.3L178.3,148.2z"/>
	<path d="M232.3,215.6l0.3-4.8l4.2,1.3l-0.3,3.2l2.2-1c0,0-1.6,7.7-6.1,8.6l-0.3-2.9l-3.8,0.6l-0.3-2.9L232.3,215.6z"/>
	<polygon points="172.6,186.8 171.6,182.1 175.2,182.4 176.4,186.8 179.3,186.2 179.6,190.1 177.1,189.8 177.4,193.6 173.9,193.6 
		172.9,190.3 168.4,191.1 168.4,187.8 	"/>
	<path d="M139.7,48.9c0,0,10.5-5.4,13.7-4.8c0,0,2.9,4.2,8.3,1c0,0,12.1,4.5,12.1,8.9l-3.8,1.3c0,0-5.1-4.8-8.3-4.2l-1.6,6.7
		c0,0-8.7,0.6-8.3-1.6c0.3-1.6,1-7.3,1-7.3l-10.9,2.9L139.7,48.9z"/>
	<path d="M114.2,258.1l12.5,0.6l-2.2,21.1c0,0,4.5-8.6,4.2-18.5c0,0,2.2-11.5,2.9-24.3c0.6-12.8,2.2-28.7,2.2-28.7s-4.2-8-5.1-7.3
		l-0.6,20.1l-1,22.4l-11.2-1l0.6-14.1l-1.9,6.1C114.5,234.4,112.5,254.6,114.2,258.1z"/>
	<path d="M159.8,230.3c2.7,8.5,5.3,17,8,25.6l12.1-2.6l0.3,4.8l3.8,16.3c0,0,5.4-9.9,3.2-23.6c-2.2-13.7-8.6-35.5-8.6-35.5
		s-3.2-20.8-10.5-21.1c0.2,7.8,0.4,15.5,0.6,23.3c2.2,6.5,4.5,13,6.7,19.5c-3.1-0.3-6.2-0.6-9.3-1
		C164.1,234.1,161.9,232.2,159.8,230.3z"/>
	<path d="M62.4,70l0.3-6.1c0,0,14.7,17.9,19.5,17.6c4.8-0.3,5.7-2.2,5.7-2.2s4.8-3.2-0.3-10.5s-9.3-11.2-9.3-11.2l3.5-1.3
		c0,0,19.2,15.7,14.4,25.9c-4.8,10.2-15,5.7-15,5.7c-2.4-0.6-6.1-1.8-9.9-4.8C65.4,78.5,63.2,72.5,62.4,70z"/>
	<path d="M218.3,63l5.7,1c0,0-24.3,16-14.7,22.7s24-9.6,24-9.6l2.2,2.6l0,0c0,0-12.1,13.1-30.3,15.1c-2.5,0.3-4.7,0.3-6.1-1.1
		c-2.6-2.4-1.2-7.5-1-8.3C198.2,85.4,196.6,80.7,218.3,63z"/>
	<path d="M168.1,194.2c0,0-13.4-2.2-13.1,8.3s0.3,14.1,0.3,14.1s9.3,38,10.5,40.9l2.2,1l-0.3-2.6l-5.4-22l-3.8-16l1-8l9.9-1.6
		L168.1,194.2z"/>
	<path d="M116.4,228.4l-1-6.7l1.9-8.6l11.2,1.3v-13.4c0,0-2.2-4.5-12.5-1.6c0,0-7.7,7-5.7,17.2c0,0-8.6,55.9,2.2,61.3l1.6-19.8
		l0.3-23.6L116.4,228.4z"/>
	<path d="M62.4,70L47.8,82.2c0,0,19.8,29.7,41.5,25.6S117,86.7,117,86.7s9.6-15.3-19.8-42.5L81.9,56.2c5.4,4.4,8.6,8.6,10.5,11.5
		c1.2,1.9,1.8,3.1,2.2,4.5c0.4,1.4,2.3,7.6-1.6,12.1c-3.8,4.4-10.1,3.6-10.5,3.5c-3.1-2-6.6-4.5-10.2-7.7C68.2,76.7,65,73.2,62.4,70
		z"/>
	<path d="M218.3,63l-13.1-14.7c0,0-44.7,28.1-17.9,54.6s61.3-8,61.3-8l-13.1-15.3c0,0-22,19.5-31.6,13.4s2.2-19.5,2.2-19.5L218.3,63
		z"/>
	<polygon points="62.4,70 49.9,57.2 49.3,51.2 62.8,64 	"/>
	<polygon points="235.5,79.6 233.3,77 252.1,63.6 264.6,78.6 262.5,85 249.9,70.3 	"/>
	<polygon points="69.2,41 62.1,39.4 78.4,57.6 81.9,56.2 	"/>
	<polygon points="218.3,63 233,50.2 221.1,35.8 226.6,34.9 240,49.6 224,64 	"/>
	<path d="M168.1,258.5l5.4,17.6c0,0-6.4-9.3-7.7-18.5L168.1,258.5z"/>
	<polygon points="32,134.8 15.8,130.9 20.9,112.8 37.2,117.3 	"/>
	<polygon points="117.3,213.1 128.5,214.3 126.9,243.4 115.8,242.4 114.5,234.4 116.4,228.4 115.4,221.6 	"/>
	<polygon points="159.5,209.8 169.4,208.2 171,216.6 175.5,237.1 165.6,239.6 162.4,233.8 158.5,216.6 	"/>
	<polygon points="252.8,114.7 266.2,109.9 273.2,126.6 260.1,132.2 	"/>
	<polygon points="235.5,79.6 249.9,69.1 262.5,85 248.6,94.9 	"/>
	<polygon points="62.4,70 49.9,57.2 49.3,51.2 34,63 34.9,68.7 47.8,82.2 	"/>
	<polygon points="81.9,56.2 69.2,41 62.1,39.4 77.8,27.2 83.5,29.8 97.2,44.1 	"/>
	<polygon points="205.2,48.2 221.1,35.8 233,50.2 218.3,63 	"/>
	<polygon points="265.2,150.4 278.6,144.1 285.5,161.6 272.4,168.1 	"/>
	<path d="M167.8,255.8l12.1-2.6l0.3,4.8l3.8,16.3l-10.5,1.6c-0.5-1.7-1-3.4-1.6-5.1c-0.8-2.6-1.7-5.2-2.6-7.7
		C168.9,260.8,168.3,258.4,167.8,255.8z"/>
	<polygon points="114.2,258.1 126.7,258.8 124.4,279.9 112.5,278 	"/>
	<polygon points="25.7,153.6 12.2,149.6 6.5,166.1 19.9,172.1 	"/>
</g>
<g>
	<path class="st1" d="M48.7,114.4c0,0,29.1,0.3,27.8,26.8l-22,35.5c0,0-11.8,1.6-29.7-6.4l0.3-2.2c8.9,6.2,20.5,6.1,28.7,0
		c7-5.2,10.5-14.1,9.3-23c4.3-7.2,4.2-16-0.2-22.4C58,115.6,50,114.5,48.7,114.4z"/>
	<path class="st2" d="M236.2,112.8l12.8-3.5l7.3,17.6c0,0-25.2,3.8-20.1,17.2s25.2,1,25.2,1l7,17.6l-6.7,3.2
		c0,0-29.1,18.2-39.6-10.2L217,145C217,145,204.6,120.7,236.2,112.8z"/>
	<path class="st2" d="M48.7,114.4l-15.3-2.6l-5.1,17.6c0,0,23.6,1.9,18.5,16.6s-24.9,2.2-24.9,2.2l-5.7,18.5l8.6,3.5
		c0,0,30.7,10.2,32.9-10.7c2.2-20.9,0-1.1,0-1.1l8.6-11.2C66.3,147.3,75.2,119.8,48.7,114.4z"/>
	<path class="st1" d="M236.2,112.8c0,0-29.7,6.4-19.2,32.3l12.1,21.4c0,0,10.2,11.5,32.6-0.6c0,0-24.6,14.1-32.3,8.3
		c-7.7-5.7-22-34.5-22-34.5S202.7,116.9,236.2,112.8z"/>
	<path class="st3" d="M215.3,207l3.8,1.4c0,0,1,4.8,2.4,3.4l5.7-8.6c0,0-1.4-4.3-3.4-3.4L215.3,207z"/>
	<path class="st3" d="M59.6,215.6c0,0-0.5-3.8,2.9-2.9c0,0-1-3.4,3.4-2.9l3.8-2.9l9.6,4.8c0,0-3.4,6.7-5.3,3.8l-1.4,1.9l-2.4,1.9
		l0.5,2.9l-3.4-0.5L59.6,215.6z"/>
	<path class="st4" d="M111.8,139.9c0,0-23.5-19.6-7.2-47.4S147.2,68,147.2,68s28.7-0.5,36.9,26.8s-6.2,41.7-6.2,41.7l7.2,1
		c0,0,31.6-5.7,41.7,20.6c10.1,26.4-5.3,44.1-5.3,44.1s-20.6,20.6-41.2,9.6s-24.4-24.9-24.4-24.9S148.2,162,166,149
		c0,0-29.2,15.3-49.4-3.4c0,0,25.4,21.1,8.1,49.8c0,0-24.9,31.6-52.7,12.9s-14.4-48.9-14.4-48.9s11-25.9,40.7-21.6L111.8,139.9z"/>
	<path class="st3" d="M139.6,70.9c0,0,6.7,7.2,17.2,3.4c0,0,4.8-6.2,1.9-6.2v-3.4c0,0,3.8,1,1-3.8c0,0,11,0.5,12-4.8
		c0,0-24.4,7.2-40.2-5.3c0,0,0,5.7,8.6,7.2v2.4l2.4,1l-0.5,1.9C142,63.2,136.2,67.1,139.6,70.9z"/>
	<path class="st5" d="M131.4,50.8c0,0,1.9-7.2,7.2-7.7s24,2.4,24,2.4l6.2,3.4c0,0,2.9,2.4,2.9,7.2C171.7,56.1,148.7,67.6,131.4,50.8
		z"/>
	<path class="st5" d="M227.3,203.2c0,0,9.6-3.8,7.7,5.7c-1.9,9.6-8.1,10.1-8.1,10.1s-8.6,0-5.3-7.2S227.3,203.2,227.3,203.2z"/>
	<path class="st5" d="M59.6,215.6c0,0-7.7-5.3-8.6,1.4s4.8,12.5,4.8,12.5s11.5,7.2,12.9,1s-1.4-8.6-1.4-8.6L59.6,215.6z"/>
	<path class="st5" d="M103.2,168.7c0,0-11,5.3-6.2,13.9c4.8,8.6,10.1,7.2,10.1,7.2s13.4,0,9.6-12S103.2,168.7,103.2,168.7z"/>
	<path class="st5" d="M111.3,127.4c0,0-13.9-2.4-12.9,13.4c0,0,6.7,15.3,20.1,2.9C118.5,143.7,125.2,132.2,111.3,127.4z"/>
	<path class="st5" d="M170.2,173c0,0-9.6,3.8-8.1,10.5s7.7,9.1,7.7,9.1s11.5,0.5,11-9.6C180.3,173,170.2,173,170.2,173z"/>
	<path class="st5" d="M173.1,134.2c0,0-11.5,7.7-2.4,17.7c9.1,10.1,17.2-1.4,17.2-1.4S194.7,131.3,173.1,134.2z"/>
	<path class="st3" d="M53.8,226.2l1-2.4l-1.9-2.9c0,0,0.5-3.8,2.4-2.9c1.9,1,1.9,1,1.9,1h2.4l3.4,4.8l-2.4,0.5l2.9,3.4l-1.9,1.4
		l-3.4-2.9l-2.4,3.4L53.8,226.2z"/>
	<polygon class="st3" points="102.2,180.2 98.8,176.3 103.6,173.9 105.5,176.8 108.9,174.4 111.8,178.2 108.9,180.2 111.3,183 
		108.4,185.9 105.1,183.5 102.2,186.4 99.8,181.6 	"/>
	<polygon class="st3" points="105.9,136.1 104.9,132.6 109.1,131.3 110.7,135.8 115.1,135.4 116.1,140.5 113.2,140.5 113.2,144.1 
		108.4,145.3 107.1,142.1 102.4,142.8 101.1,138 	"/>
	<path class="st3" d="M174.5,142.8l3.2,0.6c0,0,1.9-1,1.6-4.2c0,0,4.2-1.9,4.8,0.6c0.6,2.6-0.6,5.1-0.6,5.1l1.9,0.6l-1.3,3.2h-2.6
		l-2.2,3.5c0,0-4.2,0-4.2-1.9s1.3-2.9,1.3-2.9l-3.5-1.3L174.5,142.8z"/>
	<path class="st3" d="M228.5,210.2l0.3-4.8l4.2,1.3l-0.3,3.2l2.2-1c0,0-1.6,7.7-6.1,8.6l-0.3-2.9l-3.8,0.6l-0.3-2.9L228.5,210.2z"/>
	<polygon class="st3" points="168.8,181.4 167.8,176.6 171.4,177 172.6,181.4 175.5,180.8 175.8,184.6 173.3,184.3 173.6,188.1 
		170.1,188.1 169.1,184.9 164.6,185.6 164.6,182.4 	"/>
	<path class="st3" d="M135.9,43.4c0,0,10.5-5.4,13.7-4.8c0,0,2.9,4.2,8.3,1c0,0,12.1,4.5,12.1,8.9l-3.8,1.3c0,0-5.1-4.8-8.3-4.2
		l-1.6,6.7c0,0-8.7,0.6-8.3-1.6c0.3-1.6,1-7.3,1-7.3l-10.9,2.9L135.9,43.4z"/>
	<path class="st1" d="M110.3,252.7l12.5,0.6l-2.2,21.1c0,0,4.5-8.6,4.2-18.5c0,0,2.2-11.5,2.9-24.3c0.6-12.8,2.2-28.7,2.2-28.7
		s-4.2-8-5.1-7.3l-0.6,20.1l-1,22.4l-11.2-1l0.6-14.1l-1.9,6.1C110.7,229,108.7,249.2,110.3,252.7z"/>
	<path class="st1" d="M156,224.9c2.7,8.5,5.3,17,8,25.6l12.1-2.6l0.3,4.8l3.8,16.3c0,0,5.4-9.9,3.2-23.6
		c-2.2-13.7-8.6-35.5-8.6-35.5s-3.2-20.8-10.5-21.1c0.2,7.8,0.4,15.5,0.6,23.3c2.2,6.5,4.5,13,6.7,19.5c-3.1-0.3-6.2-0.6-9.3-1
		C160.3,228.7,158.1,226.8,156,224.9z"/>
	<path class="st1" d="M58.6,64.5l0.3-6.1c0,0,14.7,17.9,19.5,17.6c4.8-0.3,5.7-2.2,5.7-2.2s4.8-3.2-0.3-10.5s-9.3-11.2-9.3-11.2
		l3.5-1.3c0,0,19.2,15.7,14.4,25.9c-4.8,10.2-15,5.7-15,5.7c-2.4-0.6-6.1-1.8-9.9-4.8C61.6,73,59.4,67,58.6,64.5z"/>
	<path class="st1" d="M214.5,57.5l5.7,1c0,0-24.3,16-14.7,22.7s24-9.6,24-9.6l2.2,2.6l0,0c0,0-12.1,13.1-30.3,15.1
		c-2.5,0.3-4.7,0.3-6.1-1.1c-2.6-2.4-1.2-7.5-1-8.3C194.4,79.9,192.8,75.2,214.5,57.5z"/>
	<path class="st2" d="M164.3,188.8c0,0-13.4-2.2-13.1,8.3s0.3,14.1,0.3,14.1s9.3,38,10.5,40.9l2.2,1l-0.3-2.6l-5.4-22l-3.8-16l1-8
		l9.9-1.6L164.3,188.8z"/>
	<path class="st2" d="M112.6,223l-1-6.7l1.9-8.6l11.2,1.3v-13.4c0,0-2.2-4.5-12.5-1.6c0,0-7.7,7-5.7,17.2c0,0-8.6,55.9,2.2,61.3
		l1.6-19.8l0.3-23.6L112.6,223z"/>
	<path class="st2" d="M58.6,64.5L43.9,76.7c0,0,19.8,29.7,41.5,25.6s27.8-21.1,27.8-21.1s9.6-15.3-19.8-42.5L78.1,50.8
		c5.4,4.4,8.6,8.6,10.5,11.5c1.2,1.9,1.8,3.1,2.2,4.5c0.4,1.4,2.3,7.6-1.6,12.1c-3.8,4.4-10.1,3.6-10.5,3.5c-3.1-2-6.6-4.5-10.2-7.7
		C64.4,71.2,61.2,67.7,58.6,64.5z"/>
	<path class="st2" d="M214.5,57.5l-13.1-14.7c0,0-44.7,28.1-17.9,54.6s61.3-8,61.3-8l-13.1-15.3c0,0-22,19.5-31.6,13.4
		s2.2-19.5,2.2-19.5L214.5,57.5z"/>
	<polygon class="st6" points="58.6,64.5 46.1,51.7 45.5,45.7 58.9,58.5 	"/>
	<polygon class="st6" points="231.7,74.1 229.5,71.5 248.3,58.1 260.8,73.1 258.6,79.5 246.1,64.8 	"/>
	<polygon class="st7" points="65.3,35.5 58.3,33.9 74.6,52.1 78.1,50.8 	"/>
	<polygon class="st7" points="214.5,57.5 229.2,44.7 217.3,30.3 222.8,29.4 236.2,44.1 220.2,58.5 	"/>
	<path class="st7" d="M164.3,253l5.4,17.6c0,0-6.4-9.3-7.7-18.5L164.3,253z"/>
	<polygon class="st8" points="28.2,129.4 12,125.5 17.1,107.3 33.4,111.8 	"/>
	<polygon class="st8" points="113.5,207.6 124.7,208.9 123.1,238 111.9,237 110.7,229 112.6,223 111.6,216.2 	"/>
	<polygon class="st8" points="155.7,204.4 165.6,202.8 167.2,211.1 171.7,231.6 161.8,234.1 158.6,228.4 154.7,211.1 	"/>
	<polygon class="st8" points="249,109.2 262.4,104.4 269.4,121.1 256.3,126.8 	"/>
	<polygon class="st8" points="231.7,74.1 246.1,63.6 258.6,79.5 244.8,89.4 	"/>
	<polygon class="st8" points="58.6,64.5 46.1,51.7 45.5,45.7 30.2,57.5 31.1,63.2 43.9,76.7 	"/>
	<polygon class="st9" points="78.1,50.8 65.3,35.5 58.3,33.9 73.9,21.7 79.7,24.3 93.4,38.6 	"/>
	<polygon class="st9" points="201.4,42.8 217.3,30.3 229.2,44.7 214.5,57.5 	"/>
	<polygon class="st9" points="261.4,145 274.8,138.6 281.6,156.2 268.5,162.6 	"/>
	<path class="st9" d="M164,250.4l12.1-2.6l0.3,4.8l3.8,16.3l-10.5,1.6c-0.5-1.7-1-3.4-1.6-5.1c-0.8-2.6-1.7-5.2-2.6-7.7
		C165.1,255.3,164.5,252.9,164,250.4z"/>
	<polygon class="st9" points="110.3,252.7 122.8,253.3 120.6,274.4 108.7,272.5 	"/>
	<polygon class="st9" points="21.9,148.2 8.4,144.1 2.7,160.7 16.1,166.7 	"/>
</g>
</svg>
