<?xml version="1.0" encoding="utf-8"?>
<!-- Generator: Adobe Illustrator 23.0.6, SVG Export Plug-In . SVG Version: 6.00 Build 0)  -->
<svg version="1.1" id="Layer_1" xmlns="http://www.w3.org/2000/svg" xmlns:xlink="http://www.w3.org/1999/xlink" x="0px" y="0px"
	 viewBox="0 0 288 288" style="enable-background:new 0 0 288 288;" xml:space="preserve">
<style type="text/css">
	.st0{opacity:0.5;}
	.st1{fill:#C4A795;}
	.st2{fill:#B1A3A3;}
	.st3{fill:#897166;}
	.st4{fill:#F1E1D7;}
	.st5{fill:#E8D0D8;}
</style>
<g class="st0">
	<path d="M46.9,92.7c0,0-6.9-33.9-13.5-37.7s-11.5-0.4-11.5-0.4S18,64.2,6.5,71.2c0,0-0.4,10.4,6.2,10.8c0,0,4.6,4.6,10.4,1.9
		c0,0,8.1,1.5,8.8-0.8L35,95l5,10.4L46.9,92.7z"/>
	<path d="M174.6,207.4c0,0,3.1,4.2,1.9,5c0,0-11.2,2.7-4.2,13.5c0,0-3.8,6.2-5.8,6.5c0,0-6.2,4.6,0.4,11.5c0,0,5,11.2,11.9,3.8
		c0,0-5.8-11.5,0.4-13.9c0,0,10-2.3,13.9,0c0,0,9.2,5.8,6.5,11.2c0,0,10.8,5.4,10-5.4l-1.9-6.2c0,0-0.8-3.1-4.2-4.6
		c-3.5-1.5-15-13.5-15-13.5l-2.3-9.2l-3.8-10.8L174.6,207.4z"/>
	<path d="M215.8,110.4c0,0,11.5-25,11.2-27.7c-0.4-2.7,3.8-7.3,3.8-7.3s3.5-4.2,17.7,5.8c0,0,7.7,15.8,10.4,16.5
		c0,0,0.4,6.5-3.8,8.1c0,0-1.5,8.5-12.3,3.8c0,0-1.9,3.8-11.9-0.4c0,0-2.3-1.5-5,9.6l-10,1.5L215.8,110.4L215.8,110.4z"/>
	<path d="M148,183.5c0,0-12.7-0.8-15.4-3.8c-2.7-3.1,12.3-1.9,12.3-1.9L148,183.5z"/>
	<path d="M252.3,158.1c0,0,20.4-15.4,21.2-23.5s-7.7-1.2-7.7-1.2s-8.8,5.8-9.2,9.2c-0.4,3.5-7.3,6.2-7.3,6.2s-10-2.3-3.5-12.3
		s22.7-15.8,22.7-15.8s20.8-5.8,17.7,8.5c0,0,3.1,23.1-28.1,37.7L252.3,158.1z"/>
	<path d="M69.9,186.2c0.8,1,2.2,3.4,1.5,5.8c0,0-0.3,0.7-0.7,1.5c-1.5,2.3-6,6.1-24.3,7c0,0-8.8,9.2-3.5,12.3
		c5.4,3.1,6.9,0.4,6.9,0.4s0.8-2.3,0.8-4.2s13.1-0.8,13.1-0.8s-5,4.2-3.5,6.9c0,0,1.9,10.8,8.5,6.2c0,0,2.3-0.4,1.5-7.7
		c0,0,11.2-6.2,11.5-8.5c0.4-2.3,7.3-11.9,7.3-11.9s5-1.5,5.4,0.4s3.8-1.9,3.8-1.9s2.7-7.3-9.2-8.5c-0.7,0.7-1.8,1.5-3.2,2
		c-4.4,1.6-8.4-0.8-9.1-1.3C74.6,184.7,72.2,185.4,69.9,186.2z"/>
	<path d="M176.9,174.3c0,0,46.2,5.8,75.4-16.2l4.2,0.4l-1.5,2.7l5.4-1.9l-3.5,4.6l3.1-1.5c1.5,0.3,3.1,0.5,4.6,0.8
		c-6.4,4.7-14.9,10-25.4,14.2c-21.5,8.7-41,8.9-52.7,8.1L176.9,174.3z"/>
	<path d="M74.2,159.7c0,0-9.2,9.6-17.3,12.7c0,0-3.1,15,10.8,13.9c0,0,3.5,1.2,3.1,2.7l1.9-1.2l1.9,1.9l0.8-3.1h4.2l-0.4-2.3
		c0,0,10.4-8.1,19.2-7.7c0,0-16.2-11.9-15.4-15l-6.5,5.8l0.8-7.3l-3.1,1.5V159.7z"/>
	<path d="M46.9,92.7l4.2,11.5c0,0,16.9,6.2,22.3,5.4c0,0,3.8-7.3,5.4-7.7c0,0-6.9-29.2-3.8-32.7l4.6,5.8l1.2-8.8l4.2,6.9
		c0,0,12.3,5,13.1,8.5c0,0,13.9-6.9,18.9-5l5.8-6.5l1.2,4.6l10-9.6l-1.5,8.5c0,0,17.3-9.6,20.4-9.2l-6.5,13.9l7.3-2.7l-2.3,5
		c0,0,5.4,2.7,5.4,3.8c0,0,16.2-10,18.1-9.2l-2.3,5.4l10.4-3.5c0,0-3.1,5.8-4.2,6.5l-3.1,20.4c0,0,9.2,12.7,7.3,18.9h24.2
		c0,0,2.3-1.2,6.5-10l2.3-2.3l0.4,8.1l3.1-4.6v5.4l2.7-3.8l0.4,3.8l3.1-5.4l0.4,5c0,0-2.7,14.2-2.3,15.8c0,0-0.4,8.1-7.3,7.7
		c-6.9-0.4-33.9,5.8-33.9,5.8l-2.3,2.7l3.5,2.3l-6.2,2.7l6.5,7.3l-11.9-0.4l3.8,5.4l-3.5-0.4c0,0,13.5,18.1,14.2,17.7
		c0,0,3.1,7.7,0,10.4s-0.4,10.4-0.4,10.4l-2.3-2.3l-1.2,6.5l-2.3-2.3l0.4,2.7l-2.9-4.9l-0.4,2.7l-3.1-1.5c0,0-5.8-5.8-7.7-5
		c0,0-11.5-18.9-26.5-22.7l0.4,3.5l-3.1-3.5v7.7l-5.8-5l1.5,6.2L126,184l-0.4,5.8l-9.2-7.7l-0.8,5l-3.8-2.3l-0.4,4.2
		c0,0-7.7-7.3-6.9-10l-1.2,4.6l-5-6.9c0,0-15-11.5-15.4-15l-6.5,5.8l0.8-7.3l-3.1,1.5v-1.9l-3.8-0.8l3.1-5.4l-11.2,1.2l8.1-9.6h-3.8
		l1.9-3.1h-7.3L68,139l-2.3-1.5l4.2-2.3l-28.5-16.5c0,0-5.4-1.5-4.6-7.7c0.8-6.2-1.9-15.8-1.9-15.8l2.7,4.2l0.4-3.8l1.5,1.2l1.2-3.5
		l2.3,5.8v-5.8l2.3,2.7L46.9,92.7z"/>
	<path d="M83.4,105.8c0,0,7.3-7.7,13.5-7.7c0,0-14.6-16.9-19.2-17.3C77.6,80.8,79.9,102,83.4,105.8z"/>
	<path d="M152.3,103.5c0,0,15.8,6.9,16.5,10.8c0,0,5.4-25,5.4-28.5C174.2,85.8,151.1,101.6,152.3,103.5z"/>
	<path d="M110,148.9c0,0-16.5-2.3-13.5,9.2s21.5,9.2,21.5,9.2s7.7-1.2,6.5-6.9C124.6,160.4,123.4,150.8,110,148.9z"/>
</g>
<g>
	<path class="st1" d="M41.9,87.5c0,0-6.9-33.9-13.5-37.7s-11.5-0.4-11.5-0.4S13,59,1.5,66c0,0-0.4,10.4,6.2,10.8
		c0,0,4.6,4.6,10.4,1.9c0,0,8.1,1.5,8.8-0.8L30,89.8l5,10.4L41.9,87.5z"/>
	<path class="st1" d="M169.6,202.2c0,0,3.1,4.2,1.9,5c0,0-11.2,2.7-4.2,13.5c0,0-3.8,6.2-5.8,6.5c0,0-6.2,4.6,0.4,11.5
		c0,0,5,11.2,11.9,3.8c0,0-5.8-11.5,0.4-13.9c0,0,10-2.3,13.9,0c0,0,9.2,5.8,6.5,11.2c0,0,10.8,5.4,10-5.4l-1.9-6.2
		c0,0-0.8-3.1-4.2-4.6c-3.5-1.5-15-13.5-15-13.5l-2.3-9.2l-3.8-10.8L169.6,202.2z"/>
	<path class="st1" d="M210.8,105.2c0,0,11.5-25,11.2-27.7c-0.4-2.7,3.8-7.3,3.8-7.3s3.5-4.2,17.7,5.8c0,0,7.7,15.8,10.4,16.5
		c0,0,0.4,6.5-3.8,8.1c0,0-1.5,8.5-12.3,3.8c0,0-1.9,3.8-11.9-0.4c0,0-2.3-1.5-5,9.6l-10,1.5L210.8,105.2L210.8,105.2z"/>
	<path class="st2" d="M143,178.3c0,0-12.7-0.8-15.4-3.8c-2.7-3.1,12.3-1.9,12.3-1.9L143,178.3z"/>
	<path class="st3" d="M247.3,152.9c0,0,20.4-15.4,21.2-23.5s-7.7-1.2-7.7-1.2s-8.8,5.8-9.2,9.2c-0.4,3.5-7.3,6.2-7.3,6.2
		s-10-2.3-3.5-12.3s22.7-15.8,22.7-15.8s20.8-5.8,17.7,8.5c0,0,3.1,23.1-28.1,37.7L247.3,152.9z"/>
	<path class="st3" d="M64.9,181c0.8,1,2.2,3.4,1.5,5.8c0,0-0.3,0.7-0.7,1.5c-1.5,2.3-6,6.1-24.3,7c0,0-8.8,9.2-3.5,12.3
		c5.4,3.1,6.9,0.4,6.9,0.4s0.8-2.3,0.8-4.2s13.1-0.8,13.1-0.8s-5,4.2-3.5,6.9c0,0,1.9,10.8,8.5,6.2c0,0,2.3-0.4,1.5-7.7
		c0,0,11.2-6.2,11.5-8.5C77.1,197.6,84,188,84,188s5-1.5,5.4,0.4s3.8-1.9,3.8-1.9s2.7-7.3-9.2-8.5c-0.7,0.7-1.8,1.5-3.2,2
		c-4.4,1.6-8.4-0.8-9.1-1.3C69.6,179.5,67.2,180.2,64.9,181z"/>
	<path class="st2" d="M171.9,169.1c0,0,46.2,5.8,75.4-16.2l4.2,0.4L250,156l5.4-1.9l-3.5,4.6l3.1-1.5c1.5,0.3,3.1,0.5,4.6,0.8
		c-6.4,4.7-14.9,10-25.4,14.2c-21.5,8.7-41,8.9-52.7,8.1L171.9,169.1z"/>
	<path class="st2" d="M69.2,154.5c0,0-9.2,9.6-17.3,12.7c0,0-3.1,15,10.8,13.9c0,0,3.5,1.2,3.1,2.7l1.9-1.2l1.9,1.9l0.8-3.1h4.2
		l-0.4-2.3c0,0,10.4-8.1,19.2-7.7c0,0-16.2-11.9-15.4-15l-6.5,5.8l0.8-7.3l-3.1,1.5V154.5z"/>
	<path class="st4" d="M41.9,87.5L46.1,99c0,0,16.9,6.2,22.3,5.4c0,0,3.8-7.3,5.4-7.7c0,0-6.9-29.2-3.8-32.7l4.6,5.8l1.2-8.8l4.2,6.9
		c0,0,12.3,5,13.1,8.5c0,0,13.9-6.9,18.9-5l5.8-6.5l1.2,4.6l10-9.6l-1.5,8.5c0,0,17.3-9.6,20.4-9.2l-6.5,13.9l7.3-2.7l-2.3,5
		c0,0,5.4,2.7,5.4,3.8c0,0,16.2-10,18.1-9.2l-2.3,5.4l10.4-3.5c0,0-3.1,5.8-4.2,6.5l-3.1,20.4c0,0,9.2,12.7,7.3,18.9h24.2
		c0,0,2.3-1.2,6.5-10l2.3-2.3l0.4,8.1l3.1-4.6v5.4l2.7-3.8l0.4,3.8l3.1-5.4l0.4,5c0,0-2.7,14.2-2.3,15.8c0,0-0.4,8.1-7.3,7.7
		c-6.9-0.4-33.9,5.8-33.9,5.8l-2.3,2.7l3.5,2.3l-6.2,2.7l6.5,7.3l-11.9-0.4l3.8,5.4l-3.5-0.4c0,0,13.5,18.1,14.2,17.7
		c0,0,3.1,7.7,0,10.4s-0.4,10.4-0.4,10.4L179,199l-1.2,6.5l-2.3-2.3l0.4,2.7L173,201l-0.4,2.7l-3.1-1.5c0,0-5.8-5.8-7.7-5
		c0,0-11.5-18.9-26.5-22.7l0.4,3.5l-3.1-3.5v7.7l-5.8-5l1.5,6.2l-7.3-4.6l-0.4,5.8l-9.2-7.7l-0.8,5l-3.8-2.3l-0.4,4.2
		c0,0-7.7-7.3-6.9-10l-1.2,4.6l-5-6.9c0,0-15-11.5-15.4-15l-6.5,5.8l0.8-7.3l-3.1,1.5v-1.9l-3.8-0.8l3.1-5.4l-11.2,1.2l8.1-9.6h-3.8
		l1.9-3.1h-7.3l6.9-3.1l-2.3-1.5l4.2-2.3l-28.5-16.5c0,0-5.4-1.5-4.6-7.7c0.8-6.2-1.9-15.8-1.9-15.8l2.7,4.2l0.4-3.8l1.5,1.2
		l1.2-3.5l2.3,5.8v-5.8l2.3,2.7L41.9,87.5z"/>
	<path class="st1" d="M78.4,100.6c0,0,7.3-7.7,13.5-7.7c0,0-14.6-16.9-19.2-17.3C72.6,75.6,74.9,96.8,78.4,100.6z"/>
	<path class="st1" d="M147.3,98.3c0,0,15.8,6.9,16.5,10.8c0,0,5.4-25,5.4-28.5C169.2,80.6,146.1,96.4,147.3,98.3z"/>
	<path class="st5" d="M105,143.7c0,0-16.5-2.3-13.5,9.2s21.5,9.2,21.5,9.2s7.7-1.2,6.5-6.9C119.6,155.2,118.4,145.6,105,143.7z"/>
</g>
</svg>
