<?xml version="1.0" encoding="utf-8"?>
<!-- Generator: Adobe Illustrator 23.0.6, SVG Export Plug-In . SVG Version: 6.00 Build 0)  -->
<svg version="1.1" id="Layer_1" xmlns="http://www.w3.org/2000/svg" xmlns:xlink="http://www.w3.org/1999/xlink" x="0px" y="0px"
	 viewBox="0 0 288 288" style="enable-background:new 0 0 288 288;" xml:space="preserve">
<style type="text/css">
	.st0{display:none;}
	.st1{display:inline;}
	.st2{fill:#584B8C;}
	.st3{fill:#FFFFFF;}
	.st4{fill:#2B3E52;}
	.st5{fill:#C8709F;}
</style>
<g class="st0">
	<g id="_x32_Yk5GR.tif" class="st1">
	</g>
</g>
<g>
	<path class="st2" d="M34.1,153.3c0,0-2.5-85.7,87.8-96.2s106.7,95,106.7,95s-3.8,24.4-87,31.1C141.6,183.2,66.8,194.1,34.1,153.3z"
		/>
	<path class="st3" d="M35.8,172.3c0,0,7.6,72.7,89.5,79.8s101.3-80.7,101.3-80.7S121.1,237.4,35.8,172.3z"/>
	<path class="st4" d="M34.1,153.3l1.7,18.9c0,0,13.4,17.6,43.3,23.1c0,0,1.7,23.5,30.7,26.1c29,2.5,33.2-20.6,33.2-20.6
		s70.6-2.5,83.6-29.4c0,0,1.3-3.8,2.1-19.3c-2.4,3-6.1,7-11.3,10.9c-8.4,6.2-16.7,9.2-28.6,12.2c-11.3,2.8-26.9,6-46.2,7.6
		c-0.1-2.7-0.5-6.5-2.5-10.5c-7.6-15.2-29.3-15.5-31.1-15.5c-3.9,0-9.7,0-15.7,3.6c-10.1,6-12.4,17.2-12.9,19.5
		c-5.6-1.3-12.3-3.5-19.4-7C48.5,166.8,39.7,159.1,34.1,153.3z"/>
	<path class="st3" d="M100.5,170.2c-0.8,0.4-11.5,6.4-12.2,17.6c-0.1,1.4,0.1,7.5,3.6,12.9c3,4.8,6.9,6.8,6.9,6.8s12.2,7.6,20.6,2.5
		c8.4-5,9.7-8.4,9.7-8.4c1-1.7,4.7-8.3,2.9-16.4c-1.1-5.1-4-8.4-5-9.7c-1.3-1.4-5.8-6.4-13.4-7.6
		C107.2,167.1,102.3,169.2,100.5,170.2z"/>
	<path class="st5" d="M171.5,65.1c0,0-22.3,31.9,6.7,52.1s41.6,5.5,41.6,5.5S203.4,76,171.5,65.1z"/>
	<path class="st5" d="M83.7,68.7c9.9,15.9,7.4,36.2-5,48.1c-10.3,9.8-25.9,12.6-39.9,7.1c1.4-6.7,5.1-20.6,16.3-34
		C65.5,77.4,77.4,71.4,83.7,68.7z"/>
	<path class="st3" d="M82.8,143.7c2.5,1.7,5,3.4,7.6,5l10.9-18.5l7.1,16l9.7-15.1l8.8,20.2l10.9-5.5l-16.4-30.3l-10.9,13.9
		l-10.9-17.2C94,122.7,88.4,133.2,82.8,143.7z"/>
</g>
</svg>
