<?xml version="1.0" encoding="utf-8"?>
<!-- Generator: Adobe Illustrator 23.0.6, SVG Export Plug-In . SVG Version: 6.00 Build 0)  -->
<svg version="1.1" id="Layer_1" xmlns="http://www.w3.org/2000/svg" xmlns:xlink="http://www.w3.org/1999/xlink" x="0px" y="0px"
	 viewBox="0 0 288 288" style="enable-background:new 0 0 288 288;" xml:space="preserve">
<style type="text/css">
	.st0{opacity:0.5;}
	.st1{fill:#778955;}
	.st2{fill:#AFC67B;}
</style>
<g class="st0">
	<path d="M30,131.9c0,0-4.8,33.9,2.4,42.1s22.8,18.9,22.8,18.9S28.5,175.5,30,131.9z"/>
	<path d="M199.4,213.2c0,0,13.6,9.7,17.9,14c4.4,4.4,5.8,6.8,5.8,6.8s8.2,4.4,10.2,6.8c1.9,2.4,6.3,4.8,6.3,4.8s4.4,3.4,3.9,4.8
		l20.8,8.7c0,0,12.6,16.9-36.3,22.3c0,0-12.1,3.4-24.2-1.5c-12.1-4.8-12.1-4.8-12.1-4.8s-32.9-8.7-34.9-14.5
		C156.8,260.8,201.8,261.8,199.4,213.2z"/>
	<path d="M30,131.9c0,0,4.4-39.2,16.5-53.7s16.4-45.6,16.4-45.6S80.8,2.1,90.4,10.4c0,0,6.8,9.7,6.3,16s16.4,37.7,16.4,37.7
		s37.8,54.7,83.3,64.9c0,0,1.9,5.3-2.9,12.1c0,0-22.8,32-17.9,38.7c4.8,6.8,16,18.4,16,18.4s8.2,8.7,7.7,15c0,0,9.7,46.5-42.6,47.4
		l-49.4-14l-21.3-16c0,0-30.5-25.7-28.6-34.4l-2.4-3.4C55.2,192.9,27.1,175.5,30,131.9z"/>
</g>
<g>
	<path class="st1" d="M25.1,125.8c0,0-4.8,33.9,2.4,42.1s22.8,18.9,22.8,18.9S23.6,169.4,25.1,125.8z"/>
	<path class="st1" d="M194.5,207.1c0,0,13.6,9.7,17.9,14c4.4,4.4,5.8,6.8,5.8,6.8s8.2,4.4,10.2,6.8c1.9,2.4,6.3,4.8,6.3,4.8
		s4.4,3.4,3.9,4.8l20.8,8.7c0,0,12.6,16.9-36.3,22.3c0,0-12.1,3.4-24.2-1.5c-12.1-4.8-12.1-4.8-12.1-4.8s-32.9-8.7-34.9-14.5
		C151.9,254.6,196.9,255.6,194.5,207.1z"/>
	<path class="st2" d="M25.1,125.8c0,0,4.4-39.2,16.5-53.7S58,26.5,58,26.5S75.9-4,85.6,4.3c0,0,6.8,9.7,6.3,16S108.3,58,108.3,58
		s37.8,54.7,83.3,64.9c0,0,1.9,5.3-2.9,12.1c0,0-22.8,32-17.9,38.7c4.8,6.8,16,18.4,16,18.4s8.2,8.7,7.7,15c0,0,9.7,46.5-42.6,47.4
		l-49.4-14l-21.3-16c0,0-30.5-25.7-28.6-34.4l-2.4-3.4C50.3,186.8,22.2,169.4,25.1,125.8z"/>
</g>
</svg>
