<?xml version="1.0" encoding="utf-8"?>
<!-- Generator: Adobe Illustrator 23.0.6, SVG Export Plug-In . SVG Version: 6.00 Build 0)  -->
<svg version="1.1" id="Layer_1" xmlns="http://www.w3.org/2000/svg" xmlns:xlink="http://www.w3.org/1999/xlink" x="0px" y="0px"
	 viewBox="0 0 288 288" style="enable-background:new 0 0 288 288;" xml:space="preserve">
<style type="text/css">
	.st0{opacity:0.5;}
	.st1{fill:#A78890;}
	.st2{fill:#C4A4AD;}
	.st3{fill:#E7C6CD;}
</style>
<g class="st0">
	<path d="M207.9,165.6c0,0,10.1,4.5,28.1-9.6s36-32.1,36-32.1s18.6-20.8-5.1-23.1c-23.6-2.2-39.4-0.6-39.4-0.6s-56.2,5.1-97.3,24.7
		l-14.6,1.7c0,0-72.6,33.7-101.8,12.9S72.4,37.3,72.4,37.3s50-40.5,51.1-29.2c1.1,11.3-15.1,32-15.1,32S72.9,77.3,47,77.8
		c0,0-55.7,48.4-23.6,59.1s87.2-15.7,87.2-15.7l47.2-12.9c0,0,83.2-25.9,111.9-11.8c0,0,33.7,2.8,3.9,38.2c0,0-42.2,34.3-47.2,35.4
		c-5.1,1.1-13.5,14.6-13.5,14.6L207.9,165.6z"/>
	<path d="M133.1,194.8c0,0-1.1,68.1,25.3,67.5c0,0,12.9-2.2,3.4-25.9c0,0-11.8-25.3-10.7-29.2C152.2,203.3,133.1,194.8,133.1,194.8z
		"/>
	<path d="M97.7,54.8c0,0-20.8-3.9-24.2,2.2s7.3,25.9,7.3,25.9L97.7,54.8z"/>
	<path d="M120.2,127.9c0,0-17.4,11.8-18.6,15.2c-1.1,3.4,1.7,2.2,1.7,2.2s-1.1,3.4,2.8,3.4l2.8,2.8l2.2-2.8c0,0,24.2-11.8,27-7.9
		c0,0,1.1,2.8,0.6,7.9c-0.6,5.1-1.1,19.1-1.1,19.1s-9,18.6-2.8,32.1s21.9,11.2,21.9,11.2l3.9-1.1c0,0,13.5,5.1,23.6-0.6
		c10.1-5.6,11.8-5.6,11.8-5.6l9.6,1.1c0,0,7.3,10.7,11.2,54s28.7,23.6,28.7,23.6s11.2-8.4-13.5-54c0,0-10.1-32.1-15.7-33.7
		c0,0,0-28.7-18.6-39.9c-18.6-11.2-25.9-26.4-25.9-26.4l20.8-0.6l3.9,3.4l2.2-3.9l5.1-1.7l-2.8-5.1l2.2-3.4c0,0-30.4-5.1-37.7-2.2
		c0,0-10.1-2.8-7.9-6.7c2.2-3.9,0,0,0,0s31.5-23.1,7.9-46.7c0,0,0.6-20.2-5.6-25.3s-24.2,7.3-24.2,7.3s-22.5-1.1-38.2,11.2
		S80.8,82.9,80.8,82.9s-16.9,30.4,24.7,36.6C105.5,119.5,111.2,127.3,120.2,127.9z"/>
</g>
<g>
	<path class="st1" d="M202.4,161.5c0,0,10.1,4.5,28.1-9.6s36-32.1,36-32.1s18.6-20.8-5.1-23.1c-23.6-2.2-39.4-0.6-39.4-0.6
		s-56.2,5.1-97.3,24.7l-14.6,1.7c0,0-72.6,33.7-101.8,12.9S66.9,33.2,66.9,33.2S116.9-7.3,118,4s-15.1,32-15.1,32
		S67.4,73.2,41.5,73.7c0,0-55.7,48.4-23.6,59.1s87.2-15.7,87.2-15.7l47.2-12.9c0,0,83.2-25.9,111.9-11.8c0,0,33.7,2.8,3.9,38.2
		c0,0-42.2,34.3-47.2,35.4c-5.1,1.1-13.5,14.6-13.5,14.6L202.4,161.5z"/>
	<path class="st2" d="M127.6,190.7c0,0-1.1,68.1,25.3,67.5c0,0,12.9-2.2,3.4-25.9c0,0-11.8-25.3-10.7-29.2
		C146.7,199.2,127.6,190.7,127.6,190.7z"/>
	<path class="st2" d="M92.2,50.7c0,0-20.8-3.9-24.2,2.2s7.3,25.9,7.3,25.9L92.2,50.7z"/>
	<path class="st3" d="M114.7,123.8c0,0-17.4,11.8-18.6,15.2c-1.1,3.4,1.7,2.2,1.7,2.2s-1.1,3.4,2.8,3.4l2.8,2.8l2.2-2.8
		c0,0,24.2-11.8,27-7.9c0,0,1.1,2.8,0.6,7.9c-0.6,5.1-1.1,19.1-1.1,19.1s-9,18.6-2.8,32.1c6.2,13.5,21.9,11.2,21.9,11.2l3.9-1.1
		c0,0,13.5,5.1,23.6-0.6c10.1-5.6,11.8-5.6,11.8-5.6l9.6,1.1c0,0,7.3,10.7,11.2,54s28.7,23.6,28.7,23.6s11.2-8.4-13.5-54
		c0,0-10.1-32.1-15.7-33.7c0,0,0-28.7-18.6-39.9c-18.6-11.2-25.9-26.4-25.9-26.4l20.8-0.6l3.9,3.4l2.2-3.9l5.1-1.7l-2.8-5.1l2.2-3.4
		c0,0-30.4-5.1-37.7-2.2c0,0-10.1-2.8-7.9-6.7c2.2-3.9,0,0,0,0s31.5-23.1,7.9-46.7c0,0,0.6-20.2-5.6-25.3s-24.2,7.3-24.2,7.3
		S107.7,38.4,92,50.7S75.3,78.8,75.3,78.8s-16.9,30.4,24.7,36.6C100,115.4,105.7,123.2,114.7,123.8z"/>
</g>
</svg>
