<?xml version="1.0" encoding="utf-8"?>
<!-- Generator: Adobe Illustrator 23.0.6, SVG Export Plug-In . SVG Version: 6.00 Build 0)  -->
<svg version="1.1" id="Layer_1" xmlns="http://www.w3.org/2000/svg" xmlns:xlink="http://www.w3.org/1999/xlink" x="0px" y="0px"
	 viewBox="0 0 288 288" style="enable-background:new 0 0 288 288;" xml:space="preserve">
<style type="text/css">
	.st0{opacity:0.5;}
	.st1{fill:#AFA7B4;}
	.st2{fill:#8D778A;}
	.st3{fill:#DCDBE3;}
</style>
<g class="st0">
	<path d="M134.2,255.5c0,0,8.6,4.7,4.1,12.9h-3.7l-1.3-12.9H134.2z"/>
	<path d="M201.5,98.8c0,0,7.9,14.6,24.2,19.1c0,0,7.3,6.7,9,11.2c1.7,4.5,18,23.1,18,23.1s6.7,2.8,6.7,5.6s5.1,6.8,5.1,6.8l0.6,6.2
		c0,0,1.1,3.4-0.6,4.5c0,0-2.6,6.7-8.2-0.2l0.3-1.5l0.5-2.4l1.7,0.2c0,0,0.2-2.8-0.6-2.8c-0.8,0-1.1,0.2-1.1,0.2s-0.4,6-2.1,7.5
		c0,0-2.8,6.7-7.5,2.2s-0.4-7.3-0.4-7.3s1.9-0.9,2.2-0.4l0.4-5.1c0,0-2.1-2.2-2.6-3.9s-5.1-2.2-5.1-2.2s-3.2,2.2-1.3,4.7
		c0,0,3.7,3,2.1,6.6c-1.7,3.6-4.9,3-4.9,3s-6,1.1-5.6-6l-0.4-9.6c0,0,2.2-5.4,4.7-7.3c0,0-9-20.2-18-24.2c-9-4-20.1-11.7-20.1-11.7
		l1.1-16.3l0.4-1.7L201.5,98.8z"/>
	<path d="M204.5,139.5c0,0,31.1,21.2,22.5,45.4s-20.4,30.6-20.4,30.6s-3,15-1.9,19.9s10.9,14.4,10.9,14.4s2.4,4.3,12.7,4.9
		c10.3,0.6,12.6,1.1,12.6,1.1s8.4,1.3,3,10.3l-5.2,1.3c0,0-4.1,3.8-10.3,3s-12.4,0-12.4,0s-8.1-3.9-9.4-7.3c-1.3-3.4-12-6.4-12-6.4
		s-11.2,6-14.4-3.4c-3.2-9.4,4.9-9.7,4.9-9.7l-0.4-2.6c0,0,8.1-9.9,7.5-16.1c-0.6-6.2-1.9-14.2-1.9-14.2L204.5,139.5z"/>
	<path d="M164.7,68.8c0,0-5.8,2.8-4.1,8.8l-10.5,7.1l-1.3-0.6c0,0-0.9-19.9,7.9-21.6l6.6,2.1L164.7,68.8z"/>
	<path d="M187,168.1c0,0,1.9-5.4,1.7-14.8s6.4-10.7,6.4-10.7s16.5-3.4,19.1,17.1c2.6,20.4-1.9,30.9-1.9,30.9s-19.1,34.7-61.1,25.9
		s-46.9-29.8-46.9-29.8l-23.2-52.9c0,0-18-32.8-29.1-18s5.2,49.3,5.2,49.3S65.8,179,78.9,185s21.2,18.9,21.2,18.9s9,18-2.1,22.1
		c-10.9,4.2-27-16.8-27-16.8s-17.8-24.7-22.7-37.1s-7.7-19.5-7.7-19.5s-8.8-35.8,6-45.7s30,1.1,30,1.1s19.5,17.2,25.9,32.4
		s25.3,25.5,25.3,25.5s8.4,4.7,18,2.6C155.4,166.5,187,168.1,187,168.1z"/>
	<path d="M188.9,22.6c0,0,7.9-6.4,7.3-10.9s9.7,3.7,9.7,3.7s1.1,1.7,0,4.3S205,41.6,205,41.6L188.9,22.6z"/>
	<path d="M188.9,22.6c0,0,22.5,15.7,19.3,30c-3.2,14.2-6.7,10.3-7.3,14.6s-0.2,8.1-0.2,8.1s-2.4,4.3-8.8,4.1
		c-6.4-0.2-6.4-0.8-6.4-0.8s-5.2-0.4-7.3-3c0,0-0.4,6.9,1.3,7.1c0,0,7.5-3.9,11.6,1.3c4.2,5.4,8.9,13.1,8.9,13.1s3.4,14.4-4.5,20.6
		c0,0,0.6,14.1,9,21.7l4.5,7.7c0,0-7.9-7.3-14.2-3.8c-6.4,3.6-6,9.9-6,9.9s0.4,13.3-1.7,14.8c0,0,0.4,38.2-33,45.2l-19.5,33.6
		c0,0-1.9,16.1,2.1,21.6c0,0,10.5,0.9,7.1,10.3s-11.8,4.9-11.8,4.9l-3.7-2.4c0,0-11.8,0.2-13.3,2.8c0,0-8.6,8.1-16.9,1.3
		c0,0-1.7-6,1.3-8.4s6.6-8.1,6.6-8.1l1.7-4.7l4.5-2.2l8.4-20.4l17.6-30.6c0,0-4.5-33.9,6.6-47.2s21.6-21.4,21.6-21.4
		s10.5-7.9,0.4-19.5c-10.1-11.6-13.3-18.2-13.3-18.2l-1.9-5.6h-1.3c0,0-6.7,8.6-15.2,1.7l-3.6-0.2c0,0-7.3,4.7-7.5,5.8
		c-0.2,1.1-9.4-0.2-9.4-0.2s-8.1-3.2-7.7-4.3c0,0-5.6-0.2-7.1,0.9c0,0-7.3,7.3-13.9-1.1c0,0-4.7-13.3,9.7-12.9c0,0,3.6,0.6,3.9,2.4
		l9.4-3.2l5.1-5.6c0,0-3.2-6-4.7-5.2c0,0-10.1-1.7-7.1-11.4s11.8-7.5,11.8-7.5s8.2,1.7,8.4,11.1l5.2,6.2c0,0,15.4,1.3,21.2,8.8
		l3.6-0.9c0,0,0.4-6.4,8.2-5.6l6.2,1.9l-0.2-9.2c0,0-19.3-10.7-18-22.7s10.7-23.2,10.7-23.2s-0.4-9.4-1.7-12.7s2.4-4.8,2.4-4.8
		s11.6-0.2,12.2,2.1s1.1,9.9,1.1,9.9S188.5,21.3,188.9,22.6z"/>
</g>
<g>
	<path class="st1" d="M129.2,250.4c0,0,8.6,4.7,4.1,12.9h-3.7l-1.3-12.9H129.2z"/>
	<path class="st1" d="M196.5,93.7c0,0,7.9,14.6,24.2,19.1c0,0,7.3,6.7,9,11.2c1.7,4.5,18,23.1,18,23.1s6.7,2.8,6.7,5.6
		s5.1,6.8,5.1,6.8l0.6,6.2c0,0,1.1,3.4-0.6,4.5c0,0-2.6,6.7-8.2-0.2l0.3-1.5l0.5-2.4l1.7,0.2c0,0,0.2-2.8-0.6-2.8s-1.1,0.2-1.1,0.2
		s-0.4,6-2.1,7.5c0,0-2.8,6.7-7.5,2.2s-0.4-7.3-0.4-7.3s1.9-0.9,2.2-0.4l0.4-5.1c0,0-2.1-2.2-2.6-3.9s-5.1-2.2-5.1-2.2
		s-3.2,2.2-1.3,4.7c0,0,3.7,3,2.1,6.6c-1.7,3.6-4.9,3-4.9,3s-6,1.1-5.6-6l-0.4-9.6c0,0,2.2-5.4,4.7-7.3c0,0-9-20.2-18-24.2
		S193.5,110,193.5,110l1.1-16.3L195,92L196.5,93.7z"/>
	<path class="st1" d="M199.5,134.4c0,0,31.1,21.2,22.5,45.4s-20.4,30.6-20.4,30.6s-3,15-1.9,19.9s10.9,14.4,10.9,14.4
		s2.4,4.3,12.7,4.9c10.3,0.6,12.6,1.1,12.6,1.1s8.4,1.3,3,10.3l-5.2,1.3c0,0-4.1,3.8-10.3,3s-12.4,0-12.4,0s-8.1-3.9-9.4-7.3
		c-1.3-3.4-12-6.4-12-6.4s-11.2,6-14.4-3.4s4.9-9.7,4.9-9.7l-0.4-2.6c0,0,8.1-9.9,7.5-16.1c-0.6-6.2-1.9-14.2-1.9-14.2L199.5,134.4z
		"/>
	<path class="st2" d="M159.7,63.7c0,0-5.8,2.8-4.1,8.8l-10.5,7.1l-1.3-0.6c0,0-0.9-19.9,7.9-21.6l6.6,2.1L159.7,63.7z"/>
	<path class="st2" d="M182,163c0,0,1.9-5.4,1.7-14.8s6.4-10.7,6.4-10.7s16.5-3.4,19.1,17.1c2.6,20.4-1.9,30.9-1.9,30.9
		s-19.1,34.7-61.1,25.9s-46.9-29.8-46.9-29.8l-23.2-52.9c0,0-18-32.8-29.1-18s5.2,49.3,5.2,49.3s8.6,13.9,21.7,19.9
		s21.2,18.9,21.2,18.9s9,18-2.1,22.1c-10.9,4.2-27-16.8-27-16.8S48.2,179.4,43.3,167s-7.7-19.5-7.7-19.5s-8.8-35.8,6-45.7
		s30,1.1,30,1.1s19.5,17.2,25.9,32.4s25.3,25.5,25.3,25.5s8.4,4.7,18,2.6C150.4,161.4,182,163,182,163z"/>
	<path class="st2" d="M183.9,17.5c0,0,7.9-6.4,7.3-10.9s9.7,3.7,9.7,3.7s1.1,1.7,0,4.3S200,36.5,200,36.5L183.9,17.5z"/>
	<path class="st3" d="M183.9,17.5c0,0,22.5,15.7,19.3,30c-3.2,14.2-6.7,10.3-7.3,14.6s-0.2,8.1-0.2,8.1s-2.4,4.3-8.8,4.1
		c-6.4-0.2-6.4-0.8-6.4-0.8s-5.2-0.4-7.3-3c0,0-0.4,6.9,1.3,7.1c0,0,7.5-3.9,11.6,1.3C190.3,84.3,195,92,195,92s3.4,14.4-4.5,20.6
		c0,0,0.6,14.1,9,21.7l4.5,7.7c0,0-7.9-7.3-14.2-3.8c-6.4,3.6-6,9.9-6,9.9s0.4,13.3-1.7,14.8c0,0,0.4,38.2-33,45.2l-19.5,33.6
		c0,0-1.9,16.1,2.1,21.6c0,0,10.5,0.9,7.1,10.3s-11.8,4.9-11.8,4.9l-3.7-2.4c0,0-11.8,0.2-13.3,2.8c0,0-8.6,8.1-16.9,1.3
		c0,0-1.7-6,1.3-8.4s6.6-8.1,6.6-8.1l1.7-4.7l4.5-2.2l8.4-20.4l17.6-30.6c0,0-4.5-33.9,6.6-47.2s21.6-21.4,21.6-21.4
		s10.5-7.9,0.4-19.5s-13.3-18.2-13.3-18.2l-1.9-5.6h-1.3c0,0-6.7,8.6-15.2,1.7l-3.6-0.2c0,0-7.3,4.7-7.5,5.8
		c-0.2,1.1-9.4-0.2-9.4-0.2s-8.1-3.2-7.7-4.3c0,0-5.6-0.2-7.1,0.9c0,0-7.3,7.3-13.9-1.1c0,0-4.7-13.3,9.7-12.9c0,0,3.6,0.6,3.9,2.4
		l9.4-3.2l5.1-5.6c0,0-3.2-6-4.7-5.2c0,0-10.1-1.7-7.1-11.4s11.8-7.5,11.8-7.5s8.2,1.7,8.4,11.1l5.2,6.2c0,0,15.4,1.3,21.2,8.8
		l3.6-0.9c0,0,0.4-6.4,8.2-5.6l6.2,1.9l-0.2-9.2c0,0-19.3-10.7-18-22.7s10.7-23.2,10.7-23.2s-0.4-9.4-1.7-12.7S155,2,155,2
		s11.6-0.2,12.2,2.1s1.1,9.9,1.1,9.9S183.5,16.2,183.9,17.5z"/>
</g>
</svg>
