<?xml version="1.0" encoding="utf-8"?>
<!-- Generator: Adobe Illustrator 23.0.6, SVG Export Plug-In . SVG Version: 6.00 Build 0)  -->
<svg version="1.1" id="Layer_1" xmlns="http://www.w3.org/2000/svg" xmlns:xlink="http://www.w3.org/1999/xlink" x="0px" y="0px"
	 viewBox="0 0 288 288" style="enable-background:new 0 0 288 288;" xml:space="preserve">
<style type="text/css">
	.st0{opacity:0.5;}
	.st1{fill:#29495B;}
	.st2{fill:#496A84;}
	.st3{fill:#F1F1F2;}
	.st4{fill:#DF879C;}
	.st5{fill:#CAB6B9;}
	.st6{fill:#B3B6BC;}
	.st7{fill:#F7E4E6;}
</style>
<g class="st0">
	<path d="M102.2,84.5l-0.7,0.2l-7.3,2.7c0,0-5.5,2.5-7.5-11s-15-9-15-9l-1.5-6.5l-7.5-0.5l-5-5.5c0,0,12.5-28.9,26.4-23.9
		c0,0,11,25.4,36.9,20.9l3.5,4.5L102.2,84.5z"/>
	<path d="M79.8,244c0,0-9,13-19.9,12.5C49,256,57.4,250,57.4,250s6.5-2.5,4.5,8.5c0,0,7,2,5.5-8c-1.5-10-14-9-14-9
		s-14,12.5-12.5,18.9c1.5,6.5,5.5,11.5,5.5,11.5s19.9,7,24.4,5c0,0,7.5-2,18.4-10c11-8,14-9.5,14-9.5s3.5-18.9-9.5-19.4
		c0,0,0.5,9.5-5.5,9C82.3,246.5,79.8,244,79.8,244z"/>
	<path d="M233.9,242c0,0,19.9,20.4,34.9,17.9c0,0-3.5-5.5-6.5-3.5c-3,2-3,7.5-3,7.5s-9.5-6.5-4-12c5.5-5.5,11-5.5,11-5.5
		s11.5,4.5,15.5,17.9c4,13.5-8,16.5-8,16.5s-9.5,1-14.5-0.5c-5-1.5-14.5-2-14.5-2s-6,0-15-8.5c0,0-25.9-4.5-11-25.4
		c0,0,5,14.5,14.5,8.5C233.4,253,238.8,251.5,233.9,242z"/>
	<path d="M162.6,56.1c0,0,23.4-1,41.9-30.4c0,0,7.5-11,37.9,12.5c0,0,12.5,9,5,9S226,46.7,226,46.7s-2,17.4-5.5,17.9s-15-2.5-15-2.5
		L203,82.5c0,0-1.5,5-13.5,3c0,0-3,6.5-10,4.5C179.5,90,155.1,82,162.6,56.1z"/>
	<path d="M85.8,158.3c0,0,0.5,13.5,6.5,20.4c6,7,22.4,26.4,22.4,26.4s23.4,12.5,48.4,2c24.9-10.5,24.4-27.9,24.4-27.9
		s6.5-18.9,3.5-37.4c-0.7-4.6-2.5-7.9-4.8-10.3c-5.9-6.2-17.3-3.3-17.7-5.7c-0.1-0.5,0.3-1.2,2.1-2.3c-5.5,1.9-12.4,3.5-20.4,4
		c-21.5,1.2-38.1-6.9-45.9-11.5C98.2,130.1,92,144.2,85.8,158.3z"/>
	<path d="M81.8,199.1c0,0-7.5-10.5,9.8-21.5c0,0,24.6-7,23.1,27.4c0,0-8.8,14.8-25.9,6.5L81.8,199.1z"/>
	<path d="M184.5,207.1c0,0-15.5,15.8-23.8-0.2s11.6-27.6,11.6-27.6s22-10.3,20.6,15.8L184.5,207.1z"/>
	<path d="M81.8,199.1L52.4,218l14,16.5c0,0,13,5,13.5,9.5s0,0,0,0s3.5,7,11.5,2.5s2.5-8.5,2.5-8.5s-11.5-8-11.5-13s-7-6-7-6
		s12-8,13.5-7.5C88.8,211.6,93.3,204.6,81.8,199.1z"/>
	<path d="M53.3,217.2c0,0-17,17.9,14,16.5c0,0,4-6,4.5-12.5C71.7,221.2,54.3,224.2,53.3,217.2z"/>
	<path d="M98.6,111.9c0,0-27.6-8.3-33.9,20.9c0,0-6.6,21.6,21.1,25.4c0,0,24.7-1.2,25.7-20.1C112.5,119.2,98.6,111.9,98.6,111.9z"/>
	<path d="M184,109.2c0,0,26.3-4,27.9,19.6c1.7,23.6-16.3,27.6-16.3,27.6s-19.6,7-27.9-13C159.4,123.5,184,109.2,184,109.2z"/>
	<path d="M184.5,207.1l22.9,10l2.5,5.5c0,0-2,14,8,18.9c0,0,4.5,6.5,4,9c0,0,5.5,6.5,11.5,2.5c6-4,0.5-11,0.5-11l-7.5-24.9l-10-10.5
		c0,0-22.4-8.5-23.4-11.5C193,195.2,183,195.7,184.5,207.1z"/>
	<path d="M207.9,120.4c0,0,23.9-0.5,28.9-4s9,8.5,9,8.5l5.5,21.9l-11.5,3l-6-19.9c0,0-1.5-4.5-23.9,3.5
		C209.9,133.3,202.9,131.8,207.9,120.4z"/>
	<path d="M51.9,86l-6,28.4c0,0,20.9,8,24.9,8.5s7,1.5,7,1.5s1.5,12-8.5,11c0,0-6-4-8-4.5s-24.9-6-24.9-6s-5-1-2-9.5s7-31.4,7-31.4
		L51.9,86z"/>
	<path d="M139.1,51.1c-5.9,0.2-10.1,1.8-12.6,3c-11.9,5.6-17.9,17.8-24.2,30.4c-1.4,2.7-2.4,5-3,6.5c-1.3,2.3-4.9,9.6-2.5,17.3
		c0.6,2,2.5,8.1,13.5,13.6c26.9,13.5,45.4,7.5,45.4,7.5s27.9-4.5,29.4-28.4l-1.5-11c0,0-26.4-5.5-20.9-33.9
		C162.6,56.1,155.1,48.1,139.1,51.1z"/>
	<path d="M216.4,206.6c0,0-9.5,4.5-9,10.5l2.5,5.5c0,0,16.5,8,19.4-3.5C229.4,219.1,228.4,206.6,216.4,206.6z"/>
	<path d="M41.4,84c0,0-12.5-9.5-11-17l-8-7c0,0-15.5,2.5-8.5-12c0,0,11.5-7.5,14,6l5,3c0,0,4.5,2,4-2.5l-2.5-10c0,0-15-1.5-2-13.5
		c0,0,13-0.5,8.5,12l4,8.5l3,1l2-8.5c0,0-10-10.5,3.5-15.5c0,0,14.5,4.5,3.5,15.5l-1.5,9l6,1.5l2.5-7.5c0,0-2.5-14.5,10-12s0,0,0,0
		s14,11-1.5,15l-6,11l1,5.5l4.5,1c0,0,9-12,13-4s-1.5,14-1.5,14s-7.5,1-9-1.5s-7-1-7-1s-5,10-15.5,11L41.4,84z"/>
	<path d="M239.8,149.8c0,0-7,1.5-9,10.5l-7,1.5c0,0-13-2.5-11,9s11.5,1.5,11.5,1.5l7-3.5l6,3.5l-1.5,7.5c0,0-11,9,1,12.5
		s8.5-7.5,8.5-7.5v-12h3c0,0,4,4.5,4,9c0,0,0,13,11,10c0,0,7-5.5-0.5-12.5l-4.5-6.5c0,0,6-2,10,3.5c0,0,4.5,9.5,12,1.5
		c0,0,3-7.5-7.5-9l-7.5-3c0,0,3.5-4,8.5,0c0,0,9.5,6.5,10.5-4.5c0,0-3.5-6-11-3l-8.5-2c0,0-4.5-7.5-13.5-9.5L239.8,149.8z"/>
	<ellipse transform="matrix(0.7071 -0.7071 0.7071 0.7071 -31.9683 30.7771)" cx="21.2" cy="54" rx="4.7" ry="3.5"/>
	<ellipse transform="matrix(0.916 -0.4011 0.4011 0.916 -12.9625 17.645)" cx="35.7" cy="39.8" rx="4.7" ry="3.5"/>
	<ellipse transform="matrix(0.203 -0.9792 0.9792 0.203 5.3705 82.7483)" cx="53.5" cy="38.1" rx="3.5" ry="4.7"/>
	<ellipse transform="matrix(0.5 -0.866 0.866 0.5 -2.294 82.899)" cx="70.6" cy="43.4" rx="3.5" ry="4.7"/>
	<ellipse transform="matrix(0.9947 -0.1033 0.1033 0.9947 -6.8614 8.4909)" cx="78.6" cy="70.5" rx="3.5" ry="4.7"/>
	<path d="M98.2,92.3c0,0,8.3,8.6,3.3,23.3C101.6,115.5,90.6,108.6,98.2,92.3z"/>
	<path d="M167,98.9c0,0-16.3-1.3-11.6,19.3c0,0,10.3,13.3,18.6-5.3C174,112.9,176,101.2,167,98.9z"/>
	<path d="M144.4,141.5c0,0-35.2-3.7-24.3,36.9c0,0,21.9,24.9,41.9,1C162,179.4,176.3,151.1,144.4,141.5z"/>
</g>
<g>
	<path class="st1" d="M98.1,78.9l-0.7,0.2l-7.3,2.7c0,0-5.5,2.5-7.5-11s-15-9-15-9l-1.5-6.5l-7.5-0.5l-5-5.5
		c0,0,12.5-28.9,26.4-23.9c0,0,11,25.4,36.9,20.9l3.5,4.5L98.1,78.9z"/>
	<path class="st1" d="M75.7,238.4c0,0-9,13-19.9,12.5s-2.5-6.5-2.5-6.5s6.5-2.5,4.5,8.5c0,0,7,2,5.5-8s-14-9-14-9
		s-14,12.5-12.5,18.9c1.5,6.5,5.5,11.5,5.5,11.5s19.9,7,24.4,5c0,0,7.5-2,18.4-10c11-8,14-9.5,14-9.5s3.5-18.9-9.5-19.4
		c0,0,0.5,9.5-5.5,9C78.2,240.9,75.7,238.4,75.7,238.4z"/>
	<path class="st2" d="M229.8,236.4c0,0,19.9,20.4,34.9,17.9c0,0-3.5-5.5-6.5-3.5s-3,7.5-3,7.5s-9.5-6.5-4-12s11-5.5,11-5.5
		s11.5,4.5,15.5,17.9c4,13.5-8,16.5-8,16.5s-9.5,1-14.5-0.5s-14.5-2-14.5-2s-6,0-15-8.5c0,0-25.9-4.5-11-25.4c0,0,5,14.5,14.5,8.5
		C229.3,247.4,234.7,245.9,229.8,236.4z"/>
	<path class="st2" d="M158.5,50.5c0,0,23.4-1,41.9-30.4c0,0,7.5-11,37.9,12.5c0,0,12.5,9,5,9s-21.4-0.5-21.4-0.5s-2,17.4-5.5,17.9
		s-15-2.5-15-2.5l-2.5,20.4c0,0-1.5,5-13.5,3c0,0-3,6.5-10,4.5C175.4,84.4,151,76.4,158.5,50.5z"/>
	<path class="st3" d="M81.7,152.7c0,0,0.5,13.5,6.5,20.4c6,7,22.4,26.4,22.4,26.4s23.4,12.5,48.4,2c24.9-10.5,24.4-27.9,24.4-27.9
		s6.5-18.9,3.5-37.4c-0.7-4.6-2.5-7.9-4.8-10.3c-5.9-6.2-17.3-3.3-17.7-5.7c-0.1-0.5,0.3-1.2,2.1-2.3c-5.5,1.9-12.4,3.5-20.4,4
		c-21.5,1.2-38.1-6.9-45.9-11.5C94.1,124.5,87.9,138.6,81.7,152.7z"/>
	<path class="st4" d="M77.7,193.5c0,0-7.5-10.5,9.8-21.5c0,0,24.6-7,23.1,27.4c0,0-8.8,14.8-25.9,6.5L77.7,193.5z"/>
	<path class="st4" d="M180.4,201.5c0,0-15.5,15.8-23.8-0.2s11.6-27.6,11.6-27.6s22-10.3,20.6,15.8L180.4,201.5z"/>
	<path class="st5" d="M77.7,193.5l-29.4,18.9l14,16.5c0,0,13,5,13.5,9.5s0,0,0,0s3.5,7,11.5,2.5s2.5-8.5,2.5-8.5s-11.5-8-11.5-13
		s-7-6-7-6s12-8,13.5-7.5C84.7,206,89.2,199,77.7,193.5z"/>
	<path class="st6" d="M49.2,211.6c0,0-17,17.9,14,16.5c0,0,4-6,4.5-12.5C67.6,215.6,50.2,218.6,49.2,211.6z"/>
	<path class="st4" d="M94.5,106.3c0,0-27.6-8.3-33.9,20.9c0,0-6.6,21.6,21.1,25.4c0,0,24.7-1.2,25.7-20.1
		C108.4,113.6,94.5,106.3,94.5,106.3z"/>
	<path class="st4" d="M179.9,103.6c0,0,26.3-4,27.9,19.6c1.7,23.6-16.3,27.6-16.3,27.6s-19.6,7-27.9-13
		C155.3,117.9,179.9,103.6,179.9,103.6z"/>
	<path class="st7" d="M180.4,201.5l22.9,10l2.5,5.5c0,0-2,14,8,18.9c0,0,4.5,6.5,4,9c0,0,5.5,6.5,11.5,2.5s0.5-11,0.5-11l-7.5-24.9
		l-10-10.5c0,0-22.4-8.5-23.4-11.5C188.9,189.6,178.9,190.1,180.4,201.5z"/>
	<path class="st7" d="M203.8,114.8c0,0,23.9-0.5,28.9-4s9,8.5,9,8.5l5.5,21.9l-11.5,3l-6-19.9c0,0-1.5-4.5-23.9,3.5
		C205.8,127.7,198.8,126.2,203.8,114.8z"/>
	<path class="st7" d="M47.8,80.4l-6,28.4c0,0,20.9,8,24.9,8.5s7,1.5,7,1.5s1.5,12-8.5,11c0,0-6-4-8-4.5s-24.9-6-24.9-6s-5-1-2-9.5
		s7-31.4,7-31.4L47.8,80.4z"/>
	<path class="st7" d="M135,45.5c-5.9,0.2-10.1,1.8-12.6,3c-11.9,5.6-17.9,17.8-24.2,30.4c-1.4,2.7-2.4,5-3,6.5
		c-1.3,2.3-4.9,9.6-2.5,17.3c0.6,2,2.5,8.1,13.5,13.6c26.9,13.5,45.4,7.5,45.4,7.5s27.9-4.5,29.4-28.4l-1.5-11
		c0,0-26.4-5.5-20.9-33.9C158.5,50.5,151,42.5,135,45.5z"/>
	<path class="st3" d="M212.3,201c0,0-9.5,4.5-9,10.5l2.5,5.5c0,0,16.5,8,19.4-3.5C225.3,213.5,224.3,201,212.3,201z"/>
	<path class="st3" d="M37.3,78.4c0,0-12.5-9.5-11-17l-8-7c0,0-15.5,2.5-8.5-12c0,0,11.5-7.5,14,6l5,3c0,0,4.5,2,4-2.5l-2.5-10
		c0,0-15-1.5-2-13.5c0,0,13-0.5,8.5,12l4,8.5l3,1l2-8.5c0,0-10-10.5,3.5-15.5c0,0,14.5,4.5,3.5,15.5l-1.5,9l6,1.5l2.5-7.5
		c0,0-2.5-14.5,10-12s0,0,0,0s14,11-1.5,15l-6,11l1,5.5l4.5,1c0,0,9-12,13-4s-1.5,14-1.5,14s-7.5,1-9-1.5s-7-1-7-1s-5,10-15.5,11
		L37.3,78.4z"/>
	<path class="st3" d="M235.7,144.2c0,0-7,1.5-9,10.5l-7,1.5c0,0-13-2.5-11,9s11.5,1.5,11.5,1.5l7-3.5l6,3.5l-1.5,7.5
		c0,0-11,9,1,12.5s8.5-7.5,8.5-7.5v-12h3c0,0,4,4.5,4,9c0,0,0,13,11,10c0,0,7-5.5-0.5-12.5l-4.5-6.5c0,0,6-2,10,3.5
		c0,0,4.5,9.5,12,1.5c0,0,3-7.5-7.5-9l-7.5-3c0,0,3.5-4,8.5,0c0,0,9.5,6.5,10.5-4.5c0,0-3.5-6-11-3l-8.5-2c0,0-4.5-7.5-13.5-9.5
		L235.7,144.2z"/>
	<ellipse transform="matrix(0.7071 -0.7071 0.7071 0.7071 -29.2322 26.2078)" class="st4" cx="17" cy="48.4" rx="4.7" ry="3.5"/>
	<ellipse transform="matrix(0.916 -0.4011 0.4011 0.916 -11.0695 15.5122)" class="st4" cx="31.5" cy="34.2" rx="4.7" ry="3.5"/>
	<ellipse transform="matrix(0.203 -0.9792 0.9792 0.203 7.536 74.2338)" class="st4" cx="49.4" cy="32.5" rx="3.5" ry="4.7"/>
	<ellipse transform="matrix(0.5 -0.866 0.866 0.5 0.4711 76.5134)" class="st4" cx="66.5" cy="37.8" rx="3.5" ry="4.7"/>
	<ellipse transform="matrix(0.9947 -0.1033 0.1033 0.9947 -6.3064 8.0326)" class="st4" cx="74.4" cy="64.9" rx="3.5" ry="4.7"/>
	<path class="st4" d="M94.1,86.7c0,0,8.3,8.6,3.3,23.3C97.5,109.9,86.5,103,94.1,86.7z"/>
	<path class="st4" d="M162.9,93.3c0,0-16.3-1.3-11.6,19.3c0,0,10.3,13.3,18.6-5.3C169.9,107.3,171.9,95.6,162.9,93.3z"/>
	<path class="st4" d="M140.3,135.9c0,0-35.2-3.7-24.3,36.9c0,0,21.9,24.9,41.9,1C157.9,173.8,172.2,145.5,140.3,135.9z"/>
</g>
</svg>
