<?xml version="1.0" encoding="utf-8"?>
<!-- Generator: Adobe Illustrator 23.0.6, SVG Export Plug-In . SVG Version: 6.00 Build 0)  -->
<svg version="1.1" id="Layer_1" xmlns="http://www.w3.org/2000/svg" xmlns:xlink="http://www.w3.org/1999/xlink" x="0px" y="0px"
	 viewBox="0 0 288 288" style="enable-background:new 0 0 288 288;" xml:space="preserve">
<style type="text/css">
	.st0{opacity:0.5;}
	.st1{fill:#7D7483;}
	.st2{fill:#58505A;}
	.st3{fill:#A498B0;}
	.st4{fill:#78707D;}
	.st5{fill:#262626;}
	.st6{fill:#8D959F;}
</style>
<g class="st0">
	<path d="M167.5,159l11,0.9c0,0,17.4-5.5,23.4-3.7c0,0,15.6-8.7,31.6-2.3s21.1,14.2,21.1,14.2s8.3,6.4,15.6,6.4
		c7.3,0,10.5,9.2,10.5,9.2s-1.4,8.3-3.7,8.7c-2.3,0.5,0,9.2,0,9.2s-1.4,7.8-12.4,0.5c-11-7.3-9.2-6-9.2-6s-14.7,0.5-16.5-2.8
		c0,0-7.8,1.4-7.8,3.7s-8.3-1.8-8.3-1.8s-5-5-3.7-6.9c0,0-6.4-3.2-8.3-1.8s-8.3-2.3-8.3-2.3s-9.2-9.2-11.9-7.3
		C188.2,178.7,165.2,169.1,167.5,159z"/>
	<path d="M216.1,187.4c0,0-2.8-6.4,0.9-10.1c2.5-2.5,12.1-4.5,18.1-5.6c2.8-0.5,4.9-0.8,4.9-0.8l-5.5,3.2c0,0,17.4,0.9,22-5
		c0,0,6,6,7.8,4.6l-15.6,5c0,0-8.3,0-13.3-1.4s-12.8,0-13.8,2.8c-0.9,2.8-2.3,8.3-2.3,8.3L216.1,187.4z"/>
	<path d="M202.8,184.2c0,0-6-11.5,6.9-18.3c12.8-6.9,18.3-7.8,18.3-7.8s10.5-2.8,16.5,0.9c0,0-9.6-6.4-15.6-5
		c0,0-26.6,1.4-29.3,19.3l-0.9-5.5c0,0-4.1,10.5-0.5,13.8L202.8,184.2z"/>
	<path d="M186.3,172.7c0,0-8.3-11.5,15.6-16.5c0,0-8.3-2.3-19.7,3.2c0,0-4.6,7.8,0,12.4L186.3,172.7z"/>
	<path d="M167.5,159c0,0-1.4-12.4,3.2-14.7c0,0,6.9,0.9,10.1-4.1c3.2-5,5-6,5-6s11-8.7,3.2-15.1s-23.8-14.7-23.8-14.7
		s-27.5-15.6-49.1-1.8s-27,25.7-27,25.7s-14.2,15.1-22.5,18.3S57,162.2,57,162.2s-4.1,7.3-10.5,7.3s-15.6,7.3-15.6,7.3
		s-6.9,10.5-6,17.4c0,0-18.3,14.7-10.5,19.3s11,7.3,11,7.3s-1.4,12.4,7.3,11.5c0,0,7.3-4.1,15.6-0.9s10.5-1.4,10.5-1.4
		s-0.9-4.1,5-3.2s10.5,2.8,10.5,2.8s13.3,2.3,17-1.8s20.6-3.2,20.6-3.2s16,2.8,23.8,6.9s20.6,0.9,20.6,0.9s17-6,18.3-10.1
		c1.4-4.1,15.6-7.8,15.6-7.8s6.9-0.5,1.8-10.1c0,0-10.1-10.5-8.3-13.8c1.8-3.2,5.5-5.5,5.5-5.5s6-7.8-3.2-12.4
		C177.2,168.2,167.5,159,167.5,159z"/>
	<path d="M93.7,122.8c0,0,3.2,4.6,15.1-3.2s28.9-11,28.9-11s15.1-0.5,31.6,3.7c0,0,6,0.9,6.9-0.9l5.5,2.8c0,0-7.8,3.2-14.2,1.4
		c-6.4-1.8-9.6-4.6-14.7-3.2c-5,1.4-12.8,0.9-12.8,0.9l5-2.8c0,0-24.8,4.6-26.1,7.3h5c0,0-15.1,6-21.5,11.5c-6.4,5.5-10.5,0-10.5,0
		S89.6,125.1,93.7,122.8z"/>
	<path d="M80.9,136.5c0,0,1.8,8.3,11.9,4.1c10.1-4.1,25.7-12.8,25.7-12.8s10.1-10.5,25.7-10.1c5,0.1,9.3,0.4,12.9,0.8
		c7.6,0.7,11.8,1.5,11.8,1.5s13.8,5.5,20.2-0.9l2.3,3.2c0,0-8.3,3.2-11,2.3c-2.8-0.9-28.4-4.6-28.4-4.6s-7.3-0.5-11.5,1.4
		c-4.1,1.8-10.5,1.4-10.5,1.4s-10.5,3.7-11.5,9.6c-0.9,6-20.6,11-22.5,11.5c-1.8,0.5-5,1.4-5,1.4l7.3,0.5c0,0-18.3,6.9-21.5-0.5
		l3.2,1.4l-6-5L80.9,136.5z"/>
	<path d="M60.7,152.6c0,0-3.2,13.3,14.2,8.3s27.5-6.9,27.5-6.9l-0.5,7.3c0,0-5.5-3.7-8.7-0.5l5.5-3.2c0,0-11.1-0.3-16.8,2.7
		c-1.4,0.7-2.4,1.6-2.9,2.8l5.5-1.4c0,0-21.5,9.2-24.8,4.1C56.6,160.8,60.7,152.6,60.7,152.6z"/>
	<path d="M46.5,169.5c0,0,2.3-0.9,6.4,7.3c4.1,8.3,12.4,6.4,12.4,6.4s27.5-10.1,33.9-4.6c0,0-18.8,0-18.8,5h5c0,0-35.3,9.2-39,3.2
		s-2.3-10.1-2.3-10.1l2.8,4.1C47,181,48.8,171.8,46.5,169.5z"/>
	<path d="M26.8,187c0,0,0,5.5,1.8,5.5l0.5-3.7c0,0,3.2,10.1,16.5,7.8s21.1-2.3,21.1-2.3s8.3,4.6,16.5,3.2l-3.7,1.8
		c0,0,11.9,0.9,17.4-2.3s33.9-9.2,33.9-9.2s-33,9.6-38.1,15.1s-20.6-6.4-37.6-3.7c-17,2.8-17,2.8-17,2.8S20.8,202.5,26.8,187z"/>
	<path d="M139.6,187.9c0,0,14.7,0,23.4,5s18.8-4.6,18.8-4.6s-7.3,11-17.9,10.1C153.3,197.5,152.9,189.2,139.6,187.9z"/>
	<path d="M26.3,215.4c0,0,12.8-11,27-4.1s11.5,12.4,11.5,12.4l-2.3,0.5c0,0-2.8-8.3-8.3-8.7c0,0,3.2,1.4,2.8,4.1
		C57,219.5,43.3,207.6,26.3,215.4z"/>
	<path d="M85,219c0,0,11.9,0,18.8-3.2c6.9-3.2,26.6-3.2,26.6-3.2s13.3,0.5,18.8,5.5l-1.8-3.2c0,0,15.1,7.3,21.5,1.8
		s9.6-10.1,9.6-10.1l4.1-2.3l3.7-6.4l4.1,4.1c0,0-1.8,7.8-8.3,9.6c-6.4,1.8-3.7,7.3-15.1,9.6c-11.5,2.3-21.5-0.5-21.5-0.5
		s-3.7-7.3-24.3-4.1S85,219,85,219z"/>
	<path d="M102,164.5c0,0,0.5-33.5,10.1-37.1c0,0,4.1-2.3,6.4,5c2.3,7.3,4.6,12.4,4.6,12.4s2.3,11,0.9,14.7
		C122.6,163.1,102,164.5,102,164.5z"/>
	<path d="M139.1,125.5c0,0,6-8.3,15.1-1.8c9.2,6.4,20.6,8.3,20.6,8.3s-13.8,6.9-11,19.7s7.8,14.7,7.8,14.7s11.9,7.8,11.9,10.5
		c0,0-20.6-6.4-22.9-4.6l-34.4-13.8c0,0-2.3-26.1,3.7-29.8C135.9,125,133.6,128.3,139.1,125.5z"/>
	<path d="M102,164.5c0,0,5,13.3,13.3,8.7s8.7-13.8,8.7-13.8S114.4,154.4,102,164.5z"/>
	<path d="M126.3,158.5c0,0,28-1.4,34.4,13.8c0,0-18.8-2.3-24.8-0.5S126.3,158.5,126.3,158.5z"/>
</g>
<g>
	<path class="st1" d="M162.4,154.3l11,0.9c0,0,17.4-5.5,23.4-3.7c0,0,15.6-8.7,31.6-2.3s21.1,14.2,21.1,14.2s8.3,6.4,15.6,6.4
		c7.3,0,10.5,9.2,10.5,9.2s-1.4,8.3-3.7,8.7c-2.3,0.5,0,9.2,0,9.2s-1.4,7.8-12.4,0.5s-9.2-6-9.2-6s-14.7,0.5-16.5-2.8
		c0,0-7.8,1.4-7.8,3.7s-8.3-1.8-8.3-1.8s-5-5-3.7-6.9c0,0-6.4-3.2-8.3-1.8s-8.3-2.3-8.3-2.3s-9.2-9.2-11.9-7.3
		C183.1,174,160.1,164.4,162.4,154.3z"/>
	<path class="st2" d="M211,182.7c0,0-2.8-6.4,0.9-10.1c2.5-2.5,12.1-4.5,18.1-5.6c2.8-0.5,4.9-0.8,4.9-0.8l-5.5,3.2
		c0,0,17.4,0.9,22-5c0,0,6,6,7.8,4.6l-15.6,5c0,0-8.3,0-13.3-1.4s-12.8,0-13.8,2.8c-0.9,2.8-2.3,8.3-2.3,8.3L211,182.7z"/>
	<path class="st2" d="M197.7,179.5c0,0-6-11.5,6.9-18.3c12.8-6.9,18.3-7.8,18.3-7.8s10.5-2.8,16.5,0.9c0,0-9.6-6.4-15.6-5
		c0,0-26.6,1.4-29.3,19.3l-0.9-5.5c0,0-4.1,10.5-0.5,13.8L197.7,179.5z"/>
	<path class="st2" d="M181.2,168c0,0-8.3-11.5,15.6-16.5c0,0-8.3-2.3-19.7,3.2c0,0-4.6,7.8,0,12.4L181.2,168z"/>
	<path class="st3" d="M162.4,154.3c0,0-1.4-12.4,3.2-14.7c0,0,6.9,0.9,10.1-4.1c3.2-5,5-6,5-6s11-8.7,3.2-15.1s-23.8-14.7-23.8-14.7
		s-27.5-15.6-49.1-1.8s-27,25.7-27,25.7s-14.2,15.1-22.5,18.3s-9.6,15.6-9.6,15.6s-4.1,7.3-10.5,7.3s-15.6,7.3-15.6,7.3
		s-6.9,10.5-6,17.4c0,0-18.3,14.7-10.5,19.3s11,7.3,11,7.3s-1.4,12.4,7.3,11.5c0,0,7.3-4.1,15.6-0.9s10.5-1.4,10.5-1.4
		s-0.9-4.1,5-3.2s10.5,2.8,10.5,2.8s13.3,2.3,17-1.8s20.6-3.2,20.6-3.2s16,2.8,23.8,6.9s20.6,0.9,20.6,0.9s17-6,18.3-10.1
		c1.4-4.1,15.6-7.8,15.6-7.8s6.9-0.5,1.8-10.1c0,0-10.1-10.5-8.3-13.8c1.8-3.2,5.5-5.5,5.5-5.5s6-7.8-3.2-12.4
		C172.1,163.5,162.4,154.3,162.4,154.3z"/>
	<path class="st4" d="M88.6,118.1c0,0,3.2,4.6,15.1-3.2s28.9-11,28.9-11s15.1-0.5,31.6,3.7c0,0,6,0.9,6.9-0.9l5.5,2.8
		c0,0-7.8,3.2-14.2,1.4c-6.4-1.8-9.6-4.6-14.7-3.2c-5,1.4-12.8,0.9-12.8,0.9l5-2.8c0,0-24.8,4.6-26.1,7.3h5c0,0-15.1,6-21.5,11.5
		s-10.5,0-10.5,0S84.5,120.4,88.6,118.1z"/>
	<path class="st4" d="M75.8,131.8c0,0,1.8,8.3,11.9,4.1c10.1-4.1,25.7-12.8,25.7-12.8s10.1-10.5,25.7-10.1c5,0.1,9.3,0.4,12.9,0.8
		c7.6,0.7,11.8,1.5,11.8,1.5s13.8,5.5,20.2-0.9l2.3,3.2c0,0-8.3,3.2-11,2.3c-2.8-0.9-28.4-4.6-28.4-4.6s-7.3-0.5-11.5,1.4
		c-4.1,1.8-10.5,1.4-10.5,1.4s-10.5,3.7-11.5,9.6c-0.9,6-20.6,11-22.5,11.5c-1.8,0.5-5,1.4-5,1.4l7.3,0.5c0,0-18.3,6.9-21.5-0.5
		l3.2,1.4l-6-5L75.8,131.8z"/>
	<path class="st4" d="M55.6,147.9c0,0-3.2,13.3,14.2,8.3s27.5-6.9,27.5-6.9l-0.5,7.3c0,0-5.5-3.7-8.7-0.5l5.5-3.2
		c0,0-11.1-0.3-16.8,2.7c-1.4,0.7-2.4,1.6-2.9,2.8l5.5-1.4c0,0-21.5,9.2-24.8,4.1C51.5,156.1,55.6,147.9,55.6,147.9z"/>
	<path class="st4" d="M41.4,164.8c0,0,2.3-0.9,6.4,7.3c4.1,8.3,12.4,6.4,12.4,6.4s27.5-10.1,33.9-4.6c0,0-18.8,0-18.8,5h5
		c0,0-35.3,9.2-39,3.2S39,172,39,172l2.8,4.1C41.9,176.3,43.7,167.1,41.4,164.8z"/>
	<path class="st4" d="M21.7,182.3c0,0,0,5.5,1.8,5.5l0.5-3.7c0,0,3.2,10.1,16.5,7.8s21.1-2.3,21.1-2.3s8.3,4.6,16.5,3.2l-3.7,1.8
		c0,0,11.9,0.9,17.4-2.3s33.9-9.2,33.9-9.2s-33,9.6-38.1,15.1S67,191.8,50,194.5c-17,2.8-17,2.8-17,2.8S15.7,197.8,21.7,182.3z"/>
	<path class="st4" d="M134.5,183.2c0,0,14.7,0,23.4,5s18.8-4.6,18.8-4.6s-7.3,11-17.9,10.1C148.2,192.8,147.8,184.5,134.5,183.2z"/>
	<path class="st4" d="M21.2,210.7c0,0,12.8-11,27-4.1S59.7,219,59.7,219l-2.3,0.5c0,0-2.8-8.3-8.3-8.7c0,0,3.2,1.4,2.8,4.1
		C51.9,214.8,38.2,202.9,21.2,210.7z"/>
	<path class="st4" d="M79.9,214.3c0,0,11.9,0,18.8-3.2c6.9-3.2,26.6-3.2,26.6-3.2s13.3,0.5,18.8,5.5l-1.8-3.2c0,0,15.1,7.3,21.5,1.8
		s9.6-10.1,9.6-10.1l4.1-2.3l3.7-6.4l4.1,4.1c0,0-1.8,7.8-8.3,9.6c-6.4,1.8-3.7,7.3-15.1,9.6c-11.5,2.3-21.5-0.5-21.5-0.5
		s-3.7-7.3-24.3-4.1S79.9,214.3,79.9,214.3z"/>
	<path class="st5" d="M96.9,159.8c0,0,0.5-33.5,10.1-37.1c0,0,4.1-2.3,6.4,5c2.3,7.3,4.6,12.4,4.6,12.4s2.3,11,0.9,14.7
		C117.5,158.4,96.9,159.8,96.9,159.8z"/>
	<path class="st5" d="M134,120.8c0,0,6-8.3,15.1-1.8c9.2,6.4,20.6,8.3,20.6,8.3s-13.8,6.9-11,19.7s7.8,14.7,7.8,14.7
		s11.9,7.8,11.9,10.5c0,0-20.6-6.4-22.9-4.6l-34.4-13.8c0,0-2.3-26.1,3.7-29.8C130.8,120.3,128.5,123.6,134,120.8z"/>
	<path class="st6" d="M96.9,159.8c0,0,5,13.3,13.3,8.7s8.7-13.8,8.7-13.8S109.3,149.7,96.9,159.8z"/>
	<path class="st6" d="M121.2,153.8c0,0,28-1.4,34.4,13.8c0,0-18.8-2.3-24.8-0.5S121.2,153.8,121.2,153.8z"/>
</g>
</svg>
