<?xml version="1.0" encoding="utf-8"?>
<!-- Generator: Adobe Illustrator 23.0.6, SVG Export Plug-In . SVG Version: 6.00 Build 0)  -->
<svg version="1.1" id="Layer_1" xmlns="http://www.w3.org/2000/svg" xmlns:xlink="http://www.w3.org/1999/xlink" x="0px" y="0px"
	 viewBox="0 0 288 288" style="enable-background:new 0 0 288 288;" xml:space="preserve">
<style type="text/css">
	.st0{opacity:0.5;}
	.st1{fill:#8C7591;}
	.st2{fill:#C2C4CC;}
	.st3{fill:#705A76;}
	.st4{fill:#C0A7C9;}
	.st5{fill:#779D9C;}
	.st6{fill:#FFFFFF;}
	.st7{fill:#856F8C;}
</style>
<g class="st0">
	<path d="M56.4,176.4c0,0,1.6-14-17.3-25.3l-9.2-6.5c0,0-3.8-57.7-5.9-62c0,0,9.2-34,9.7-42.6s4.9-30.7,4.9-30.7l5.9-3.2
		c0,0,2.7,41.5,5.4,40.4s7.5-17.8,7.5-17.8s4.3,1.6,2.7,8.6c0,0-4.9,43.7,24.8,65.8c0,0-7.5,34.5-3.2,40.4
		C81.7,143.6,63.4,179.1,56.4,176.4z"/>
	<path d="M55.3,223.9c0,0-11.9,22.6-9.2,29.1c2.7,6.5,14,6.5,14,6.5l10.8-5.9l-9.2-28L55.3,223.9z"/>
	<path d="M98.4,261c0,0,24.8,2.7,36.1-22.6c11.3-25.3-8.6-9.7-8.6-9.7L98.4,261z"/>
	<path d="M199.9,123.1c0,0,42.6,16.7,23.2,68.5c0,0,8.1,0,8.1-3.8c0,0,10.2,7.5,15.6,7.5c5.4,0,18.3-2.7,18.3-2.7
		s12.9-3.8-13.5-44.2c0,0-1.1-10.2-5.4-11.9s-13.5-7-13.5-7s-6.5-17.3,1.6-22.6c8.1-5.4-16.7-4.9-16.7-4.9l22.1-39.4
		c0,0-0.5-6.5-15.6,4.3l-16.7,12.9c0,0-11.3,35.6-10.8,37.2S199.9,123.1,199.9,123.1z"/>
	<path d="M45.6,244.9l-6.5,4.3l3.2,2.7c0,0-9.2,11.3-5.9,11.3c3.3,0,16.2-5.4,16.2-5.4s-2.2-8.1-5.9-8.1
		C46.7,249.8,47.7,245.5,45.6,244.9z"/>
	<path d="M266.7,184.5c0,0,9.2,5.9,7.5,10.8c-1.6,4.9-12.4-1.1-12.4-1.1S263.5,183.5,266.7,184.5z"/>
	<path d="M247.3,189.4c0,0-9.2-1.1-5.4,11.3l9.2-7.5C251.1,193.2,247.9,188.3,247.3,189.4z"/>
	<path d="M54.2,227.1c0,0-3.2,6.5-0.5,5.4s4.3-4.3,4.3-4.3L54.2,227.1z"/>
	<path d="M53.7,244.4c0,0-6.5,4.9-1.6,5.4C56.9,250.3,55.8,245.5,53.7,244.4z"/>
	<path d="M238.1,148.4c0,0-8.6-3.2-2.7,12.9l3.2,3.2l2.2-5.4L238.1,148.4z"/>
	<path d="M53.7,203.9c0,0-2.2-14-3.8-16.7s31.8-43.7,31.8-43.7l23.2-25.3l1.6-46.9c0,0,4.9-5.9,5.4-3.8c0.5,2.2,8.1,28.6,8.1,28.6
		L141,33c0,0,5.4-3.8,5.4-0.5c0,0-6.5,43.1-0.5,48.5l19.4-18.9c0,0,3.2,1.6,2.7,3.2c-0.5,1.6-3.2,16.2-3.2,16.2s46.4-49.1,46.9-50.7
		c0.5-1.6,9.2-2.7,9.2-2.7s0.5,2.7-1.6,5.9c-2.2,3.2-14,20.5-14,20.5s-10.2,21,5.4,12.4c0,0,11.9-5.4,12.9-3.2c1.1,2.2,0,6.5,0,6.5
		l-13,14.6c0,0-9.7,24.3-9.7,27.5s0,10.8,0,10.8s23.7,4.3,27,29.1s-3.8,39.4-3.8,39.4l-10.8,17.2c0,0,3.8,8.1,0,10.2
		c0,0,18.3,36.1,13.5,50.7c-4.9,14.6-21,10.8-21,10.8l-11.9-4.3l-2.2-5.9c0,0-17.3-30.7-22.6-32.9c0,0-24.3-0.5-29.1-4.3l-2.2,2.2
		l0.5-11.9c0,0-19.9,15.6-21.6,28c0,0-29.7,13.5-30.7,19.9l-12.4-2.7l-3.8-7.5l-9.2-10.8l-0.5-19.9c0,0-7-7-5.9-8.6
		c0,0-18.3,7-19.9,5.4c-1.6-1.6-1.6-1.6-1.6-1.6L53.7,203.9z"/>
	<path d="M132.9,177l1.6-30.7c0,0,29.7-56.1,55.5-56.6c0,0,10.2,27.5,4.3,51.2c0,0-43.7,26.4-45.8,37.2l1.1-7.5l-3.8,2.2l2.7-9.7
		l-5.9,6.5l-1.1-5.9C141.6,163.5,131.9,172.7,132.9,177z"/>
	<path d="M138.3,223.3c0,0,1.6,14-0.5,16.7c-2.2,2.7-8.1-7.5-8.1-7.5S134.5,222.3,138.3,223.3z"/>
	<path d="M194.4,269.1c0,0-7.5,7-4.9,11.3l9.2-3.2C198.7,277.2,195.5,268,194.4,269.1z"/>
	<path d="M204.6,277.2c0,0,9.2-11.9,14-1.6c0,0-1.6,11.3-4.9,10.8C210.6,285.9,204.6,277.2,204.6,277.2z"/>
	<path d="M227.3,263.8c0,0,6.5,5.9,5.9,7.5s-8.1,1.6-8.1,1.6S225.1,262.6,227.3,263.8z"/>
	<path d="M86,171.6l-9.7,4.9c0,0,4.9,8.1,8.6,7.5l2.7-4.3L86,171.6z"/>
	<polygon points="98.4,157.6 104.4,152.2 108.7,153.3 113,170 110.3,175.4 97.3,163 	"/>
	<polygon points="189.5,166.2 183.6,170 184.1,184 193.8,189.9 197.6,187.2 196,173.2 	"/>
	<polygon points="211.1,140.9 208.4,145.2 213.8,167.8 219.7,171.6 222.4,167.8 221.9,158.7 214.3,141.9 	"/>
	<polygon points="209.5,182.9 211.6,194.2 214.9,195.3 216,185.1 212.2,184.5 	"/>
	<polygon points="200.3,234.1 201.4,244.4 212.7,256.1 215.4,251.4 214.3,237.9 207.3,231.4 	"/>
	<polygon points="195.5,254.1 192.2,257.8 193.3,260 204.1,270.1 206.8,267.5 203,258.9 	"/>
</g>
<g>
	<path class="st1" d="M51.8,171.6c0,0,1.6-14-17.3-25.3l-9.2-6.5c0,0-3.8-57.7-5.9-62c0,0,9.2-34,9.7-42.6S34,4.5,34,4.5l5.9-3.2
		c0,0,2.7,41.5,5.4,40.4s7.5-17.8,7.5-17.8s4.3,1.6,2.7,8.6c0,0-4.9,43.7,24.8,65.8c0,0-7.5,34.5-3.2,40.4
		C77.1,138.8,58.8,174.3,51.8,171.6z"/>
	<path class="st1" d="M50.7,219.1c0,0-11.9,22.6-9.2,29.1c2.7,6.5,14,6.5,14,6.5l10.8-5.9l-9.2-28L50.7,219.1z"/>
	<path class="st1" d="M93.8,256.3c0,0,24.8,2.7,36.1-22.6c11.3-25.3-8.6-9.7-8.6-9.7L93.8,256.3z"/>
	<path class="st1" d="M195.3,118.3c0,0,42.6,16.7,23.2,68.5c0,0,8.1,0,8.1-3.8c0,0,10.2,7.5,15.6,7.5c5.4,0,18.3-2.7,18.3-2.7
		s12.9-3.8-13.5-44.2c0,0-1.1-10.2-5.4-11.9s-13.5-7-13.5-7s-6.5-17.3,1.6-22.6c8.1-5.4-16.7-4.9-16.7-4.9l22.1-39.4
		c0,0-0.5-6.5-15.6,4.3L202.8,75c0,0-11.3,35.6-10.8,37.2S195.3,118.3,195.3,118.3z"/>
	<path class="st2" d="M41,240.1l-6.5,4.3l3.2,2.7c0,0-9.2,11.3-5.9,11.3S48,253,48,253s-2.2-8.1-5.9-8.1
		C42.1,245,43.1,240.7,41,240.1z"/>
	<path class="st2" d="M262.1,179.7c0,0,9.2,5.9,7.5,10.8c-1.6,4.9-12.4-1.1-12.4-1.1S258.9,178.7,262.1,179.7z"/>
	<path class="st2" d="M242.7,184.6c0,0-9.2-1.1-5.4,11.3l9.2-7.5C246.5,188.4,243.3,183.5,242.7,184.6z"/>
	<path class="st3" d="M49.6,222.3c0,0-3.2,6.5-0.5,5.4s4.3-4.3,4.3-4.3L49.6,222.3z"/>
	<path class="st3" d="M49.1,239.6c0,0-6.5,4.9-1.6,5.4C52.3,245.5,51.2,240.7,49.1,239.6z"/>
	<path class="st3" d="M233.5,143.6c0,0-8.6-3.2-2.7,12.9l3.2,3.2l2.2-5.4L233.5,143.6z"/>
	<path class="st4" d="M49.1,199.1c0,0-2.2-14-3.8-16.7s31.8-43.7,31.8-43.7l23.2-25.3l1.6-46.9c0,0,4.9-5.9,5.4-3.8
		c0.5,2.2,8.1,28.6,8.1,28.6l21-63.1c0,0,5.4-3.8,5.4-0.5c0,0-6.5,43.1-0.5,48.5l19.4-18.9c0,0,3.2,1.6,2.7,3.2s-3.2,16.2-3.2,16.2
		s46.4-49.1,46.9-50.7s9.2-2.7,9.2-2.7s0.5,2.7-1.6,5.9c-2.2,3.2-14,20.5-14,20.5s-10.2,21,5.4,12.4c0,0,11.9-5.4,12.9-3.2
		c1.1,2.2,0,6.5,0,6.5L206,80c0,0-9.7,24.3-9.7,27.5s0,10.8,0,10.8s23.7,4.3,27,29.1s-3.8,39.4-3.8,39.4L208.7,204
		c0,0,3.8,8.1,0,10.2c0,0,18.3,36.1,13.5,50.7c-4.9,14.6-21,10.8-21,10.8l-11.9-4.3l-2.2-5.9c0,0-17.3-30.7-22.6-32.9
		c0,0-24.3-0.5-29.1-4.3l-2.2,2.2l0.5-11.9c0,0-19.9,15.6-21.6,28c0,0-29.7,13.5-30.7,19.9L69,263.8l-3.8-7.5L56,245.5l-0.5-19.9
		c0,0-7-7-5.9-8.6c0,0-18.3,7-19.9,5.4s-1.6-1.6-1.6-1.6L49.1,199.1z"/>
	<path class="st5" d="M128.3,172.2l1.6-30.7c0,0,29.7-56.1,55.5-56.6c0,0,10.2,27.5,4.3,51.2c0,0-43.7,26.4-45.8,37.2l1.1-7.5
		l-3.8,2.2l2.7-9.7l-5.9,6.5l-1.1-5.9C137,158.7,127.3,167.9,128.3,172.2z"/>
	<path class="st6" d="M133.7,218.5c0,0,1.6,14-0.5,16.7c-2.2,2.7-8.1-7.5-8.1-7.5S129.9,217.5,133.7,218.5z"/>
	<path class="st6" d="M189.8,264.4c0,0-7.5,7-4.9,11.3l9.2-3.2C194.1,272.5,190.9,263.3,189.8,264.4z"/>
	<path class="st6" d="M200,272.5c0,0,9.2-11.9,14-1.6c0,0-1.6,11.3-4.9,10.8C206,281.1,200,272.5,200,272.5z"/>
	<path class="st6" d="M222.7,259c0,0,6.5,5.9,5.9,7.5s-8.1,1.6-8.1,1.6S220.5,257.9,222.7,259z"/>
	<path class="st7" d="M81.4,166.8l-9.7,4.9c0,0,4.9,8.1,8.6,7.5l2.7-4.3L81.4,166.8z"/>
	<polygon class="st7" points="93.8,152.8 99.8,147.4 104.1,148.5 108.4,165.2 105.7,170.6 92.7,158.2 	"/>
	<polygon class="st7" points="184.9,161.4 179,165.2 179.5,179.2 189.2,185.1 193,182.4 191.4,168.4 	"/>
	<polygon class="st7" points="206.5,136.1 203.8,140.4 209.2,163 215.1,166.8 217.8,163 217.3,153.9 209.7,137.1 	"/>
	<polygon class="st7" points="204.9,178.1 207,189.4 210.3,190.5 211.4,180.3 207.6,179.7 	"/>
	<polygon class="st7" points="195.7,229.3 196.8,239.6 208.1,251.4 210.8,246.6 209.7,233.1 202.7,226.6 	"/>
	<polygon class="st7" points="190.9,249.3 187.6,253 188.7,255.2 199.5,265.4 202.2,262.8 198.4,254.1 	"/>
</g>
</svg>
