<?xml version="1.0" encoding="utf-8"?>
<!-- Generator: Adobe Illustrator 23.0.6, SVG Export Plug-In . SVG Version: 6.00 Build 0)  -->
<svg version="1.1" id="Layer_1" xmlns="http://www.w3.org/2000/svg" xmlns:xlink="http://www.w3.org/1999/xlink" x="0px" y="0px"
	 viewBox="0 0 288 288" style="enable-background:new 0 0 288 288;" xml:space="preserve">
<style type="text/css">
	.st0{opacity:0.5;}
	.st1{fill:#CEC9D1;}
	.st2{fill:#93A6C5;}
	.st3{fill:#FFFFFF;}
	.st4{fill:#E2E8F0;}
	.st5{fill:#5C6799;}
	.st6{fill:#498A93;}
	.st7{fill:#7F87B2;}
	.st8{fill:#8E6672;}
	.st9{fill:#EBD1DC;}
</style>
<g class="st0">
	<path d="M122.9,242.9c0,0-9.4,5.6-5.6,8.9c3.7,3.3,13.6,1.9,13.6,1.9S128.1,241.6,122.9,242.9z"/>
	<path d="M185.2,251.8c0,0-14,8.9-8.4,13.6s19.2-4.7,19.2-4.7S201.6,248.1,185.2,251.8z"/>
	<path d="M214.7,257.6c0,0-9.4-4-12.2,6c-2.8,10,11.7,3.5,11.7,3.5l6.6-6L214.7,257.6z"/>
	<path d="M31.6,90.8c0,0-22,22-23.4,27.6C6.8,124,34,100.6,34,100.6L31.6,90.8z"/>
	<path d="M36.3,112.8c0,0-10.3,14.5-9.4,19.7c0.9,5.1,11.7-12.2,11.7-12.2L36.3,112.8z"/>
	<path d="M192.7,250.9c0,0,6.6,8,2.3,9.8l7,3.3c0,0,7.5-10.3,12.2-5.6s3.7,6.1,3.7,6.1s14.5-4.2,14-18.7s-7.5-14-7.5-14
		S209.5,246.2,192.7,250.9"/>
	<path d="M216.1,135.8c0,0,25.3-5.1,27.2-6.6c0,0,8-3.3,9.8,1.4c1.8,4.7-4.7,12.6-4.7,12.6s-15.9,18.3-14.5,23.4c1.4,5.1,0,0,0,0
		L216.1,135.8"/>
	<path d="M235.3,171.3c0,0,0,1.9,11.7,2.3c0,0,6.1,2.8-3.3,8.9l-7,8.4L235.3,171.3"/>
	<path d="M97.2,36.5c0,0,10.8-13.6,10.8-15.4c0,0,2.3-6.1,6.1-4.2s3.7,8.4,3.7,8.4l3.3,12.6L97.2,36.5"/>
	<path d="M123.4,38c0,0,8.4-4.7,9.4-6.6c0.9-1.9,6.1-3.7,10.8,2.8s10.8,7,10.8,7L141.2,52L123.4,38"/>
	<path d="M60.2,244.3c0,0-10.3,8.9-8.4,13.6c0,0,7,3.3,17.8-2.8l3.7-0.9c0,0-2.8,6.6,0.9,6.6c0,0,11.2-3.3,10.8-5.6
		C84.6,252.9,63,240.6,60.2,244.3"/>
	<path d="M129.5,266c0,0-4.7,6.6-1.9,8c0,0,9.4-2.3,8.9-4.2s0,0,0,0s1.9,9.4,8.4,12.2c0,0,11.7-4.7,12.6-8.9
		C158.5,268.8,138.8,256.1,129.5,266"/>
	<path d="M35.4,48.2c0,0-3.7-15.4,11.7-16.4c15.4-0.9,50.1,4.7,50.1,4.7l23.9,1.4c0,0,15,2.8,20.1,14c0,0,11.2-13.6,17.8-13.6
		S205.8,23,205.8,23s0.9,4.2-4.2,7c-5.1,2.8-11.2,5.6-11.2,5.6l22.9-3.7c0,0-2.3-8.4,58.5,35.1c0,0,14,6.1,15.4,5.1
		c0,0-0.9,4.7-9.4,4.2l-11.7,0.9c0,0-15,44-31.8,45.4s-31.4-0.9-31.4-0.9s36.5,32.8,33.2,64.1c0,0,7,73-70.2,66.9
		c0,0-6.1,11.2-5.1,16.4l-3.3,3.7c0,0-6.1-10.3-21.1-3.3c0,0-3.3-5.6-7-3.7l0.5-6.6c0,0,0.9-9.8-2.8-13.6c0,0-29-8.4-30.4-14
		L85,255.1c0,0-7.5-4.7-11.7-0.9c0,0-7-10.8-13.1-9.8c0,0-21.5-62.3-4.2-86.1c0,0-1.4-13.6,0-15c0,0-25.7-17.3-23.9-64.6
		C32.1,78.6,20.4,67.4,35.4,48.2z"/>
	<path d="M189.4,53c0,0,34.2,8,30.9,40.3c-0.5,2.6-1.4,6-3.5,9.4c-5.7,9.6-15.6,12.7-18.5,13.5c5.3,1.2,13.4,2.7,23.4,2.3
		c5.6-0.2,9.5-0.3,13.6-1.9C248,111.7,252.7,96,254,90.9c0,0,8-21.1-19.2-31.4C207.7,49.2,206.3,45,189.4,53z"/>
	<path d="M191,53c0,0-29.3,3.7-37.2,13.6c0,0,17.1,31.4,15.7,34.6c4.4,1.7,9.3,3.9,14.4,6.7c5.1,2.8,9.6,5.6,13.5,8.3
		c14-3.1,25-11.5,27.6-22.5c1.3-5.4,0.3-10.3,0-11.7c-2.3-10.5-10.2-16.5-15-20.1C203.3,56.8,196.4,54.2,191,53z"/>
	<ellipse transform="matrix(0.9105 -0.4135 0.4135 0.9105 -41.9865 99.0833)" cx="207.9" cy="146.5" rx="7.7" ry="12.2"/>
	<ellipse transform="matrix(0.9105 -0.4135 0.4135 0.9105 -63.1406 87.7275)" cx="171.1" cy="189.7" rx="7.7" ry="12.2"/>
	<ellipse transform="matrix(0.9105 -0.4135 0.4135 0.9105 -78.2666 84.2489)" cx="155.5" cy="222.9" rx="5.8" ry="8.6"/>
	<ellipse transform="matrix(0.1736 -0.9848 0.9848 0.1736 -17.5084 390.2328)" cx="223.8" cy="205.5" rx="12.2" ry="6.1"/>
	<ellipse transform="matrix(0.9105 -0.4135 0.4135 0.9105 -79.405 102.168)" cx="196.3" cy="234.5" rx="2.9" ry="2.8"/>
	<path d="M60,88.2c0,0,6.7,4.9,9.8,3.9c0,0,10.9,39.7,2.5,44.2c0,0-13.7,2.5-16.5-2.1c0,0,0-26.7-3.9-33S60,88.2,60,88.2z"/>
	<path d="M75.4,119.8c-2.2,0.2-5.9,0.7-9.7,2.9c-7.3,4.2-10,11.2-10.6,13.3c0,0,10.2,4.2,18.6,0c0.8-1.5,1.6-3.5,2.1-6
		C76.6,125.6,76,121.9,75.4,119.8z"/>
	<path d="M44.2,86.5c0,0,1.1,15.4,6,17.2c0,0,5.3,3.2,6.7-3.5c1.8-3.5,3.5-7,5.3-10.5c-1.6-1-3.3-2.1-4.9-3.2
		c-2.5-1.6-5-3.3-7.4-4.9C49.8,81.5,45.9,85.4,44.2,86.5z"/>
</g>
<g>
	<path class="st1" d="M117.9,238c0,0-9.4,5.6-5.6,8.9c3.7,3.3,13.6,1.9,13.6,1.9S123.1,236.6,117.9,238z"/>
	<path class="st1" d="M180.2,246.9c0,0-14,8.9-8.4,13.6s19.2-4.7,19.2-4.7S196.6,243.2,180.2,246.9z"/>
	<path class="st1" d="M209.7,252.6c0,0-9.4-4-12.2,6s11.7,3.5,11.7,3.5l6.6-6L209.7,252.6z"/>
	<path class="st2" d="M26.6,85.9c0,0-22,22-23.4,27.6S29,95.7,29,95.7L26.6,85.9z"/>
	<path class="st2" d="M31.3,107.9c0,0-10.3,14.5-9.4,19.7c0.9,5.1,11.7-12.2,11.7-12.2L31.3,107.9z"/>
	<path class="st2" d="M187.7,246c0,0,6.6,8,2.3,9.8l7,3.3c0,0,7.5-10.3,12.2-5.6c4.7,4.7,3.7,6.1,3.7,6.1s14.5-4.2,14-18.7
		s-7.5-14-7.5-14S204.5,241.3,187.7,246"/>
	<path class="st2" d="M211.1,130.8c0,0,25.3-5.1,27.2-6.6c0,0,8-3.3,9.8,1.4c1.8,4.7-4.7,12.6-4.7,12.6s-15.9,18.3-14.5,23.4
		c1.4,5.1,0,0,0,0L211.1,130.8"/>
	<path class="st2" d="M230.3,166.4c0,0,0,1.9,11.7,2.3c0,0,6.1,2.8-3.3,8.9l-7,8.4L230.3,166.4"/>
	<path class="st2" d="M92.2,31.6c0,0,10.8-13.6,10.8-15.4c0,0,2.3-6.1,6.1-4.2s3.7,8.4,3.7,8.4l3.3,12.6L92.2,31.6"/>
	<path class="st2" d="M118.4,33c0,0,8.4-4.7,9.4-6.6c0.9-1.9,6.1-3.7,10.8,2.8s10.8,7,10.8,7L136.2,47L118.4,33"/>
	<path class="st3" d="M55.2,239.4c0,0-10.3,8.9-8.4,13.6c0,0,7,3.3,17.8-2.8l3.7-0.9c0,0-2.8,6.6,0.9,6.6c0,0,11.2-3.3,10.8-5.6
		S58,235.7,55.2,239.4"/>
	<path class="st3" d="M124.5,261c0,0-4.7,6.6-1.9,8c0,0,9.4-2.3,8.9-4.2s0,0,0,0s1.9,9.4,8.4,12.2c0,0,11.7-4.7,12.6-8.9
		C153.5,263.8,133.8,251.1,124.5,261"/>
	<path class="st4" d="M30.4,43.3c0,0-3.7-15.4,11.7-16.4c15.4-0.9,50.1,4.7,50.1,4.7l23.9,1.4c0,0,15,2.8,20.1,14
		c0,0,11.2-13.6,17.8-13.6S200.8,18,200.8,18s0.9,4.2-4.2,7c-5.1,2.8-11.2,5.6-11.2,5.6l22.9-3.7c0,0-2.3-8.4,58.5,35.1
		c0,0,14,6.1,15.4,5.1c0,0-0.9,4.7-9.4,4.2l-11.7,0.9c0,0-15,44-31.8,45.4s-31.4-0.9-31.4-0.9s36.5,32.8,33.2,64.1
		c0,0,7,73-70.2,66.9c0,0-6.1,11.2-5.1,16.4l-3.3,3.7c0,0-6.1-10.3-21.1-3.3c0,0-3.3-5.6-7-3.7l0.5-6.6c0,0,0.9-9.8-2.8-13.6
		c0,0-29-8.4-30.4-14L80,250.2c0,0-7.5-4.7-11.7-0.9c0,0-7-10.8-13.1-9.8c0,0-21.5-62.3-4.2-86.1c0,0-1.4-13.6,0-15
		c0,0-25.7-17.3-23.9-64.6C27.1,73.7,15.4,62.5,30.4,43.3z"/>
	<path class="st5" d="M184.4,48c0,0,34.2,8,30.9,40.3c-0.5,2.6-1.4,6-3.5,9.4c-5.7,9.6-15.6,12.7-18.5,13.5
		c5.3,1.2,13.4,2.7,23.4,2.3c5.6-0.2,9.5-0.3,13.6-1.9C243,106.7,247.7,91,249,85.9c0,0,8-21.1-19.2-31.4
		C202.7,44.2,201.3,40,184.4,48z"/>
	<path class="st6" d="M186,48c0,0-29.3,3.7-37.2,13.6c0,0,17.1,31.4,15.7,34.6c4.4,1.7,9.3,3.9,14.4,6.7c5.1,2.8,9.6,5.6,13.5,8.3
		c14-3.1,25-11.5,27.6-22.5c1.3-5.4,0.3-10.3,0-11.7c-2.3-10.5-10.2-16.5-15-20.1C198.3,51.8,191.4,49.3,186,48z"/>
	
		<ellipse transform="matrix(0.9105 -0.4135 0.4135 0.9105 -40.3871 96.5728)" class="st7" cx="202.9" cy="141.6" rx="7.7" ry="12.2"/>
	
		<ellipse transform="matrix(0.9105 -0.4135 0.4135 0.9105 -61.5412 85.2169)" class="st7" cx="166.1" cy="184.8" rx="7.7" ry="12.2"/>
	<ellipse transform="matrix(0.9105 -0.4135 0.4135 0.9105 -76.6673 81.7384)" class="st7" cx="150.5" cy="218" rx="5.8" ry="8.6"/>
	
		<ellipse transform="matrix(0.1736 -0.9848 0.9848 0.1736 -16.7656 381.2181)" class="st7" cx="218.8" cy="200.6" rx="12.2" ry="6.1"/>
	
		<ellipse transform="matrix(0.9105 -0.4135 0.4135 0.9105 -77.8056 99.6575)" class="st7" cx="191.3" cy="229.6" rx="2.9" ry="2.8"/>
	<path class="st8" d="M55,83.3c0,0,6.7,4.9,9.8,3.9c0,0,10.9,39.7,2.5,44.2c0,0-13.7,2.5-16.5-2.1c0,0,0-26.7-3.9-33
		S55,83.3,55,83.3z"/>
	<path class="st9" d="M70.4,114.9c-2.2,0.2-5.9,0.7-9.7,2.9c-7.3,4.2-10,11.2-10.6,13.3c0,0,10.2,4.2,18.6,0c0.8-1.5,1.6-3.5,2.1-6
		C71.6,120.7,71,117,70.4,114.9z"/>
	<path class="st3" d="M39.2,81.6c0,0,1.1,15.4,6,17.2c0,0,5.3,3.2,6.7-3.5c1.8-3.5,3.5-7,5.3-10.5c-1.6-1-3.3-2.1-4.9-3.2
		c-2.5-1.6-5-3.3-7.4-4.9C44.8,76.6,40.9,80.5,39.2,81.6z"/>
</g>
</svg>
