<?xml version="1.0" encoding="utf-8"?>
<!-- Generator: Adobe Illustrator 23.0.6, SVG Export Plug-In . SVG Version: 6.00 Build 0)  -->
<svg version="1.1" id="Layer_1" xmlns="http://www.w3.org/2000/svg" xmlns:xlink="http://www.w3.org/1999/xlink" x="0px" y="0px"
	 viewBox="0 0 288 288" style="enable-background:new 0 0 288 288;" xml:space="preserve">
<style type="text/css">
	.st0{opacity:0.5;}
	.st1{fill:#E8E8E8;}
	.st2{fill:#7B667A;}
	.st3{fill:#C1A8C4;}
	.st4{fill:#FAFBFC;}
	.st5{fill:#5A7071;}
	.st6{fill:#3F595F;}
	.st7{fill:#DDD7DD;}
	.st8{fill:#CFB1BB;}
	.st9{fill:#699092;}
	.st10{fill:#446F7A;}
</style>
<g class="st0">
	<path d="M23.7,162.7c0,0,0.4,8.7,4.3,9.7l2.9-6.5L23.7,162.7z"/>
	<path d="M57.3,116.5c0,0-19.9,6.5-27.1,6.9s-15.5,9.4-15.5,9.4s-11.6,17.7,5.1,27.8c16.6,10.1,19.5,1.1,19.5,1.1s10.8-12.6,17-13
		s15.2-8.3,15.2-8.3l2.2-4.3l-2.9-13.7L57.3,116.5z"/>
	<path d="M88.2,93.6c0,0-7.6-9.7-6.5-18.4c0,0,0-0.5-3.8-1.1c-3.8-0.6-21.7-23.3-21.7-23.3s-2.1,0.5-2.1,11.4c0,0-16.8-3.8-14.1,0.5
		s11.9,15.2,11.9,15.2l30.3,26.5L88.2,93.6z"/>
	<path d="M68.1,120.7c0,0-8.1,9.2,0.5,14.6s7.6,8.1,7.6,8.1s4.9,12.5,13,12.5s1.6-11.9,1.6-11.9l-5.4-15.7L68.1,120.7z"/>
	<path d="M103.3,175.4c0,0-1.6,1.6-4.9,2.7c-3.2,1.1-4.9,4.3-4.9,4.3s-8.1-4.9-11.4-1.1c-3.2,3.8-9.2,15.2-9.2,15.2
		s-5.4,11.9,1.6,22.7c0,0-0.5,8.1,2.2,9.7l21.1,5.4l2.7,1.6c0,0,30.3-5.4,26-16.8c-4.3-11.4-13-20.6-13-20.6L103.3,175.4z"/>
	<path d="M160.2,88.2c0,0,10.8-3.8,20.6-15.2c0,0,8.1-3.8,4.9,4.3s-9.2,16.2-8.1,21.1c1.1,4.9,7.6,7,10.3,6.5s21.1-6,21.7-8.7
		c0.5-2.7,4.3,1.1,4.3,1.1l-1.1,4.9l-7,34.7c0,0-14.1,7.6-3.8,16.2c10.3,8.7,37.9-21.7,37.9-21.7l-19,26c0,0-8.1,6.5-7,9.7
		s21.1-4.3,21.1-4.3s34.7-11.4,35.2-67.2c0,0,3.2-11.4,10.3,4.9c7,16.2,8.1,31.4,8.1,31.4s5.4,67.7-61.7,92.6
		c0,0-66.6,16.2-83.4-1.6s-13-109.4-13-109.4s0-13.5,1.6-13.5C133.7,100,160.2,88.2,160.2,88.2z"/>
	<path d="M82.8,224.6c0,0-26,8.1-21.1,15.7s36.3-6,36.3-6S93.6,225.2,82.8,224.6z"/>
	<path d="M68.7,74.1c0,0-23.3-20-16.2,8.1s24.4,28.2,24.4,28.2l2.2-3.8C79,106.6,55.1,76.8,68.7,74.1z"/>
	<path d="M65.4,72.5c0,0-11.9,10.3,13.5,34.1l4.3-7C83.3,99.5,74.6,74.1,65.4,72.5z"/>
	<path d="M87.6,148.3c0,0,1.1,15.7,13,20c0,0,5.4,7,3.2,13s-1.1,12.5-1.1,12.5s2.2,27.6,40.6,29.2c38.5,1.6,36.8-11.9,36.8-11.9
		l2.2-37.9c0,0-2.2-1.6-6-4.9s-3.8-13.5-3.8-13.5s3.8-7.6,3.8-11.4s-6.5-7-6.5-7l-20.6-6.5l-13,6L87.6,148.3z"/>
	<path d="M197.7,110.7c0,0-1.4-9,0.7-9.7c0,0,19.9-4.3,26.7,5.1L197.7,110.7z"/>
	<path d="M76.8,108.9c0,0,10.1-19.5,14.4-20.2c0,0-6.9-19.1-4-19.1s13.7,11.9,16.2,11.2c0,0,7.2-6.1,10.1-5.1c0,0,7.2-22,10.5-20.9
		c3.2,1.1,4,10.5,4,10.5s16.6-16.6,17-17.7c0,0,1.1,2.5,1.4,9.4c0,0,23.5-6.1,24.2-3.2c0,0-11.2,11.2-3.6,19.9c0,0-2.2,5.1-3.6,5.4
		l-19.1,27.4l7.2,4.7c0,0,5.8-13.4,19.9-9.7c14.1,3.6,15.9,7.6,15.9,7.6s9.7,0,10.5,1.8c0,0,15.2-16.6,36.8,1.1s18.8,30,18.8,30
		s-2.5,20.6-18.4,21.1s-16.6-12.8-16.6-12.8s-10.8-13.4-14.1-14.8c-3.2-1.4-5.8-5.1-5.8-5.1s-6.5,0.4-6.9,1.8
		c0,0-6.5,14.8-17.3,14.4s-18.4-7.2-18.4-7.2s-7.9-9.4-6.1-14.4l-0.4-9l-6.5,2.9l9.7,6.1l-11.2,4.3c0,0-14.4,51.3-37.5,22.4
		l-4.3,3.6c0,0-17.3-7.6-18.4-18.1c0,0-7.6-8.7-5.1-12.3l-31.8-13.7c0,0,0.4-3.2,11.9-2.5S76.8,108.9,76.8,108.9z"/>
	<path d="M26.6,143.6c0,0-5.8-5.4-5.4,1.1s0.7,9.7,2.2,9.7C24.8,154.4,28.4,149.4,26.6,143.6z"/>
	<path d="M11.8,144.7c0,0-9,9.7-5.4,16.6l8.3-7.2C14.7,154.1,16.1,144.7,11.8,144.7z"/>
	<path d="M199.9,174.6c0,0-19.9-8.7-24.9,6.5s0,27.8,0,27.8s-1.4,14.4,0.7,20.9l-5.8,12.6c0,0,10.1,10.8,27.4,11.2
		s20.9-0.4,20.9-0.4s17.7-7.6,14.8-14.4c0,0-5.8-9-5.8-15.5s-4-11.9-4-11.9S218.3,182.2,199.9,174.6z"/>
	<path d="M216.9,253c0,0-3.2-15.5-18.4-14.1s-11.9,15.2-11.9,15.2s24.9,15.2,27.8,7.9C217.2,254.8,216.9,253,216.9,253z"/>
	<path d="M229.5,127c0,0-6.9,1.4-3.6,6.9c3.2,5.4,8.7,9,8.7,9S238.9,126.3,229.5,127z"/>
	<path d="M247.2,136.4c0,0-5.8,5.1-0.4,10.5s5.4,5.4,5.4,5.4S257,136,247.2,136.4z"/>
	<path d="M234.2,158.4L245,157c0,0-5.1,12.3-7.9,12.3S234.2,158.4,234.2,158.4z"/>
	<path d="M103.9,151.5c0,0,27.8-17.7,28.2-21.7C132,129.9,125.9,170.7,103.9,151.5z"/>
	<path d="M128.8,141.1c0,0-5.1-10.8-4-11.9c1.1-1.1,6.9,5.1,6.9,5.1S131.7,141.1,128.8,141.1z"/>
	<path d="M128.2,143.9l-2.9-1.8l1.1,4.3l-2.9-0.7v5.4c0,0-2.5-3.2-3.2-1.8s-0.4,4.3-0.4,4.3s-3.6-4-4-2.5c-0.4,1.4,1.1,5.8,1.1,5.8
		S129.3,152.6,128.2,143.9z"/>
	<path d="M133.5,108.2c10.5-16.4,14.6-25.7,12.3-27.8c-0.5-0.5-1.4-0.6-2.5-0.4c-0.8-0.9-2-2-3.6-2.9c-3.7-2.1-7.4-2-9-1.8
		c0,0,12.3-15.5,24.9-9c12.6,6.5,4.7,21.8,4.7,21.8c-0.9,2.7-2.6,6.9-6.3,10.9C146.2,107.2,136.1,108.1,133.5,108.2z"/>
	<path d="M133.5,108.2c0,0-7.6-7.6-18.1-5.8c0,0,9.7-38.6,28.5-28.9S133.5,108.2,133.5,108.2z"/>
</g>
<g>
	<path class="st1" d="M18.6,157.7c0,0,0.4,8.7,4.3,9.7l2.9-6.5L18.6,157.7z"/>
	<path class="st2" d="M52.2,111.5c0,0-19.9,6.5-27.1,6.9s-15.5,9.4-15.5,9.4s-11.6,17.7,5.1,27.8c16.6,10.1,19.5,1.1,19.5,1.1
		s10.8-12.6,17-13s15.2-8.3,15.2-8.3l2.2-4.3l-2.9-13.7L52.2,111.5z"/>
	<path class="st2" d="M83.1,88.6c0,0-7.6-9.7-6.5-18.4c0,0,0-0.5-3.8-1.1C69,68.5,51.1,45.8,51.1,45.8S49,46.3,49,57.2
		c0,0-16.8-3.8-14.1,0.5s11.9,15.2,11.9,15.2l30.3,26.5L83.1,88.6z"/>
	<path class="st2" d="M63,115.7c0,0-8.1,9.2,0.5,14.6s7.6,8.1,7.6,8.1s4.9,12.5,13,12.5s1.6-11.9,1.6-11.9l-5.4-15.7L63,115.7z"/>
	<path class="st3" d="M98.2,170.4c0,0-1.6,1.6-4.9,2.7c-3.2,1.1-4.9,4.3-4.9,4.3s-8.1-4.9-11.4-1.1c-3.2,3.8-9.2,15.2-9.2,15.2
		s-5.4,11.9,1.6,22.7c0,0-0.5,8.1,2.2,9.7l21.1,5.4l2.7,1.6c0,0,30.3-5.4,26-16.8c-4.3-11.4-13-20.6-13-20.6L98.2,170.4z"/>
	<path class="st2" d="M155.1,83.2c0,0,10.8-3.8,20.6-15.2c0,0,8.1-3.8,4.9,4.3s-9.2,16.2-8.1,21.1c1.1,4.9,7.6,7,10.3,6.5
		s21.1-6,21.7-8.7c0.5-2.7,4.3,1.1,4.3,1.1l-1.1,4.9l-7,34.7c0,0-14.1,7.6-3.8,16.2c10.3,8.7,37.9-21.7,37.9-21.7l-19,26
		c0,0-8.1,6.5-7,9.7s21.1-4.3,21.1-4.3s34.7-11.4,35.2-67.2c0,0,3.2-11.4,10.3,4.9c7,16.2,8.1,31.4,8.1,31.4s5.4,67.7-61.7,92.6
		c0,0-66.6,16.2-83.4-1.6s-13-109.4-13-109.4s0-13.5,1.6-13.5S155.1,83.2,155.1,83.2z"/>
	<path class="st4" d="M77.7,219.6c0,0-26,8.1-21.1,15.7s36.3-6,36.3-6S88.5,220.2,77.7,219.6z"/>
	<path class="st5" d="M63.6,69.1c0,0-23.3-20-16.2,8.1s24.4,28.2,24.4,28.2l2.2-3.8C73.9,101.6,50,71.8,63.6,69.1z"/>
	<path class="st6" d="M60.3,67.5c0,0-11.9,10.3,13.5,34.1l4.3-7C78.2,94.5,69.5,69.1,60.3,67.5z"/>
	<path class="st7" d="M82.5,143.3c0,0,1.1,15.7,13,20c0,0,5.4,7,3.2,13s-1.1,12.5-1.1,12.5s2.2,27.6,40.6,29.2
		c38.5,1.6,36.8-11.9,36.8-11.9l2.2-37.9c0,0-2.2-1.6-6-4.9s-3.8-13.5-3.8-13.5s3.8-7.6,3.8-11.4s-6.5-7-6.5-7l-20.6-6.5l-13,6
		L82.5,143.3z"/>
	<path class="st1" d="M192.6,105.7c0,0-1.4-9,0.7-9.7c0,0,19.9-4.3,26.7,5.1L192.6,105.7z"/>
	<path class="st3" d="M71.7,103.9c0,0,10.1-19.5,14.4-20.2c0,0-6.9-19.1-4-19.1s13.7,11.9,16.2,11.2c0,0,7.2-6.1,10.1-5.1
		c0,0,7.2-22,10.5-20.9c3.2,1.1,4,10.5,4,10.5s16.6-16.6,17-17.7c0,0,1.1,2.5,1.4,9.4c0,0,23.5-6.1,24.2-3.2c0,0-11.2,11.2-3.6,19.9
		c0,0-2.2,5.1-3.6,5.4l-19.1,27.4l7.2,4.7c0,0,5.8-13.4,19.9-9.7c14.1,3.6,15.9,7.6,15.9,7.6s9.7,0,10.5,1.8c0,0,15.2-16.6,36.8,1.1
		s18.8,30,18.8,30s-2.5,20.6-18.4,21.1s-16.6-12.8-16.6-12.8s-10.8-13.4-14.1-14.8c-3.2-1.4-5.8-5.1-5.8-5.1s-6.5,0.4-6.9,1.8
		c0,0-6.5,14.8-17.3,14.4s-18.4-7.2-18.4-7.2s-7.9-9.4-6.1-14.4l-0.4-9l-6.5,2.9l9.7,6.1l-11.2,4.3c0,0-14.4,51.3-37.5,22.4
		l-4.3,3.6c0,0-17.3-7.6-18.4-18.1c0,0-7.6-8.7-5.1-12.3l-31.8-13.7c0,0,0.4-3.2,11.9-2.5S71.7,103.9,71.7,103.9z"/>
	<path class="st1" d="M21.5,138.6c0,0-5.8-5.4-5.4,1.1s0.7,9.7,2.2,9.7C19.7,149.4,23.3,144.4,21.5,138.6z"/>
	<path class="st1" d="M6.7,139.7c0,0-9,9.7-5.4,16.6l8.3-7.2C9.6,149.1,11,139.7,6.7,139.7z"/>
	<path class="st3" d="M194.8,169.6c0,0-19.9-8.7-24.9,6.5s0,27.8,0,27.8s-1.4,14.4,0.7,20.9l-5.8,12.6c0,0,10.1,10.8,27.4,11.2
		s20.9-0.4,20.9-0.4s17.7-7.6,14.8-14.4c0,0-5.8-9-5.8-15.5s-4-11.9-4-11.9S213.2,177.2,194.8,169.6z"/>
	<path class="st4" d="M211.8,248c0,0-3.2-15.5-18.4-14.1s-11.9,15.2-11.9,15.2s24.9,15.2,27.8,7.9C212.1,249.8,211.8,248,211.8,248z
		"/>
	<path class="st4" d="M224.4,122c0,0-6.9,1.4-3.6,6.9c3.2,5.4,8.7,9,8.7,9S233.8,121.3,224.4,122z"/>
	<path class="st4" d="M242.1,131.4c0,0-5.8,5.1-0.4,10.5s5.4,5.4,5.4,5.4S251.9,131,242.1,131.4z"/>
	<path class="st4" d="M229.1,153.4l10.8-1.4c0,0-5.1,12.3-7.9,12.3S229.1,153.4,229.1,153.4z"/>
	<path class="st8" d="M98.8,146.5c0,0,27.8-17.7,28.2-21.7C126.9,124.9,120.8,165.7,98.8,146.5z"/>
	<path class="st4" d="M123.7,136.1c0,0-5.1-10.8-4-11.9s6.9,5.1,6.9,5.1S126.6,136.1,123.7,136.1z"/>
	<path class="st4" d="M123.1,138.9l-2.9-1.8l1.1,4.3l-2.9-0.7v5.4c0,0-2.5-3.2-3.2-1.8s-0.4,4.3-0.4,4.3s-3.6-4-4-2.5
		c-0.4,1.4,1.1,5.8,1.1,5.8S124.2,147.6,123.1,138.9z"/>
	<path class="st9" d="M128.4,103.2c10.5-16.4,14.6-25.7,12.3-27.8c-0.5-0.5-1.4-0.6-2.5-0.4c-0.8-0.9-2-2-3.6-2.9
		c-3.7-2.1-7.4-2-9-1.8c0,0,12.3-15.5,24.9-9c12.6,6.5,4.7,21.8,4.7,21.8c-0.9,2.7-2.6,6.9-6.3,10.9
		C141.1,102.2,131,103.1,128.4,103.2z"/>
	<path class="st10" d="M128.4,103.2c0,0-7.6-7.6-18.1-5.8c0,0,9.7-38.6,28.5-28.9S128.4,103.2,128.4,103.2z"/>
</g>
</svg>
