<?xml version="1.0" encoding="utf-8"?>
<!-- Generator: Adobe Illustrator 23.0.6, SVG Export Plug-In . SVG Version: 6.00 Build 0)  -->
<svg version="1.1" id="Layer_1" xmlns="http://www.w3.org/2000/svg" xmlns:xlink="http://www.w3.org/1999/xlink" x="0px" y="0px"
	 viewBox="0 0 288 288" style="enable-background:new 0 0 288 288;" xml:space="preserve">
<style type="text/css">
	.st0{opacity:0.5;}
	.st1{fill:#5A6F82;}
	.st2{fill:#88ABC1;}
	.st3{fill:#E3D9BE;}
	.st4{fill:#EBEBEE;}
	.st5{fill:#938373;}
	.st6{fill:#584C46;}
	.st7{fill:#978086;}
	.st8{fill:#E0C9D1;}
</style>
<g class="st0">
	<path d="M80.4,197.5c0,0-12.5-12.5-14.8-8.6c-2.3,3.9,0.8,10.1,0.8,10.1s1.6,10.9-4.7,12.5s-43.7,0-47.6-5.5s-4.7,3.9-4.7,3.9
		s17.9,47.6,54.6,43.7l44.5,7.8c0,0,62.4,17.2,81.9-15.6S80.4,197.5,80.4,197.5z"/>
	<path d="M200.5,82.1c0,0,15.6,7.8,24.2,7c0,0,11.7,3.9-0.8,9.4s-14,10.1-14,10.1L200.5,82.1z"/>
	<path d="M229.4,118c0,0,13.3,0.8,12.5,5.5S231,135.2,231,135.2L229.4,118z"/>
	<path d="M110.3,177c-5.3,3.7-10.6,7.5-15.9,11.2c0,0-32.8,0.8-28.9,44.5c0,0-6.2,6.2-2.3,16.4l-14.8,13.3l-2.3,7.8l5.5,3.1
		c0,0,21.8,3.1,22.6,7s32.8-7,32.8-7s7.8-1.6,4.7-9.4c-3.1-7.8,2.3-10.9,2.3-10.9s7-3.9,17.2-4.7c0.5,0,0.7-0.2,0.9-0.3
		C135.2,246,134.6,233.6,110.3,177z"/>
	<path d="M183.4,207.7c0,0-56.2,8.6-82.7-25.7c0,0-0.8,75.7,60.9,70.2c61.7-5.5,54.6-68.7,54.6-68.7L183.4,207.7z"/>
	<path d="M126.4,109.4c0,0-19.5,0.8-29.6,12.5c-10.2,11.7-42.2,15.6-42.2,15.6s-25,6.2-21.1,25.7l4.7,9.4c0,0-0.8,11.7,13.3,11.7
		c0,0,21.8,11.7,45.2-25.7c0,0,6.2-6.2,8.6-3.1c2.3,3.1,2.3,3.1,2.3,3.1s-6.2,18.7-7,23.4c0,0,24.2,39.8,82.7,25.7
		c0,0,3.9,10.9,28.1,7.8c-1.7,4.1-4.2,9-8.1,14.1c-7.3,9.6-15.8,15.2-21.3,18.1c2.7-0.6,6.9-1.1,12-0.3c6.4,1.1,11,3.8,13.5,5.5
		c0,0-3.1,24.2,20.3,22.6s35.1-2.3,35.1-2.3s10.1-7-0.8-16.4s-7.8-15.6-7.8-15.6s4.7-21.8-6.2-26.5c0,0-4.7-11.7-9.4-10.9
		c0,0,20.3-20.3,10.1-36.7c-10.1-16.4-14.8-25.7-14.8-25.7s0.8-36.7-23.4-36.7c0,0-12.5-26.5-10.9-29.6c0,0,31.2,13.3,32.8-28.1
		l-3.1-16.4l7.8-8.6c0,0,2.3-5.5-3.9-4.7c-6.2,0.8-21.8,0.8-21.8,0.8S192,15,181.9,33.7c0,0-0.8-16.4-3.9-14
		c-3.1,2.3-10.1,11.7-10.1,11.7s-25-4.7-26.5-2.3c0,0-17.2-16.4-20.3-14c-3.1,2.3-2.3,17.2-2.3,17.2S91.3,45.4,98.3,61
		c1.8,0.4,19.9,4.5,27.3,21.8C130.9,95.2,127.4,106.4,126.4,109.4z"/>
	<path d="M126.4,109.4c0,0,5.5,21.1,20.3,5.5s14.8-32.8,14.8-32.8l-0.8-12.5c0,0,6.2-7.8,13.3-0.8c7,7,12.5,19.5,12.5,19.5
		s-6.2,36.7-32,39c-25.7,2.3-22.6-3.1-22.6-3.1s4.7,14.8,8.6,21.1c3.9,6.2,3.1,18.7,3.1,18.7s-6.2,17.2-21.1,13.3
		s-18.7-9.4-18.7-18.7s10.1-24.2,10.1-24.2s7-10.1,10.9-10.9l2.3-3.1C127.2,120.3,121.7,112.5,126.4,109.4z"/>
	<path d="M189.6,130.4c0,0-13.3,17.9-21.8,20.3s-9.4,19.5-9.4,19.5s6.2,18.7,21.8,19.5v-10.1c0,0,6.2-9.4,13.3-8.6
		c7,0.8,15.6-0.8,15.6-0.8l7-4.7l-1.6-3.1C214.6,162.4,183.4,164.8,189.6,130.4z"/>
	<path d="M55.2,151c0,0-6.2-7.3-7.3,0c-1,7.3,4.2,10.9,4.2,10.9L55.2,151z"/>
	<path d="M43.2,160.9c0,0-9.9-6.8-9.6,2.3s9.6,8.6,9.6,8.6S40.6,161.4,43.2,160.9z"/>
	<path d="M44.8,177c0,0-10.4-0.5-4.7,6.2c5.7,6.8,10.9,3.1,10.9,3.1S39.6,177.5,44.8,177z"/>
	<path d="M182.6,177c2.6,1.6,2.6,1.6,2.6,1.6l-4.9,11.2v-10.1L182.6,177z"/>
	<path d="M183.6,189.5c0,0,2.1,9.9-0.5,10.4s-7.8-4.7-7.8-4.7S181.5,186.4,183.6,189.5z"/>
	<path d="M183.4,207.7c0,0,6.5-0.5,6.5,4.7C189.9,217.6,183.4,207.7,183.4,207.7z"/>
	<path d="M260.1,272.2c0,0-5.2-8.3,2.6-11.4c7.8-3.1,10.9,16.6,10.9,16.6S261.1,269.6,260.1,272.2z"/>
	<path d="M225.8,272.2c0,0,8.3-13,14.6-2.6s0,13,0,13L225.8,272.2z"/>
	<path d="M56.2,271.1c0,0,3.1-10.4-5.2-7.3s-12.5,12-12.5,12S54.6,273.7,56.2,271.1z"/>
	<path d="M82.7,267.5c0,0-10.9,4.2-8.3,17.7c0,0,13-5.7,13-8.3S82.7,267.5,82.7,267.5z"/>
	<path d="M190.4,31.9c0,0,20.3-4.2,23.4,7.8c3.1,12-13,29.6-13,29.6s20.3,11.4,27-19.2c6.8-30.7-23.4-25.5-23.4-25.5
		S190.9,27.2,190.4,31.9z"/>
	<path d="M181,44.9c0,0,7.3-13,9.4-13c2.1,0,17.2-7.8,23.4,7.8s-13,29.6-13,29.6l-7.8-2.1C193,67.3,193,48.5,181,44.9z"/>
	<path d="M160.7,69.6c0,0-20.8-2.3-27.6-10.1c-6.8-7.8-22.4-3.6-22.4-3.6s-5.7,4.2-7.8,3.6c0,0,16.1,16.6,23.4,19.8
		c7.3,3.1,4.2,16.6,4.2,16.6l-4.2,13.5c0,0,2.6,18.7,15.1,9.4c12.5-9.3,11.4-29.1,11.4-29.1l7.8-10.9v-9.2H160.7z"/>
	<path d="M161.3,78.2c-1.5,1.2-3.9,2.7-6.8,2.6c-3-0.1-3.6-1.8-5.7-1.6c-5.2,0.6-8.8,12-8.8,12c-7.2,5.2-10.1,13.5-7.7,20
		c1.8,4.8,6.1,7.3,7.7,8.1c4-1.4,7-3.3,9.1-5.1C163.4,102.5,161.6,81.2,161.3,78.2z"/>
</g>
<g>
	<path class="st1" d="M75.8,192.5c0,0-12.5-12.5-14.8-8.6s0.8,10.1,0.8,10.1s1.6,10.9-4.7,12.5s-43.7,0-47.6-5.5s-4.7,3.9-4.7,3.9
		s17.9,47.6,54.6,43.7l44.5,7.8c0,0,62.4,17.2,81.9-15.6S75.8,192.5,75.8,192.5z"/>
	<path class="st1" d="M195.9,77.1c0,0,15.6,7.8,24.2,7c0,0,11.7,3.9-0.8,9.4s-14,10.1-14,10.1L195.9,77.1z"/>
	<path class="st1" d="M224.8,113c0,0,13.3,0.8,12.5,5.5s-10.9,11.7-10.9,11.7L224.8,113z"/>
	<path class="st2" d="M105.7,172c-5.3,3.7-10.6,7.5-15.9,11.2c0,0-32.8,0.8-28.9,44.5c0,0-6.2,6.2-2.3,16.4l-14.8,13.3l-2.3,7.8
		l5.5,3.1c0,0,21.8,3.1,22.6,7s32.8-7,32.8-7s7.8-1.6,4.7-9.4c-3.1-7.8,2.3-10.9,2.3-10.9s7-3.9,17.2-4.7c0.5,0,0.7-0.2,0.9-0.3
		C130.6,241,130,228.6,105.7,172z"/>
	<path class="st3" d="M178.8,202.7c0,0-56.2,8.6-82.7-25.7c0,0-0.8,75.7,60.9,70.2s54.6-68.7,54.6-68.7L178.8,202.7z"/>
	<path class="st2" d="M121.8,104.4c0,0-19.5,0.8-29.6,12.5C82,128.6,50,132.5,50,132.5s-25,6.2-21.1,25.7l4.7,9.4
		c0,0-0.8,11.7,13.3,11.7c0,0,21.8,11.7,45.2-25.7c0,0,6.2-6.2,8.6-3.1c2.3,3.1,2.3,3.1,2.3,3.1s-6.2,18.7-7,23.4
		c0,0,24.2,39.8,82.7,25.7c0,0,3.9,10.9,28.1,7.8c-1.7,4.1-4.2,9-8.1,14.1c-7.3,9.6-15.8,15.2-21.3,18.1c2.7-0.6,6.9-1.1,12-0.3
		c6.4,1.1,11,3.8,13.5,5.5c0,0-3.1,24.2,20.3,22.6s35.1-2.3,35.1-2.3s10.1-7-0.8-16.4s-7.8-15.6-7.8-15.6s4.7-21.8-6.2-26.5
		c0,0-4.7-11.7-9.4-10.9c0,0,20.3-20.3,10.1-36.7c-10.1-16.4-14.8-25.7-14.8-25.7s0.8-36.7-23.4-36.7c0,0-12.5-26.5-10.9-29.6
		c0,0,31.2,13.3,32.8-28.1l-3.1-16.4l7.8-8.6c0,0,2.3-5.5-3.9-4.7s-21.8,0.8-21.8,0.8s-19.5-3.1-29.6,15.6c0,0-0.8-16.4-3.9-14
		c-3.1,2.3-10.1,11.7-10.1,11.7s-25-4.7-26.5-2.3c0,0-17.2-16.4-20.3-14c-3.1,2.3-2.3,17.2-2.3,17.2S86.7,40.4,93.7,56
		c1.8,0.4,19.9,4.5,27.3,21.8C126.3,90.2,122.8,101.4,121.8,104.4z"/>
	<path class="st3" d="M121.8,104.4c0,0,5.5,21.1,20.3,5.5s14.8-32.8,14.8-32.8l-0.8-12.5c0,0,6.2-7.8,13.3-0.8
		c7,7,12.5,19.5,12.5,19.5s-6.2,36.7-32,39c-25.7,2.3-22.6-3.1-22.6-3.1s4.7,14.8,8.6,21.1c3.9,6.2,3.1,18.7,3.1,18.7
		s-6.2,17.2-21.1,13.3s-18.7-9.4-18.7-18.7s10.1-24.2,10.1-24.2s7-10.1,10.9-10.9l2.3-3.1C122.6,115.3,117.1,107.5,121.8,104.4z"/>
	<path class="st3" d="M185,125.4c0,0-13.3,17.9-21.8,20.3s-9.4,19.5-9.4,19.5s6.2,18.7,21.8,19.5v-10.1c0,0,6.2-9.4,13.3-8.6
		c7,0.8,15.6-0.8,15.6-0.8l7-4.7l-1.6-3.1C210,157.4,178.8,159.8,185,125.4z"/>
	<path class="st4" d="M50.6,146c0,0-6.2-7.3-7.3,0c-1,7.3,4.2,10.9,4.2,10.9L50.6,146z"/>
	<path class="st4" d="M38.6,155.9c0,0-9.9-6.8-9.6,2.3s9.6,8.6,9.6,8.6S36,156.4,38.6,155.9z"/>
	<path class="st4" d="M40.2,172c0,0-10.4-0.5-4.7,6.2c5.7,6.8,10.9,3.1,10.9,3.1S35,172.5,40.2,172z"/>
	<path class="st4" d="M178,172c2.6,1.6,2.6,1.6,2.6,1.6l-4.9,11.2v-10.1L178,172z"/>
	<path class="st4" d="M179,184.5c0,0,2.1,9.9-0.5,10.4s-7.8-4.7-7.8-4.7S176.9,181.4,179,184.5z"/>
	<path class="st4" d="M178.8,202.7c0,0,6.5-0.5,6.5,4.7C185.3,212.6,178.8,202.7,178.8,202.7z"/>
	<path class="st4" d="M255.5,267.2c0,0-5.2-8.3,2.6-11.4c7.8-3.1,10.9,16.6,10.9,16.6S256.5,264.6,255.5,267.2z"/>
	<path class="st4" d="M221.2,267.2c0,0,8.3-13,14.6-2.6s0,13,0,13L221.2,267.2z"/>
	<path class="st4" d="M51.6,266.1c0,0,3.1-10.4-5.2-7.3s-12.5,12-12.5,12S50,268.7,51.6,266.1z"/>
	<path class="st4" d="M78.1,262.5c0,0-10.9,4.2-8.3,17.7c0,0,13-5.7,13-8.3S78.1,262.5,78.1,262.5z"/>
	<path class="st5" d="M185.8,26.9c0,0,20.3-4.2,23.4,7.8c3.1,12-13,29.6-13,29.6s20.3,11.4,27-19.2c6.8-30.7-23.4-25.5-23.4-25.5
		S186.3,22.2,185.8,26.9z"/>
	<path class="st6" d="M176.4,39.9c0,0,7.3-13,9.4-13c2.1,0,17.2-7.8,23.4,7.8s-13,29.6-13,29.6l-7.8-2.1
		C188.4,62.3,188.4,43.5,176.4,39.9z"/>
	<path class="st7" d="M156.1,64.6c0,0-20.8-2.3-27.6-10.1s-22.4-3.6-22.4-3.6s-5.7,4.2-7.8,3.6c0,0,16.1,16.6,23.4,19.8
		c7.3,3.1,4.2,16.6,4.2,16.6l-4.2,13.5c0,0,2.6,18.7,15.1,9.4s11.4-29.1,11.4-29.1l7.8-10.9v-9.2H156.1z"/>
	<path class="st8" d="M156.7,73.2c-1.5,1.2-3.9,2.7-6.8,2.6c-3-0.1-3.6-1.8-5.7-1.6c-5.2,0.6-8.8,12-8.8,12
		c-7.2,5.2-10.1,13.5-7.7,20c1.8,4.8,6.1,7.3,7.7,8.1c4-1.4,7-3.3,9.1-5.1C158.8,97.5,157,76.2,156.7,73.2z"/>
</g>
</svg>
