<?xml version="1.0" encoding="utf-8"?>
<!-- Generator: Adobe Illustrator 23.0.6, SVG Export Plug-In . SVG Version: 6.00 Build 0)  -->
<svg version="1.1" id="Layer_1" xmlns="http://www.w3.org/2000/svg" xmlns:xlink="http://www.w3.org/1999/xlink" x="0px" y="0px"
	 viewBox="0 0 288 288" style="enable-background:new 0 0 288 288;" xml:space="preserve">
<style type="text/css">
	.st0{opacity:0.5;}
	.st1{fill:#8FAFBA;}
	.st2{fill:#85A7B3;}
	.st3{fill:#AEBCC9;}
	.st4{fill:#B7C6CE;}
	.st5{fill:#EAE7E6;}
	.st6{fill:#C5D8DC;}
	.st7{fill:#3B567D;}
	.st8{fill:#5B88A9;}
</style>
<g class="st0">
	<path d="M203,160.4c0,0,8.8,1.6,15,18.7c0,0,10.9,34.2,3.6,47.7c-7.3,13.5-23.3,2.1-23.3,2.1l-5.2-7.8c0,0,7.3-7.3-6.2-29.5
		C186.9,191.5,186.9,167.6,203,160.4z"/>
	<path d="M69.2,173.3c0,0-15-21.3-8.8-20.2c6.2,1,21.3,5.7,21.3,5.7L69.2,173.3z"/>
	<path d="M179.6,207.5c1.8,4.3,4.1,11.4,4,20.3c-0.1,14-5.9,24.2-8.7,28.4l-17.6,3.1c-1.7-0.2-9.3-1.1-10.9-5.7
		c-1-2.7,0.5-5.5,1.6-7.3C154.9,234.7,176,211.5,179.6,207.5z"/>
	<path d="M51.6,224.1c0,0-33.7-34.7-19.2-53.9c0,0,27,21.3,31.1,14.5C67.7,178,51.6,224.1,51.6,224.1z"/>
	<path d="M145.4,255.7c0,0-2.1,4.1,0,4.7c2.1,0.5,11.9-1,11.9-1s8.3,6.2,9.8,4.7c1.6-1.6,8.3-5.2,7.8-7.8c0,0,5.7,4.1,6.7,1.6
		c1-2.6-3.1-5.7-3.1-5.7l-5.7,3.1c0,0-10.4-5.7-16.1,1.6l-12.4-3.6L145.4,255.7z"/>
	<path d="M213.8,232.9c0,0-0.5,5.7,3.1,5.2s3.6-8.8,3.6-8.8L213.8,232.9z"/>
	<path d="M121.6,103.3c0,0-28.5-37.3-22.8-39.9l8.8,6.7c0,0-1-46.7,5.2-46.7c0,0,3.6,12.4,3.1,16.1c0,0,31.6-32.1,34.7-24.4l-4.7,13
		c0,0,15,20.2,14.5,25.4s-5.2,26.4-5.2,26.4L121.6,103.3z"/>
	<path d="M101.4,252.1c0,0,41.5,17.1,67.9-18.7s11.4-47.7,11.4-47.7l-23.8-5.7l-52.4,24.9l-9.4,15.6L101.4,252.1z"/>
	<polygon points="164.1,243.8 168.7,240.7 162,237.1 	"/>
	<path d="M94.6,265.1c0,0,6.2,6.7,4.7,8.3s-8.3,0-8.3,0l-4.1-2.1L94.6,265.1z"/>
	<path d="M181.2,80.5c0,0-35.8-4.1-43,1.6c-7.3,5.7-9.3,15.6-9.3,15.6s-13,6.2-13.5,10.9c-0.5,4.7,2.1,17.1,2.1,17.1l-3.1,10.4
		l-11.9,7.3c0,0-34.7-26.4-36.8-20.2c-2.1,6.2,12.4,37.3,12.4,37.3s-21.3,29.5-19.2,42c0,0-18.1,21.3,2.1,63.8c0,0,7.8,13,18.1,11.4
		s14-9.8,14-9.8s19.2-23.8,8.8-49.2l7.3-9.3c0,0,2.6,8.8,6.7,7.8c0,0,4.1,15,18.7,26.4c0,0,3.6,13,14.5,9.8c10.9-3.2,15-7.8,15-7.8
		s1-7.8-5.7-14.5s-9.3-23.8-9.3-23.8s3.1-8.8-1.6-17.1c0,0,14.5-10.4,24.4-3.1c9.8,7.3,10.4,27,10.4,27s4.7-16.6,4.7-22.3
		s16.1-31.1,16.1-31.1s10.9-24.4,9.3-32.7c0,0,38.4-11.9,41-26.4s2.6-19.7,2.6-19.7s1.6-7.3,10.9-9.8c9.3-2.6-11.4-9.3-11.4-9.3
		S242,53,244.1,51.4s10.4-9.3,10.4-9.3s-4.7-13-58.1,24.9l4.1-17.1c0,0-1.6-5.7-7.8,4.1C186.4,63.4,181.2,80.5,181.2,80.5z"/>
	<path d="M60.9,266.1c0,0-3.6,5.7-1.6,8.3c2.1,2.6,9.3,0.5,9.3,0.5s14,8.8,15.6,8.3s6.7-9.8,6.7-9.8s-11.9-8.8-21.3-1
		C69.7,272.3,63,263.5,60.9,266.1z"/>
	<path d="M144.4,253.2c0,0,3.1,6.7,4.7,5.7c1.6-1,2.1-6.2,2.1-6.2L144.4,253.2z"/>
	<path d="M156.8,249.5c0,0,5.7,4.7,7.8,2.6c2.1-2.1-2.6-7.3-2.6-7.3L156.8,249.5z"/>
	<path d="M175,165c0,0,3.6,13,5.2,9.3s3.6-10.4,3.6-10.4L175,165z"/>
	<path d="M193.1,221c0,0-4.7,11.4-1,9.8c3.6-1.6,6.2-2.1,6.2-2.1S197.3,219.5,193.1,221z"/>
	<path d="M209.7,231.9c0,0-8.3-5.2-8.8-2.6c-0.5,2.6,2.1,16.1,3.1,13.5C205,240.2,211.8,236,209.7,231.9z"/>
	<path d="M181.7,105.4c0,0,8.8-23.8,30.1-38.9s29-5.7,29-5.7s18.7,33.2-1.6,50.3s-38.9,13-38.9,13s37.3-15.6,28-32.1
		C219,75.4,205,86.8,205,86.8L181.7,105.4z"/>
	<path d="M181.7,105.4c0,0,19.7-25.9,35.8-24.9s11.9,24.4,11.9,24.4s-20.7,20.7-29,19.2C200.4,124.1,197.8,107,181.7,105.4z"/>
	<path d="M79.6,176.4h2.6c0,0,3.6-1,2.1,3.6c-1.6,4.7-7.3,8.8-7.3,8.8S74.9,178,79.6,176.4z"/>
	<path d="M59.9,212.2l10.9-2.1l2.6,5.2c0,0-5.2,25.4-9.3,23.8c-4.1-1.6-7.3-6.2-7.3-6.2S55.2,213.2,59.9,212.2z"/>
	<path d="M72.8,240.7h5.7l3.1,2.1c0,0,0,13.5-4.1,11.4s-5.7-8.8-5.7-8.8L72.8,240.7z"/>
</g>
<g>
	<path class="st1" d="M197.9,155.3c0,0,8.8,1.6,15,18.7c0,0,10.9,34.2,3.6,47.7c-7.3,13.5-23.3,2.1-23.3,2.1L188,216
		c0,0,7.3-7.3-6.2-29.5C181.8,186.4,181.8,162.5,197.9,155.3z"/>
	<path class="st1" d="M64.1,168.2c0,0-15-21.3-8.8-20.2c6.2,1,21.3,5.7,21.3,5.7L64.1,168.2z"/>
	<path class="st2" d="M174.5,202.4c1.8,4.3,4.1,11.4,4,20.3c-0.1,14-5.9,24.2-8.7,28.4l-17.6,3.1c-1.7-0.2-9.3-1.1-10.9-5.7
		c-1-2.7,0.5-5.5,1.6-7.3C149.8,229.6,170.9,206.4,174.5,202.4z"/>
	<path class="st2" d="M46.5,219c0,0-33.7-34.7-19.2-53.9c0,0,27,21.3,31.1,14.5C62.6,172.9,46.5,219,46.5,219z"/>
	<path class="st3" d="M140.3,250.6c0,0-2.1,4.1,0,4.7c2.1,0.5,11.9-1,11.9-1s8.3,6.2,9.8,4.7c1.6-1.6,8.3-5.2,7.8-7.8
		c0,0,5.7,4.1,6.7,1.6c1-2.6-3.1-5.7-3.1-5.7l-5.7,3.1c0,0-10.4-5.7-16.1,1.6l-12.4-3.6L140.3,250.6z"/>
	<path class="st3" d="M208.7,227.8c0,0-0.5,5.7,3.1,5.2s3.6-8.8,3.6-8.8L208.7,227.8z"/>
	<path class="st2" d="M116.5,98.2c0,0-28.5-37.3-22.8-39.9l8.8,6.7c0,0-1-46.7,5.2-46.7c0,0,3.6,12.4,3.1,16.1
		c0,0,31.6-32.1,34.7-24.4l-4.7,13c0,0,15,20.2,14.5,25.4s-5.2,26.4-5.2,26.4L116.5,98.2z"/>
	<path class="st4" d="M96.3,247c0,0,41.5,17.1,67.9-18.7s11.4-47.7,11.4-47.7l-23.8-5.7l-52.4,24.9L90,215.4L96.3,247z"/>
	<polygon class="st5" points="159,238.7 163.6,235.6 156.9,232 	"/>
	<path class="st3" d="M89.5,260c0,0,6.2,6.7,4.7,8.3s-8.3,0-8.3,0l-4.1-2.1L89.5,260z"/>
	<path class="st6" d="M176.1,75.4c0,0-35.8-4.1-43,1.6c-7.3,5.7-9.3,15.6-9.3,15.6s-13,6.2-13.5,10.9c-0.5,4.7,2.1,17.1,2.1,17.1
		l-3.1,10.4l-11.9,7.3c0,0-34.7-26.4-36.8-20.2c-2.1,6.2,12.4,37.3,12.4,37.3s-21.3,29.5-19.2,42c0,0-18.1,21.3,2.1,63.8
		c0,0,7.8,13,18.1,11.4s14-9.8,14-9.8s19.2-23.8,8.8-49.2l7.3-9.3c0,0,2.6,8.8,6.7,7.8c0,0,4.1,15,18.7,26.4c0,0,3.6,13,14.5,9.8
		s15-7.8,15-7.8s1-7.8-5.7-14.5s-9.3-23.8-9.3-23.8s3.1-8.8-1.6-17.1c0,0,14.5-10.4,24.4-3.1c9.8,7.3,10.4,27,10.4,27
		s4.7-16.6,4.7-22.3s16.1-31.1,16.1-31.1s10.9-24.4,9.3-32.7c0,0,38.4-11.9,41-26.4s2.6-19.7,2.6-19.7s1.6-7.3,10.9-9.8
		c9.3-2.6-11.4-9.3-11.4-9.3s-13.5-9.8-11.4-11.4s10.4-9.3,10.4-9.3s-4.7-13-58.1,24.9l4.1-17.1c0,0-1.6-5.7-7.8,4.1
		C181.3,58.3,176.1,75.4,176.1,75.4z"/>
	<path class="st5" d="M55.8,261c0,0-3.6,5.7-1.6,8.3c2.1,2.6,9.3,0.5,9.3,0.5s14,8.8,15.6,8.3s6.7-9.8,6.7-9.8s-11.9-8.8-21.3-1
		C64.6,267.2,57.9,258.4,55.8,261z"/>
	<path class="st5" d="M139.3,248.1c0,0,3.1,6.7,4.7,5.7c1.6-1,2.1-6.2,2.1-6.2L139.3,248.1z"/>
	<path class="st5" d="M151.7,244.4c0,0,5.7,4.7,7.8,2.6c2.1-2.1-2.6-7.3-2.6-7.3L151.7,244.4z"/>
	<path class="st5" d="M169.9,159.9c0,0,3.6,13,5.2,9.3s3.6-10.4,3.6-10.4L169.9,159.9z"/>
	<path class="st3" d="M188,215.9c0,0-4.7,11.4-1,9.8c3.6-1.6,6.2-2.1,6.2-2.1S192.2,214.4,188,215.9z"/>
	<path class="st3" d="M204.6,226.8c0,0-8.3-5.2-8.8-2.6c-0.5,2.6,2.1,16.1,3.1,13.5C199.9,235.1,206.7,230.9,204.6,226.8z"/>
	<path class="st7" d="M176.6,100.3c0,0,8.8-23.8,30.1-38.9s29-5.7,29-5.7s18.7,33.2-1.6,50.3s-38.9,13-38.9,13s37.3-15.6,28-32.1
		c-9.3-16.6-23.3-5.2-23.3-5.2L176.6,100.3z"/>
	<path class="st8" d="M176.6,100.3c0,0,19.7-25.9,35.8-24.9s11.9,24.4,11.9,24.4s-20.7,20.7-29,19.2
		C195.3,119,192.7,101.9,176.6,100.3z"/>
	<path class="st8" d="M74.5,171.3h2.6c0,0,3.6-1,2.1,3.6c-1.6,4.7-7.3,8.8-7.3,8.8S69.8,172.9,74.5,171.3z"/>
	<path class="st8" d="M54.8,207.1l10.9-2.1l2.6,5.2c0,0-5.2,25.4-9.3,23.8c-4.1-1.6-7.3-6.2-7.3-6.2S50.1,208.1,54.8,207.1z"/>
	<path class="st8" d="M67.7,235.6h5.7l3.1,2.1c0,0,0,13.5-4.1,11.4s-5.7-8.8-5.7-8.8L67.7,235.6z"/>
</g>
</svg>
