<?xml version="1.0" encoding="utf-8"?>
<!-- Generator: Adobe Illustrator 23.0.6, SVG Export Plug-In . SVG Version: 6.00 Build 0)  -->
<svg version="1.1" id="Layer_1" xmlns="http://www.w3.org/2000/svg" xmlns:xlink="http://www.w3.org/1999/xlink" x="0px" y="0px"
	 viewBox="0 0 288 288" style="enable-background:new 0 0 288 288;" xml:space="preserve">
<style type="text/css">
	.st0{opacity:0.5;}
	.st1{fill:#4D6885;}
	.st2{fill:#91A8B6;}
	.st3{fill:#5C7349;}
	.st4{fill:#9CBE84;}
	.st5{fill:#64A14E;}
</style>
<g class="st0">
	<path d="M71.6,219.5c0,0-21.3,2.2-19.5,33c0,0,5.6,27.8,24.3,8.7s8.7-43.9,8.7-43.9L71.6,219.5z"/>
	<path d="M109.8,228.6c0,0-23.9,31.7-5.6,49.5c18.2,17.8,27.8-15.6,27.8-15.6s7.8-15.6-6.5-36S109.8,228.6,109.8,228.6z"/>
	<path d="M107.9,122.2c-2.8-0.3-39.3-4.4-58.9,19.6c-9,11.2-11.3,24.4-11.4,25.1c-2,12.2,0.9,22,2.6,26.5c3.6,6.2,8.8,13.4,16.5,20
		c26.2,22.4,59.5,19.2,67.7,18.2c0,0,63-10.4,31.3-83.4L107.9,122.2z"/>
	<path d="M105.8,62.3c0,0,42.6-43.9,50.8-43.4l-2.2,39.5l-44.7,36L105.8,62.3z"/>
	<path d="M217.9,82.7c0,0,24.8-5.2,66,16.1l-41.3,17.8l-64.3-10L217.9,82.7z"/>
	<path d="M241.4,41.9c0,0,7.8,33,6.5,40c-2.8-2.4-5.7-4.9-8.6-7.7c-4-3.7-7.6-7.4-11-11C232.6,56.1,236.9,49,241.4,41.9z"/>
	<path d="M60.6,39.7l6.5-32.6c0,0,27.4,30.8,27.8,38.2s0.4,29.5-6.5,27.8c-6.9-1.7-26.9-17.3-26.9-17.3L60.6,39.7z"/>
	<path d="M171.4,50.6c0,0,48.2-17.4,69.9-8.7c-2.4,5.8-6.1,13.7-12.2,22.1c-5.5,7.7-10.6,14.9-19.1,20.4c0,0-7.9,5.1-43.9,10.9l0,0
		l0,0l-22.1-19.1L161.9,54L171.4,50.6z"/>
	<path d="M236.1,112.2c0,0,45.2,9.1,48.2,16.5c0,0-25.6,12.2-27.4,16.1c-1.7,3.9-31.7,8.7-31.7,8.7l-33-20.4l11.3-14.8l12.6-3.5
		L236.1,112.2z"/>
	<path d="M97.1,123.5c0,0-49.9-14.3-36.5-83.8l4.3,19.5l3.5-5.6l3.9,7.4l2.2-7.4L84.9,71l2.2-12.6l1.7,3.9l1.3-11.7l3.9,3l-3-16.9
		c0,0,23.4,30.4,19.5,54.3c0,0,24.3-33.9,60.8-40.4c0,0-9.1,10-8.7,13l10.9-1.7l-16.1,16.9l9.1-3.5l-7.4,8.3l16.1-4.8l-3,10.4
		l21.7-11.7l-3,3.9c0,0,38.6-15.6,41.7-22.6c0,0-21.7,41.7-43.4,49.1c0,0,41.3-0.4,46.9,4.3l-3,0.9l4.3,3l-23,3l5.2,5.6
		c0,0-19.5,2.6-19.5,9.1l20,2.2l-7.4,5.2l16.1,1.7l-5.6,3c0,0,21.3,4.8,33.9-1.3c0,0-28.2,31.3-70.3,20c0,0-41.3-14.3-49.9-20.8
		l-8.7-6.5l2.2-2.2l-9.6-3.5l0.4-3l-7.8,3.5l0.9-6.1l-6.1,4.8l0.4-7.4l-3,3l-0.9-3l-3.5,0.9l-2.6-2.6L97.1,123.5z"/>
</g>
<g>
	<path class="st1" d="M65.8,214.5c0,0-21.3,2.2-19.5,33c0,0,5.6,27.8,24.3,8.7s8.7-43.9,8.7-43.9L65.8,214.5z"/>
	<path class="st1" d="M104,223.6c0,0-23.9,31.7-5.6,49.5c18.2,17.8,27.8-15.6,27.8-15.6s7.8-15.6-6.5-36S104,223.6,104,223.6z"/>
	<path class="st2" d="M102.2,117.2c-2.8-0.3-39.3-4.4-58.9,19.6c-9,11.2-11.3,24.4-11.4,25.1c-2,12.2,0.9,22,2.6,26.5
		c3.6,6.2,8.8,13.4,16.5,20c26.2,22.4,59.5,19.2,67.7,18.2c0,0,63-10.4,31.3-83.4L102.2,117.2z"/>
	<path class="st3" d="M100.1,57.3c0,0,42.6-43.9,50.8-43.4l-2.2,39.5l-44.7,36L100.1,57.3z"/>
	<path class="st3" d="M212.1,77.7c0,0,24.8-5.2,66,16.1l-41.3,17.8l-64.3-10L212.1,77.7z"/>
	<path class="st3" d="M235.6,36.9c0,0,7.8,33,6.5,40c-2.8-2.4-5.7-4.9-8.6-7.7c-4-3.7-7.6-7.4-11-11C226.9,51.1,231.2,44,235.6,36.9
		z"/>
	<path class="st4" d="M54.9,34.7l6.5-32.6c0,0,27.4,30.8,27.8,38.2c0.4,7.4,0.4,29.5-6.5,27.8S55.8,50.8,55.8,50.8L54.9,34.7z"/>
	<path class="st4" d="M165.6,45.6c0,0,48.2-17.4,69.9-8.7c-2.4,5.8-6.1,13.7-12.2,22.1c-5.5,7.7-10.6,14.9-19.1,20.4
		c0,0-7.9,5.1-43.9,10.9l0,0l0,0l-22.1-19.1L156.1,49L165.6,45.6z"/>
	<path class="st4" d="M230.4,107.2c0,0,45.2,9.1,48.2,16.5c0,0-25.6,12.2-27.4,16.1c-1.7,3.9-31.7,8.7-31.7,8.7l-33-20.4l11.3-14.8
		l12.6-3.5L230.4,107.2z"/>
	<path class="st5" d="M91.4,118.5c0,0-49.9-14.3-36.5-83.8l4.3,19.5l3.5-5.6l3.9,7.4l2.2-7.4L79.2,66l2.2-12.6l1.7,3.9l1.3-11.7
		l3.9,3l-3-16.9c0,0,23.4,30.4,19.5,54.3c0,0,24.3-33.9,60.8-40.4c0,0-9.1,10-8.7,13l10.9-1.7l-16.1,16.9l9.1-3.5l-7.4,8.3l16.1-4.8
		l-3,10.4l21.7-11.7l-3,3.9c0,0,38.6-15.6,41.7-22.6c0,0-21.7,41.7-43.4,49.1c0,0,41.3-0.4,46.9,4.3l-3,0.9l4.3,3l-23,3l5.2,5.6
		c0,0-19.5,2.6-19.5,9.1l20,2.2l-7.4,5.2l16.1,1.7l-5.6,3c0,0,21.3,4.8,33.9-1.3c0,0-28.2,31.3-70.3,20c0,0-41.3-14.3-49.9-20.8
		l-8.7-6.5l2.2-2.2l-9.6-3.5l0.4-3l-7.8,3.5l0.9-6.1l-6.1,4.8l0.4-7.4l-3,3l-0.9-3l-3.5,0.9l-2.6-2.6L91.4,118.5z"/>
</g>
</svg>
