<?xml version="1.0" encoding="utf-8"?>
<!-- Generator: Adobe Illustrator 23.0.6, SVG Export Plug-In . SVG Version: 6.00 Build 0)  -->
<svg version="1.1" id="Layer_1" xmlns="http://www.w3.org/2000/svg" xmlns:xlink="http://www.w3.org/1999/xlink" x="0px" y="0px"
	 viewBox="0 0 288 288" style="enable-background:new 0 0 288 288;" xml:space="preserve">
<style type="text/css">
	.st0{opacity:0.5;}
	.st1{fill:#DBD3B6;}
	.st2{fill:#A9A18A;}
	.st3{fill:#5E8B97;}
	.st4{fill:#7DBDD1;}
</style>
<g class="st0">
	<path d="M63.9,213.9c0,0-45.2-31.2-35.8-97.5s25.2-74.5,25.2-74.5s37.6-47.1,96-20.3l23,16.2l32.8,83.6l-20.7,53.1l-36.5,9
		c-3-0.6-6.5-1-10.5-1.1c-8.2-0.1-15,1.7-19.6,3.3c-3.4,5.9-9.1,13.5-18.4,19.1c-1.6,0.9-3.1,1.8-4.7,2.4
		C84.4,209.5,74.2,211.7,63.9,213.9z"/>
	<path d="M104.5,220c10.4,1.2,19.1,1.4,25.7,1.2c11.5-0.3,17.3-0.4,20.6-3.4c0.7-0.6,2.6-2.6,5.1-2.4c2,0.1,3.4,1.5,3.9,2
		c4.9,4.4,16.5,7.1,22.3,3.4c3.1-1.9,1.7-3.8,5.6-7.3c0.5-0.4,7.6-6.6,13-4.4c3.7,1.5,2.9,5.3,8.3,8.6c1.3,0.8,3.4,2,6.1,2
		c4.3-0.1,7.2-3.2,7.9-4c0,0,15.4-8.7,9.8-22.6c-5.6-13.9-12.8-18.1-13.6-29s-1.9-37.6-3.8-44.8c0,0-4.5-73-66.3-97.5
		c0,0,38.4,25.2,42.5,78.7S175,170.1,175,170.1c-2.4,1.7-6.2,4.1-11.3,6c-12.7,4.8-18.4,1.2-34.6,4.1c-8.7,1.6-16.9,3.2-24.1,9.8
		c-5.6,5.2-8.3,11.3-9.7,15.5c1,1,1.9,2.2,2.9,3.5C101.4,212.7,103.3,216.7,104.5,220z"/>
	<path d="M65.4,239.9c-3.9-3-5.6-8.1-4.1-12.8c1.5-4.8,5.9-8.2,10.9-8.4c0.5,5.8,1,11.5,1.4,17.3C73.6,236,68.4,239.9,65.4,239.9z"
		/>
	<path d="M73.6,236c0,0-5.4,3.9-18.5,2.9s3.4,12.2,3.4,12.2s6.8,6.3,23.9,5.4c17.1-0.9,20-8.8,20-8.8L73.6,236z"/>
	<polygon points="247,242.9 249.5,245.8 239.2,253.6 235.3,241.4 	"/>
	<path d="M73.6,236c0,0-28.7-44.3,9.3-69.7c0,0,3.9-2.4,4.9,0.5s-1,6.3-1,6.3s-5.4,31.2,22.4,40.4c2.7-2.7,12.2-11.9,26.1-13.2
		c4.4-0.4,13.1-1.2,18.5,2.3c0.8,0.5,3.1,2.2,6.5,2.7c2.2,0.3,4.1,0.1,5.4-0.2c1.4-0.1,2.8-0.3,4.2-0.4c4-0.3,7.9-0.6,11.7-0.8
		c1.5,0,3.8-0.3,6.4-1.3c3.3-1.4,4-3,7.1-4c3-1,5.6-0.6,6.9-0.4c3.8,0.6,6.4,2.3,8.9,3.9c2.1,1.4,3.5,2.6,5.4,4.4
		c2,1.8,2.3,2.4,2.5,2.7c0.5,0.9,1.6,3.3,0.2,7.5c2.7-0.4,8.6-1.8,13.1-6.7c4.8-5.2,5.8-11.5,5.7-18c-0.5-24.4-8.3-24.8-4.4-25.3
		c3.9-0.5,12.7,3.9,12.7,3.9s46.3,39.9-2.4,71.6l-5.6,3.3c0,0,7,7.2,11.5,6.8c0,0,4.2,1.9-1.3,5.1c-5.5,3.2-20.2,2.5-20.2,2.5
		l9.3,7.4c0,0-3.8,14-31.4,1.1c0,0,10.2,11.7,5.5,13.4c0,0-20.8,8.9-38-19.3c0,0-18.9,29.1-38.2,21c0,0-3.4-1.9,0.6-7.2
		c4-5.3,4.9-7,4.9-7s-25.3,16.1-39,7c0,0-1.5-3,4.5-7c0,0-34.4,7.4-36.1-9.5c0,0-0.6-2.3,2.5-2.3c3.2,0,20.6-3.4,23.1-7
		C95.8,250.6,85.1,248.7,73.6,236z"/>
	<path d="M79.1,63.2c0,0-27.7-14.7-32,46.7s28.5,57.9,28.5,57.9s-30.2-0.9-22.5-60.5S79.1,63.2,79.1,63.2z"/>
</g>
<g>
	<path class="st1" d="M58.4,208.4c0,0-45.2-31.2-35.8-97.5s25.2-74.5,25.2-74.5s37.6-47.1,96-20.3l23,16.2l32.8,83.6L178.9,169
		l-36.5,9c-3-0.6-6.5-1-10.5-1.1c-8.2-0.1-15,1.7-19.6,3.3c-3.4,5.9-9.1,13.5-18.4,19.1c-1.6,0.9-3.1,1.8-4.7,2.4
		C78.9,204,68.7,206.2,58.4,208.4z"/>
	<path class="st2" d="M99,214.5c10.4,1.2,19.1,1.4,25.7,1.2c11.5-0.3,17.3-0.4,20.6-3.4c0.7-0.6,2.6-2.6,5.1-2.4
		c2,0.1,3.4,1.5,3.9,2c4.9,4.4,16.5,7.1,22.3,3.4c3.1-1.9,1.7-3.8,5.6-7.3c0.5-0.4,7.6-6.6,13-4.4c3.7,1.5,2.9,5.3,8.3,8.6
		c1.3,0.8,3.4,2,6.1,2c4.3-0.1,7.2-3.2,7.9-4c0,0,15.4-8.7,9.8-22.6c-5.6-13.9-12.8-18.1-13.6-29s-1.9-37.6-3.8-44.8
		c0,0-4.5-73-66.3-97.5c0,0,38.4,25.2,42.5,78.7s-16.6,69.6-16.6,69.6c-2.4,1.7-6.2,4.1-11.3,6c-12.7,4.8-18.4,1.2-34.6,4.1
		c-8.7,1.6-16.9,3.2-24.1,9.8c-5.6,5.2-8.3,11.3-9.7,15.5c1,1,1.9,2.2,2.9,3.5C95.9,207.2,97.8,211.2,99,214.5z"/>
	<path class="st2" d="M59.9,234.4c-3.9-3-5.6-8.1-4.1-12.8c1.5-4.8,5.9-8.2,10.9-8.4c0.5,5.8,1,11.5,1.4,17.3
		C68.1,230.5,62.9,234.4,59.9,234.4z"/>
	<path class="st3" d="M68.1,230.5c0,0-5.4,3.9-18.5,2.9s3.4,12.2,3.4,12.2s6.8,6.3,23.9,5.4s20-8.8,20-8.8L68.1,230.5z"/>
	<polygon class="st3" points="241.5,237.4 244,240.3 233.7,248.1 229.8,235.9 	"/>
	<path class="st4" d="M68.1,230.5c0,0-28.7-44.3,9.3-69.7c0,0,3.9-2.4,4.9,0.5s-1,6.3-1,6.3s-5.4,31.2,22.4,40.4
		c2.7-2.7,12.2-11.9,26.1-13.2c4.4-0.4,13.1-1.2,18.5,2.3c0.8,0.5,3.1,2.2,6.5,2.7c2.2,0.3,4.1,0.1,5.4-0.2c1.4-0.1,2.8-0.3,4.2-0.4
		c4-0.3,7.9-0.6,11.7-0.8c1.5,0,3.8-0.3,6.4-1.3c3.3-1.4,4-3,7.1-4c3-1,5.6-0.6,6.9-0.4c3.8,0.6,6.4,2.3,8.9,3.9
		c2.1,1.4,3.5,2.6,5.4,4.4c2,1.8,2.3,2.4,2.5,2.7c0.5,0.9,1.6,3.3,0.2,7.5c2.7-0.4,8.6-1.8,13.1-6.7c4.8-5.2,5.8-11.5,5.7-18
		c-0.5-24.4-8.3-24.8-4.4-25.3c3.9-0.5,12.7,3.9,12.7,3.9s46.3,39.9-2.4,71.6l-5.6,3.3c0,0,7,7.2,11.5,6.8c0,0,4.2,1.9-1.3,5.1
		c-5.5,3.2-20.2,2.5-20.2,2.5l9.3,7.4c0,0-3.8,14-31.4,1.1c0,0,10.2,11.7,5.5,13.4c0,0-20.8,8.9-38-19.3c0,0-18.9,29.1-38.2,21
		c0,0-3.4-1.9,0.6-7.2c4-5.3,4.9-7,4.9-7s-25.3,16.1-39,7c0,0-1.5-3,4.5-7c0,0-34.4,7.4-36.1-9.5c0,0-0.6-2.3,2.5-2.3
		c3.2,0,20.6-3.4,23.1-7C90.3,245.1,79.6,243.2,68.1,230.5z"/>
	<path class="st2" d="M73.6,57.7c0,0-27.7-14.7-32,46.7s28.5,57.9,28.5,57.9s-30.2-0.9-22.5-60.5S73.6,57.7,73.6,57.7z"/>
</g>
</svg>
