<?xml version="1.0" encoding="utf-8"?>
<!-- Generator: Adobe Illustrator 23.0.6, SVG Export Plug-In . SVG Version: 6.00 Build 0)  -->
<svg version="1.1" id="Layer_1" xmlns="http://www.w3.org/2000/svg" xmlns:xlink="http://www.w3.org/1999/xlink" x="0px" y="0px"
	 viewBox="0 0 288 288" style="enable-background:new 0 0 288 288;" xml:space="preserve">
<style type="text/css">
	.st0{opacity:0.5;}
	.st1{stroke:#8C7E95;stroke-miterlimit:10;}
	.st2{fill:#090909;stroke:#8C7E95;stroke-miterlimit:10;}
	.st3{fill:#595663;}
	.st4{fill:#6F6D7C;}
	.st5{fill:#9FA0A9;}
</style>
<g class="st0">
	<polygon class="st1" points="37.3,188.6 57.9,190.1 76.9,173.8 82.9,155.9 	"/>
	<path d="M99.8,101.6c0,0,18.5,4.9,20.1,3.8s16.3-15.2,16.3-16.9s9.2-18.5,9.2-18.5l0.5,25l-10.3,12l-7.6,13l-16.3,5.4l-2.2-1.1
		C109.6,124.4,105.7,113.5,99.8,101.6z"/>
	<path d="M129.7,44c3.8-2.2,7.6-4.3,11.4-6.5c6.5,5.8,13,11.6,19.6,17.4l1.6,10.3l8.2-3.3l3.8-12l7.6,7.6l3.3-3.3l1.1,5.4l6,3.8
		c5.3-2.9,7.1-5.9,7.6-8.2c0,0,0.5-2.3-2.2-12.5l7.1-10.9l5.4,23.9l-1.1,10.9l8.7,14.1l21.2,7.6l3.3-1.1c0.2,0.8,1.2,4,3.3,4.3
		c1.1,0.2,2.1-0.6,2.7-1.1c6-4.9,12.5-12,12.5-12l5.4-3.3l-1.6,8.2l-4.9,9.8l12,4.9l6,16.8l-12.5,25l12,14.7l-4.9,20.6
		c0,0-12.5,9.8-12.5,13.6l-15.2,2.7l-2.2,9.8l-16.8,6.5h-7.4l1.6,3.8c0,0-4.9,11.4-8.7,12c-3.8,0.5-13,0-13,0v3.8l-13,14.1l-5.4-0.5
		l1.1,3.8l-4.9,13.6l-4.3,1.6c0,0,2.7,5.4,5.4,5.4c0,0,0.5,7.6,8.7,7.1l0.5-3.3l7.6,4.3c0,0,12.5,0,14.1-3.3l4.3,2.2l1.6-4.3
		c0,0,3.3,3.8,7.1,3.3s5.4-2.7,5.4-2.7l1.1,6l-4.9,7.1c0,0-7.1,1.6-8.2-1.1c-1.1-2.7-15.8,1.6-15.8,1.6l1.6,3.3l-13.6-3.8l-3.3-5.4
		l-3.3,2.7l-7.1-3.8l-1.6-2.7H167l-5.4-4.9v-5.2l-6,1.6l-13.3-7.6l4.9-7.6c0,0,16.3,0.5,17.4-10.3l-10.3-9.8l9.8,0.5
		c1.3-2.2,2.5-4.3,3.8-6.5c0.7-0.5,1.4-1.1,2.2-1.6c-0.2-0.7-0.4-1.4-0.5-2.2c2.2-2.2,4.3-4.3,6.5-6.5l-1.6-3.8v-2.2
		c4.7,1.2,10.6,2.2,17.4,2.2c3.1,0,6.1-0.2,8.7-0.5l3.3-8.2l-6.5-7.1l3.3-2.7l12,5.4l13.6-6l1.1-3.3l-1.6-2.7l9.2-11.4l10.9,4.3
		l9.8-5.4l4.9-10.3l-11.4-7.1l-3.8-8.2l-3.3-0.5l9.2-8.7l3.3-7.6l-19-9.8l2.2-7.6l-7.6,2.7c0,0-22.3-10.3-27.2-7.6l4.9-6.5L186.1,84
		l-7.1,2.7l-8.2-4.3l-2.2,2.2l-15.2,7.1c-2.9-1.6-5.8-3.3-8.7-4.9c0.4-5.6,0.7-11.2,1.1-16.8L136,49.9L129.7,44z"/>
	<path d="M35.1,189.6c0,0,2.7,5.4,13,5.4c0,0,8.2,3.3,15.8-1.1s15.8-9.2,15.8-9.2s5.4-8.7,5.4-14.1c0,0,8.7-12,9.8-15.8
		c0,0-10.3-2.2-12,1.1s-6,17.9-6,17.9s-18.5,13.6-19,16.3C57.9,190.1,38.9,186.9,35.1,189.6z"/>
	<path d="M44.9,109.2c0,0,0-90.7,2.2-94s4.9-3.8,4.9-3.8c2.2,19.2,4.3,38.4,6.5,57.6c0.5,2.1,1.4,5.5,3,9.5
		c2.2,5.5,3.7,6.9,3.5,10.1c-0.2,4-2.9,7-4.9,9.2c-3.4,3.7-7.2,5.6-9.8,6.5C48.5,105.9,46.7,107.5,44.9,109.2z"/>
	<polygon points="16.6,130.4 16.1,147.8 12.3,139.1 	"/>
	<path d="M200.3,285.9c0,0,14.7,1.1,14.1-4.9c-1-0.6-2.5-1.3-4.3-1.6c-4.9-0.9-10.9,0.6-11.4,3.3
		C198.6,283.2,198.6,284.2,200.3,285.9z"/>
	<path d="M213.9,268.5l7.6-2.2l4.9,2.7c-2,3.4-5.8,4.9-8.7,3.8C215,271.8,214,268.9,213.9,268.5z"/>
	<path d="M207.9,270.7l-2.7-3.3l-14.7-0.5l-4.3,2.7l-3.3-3.8c0,0-1.6-0.5-3.3-0.5c-1.6,0-0.5-4.9-3.8-6.5l-4.3,1.6
		c0,0,0.5,3.3,5.4,5.4c0,0,0.5,8.7,8.7,7.1c0,0-0.5-4.9,8.2,1.1C193.8,273.9,206.3,274.5,207.9,270.7z"/>
	<path d="M142.2,256.5l-5.4-15.2l8.7-13.6c1.5,2.9,3.1,5.1,4.3,6.5c2,2.3,3.4,3.3,5,3.3c0.2,0,0.4,0,0.5,0l3.8-4.3l5.4,5.4
		c0,0,0.5,13-17.4,10.3L142.2,256.5z"/>
	<path d="M154.1,228.8l-1.1-20.6c0,0,6,12,10.9,8.7s10.3-10.3,10.3-10.3s6.5-12,10.9-9.8s10.3,14.1,10.3,14.1s0.5,4.3-5.4,3.3
		c-6-1.1-10.3-1.6-10.3-1.6l-5.4,4.3l1.1,2.2C175.3,218.9,170.4,234.8,154.1,228.8z"/>
	<path d="M185.6,177.6c0,0-5.4,13-1.1,12.5c4.3-0.5,12.5-5.4,12.5-5.4l0.5-6L185.6,177.6z"/>
	<path d="M197,192.9l-1.1-4.3l2.2-17.4l3.3-2.2c0,0-3.3,7.6,6,5.4l9.2-5.4l5.4,10.3l-4.3,6l3.3,7.1l-8.7,3.3l-12-5.4L197,192.9z"/>
	<path d="M225.3,183.6c-1.6-1-3.6-2.5-5.4-4.9c-4.2-5.4-4.4-11.4-4.3-13.6c1.8-6,3.6-12,5.4-17.9l2.7,9.2l2.7,2.2
		c-0.1-0.7-0.5-6.3,3.8-10.3c3.5-3.3,7.8-3.3,8.7-3.3c0.4-1.1,0.7-2.2,1.1-3.3c0.5-1.1,1.1-2.2,1.6-3.3c2.4,5.1,4.7,10.1,7.1,15.2
		l11.4,7.1l-4.9,10.3l-9.8,5.4l-10.9-4.3L225.3,183.6z"/>
	<path d="M237.2,111.3l-7.6,2.7l-2.7-1.6c-3.4,3.3-6.4,4.5-8.7,4.9c-2.2,0.4-6.5,0.5-6.5,0.5l0,0l0,0l7.6,16.8
		c0,0,18.5,4.9,19.6,10.3c0,0,13-2.2,15.2-16.3l-19-9.8L237.2,111.3z"/>
	<polygon points="185.6,84.2 186.7,92.3 202.5,106.5 207.4,99.9 	"/>
	<path d="M204.6,32c0,0-6.5-8.2-12-8.7l2.7,5.4L181.2,31c0,0-14.1-12.5-15.8-18.5l-8.2,11.4l-18.5-3.8l1.1,20.1h2.2l18.5,14.7
		l1.6,10.3l8.2-3.3l3.8-12l7.6,7.6l3.3-3.3l1.1,5.4l6,3.8c0,0,7.6-2.2,9.2-7.6l-3.8-13L204.6,32z"/>
	<polygon points="112.8,35.4 110.6,21.8 103.6,37.5 	"/>
	<path d="M60.6,78.8c0.2-1.5,0.6-3.4,1.6-5.4c2.5-5.1,7-7.4,8.7-8.2c7.1,2.7,14.1,5.4,21.2,8.2c0,0,4.9-6,9.8-4.3
		c4.9,1.6,8.2,3.8,8.2,3.8l15.8-12l19.6,9.2c-2.5,6.7-5.1,13.4-7.6,20.1c-5.6,5.8-11.2,11.6-16.8,17.4c-7.1-0.5-14.1-1.1-21.2-1.6
		c-5-6.1-12.9-14.1-24.5-20.6C70.1,82.3,65.1,80.2,60.6,78.8z"/>
	<path d="M52,11.5c0,0-8.7,0.5-8.7,3.3s-2.2,67.4-2.2,67.4l-10.3,6l-13,16.8l-4.9,21.2l3.8,4.3l-0.5,17.4c0,0-6,16.3-3.3,20.6
		s17.4,19,17.4,19l7.1,1.1c0,0,9.2-8.2,15.8-4.9l15.2-8.2c0,0,3.8-4.3,3.3-9.8l11.4-9.8l12-1.1l10.3-6c0,0,1.6-2.2,2.7-8.2
		s1.6-16.3,1.6-16.3s3.3-13-8.2-19.6l-1.6-3.3L80.2,82c-6.5-1.4-13-2.9-19.6-4.3c1.4,3.6,2.9,7.2,4.3,10.9c0,0,0,7.1-14.7,15.8
		l-5.4,4.9l2.2-94L52,11.5z"/>
	<path d="M125.9,60.9l19.6,9.2L135.7,50c-1.3-2.2-3.4-5-6.5-7.6c-6.3-5.3-13.1-6.6-16.3-7.1c-3.1,0.7-6.2,1.4-9.2,2.2l-16.3-1.6
		c0,0-25,13-24.5,15.8c0.5,2.7-4.9,14.7-4.9,14.7s0.5,10.3,4.3,11.4L71,67.4l21.2,6c0,0,3.8-8.2,17.9-0.5L125.9,60.9z"/>
	<path d="M110.6,21.8c0,0,22.8-13,25.5-15.2c0,0,19.6,2.7,24.5,1.1s4.9,4.9,4.9,4.9L157.3,24l-18.5-3.8l1.1,20.1l-10.3,3.8
		l-16.8-8.7L110.6,21.8z"/>
	<path d="M171,21.2c0,0,10.9-1.1,13-3.8l8.7,6l2.7,5.4L181.3,31L171,21.2z"/>
	<path d="M205.2,34.2l7.6-2.2l12.5-5.4l10.3,2.2c0,0,23.4,14.1,25.5,13.6l8.7,33.1l-5.4,8.2l1.6-8.2l-5.4,3.3l-15.8,16.8l-2.7-8.2
		l-3.3,1.1l-21.2-7.6L209,66.8l1.1-10.9L205.2,34.2z"/>
	<polygon points="259.5,93.4 261.8,88.5 271.5,98.3 	"/>
	<path d="M226.9,112.4l-13.6-4.9l-1.6,10.3l4.9,3.3C216.6,121.1,223.7,120,226.9,112.4z"/>
	<path d="M220.9,147.2c0,0,2.2-5.4,9.8-7.1c0,0,8.7,1.6,8.2,4.9c0,0-7.6,2.7-12.5,13.6l-2.7-2.2L220.9,147.2z"/>
	<path d="M201.4,168.9c0,0,9.2-8.2,10.3-11.4s4.9,0,4.9,0l4.3-10.3l1.6,7.1l3.8,4.3l-4.3,9.2l-6.5-2.7l1.1,3.8
		C216.6,168.9,196.5,182.6,201.4,168.9z"/>
	<path d="M185.6,177.6l-10.9,9.8l0.5,9.2l-11.4-0.5c0,0-10.9,10.3-10.9,12c0,1.6,5.4,12.5,10.9,8.7c5.4-3.8,10.3-10.3,10.3-10.3
		s7.1-12,10.9-9.8c0,0,6,2.7-0.5-6.5C184.5,190.1,182.9,185.2,185.6,177.6z"/>
	<path d="M153,221.1l-7.6,6.5c0,0-3.3,12,0,11.4c3.3-0.5,9.8-1.6,9.8-1.6l3.8-4.3l-4.9-4.3L153,221.1z"/>
	<polygon points="197,184.8 197,192.9 203.6,199.9 200.3,208.1 195.4,210.8 185.1,196.8 184.5,190.1 	"/>
	<polygon points="222,179.3 217.7,185.2 220.9,192.3 225.8,189.6 226.9,186.3 	"/>
</g>
<g>
	<polygon class="st2" points="32.1,183.1 52.7,184.7 71.7,168.4 77.7,150.5 	"/>
	<path class="st3" d="M94.6,96.2c0,0,18.5,4.9,20.1,3.8S131,84.8,131,83.1s9.2-18.5,9.2-18.5l0.5,25l-10.3,12l-7.6,13l-16.3,5.4
		l-2.2-1.1C104.4,119,100.5,108.1,94.6,96.2z"/>
	<path class="st3" d="M124.5,38.6c3.8-2.2,7.6-4.3,11.4-6.5c6.5,5.8,13,11.6,19.6,17.4l1.6,10.3l8.2-3.3l3.8-12l7.6,7.6l3.3-3.3
		l1.1,5.4l6,3.8c5.3-2.9,7.1-5.9,7.6-8.2c0,0,0.5-2.3-2.2-12.5l7.1-10.9l5.4,23.9l-1.1,10.9l8.7,14.1l21.2,7.6l3.3-1.1
		c0.2,0.8,1.2,4,3.3,4.3c1.1,0.2,2.1-0.6,2.7-1.1c6-4.9,12.5-12,12.5-12l5.4-3.3l-1.6,8.2l-4.9,9.8l12,4.9l6,16.8l-12.5,25l12,14.7
		l-4.9,20.6c0,0-12.5,9.8-12.5,13.6l-15.2,2.7l-2.2,9.8l-16.8,6.5H213l1.6,3.8c0,0-4.9,11.4-8.7,12c-3.8,0.5-13,0-13,0v3.8l-13,14.1
		l-5.4-0.5l1.1,3.8l-4.9,13.6l-4.3,1.6c0,0,2.7,5.4,5.4,5.4c0,0,0.5,7.6,8.7,7.1l0.5-3.3l7.6,4.3c0,0,12.5,0,14.1-3.3l4.3,2.2
		l1.6-4.3c0,0,3.3,3.8,7.1,3.3s5.4-2.7,5.4-2.7l1.1,6l-4.9,7.1c0,0-7.1,1.6-8.2-1.1c-1.1-2.7-15.8,1.6-15.8,1.6l1.6,3.3l-13.6-3.8
		l-3.3-5.4l-3.3,2.7l-7.1-3.8l-1.6-2.7h-4.3l-5.4-4.9V257l-6,1.6L137,251l4.9-7.6c0,0,16.3,0.5,17.4-10.3l-10.3-9.8l9.8,0.5
		c1.3-2.2,2.5-4.3,3.8-6.5c0.7-0.5,1.4-1.1,2.2-1.6c-0.2-0.7-0.4-1.4-0.5-2.2c2.2-2.2,4.3-4.3,6.5-6.5l-1.6-3.8V201
		c4.7,1.2,10.6,2.2,17.4,2.2c3.1,0,6.1-0.2,8.7-0.5l3.3-8.2l-6.5-7.1l3.3-2.7l12,5.4l13.6-6l1.1-3.3l-1.6-2.7l9.2-11.4l10.9,4.3
		l9.8-5.4l4.9-10.3l-11.4-7.1l-3.8-8.2l-3.3-0.5l9.2-8.7l3.3-7.6l-19-9.8l2.2-7.6l-7.6,2.7c0,0-22.3-10.3-27.2-7.6l4.9-6.5
		l-21.7-15.8l-7.1,2.7l-8.2-4.3l-2.2,2.2l-15.2,7.1c-2.9-1.6-5.8-3.3-8.7-4.9c0.4-5.6,0.7-11.2,1.1-16.8l-9.8-20.1L124.5,38.6z"/>
	<path class="st4" d="M29.9,184.2c0,0,2.7,5.4,13,5.4c0,0,8.2,3.3,15.8-1.1s15.8-9.2,15.8-9.2s5.4-8.7,5.4-14.1c0,0,8.7-12,9.8-15.8
		c0,0-10.3-2.2-12,1.1s-6,17.9-6,17.9s-18.5,13.6-19,16.3C52.7,184.7,33.7,181.5,29.9,184.2z"/>
	<path class="st4" d="M39.7,103.8c0,0,0-90.7,2.2-94S46.8,6,46.8,6c2.2,19.2,4.3,38.4,6.5,57.6c0.5,2.1,1.4,5.5,3,9.5
		c2.2,5.5,3.7,6.9,3.5,10.1c-0.2,4-2.9,7-4.9,9.2c-3.4,3.7-7.2,5.6-9.8,6.5C43.3,100.5,41.5,102.1,39.7,103.8z"/>
	<polygon class="st4" points="11.4,125 10.9,142.4 7.1,133.7 	"/>
	<path class="st4" d="M195.1,280.4c0,0,14.7,1.1,14.1-4.9c-1-0.6-2.5-1.3-4.3-1.6c-4.9-0.9-10.9,0.6-11.4,3.3
		C193.4,277.7,193.4,278.8,195.1,280.4z"/>
	<path class="st4" d="M208.7,263l7.6-2.2l4.9,2.7c-2,3.4-5.8,4.9-8.7,3.8C209.8,266.3,208.8,263.4,208.7,263z"/>
	<path class="st4" d="M202.7,265.2l-2.7-3.3l-14.7-0.5l-4.3,2.7l-3.3-3.8c0,0-1.6-0.5-3.3-0.5c-1.6,0-0.5-4.9-3.8-6.5l-4.3,1.6
		c0,0,0.5,3.3,5.4,5.4c0,0,0.5,8.7,8.7,7.1c0,0-0.5-4.9,8.2,1.1C188.6,268.4,201.1,269,202.7,265.2z"/>
	<path class="st4" d="M137,251l-5.4-15.2l8.7-13.6c1.5,2.9,3.1,5.1,4.3,6.5c2,2.3,3.4,3.3,5,3.3c0.2,0,0.4,0,0.5,0l3.8-4.3l5.4,5.4
		c0,0,0.5,13-17.4,10.3L137,251z"/>
	<path class="st4" d="M148.9,223.3l-1.1-20.6c0,0,6,12,10.9,8.7s10.3-10.3,10.3-10.3s6.5-12,10.9-9.8s10.3,14.1,10.3,14.1
		s0.5,4.3-5.4,3.3c-6-1.1-10.3-1.6-10.3-1.6l-5.4,4.3l1.1,2.2C170.1,213.5,165.2,229.3,148.9,223.3z"/>
	<path class="st4" d="M180.4,172.2c0,0-5.4,13-1.1,12.5c4.3-0.5,12.5-5.4,12.5-5.4l0.5-6L180.4,172.2z"/>
	<path class="st4" d="M191.8,187.5l-1.1-4.3l2.2-17.4l3.3-2.2c0,0-3.3,7.6,6,5.4l9.2-5.4l5.4,10.3l-4.3,6l3.3,7.1l-8.7,3.3l-12-5.4
		L191.8,187.5z"/>
	<path class="st4" d="M220.1,178.2c-1.6-1-3.6-2.5-5.4-4.9c-4.2-5.4-4.4-11.4-4.3-13.6c1.8-6,3.6-12,5.4-17.9l2.7,9.2l2.7,2.2
		c-0.1-0.7-0.5-6.3,3.8-10.3c3.5-3.3,7.8-3.3,8.7-3.3c0.4-1.1,0.7-2.2,1.1-3.3c0.5-1.1,1.1-2.2,1.6-3.3c2.4,5.1,4.7,10.1,7.1,15.2
		l11.4,7.1l-4.9,10.3l-9.8,5.4l-10.9-4.3L220.1,178.2z"/>
	<path class="st4" d="M232,105.9l-7.6,2.7l-2.7-1.6c-3.4,3.3-6.4,4.5-8.7,4.9c-2.2,0.4-6.5,0.5-6.5,0.5l0,0l0,0l7.6,16.8
		c0,0,18.5,4.9,19.6,10.3c0,0,13-2.2,15.2-16.3l-19-9.8L232,105.9z"/>
	<polygon class="st4" points="180.4,78.8 181.5,86.9 197.3,101.1 202.2,94.5 	"/>
	<path class="st4" d="M199.4,26.6c0,0-6.5-8.2-12-8.7l2.7,5.4L176,25.5c0,0-14.1-12.5-15.8-18.5L152,18.4l-18.5-3.8l1.1,20.1h2.2
		l18.5,14.7l1.6,10.3l8.2-3.3l3.8-12l7.6,7.6l3.3-3.3l1.1,5.4l6,3.8c0,0,7.6-2.2,9.2-7.6l-3.8-13L199.4,26.6z"/>
	<polygon class="st4" points="107.6,29.9 105.4,16.3 98.4,32 	"/>
	<path class="st4" d="M55.4,73.3c0.2-1.5,0.6-3.4,1.6-5.4c2.5-5.1,7-7.4,8.7-8.2c7.1,2.7,14.1,5.4,21.2,8.2c0,0,4.9-6,9.8-4.3
		c4.9,1.6,8.2,3.8,8.2,3.8l15.8-12l19.6,9.2c-2.5,6.7-5.1,13.4-7.6,20.1c-5.6,5.8-11.2,11.6-16.8,17.4c-7.1-0.5-14.1-1.1-21.2-1.6
		c-5-6.1-12.9-14.1-24.5-20.6C64.9,76.9,59.9,74.8,55.4,73.3z"/>
	<path class="st5" d="M46.8,6c0,0-8.7,0.5-8.7,3.3s-2.2,67.4-2.2,67.4l-10.3,6l-13,16.8l-4.9,21.2l3.8,4.3L11,142.4
		c0,0-6,16.3-3.3,20.6s17.4,19,17.4,19l7.1,1.1c0,0,9.2-8.2,15.8-4.9l15.2-8.2c0,0,3.8-4.3,3.3-9.8l11.4-9.8l12-1.1l10.3-6
		c0,0,1.6-2.2,2.7-8.2s1.6-16.3,1.6-16.3s3.3-13-8.2-19.6l-1.6-3.3L75,76.6c-6.5-1.4-13-2.9-19.6-4.3c1.4,3.6,2.9,7.2,4.3,10.9
		c0,0,0,7.1-14.7,15.8l-5.4,4.9l2.2-94L46.8,6z"/>
	<path class="st5" d="M120.7,55.4l19.6,9.2l-9.8-20.1c-1.3-2.2-3.4-5-6.5-7.6c-6.3-5.3-13.1-6.6-16.3-7.1c-3.1,0.7-6.2,1.4-9.2,2.2
		l-16.3-1.6c0,0-25,13-24.5,15.8c0.5,2.7-4.9,14.7-4.9,14.7s0.5,10.3,4.3,11.4L65.8,62L87,68c0,0,3.8-8.2,17.9-0.5L120.7,55.4z"/>
	<path class="st5" d="M105.4,16.3c0,0,22.8-13,25.5-15.2c0,0,19.6,2.7,24.5,1.1s4.9,4.9,4.9,4.9l-8.2,11.4l-18.5-3.8l1.1,20.1
		l-10.3,3.8l-16.8-8.7L105.4,16.3z"/>
	<path class="st5" d="M165.8,15.7c0,0,10.9-1.1,13-3.8l8.7,6l2.7,5.4l-14.1,2.2L165.8,15.7z"/>
	<path class="st5" d="M200,28.8l7.6-2.2l12.5-5.4l10.3,2.2c0,0,23.4,14.1,25.5,13.6l8.7,33.1l-5.4,8.2l1.6-8.2l-5.4,3.3l-15.8,16.8
		l-2.7-8.2l-3.3,1.1l-21.2-7.6l-8.7-14.1l1.1-10.9L200,28.8z"/>
	<polygon class="st5" points="254.3,88 256.5,83.1 266.3,92.9 	"/>
	<path class="st5" d="M221.7,107l-13.6-4.9l-1.6,10.3l4.9,3.3C211.4,115.7,218.5,114.6,221.7,107z"/>
	<path class="st5" d="M215.7,141.8c0,0,2.2-5.4,9.8-7.1c0,0,8.7,1.6,8.2,4.9c0,0-7.6,2.7-12.5,13.6l-2.7-2.2L215.7,141.8z"/>
	<path class="st5" d="M196.2,163.5c0,0,9.2-8.2,10.3-11.4s4.9,0,4.9,0l4.3-10.3l1.6,7.1l3.8,4.3l-4.3,9.2l-6.5-2.7l1.1,3.8
		C211.4,163.5,191.3,177.1,196.2,163.5z"/>
	<path class="st5" d="M180.4,172.2l-10.9,9.8l0.5,9.2l-11.4-0.5c0,0-10.9,10.3-10.9,12c0,1.6,5.4,12.5,10.9,8.7
		c5.4-3.8,10.3-10.3,10.3-10.3s7.1-12,10.9-9.8c0,0,6,2.7-0.5-6.5C179.3,184.7,177.7,179.8,180.4,172.2z"/>
	<path class="st5" d="M147.8,215.7l-7.6,6.5c0,0-3.3,12,0,11.4c3.3-0.5,9.8-1.6,9.8-1.6l3.8-4.3l-4.9-4.3L147.8,215.7z"/>
	<polygon class="st4" points="191.8,179.3 191.8,187.5 198.4,194.5 195.1,202.7 190.2,205.4 179.9,191.3 179.3,184.7 	"/>
	<polygon class="st5" points="216.8,173.9 212.5,179.8 215.7,186.9 220.6,184.2 221.7,180.9 	"/>
</g>
</svg>
