<?xml version="1.0" encoding="utf-8"?>
<!-- Generator: Adobe Illustrator 23.0.6, SVG Export Plug-In . SVG Version: 6.00 Build 0)  -->
<svg version="1.1" id="Layer_1" xmlns="http://www.w3.org/2000/svg" xmlns:xlink="http://www.w3.org/1999/xlink" x="0px" y="0px"
	 viewBox="0 0 288 288" style="enable-background:new 0 0 288 288;" xml:space="preserve">
<style type="text/css">
	.st0{opacity:0.5;}
	.st1{fill:#CE8D67;}
	.st2{fill:#262626;}
	.st3{fill:#F7F8F9;}
	.st4{fill:#E19D6C;}
	.st5{fill:#CFB77B;}
	.st6{fill:#CC9DB2;}
</style>
<g class="st0">
	<path d="M88.3,180.4c0,0,3,16.2,7.2,15.8l2.6-9.8L88.3,180.4z"/>
	<path d="M126.2,183.8l-21.3-3c0,0,5.1,17,13.6,16.6C127.1,197,126.2,183.8,126.2,183.8z"/>
	<path d="M97.7,122.9c0,0,22.2-54.9,87.7-26.8s40,79.2,40,79.2l-43-4.7L97.7,122.9z"/>
	<path d="M240.4,158.3l5.5-8.1c0,0,3.8-2.6,6.8,0.9c3,3.4,16.6,13.2,24.7,14.5s8.1,32.4,8.1,32.4s-1.3,11.1-12.4-21.3
		c0,0-21.3-4.7-25.6-10.6l-1.3,2.6c0,0,8.1,11.5,21.7,22.2c0,0,8.1,17-3.8,31.5c0,0-3,8.9-4.7-22.2c0,0-25.6-12.8-29-23.9
		c-3.4-11.1-5.1-16.2-5.1-16.2s8.1-6.4,10.2-6.4S240.4,154.8,240.4,158.3z"/>
	<path d="M136.5,175.2c0,0,8.5,4.3,1.3,12.8c0,0,5.5,2.1-1.3,8.9c0,0,0.9,3.8-6.4,4.7c-7.2,0.9-12.8-3-11.5-6.4s0-6.4,5.1-6.4
		c0,0-6-3.8,5.1-7.2C139.9,178.1,136.5,175.2,136.5,175.2z"/>
	<path d="M99.8,174.4l9.4,11.1c0,0-0.4,1.3-1.7,2.1c0,0,3.8,0.9,3.8,3s0,2.1,0,2.1s4.7,1.3,4.3,3c-0.4,1.7-7.7,8.5-13.6-0.9
		c0,0-10.6-7.7-6.8-11.9c0,0-4.3-6.4,0.9-10.6L99.8,174.4z"/>
	<path d="M146.7,116.3c0,0-39.2-13-65.6,22.3c0,0-22.6-20-53.2,20s-4.7,72.8-4.7,72.8s1.7,18.3,19.6,21.7c0,0,3-5.1,0.4-20
		c0,0,9.4-1.3,37.1-63.5c0,0,6.8,10.6,14.1,15.3l4.3-12.8c0,0-0.4,9.8,17.9,11.1c0,0,13.6,2.6,20-6v21.7c0,0,16.2,5.5,34.9-6.4
		c0,0-15.3,40.5-2.6,58.8c0,0-6.4,16.2-2.6,20c0,0,10.2,2.6,24.7-14.9c0,0,54.9-28.1,37.1-98.4c0,0-9.8-14.5-37.5,9.4
		C190.6,167.6,195.7,125.6,146.7,116.3z"/>
	<path d="M112.6,102c0,0,11.9,2.1,12.8-7.7S112.6,102,112.6,102z"/>
	<path d="M193.5,112.2c0,0,1.7,13.2,15.3,9.8C222.5,118.6,193.5,112.2,193.5,112.2z"/>
	<path d="M211,123.3c0,0-47.7-23.9-29-45.6s52.8-10.6,52.8-10.6s21.7,8.5,14.1,53.7C248.9,120.8,234.9,137,211,123.3z"/>
	<path d="M119,98.6c0,0-42.2,22.2-46-7.7s33.7-40,33.7-40s37.1-7.7,30.2,23.9C136.9,74.8,132.2,93.1,119,98.6"/>
	<path d="M77.3,71.8c0.8-0.1,2.3-0.1,3.7,0.8c1.9,1.2,2.5,3.4,2.7,5.1C85,86.6,79,91.3,79,91.3c-3.1,0.7-4.6-0.2-5.1-0.6
		c-3.1-2.4-1.2-9-0.5-11.3C74.4,76,76,73.4,77.3,71.8z"/>
	<path d="M99,76.5c0,0-6,1.7-4.7,6.8c1.3,5.1,4.3,7.7,8.1,2.6C106.2,80.7,102.8,77.7,99,76.5z"/>
	<path d="M94.7,101.6c0,0-9.8-5.1-12.8,0c0,0,6,6.4,9.8,3.8C95.6,102.9,94.7,101.6,94.7,101.6z"/>
	<path d="M113.9,56c0,0-13.2-7.2-19.2,6C94.7,62,110.1,68.4,113.9,56z"/>
	<path d="M132.6,71.8c0,0-11.5-7.2-8.5,6.8c0,0,3.8,3.4,7.2-0.9C134.8,73.5,132.6,71.8,132.6,71.8z"/>
	<path d="M224.2,93.9c0,0-6.8-4.3-7.2-2.1c-0.4,2.1-3,8.9,0,7.7C219.9,98.2,224.2,93.9,224.2,93.9z"/>
	<path d="M203.3,67.1c0,0-14.1,10.2-2.1,11.1c11.9,0.9,14.9-8.5,14.9-8.5S214.8,63.3,203.3,67.1z"/>
	<path d="M204.6,88c0,0-9.8-3.4-13.6,6.8s7.7,6.8,7.7,6.8S208.4,94.4,204.6,88z"/>
	<path d="M233.2,98.2c0,0-12.4,3.8-8.1,14.5s16.2,5.1,16.2,5.1S249.8,105.4,233.2,98.2z"/>
	<path d="M243.4,75.2c0,0-9.8-6.4-8.5,8.5c0,0,8.9,14.9,14.5,9.8C249.3,93.5,249.3,84.1,243.4,75.2z"/>
</g>
<g>
	<path class="st1" d="M83.2,175.2c0,0,3,16.2,7.2,15.8l2.6-9.8L83.2,175.2z"/>
	<path class="st2" d="M121.1,178.6l-21.3-3c0,0,5.1,17,13.6,16.6C122,191.8,121.1,178.6,121.1,178.6z"/>
	<path class="st1" d="M92.6,117.7c0,0,22.2-54.9,87.7-26.8s40,79.2,40,79.2l-43-4.7L92.6,117.7z"/>
	<path class="st1" d="M235.3,153.1l5.5-8.1c0,0,3.8-2.6,6.8,0.9c3,3.4,16.6,13.2,24.7,14.5s8.1,32.4,8.1,32.4s-1.3,11.1-12.4-21.3
		c0,0-21.3-4.7-25.6-10.6l-1.3,2.6c0,0,8.1,11.5,21.7,22.2c0,0,8.1,17-3.8,31.5c0,0-3,8.9-4.7-22.2c0,0-25.6-12.8-29-23.9
		c-3.4-11.1-5.1-16.2-5.1-16.2s8.1-6.4,10.2-6.4S235.3,149.6,235.3,153.1z"/>
	<path class="st3" d="M131.4,170c0,0,8.5,4.3,1.3,12.8c0,0,5.5,2.1-1.3,8.9c0,0,0.9,3.8-6.4,4.7c-7.2,0.9-12.8-3-11.5-6.4
		s0-6.4,5.1-6.4c0,0-6-3.8,5.1-7.2C134.8,172.9,131.4,170,131.4,170z"/>
	<path class="st3" d="M94.7,169.2l9.4,11.1c0,0-0.4,1.3-1.7,2.1c0,0,3.8,0.9,3.8,3s0,2.1,0,2.1s4.7,1.3,4.3,3
		c-0.4,1.7-7.7,8.5-13.6-0.9c0,0-10.6-7.7-6.8-11.9c0,0-4.3-6.4,0.9-10.6L94.7,169.2z"/>
	<path class="st4" d="M141.6,111.1c0,0-39.2-13-65.6,22.3c0,0-22.6-20-53.2,20s-4.7,72.8-4.7,72.8s1.7,18.3,19.6,21.7
		c0,0,3-5.1,0.4-20c0,0,9.4-1.3,37.1-63.5c0,0,6.8,10.6,14.1,15.3l4.3-12.8c0,0-0.4,9.8,17.9,11.1c0,0,13.6,2.6,20-6v21.7
		c0,0,16.2,5.5,34.9-6.4c0,0-15.3,40.5-2.6,58.8c0,0-6.4,16.2-2.6,20c0,0,10.2,2.6,24.7-14.9c0,0,54.9-28.1,37.1-98.4
		c0,0-9.8-14.5-37.5,9.4C185.5,162.4,190.6,120.4,141.6,111.1z"/>
	<path class="st5" d="M107.5,96.8c0,0,11.9,2.1,12.8-7.7S107.5,96.8,107.5,96.8z"/>
	<path class="st5" d="M188.4,107c0,0,1.7,13.2,15.3,9.8C217.4,113.4,188.4,107,188.4,107z"/>
	<path class="st6" d="M205.9,118.1c0,0-47.7-23.9-29-45.6s52.8-10.6,52.8-10.6s21.7,8.5,14.1,53.7
		C243.8,115.6,229.8,131.8,205.9,118.1z"/>
	<path class="st6" d="M113.9,93.4c0,0-42.2,22.2-46-7.7s33.7-40,33.7-40s37.1-7.7,30.2,23.9C131.8,69.6,127.1,87.9,113.9,93.4"/>
	<path class="st5" d="M72.2,66.6c0.8-0.1,2.3-0.1,3.7,0.8c1.9,1.2,2.5,3.4,2.7,5.1c1.3,8.9-4.7,13.6-4.7,13.6
		c-3.1,0.7-4.6-0.2-5.1-0.6c-3.1-2.4-1.2-9-0.5-11.3C69.3,70.8,70.9,68.2,72.2,66.6z"/>
	<path class="st5" d="M93.9,71.3c0,0-6,1.7-4.7,6.8c1.3,5.1,4.3,7.7,8.1,2.6C101.1,75.5,97.7,72.5,93.9,71.3z"/>
	<path class="st5" d="M89.6,96.4c0,0-9.8-5.1-12.8,0c0,0,6,6.4,9.8,3.8C90.5,97.7,89.6,96.4,89.6,96.4z"/>
	<path class="st5" d="M108.8,50.8c0,0-13.2-7.2-19.2,6C89.6,56.8,105,63.2,108.8,50.8z"/>
	<path class="st5" d="M127.5,66.6c0,0-11.5-7.2-8.5,6.8c0,0,3.8,3.4,7.2-0.9C129.7,68.3,127.5,66.6,127.5,66.6z"/>
	<path class="st5" d="M219.1,88.7c0,0-6.8-4.3-7.2-2.1c-0.4,2.1-3,8.9,0,7.7C214.8,93,219.1,88.7,219.1,88.7z"/>
	<path class="st5" d="M198.2,61.9c0,0-14.1,10.2-2.1,11.1c11.9,0.9,14.9-8.5,14.9-8.5S209.7,58.1,198.2,61.9z"/>
	<path class="st5" d="M199.5,82.8c0,0-9.8-3.4-13.6,6.8s7.7,6.8,7.7,6.8S203.3,89.2,199.5,82.8z"/>
	<path class="st5" d="M228.1,93c0,0-12.4,3.8-8.1,14.5s16.2,5.1,16.2,5.1S244.7,100.2,228.1,93z"/>
	<path class="st5" d="M238.3,70c0,0-9.8-6.4-8.5,8.5c0,0,8.9,14.9,14.5,9.8C244.2,88.3,244.2,78.9,238.3,70z"/>
</g>
</svg>
