<?xml version="1.0" encoding="utf-8"?>
<!-- Generator: Adobe Illustrator 23.0.6, SVG Export Plug-In . SVG Version: 6.00 Build 0)  -->
<svg version="1.1" id="Layer_1" xmlns="http://www.w3.org/2000/svg" xmlns:xlink="http://www.w3.org/1999/xlink" x="0px" y="0px"
	 viewBox="0 0 288 288" style="enable-background:new 0 0 288 288;" xml:space="preserve">
<style type="text/css">
	.st0{opacity:0.5;}
	.st1{fill:#FBF7EB;}
	.st2{fill:#988A88;}
	.st3{fill:#EDDCBC;}
	.st4{fill:#BC6258;}
	.st5{fill:#302C2B;}
</style>
<g class="st0">
	<polygon points="263.2,221.4 261,224.1 265.8,225.2 	"/>
	<polygon points="271.1,226.9 269.4,227.9 272.8,228.9 	"/>
	<polygon points="274.7,229.9 273.8,231.2 277.9,232.2 	"/>
	<polygon points="166.2,265.4 166.2,267.1 169.5,265.4 	"/>
	<polygon points="177,265.4 179.6,268.3 180.6,265.4 	"/>
	<polygon points="185.7,261.8 188.3,263.5 189.8,261.1 	"/>
	<polygon points="84.1,261.1 85,262.8 87.4,261.1 	"/>
	<polygon points="93.2,261.4 94.2,263.1 96.8,261.2 	"/>
	<polygon points="101.6,261.1 102.6,262.3 104.3,260.1 	"/>
	<path d="M201.6,37.5c0,0-7.2-2.9-9.1-6.7s-25-12-21.2,6.3S182.4,54,182.4,54l-1-4.8C181.3,49.1,192.4,39.8,201.6,37.5z"/>
	<path d="M223.7,43.8c9.9-10.2,20.8-15.3,27.7-12c0.8,0.4,4.2,2,5.3,5.3c0,0,0.9,2.7-3.1,13.5l0,0l-12,9.6
		C241.5,60.1,242.5,43.8,223.7,43.8z"/>
	<path d="M109.6,193.4c0,0,6.7,9.6,5.8,13.5c0,0,9.1,9.6,10.1,21.2c0,0,12,7.2,17.8,19.3l13.5,1l-2.9-15.9l-14.4-14.9l-4.8-19.7
		c0,0,12.5-14.4,13-20.2C148.1,171.8,108.6,182.4,109.6,193.4z"/>
	<path d="M182.3,53.8c0,0-5.3,18.8-6.7,18.3S179,78,179,78c-16.5,1-20.2,1.6-20.2,1.9c0,0.5,8,0.9,12.5,1c3.6,0.1,9.1,0,9.1,0l0,0
		l2.4,1.4c-20.7,7.8-25.1,9.8-25,10.1c0.1,0.4,7.3-1.7,13.7-3.6c5.5-1.6,10-3,13.2-4.1c0.6,1.4,1.3,2.9,1.9,4.3
		c-15.3,11-18.5,13.7-18.3,14c0.3,0.4,7.7-4.2,9.1-5.1c0,0,2.5-1.5,10.1-6.5l0,0l2.9,2.4l-3.9,6.7c0,0-36.1,28.4-43.8,28.4
		s-37.1,1.9-37.1,1.9s-29.9,11.6-27.9,41.9c0,0-6.7,21.7-28.4,18.8s-23.1-23.1-23.1-23.1s0.5-13,3.4-12.5c0,0,13.5,14.9,24.6,0.5
		s-2.9-27.9-2.9-27.9s-17.3-12-30.8,5.8s-7.7,41.4-7.7,41.4s8.2,27.9,38,28.9c0,0,12.5,0,20.2-6.3c0,0-5.8,13-9.6,14.4
		c-3.8,1.4,2.9,10.1,2.9,10.1l2.9,20.7c0,0,9.1,10.1,9.6,14.9c0,0,6.7,4.3,17.3,2.9c0,0,13.5,1.9,13.5-6.7c0-8.7-5.3-7.7-5.3-7.7
		l-7.2-1c0,0-12-4.8-11.6-32.7l26-19.7l6.3-7.2c0,0,23.1-5.3,36.1-1.9c0,0-5.8,21.7-7.7,23.6s7.2,23.6,7.2,23.6l5.3,27.9
		c0,0,7.2,9.6,14.9,4.8c0,0,12,3.4,14-2.4c0,0,8.7-0.5,5.8-8.2C188.5,246,176,245,176,245s-7.7-10.1-10.6-35.2
		c0,0,16.9-23.6,16.9-27.9c0,0,14.4-4.3,14.9-6.7c0,0,24.6,22.1,27.4,29.9c0,0,8.7,2.9,15.4,2.4s23.1,10.6,23.1,10.6
		s1.4,8.2,7.2,8.7l5.3,3.9c0,0,7.7,6.3,9.6,1.4c1.9-4.8,1.9-10.1,1.9-10.1l-4.8-6.3L277,208c0,0-10.6-6.3-36.6-16.9
		c0,0-14.4-45.3-11.1-52c3.4-6.7,8.7-30.8,8.7-30.8l3-7.2c2.3,0.9,4.4,1.5,6.3,1.9c1.6,0.4,1.9,0.4,1.9,0.2c0.1-0.3-1-1.4-7.2-5.1
		l1-3.9c5.4,1.5,9.7,2.5,12.8,3.1c1.2,0.3,2.1,0.4,2.2,0.2c0.2-0.6-6.8-3.9-13-6.7v-5.8c1.4-0.3,3.5-0.6,6-0.7c2.6-0.1,4,0,4.1-0.2
		c0-0.3-1.6-1-9.6-2.9V60.1h-3.9c0,0-0.5-18.3-17.8-16.4l1.4-6.7c0,0-17.3-1.4-23.6,0.5c-6.3,1.9-19.7,8.7-20.2,11.6
		C180.8,51.8,182.3,53.8,182.3,53.8z"/>
	<circle cx="198.7" cy="60.1" r="4.8"/>
	<path d="M193.9,83.2l6.7,1.4c0,0-0.5,3.4-3.4,3.9s-4.3-1.9-4.3-1.9S190.5,81.2,193.9,83.2z"/>
	<path d="M217,50.5c0,0,3.9-26.5,28.9-25c25,1.4,13,23.1,13,23.1s-10.6,13.5-17.4,11.5c0,0,21.7-15.4,12-25.5
		C243.9,24.5,217,50.5,217,50.5z"/>
	<path d="M182.3,53.8c0,0-13-9.1-10.1-21.7c2.9-12.5,16.4,1.9,16.4,1.9l7.2,14.4c0,0,0.9-20.3-10.7-26.4c-0.8-0.4-7.7-4.1-12.9-1.1
		c-6.6,3.8-7.4,16.2-2.4,24.1C173.6,51.2,180.1,53.2,182.3,53.8z"/>
	<polygon points="211.2,96.2 212.6,99.1 214.6,95.8 	"/>
	<polygon points="193.9,92.9 192.9,96.2 190.5,93.8 	"/>
</g>
<g>
	<polygon class="st1" points="257.2,216.3 255,219 259.8,220.2 	"/>
	<polygon class="st1" points="265.1,221.9 263.4,222.8 266.8,223.8 	"/>
	<polygon class="st1" points="268.7,224.8 267.8,226.2 271.9,227.2 	"/>
	<polygon class="st1" points="160.2,260.4 160.2,262.1 163.5,260.4 	"/>
	<polygon class="st1" points="171,260.4 173.6,263.3 174.6,260.4 	"/>
	<polygon class="st1" points="179.7,256.8 182.3,258.5 183.8,256.1 	"/>
	<polygon class="st1" points="78.1,256.1 79,257.8 81.4,256.1 	"/>
	<polygon class="st1" points="87.2,256.4 88.2,258.1 90.8,256.2 	"/>
	<polygon class="st1" points="95.6,256.1 96.6,257.3 98.3,255.1 	"/>
	<path class="st2" d="M195.6,32.4c0,0-7.2-2.9-9.1-6.7s-25-12-21.2,6.3s11.1,16.9,11.1,16.9l-1-4.8C175.3,44,186.4,34.8,195.6,32.4z
		"/>
	<path class="st2" d="M217.7,38.7c9.9-10.2,20.8-15.3,27.7-12c0.8,0.4,4.2,2,5.3,5.3c0,0,0.9,2.7-3.1,13.5l0,0l-12,9.6
		C235.5,55,236.5,38.7,217.7,38.7z"/>
	<path class="st2" d="M103.6,188.4c0,0,6.7,9.6,5.8,13.5c0,0,9.1,9.6,10.1,21.2c0,0,12,7.2,17.8,19.3l13.5,1l-2.9-15.9l-14.4-14.9
		l-4.8-19.7c0,0,12.5-14.4,13-20.2C142.1,166.7,102.6,177.3,103.6,188.4z"/>
	<path class="st3" d="M176.3,48.8c0,0-5.3,18.8-6.7,18.3s3.4,5.8,3.4,5.8c-16.5,1-20.2,1.6-20.2,1.9c0,0.5,8,0.9,12.5,1
		c3.6,0.1,9.1,0,9.1,0l0,0l2.4,1.4c-20.7,7.8-25.1,9.8-25,10.1c0.1,0.4,7.3-1.7,13.7-3.6c5.5-1.6,10-3,13.2-4.1
		c0.6,1.4,1.3,2.9,1.9,4.3c-15.3,11-18.5,13.7-18.3,14c0.3,0.4,7.7-4.2,9.1-5.1c0,0,2.5-1.5,10.1-6.5l0,0l2.9,2.4l-3.9,6.7
		c0,0-36.1,28.4-43.8,28.4s-37.1,1.9-37.1,1.9s-29.9,11.6-27.9,41.9c0,0-6.7,21.7-28.4,18.8s-23.1-23.1-23.1-23.1s0.5-13,3.4-12.5
		c0,0,13.5,14.9,24.6,0.5s-2.9-27.9-2.9-27.9s-17.3-12-30.8,5.8s-7.7,41.4-7.7,41.4s8.2,27.9,38,28.9c0,0,12.5,0,20.2-6.3
		c0,0-5.8,13-9.6,14.4s2.9,10.1,2.9,10.1l2.9,20.7c0,0,9.1,10.1,9.6,14.9c0,0,6.7,4.3,17.3,2.9c0,0,13.5,1.9,13.5-6.7
		c0-8.7-5.3-7.7-5.3-7.7l-7.2-1c0,0-12-4.8-11.6-32.7l26-19.7l6.3-7.2c0,0,23.1-5.3,36.1-1.9c0,0-5.8,21.7-7.7,23.6
		s7.2,23.6,7.2,23.6l5.3,27.9c0,0,7.2,9.6,14.9,4.8c0,0,12,3.4,14-2.4c0,0,8.7-0.5,5.8-8.2s-15.4-8.7-15.4-8.7s-7.7-10.1-10.6-35.2
		c0,0,16.9-23.6,16.9-27.9c0,0,14.4-4.3,14.9-6.7c0,0,24.6,22.1,27.4,29.9c0,0,8.7,2.9,15.4,2.4s23.1,10.6,23.1,10.6
		s1.4,8.2,7.2,8.7l5.3,3.9c0,0,7.7,6.3,9.6,1.4c1.9-4.8,1.9-10.1,1.9-10.1l-4.8-6.3l-5.3-7.7c0,0-10.6-6.3-36.6-16.9
		c0,0-14.4-45.3-11.1-52c3.4-6.7,8.7-30.8,8.7-30.8l3-7.2c2.3,0.9,4.4,1.5,6.3,1.9c1.6,0.4,1.9,0.4,1.9,0.2c0.1-0.3-1-1.4-7.2-5.1
		l1-3.9c5.4,1.5,9.7,2.5,12.8,3.1c1.2,0.3,2.1,0.4,2.2,0.2c0.2-0.6-6.8-3.9-13-6.7v-5.8c1.4-0.3,3.5-0.6,6-0.7c2.6-0.1,4,0,4.1-0.2
		c0-0.3-1.6-1-9.6-2.9V55h-3.9c0,0-0.5-18.3-17.8-16.4l1.4-6.7c0,0-17.3-1.4-23.6,0.5c-6.3,1.9-19.7,8.7-20.2,11.6
		C174.8,46.8,176.3,48.8,176.3,48.8z"/>
	<circle class="st4" cx="192.7" cy="55" r="4.8"/>
	<path class="st5" d="M187.9,78.1l6.7,1.4c0,0-0.5,3.4-3.4,3.9s-4.3-1.9-4.3-1.9S184.5,76.2,187.9,78.1z"/>
	<path class="st5" d="M211,45.4c0,0,3.9-26.5,28.9-25c25,1.4,13,23.1,13,23.1S242.3,57,235.5,55c0,0,21.7-15.4,12-25.5
		C237.9,19.4,211,45.4,211,45.4z"/>
	<path class="st5" d="M176.3,48.8c0,0-13-9.1-10.1-21.7c2.9-12.5,16.4,1.9,16.4,1.9l7.2,14.4c0,0,0.9-20.3-10.7-26.4
		c-0.8-0.4-7.7-4.1-12.9-1.1c-6.6,3.8-7.4,16.2-2.4,24.1C167.6,46.2,174.1,48.2,176.3,48.8z"/>
	<polygon class="st1" points="205.2,91.1 206.6,94 208.6,90.7 	"/>
	<polygon class="st1" points="187.9,87.8 186.9,91.1 184.5,88.7 	"/>
</g>
</svg>
