<?xml version="1.0" encoding="utf-8"?>
<!-- Generator: Adobe Illustrator 23.0.6, SVG Export Plug-In . SVG Version: 6.00 Build 0)  -->
<svg version="1.1" id="Layer_1" xmlns="http://www.w3.org/2000/svg" xmlns:xlink="http://www.w3.org/1999/xlink" x="0px" y="0px"
	 viewBox="0 0 288 288" style="enable-background:new 0 0 288 288;" xml:space="preserve">
<style type="text/css">
	.st0{opacity:0.5;}
	.st1{fill:#BCC1D2;}
	.st2{fill:#8D7174;}
	.st3{fill:#D5BBBF;}
	.st4{fill:#FFFFFF;}
	.st5{fill:#342926;}
	.st6{fill:#815839;}
	.st7{fill:#BFB292;}
	.st8{fill:#B59267;}
	.st9{fill:#F6EBBA;}
	.st10{fill:#9B7E7F;}
	.st11{fill:#F2E2EC;}
</style>
<g class="st0">
	<path d="M43.6,249.1c0,0-10.7,7.9-8.4,14.5l13.1-5.6C48.3,258,51.1,247.7,43.6,249.1z"/>
	<path d="M56.2,258.9c0,0-3.7,7.5,0.9,8.9l8.9-5.6c0,0,7-8.9-3.3-9.8C62.8,252.4,56.2,253.3,56.2,258.9z"/>
	<path d="M93.1,231.8l-0.5,3.7l-14,9.8c0,0-11.7,0.5-14-2.3c0,0-15,4.2-17.3,2.3c0,0-3.7,0.9-3.7,3.7c0,0,7.5-0.5,4.7,8.9l-2.8,0.9
		c0,0,0,2.3,2.3,1.9c0,0,5.6-3.3,8.4-1.9c0,0,5.8-7.6,9-6.2c0.6,0.3,1,1,1.3,1.5c1.1,1.9,0.8,3.9,0.7,4.8c-0.1,0.7-0.4,1.8-1,3.1
		c0.8-0.4,1.9-0.8,3.1-1c3.3-0.7,6,0,7.5,0.6l18.2-7c0,0,9.3-4.7,12.1,0.9l8.4,1.4l4.7-4.7c0,0-4.2-6.1-8.4-6.1c0,0-9.8-6.1-7-10.3
		c0.3-0.4,0.4-0.8,0.3-1.2C104.8,232.8,98.8,232.1,93.1,231.8z"/>
	<path d="M126.3,236l1.9,7.5c0,0-11.2,13.1-21,12.1l-24.3-0.5c0,0-2.8,0.5-1.9,4.2c0,0,5.6,0.5,3.3,9.8L81,270c0,0,2.8,1.4,4.2,1.4
		s3.7-3.7,7.9-2.8l4.2,1.4c0,0,7-5.1,9.8,0s-1.9,8.4-1.9,8.4s-5.6,5.1,13.6-1.9c0,0,5.1,0.9,11.7-9.3c6.5-10.3,21.5-1.9,21.5-1.9
		s8.9,0.5,10.3-2.3c0,0,6.1-9.3-3.7-11.2c0,0-17.8,1.4-18.2-7.5c-0.5-8.9,0-11.7,0-11.7L126.3,236z"/>
	<path d="M81.8,258.5c0,0-15.8,6.3-10.7,16.5c3.5-1.6,6.9-3.2,10.4-4.9c0.6,0,1.7-0.1,2.8-0.9c2.3-1.6,2.1-4.6,2.1-5
		C86.1,261.8,84.3,259.6,81.8,258.5z"/>
	<path d="M102,266.9c0,0-13.1,3.7-9.3,18.2c2.2-3.2,4.2-4.2,5.8-4.5c0.6-0.1,4.7-1,6.6-1.8c0.2-0.1,0.5-0.2,0.8-0.4
		c1-0.7,1.4-1.5,1.6-1.9c0.6-1.2,1-3,0.5-4.7C107.3,269.2,105,267.3,102,266.9z"/>
	<path d="M163.2,254.2c0,0,7,5.1,6.1,10.7c-2.4-0.4-4.8-0.8-7.2-1.2C162.4,260.5,162.8,257.3,163.2,254.2z"/>
	<path d="M57.2,59c0,0-7.9,0,2.3,4.2s20.1,49.5,20.1,49.5s43.9-3.7,43.5-20.1S97.8,47.7,97.8,47.7L57.2,59z"/>
	<path d="M190.8,163.6c0,0,4.7-7,18.2-7.5c0,0,15.9-17.3,22-16.8s25.2-0.5,43,20.1c0,0,4.2,2.8-9.3,6.1l10.3,10.3
		c0,0-33.2,19.6-71.5,14L190.8,163.6z"/>
	<path d="M44.1,201.5c0,0,46.6,57,122.3,27.6l-32-17.8l-31-63.5c-11.9,12.9-23.2,20.2-31.6,24.6c-11.7,6-24.9,10.1-27.7,20.8
		C43.3,196.5,43.6,199.5,44.1,201.5z"/>
	<path d="M95.5,54.7c0,0,20.6,17.3,18.7,26.2c-1.9,8.9-30.8,28-30.8,28s-3.3,9.3-2.3,13.1c0.9,3.7-4.7,6.1,22,25.7
		c0,0,15.9,53.3,27.1,55.6l15.4,8.9c0,0,33.6,14.5,36-4.7s10.7-37.8,10.7-37.8l-5.6-17.8l2.3,0.5l-6.1-10.7l7.5,0.5
		c0,0-34.6-35-52.3-32.2c0,0-12.1-13.1-12.6-29.4c-0.5-16.4-5.6-23.8-5.6-23.8L95.5,54.7z"/>
	<path d="M39.9,58.6c0,0,9-30.4,14.4-32.3l-0.6,8.5c0,0,7.8-15.7,13.8-15.2c0,0-3.6,10.4,0,13.3c0,0-21.6,17.6-24,26.1L39.9,58.6z"
		/>
	<path d="M49.7,59.7h-7c0,0,17.8-39.3,56.1-52.7l-8.9,18.2c0,0,15.9-5.7,20.6-5.7l-7,9.1l5.1-1c0,0-7.5,9.1-9.8,9.6l7,1.4
		C105.8,38.7,76.3,41.1,49.7,59.7z"/>
	<path d="M41.5,102.5c0.5,3.1,0.8,7.7-0.4,13c-1.7,7.9-5.4,11.6-9.2,17.8c-0.5,0.8-9,15-9.7,32c-0.2,5.3,0.2,14.2,4.6,25
		c0.8-5.3,1.6-10.6,2.3-15.9c0,0,0.5,19.2,4.2,22.4c0,0,7.9,4.7,10.7,4.7l0.5-4.2l2.3,3.7c0,0,4.2,3.3,5.6,1.4c0,0-3.3-9.8-1.4-11.2
		c0,0,5.1,12.1,6.5,13.1l2.3,0.5l-1.4-8.4c0,0-0.9,3.7,5.6,7.9c6.5,4.2,16.4-0.5,16.4-0.5s-1.9-7.5-2.8-10.7c0,0,6.1,8.9,9.3,8.9
		l1.9-3.3l1.9,2.8c0,0,3.3-13.6,1.4-19.2l4.2,7c0,0,5.6-16.4,2.3-24.3l-1.4-5.6l5.6-11.7c0,0-23.4-15.9-22-25.7
		c0,0,5.1-33.6,11.7-36.9c0,0-21-18.7-33.2-22c0,0-5.1-3.3-2.3-4.2l-4.7,0.9c0,0,15,29-0.9,43c-1.7,0.1-3.5,0.1-5.5,0
		C44.5,102.8,42.9,102.7,41.5,102.5z"/>
	<path d="M119.3,37l-7,5.8c0,0,17.3,5.3,16.8,8.3h-3.7c0,0,10.3,6.8,10.3,9.2c0,0-52.3-11.7-78.5-0.5l-4.7,1l-2.8-1.5
		C49.7,59.4,75.4,38,119.3,37z"/>
	<path d="M133.8,211.3c0,0,36,25.7,60.3,23.8l8.9,4.2c0,0,5.1-0.5,5.6-4.2l-2.3-7c0,0,1.9-6.5,1.4-9.8c0,0,0.5-15-4.2-28.5
		c-4.7-13.6-16.8-37.8-16.8-37.8l-5.1-2.8l8.4,16.4l-5.1-1.9l3.7,9.8l-3.3-0.5l0.5,6.1c0,0-7.5,2.3-8.4-1.9c0,0,1.9,8.4,0,9.3
		l-4.2-0.9l0.5,4.2c0,0-9.3-8.4-10.3-7l1.4,7.9L149.4,180c0,0,12.1,20.6,11.2,22.9l-4.2-1.9l2.3,5.6l-4.7,0.9l0.9,2.8l-11.8-3.2
		l2.3,5.1l-15.4-8.9L133.8,211.3z"/>
	<path d="M54.1,60.8c0,0-2.4-4.2-13.2-2.8s-21,2.3-23.5,14l13.7,3.8c0,0,9.8,9.3,7.8,14l-6.4,10.7c0,0,2.9,2.8,10.7,3.7
		c7.8,0.9,0,0,0,0s17.6,5.1,17.6-21s0,0,0,0S59,67.4,54.1,60.8"/>
	<path d="M21.2,73.1c3.2,0.9,6.3,1.9,9.5,2.8c1.2,0.8,3,2.2,4.4,4.4c3.1,4.6,2.8,9.4,2.6,11c-0.4,1.4-1,2.9-1.8,4.6
		s-1.6,3.3-2.5,4.6c0,0,18.6-4.2,24.5-13.3c0,0-20-16.1-22.4-15.1C33.1,73.1,20.8,71,21.2,73.1z"/>
	<path d="M38.7,99.4c0,0-0.7-16.1,11.9-18.2l7.7,5.6c-1.5,1.9-3.5,4.2-6.3,6.3C47,96.9,41.9,98.6,38.7,99.4z"/>
</g>
<g>
	<path class="st1" d="M38.5,244c0,0-10.7,7.9-8.4,14.5l13.1-5.6C43.2,252.9,46,242.6,38.5,244z"/>
	<path class="st1" d="M51.1,253.8c0,0-3.7,7.5,0.9,8.9l8.9-5.6c0,0,7-8.9-3.3-9.8C57.7,247.3,51.1,248.2,51.1,253.8z"/>
	<path class="st2" d="M88,226.7l-0.5,3.7l-14,9.8c0,0-11.7,0.5-14-2.3c0,0-15,4.2-17.3,2.3c0,0-3.7,0.9-3.7,3.7c0,0,7.5-0.5,4.7,8.9
		l-2.8,0.9c0,0,0,2.3,2.3,1.9c0,0,5.6-3.3,8.4-1.9c0,0,5.8-7.6,9-6.2c0.6,0.3,1,1,1.3,1.5c1.1,1.9,0.8,3.9,0.7,4.8
		c-0.1,0.7-0.4,1.8-1,3.1c0.8-0.4,1.9-0.8,3.1-1c3.3-0.7,6,0,7.5,0.6l18.2-7c0,0,9.3-4.7,12.1,0.9l8.4,1.4l4.7-4.7
		c0,0-4.2-6.1-8.4-6.1c0,0-9.8-6.1-7-10.3c0.3-0.4,0.4-0.8,0.3-1.2C99.7,227.7,93.7,227,88,226.7z"/>
	<path class="st3" d="M121.2,230.9l1.9,7.5c0,0-11.2,13.1-21,12.1L77.8,250c0,0-2.8,0.5-1.9,4.2c0,0,5.6,0.5,3.3,9.8l-3.3,0.9
		c0,0,2.8,1.4,4.2,1.4s3.7-3.7,7.9-2.8l4.2,1.4c0,0,7-5.1,9.8,0s-1.9,8.4-1.9,8.4s-5.6,5.1,13.6-1.9c0,0,5.1,0.9,11.7-9.3
		c6.5-10.3,21.5-1.9,21.5-1.9s8.9,0.5,10.3-2.3c0,0,6.1-9.3-3.7-11.2c0,0-17.8,1.4-18.2-7.5c-0.5-8.9,0-11.7,0-11.7L121.2,230.9z"/>
	<path class="st4" d="M76.7,253.4c0,0-15.8,6.3-10.7,16.5c3.5-1.6,6.9-3.2,10.4-4.9c0.6,0,1.7-0.1,2.8-0.9c2.3-1.6,2.1-4.6,2.1-5
		C81,256.7,79.2,254.5,76.7,253.4z"/>
	<path class="st4" d="M96.9,261.8c0,0-13.1,3.7-9.3,18.2c2.2-3.2,4.2-4.2,5.8-4.5c0.6-0.1,4.7-1,6.6-1.8c0.2-0.1,0.5-0.2,0.8-0.4
		c1-0.7,1.4-1.5,1.6-1.9c0.6-1.2,1-3,0.5-4.7C102.2,264.1,99.9,262.2,96.9,261.8z"/>
	<path class="st4" d="M158.1,249.1c0,0,7,5.1,6.1,10.7c-2.4-0.4-4.8-0.8-7.2-1.2C157.3,255.4,157.7,252.2,158.1,249.1z"/>
	<path class="st5" d="M52.1,53.9c0,0-7.9,0,2.3,4.2s20.1,49.5,20.1,49.5s43.9-3.7,43.5-20.1S92.7,42.6,92.7,42.6L52.1,53.9z"/>
	<path class="st6" d="M185.7,158.5c0,0,4.7-7,18.2-7.5c0,0,15.9-17.3,22-16.8s25.2-0.5,43,20.1c0,0,4.2,2.8-9.3,6.1l10.3,10.3
		c0,0-33.2,19.6-71.5,14L185.7,158.5z"/>
	<path class="st7" d="M39,196.4c0,0,46.6,57,122.3,27.6l-32-17.8l-31-63.5c-11.9,12.9-23.2,20.2-31.6,24.6
		c-11.7,6-24.9,10.1-27.7,20.8C38.2,191.4,38.5,194.4,39,196.4z"/>
	<path class="st8" d="M90.4,49.6c0,0,20.6,17.3,18.7,26.2c-1.9,8.9-30.8,28-30.8,28s-3.3,9.3-2.3,13.1c0.9,3.7-4.7,6.1,22,25.7
		c0,0,15.9,53.3,27.1,55.6l15.4,8.9c0,0,33.6,14.5,36-4.7s10.7-37.8,10.7-37.8l-5.6-17.8l2.3,0.5l-6.1-10.7l7.5,0.5
		c0,0-34.6-35-52.3-32.2c0,0-12.1-13.1-12.6-29.4c-0.5-16.4-5.6-23.8-5.6-23.8L90.4,49.6z"/>
	<path class="st7" d="M34.8,53.5c0,0,9-30.4,14.4-32.3l-0.6,8.5c0,0,7.8-15.7,13.8-15.2c0,0-3.6,10.4,0,13.3c0,0-21.6,17.6-24,26.1
		L34.8,53.5z"/>
	<path class="st8" d="M44.6,54.6h-7c0,0,17.8-39.3,56.1-52.7l-8.9,18.2c0,0,15.9-5.7,20.6-5.7l-7,9.1l5.1-1c0,0-7.5,9.1-9.8,9.6
		l7,1.4C100.7,33.6,71.2,36,44.6,54.6z"/>
	<path class="st9" d="M36.4,97.4c0.5,3.1,0.8,7.7-0.4,13c-1.7,7.9-5.4,11.6-9.2,17.8c-0.5,0.8-9,15-9.7,32c-0.2,5.3,0.2,14.2,4.6,25
		c0.8-5.3,1.6-10.6,2.3-15.9c0,0,0.5,19.2,4.2,22.4c0,0,7.9,4.7,10.7,4.7l0.5-4.2l2.3,3.7c0,0,4.2,3.3,5.6,1.4c0,0-3.3-9.8-1.4-11.2
		c0,0,5.1,12.1,6.5,13.1l2.3,0.5l-1.4-8.4c0,0-0.9,3.7,5.6,7.9s16.4-0.5,16.4-0.5s-1.9-7.5-2.8-10.7c0,0,6.1,8.9,9.3,8.9l1.9-3.3
		l1.9,2.8c0,0,3.3-13.6,1.4-19.2l4.2,7c0,0,5.6-16.4,2.3-24.3l-1.4-5.6l5.6-11.7c0,0-23.4-15.9-22-25.7c0,0,5.1-33.6,11.7-36.9
		c0,0-21-18.7-33.2-22c0,0-5.1-3.3-2.3-4.2l-4.7,0.9c0,0,15,29-0.9,43c-1.7,0.1-3.5,0.1-5.5,0C39.4,97.7,37.8,97.6,36.4,97.4z"/>
	<path class="st9" d="M114.2,31.9l-7,5.8c0,0,17.3,5.3,16.8,8.3h-3.7c0,0,10.3,6.8,10.3,9.2c0,0-52.3-11.7-78.5-0.5l-4.7,1l-2.8-1.5
		C44.6,54.3,70.3,32.9,114.2,31.9z"/>
	<path class="st9" d="M128.7,206.2c0,0,36,25.7,60.3,23.8l8.9,4.2c0,0,5.1-0.5,5.6-4.2l-2.3-7c0,0,1.9-6.5,1.4-9.8
		c0,0,0.5-15-4.2-28.5c-4.7-13.6-16.8-37.8-16.8-37.8l-5.1-2.8l8.4,16.4l-5.1-1.9l3.7,9.8l-3.3-0.5l0.5,6.1c0,0-7.5,2.3-8.4-1.9
		c0,0,1.9,8.4,0,9.3l-4.2-0.9l0.5,4.2c0,0-9.3-8.4-10.3-7l1.4,7.9l-15.4-10.7c0,0,12.1,20.6,11.2,22.9l-4.2-1.9l2.3,5.6l-4.7,0.9
		l0.9,2.8L138,202l2.3,5.1l-15.4-8.9L128.7,206.2z"/>
	<path class="st3" d="M49,55.7c0,0-2.4-4.2-13.2-2.8s-21,2.3-23.5,14L26,70.7c0,0,9.8,9.3,7.8,14l-6.4,10.7c0,0,2.9,2.8,10.7,3.7
		c7.8,0.9,0,0,0,0s17.6,5.1,17.6-21s0,0,0,0S53.9,62.3,49,55.7"/>
	<path class="st10" d="M16.1,68c3.2,0.9,6.3,1.9,9.5,2.8c1.2,0.8,3,2.2,4.4,4.4c3.1,4.6,2.8,9.4,2.6,11c-0.4,1.4-1,2.9-1.8,4.6
		s-1.6,3.3-2.5,4.6c0,0,18.6-4.2,24.5-13.3c0,0-20-16.1-22.4-15.1S15.7,65.9,16.1,68z"/>
	<path class="st11" d="M33.6,94.3c0,0-0.7-16.1,11.9-18.2l7.7,5.6c-1.5,1.9-3.5,4.2-6.3,6.3C41.9,91.8,36.8,93.5,33.6,94.3z"/>
</g>
</svg>
