<?xml version="1.0" encoding="utf-8"?>
<!-- Generator: Adobe Illustrator 23.0.6, SVG Export Plug-In . SVG Version: 6.00 Build 0)  -->
<svg version="1.1" id="Layer_1" xmlns="http://www.w3.org/2000/svg" xmlns:xlink="http://www.w3.org/1999/xlink" x="0px" y="0px"
	 viewBox="0 0 288 288" style="enable-background:new 0 0 288 288;" xml:space="preserve">
<style type="text/css">
	.st0{opacity:0.5;}
	.st1{fill:#A8535D;}
	.st2{fill:#C7AC85;}
	.st3{fill:#B9AC8C;}
	.st4{fill:#705844;}
	.st5{fill:#957452;}
	.st6{fill:#C1B292;}
	.st7{fill:#BEA1AA;}
	.st8{fill:#F2EAB9;}
	.st9{fill:#ECD9E4;}
	.st10{fill:#D6D9E1;}
	.st11{fill:#FFFFFF;}
	.st12{fill:#C5A57C;}
	.st13{fill:#3A3736;}
	.st14{fill:#D38C79;}
</style>
<g class="st0">
	<path d="M133.1,206.5c0,0,34.8,14.9,43.8,44.2l-9.5-1.4l2.7,8.1c0,0-36.6-24.4-38.8-42.4L133.1,206.5z"/>
	<path d="M115.5,211c0,0,3.2,57.8,20.3,68.2V272l8.6,6.8l1.4-12.2l-22.1-57.8l-4.1-0.9v5.9L115.5,211z"/>
	<path d="M108.7,211c0,0-16.7,42.4-5.4,54.2l1.8-7.7c0,0,2.7,11.7,4.1,10.8s4.5-9.5,4.5-9.5l-1.4-44.2L108.7,211z"/>
	<path d="M116.9,80.6c0,0,17.7,10.4,24.9,19.3l6.7-10.9C148.5,89,137.9,79.6,116.9,80.6z"/>
	<path d="M112.3,214.6l3.2-3.6c0,0,3.6,45.1,12.2,57.3l-1.4,4.1l-5.4-6.3l-0.9,6.3l-6.3-13.5C113.7,258.9,111,216.4,112.3,214.6z"/>
	<path d="M131.3,215.1c0,0,28,32.1,29.3,52.4l-9.5-4.1l-0.9,9.5c0,0-26.6-33.9-23-55.1L131.3,215.1z"/>
	<path d="M37.4,12.4c0,0-11.2,1.4-0.9,30.3c0,0-9.8-16.1-11.2-10.1c-1.4,6-0.5,16.5-0.5,16.5l6,11.5c0,0-12.6-14.7-7.4,5
		s16.3,22.5,16.3,22.5l2.3,4.6L28.1,82.1c0,0-7.9,3.2,5.1,17.4c0,0,6.5,7.3,13,9.2c0,0-13.5-0.9-3.7,9.6c0,0,9.8,5,12.1,5.5
		l-4.6,1.8c0,0-2.8,7.8,7.4,8.3c0,0-8.8,3.7,3.7,8.3l4.6-0.5c0,0-1.9,5.5,3.3,5c5.1-0.5,3.7-0.5,3.7-0.5s2.8,2.8,4.2,2.8
		c1.4,0-1.4,0-1.4,0l8.8-20.2l-2.8-9.2L70.9,100l-0.5-20.2l-5.1-19.3C65.3,60.6,37.9,23.9,37.4,12.4z"/>
	<path d="M37,12.4c0,0,3.2-2.3,7.2,9.9s17.2,29.3,17.2,29.3l5,5.9l8,22.6L69,78.7l-5-19C64,59.8,36.5,24.6,37,12.4z"/>
	<polygon points="71.7,90.9 75.3,75.2 81.2,74.7 	"/>
	<path d="M138.5,156.8c0,0,5.9,26.2-5.9,42.9l-3.6-29.8c0,0-0.3-23.3,1.4-20.8C131.3,150.5,138.5,156.8,138.5,156.8z"/>
	<path d="M71.3,171.7c0,0-13.1,8.6-9,24.4l-1.4,2.3c0,0,7.2,0,8.1,6.3c0,0,2.3,0,3.2,2.3v-4.5c0,0,13.5,2.7,16.3-1.4L71.3,171.7z"/>
	<path d="M60.9,198.4c0,0-10.8,3.2-12.6,2.3l-2.7-8.1c0,0-1.8-1.8-3.6-2.3s-5.9-3.6-5.9-3.6l-9.5,4.5l-0.5,2.3l0.5,1.8h-3.2
		l-5.4,5.9l1.8,5l4.1,0.5l4.5-2.7v-5.4l4.5-0.9l5-0.9c0,0,3.6,4.5,1.8,5.4s-5-2.7-5-2.7l-4.5-3.2l-4.5,2.7l8.1,8.1l6.8,7.7
		c0,0,2.3,1.4,6.3,3.2c4.1,1.8,3.6,3.6,3.6,3.6s-3.2,2.7-1.4,4.5s6.3,5,6.3,5s5.4-5,5.4-9c0,0-3.6-3.6-5-5.9s-1.4-6.8-1.4-6.8
		s5.4-5,10.4-2.3c0,0,3.6-1.8,4.1-2.3C69.5,204.2,67.6,197.9,60.9,198.4z"/>
	<path d="M80.7,120.7c0.3,0.6,0.6,1.2,0.8,1.8c1.8,5.4-1,10.8-0.8,10.8c0.1,0,0.6-1,2.3-5c3.5,0,6.9,0,10.4,0c0,0,7.7-6.3,7.7-9.5
		s0.9-15.3,0.9-15.3l-8.1-3.2l-8.6-1.8l-7.2,9.5L80.7,120.7z"/>
	<path d="M81.6,132.5c0,0-14.4,23.5-9,46c5.4,22.6,30.2,28.9,30.2,28.9l5.4,1.4l-2.7,3.6l3.2-1.4l3.6,3.6l3.2-3.6l4.1,2.7v-5.9
		l4.1,0.9l5.9-21.2l-0.5-17.6l1.4-20.8l3.6,6.3c0,0,6.8,2.7,8.1,0c0,0,5.9,1.8,8.1-0.5s2.3-2.3,2.3-2.3l-1.8-3.6
		c0,0,5.9,3.2,12.6,1.4s1.4-5,1.4-5l-7.2-6.3c0,0,12.6,5,18.5,0.5s-0.5-6.8-0.5-6.8l-9.9-3.6c0,0,19.4,5,28.4-1.8
		c9-6.8-9.5-8.1-9.5-8.1s22.6,0,27.5-9.5c5-9.5-5.4-7.7-5.4-7.7h-9.5c0,0,37-12.6,39.3-20.3s-3.6-6.3-3.6-6.3l-27.1,6.8
		c0,0,37.5-12.6,39.3-22.1s-4.5-5.9-4.5-5.9L223,58.8c0,0,22.6-11.7,26.6-22.6C253.7,25.4,218,43,218,43s32.5-16.7,27.5-23.5
		s-42.9,15.8-42.9,15.8S168.3,53,161.1,67c0,0-16.7,44.7-35.7,55.5c0,0-5.9,26.2-13.1,23.5C112.3,146,92.5,127,81.6,132.5z"/>
	<path d="M122.3,185.7l-0.5-5.4c0,0-1.4-9.5-7.2-7.2c-5.9,2.3-4.1,8.1-4.1,8.1l4.1,3.6c0,0,2.3,8.6,2.3,12.2s6.8,11.7,6.8,11.7
		s-1.8,7.7,1.8,10.4c3.6,2.7,5.9-4.1,5.9-4.1s1.8-11.3,1.4-15.3c-0.5-4.1,1.4-19.9,1.4-19.9s5-9-2.7-11.3s-5.9,9.5-5.9,9.5l0.5,8.1
		L122.3,185.7z"/>
	<path d="M74,108.1c0,0-8.1,8.1-1.4,14l2.7-2.7c0,0,5.4,4.1,7.7,0s2.3-4.1,2.3-4.1V113C85.3,113,77.1,107.2,74,108.1z"/>
	<path d="M21.2,201.5c0,0-5.9,4.1-0.5,9.9l3.2-5C23.9,206.5,23.9,200.6,21.2,201.5z"/>
	<path d="M28.8,193.4c0,0-6.3,1.8-0.5,10.4c0,0,2.7-9,4.5-6.3C32.9,197.5,32,191.1,28.8,193.4z"/>
	<path d="M50.9,225c0,0-4.1,2.7-6.3,2.3c0,0,0.5,4.5,10.8,3.6C55.5,230.9,56.4,224.1,50.9,225z"/>
	<path d="M129.5,215.5c0,0-4.1-3.2-4.5,0c-0.5,3.2,5,8.6,5,8.6S132.7,219.6,129.5,215.5z"/>
	<path d="M117.8,177.6c0,0-6.8-1.8-5,2.7s4.1,4.5,4.1,4.5S120,182.1,117.8,177.6z"/>
	<path d="M130.4,173.1c0,0-5.4,2.7-0.9,9.5C129.5,182.6,139,178,130.4,173.1z"/>
	<path d="M82.1,127.5c-0.3,1.7-0.6,3.3-0.9,5c3.7,1.1,7.7,2.4,11.9,4.1c7.4,2.9,13.8,6.3,19.2,9.5c0,0,10.4,3.2,13.1-23.5
		c0,0,33.9-19.4,35.7-55.5c0,0,21.2-27.5,80.4-49.2c0,0-65,11.3-85.8,46.9c0,0-10.4,45.1-30.2,49.7c0,0-5.4-28.4-13.1-29.8
		c0,0-17.6,1.4-19,5l0.9,5l11.7,4.5c0,0-2.3,17.2-5.4,20.3l-7.7,9.5C89.3,128.4,85.7,127.9,82.1,127.5z"/>
	<path d="M93.4,89.6l-8.6,9.5l16.7,5l-0.9,15.3c0,0,6.8-17.2,5.4-20.3l-11.7-4.5L93.4,89.6z"/>
	<path d="M74,108.1L60.9,104c0,0,0.9-19,0.5-20.8c-0.5-1.8,9.5-4.5,9.5-4.5l5.8-12.6l-4.5,23.5c0,0,10.4-23.5,18.5-23.9
		s20.8,2.3,20.8,2.3s3.6-1.8,9.5,2.3s12.6,8.6,12.6,8.6s15.8,8.6,14.9,11.3c0,0-17.6-9.9-29.8-7.7c0,0-24.4,5.9-25.3,7.2
		c-0.9,1.4-8.6,9.5-8.6,9.5l-7.2,9.5C76.4,108.4,75.2,108.2,74,108.1z"/>
</g>
<g>
	<path class="st1" d="M128,201.4c0,0,34.8,14.9,43.8,44.2l-9.5-1.4l2.7,8.1c0,0-36.6-24.4-38.8-42.4L128,201.4z"/>
	<path class="st1" d="M110.4,205.9c0,0,3.2,57.8,20.3,68.2v-7.2l8.6,6.8l1.4-12.2l-22.1-57.8l-4.1-0.9v5.9L110.4,205.9z"/>
	<path class="st1" d="M103.6,205.9c0,0-16.7,42.4-5.4,54.2l1.8-7.7c0,0,2.7,11.7,4.1,10.8s4.5-9.5,4.5-9.5l-1.4-44.2L103.6,205.9z"
		/>
	<path class="st1" d="M111.8,75.5c0,0,17.7,10.4,24.9,19.3l6.7-10.9C143.4,83.9,132.8,74.5,111.8,75.5z"/>
	<path class="st2" d="M107.2,209.5l3.2-3.6c0,0,3.6,45.1,12.2,57.3l-1.4,4.1l-5.4-6.3l-0.9,6.3l-6.3-13.5
		C108.6,253.8,105.9,211.3,107.2,209.5z"/>
	<path class="st2" d="M126.2,210c0,0,28,32.1,29.3,52.4l-9.5-4.1l-0.9,9.5c0,0-26.6-33.9-23-55.1L126.2,210z"/>
	<path class="st3" d="M32.3,7.3c0,0-11.2,1.4-0.9,30.3c0,0-9.8-16.1-11.2-10.1c-1.4,6-0.5,16.5-0.5,16.5l6,11.5c0,0-12.6-14.7-7.4,5
		S34.6,83,34.6,83l2.3,4.6L23,77c0,0-7.9,3.2,5.1,17.4c0,0,6.5,7.3,13,9.2c0,0-13.5-0.9-3.7,9.6c0,0,9.8,5,12.1,5.5l-4.6,1.8
		c0,0-2.8,7.8,7.4,8.3c0,0-8.8,3.7,3.7,8.3l4.6-0.5c0,0-1.9,5.5,3.3,5c5.1-0.5,3.7-0.5,3.7-0.5s2.8,2.8,4.2,2.8c1.4,0-1.4,0-1.4,0
		l8.8-20.2l-2.8-9.2L65.8,94.9l-0.5-20.2l-5.1-19.3C60.2,55.5,32.8,18.8,32.3,7.3z"/>
	<path class="st4" d="M31.9,7.3c0,0,3.2-2.3,7.2,9.9s17.2,29.3,17.2,29.3l5,5.9l8,22.6l-5.4-1.4l-5-19C58.9,54.7,31.4,19.5,31.9,7.3
		z"/>
	<polygon class="st1" points="66.6,85.8 70.2,70.1 76.1,69.6 	"/>
	<path class="st5" d="M133.4,151.7c0,0,5.9,26.2-5.9,42.9l-3.6-29.8c0,0-0.3-23.3,1.4-20.8C126.2,145.4,133.4,151.7,133.4,151.7z"/>
	<path class="st6" d="M66.2,166.6c0,0-13.1,8.6-9,24.4l-1.4,2.3c0,0,7.2,0,8.1,6.3c0,0,2.3,0,3.2,2.3v-4.5c0,0,13.5,2.7,16.3-1.4
		L66.2,166.6z"/>
	<path class="st7" d="M55.8,193.3c0,0-10.8,3.2-12.6,2.3l-2.7-8.1c0,0-1.8-1.8-3.6-2.3s-5.9-3.6-5.9-3.6l-9.5,4.5l-0.5,2.3l0.5,1.8
		h-3.2l-5.4,5.9l1.8,5l4.1,0.5l4.5-2.7v-5.4l4.5-0.9l5-0.9c0,0,3.6,4.5,1.8,5.4s-5-2.7-5-2.7l-4.5-3.2l-4.5,2.7l8.1,8.1l6.8,7.7
		c0,0,2.3,1.4,6.3,3.2c4.1,1.8,3.6,3.6,3.6,3.6s-3.2,2.7-1.4,4.5s6.3,5,6.3,5s5.4-5,5.4-9c0,0-3.6-3.6-5-5.9s-1.4-6.8-1.4-6.8
		s5.4-5,10.4-2.3c0,0,3.6-1.8,4.1-2.3C64.4,199.1,62.5,192.8,55.8,193.3z"/>
	<path class="st8" d="M75.6,115.6c0.3,0.6,0.6,1.2,0.8,1.8c1.8,5.4-1,10.8-0.8,10.8c0.1,0,0.6-1,2.3-5c3.5,0,6.9,0,10.4,0
		c0,0,7.7-6.3,7.7-9.5s0.9-15.3,0.9-15.3l-8.1-3.2l-8.6-1.8l-7.2,9.5L75.6,115.6z"/>
	<path class="st8" d="M76.5,127.4c0,0-14.4,23.5-9,46c5.4,22.6,30.2,28.9,30.2,28.9l5.4,1.4l-2.7,3.6l3.2-1.4l3.6,3.6l3.2-3.6
		l4.1,2.7v-5.9l4.1,0.9l5.9-21.2l-0.5-17.6l1.4-20.8l3.6,6.3c0,0,6.8,2.7,8.1,0c0,0,5.9,1.8,8.1-0.5s2.3-2.3,2.3-2.3l-1.8-3.6
		c0,0,5.9,3.2,12.6,1.4s1.4-5,1.4-5l-7.2-6.3c0,0,12.6,5,18.5,0.5s-0.5-6.8-0.5-6.8l-9.9-3.6c0,0,19.4,5,28.4-1.8
		c9-6.8-9.5-8.1-9.5-8.1s22.6,0,27.5-9.5c5-9.5-5.4-7.7-5.4-7.7h-9.5c0,0,37-12.6,39.3-20.3s-3.6-6.3-3.6-6.3l-27.1,6.8
		c0,0,37.5-12.6,39.3-22.1s-4.5-5.9-4.5-5.9l-17.6,4.5c0,0,22.6-11.7,26.6-22.6c4.1-10.8-31.6,6.8-31.6,6.8s32.5-16.7,27.5-23.5
		s-42.9,15.8-42.9,15.8S163.2,47.9,156,61.9c0,0-16.7,44.7-35.7,55.5c0,0-5.9,26.2-13.1,23.5C107.2,140.9,87.4,121.9,76.5,127.4z"/>
	<path class="st9" d="M117.2,180.6l-0.5-5.4c0,0-1.4-9.5-7.2-7.2c-5.9,2.3-4.1,8.1-4.1,8.1l4.1,3.6c0,0,2.3,8.6,2.3,12.2
		s6.8,11.7,6.8,11.7s-1.8,7.7,1.8,10.4c3.6,2.7,5.9-4.1,5.9-4.1s1.8-11.3,1.4-15.3c-0.5-4.1,1.4-19.9,1.4-19.9s5-9-2.7-11.3
		s-5.9,9.5-5.9,9.5l0.5,8.1L117.2,180.6z"/>
	<path class="st9" d="M68.9,103c0,0-8.1,8.1-1.4,14l2.7-2.7c0,0,5.4,4.1,7.7,0s2.3-4.1,2.3-4.1v-2.3C80.2,107.9,72,102.1,68.9,103z"
		/>
	<path class="st10" d="M16.1,196.4c0,0-5.9,4.1-0.5,9.9l3.2-5C18.8,201.4,18.8,195.5,16.1,196.4z"/>
	<path class="st10" d="M23.7,188.3c0,0-6.3,1.8-0.5,10.4c0,0,2.7-9,4.5-6.3C27.8,192.4,26.9,186,23.7,188.3z"/>
	<path class="st10" d="M45.8,219.9c0,0-4.1,2.7-6.3,2.3c0,0,0.5,4.5,10.8,3.6C50.4,225.8,51.3,219,45.8,219.9z"/>
	<path class="st11" d="M124.4,210.4c0,0-4.1-3.2-4.5,0c-0.5,3.2,5,8.6,5,8.6S127.6,214.5,124.4,210.4z"/>
	<path class="st11" d="M112.7,172.5c0,0-6.8-1.8-5,2.7s4.1,4.5,4.1,4.5S114.9,177,112.7,172.5z"/>
	<path class="st11" d="M125.3,168c0,0-5.4,2.7-0.9,9.5C124.4,177.5,133.9,172.9,125.3,168z"/>
	<path class="st12" d="M77,122.4c-0.3,1.7-0.6,3.3-0.9,5c3.7,1.1,7.7,2.4,11.9,4.1c7.4,2.9,13.8,6.3,19.2,9.5
		c0,0,10.4,3.2,13.1-23.5c0,0,33.9-19.4,35.7-55.5c0,0,21.2-27.5,80.4-49.2c0,0-65,11.3-85.8,46.9c0,0-10.4,45.1-30.2,49.7
		c0,0-5.4-28.4-13.1-29.8c0,0-17.6,1.4-19,5l0.9,5l11.7,4.5c0,0-2.3,17.2-5.4,20.3l-7.7,9.5C84.2,123.3,80.6,122.8,77,122.4z"/>
	<path class="st13" d="M88.3,84.5L79.7,94l16.7,5l-0.9,15.3c0,0,6.8-17.2,5.4-20.3l-11.7-4.5L88.3,84.5z"/>
	<path class="st14" d="M68.9,103l-13.1-4.1c0,0,0.9-19,0.5-20.8c-0.5-1.8,9.5-4.5,9.5-4.5L71.6,61l-4.5,23.5
		c0,0,10.4-23.5,18.5-23.9s20.8,2.3,20.8,2.3s3.6-1.8,9.5,2.3s12.6,8.6,12.6,8.6s15.8,8.6,14.9,11.3c0,0-17.6-9.9-29.8-7.7
		c0,0-24.4,5.9-25.3,7.2c-0.9,1.4-8.6,9.5-8.6,9.5l-7.2,9.5C71.3,103.3,70.1,103.1,68.9,103z"/>
</g>
</svg>
