<?xml version="1.0" encoding="utf-8"?>
<!-- Generator: Adobe Illustrator 23.0.6, SVG Export Plug-In . SVG Version: 6.00 Build 0)  -->
<svg version="1.1" id="Layer_1" xmlns="http://www.w3.org/2000/svg" xmlns:xlink="http://www.w3.org/1999/xlink" x="0px" y="0px"
	 viewBox="0 0 288 288" style="enable-background:new 0 0 288 288;" xml:space="preserve">
<style type="text/css">
	.st0{opacity:0.5;}
	.st1{fill:#FFFFFF;}
	.st2{fill:#AB8E91;}
	.st3{fill:#6E5C4B;}
	.st4{fill:#9A937F;}
	.st5{fill:#E4775C;}
	.st6{fill:#ECE1BD;}
	.st7{fill:#F1C885;}
	.st8{fill:#B29264;}
	.st9{fill:#D7745C;}
	.st10{fill:#E8C2CD;}
</style>
<g class="st0">
	<polygon points="192,248.1 186.8,246.2 190.6,244.8 	"/>
	<path d="M214.7,232.5c0,0-0.9,9,0.5,11.3c1.4,2.4-5.2,4.7-5.2,4.7l-5.2,2.4l-5.2-1.9c0,0-7.1,0.5-7.6-0.9s-1.4-3.3-1.4-3.3
		L214.7,232.5z"/>
	<path d="M201.9,135.1c0,0-9.5-9-7.1-23.2l6.6-11.8l-1.9-3.8c0,0,1.9-4.7,3.8-4.7l-0.5-5.7l4.3-10.9l1.4,1.9v-4.7
		c0,0,1.4-10.9,4.3-9.5c2.8,1.4,7.1,19.9,7.1,19.9s-2.8,14.2-0.9,19.9c-0.3,5.4-0.6,10.7-0.9,16.1
		C212.6,124.1,207.3,129.6,201.9,135.1z"/>
	<path d="M195.8,101.6l-1.4-6.1c0,0-0.5-5.2,2.4-4.7c0,0-3.3-17.5,0.9-19.9l-3.3-25.5c0,0,2.4-9.9,8-10.4c0,0-0.9-29.8,5.7-23.6
		s8.5,21.3,8.5,21.3s10.4,42.1,3.3,50.1c0,0-5.2-21.3-7.1-19.9c-1.9,1.4-4.3,14.2-4.3,14.2l-1.4-1.9l-4.3,10.9l0.5,5.7l-3.8,4.7
		l1.9,3.8L195.8,101.6z"/>
	<path d="M74.3,108.6c0,0-18,5.7-18.9,11.8c0,0,20.3-9,26.9-7.1L74.3,108.6z"/>
	<path d="M141.4,235.8c0,0-47.3,8-79.9,33.6c0,0,7.1,9.9,19.4,9.9c0,0,9.9,10.4,22.7,9.5l22.2-17.5l-14.7,17c0,0,2.4,2.8,18.4,0.9
		l3.3-0.9c0,0,9.9,1.9,15.6-0.9l11.8-37.3l-5.2,2.4l-1.4-4.3l-6.6,5.2l1.4-5.7l-2.8,1.4l2.4-3.8L141.4,235.8z"/>
	<path d="M148,245.3c0,0-11.8-8,10.4-27.9c0,0,5.7-35.5,11.8-38.8l-6.6-2.4l3.3-5.7l-8.5,5.2l-7.6-6.6l6.1-3.3l-11.3,0.5
		c0,0-11.8-4.7-10.4-7.6c1.4-2.8,9.9-2.4,9.9-2.4l-14.2-1.4c0,0-9.9-5.2-7.1-7.1c2.8-1.9,6.6-2.4,6.6-2.4s-17,1.4-21.3-9.5l5.2-1.9
		c0,0-23.2-2.4-27.9-14.2l10.4-2.4l-14.7-4.3c0,0-24.1-11.8-19.9-16.5h10.9c0,0-38.8-13.7-37.8-26.5c0,0,6.6-1.9,14.2,0.5
		c0,0-30.7-14.7-29.3-25.1H32c0,0-28.8-17-21.7-21.3s26,0,26,0L81.2,36l5.2,3.8l-7.1-0.9l1.4,3.8c0,0,41.6,14.7,48.7,33.1
		c7.1,18.4,13.2,31.2,13.2,31.2s21.3,19.4,35.9,29.8S195,160,195,160s-0.9,2.4,7.6,4.3c8.5,1.9,24.6,0,24.6,0l6.6-8l-7.6-21.3
		c0,0,3.8-9.5,14.7-9.9c10.9-0.5,15.1-0.9,15.1-0.9l9.5,4.3l-5.2,20.8c0,0-18.9,20.3-20.8,43c-1.9,22.7-25.1,40.2-25.1,40.2
		s-26,19.9-54.4,17.5l-5.2,2.4l-1.4-4.3l-6.6,5.2l1.4-5.7l-2.8,1.4L148,245.3z"/>
	<path d="M141.9,82.2c0,0,42.1,17.5,52.9,17.5c10.9,0,33.1-1.9,33.1-1.9s10.4-0.5,23.2,4.7c12.8,5.2,15.6,12.3,15.6,12.3l2.8,5.2
		l-3.3,6.6h-4.7c0,0-3.3-17-16.1-18.4s-39.2-2.4-39.2-2.4l-36.9,4.3L149,98.7L141.9,82.2z"/>
	<path d="M81.4,36.3c36.9,7.7,49.5,19.8,53.9,29.8c0.9,2,3.7,9,9,21.3c2,4.5,5.6,12.7,11.3,21.3c1.5,2.2,2.8,4,4.3,5.7
		c2.8,3.2,6.3,6.6,10.5,9.9c8.9,7.1,17.8,11.3,24.5,13.7c0,0,18.9-13.7,22.2-22.2l7.1-4.3l8.5,3.3c0,0-16.5,14.7-15.6,18.4
		c1,2.9,2.6,6.5,5.1,10.3c4,5.9,8.7,9.7,11.9,11.9c-2.2,3-4.4,6-6.6,9c0,0-26.5,0.5-28.8,2.4l-2.4-3.3c0,0-8.5-23.6-26-31.7
		c-17.5-8-31.2-27.4-31.2-27.4S129.2,55.7,81,42.9l-1.4-3.8l7.1,0.9L81.4,36.3z"/>
	<path d="M154.7,108.6c0,0,26.5,0,39.2-2.8c12.8-2.8,35.5-0.9,35.5-0.9c13.5-1,25.4,3.7,30.3,12.8c1.1,2,2.2,4.9,2.4,9
		c0,0-25.1-14.2-44.9-10.9s-53.9,2.4-53.9,2.4L154.7,108.6z"/>
	<path d="M155.6,173.4c0,0-22.7,48.7-10.9,67.6c0,0-0.9-11.8,13.7-23.6c0,0,3.3-30.7,11.8-38.8l-6.6-2.4l3.3-5.7l-8.5,5.2
		L155.6,173.4z"/>
	<path d="M232.7,114.8l5.7,1.9l15.6,5.7l2.4,1.9l-15.1,0.9c0,0-15.1,5.7-14.7,9.9l7.6,21.3c0,0-19.4-14.7-17-23.2
		C217.1,133.2,223.2,116.7,232.7,114.8z"/>
	<polygon points="269.5,120 272.4,123.8 268.1,128.5 266.2,126.6 	"/>
	<path d="M250.6,139.4c0,0,6.6-11.8,11.3-12.8c4.7-0.9,6.1,1.9,6.1,1.9l7.1,2.4c0,0,3.8,9.9-0.5,12.8c0,0-2.4-4.7-3.8-3.3
		c0,0-7.6,12.3-10.4,9C257.7,146,250.6,139.4,250.6,139.4z"/>
	<polygon points="154.2,238.2 150.9,240.5 154.2,241.5 	"/>
	<path d="M167.4,218.8l1.4,2.8l4.7-3.8l0.5,5.2l1.9-2.8l1.9,8l4.3-7.6c0,0,0.9,4.7,0,9.5c0,0,3.3,9-0.5,10.9s-5.2,2.4-5.2,2.4
		s-11.8,3.3-15.1,0.5c0,0-9.9-2.4-7.1-5.7c2.8-3.3,5.7-5.2,5.7-5.2S165.1,217.8,167.4,218.8z"/>
</g>
<g>
	<polygon class="st1" points="187,243 181.8,241.1 185.6,239.7 	"/>
	<path class="st2" d="M209.7,227.4c0,0-0.9,9,0.5,11.3c1.4,2.4-5.2,4.7-5.2,4.7l-5.2,2.4l-5.2-1.9c0,0-7.1,0.5-7.6-0.9
		s-1.4-3.3-1.4-3.3L209.7,227.4z"/>
	<path class="st3" d="M196.9,130c0,0-9.5-9-7.1-23.2l6.6-11.8l-1.9-3.8c0,0,1.9-4.7,3.8-4.7l-0.5-5.7l4.3-10.9l1.4,1.9v-4.7
		c0,0,1.4-10.9,4.3-9.5c2.8,1.4,7.1,19.9,7.1,19.9s-2.8,14.2-0.9,19.9c-0.3,5.4-0.6,10.7-0.9,16.1C207.6,119,202.3,124.5,196.9,130z
		"/>
	<path class="st4" d="M190.8,96.5l-1.4-6.1c0,0-0.5-5.2,2.4-4.7c0,0-3.3-17.5,0.9-19.9l-3.3-25.5c0,0,2.4-9.9,8-10.4
		c0,0-0.9-29.8,5.7-23.6s8.5,21.3,8.5,21.3s10.4,42.1,3.3,50.1c0,0-5.2-21.3-7.1-19.9c-1.9,1.4-4.3,14.2-4.3,14.2l-1.4-1.9L197.8,81
		l0.5,5.7l-3.8,4.7l1.9,3.8L190.8,96.5z"/>
	<path class="st5" d="M69.3,103.5c0,0-18,5.7-18.9,11.8c0,0,20.3-9,26.9-7.1L69.3,103.5z"/>
	<path class="st5" d="M136.4,230.7c0,0-47.3,8-79.9,33.6c0,0,7.1,9.9,19.4,9.9c0,0,9.9,10.4,22.7,9.5l22.2-17.5l-14.7,17
		c0,0,2.4,2.8,18.4,0.9l3.3-0.9c0,0,9.9,1.9,15.6-0.9l11.8-37.3l-5.2,2.4l-1.4-4.3l-6.6,5.2l1.4-5.7l-2.8,1.4l2.4-3.8L136.4,230.7z"
		/>
	<path class="st6" d="M143,240.2c0,0-11.8-8,10.4-27.9c0,0,5.7-35.5,11.8-38.8l-6.6-2.4l3.3-5.7l-8.5,5.2l-7.6-6.6l6.1-3.3
		l-11.3,0.5c0,0-11.8-4.7-10.4-7.6c1.4-2.8,9.9-2.4,9.9-2.4l-14.2-1.4c0,0-9.9-5.2-7.1-7.1c2.8-1.9,6.6-2.4,6.6-2.4
		s-17,1.4-21.3-9.5l5.2-1.9c0,0-23.2-2.4-27.9-14.2l10.4-2.4L77.1,108c0,0-24.1-11.8-19.9-16.5h10.9c0,0-38.8-13.7-37.8-26.5
		c0,0,6.6-1.9,14.2,0.5c0,0-30.7-14.7-29.3-25.1H27c0,0-28.8-17-21.7-21.3s26,0,26,0l44.9,11.8l5.2,3.8l-7.1-0.9l1.4,3.8
		c0,0,41.6,14.7,48.7,33.1c7.1,18.4,13.2,31.2,13.2,31.2s21.3,19.4,35.9,29.8s16.5,23.2,16.5,23.2s-0.9,2.4,7.6,4.3
		c8.5,1.9,24.6,0,24.6,0l6.6-8l-7.6-21.3c0,0,3.8-9.5,14.7-9.9c10.9-0.5,15.1-0.9,15.1-0.9l9.5,4.3l-5.2,20.8c0,0-18.9,20.3-20.8,43
		c-1.9,22.7-25.1,40.2-25.1,40.2s-26,19.9-54.4,17.5l-5.2,2.4l-1.4-4.3l-6.6,5.2l1.4-5.7l-2.8,1.4L143,240.2z"/>
	<path class="st7" d="M136.9,77.1c0,0,42.1,17.5,52.9,17.5c10.9,0,33.1-1.9,33.1-1.9s10.4-0.5,23.2,4.7s15.6,12.3,15.6,12.3l2.8,5.2
		l-3.3,6.6h-4.7c0,0-3.3-17-16.1-18.4s-39.2-2.4-39.2-2.4l-36.9,4.3L144,93.6L136.9,77.1z"/>
	<path class="st8" d="M76.4,31.2c36.9,7.7,49.5,19.8,53.9,29.8c0.9,2,3.7,9,9,21.3c2,4.5,5.6,12.7,11.3,21.3c1.5,2.2,2.8,4,4.3,5.7
		c2.8,3.2,6.3,6.6,10.5,9.9c8.9,7.1,17.8,11.3,24.5,13.7c0,0,18.9-13.7,22.2-22.2l7.1-4.3l8.5,3.3c0,0-16.5,14.7-15.6,18.4
		c1,2.9,2.6,6.5,5.1,10.3c4,5.9,8.7,9.7,11.9,11.9c-2.2,3-4.4,6-6.6,9c0,0-26.5,0.5-28.8,2.4l-2.4-3.3c0,0-8.5-23.6-26-31.7
		c-17.5-8-31.2-27.4-31.2-27.4S124.2,50.6,76,37.8L74.6,34l7.1,0.9L76.4,31.2z"/>
	<path class="st9" d="M149.7,103.5c0,0,26.5,0,39.2-2.8c12.8-2.8,35.5-0.9,35.5-0.9c13.5-1,25.4,3.7,30.3,12.8c1.1,2,2.2,4.9,2.4,9
		c0,0-25.1-14.2-44.9-10.9s-53.9,2.4-53.9,2.4L149.7,103.5z"/>
	<path class="st8" d="M150.6,168.3c0,0-22.7,48.7-10.9,67.6c0,0-0.9-11.8,13.7-23.6c0,0,3.3-30.7,11.8-38.8l-6.6-2.4l3.3-5.7
		l-8.5,5.2L150.6,168.3z"/>
	<path d="M227.7,109.7l5.7,1.9l15.6,5.7l2.4,1.9l-15.1,0.9c0,0-15.1,5.7-14.7,9.9l7.6,21.3c0,0-19.4-14.7-17-23.2
		C212.1,128.1,218.2,111.6,227.7,109.7z"/>
	<polygon class="st9" points="264.5,114.9 267.4,118.7 263.1,123.4 261.2,121.5 	"/>
	<path class="st10" d="M245.6,134.3c0,0,6.6-11.8,11.3-12.8c4.7-0.9,6.1,1.9,6.1,1.9l7.1,2.4c0,0,3.8,9.9-0.5,12.8
		c0,0-2.4-4.7-3.8-3.3c0,0-7.6,12.3-10.4,9C252.7,140.9,245.6,134.3,245.6,134.3z"/>
	<polygon class="st1" points="149.2,233.1 145.9,235.4 149.2,236.4 	"/>
	<path class="st10" d="M162.4,213.7l1.4,2.8l4.7-3.8l0.5,5.2l1.9-2.8l1.9,8l4.3-7.6c0,0,0.9,4.7,0,9.5c0,0,3.3,9-0.5,10.9
		s-5.2,2.4-5.2,2.4s-11.8,3.3-15.1,0.5c0,0-9.9-2.4-7.1-5.7c2.8-3.3,5.7-5.2,5.7-5.2S160.1,212.7,162.4,213.7z"/>
</g>
</svg>
