<?xml version="1.0" encoding="utf-8"?>
<!-- Generator: Adobe Illustrator 23.0.6, SVG Export Plug-In . SVG Version: 6.00 Build 0)  -->
<svg version="1.1" id="Layer_1" xmlns="http://www.w3.org/2000/svg" xmlns:xlink="http://www.w3.org/1999/xlink" x="0px" y="0px"
	 viewBox="0 0 288 288" style="enable-background:new 0 0 288 288;" xml:space="preserve">
<style type="text/css">
	.st0{opacity:0.5;}
	.st1{fill:#F1D488;}
	.st2{fill:#343130;}
	.st3{fill:#826444;}
	.st4{fill:#B29867;}
	.st5{fill:#DB8671;}
	.st6{fill:#7E5C62;}
	.st7{fill:#C398A6;}
</style>
<g class="st0">
	<path d="M194.7,142l-7.1-13.4c0,0,64.1-77,82.8-79.7c0,0,16.9,49,11.1,60.5L221.4,149l-13.4,8.9L194.7,142z"/>
	<path d="M44.9,65c1-5.6,2.9-13,6.7-21.1c4.8-10.1,10.8-17.4,15.3-22c1.1,1.6,2.4,4.1,3.1,7.5c0.2,0.9,0.3,2,0.4,6.1
		c0.1,2.2,0.1,5.1,0,8.7C61.9,51.1,53.4,58,44.9,65z"/>
	<polygon points="188.9,206.1 199.6,201.7 194.7,194.1 204.5,190.1 217.4,205.7 196.4,215.5 204.9,227.5 191.1,231.1 	"/>
	<path d="M94.5,264.9c0,0,1.3,12.5,5.8,12.5c0,0,2.2,1.8,4.5,2.2l1.3-3.1c0,0,4-4.9,1.3-17.8C104.7,245.8,94.5,264.9,94.5,264.9z"/>
	<path d="M172.4,262.7c0,0,2.7,14.7,8.9,15.6c0,0,2.2,2.2,5.8,2.7c3.6,0.4,0.4-5.3,0.4-5.3l2.2,1.3c0,0,2.7-18.3-2.7-20.9
		C181.8,253.3,172.4,262.7,172.4,262.7z"/>
	<polygon points="200,199.9 181.3,180.3 203.6,163.4 194.7,142 199.1,147.4 201.8,142 203.6,148.3 212.9,137.6 212,150.9 
		217.8,144.3 215.1,151.4 221.4,149.2 215.6,156.3 221.8,171.4 201.8,185.2 208,194.6 203.6,192.8 206.7,201.7 201.3,196.3 
		201.8,199.9 	"/>
	<path d="M46,96.6c0,0-4.5-28.9,0-33.4s21.4-20.5,24.5-19.1c0,0-0.4,39.6-4,41.8c0,0,29.8-5.8,49,4.9c0,0,24.5-22.7,63.2-28.5
		c0,0-5.8,26.7-14.7,33.4c0,0-26.7,9.8-29.8,9.8c0,0,19.1,40.5,18.7,44.5s29.8,45.9,29.8,45.9s20.9,27.6,4.9,57.9
		c0,0-8,12.9-31.2,5.8c-23.2-7.1-32.9-6.2-32.9-6.2s-7.6-1.3-23.6,9.3c-16,10.7-32.9-13.4-32.5-27.6c0.4-14.2-6.2-33.8-6.2-33.8
		s-43.6-4.9-46.7-7.6l-4,0.9l0.4-4.5l-3.6-0.9l2.7-4.9l-2.2-3.6l4.5-3.1l-0.4-4.9l5.8,1.8c0,0,27.2-10.7,31.6-9.8
		c0,0-24.9-11.1-21.8-31.2S46,96.6,46,96.6z"/>
	<path d="M158.6,161.4c0,0,0,11.1,8.5,12.5L158.6,161.4z"/>
	<path d="M179.2,191.2c0,0-3.6,6.7,7.1,10.7L179.2,191.2z"/>
	<path d="M178.6,62.3c0,0-9.8,30.7-14.7,33.4c0,0,41.4-15.1,51.6-37.4C215.6,58.3,196.9,58.3,178.6,62.3z"/>
	<ellipse cx="109.4" cy="130.9" rx="11.4" ry="14.2"/>
	<path d="M28.2,129.3c0,0,14.2,11.1,8,25.8C36.2,155.2,24.6,149.4,28.2,129.3z"/>
	<path d="M53.8,129.4l2.2-1.8c0,0,13.8,1.8,19.1-3.1c0,0,4,9.8,3.6,16.4s-12,10.2-12,10.2S57.3,139.2,53.8,129.4z"/>
	<path d="M66.7,151.2c0,0,3.6-12,12-10.2C78.7,141,79.1,166.3,66.7,151.2z"/>
	<path d="M291.1,188.1"/>
</g>
<g>
	<path class="st1" d="M189.8,137l-7.1-13.4c0,0,64.1-77,82.8-79.7c0,0,16.9,49,11.1,60.5L216.5,144l-13.4,8.9L189.8,137z"/>
	<path class="st2" d="M40,60c1-5.6,2.9-13,6.7-21.1c4.8-10.1,10.8-17.4,15.3-22c1.1,1.6,2.4,4.1,3.1,7.5c0.2,0.9,0.3,2,0.4,6.1
		c0.1,2.2,0.1,5.1,0,8.7C57,46.1,48.5,53,40,60z"/>
	<polygon class="st3" points="184,201.1 194.7,196.7 189.8,189.1 199.6,185.1 212.5,200.7 191.5,210.5 200,222.5 186.2,226.1 	"/>
	<path class="st4" d="M89.6,259.9c0,0,1.3,12.5,5.8,12.5c0,0,2.2,1.8,4.5,2.2l1.3-3.1c0,0,4-4.9,1.3-17.8
		C99.8,240.8,89.6,259.9,89.6,259.9z"/>
	<path class="st4" d="M167.5,257.7c0,0,2.7,14.7,8.9,15.6c0,0,2.2,2.2,5.8,2.7c3.6,0.4,0.4-5.3,0.4-5.3l2.2,1.3
		c0,0,2.7-18.3-2.7-20.9C176.9,248.3,167.5,257.7,167.5,257.7z"/>
	<polygon class="st4" points="195.1,194.9 176.4,175.3 198.7,158.4 189.8,137 194.2,142.4 196.9,137 198.7,143.3 208,132.6 
		207.1,145.9 212.9,139.3 210.2,146.4 216.5,144.2 210.7,151.3 216.9,166.4 196.9,180.2 203.1,189.6 198.7,187.8 201.8,196.7 
		196.4,191.3 196.9,194.9 	"/>
	<path class="st1" d="M41.1,91.6c0,0-4.5-28.9,0-33.4s21.4-20.5,24.5-19.1c0,0-0.4,39.6-4,41.8c0,0,29.8-5.8,49,4.9
		c0,0,24.5-22.7,63.2-28.5c0,0-5.8,26.7-14.7,33.4c0,0-26.7,9.8-29.8,9.8c0,0,19.1,40.5,18.7,44.5s29.8,45.9,29.8,45.9
		s20.9,27.6,4.9,57.9c0,0-8,12.9-31.2,5.8s-32.9-6.2-32.9-6.2s-7.6-1.3-23.6,9.3c-16,10.7-32.9-13.4-32.5-27.6
		c0.4-14.2-6.2-33.8-6.2-33.8s-43.6-4.9-46.7-7.6l-4,0.9l0.4-4.5l-3.6-0.9l2.7-4.9l-2.2-3.6l4.5-3.1L7,167.7l5.8,1.8
		c0,0,27.2-10.7,31.6-9.8c0,0-24.9-11.1-21.8-31.2S41.1,91.6,41.1,91.6z"/>
	<path class="st3" d="M153.7,156.4c0,0,0,11.1,8.5,12.5L153.7,156.4z"/>
	<path class="st3" d="M174.3,186.2c0,0-3.6,6.7,7.1,10.7L174.3,186.2z"/>
	<path class="st2" d="M173.7,57.3c0,0-9.8,30.7-14.7,33.4c0,0,41.4-15.1,51.6-37.4C210.7,53.3,192,53.3,173.7,57.3z"/>
	<ellipse class="st5" cx="104.5" cy="125.9" rx="11.4" ry="14.2"/>
	<path class="st5" d="M23.3,124.3c0,0,14.2,11.1,8,25.8C31.3,150.2,19.7,144.4,23.3,124.3z"/>
	<path class="st6" d="M48.9,124.4l2.2-1.8c0,0,13.8,1.8,19.1-3.1c0,0,4,9.8,3.6,16.4s-12,10.2-12,10.2S52.4,134.2,48.9,124.4z"/>
	<path class="st7" d="M61.8,146.2c0,0,3.6-12,12-10.2C73.8,136,74.2,161.3,61.8,146.2z"/>
	<path class="st7" d="M286.2,183.1"/>
</g>
</svg>
