<?xml version="1.0" encoding="utf-8"?>
<!-- Generator: Adobe Illustrator 23.0.6, SVG Export Plug-In . SVG Version: 6.00 Build 0)  -->
<svg version="1.1" id="Layer_1" xmlns="http://www.w3.org/2000/svg" xmlns:xlink="http://www.w3.org/1999/xlink" x="0px" y="0px"
	 viewBox="0 0 288 288" style="enable-background:new 0 0 288 288;" xml:space="preserve">
<style type="text/css">
	.st0{opacity:0.5;}
	.st1{fill:#C3C0C8;}
	.st2{fill:#F2F0F0;}
	.st3{fill:#676269;}
	.st4{fill:#B1AAB5;}
	.st5{fill:#6E6361;}
	.st6{fill:#928584;}
	.st7{fill:#C5C1CA;}
	.st8{fill:#3C3B3B;}
	.st9{fill:#E2E0E0;}
</style>
<g class="st0">
	<path d="M76.9,259.7c0,0,1,7.4,17.2,7.8c0,0,6.9-2.5,6.4-5.9C100.5,261.7,87.7,252.4,76.9,259.7z"/>
	<path d="M76.9,259.7c0,0,4.9-10.3,17.2-5.9l6.4,7.8C100.5,261.7,89.7,252.9,76.9,259.7z"/>
	<path d="M126,270.5c0,0,6.4-5.9,9.3,9.8c0,0,3.4-9.3,0.5-14.7L126,270.5z"/>
	<path d="M126,270.5c0,0-9.8-2,3.4,14.7c0,0,3.9,2.9,5.9-4.9C135.3,280.3,134.3,265.6,126,270.5z"/>
	<path d="M226.5,232.3c0,0,1.5,11.3,10.3,8.8s-0.5-14.7-0.5-14.7L226.5,232.3z"/>
	<polygon points="62.5,80.8 58.1,83.2 62,88.6 	"/>
	<polygon points="92.1,93 96.6,94 96.6,100.4 	"/>
	<path d="M76.5,131.3l-0.5,5.4c0,0,4.9,2.5,6.4-0.5c1.5-2.9-3.9-4.4-3.9-4.4L76.5,131.3z"/>
	<path d="M105.9,149.4c0,0-44.6-11.8-44.6-56.4s13.2-45.6,13.2-45.6s1.5,1,2,4.4S81.4,69,81.4,69h6.9l-3.4,8.8c0,0,13.2,26,17.2,27
		c0,0,5.4-4.4,5.4-2.5s-0.5,8.3-0.5,8.3s3.4,6.4,11.3,6.9C126,118,105.9,149.4,105.9,149.4z"/>
	<path d="M40.7,109.2c0,0,7.4-4.4,7.4-9.8s-1.5-9.8-1.5-9.8s-10.3-4.9-12.3-8.8S26,85.2,26,85.2s-7.8,7.4-9.8,7.4s1,7.8,1,7.8
		s1.5,8.8,9.3,10.8c0,0,2.5,8.8,5.9,14.7c3.4,5.9,26,41.2,26,41.2s4.4,4.9,8.8,4.4l0.5,2.5c0,0,14.7,2.9,17.6,7.4v2.5
		c0,0,7.8,2.9,8.8,6.9c0,0,6.4,19.1,27.5,14.7c21.1-4.4,2-35.3,2-35.3l-14.7-1c0,0-6.9,1.5-8.8,3.4c-2,2-11.3-3.4-11.3-3.4l-1,2.5
		l-16.7-7.4C71.1,164.1,41.7,120.5,40.7,109.2z"/>
	<path d="M105.9,149.4c0,0,3.9-46.1,36.3-49.5s44.6-1.5,44.6-1.5s21.6,18.6,23.5,34.3c0,0,12.3-4.4,17.6,4.4c0,0,6.4,2.5,10.3,2
		l2.9,2.5c0,0,11.8,2,14.2-2c0,0,4.4-30.9-2.5-55.4l0.5-2.5l-10.8-2.9l8.3-30.4l2-2c0,0,6.4,4.9,10.3,4.4s5.4,10.3,5.4,10.3
		s4.4,3.9-4.4,17.6c0,0,6.9,6.9,6.9,32.8s-7.8,34.3-7.8,34.3l-3.4,1c0,0,2.5,3.4-16.2,4.4c0,0-4.9,5.9-7.4,5.9s-6.9,13.7-13.7,13.7
		v4.9c0,0,21.1,5.4,21.1,29.4s-17.2,27-17.2,27s-9.3,2.5-19.6-5.4c0,0-10.3,16.7-24.5,18.1c-14.2,1.5-34.3-8.8-34.3-8.8
		s-2.9,22.1-6.4,25.5c-3.4,3.4-13.7,7.8-13.7,7.8s-11.3,11.3-23,0s-11.3-25-11.3-25s6.9-27,15.2-29.4s15.7-4.4,15.7-4.4l-2.9-5.4
		C121.6,205.3,102.4,160.2,105.9,149.4z"/>
	<path d="M26,85.2c0,0-0.5-13.2,9.8-16.2l-2,4.4c0,0,4.4,6.4,2,9.8C35.8,83.2,30.4,89.6,26,85.2z"/>
	<path d="M17.1,100.4c0,0-7.8-4.9-6.9-15.2L22,94C22,94,22.5,102.9,17.1,100.4z"/>
	<path d="M42.6,91.6c0,0,5.9-2.5,7.4-5.9c0,0,5.4-2.5,3.4,5.4c-2,7.8-5.4,8.3-5.4,8.3S40.2,102.4,42.6,91.6z"/>
	<path d="M159.3,32.3l-4.9,6.4l10.8,2C165.2,40.6,160.8,32.3,159.3,32.3z"/>
	<polygon points="201,52.8 204.9,54.8 202.9,57.8 	"/>
	<path d="M168.1,79.3c0,0-8.3,2-7.8,4.4c0.5,2.5,11.8,7.8,11.8,7.8L168.1,79.3z"/>
	<path d="M163.7,98.4c0,0,9.3-43.6-2.5-61.8s-12.3-21.1-12.3-21.1s1.5-8.8,28.9,4.9l6.4-2v8.3c0,0,20.1,16.7,23.5,52
		c0,0,5.4,1,4.9,3.9c-0.3,3.1-5.3,4.6-5.3,4.6s0,25-9.8,32.8C197.5,120,172.1,119,163.7,98.4z"/>
	<path d="M252.9,46.5c0,0-5.9-6.9-9.3-3.4s-3.4,12.3-3.4,12.3s2.5,6.4,6.9,6.9c0,0-11.3,4.9-7.4,12.7c3.9,7.8,8.8,0,8.8,0
		s-0.5-8.3,2-10.3c2.5-2-1-3.9-1-3.9S253.4,51.4,252.9,46.5z"/>
	<path d="M265.2,52.8c0,0-9.3-2.5-2.9,15.2l6.4-6.9C268.6,61.2,268.1,55.8,265.2,52.8z"/>
	<path d="M103.4,246c0,0,2.5-8.3,12.7-3.4s4.9,14.7,4.9,14.7S119.1,236.7,103.4,246z"/>
	<path d="M189.7,200.9c0,0-2-7.8,11.8-4.9c0,0,9.3,5.9,8.3,12.7C209.8,208.7,201.5,189.1,189.7,200.9z"/>
	<path d="M103.4,246c0,0,6.9,12.3,9.8,12.7s7.8-1.5,7.8-1.5S120.6,237.2,103.4,246z"/>
	<path d="M189.7,200.9c0,0,5.9,11.3,11.8,11.3c5.9,0,8.3-3.4,8.3-3.4S202,188.6,189.7,200.9z"/>
	<path d="M227,202.9c0,0-12.3-19.1-1-20.6s10.8,18.1,10.8,18.1S227,204.3,227,202.9z"/>
	<path d="M151.5,194c0,0-25.5-16.2-16.2-46.1c0,0,14.7-19.6,32.8-0.5s7.4,38.7,7.4,38.7S151.5,189.6,151.5,194z"/>
	<path d="M134.4,148c0,0,9.3-0.5,9.8,1.5s0.5,3.9,0.5,3.9l-11.3,1.5L134.4,148z"/>
	<path d="M149.5,145.5l1,4.9l13.7-6.4c0,0-7.4-4.9-9.3-2.9C152.9,143,149.5,145.5,149.5,145.5z"/>
	<path d="M132,157.8c0,0,14.7-2.5,14.7-0.5s0,2,0,2l-13.2,7.8l-1-7.4L132,157.8z"/>
	<path d="M136.8,176.9c0,0,11.8-8.3,15.2-6.9l-1-4.4c0,0-17.6,2.5-16.7,3.9L136.8,176.9z"/>
	<path d="M142.6,185.6l12.7-6.9l-0.5-3.4c0,0-17.2,2.9-16.7,4.9L142.6,185.6z"/>
	<path d="M148,191.1l10.8-5.4l-1-3.9c0,0-14.7,3.9-13.2,7.4L148,191.1z"/>
	<path d="M169,147.5c0,0-6.9-3.4-15.2,7.8l1.5,3.9l17.2-5.9L169,147.5z"/>
	<path d="M177.3,162.7c0,0-17.2,3.4-18.1,4.9l-2.5-4.4c0,0,15.2-8.3,17.2-7.8C173.9,155.3,176.8,159.2,177.3,162.7z"/>
	<path d="M177.6,174.4c0,0-13.6-2.2-16.2,0.1l-1.8-3c0,0,15.6-7,18-4.9C177.6,166.6,179.8,169.6,177.6,174.4z"/>
	<path d="M177.3,182.8h-13.7l-0.5-4.4c0,0,14.7-4.9,15.2-2C178.3,176.4,177.8,181.3,177.3,182.8z"/>
</g>
<g>
	<path class="st1" d="M71.6,254.5c0,0,1,7.4,17.2,7.8c0,0,6.9-2.5,6.4-5.9C95.2,256.5,82.4,247.2,71.6,254.5z"/>
	<path class="st2" d="M71.6,254.5c0,0,4.9-10.3,17.2-5.9l6.4,7.8C95.2,256.5,84.4,247.7,71.6,254.5z"/>
	<path class="st1" d="M120.7,265.3c0,0,6.4-5.9,9.3,9.8c0,0,3.4-9.3,0.5-14.7L120.7,265.3z"/>
	<path class="st3" d="M120.7,265.3c0,0-9.8-2,3.4,14.7c0,0,3.9,2.9,5.9-4.9C130,275.1,129,260.4,120.7,265.3z"/>
	<path class="st3" d="M221.2,227.1c0,0,1.5,11.3,10.3,8.8s-0.5-14.7-0.5-14.7L221.2,227.1z"/>
	<polygon class="st3" points="57.2,75.6 52.8,78 56.7,83.4 	"/>
	<polygon class="st3" points="86.8,87.8 91.3,88.8 91.3,95.2 	"/>
	<path class="st3" d="M71.2,126.1l-0.5,5.4c0,0,4.9,2.5,6.4-0.5c1.5-2.9-3.9-4.4-3.9-4.4L71.2,126.1z"/>
	<path class="st4" d="M100.6,144.2c0,0-44.6-11.8-44.6-56.4s13.2-45.6,13.2-45.6s1.5,1,2,4.4s4.9,17.2,4.9,17.2H83l-3.4,8.8
		c0,0,13.2,26,17.2,27c0,0,5.4-4.4,5.4-2.5s-0.5,8.3-0.5,8.3s3.4,6.4,11.3,6.9C120.7,112.8,100.6,144.2,100.6,144.2z"/>
	<path class="st5" d="M35.4,104c0,0,7.4-4.4,7.4-9.8s-1.5-9.8-1.5-9.8S31,79.5,29,75.6S20.7,80,20.7,80s-7.8,7.4-9.8,7.4
		s1,7.8,1,7.8s1.5,8.8,9.3,10.8c0,0,2.5,8.8,5.9,14.7c3.4,5.9,26,41.2,26,41.2s4.4,4.9,8.8,4.4l0.5,2.5c0,0,14.7,2.9,17.6,7.4v2.5
		c0,0,7.8,2.9,8.8,6.9c0,0,6.4,19.1,27.5,14.7c21.1-4.4,2-35.3,2-35.3l-14.7-1c0,0-6.9,1.5-8.8,3.4c-2,2-11.3-3.4-11.3-3.4l-1,2.5
		l-16.7-7.4C65.8,158.9,36.4,115.3,35.4,104z"/>
	<path class="st6" d="M100.6,144.2c0,0,3.9-46.1,36.3-49.5s44.6-1.5,44.6-1.5s21.6,18.6,23.5,34.3c0,0,12.3-4.4,17.6,4.4
		c0,0,6.4,2.5,10.3,2l2.9,2.5c0,0,11.8,2,14.2-2c0,0,4.4-30.9-2.5-55.4l0.5-2.5l-10.8-2.9l8.3-30.4l2-2c0,0,6.4,4.9,10.3,4.4
		s5.4,10.3,5.4,10.3s4.4,3.9-4.4,17.6c0,0,6.9,6.9,6.9,32.8s-7.8,34.3-7.8,34.3l-3.4,1c0,0,2.5,3.4-16.2,4.4c0,0-4.9,5.9-7.4,5.9
		s-6.9,13.7-13.7,13.7v4.9c0,0,21.1,5.4,21.1,29.4s-17.2,27-17.2,27s-9.3,2.5-19.6-5.4c0,0-10.3,16.7-24.5,18.1
		c-14.2,1.5-34.3-8.8-34.3-8.8s-2.9,22.1-6.4,25.5c-3.4,3.4-13.7,7.8-13.7,7.8s-11.3,11.3-23,0s-11.3-25-11.3-25s6.9-27,15.2-29.4
		s15.7-4.4,15.7-4.4l-2.9-5.4C116.3,200.1,97.1,155,100.6,144.2z"/>
	<path class="st1" d="M20.7,80c0,0-0.5-13.2,9.8-16.2l-2,4.4c0,0,4.4,6.4,2,9.8C30.5,78,25.1,84.4,20.7,80z"/>
	<path class="st1" d="M11.8,95.2c0,0-7.8-4.9-6.9-15.2l11.8,8.8C16.7,88.8,17.2,97.7,11.8,95.2z"/>
	<path class="st1" d="M37.3,86.4c0,0,5.9-2.5,7.4-5.9c0,0,5.4-2.5,3.4,5.4c-2,7.8-5.4,8.3-5.4,8.3S34.9,97.2,37.3,86.4z"/>
	<path class="st7" d="M154,27.1l-4.9,6.4l10.8,2C159.9,35.4,155.5,27.1,154,27.1z"/>
	<polygon class="st7" points="195.7,47.6 199.6,49.6 197.6,52.6 	"/>
	<path class="st7" d="M162.8,74.1c0,0-8.3,2-7.8,4.4c0.5,2.5,11.8,7.8,11.8,7.8L162.8,74.1z"/>
	<path class="st2" d="M158.4,93.2c0,0,9.3-43.6-2.5-61.8s-12.3-21.1-12.3-21.1s1.5-8.8,28.9,4.9l6.4-2v8.3c0,0,20.1,16.7,23.5,52
		c0,0,5.4,1,4.9,3.9C207,80.5,202,82,202,82s0,25-9.8,32.8C192.2,114.8,166.8,113.8,158.4,93.2z"/>
	<path class="st2" d="M247.6,41.3c0,0-5.9-6.9-9.3-3.4s-3.4,12.3-3.4,12.3s2.5,6.4,6.9,6.9c0,0-11.3,4.9-7.4,12.7
		c3.9,7.8,8.8,0,8.8,0s-0.5-8.3,2-10.3c2.5-2-1-3.9-1-3.9S248.1,46.2,247.6,41.3z"/>
	<path class="st2" d="M259.9,47.6c0,0-9.3-2.5-2.9,15.2l6.4-6.9C263.3,56,262.8,50.6,259.9,47.6z"/>
	<path class="st2" d="M98.1,240.8c0,0,2.5-8.3,12.7-3.4s4.9,14.7,4.9,14.7S113.8,231.5,98.1,240.8z"/>
	<path class="st2" d="M184.4,195.7c0,0-2-7.8,11.8-4.9c0,0,9.3,5.9,8.3,12.7C204.5,203.5,196.2,183.9,184.4,195.7z"/>
	<path class="st1" d="M98.1,240.8c0,0,6.9,12.3,9.8,12.7s7.8-1.5,7.8-1.5S115.3,232,98.1,240.8z"/>
	<path class="st1" d="M184.4,195.7c0,0,5.9,11.3,11.8,11.3c5.9,0,8.3-3.4,8.3-3.4S196.7,183.4,184.4,195.7z"/>
	<path class="st1" d="M221.7,197.7c0,0-12.3-19.1-1-20.6s10.8,18.1,10.8,18.1S221.7,199.1,221.7,197.7z"/>
	<path class="st8" d="M146.2,188.8c0,0-25.5-16.2-16.2-46.1c0,0,14.7-19.6,32.8-0.5s7.4,38.7,7.4,38.7S146.2,184.4,146.2,188.8z"/>
	<path class="st9" d="M129.1,142.8c0,0,9.3-0.5,9.8,1.5s0.5,3.9,0.5,3.9l-11.3,1.5L129.1,142.8z"/>
	<path class="st9" d="M144.2,140.3l1,4.9l13.7-6.4c0,0-7.4-4.9-9.3-2.9C147.6,137.8,144.2,140.3,144.2,140.3z"/>
	<path class="st9" d="M126.7,152.6c0,0,14.7-2.5,14.7-0.5s0,2,0,2l-13.2,7.8l-1-7.4L126.7,152.6z"/>
	<path class="st9" d="M131.5,171.7c0,0,11.8-8.3,15.2-6.9l-1-4.4c0,0-17.6,2.5-16.7,3.9L131.5,171.7z"/>
	<path class="st9" d="M137.3,180.4l12.7-6.9l-0.5-3.4c0,0-17.2,2.9-16.7,4.9L137.3,180.4z"/>
	<path class="st9" d="M142.7,185.9l10.8-5.4l-1-3.9c0,0-14.7,3.9-13.2,7.4L142.7,185.9z"/>
	<path class="st9" d="M163.7,142.3c0,0-6.9-3.4-15.2,7.8l1.5,3.9l17.2-5.9L163.7,142.3z"/>
	<path class="st9" d="M172,157.5c0,0-17.2,3.4-18.1,4.9l-2.5-4.4c0,0,15.2-8.3,17.2-7.8C168.6,150.1,171.5,154,172,157.5z"/>
	<path class="st9" d="M172.3,169.2c0,0-13.6-2.2-16.2,0.1l-1.8-3c0,0,15.6-7,18-4.9C172.3,161.4,174.5,164.4,172.3,169.2z"/>
	<path class="st9" d="M172,177.6h-13.7l-0.5-4.4c0,0,14.7-4.9,15.2-2C173,171.2,172.5,176.1,172,177.6z"/>
</g>
</svg>
