<?xml version="1.0" encoding="utf-8"?>
<!-- Generator: Adobe Illustrator 23.0.6, SVG Export Plug-In . SVG Version: 6.00 Build 0)  -->
<svg version="1.1" id="Layer_1" xmlns="http://www.w3.org/2000/svg" xmlns:xlink="http://www.w3.org/1999/xlink" x="0px" y="0px"
	 viewBox="0 0 288 288" style="enable-background:new 0 0 288 288;" xml:space="preserve">
<style type="text/css">
	.st0{opacity:0.5;}
	.st1{fill:#5C799B;}
	.st2{fill:#B5BECF;}
	.st3{fill:#7597BD;}
	.st4{fill:#DCE2ED;}
	.st5{fill:#090909;}
</style>
<g class="st0">
	<path d="M51.4,105.7c0,0,12.2,14.6,18.5,14.6l6.8-20l-6.8-5.4L51.4,105.7z"/>
	<path d="M84.5,91.6c0,0-0.5-26.3,10.2-30.7s16.1-6.3,16.1-6.3s18-5.8,28.7,15.6C150.3,91.6,84.5,91.6,84.5,91.6z"/>
	<path d="M106.4,228c0,0,3.4,9.7,1,12.2c-2.4,2.4-25.3,8.3-25.3,8.3s-22.9,10.2-7.8,22.3s54.5-9.7,54.5-9.7s16.1-12.2-3.4-20.5
		c0,0-3.4-10.7-1-15.1L106.4,228z"/>
	<path d="M41.7,98.4l1,5.4c0,0,22.4,13.1,32.6-12.7l-1.5-2.9c0,0,11.7-19.5,4.9-32.6s-21.9-17-21.9-17s-36.6-1.5-46.8,17
		s9.3,28.2,9.3,28.2S25.1,94.1,41.7,98.4z"/>
	<path d="M84.5,91.6c0,0,29.7-30.7,74.5-18.5c0,0,16.6-15.6,33.6-7.8s16.6,20.9,16.6,20.9v14.6c0,0,15.6,18,16.6,31.7l13.1,6.8
		l-14.1,29.2c0,0-7.8,40.9-40.9,56c0,0-0.5,16.6,5.4,19c5.8,2.4,10.7,5.4,10.7,5.4s19,7.3,14.1,25.3s-33.1,7.3-33.1,7.3
		s-22.4-5.4-21.4-15.1c1-9.7,1.9-11.2,1.9-11.2s5.4-4.4,5.8-6.3c0.5-1.9-3.9-17-3.9-17c-8.1,2-27.8,5.8-50.6-1.9
		c-5.7-1.9-24.9-8.7-39-26.3C46,168.8,62.3,121.5,63.6,118C66.1,114.1,69,110,84.5,91.6z"/>
	<path d="M218,166.1c0,0-7.8-29.7,21.9-32.1l6.3,9.3c0,0,15.6-5.8,28.2,2.4c12.7,8.3,12.7,12.7,12.7,12.7s9.7,18.5-5.4,34.1
		s-22.9,10.7-22.9,10.7s-1.9,7.8-19.5,3.4s-14.6-28.2-14.6-28.2l1.9-9.3L218,166.1z"/>
	<path d="M63.6,117.9c0,0,22.9-37,59.4-16.6s42.4,38.5,42.4,38.5s16.6,46.3-10.7,72.6s-54.5,12.7-54.5,12.7S66.6,211,57.8,174.9
		S63.6,117.9,63.6,117.9z"/>
	<path d="M116.7,215.8c0,0,30.2-7.3,32.6-41.4s-17.1-49.7-17.1-49.7s-23.4-24.4-50.2-8.8s-20.9,53.6-20.9,53.6s3.9,26.3,25.8,32.6
		s33.1-2.9,33.1-2.9s18.5-17.5,12.7-39.9c-5.8-22.4-14.6-25.8-14.6-25.8s-18-13.6-32.1-1.9S70.4,153,70.4,153s-5.4,28.7,14.1,36.5
		s32.1-13.1,32.1-13.1s4.9-23.4-7.3-31.2s-21.9-1.5-21.9-1.5s-13.1,7.3-9.2,21s13.6,14.1,13.6,14.1s13.1-0.5,14.6-12.7
		s-8.8-12.2-8.8-12.2s-13.1,1.9-8.3,10.7c4.9,8.8,7.3-2.9,7.3-2.9s6.3,0.5,2.4,6.3s-9.7,2.9-9.7,2.9s-9.7-4.4-4.9-12.7
		c4.9-8.3,8.3-8.3,8.3-8.3s11.7-2.4,15.6,5.8c3.9,8.3,1.5,15.6,1.5,15.6s-6.3,15.1-18.5,11.7s-15.6-11.2-15.6-11.2
		s-7.3-16.1,2.4-25.8s15.1-10.2,15.1-10.2s19.5,0,25.3,12.7s3.9,21.9,3.9,21.9s-3.9,18.5-16.6,21.9s-18,1.9-18,1.9
		s-18-2.9-20.5-17.5c-2.4-14.6-0.5-29.7-0.5-29.7s7.8-22.4,20.5-23.9s22.9,0.5,22.9,0.5s25.8,14.1,28.2,33.6c2.4,19.5-8.3,38-8.3,38
		s-13.6,17-30.7,15.1c-17-1.9-25.3-10.2-25.3-10.2s-16.9-18.4-17.3-39.3s15.1-41.9,15.1-41.9S86,103.3,103,105.7s25.8,9.3,25.8,9.3
		s17.5,10.7,24.4,31.2s0.5,41.9,0.5,41.9c-1.5,4.3-3.9,9.9-8.2,15.6c-9,12.1-20.8,17.4-26.4,19.4c-0.5-0.3-1.8-1.4-2.4-3.4
		C116.1,217.9,116.5,216.4,116.7,215.8z"/>
</g>
<g>
	<path class="st1" d="M46.2,101c0,0,12.2,14.6,18.5,14.6l6.8-20l-6.8-5.4L46.2,101z"/>
	<path class="st1" d="M79.3,86.9c0,0-0.5-26.3,10.2-30.7s16.1-6.3,16.1-6.3s18-5.8,28.7,15.6C145.1,86.9,79.3,86.9,79.3,86.9z"/>
	<path class="st1" d="M101.2,223.3c0,0,3.4,9.7,1,12.2c-2.4,2.4-25.3,8.3-25.3,8.3S54,254,69.1,266.1s54.5-9.7,54.5-9.7
		s16.1-12.2-3.4-20.5c0,0-3.4-10.7-1-15.1L101.2,223.3z"/>
	<path class="st2" d="M36.5,93.7l1,5.4c0,0,22.4,13.1,32.6-12.7l-1.5-2.9c0,0,11.7-19.5,4.9-32.6s-21.9-17-21.9-17S15,32.4,4.8,50.9
		s9.3,28.2,9.3,28.2S19.9,89.4,36.5,93.7z"/>
	<path class="st3" d="M79.3,86.9c0,0,29.7-30.7,74.5-18.5c0,0,16.6-15.6,33.6-7.8S204,81.5,204,81.5v14.6c0,0,15.6,18,16.6,31.7
		l13.1,6.8l-14.1,29.2c0,0-7.8,40.9-40.9,56c0,0-0.5,16.6,5.4,19c5.8,2.4,10.7,5.4,10.7,5.4s19,7.3,14.1,25.3s-33.1,7.3-33.1,7.3
		s-22.4-5.4-21.4-15.1c1-9.7,1.9-11.2,1.9-11.2s5.4-4.4,5.8-6.3c0.5-1.9-3.9-17-3.9-17c-8.1,2-27.8,5.8-50.6-1.9
		c-5.7-1.9-24.9-8.7-39-26.3c-27.8-34.9-11.5-82.2-10.2-85.7C60.9,109.4,63.8,105.3,79.3,86.9z"/>
	<path class="st4" d="M212.8,161.4c0,0-7.8-29.7,21.9-32.1l6.3,9.3c0,0,15.6-5.8,28.2,2.4c12.7,8.3,12.7,12.7,12.7,12.7
		s9.7,18.5-5.4,34.1s-22.9,10.7-22.9,10.7s-1.9,7.8-19.5,3.4s-14.6-28.2-14.6-28.2l1.9-9.3L212.8,161.4z"/>
	<path class="st4" d="M58.4,113.2c0,0,22.9-37,59.4-16.6s42.4,38.5,42.4,38.5s16.6,46.3-10.7,72.6S95,220.4,95,220.4
		s-33.6-14.1-42.4-50.2S58.4,113.2,58.4,113.2z"/>
	<path class="st5" d="M111.5,211.1c0,0,30.2-7.3,32.6-41.4S127,120,127,120s-23.4-24.4-50.2-8.8s-20.9,53.6-20.9,53.6
		s3.9,26.3,25.8,32.6s33.1-2.9,33.1-2.9s18.5-17.5,12.7-39.9s-14.6-25.8-14.6-25.8s-18-13.6-32.1-1.9s-15.6,21.4-15.6,21.4
		s-5.4,28.7,14.1,36.5s32.1-13.1,32.1-13.1s4.9-23.4-7.3-31.2S82.2,139,82.2,139s-13.1,7.3-9.2,21s13.6,14.1,13.6,14.1
		s13.1-0.5,14.6-12.7s-8.8-12.2-8.8-12.2s-13.1,1.9-8.3,10.7c4.9,8.8,7.3-2.9,7.3-2.9s6.3,0.5,2.4,6.3s-9.7,2.9-9.7,2.9
		s-9.7-4.4-4.9-12.7c4.9-8.3,8.3-8.3,8.3-8.3s11.7-2.4,15.6,5.8c3.9,8.3,1.5,15.6,1.5,15.6s-6.3,15.1-18.5,11.7
		s-15.6-11.2-15.6-11.2s-7.3-16.1,2.4-25.8S88,131.1,88,131.1s19.5,0,25.3,12.7s3.9,21.9,3.9,21.9s-3.9,18.5-16.6,21.9
		s-18,1.9-18,1.9s-18-2.9-20.5-17.5c-2.4-14.6-0.5-29.7-0.5-29.7s7.8-22.4,20.5-23.9s22.9,0.5,22.9,0.5s25.8,14.1,28.2,33.6
		c2.4,19.5-8.3,38-8.3,38s-13.6,17-30.7,15.1c-17-1.9-25.3-10.2-25.3-10.2S52,177,51.6,156.1s15.1-41.9,15.1-41.9
		S80.8,98.6,97.8,101s25.8,9.3,25.8,9.3s17.5,10.7,24.4,31.2s0.5,41.9,0.5,41.9c-1.5,4.3-3.9,9.9-8.2,15.6
		c-9,12.1-20.8,17.4-26.4,19.4c-0.5-0.3-1.8-1.4-2.4-3.4C110.9,213.2,111.3,211.7,111.5,211.1z"/>
</g>
</svg>
