<?xml version="1.0" encoding="utf-8"?>
<!-- Generator: Adobe Illustrator 23.0.6, SVG Export Plug-In . SVG Version: 6.00 Build 0)  -->
<svg version="1.1" id="Layer_1" xmlns="http://www.w3.org/2000/svg" xmlns:xlink="http://www.w3.org/1999/xlink" x="0px" y="0px"
	 viewBox="0 0 288 288" style="enable-background:new 0 0 288 288;" xml:space="preserve">
<style type="text/css">
	.st0{opacity:0.5;}
	.st1{fill:#85A2C4;}
	.st2{fill:#DFE3EE;}
	.st3{fill:#0A0909;}
</style>
<g class="st0">
	<path d="M132.7,82.8c0,0,22.9-5.2,28.1-2.9c0,0,11.4-11.9,21-8.1c9.5,3.8,18.6,21.4,18.6,21.4s20.5,5.7,42.9,33.3l8.6,44.3
		c0,0-14.8,0-20-4.8s-11.4-13.8-11.4-13.8s-8.6,28.6-18.6,34.8c0,0-1.9,5.2,2.4,13.3c4.3,8.1,13.3,30.5,13.3,30.5l7.6,2.4
		c0,0,21.4,5.2,18.6,16.2s-19.5,9.5-19.5,9.5s-35.2-4.3-37.6-22.9c0,0,2.9-8.1,3.8-11.4c0,0-6.7-21.9-17.1-26.2
		c0,0-28.1,1.9-33.3-1.9c0,0-21.4,11.9-21.4,25.7c0,0,5.2,4.3,0,11.4c-5.2,7.1-19.1,11.9-19.1,11.9s-33.3,6.2-36.2-6.2
		c-3.1-12.2,28.8-17,28.8-17s17.1-26.2,16.2-32.9c0,0-20-21.9-20.5-27.6l-7.1,9.1c0,0-24.8,10.5-28.6,5.2c-3.8-5.2,11-32.9,11-32.9
		l4.8-1L84.7,116c0,0,13.8-15.2,16.2-14.8c0,0,1.4-18.6,18.6-24.8C119.3,76.6,128.8,77.5,132.7,82.8z"/>
	<path d="M238.9,132.3c0,0-2.4-11.9,4.3-18.1s10-6.2,10-6.2s23.8-1,28.6,15.2s6.7,26.7,6.7,26.7s-5.7,23.8-29.1,23.3l-7.6-2.4
		c0,0-11.4-1-14.8-10.5c-3.3-9.5-3.8-16.7-3.8-16.7S234.1,138,238.9,132.3z"/>
	<path d="M66.4,148.5c0,0-2.4-18.6-14.3-19.1s-29.5,4.3-29.5,4.3s-8.6,7.1-7.1,19.5c0,0-7.1,17.6,2.9,25.2c10,7.6,12.9,5.7,12.9,5.7
		l11-2.9l1.9-3.8c0,0,8.1,5.7,14.8-5.2S66.4,148.5,66.4,148.5z"/>
	<path d="M123.6,111.8c0,0-34.8-0.5-23.8,41c0,0,18.1,40.5,67.2,28.6s30.5-61.9,30.5-61.9s-1.4-14.3-31.9-9.5
		C135,114.7,123.6,111.8,123.6,111.8z"/>
	<path d="M173.6,173.3c0,0-3.8-1.4-2.4-3.3c0,0,15.2-14.8,10.5-31s-20-21.4-20-21.4s-31-6.2-39.1,8.6s-7.1,21.9-7.1,21.9
		s1,24.8,24.8,25.7c23.8,1,31-21.4,31-21.4s2.4-18.1-11.9-24.8c-14.3-6.7-21.9-1.4-21.9-1.4s-16.7,8.6-11,25.2
		c5.7,16.7,24.8,9.1,24.8,9.1s14.3-9.5,8.1-22.4s-20.5-4.3-20.5-4.3s-10,16.2,2.9,18.6c12.9,2.4,9.1-8.6,9.1-8.6s-1.9-5.2-6.7,1.4
		c0,0-4.3,1-3.8-1c0.5-1.9,2.4-5.2,2.4-5.2s9.5-6.7,11.4,1.9c1.9,8.6-1.4,12.9-1.4,12.9s-10,7.1-16.7,0.5
		c-6.7-6.7-4.3-14.8-4.3-14.8s4.3-15.2,19.1-11s14.3,11.9,14.3,11.9s3.3,11-5.7,20c-9.1,9.1-22.9,4.8-22.9,4.8s-16.2-5.2-15.7-19.1
		s12.4-22.4,12.4-22.4s17.6-9.1,29.5,1c11.9,10,11.9,15.7,11.9,15.7s3.8,20-10.5,30s-32.4,6.2-32.4,6.2s-22.9-11-21.4-24.3
		s4.8-21,4.8-21s6.2-17.6,28.6-17.6s27.2,3.8,27.2,3.8s17.6,8.6,16.2,25.7C185.5,160.4,173.6,173.3,173.6,173.3z"/>
</g>
<g>
	<path class="st1" d="M127.5,78c0,0,22.9-5.2,28.1-2.9c0,0,11.4-11.9,21-8.1c9.5,3.8,18.6,21.4,18.6,21.4s20.5,5.7,42.9,33.3
		l8.6,44.3c0,0-14.8,0-20-4.8s-11.4-13.8-11.4-13.8s-8.6,28.6-18.6,34.8c0,0-1.9,5.2,2.4,13.3c4.3,8.1,13.3,30.5,13.3,30.5l7.6,2.4
		c0,0,21.4,5.2,18.6,16.2s-19.5,9.5-19.5,9.5s-35.2-4.3-37.6-22.9c0,0,2.9-8.1,3.8-11.4c0,0-6.7-21.9-17.1-26.2
		c0,0-28.1,1.9-33.3-1.9c0,0-21.4,11.9-21.4,25.7c0,0,5.2,4.3,0,11.4c-5.2,7.1-19.1,11.9-19.1,11.9s-33.3,6.2-36.2-6.2
		c-3.1-12.2,28.8-17,28.8-17s17.1-26.2,16.2-32.9c0,0-20-21.9-20.5-27.6l-7.1,9.1c0,0-24.8,10.5-28.6,5.2c-3.8-5.2,11-32.9,11-32.9
		l4.8-1l16.7-26.2c0,0,13.8-15.2,16.2-14.8c0,0,1.4-18.6,18.6-24.8C114.1,71.8,123.6,72.7,127.5,78z"/>
	<path class="st2" d="M233.7,127.5c0,0-2.4-11.9,4.3-18.1s10-6.2,10-6.2s23.8-1,28.6,15.2s6.7,26.7,6.7,26.7s-5.7,23.8-29.1,23.3
		l-7.6-2.4c0,0-11.4-1-14.8-10.5c-3.3-9.5-3.8-16.7-3.8-16.7S228.9,133.2,233.7,127.5z"/>
	<path class="st2" d="M61.2,143.7c0,0-2.4-18.6-14.3-19.1s-29.5,4.3-29.5,4.3s-8.6,7.1-7.1,19.5c0,0-7.1,17.6,2.9,25.2
		c10,7.6,12.9,5.7,12.9,5.7l11-2.9l1.9-3.8c0,0,8.1,5.7,14.8-5.2S61.2,143.7,61.2,143.7z"/>
	<path class="st2" d="M118.4,107c0,0-34.8-0.5-23.8,41c0,0,18.1,40.5,67.2,28.6s30.5-61.9,30.5-61.9s-1.4-14.3-31.9-9.5
		C129.8,109.9,118.4,107,118.4,107z"/>
	<path class="st3" d="M168.4,168.5c0,0-3.8-1.4-2.4-3.3c0,0,15.2-14.8,10.5-31s-20-21.4-20-21.4s-31-6.2-39.1,8.6
		s-7.1,21.9-7.1,21.9s1,24.8,24.8,25.7c23.8,1,31-21.4,31-21.4s2.4-18.1-11.9-24.8c-14.3-6.7-21.9-1.4-21.9-1.4s-16.7,8.6-11,25.2
		c5.7,16.7,24.8,9.1,24.8,9.1s14.3-9.5,8.1-22.4s-20.5-4.3-20.5-4.3s-10,16.2,2.9,18.6c12.9,2.4,9.1-8.6,9.1-8.6s-1.9-5.2-6.7,1.4
		c0,0-4.3,1-3.8-1c0.5-1.9,2.4-5.2,2.4-5.2s9.5-6.7,11.4,1.9c1.9,8.6-1.4,12.9-1.4,12.9s-10,7.1-16.7,0.5
		c-6.7-6.7-4.3-14.8-4.3-14.8s4.3-15.2,19.1-11s14.3,11.9,14.3,11.9s3.3,11-5.7,20c-9.1,9.1-22.9,4.8-22.9,4.8s-16.2-5.2-15.7-19.1
		s12.4-22.4,12.4-22.4s17.6-9.1,29.5,1c11.9,10,11.9,15.7,11.9,15.7s3.8,20-10.5,30s-32.4,6.2-32.4,6.2s-22.9-11-21.4-24.3
		s4.8-21,4.8-21s6.2-17.6,28.6-17.6s27.2,3.8,27.2,3.8s17.6,8.6,16.2,25.7C180.3,155.6,168.4,168.5,168.4,168.5z"/>
</g>
</svg>
