<?xml version="1.0" encoding="utf-8"?>
<!-- Generator: Adobe Illustrator 23.0.6, SVG Export Plug-In . SVG Version: 6.00 Build 0)  -->
<svg version="1.1" id="Layer_1" xmlns="http://www.w3.org/2000/svg" xmlns:xlink="http://www.w3.org/1999/xlink" x="0px" y="0px"
	 viewBox="0 0 288 288" style="enable-background:new 0 0 288 288;" xml:space="preserve">
<style type="text/css">
	.st0{opacity:0.5;}
	.st1{fill:#CCDCE8;}
	.st2{fill:#5B779B;}
	.st3{fill:#5F86B2;}
	.st4{fill:#F2F4F7;}
	.st5{fill:#0B0B0B;}
	.st6{fill:#E1BED2;}
</style>
<g class="st0">
	<path d="M132.5,188.8c0,0,62.7,82,141.9,41.4c0,0,23.7-20.1,4.4-41.8s-67.1-17.7-67.1-17.7s-66.3,14.1-77.6,10.9
		C122.8,178.4,132.5,188.8,132.5,188.8z"/>
	<path d="M67.3,183.2c0,0,6.8,57.1,28.9,51.4c22.1-5.6,12.9-22.9,12.9-22.9S86.2,188,89.4,184.8S67.3,183.2,67.3,183.2z"/>
	<path d="M159,147.8l-12.9,14.1c0,0,15.7,34.2,36.2,24.5s-6.8-30.1-6.8-30.1S158.6,149,159,147.8z"/>
	<path d="M100.7,183.2c7.1,1.2,14.9,2.9,23.3,5.3c11.6,3.4,21.7,7.5,30.2,11.6c16.3,5.7,30.6,8.8,41.5,10.6
		c14.5,2.4,34.6,5.6,59.7,1.4c1.8-0.3,3.4-0.6,4.4-0.8c1.6-1.4,2.2-2.3,2-2.8c-0.3-0.7-2.5-0.6-6.4,0.4c-11.2,1.2-25.1,1.6-40.9-0.2
		c-22.4-2.6-40.6-8.7-53.5-14.3c-4-1-11.3-3.5-18.4-9.5c-6.4-5.4-10-11.4-11.8-15C120.8,174.3,110.8,178.8,100.7,183.2z"/>
	<path d="M14.3,122.5c0,0,2.4,71.5,75.2,62.3s80.4-60.3,80.4-60.3s9.6-53-37-81.2s-83.2-4.8-83.2-4.8S10.7,64.6,14.3,122.5z"/>
	<path d="M77,80.7c-19.4,11.1-29.4,33.1-24.9,53.9c3.8,17.7,17.7,31.9,35.8,37c4.7,0.8,22.2,3,40-7.7c18.1-10.8,24.4-27.7,25.9-32.1
		c0.5-2.4,5-24.4-10.4-42.2c-13.1-15.1-30.9-16.3-34.2-16.5L77,80.7z"/>
	<path d="M92.7,159.5c-3.4-1-10.2-3.5-15.8-9.9c-10.5-12-7.9-27.3-7.5-29.5c0.4-2,4.1-17.7,19.6-25.3c18.1-8.9,35.4,1.8,36.3,2.4
		c0,0,29.3,16.1,3.6,48.2c-8.6,8.1-21,10.1-30.7,5c-11.8-6.2-13.4-19.5-13.5-20.6c-0.1-1-0.4-12.1,8.4-18.7c6-4.5,12.6-4.3,14.5-4.2
		c7.1,0.3,13.4,4.4,16,10.5c2.8,6.4,0.5,12.3,0,13.6c-0.4,1-2.6,6.1-8.2,8.5c-7.2,3.1-13.7-0.9-14.3-1.2c-0.3-0.2-5.6-4.4-4.8-11.3
		c0.8-6.5,6.4-9.4,6.8-9.6c4.4-0.8,8.5,1.4,9.8,5c1.5,4-1.2,7.7-1.4,7.9c-4.2,0.3-6.9,2-6.9,3.3c0,1.2,2.3,2.6,5.3,3.1
		c0,0,13.7-2.8,7.2-18.1c0,0-10.9-11.7-20.1-3.6s-5.6,16.5-5.6,16.5s2.8,16.9,19.3,14.1c16.5-2.8,18.1-14.5,18.1-14.5
		s4.4-18.1-8.8-25.3c-13.3-7.2-26.1-1.6-26.1-1.6s-19.3,8-14.9,28.5c4.4,20.5,22.5,24.5,22.5,24.5s24.5,5.2,36.2-13.7
		c11.7-18.9,4.4-31.3,4.4-31.3s-6-21.7-26.1-24.9c-20.1-3.2-37.8,8.4-37.8,8.4S53.3,115.3,65.7,141c12.5,25.7,26.6,23.7,26.6,23.7
		S96.7,164.3,92.7,159.5z"/>
	<path d="M84.2,61.8c-5,2.6-8,7.7-7.6,12.9c0,0.3,0.5,6.4,5.6,9.6s10.9,1.1,14.1,0c7.6-2.7,11.7-8.7,13.3-11.3c0-1.1-0.1-6.2-4-10
		c-3.6-3.5-7.9-3.9-10-4C90,58.6,85.9,60.8,84.2,61.8z"/>
</g>
<g>
	<path class="st1" d="M127.2,183.7c0,0,62.7,82,141.9,41.4c0,0,23.7-20.1,4.4-41.8s-67.1-17.7-67.1-17.7s-66.3,14.1-77.6,10.9
		C117.5,173.3,127.2,183.7,127.2,183.7z"/>
	<path class="st2" d="M62,178.1c0,0,6.8,57.1,28.9,51.4c22.1-5.6,12.9-22.9,12.9-22.9s-22.9-23.7-19.7-26.9S62,178.1,62,178.1z"/>
	<path class="st2" d="M153.7,142.7l-12.9,14.1c0,0,15.7,34.2,36.2,24.5s-6.8-30.1-6.8-30.1S153.3,143.9,153.7,142.7z"/>
	<path class="st2" d="M95.4,178.1c7.1,1.2,14.9,2.9,23.3,5.3c11.6,3.4,21.7,7.5,30.2,11.6c16.3,5.7,30.6,8.8,41.5,10.6
		c14.5,2.4,34.6,5.6,59.7,1.4c1.8-0.3,3.4-0.6,4.4-0.8c1.6-1.4,2.2-2.3,2-2.8c-0.3-0.7-2.5-0.6-6.4,0.4c-11.2,1.2-25.1,1.6-40.9-0.2
		c-22.4-2.6-40.6-8.7-53.5-14.3c-4-1-11.3-3.5-18.4-9.5c-6.4-5.4-10-11.4-11.8-15C115.5,169.2,105.5,173.7,95.4,178.1z"/>
	<path class="st3" d="M9,117.4c0,0,2.4,71.5,75.2,62.3s80.4-60.3,80.4-60.3s9.6-53-37-81.2s-83.2-4.8-83.2-4.8S5.4,59.5,9,117.4z"/>
	<path class="st4" d="M71.7,75.6c-19.4,11.1-29.4,33.1-24.9,53.9c3.8,17.7,17.7,31.9,35.8,37c4.7,0.8,22.2,3,40-7.7
		c18.1-10.8,24.4-27.7,25.9-32.1c0.5-2.4,5-24.4-10.4-42.2C125,69.4,107.2,68.2,103.9,68L71.7,75.6z"/>
	<path class="st5" d="M87.4,154.4c-3.4-1-10.2-3.5-15.8-9.9c-10.5-12-7.9-27.3-7.5-29.5c0.4-2,4.1-17.7,19.6-25.3
		c18.1-8.9,35.4,1.8,36.3,2.4c0,0,29.3,16.1,3.6,48.2c-8.6,8.1-21,10.1-30.7,5c-11.8-6.2-13.4-19.5-13.5-20.6
		c-0.1-1-0.4-12.1,8.4-18.7c6-4.5,12.6-4.3,14.5-4.2c7.1,0.3,13.4,4.4,16,10.5c2.8,6.4,0.5,12.3,0,13.6c-0.4,1-2.6,6.1-8.2,8.5
		c-7.2,3.1-13.7-0.9-14.3-1.2c-0.3-0.2-5.6-4.4-4.8-11.3c0.8-6.5,6.4-9.4,6.8-9.6c4.4-0.8,8.5,1.4,9.8,5c1.5,4-1.2,7.7-1.4,7.9
		c-4.2,0.3-6.9,2-6.9,3.3c0,1.2,2.3,2.6,5.3,3.1c0,0,13.7-2.8,7.2-18.1c0,0-10.9-11.7-20.1-3.6s-5.6,16.5-5.6,16.5
		s2.8,16.9,19.3,14.1c16.5-2.8,18.1-14.5,18.1-14.5s4.4-18.1-8.8-25.3c-13.3-7.2-26.1-1.6-26.1-1.6s-19.3,8-14.9,28.5
		s22.5,24.5,22.5,24.5s24.5,5.2,36.2-13.7s4.4-31.3,4.4-31.3s-6-21.7-26.1-24.9c-20.1-3.2-37.8,8.4-37.8,8.4S48,110.2,60.4,135.9
		C72.9,161.6,87,159.6,87,159.6S91.4,159.2,87.4,154.4z"/>
	<path class="st6" d="M78.9,56.7c-5,2.6-8,7.7-7.6,12.9c0,0.3,0.5,6.4,5.6,9.6s10.9,1.1,14.1,0c7.6-2.7,11.7-8.7,13.3-11.3
		c0-1.1-0.1-6.2-4-10c-3.6-3.5-7.9-3.9-10-4C84.7,53.5,80.6,55.7,78.9,56.7z"/>
</g>
</svg>
