<?xml version="1.0" encoding="utf-8"?>
<!-- Generator: Adobe Illustrator 23.0.6, SVG Export Plug-In . SVG Version: 6.00 Build 0)  -->
<svg version="1.1" id="Layer_1" xmlns="http://www.w3.org/2000/svg" xmlns:xlink="http://www.w3.org/1999/xlink" x="0px" y="0px"
	 viewBox="0 0 288 288" style="enable-background:new 0 0 288 288;" xml:space="preserve">
<style type="text/css">
	.st0{opacity:0.5;}
	.st1{fill:#9B938F;}
	.st2{fill:#36435A;}
	.st3{fill:#8A99AE;}
	.st4{fill:#DE7657;}
	.st5{fill:#EDB847;}
	.st6{fill:#FBF1D0;}
	.st7{fill:#C16F69;}
</style>
<g class="st0">
	<path d="M163.8,194.3c0,0-7,9.9-3.5,30.9c0,0,0.6,4.7-4.7,8.1c-5.2,3.5-6.4,19.2-6.4,19.2s0,2.9-1.7,3.5s-9.9-1.2-9.9-1.2l-1.2-7.6
		c0,0,8.7-20.4,10.5-20.4c0,0-1.7-4.1-2.9-7.6s7-20.4,7-20.4S161.4,196.7,163.8,194.3z"/>
	<path d="M147.5,256c0,0-1.6,3.7,0,4.9c0,0-7,4.3-9.3,2.7s-0.6-8.7-0.6-8.7L147.5,256z"/>
	<path d="M89.6,260.5c0,0-6.6,8.1-5,10.9c1.6,2.7,16.3-0.8,16.3-0.8s-0.4-3.1,1.2-5S92,256.2,89.6,260.5z"/>
	<path d="M121.8,266.3c0,0-6.6,9.3-3.5,12.8s17.5-1.2,17.5-1.2l-0.4-4.7C135.4,273.3,123.8,261.3,121.8,266.3z"/>
	<path d="M176.9,262c0,0-5,6.6-3.1,9.3c1.9,2.7,15.5-1.2,15.5-1.2l1.2-6.6C190.5,263.6,178.5,257.8,176.9,262z"/>
	<path d="M116,90.1c0,0,0.4,51.6,28.7,50.8s46.2,16.7,46.2,16.7s7.4-3.5,9.7,5s10.5,2.3,10.5,2.3l3.1,1.2v-2.7c0,0,2.7,1.9,1.9,3.1
		c0,0,3.5-3.9,4.3-7.8c0,0,1.2-2.7,3.5-2.3s0.4-2.3,0.4-2.3s-5.4-3.9,2.3-12.8c7.8-8.9,14.7-5,14.7-5s2.3-3.5,4.3-9.3
		c0,0,3.5-0.4,1.6-6.6l3.1-10.5l-4.7-8.1l-6.6,10.9c0,0-5.4,1.6-9.7-1.9s-33.8-6.6-33.8-6.6L178.9,132c0,0-6.2,4.7-9.7,3.1
		c0,0-1.6-5.4-4.7-1.6c0,0-5.8,0.4-6.2-1.9s-10.5-2.3-10.5-2.3l-3.1-1.9l-1.9,2.3l2.3,2.7c0,0-3.9,0.8-4.3,2.3c0,0-4.3-1.6-3.5-3.1
		c0.8-1.6-2.7-3.5-2.7-3.5l2.7-10.5c0,0,0.8-1.9,3.5-1.2c2.7,0.8,0.8-5.4,0.8-5.4s-3.9-6.2-7-1.9c-3.1,4.3-1.9,1.9-1.9,1.9
		s-4.3-4.7-4.7-3.5s6.2-3.5-1.2-6.2l-0.4-9.3l-6.2-3.1L116,90.1z"/>
	<path d="M121.8,83.9c0,0,3.9-2.3,4.7-0.8s-1.2,5-1.2,5l2.7,2.3c0,0,3.9-3.5,4.3-1.6c0,0-1.6,4.3-0.4,5.4s-1.6,2.3-1.6,2.3
		s-4.3-2.7-3.5,4.7l-2.3-8.5l-3.1,1.2l0.4-3.1L116,90L121.8,83.9z"/>
	<path d="M141.6,111.1c0,0,5,0.4,4.3,5c0,0-3.5-2.7-2.7,1.6L142,120c0,0-0.8-7-5.8-7.4L141.6,111.1z"/>
	<path d="M137.4,117.7c0,0,6.6,3.9,3.1,5c0,0-1.2,5.8-2.7,5c-1.6-0.8-3.1,0.4-3.1,0.4l1.9-3.1l-4.3-2.7l3.1-0.8v-3.1L137.4,117.7z"
		/>
	<path d="M147.8,129.3c0,0,2.7-1.6,3.5-3.5s3.1,1.9,3.1,1.9s4.3-0.4,5.4-2.7c1.2-2.3,3.5,1.9,3.5,1.9s-3.9,2.3-3.1,4.3
		c0.8,1.9-5,0-5,0l-1.6,4.3l-3.1-4.3l-2.7,1.9L147.8,129.3L147.8,129.3z"/>
	<path d="M172.3,134.4c0,0,3.9,4.7,5.8,0.4c0,0-2.3-4.7-3.5-3.1C173.5,133.2,172.3,134.4,172.3,134.4z"/>
	<path d="M178.5,130.1c0,0,0-3.1-1.6-3.9c0,0,8.1-10.9-3.1-18.6c0,0-1.6-1.6-2.7-2.7c-1.2-1.2,5-1.2,5-1.2l1.6-1.9
		c0,0,3.1,0,1.9,3.5c0,0,3.5,2.3,3.5,4.7c0,0,0.8-5,3.9-5c0,0,0.8-1.9-1.2-3.5c0,0,1.6-3.5,3.9-3.1s3.9,1.6,3.9,1.6s2.7-0.8,1.6-2.3
		c0,0,3.9,0.8,2.7,2.7c-1.2,1.9-0.8,3.5-0.8,3.5s14.4-11.3,25.2-1.2c10.9,10.1,10.9,10.1,10.9,10.1s4.3,6.2-0.4,8.1
		c0,0-2.3-8.5-6.6-8.5l-1.9,3.5l-2.7-1.6l-2.3,5.4c0,0,0.4-8.3-5.9-9.6c-0.2,0-0.4-0.1-0.7-0.1l1.2,3.1c0,0-6.2-7-13.2,3.1
		c0,0-1.9-5,1.2-5.8c0,0-9.3,4.7-3.9,19.8c0,0-3.9,1.2-3.5-2.3l0.8,6.2l-1.9-3.1l0.8,7.4l-3.5-5.8l-1.9,3.1l-1.6-6.2l-3.1,10.5
		L178.5,130.1z"/>
	<path d="M239,112.6c0,0,8.1-9.3-1.6-15.9c0,0-1.2-3.1,2.3-2.7c0,0,2.3-1.6,3.1-3.5s2.7,0.8,2.7,0.8s1.6,5.4,6.6,7.4
		c5,1.9-1.6,6.2-1.6,6.2s-4.3,1.2,0.8,3.5c5,2.3-2.3,2.7-2.7,5.8v-4.3l-2.7,3.5l0.4-7L239,112.6z"/>
	<path d="M109.8,224.8c0,0,3.1-7.4,3.9-6.6c0.8,0.8,1.9-5.4,1.9-5.4s2.7-3.5,3.9-1.9c1.2,1.6,5-8.9,5-8.9l-8.9-10.1l-8.5,5.8
		L109.8,224.8z"/>
	<path d="M108.3,63.3c0,0,26,4.3,26.8,7.8c0.8,3.5-17.9,17.5-17.9,17.5s6.6,52.4,27.6,52.4s17.1-1.9,17.1-1.9s15.1-4.3,23.7,10.5
		c8.5,14.7,8.9,18.2,8.9,18.2s0.8,7.8-0.8,9.3l7.4,38.8c0,0,4.3,5.8,1.2,10.1s-7,19.8-7,19.8l-0.8,10.5c0,0,1.2,5.4-3.9,7.4
		c0,0-3.9,0.4-10.5-3.1c0,0-2.7-0.4-3.1,1.6c0,0-2.3-0.4,1.6-6.2c3.9-5.8,9.3-31.4,9.3-31.4s-6.6-9.7-12-12.4s-10.1-16.7-10.1-16.7
		s1.9-2.7-14.7,3.7L141,222.7l0.8,6.6c0,0-2.3,7-4.3,6.6c0,0-1.2,19.4,1.6,24.4c2.8,5-1.6,7.4-1.6,7.4l-1.9,5.8
		c0,0-10.1-10.1-13.6-7c0,0-1.9-0.4,0.8-8.1c0,0,4.7-25.6,0.4-37.6c-4.3-12-5.8-20.6-5.8-20.6l-4.7-2.3c0,0-5,22.9-1.2,29.1
		c0,0,1.2,3.5-2.3,7.4s-4.3,27.6-4.3,27.6s-1.2,3.1-2.7,3.9c0,0-7.8-1.9-8.5-5c-0.8-3.1-3.9,0-3.9,0s-1.2-2.3,0.4-3.9
		c1.6-1.6,5-18.2,5-18.2s2.3-31-7-48.9c0,0-5.8-8.9-3.9-14.7s2.7-29.9,2.7-29.9s3.1-29.1-3.5-36.9c0,0-10.9,3.5-14.4,6.6
		c0,0-5,1.2-7-0.8c0,0-9.3,1.9-12-2.3c-2.7-4.3-1.2-12.8-1.2-12.8s2.3-5.8,4.7-5.8c2.3,0,11.3-14.4,11.3-14.4L108.3,63.3z"/>
	<path d="M105.2,78.1c0,0,24.4-6.2,26-4.3l-17.5,14.4C113.7,88.2,109.4,78.9,105.2,78.1z"/>
	<path d="M194.8,171.6c0,0-4.7-1.6-5.8,5.8s-2.7,5-2.7,5l2.7,1.2l2.3,2.3l-5,5.8c0,0,7.4-1.2,1.6,6.6c0,0,4.3,3.5-1.6,7.8
		c0,0,8.1-3.5,6.2,1.2c0,0,6.2-1.9,2.3,5.4l0.4,2.7c0,0,8.1-1.9,0,5.4c0,0,7-6.6,10.5-4.7c0,0,2.3-0.8,3.5-6.2s3.5-1.2,3.5-1.2
		s2.3-5.4-5.4-0.4c-7.8,5,3.1-9.7,3.1-9.7s-0.4-7.4,3.5-10.9s-10.5-7.8-10.5-7.8L194.8,171.6z"/>
	<path d="M148.6,18.3c0,0,14.7,20.2-8.9,41.9l6.6-1.6c0,0-11.6,10.5-19,8.5l-19-3.9c0,0-11.3,13.6-19,12S73,76,73,76l12-33.4
		l39.2-5.6l22.9-3.5L148.6,18.3z"/>
	<path d="M139.7,188.3c0,0-3.9,1.6-3.5,4.7c0,0-1.2,3.9-2.3,4.7l2.7,1.2c0,0-1.6,5.8-3.1,6.2l3.1,0.8l-5,6.2l6.6,3.1l-1.9,5.4
		l3.5,0.4l0.4,3.1c0,0,3.9-1.9,3.9-4.7c0-2.7,3.1,1.9,3.1,1.9s0.4-0.4,0.4-3.5s0-3.1,0-3.1l2.3-10.5c0,0,3.9-5,5-3.1
		c1.2,1.9,2.3-3.9,2.3-3.9l-2.3-3.9L139.7,188.3z"/>
	<path d="M71.8,87c0,0-20.6-7.4-3.1-39.6c0,0,7.4-10.9,20.2-14.7l-7.8,8.5c0,0,19-17.9,41.9-8.9s14.4-10.9,14.4-10.9s6.6,8.9,5,11.3
		c0,0,5.8-13.2,3.5-17.5c0,0,4.7,4.3,3.5,8.1c0,0,3.9,12.4-1.6,18.6l-0.8-5c0,0-2.3,7.8-13.2,8.9c0,0,7.4-4.7,7.4-9.3
		c0,0-10.1,7-15.1,5c0,0,4.7,2.7,6.2,1.6c0,0-8.5,9.7-15.9,7l1.2-2.7l-15.5,2.3l14.7-7.4c0,0-26-0.8-28.7,7l8.1-1.9l-4.3,3.1
		l4.3-0.8c0,0-11.3,7-10.5,9.3c0,0,8.5-7.4,10.1-6.2L93.9,56l4.8-2.1l1.4-0.6l2.3,1.9c0,0-12,6.6-12,8.9h4.7c0,0-11.6,10.9-14.4,9.7
		c0,0,8.5-1.2,10.5-1.2c1.9,0-1.9,2.7-1.9,2.7S68.7,75,71.8,87z"/>
	<path d="M113.7,218.2c0,0,0,3.5,3.5-1.2c0,0,3.1-0.8,1.2-3.1c0,0-3.1,2.3-2.7-1.2l-3.1,2.3L113.7,218.2z"/>
	<path d="M193.2,173.6c0,0,1.9-1.2,1.9-5c0-3.9,5.8-3.5,5.8-3.5s2.7-0.8,2.7-2.3c0,0,0.8,4.7-0.8,5.4s-2.7,2.7-2.7,2.7
		s0,3.1,3.1,2.7c0,0,0.4,2.3-0.4,3.5c0,0-3.1,1.2-2.3,2.7l-1.6,2.3l-2.7-0.8l1.9-5l-2.9,2.7l0.8-4.7L193.2,173.6z"/>
	<path d="M139.7,188.3c0,0,1.9-3.9,5.8-1.6c0,0,3.1,5,4.7,3.1c0,0,1.9-8.5,5.4-9.3s3.1,1.2,3.1,1.2s-3.9,1.6-2.7,3.1
		c0,0,2.7-1.2,1.9,3.1s-3.9,3.1-3.1,5.4s-2.7,3.5-2.7,3.5l-0.4-3.5l-2.7,2.3l-2.3-4.3l-3.5,4.7v-5.8l-3.9,3.5L139.7,188.3z"/>
	<path d="M149.8,204.2c0,0,0.8,3.1,3.9,3.5c3.1,0.4-1.6,4.7-1.6,4.7s-3.1,3.5-4.3,1.6s-4.7-3.5-4.7-3.5l5-1.2l-1.6-5h3.3V204.2z"/>
	<path d="M206.1,176.7c0,0,2.7,3.9,4.7-5.4c0,0,4.7-2.3,4.7-0.4c0,0-3.5,4.7,0,7.8s0,5.4,0,5.4s0.4,4.3-1.6,3.9l-1.6-1.6l-5.4,3.5
		c0,0,4.7-7.8-1.2-7.8l-2.3-1.9L206.1,176.7z"/>
	<path d="M208.8,198.4l-5,0.8l4.3,1.6l-1.6,2.3c0,0,4.3,0.4,6.2-3.9s-2.3-3.5-2.3-3.5L208.8,198.4z"/>
</g>
<g>
	<path class="st1" d="M158.6,189.3c0,0-7,9.9-3.5,30.9c0,0,0.6,4.7-4.7,8.1c-5.2,3.5-6.4,19.2-6.4,19.2s0,2.9-1.7,3.5
		s-9.9-1.2-9.9-1.2l-1.2-7.6c0,0,8.7-20.4,10.5-20.4c0,0-1.7-4.1-2.9-7.6s7-20.4,7-20.4S156.2,191.7,158.6,189.3z"/>
	<path class="st2" d="M142.3,251c0,0-1.6,3.7,0,4.9c0,0-7,4.3-9.3,2.7s-0.6-8.7-0.6-8.7L142.3,251z"/>
	<path class="st3" d="M84.4,255.5c0,0-6.6,8.1-5,10.9c1.6,2.7,16.3-0.8,16.3-0.8s-0.4-3.1,1.2-5S86.8,251.2,84.4,255.5z"/>
	<path class="st3" d="M116.6,261.3c0,0-6.6,9.3-3.5,12.8s17.5-1.2,17.5-1.2l-0.4-4.7C130.2,268.3,118.6,256.3,116.6,261.3z"/>
	<path class="st3" d="M171.7,257c0,0-5,6.6-3.1,9.3c1.9,2.7,15.5-1.2,15.5-1.2l1.2-6.6C185.3,258.6,173.3,252.8,171.7,257z"/>
	<path class="st4" d="M110.8,85.1c0,0,0.4,51.6,28.7,50.8s46.2,16.7,46.2,16.7s7.4-3.5,9.7,5s10.5,2.3,10.5,2.3l3.1,1.2v-2.7
		c0,0,2.7,1.9,1.9,3.1c0,0,3.5-3.9,4.3-7.8c0,0,1.2-2.7,3.5-2.3s0.4-2.3,0.4-2.3s-5.4-3.9,2.3-12.8c7.8-8.9,14.7-5,14.7-5
		s2.3-3.5,4.3-9.3c0,0,3.5-0.4,1.6-6.6l3.1-10.5l-4.7-8.1l-6.6,10.9c0,0-5.4,1.6-9.7-1.9s-33.8-6.6-33.8-6.6L173.7,127
		c0,0-6.2,4.7-9.7,3.1c0,0-1.6-5.4-4.7-1.6c0,0-5.8,0.4-6.2-1.9c-0.4-2.3-10.5-2.3-10.5-2.3l-3.1-1.9l-1.9,2.3l2.3,2.7
		c0,0-3.9,0.8-4.3,2.3c0,0-4.3-1.6-3.5-3.1c0.8-1.6-2.7-3.5-2.7-3.5l2.7-10.5c0,0,0.8-1.9,3.5-1.2c2.7,0.8,0.8-5.4,0.8-5.4
		s-3.9-6.2-7-1.9c-3.1,4.3-1.9,1.9-1.9,1.9s-4.3-4.7-4.7-3.5c-0.4,1.2,6.2-3.5-1.2-6.2l-0.4-9.3l-6.2-3.1L110.8,85.1z"/>
	<path class="st5" d="M116.6,78.9c0,0,3.9-2.3,4.7-0.8s-1.2,5-1.2,5l2.7,2.3c0,0,3.9-3.5,4.3-1.6c0,0-1.6,4.3-0.4,5.4
		s-1.6,2.3-1.6,2.3s-4.3-2.7-3.5,4.7l-2.3-8.5l-3.1,1.2l0.4-3.1l-5.8-0.8L116.6,78.9z"/>
	<path class="st5" d="M136.4,106.1c0,0,5,0.4,4.3,5c0,0-3.5-2.7-2.7,1.6l-1.2,2.3c0,0-0.8-7-5.8-7.4L136.4,106.1z"/>
	<path class="st5" d="M132.2,112.7c0,0,6.6,3.9,3.1,5c0,0-1.2,5.8-2.7,5c-1.6-0.8-3.1,0.4-3.1,0.4l1.9-3.1l-4.3-2.7l3.1-0.8v-3.1
		L132.2,112.7z"/>
	<path class="st5" d="M142.6,124.3c0,0,2.7-1.6,3.5-3.5s3.1,1.9,3.1,1.9s4.3-0.4,5.4-2.7c1.2-2.3,3.5,1.9,3.5,1.9s-3.9,2.3-3.1,4.3
		c0.8,1.9-5,0-5,0l-1.6,4.3l-3.1-4.3l-2.7,1.9L142.6,124.3L142.6,124.3z"/>
	<path class="st5" d="M167.1,129.4c0,0,3.9,4.7,5.8,0.4c0,0-2.3-4.7-3.5-3.1C168.3,128.2,167.1,129.4,167.1,129.4z"/>
	<path class="st5" d="M173.3,125.1c0,0,0-3.1-1.6-3.9c0,0,8.1-10.9-3.1-18.6c0,0-1.6-1.6-2.7-2.7c-1.2-1.2,5-1.2,5-1.2l1.6-1.9
		c0,0,3.1,0,1.9,3.5c0,0,3.5,2.3,3.5,4.7c0,0,0.8-5,3.9-5c0,0,0.8-1.9-1.2-3.5c0,0,1.6-3.5,3.9-3.1s3.9,1.6,3.9,1.6s2.7-0.8,1.6-2.3
		c0,0,3.9,0.8,2.7,2.7c-1.2,1.9-0.8,3.5-0.8,3.5s14.4-11.3,25.2-1.2c10.9,10.1,10.9,10.1,10.9,10.1s4.3,6.2-0.4,8.1
		c0,0-2.3-8.5-6.6-8.5l-1.9,3.5l-2.7-1.6l-2.3,5.4c0,0,0.4-8.3-5.9-9.6c-0.2,0-0.4-0.1-0.7-0.1l1.2,3.1c0,0-6.2-7-13.2,3.1
		c0,0-1.9-5,1.2-5.8c0,0-9.3,4.7-3.9,19.8c0,0-3.9,1.2-3.5-2.3l0.8,6.2l-1.9-3.1l0.8,7.4l-3.5-5.8l-1.9,3.1l-1.6-6.2l-3.1,10.5
		L173.3,125.1z"/>
	<path class="st5" d="M233.8,107.6c0,0,8.1-9.3-1.6-15.9c0,0-1.2-3.1,2.3-2.7c0,0,2.3-1.6,3.1-3.5s2.7,0.8,2.7,0.8s1.6,5.4,6.6,7.4
		c5,1.9-1.6,6.2-1.6,6.2s-4.3,1.2,0.8,3.5c5,2.3-2.3,2.7-2.7,5.8v-4.3l-2.7,3.5l0.4-7L233.8,107.6z"/>
	<path class="st4" d="M104.6,219.8c0,0,3.1-7.4,3.9-6.6c0.8,0.8,1.9-5.4,1.9-5.4s2.7-3.5,3.9-1.9c1.2,1.6,5-8.9,5-8.9l-8.9-10.1
		l-8.5,5.8L104.6,219.8z"/>
	<path class="st6" d="M103.1,58.3c0,0,26,4.3,26.8,7.8c0.8,3.5-17.9,17.5-17.9,17.5s6.6,52.4,27.6,52.4s17.1-1.9,17.1-1.9
		s15.1-4.3,23.7,10.5c8.5,14.7,8.9,18.2,8.9,18.2s0.8,7.8-0.8,9.3l7.4,38.8c0,0,4.3,5.8,1.2,10.1s-7,19.8-7,19.8l-0.8,10.5
		c0,0,1.2,5.4-3.9,7.4c0,0-3.9,0.4-10.5-3.1c0,0-2.7-0.4-3.1,1.6c0,0-2.3-0.4,1.6-6.2c3.9-5.8,9.3-31.4,9.3-31.4s-6.6-9.7-12-12.4
		s-10.1-16.7-10.1-16.7s1.9-2.7-14.7,3.7l-10.1,23.5l0.8,6.6c0,0-2.3,7-4.3,6.6c0,0-1.2,19.4,1.6,24.4c2.8,5-1.6,7.4-1.6,7.4
		l-1.9,5.8c0,0-10.1-10.1-13.6-7c0,0-1.9-0.4,0.8-8.1c0,0,4.7-25.6,0.4-37.6c-4.3-12-5.8-20.6-5.8-20.6l-4.7-2.3
		c0,0-5,22.9-1.2,29.1c0,0,1.2,3.5-2.3,7.4S99.7,257,99.7,257s-1.2,3.1-2.7,3.9c0,0-7.8-1.9-8.5-5c-0.8-3.1-3.9,0-3.9,0
		s-1.2-2.3,0.4-3.9c1.6-1.6,5-18.2,5-18.2s2.3-31-7-48.9c0,0-5.8-8.9-3.9-14.7s2.7-29.9,2.7-29.9s3.1-29.1-3.5-36.9
		c0,0-10.9,3.5-14.4,6.6c0,0-5,1.2-7-0.8c0,0-9.3,1.9-12-2.3c-2.7-4.3-1.2-12.8-1.2-12.8s2.3-5.8,4.7-5.8c2.3,0,11.3-14.4,11.3-14.4
		L103.1,58.3z"/>
	<path class="st7" d="M100,73.1c0,0,24.4-6.2,26-4.3l-17.5,14.4C108.5,83.2,104.2,73.9,100,73.1z"/>
	<path class="st4" d="M189.6,166.6c0,0-4.7-1.6-5.8,5.8s-2.7,5-2.7,5l2.7,1.2l2.3,2.3l-5,5.8c0,0,7.4-1.2,1.6,6.6
		c0,0,4.3,3.5-1.6,7.8c0,0,8.1-3.5,6.2,1.2c0,0,6.2-1.9,2.3,5.4l0.4,2.7c0,0,8.1-1.9,0,5.4c0,0,7-6.6,10.5-4.7c0,0,2.3-0.8,3.5-6.2
		s3.5-1.2,3.5-1.2s2.3-5.4-5.4-0.4c-7.8,5,3.1-9.7,3.1-9.7s-0.4-7.4,3.5-10.9s-10.5-7.8-10.5-7.8L189.6,166.6z"/>
	<path class="st4" d="M143.4,13.3c0,0,14.7,20.2-8.9,41.9l6.6-1.6c0,0-11.6,10.5-19,8.5l-19-3.9c0,0-11.3,13.6-19,12
		S67.8,71,67.8,71l12-33.4L119,32l22.9-3.5L143.4,13.3z"/>
	<path class="st4" d="M134.5,183.3c0,0-3.9,1.6-3.5,4.7c0,0-1.2,3.9-2.3,4.7l2.7,1.2c0,0-1.6,5.8-3.1,6.2l3.1,0.8l-5,6.2l6.6,3.1
		l-1.9,5.4l3.5,0.4l0.4,3.1c0,0,3.9-1.9,3.9-4.7c0-2.7,3.1,1.9,3.1,1.9s0.4-0.4,0.4-3.5s0-3.1,0-3.1l2.3-10.5c0,0,3.9-5,5-3.1
		c1.2,1.9,2.3-3.9,2.3-3.9l-2.3-3.9L134.5,183.3z"/>
	<path class="st5" d="M66.6,82c0,0-20.6-7.4-3.1-39.6c0,0,7.4-10.9,20.2-14.7l-7.8,8.5c0,0,19-17.9,41.9-8.9s14.4-10.9,14.4-10.9
		s6.6,8.9,5,11.3c0,0,5.8-13.2,3.5-17.5c0,0,4.7,4.3,3.5,8.1c0,0,3.9,12.4-1.6,18.6l-0.8-5c0,0-2.3,7.8-13.2,8.9
		c0,0,7.4-4.7,7.4-9.3c0,0-10.1,7-15.1,5c0,0,4.7,2.7,6.2,1.6c0,0-8.5,9.7-15.9,7l1.2-2.7l-15.5,2.3l14.7-7.4c0,0-26-0.8-28.7,7
		l8.1-1.9l-4.3,3.1l4.3-0.8c0,0-11.3,7-10.5,9.3c0,0,8.5-7.4,10.1-6.2L88.7,51l4.8-2.1l1.4-0.6l2.3,1.9c0,0-12,6.6-12,8.9h4.7
		c0,0-11.6,10.9-14.4,9.7c0,0,8.5-1.2,10.5-1.2c1.9,0-1.9,2.7-1.9,2.7S63.5,70,66.6,82z"/>
	<path class="st5" d="M108.5,213.2c0,0,0,3.5,3.5-1.2c0,0,3.1-0.8,1.2-3.1c0,0-3.1,2.3-2.7-1.2l-3.1,2.3L108.5,213.2z"/>
	<path class="st5" d="M188,168.6c0,0,1.9-1.2,1.9-5c0-3.9,5.8-3.5,5.8-3.5s2.7-0.8,2.7-2.3c0,0,0.8,4.7-0.8,5.4s-2.7,2.7-2.7,2.7
		s0,3.1,3.1,2.7c0,0,0.4,2.3-0.4,3.5c0,0-3.1,1.2-2.3,2.7l-1.6,2.3l-2.7-0.8l1.9-5L190,174l0.8-4.7L188,168.6z"/>
	<path class="st5" d="M134.5,183.3c0,0,1.9-3.9,5.8-1.6c0,0,3.1,5,4.7,3.1c0,0,1.9-8.5,5.4-9.3s3.1,1.2,3.1,1.2s-3.9,1.6-2.7,3.1
		c0,0,2.7-1.2,1.9,3.1s-3.9,3.1-3.1,5.4s-2.7,3.5-2.7,3.5l-0.4-3.5l-2.7,2.3l-2.3-4.3L138,191v-5.8l-3.9,3.5L134.5,183.3z"/>
	<path class="st5" d="M144.6,199.2c0,0,0.8,3.1,3.9,3.5c3.1,0.4-1.6,4.7-1.6,4.7s-3.1,3.5-4.3,1.6s-4.7-3.5-4.7-3.5l5-1.2l-1.6-5
		h3.3V199.2z"/>
	<path class="st5" d="M200.9,171.7c0,0,2.7,3.9,4.7-5.4c0,0,4.7-2.3,4.7-0.4c0,0-3.5,4.7,0,7.8s0,5.4,0,5.4s0.4,4.3-1.6,3.9
		l-1.6-1.6l-5.4,3.5c0,0,4.7-7.8-1.2-7.8l-2.3-1.9L200.9,171.7z"/>
	<path class="st5" d="M203.6,193.4l-5,0.8l4.3,1.6l-1.6,2.3c0,0,4.3,0.4,6.2-3.9s-2.3-3.5-2.3-3.5L203.6,193.4z"/>
</g>
</svg>
