<?xml version="1.0" encoding="utf-8"?>
<!-- Generator: Adobe Illustrator 23.0.6, SVG Export Plug-In . SVG Version: 6.00 Build 0)  -->
<svg version="1.1" id="Layer_1" xmlns="http://www.w3.org/2000/svg" xmlns:xlink="http://www.w3.org/1999/xlink" x="0px" y="0px"
	 viewBox="0 0 288 288" style="enable-background:new 0 0 288 288;" xml:space="preserve">
<style type="text/css">
	.st0{opacity:0.5;}
	.st1{fill:#854C50;}
	.st2{fill:#66A9B1;}
	.st3{fill:#51737A;}
	.st4{fill:#A3D0DA;}
	.st5{fill:#EEC8CC;}
	.st6{fill:#D96D78;}
</style>
<g class="st0">
	<polygon points="162.6,217.8 230.9,135.1 233.9,157.4 179.9,251.4 	"/>
	<polygon points="93.3,228.2 67.6,215.3 72.5,171.2 98.7,161.3 83.9,204.9 96.8,214.3 	"/>
	<polygon points="219.5,125.2 240.3,14.3 246.7,22.2 236.8,145 231.9,149 230.9,135.1 	"/>
	<polygon points="187.3,261.3 192.8,270.2 235.9,287.1 277.9,196.5 278.4,172.2 253.2,192 229.9,275.2 	"/>
	<polygon points="93.3,228.2 96.8,214.3 83.9,204.9 162.6,217.8 179.9,251.4 142.3,239 110.1,220.7 101.7,232.6 	"/>
	<polygon points="47.8,182.5 86.9,140.9 93.8,163.2 	"/>
	<polygon points="219.5,125.2 210.6,116.3 200.2,118.3 233.4,11.9 240.3,14.3 	"/>
	<polygon points="253.2,192 204.2,168.3 237.8,156.4 278.4,172.2 	"/>
	<polygon points="162.6,217.8 146.3,134.6 174.5,169.3 	"/>
	<polygon points="47.8,182.5 76.5,133.5 86.9,140.9 	"/>
	<polygon points="47.8,182.5 17.6,172.1 30.4,120.6 76.5,133.5 	"/>
	<polygon points="146.3,134.6 141.8,132.6 124,152.9 98.7,161.3 83.9,204.9 162.6,217.8 	"/>
	<polygon points="204.2,168.3 187.3,261.3 229.9,275.2 253.2,192 	"/>
	<polygon points="146.3,134.6 141.8,132.6 155.2,119.8 157.6,121.7 200.2,118.3 	"/>
	<polygon points="76.5,133.5 30.4,120.6 71.5,56.3 109.1,33.5 144.8,38.5 127.5,69.2 	"/>
	<polygon points="86.9,140.9 143.8,86 172.5,73.6 164.6,109.8 124,153.8 93.8,163.2 	"/>
	<polygon points="86.9,140.9 76.5,133.5 127.5,69.2 144.8,38.5 172.5,73.6 143.8,86 	"/>
	<polygon points="146.3,134.6 200.2,118.3 210.6,116.3 230.9,135.1 162.6,217.8 174.5,169.3 	"/>
</g>
<g>
	<polygon class="st1" points="158.3,213.5 226.6,130.8 229.6,153.1 175.6,247.1 	"/>
	<polygon class="st2" points="89,223.9 63.3,211 68.2,166.9 94.4,157 79.6,200.6 92.5,210 	"/>
	<polygon class="st3" points="215.2,120.9 236,10 242.4,17.9 232.5,140.7 227.6,144.7 226.6,130.8 	"/>
	<polygon class="st3" points="183,257 188.5,265.9 231.6,282.8 273.6,192.2 274.1,167.9 248.9,187.7 225.6,270.9 	"/>
	<polygon class="st3" points="89,223.9 92.5,210 79.6,200.6 158.3,213.5 175.6,247.1 138,234.7 105.8,216.4 97.4,228.3 	"/>
	<polygon class="st3" points="43.5,178.2 82.6,136.6 89.5,158.9 	"/>
	<polygon class="st2" points="215.2,120.9 206.3,112 195.9,114 229.1,7.6 236,10 	"/>
	<polygon class="st2" points="248.9,187.7 199.9,164 233.5,152.1 274.1,167.9 	"/>
	<polygon class="st2" points="158.3,213.5 142,130.3 170.2,165 	"/>
	<polygon class="st2" points="43.5,178.2 72.2,129.2 82.6,136.6 	"/>
	<polygon class="st4" points="43.5,178.2 13.3,167.8 26.1,116.3 72.2,129.2 	"/>
	<polygon class="st4" points="142,130.3 137.5,128.3 119.7,148.6 94.4,157 79.6,200.6 158.3,213.5 	"/>
	<polygon class="st4" points="199.9,164 183,257 225.6,270.9 248.9,187.7 	"/>
	<polygon class="st5" points="142,130.3 137.5,128.3 150.9,115.5 153.3,117.4 195.9,114 	"/>
	<polygon class="st5" points="72.2,129.2 26.1,116.3 67.2,52 104.8,29.2 140.5,34.2 123.2,64.9 	"/>
	<polygon class="st1" points="82.6,136.6 139.5,81.7 168.2,69.3 160.3,105.5 119.7,149.5 89.5,158.9 	"/>
	<polygon class="st6" points="82.6,136.6 72.2,129.2 123.2,64.9 140.5,34.2 168.2,69.3 139.5,81.7 	"/>
	<polygon class="st6" points="142,130.3 195.9,114 206.3,112 226.6,130.8 158.3,213.5 170.2,165 	"/>
</g>
</svg>
