<?xml version="1.0" encoding="utf-8"?>
<!-- Generator: Adobe Illustrator 23.0.6, SVG Export Plug-In . SVG Version: 6.00 Build 0)  -->
<svg version="1.1" id="Layer_1" xmlns="http://www.w3.org/2000/svg" xmlns:xlink="http://www.w3.org/1999/xlink" x="0px" y="0px"
	 viewBox="0 0 288 288" style="enable-background:new 0 0 288 288;" xml:space="preserve">
<style type="text/css">
	.st0{opacity:0.5;}
	.st1{fill:#826A65;}
	.st2{fill:#191E1E;}
	.st3{fill:#F0DFD4;}
	.st4{fill:#EACFD8;}
	.st5{fill:#AD8F95;}
	.st6{fill:#BEA18E;}
	.st7{fill:#4E4F50;}
</style>
<g class="st0">
	<path d="M102.1,213.6c0,0-30.1,7.8-33.5,7.8s-8.7,11.2-8.7,11.2s-1.9,9.2,7.3,15c0,0,12.6,2.4,12.6,4.8c0,0-2.9,3.4-2.9,5.3
		s6.8,10.7,6.8,10.7v3.9l14.5,13.1c0,0,6.3,2.4,8.7-1.9s5.8-11.6,5.8-11.6s4.4-7.3,15.5-12.1c11.1-4.8,6.3-17.5,6.3-17.5
		s-8.2-7.8-10.7-7.3l19.4-6.8C143.4,228.1,105.1,213.1,102.1,213.6z"/>
	<path d="M68.8,161.7l-11.6-2.4L46,162.2l-4.8-1.5c0,0-6.8-24.2-5.3-27.1c1.5-2.9,3.4-16.5,3.4-16.5s3.4-6.8,13.6-7.8
		s7.8-10.7,7.8-10.7l5.8-1.9c0,0,7.3-12.6,2.9-21.3s-28.6-2.9-28.6-2.9S21.4,77.8,17,99.2s0.5,30.1,0.5,30.1v8.2
		c0,0,4.8,38.3,11.6,40.7s22.3,3.9,22.3,3.9s28.1,1.9,32,5.3C87.2,190.8,68.8,161.7,68.8,161.7z"/>
	<path d="M84.2,248.5c0,0-0.5-11.6,14.5-17.9c0,0,9.2-2.9,17.9,4.4C116.7,234.9,96.3,235.9,84.2,248.5z"/>
	<path d="M13.9,135.5l27.6-0.5l1.5-16.5c0,0-25.7-3.9-32.5,1.5L13.9,135.5z"/>
	<path d="M88.6,109.8L68.2,104l3.4,3.9l-10.7-3.4c0,0-1.9,3.4-3.9,3.4l4.4,4.4l-5.3-0.5l19.4,28.1c0,0-1.9,10.2-1.9,13.1l-3.4,1.5
		l1,3.4l-7.8-1l6.3,4.8l-10.2,7.8l9.7-1.9l-1.5,2.9L74,170c0,0,1.5,26.7,19.4,34.4l-4.8,5.8h8.2l-2.4,6.3l7.8-2.9l-3.4,12.1
		l13.1-6.3l1.5,6.3l2.9-5.3c0,0,12.1,6.3,17.9,6.3l12.6,12.1v-8.2l31,18.4l-5.8-12.6l7.8,1.9l-5.8-9.7l4.8,1.9l-3.9-7.3l16.5,6.8
		l-4.8-7.3h4.8l-3.4-4.8h17l-8.2-8.2l6.8-1.5l-4.4-4.8l9.7-1l9.2-58.7l6.3-6.8l-8.7-0.5l4.4-2.9l-4.8,0.5l7.3-9.2l-10.2,0.5
		l8.7-13.6l-7.8,3.9l9.7-20.4l-20,13.6l1.5-5.8l-2.9,2.4l1-8.2l-9.7,7.8l-14.5-29.1l-11.6,10.7L166.3,74l-5.3,8.7
		c0,0-27.6-32.5-30.1-31.5l2.4,7.3l-13.6-12.1L119.2,74l-2.4,2.4l-1-10.2c0,0-5.8,12.1-5.3,13.6l-1.9-11.2c0,0-7.8,25.2-7.8,33.5
		l-7.3-16.5C93.4,85.6,87.6,102.5,88.6,109.8z"/>
	<path d="M102.6,159.3c0,0,19.4-5.3,19.4,9.2S108.9,186,108.9,186s-19.8,2.8-18.9-9.8C91,163.6,102.6,159.3,102.6,159.3z"/>
	<path d="M125.9,95.7c0,0-3.4-34.4-1.9-34.4s20.8,31.5,20.8,31.5l-4.4-2.4l-0.5,4.8l-4.4-5.3l-1.5,8.2l-4.4-7.8L125.9,95.7z"/>
	<path d="M77.4,136.5l-11.2-20.4c0,0,17.5,8.7,17.9,11.2l-3.4-0.5l1.9,6.3l-4.4-2.4L77.4,136.5z"/>
	<path d="M177.8,177.7c0,0,10.7-3.9,8.7-1.5c-1.9,2.4-9.2,13.6-9.2,13.6l3.9-1.9l-1,5.8c0,0,11.6,6.3,22.8-1l5.8,9.7
		c0,0-9.7,27.6,1.5,33c11.2,5.3,18.4,5.8,18.4,5.8s4.4,0.5,11.2-9.2s14.1-10.7,14.1-10.7c1.4-0.7,3.6-1.5,6.3-1.9
		c4.7-0.7,6,0.7,10.2,0c1-0.2,8-1.3,9.2-5.8c0.6-2.1-0.3-4.2-1-5.3c-0.6-1.6-1.5-3.7-2.8-6.2c-1.8-3.5-3.6-7-6.9-10.3
		c-1.7-1.8-4.7-4.3-9.2-6.3c0.4-0.8,1-2,0.9-3.4c-0.1-1.8-0.9-4-3.8-6.3c-6.3-4.8-8.2-7.3-8.2-7.3s-10.2-2.9-14.1,7.8h-1.9l2.9-21.8
		c0,0-6.3-11.6-11.6-11.6s-16,7.8-16,7.8S179.2,173.8,177.8,177.7z"/>
	<path d="M162.7,108.8c0,0,17.5-32,16-38.3l-6.3-1c0,0-13.1-23.8-19.4-22.8c-6.3,1-23.3-4.8-23.3-4.8s-6.3,7.3-5.3,10.7
		s-8.7,6.8-8.7,6.8s-26.2,2.9-35.9-3.9s2.4-26.7,2.4-26.7s4.8-15.5,15-16s17.5-1,17.5-1s8.7-2.4,12.1-4.8s32.5,10.2,32.5,10.2
		s26.2,26.2,31.5,28.1c5.3,1.9,14.1,13.1,14.1,13.1s0.5,6.8-1.5,13.1c-1.9,6.3-13.6,55.8-13.6,55.8l-4.4-3.9l-2.9,9.2l-2.4-13.6
		l-4.8,11.2C175.4,130.2,161.8,116.6,162.7,108.8z"/>
	<path d="M129.8,41.9c0,0,23.8-4.4,25.2-17c1.5-12.6-14.5-14.5-14.5-14.5s8.7-6.8,18.9-1.5s13.1,12.6,13.1,12.6s7.8,15.5-5.8,24.7
		s-21.3,9.2-21.3,9.2S127.4,50.7,129.8,41.9z"/>
	<path d="M210.7,197.6c0,0,23.3-17.9,23.8-21.3c0,0-23.3-5.3-29.1,9.7c0,0-5.3,11.6,3.4,16.5L210.7,197.6z"/>
</g>
<g>
	<path class="st1" d="M97.1,208.4c0,0-30.1,7.8-33.5,7.8s-8.7,11.2-8.7,11.2s-1.9,9.2,7.3,15c0,0,12.6,2.4,12.6,4.8
		c0,0-2.9,3.4-2.9,5.3c0,1.9,6.8,10.7,6.8,10.7v3.9l14.5,13.1c0,0,6.3,2.4,8.7-1.9s5.8-11.6,5.8-11.6s4.4-7.3,15.5-12.1
		s6.3-17.5,6.3-17.5s-8.2-7.8-10.7-7.3l19.4-6.8C138.4,222.9,100.1,207.9,97.1,208.4z"/>
	<path class="st1" d="M63.8,156.5l-11.6-2.4L41,157l-4.8-1.5c0,0-6.8-24.2-5.3-27.1c1.5-2.9,3.4-16.5,3.4-16.5s3.4-6.8,13.6-7.8
		s7.8-10.7,7.8-10.7l5.8-1.9c0,0,7.3-12.6,2.9-21.3s-28.6-2.9-28.6-2.9S16.4,72.6,12,94s0.5,30.1,0.5,30.1v8.2
		c0,0,4.8,38.3,11.6,40.7s22.3,3.9,22.3,3.9s28.1,1.9,32,5.3C82.2,185.6,63.8,156.5,63.8,156.5z"/>
	<path class="st2" d="M79.2,243.3c0,0-0.5-11.6,14.5-17.9c0,0,9.2-2.9,17.9,4.4C111.7,229.7,91.3,230.7,79.2,243.3z"/>
	<path class="st2" d="M8.9,130.3l27.6-0.5l1.5-16.5c0,0-25.7-3.9-32.5,1.5L8.9,130.3z"/>
	<path class="st3" d="M83.6,104.6l-20.4-5.8l3.4,3.9l-10.7-3.4c0,0-1.9,3.4-3.9,3.4l4.4,4.4l-5.3-0.5l19.4,28.1
		c0,0-1.9,10.2-1.9,13.1l-3.4,1.5l1,3.4l-7.8-1l6.3,4.8l-10.2,7.8l9.7-1.9l-1.5,2.9l6.3-0.5c0,0,1.5,26.7,19.4,34.4l-4.8,5.8h8.2
		l-2.4,6.3l7.8-2.9l-3.4,12.1l13.1-6.3l1.5,6.3l2.9-5.3c0,0,12.1,6.3,17.9,6.3l12.6,12.1v-8.2l31,18.4l-5.8-12.6l7.8,1.9l-5.8-9.7
		l4.8,1.9l-3.9-7.3l16.5,6.8l-4.8-7.3h4.8l-3.4-4.8h17l-8.2-8.2l6.8-1.5l-4.4-4.8l9.7-1l9.2-58.7l6.3-6.8l-8.7-0.5l4.4-2.9l-4.8,0.5
		l7.3-9.2l-10.2,0.5l8.7-13.6l-7.8,3.9L218,90l-20,13.6l1.5-5.8l-2.9,2.4l1-8.2l-9.7,7.8l-14.5-29.1l-11.6,10.7l-0.5-12.6l-5.3,8.7
		c0,0-27.6-32.5-30.1-31.5l2.4,7.3l-13.6-12.1l-0.5,27.6l-2.4,2.4l-1-10.2c0,0-5.8,12.1-5.3,13.6l-1.9-11.2c0,0-7.8,25.2-7.8,33.5
		l-7.3-16.5C88.4,80.4,82.6,97.3,83.6,104.6z"/>
	<path class="st4" d="M97.6,154.1c0,0,19.4-5.3,19.4,9.2s-13.1,17.5-13.1,17.5S84.1,183.6,85,171C86,158.4,97.6,154.1,97.6,154.1z"
		/>
	<path class="st5" d="M120.9,90.5c0,0-3.4-34.4-1.9-34.4s20.8,31.5,20.8,31.5l-4.4-2.4l-0.5,4.8l-4.4-5.3l-1.5,8.2l-4.4-7.8
		L120.9,90.5z"/>
	<path class="st5" d="M72.4,131.3l-11.2-20.4c0,0,17.5,8.7,17.9,11.2l-3.4-0.5l1.9,6.3l-4.4-2.4L72.4,131.3z"/>
	<path class="st6" d="M172.8,172.5c0,0,10.7-3.9,8.7-1.5c-1.9,2.4-9.2,13.6-9.2,13.6l3.9-1.9l-1,5.8c0,0,11.6,6.3,22.8-1l5.8,9.7
		c0,0-9.7,27.6,1.5,33c11.2,5.3,18.4,5.8,18.4,5.8s4.4,0.5,11.2-9.2s14.1-10.7,14.1-10.7c1.4-0.7,3.6-1.5,6.3-1.9
		c4.7-0.7,6,0.7,10.2,0c1-0.2,8-1.3,9.2-5.8c0.6-2.1-0.3-4.2-1-5.3c-0.6-1.6-1.5-3.7-2.8-6.2c-1.8-3.5-3.6-7-6.9-10.3
		c-1.7-1.8-4.7-4.3-9.2-6.3c0.4-0.8,1-2,0.9-3.4c-0.1-1.8-0.9-4-3.8-6.3c-6.3-4.8-8.2-7.3-8.2-7.3s-10.2-2.9-14.1,7.8h-1.9l2.9-21.8
		c0,0-6.3-11.6-11.6-11.6s-16,7.8-16,7.8S174.2,168.6,172.8,172.5z"/>
	<path class="st6" d="M157.7,103.6c0,0,17.5-32,16-38.3l-6.3-1c0,0-13.1-23.8-19.4-22.8c-6.3,1-23.3-4.8-23.3-4.8s-6.3,7.3-5.3,10.7
		s-8.7,6.8-8.7,6.8s-26.2,2.9-35.9-3.9s2.4-26.7,2.4-26.7s4.8-15.5,15-16s17.5-1,17.5-1s8.7-2.4,12.1-4.8S154.3,12,154.3,12
		s26.2,26.2,31.5,28.1c5.3,1.9,14.1,13.1,14.1,13.1s0.5,6.8-1.5,13.1c-1.9,6.3-13.6,55.8-13.6,55.8l-4.4-3.9l-2.9,9.2l-2.4-13.6
		l-4.8,11.2C170.4,125,156.8,111.4,157.7,103.6z"/>
	<path class="st7" d="M124.8,36.7c0,0,23.8-4.4,25.2-17c1.5-12.6-14.5-14.5-14.5-14.5s8.7-6.8,18.9-1.5s13.1,12.6,13.1,12.6
		s7.8,15.5-5.8,24.7s-21.3,9.2-21.3,9.2S122.4,45.5,124.8,36.7z"/>
	<path class="st7" d="M205.7,192.4c0,0,23.3-17.9,23.8-21.3c0,0-23.3-5.3-29.1,9.7c0,0-5.3,11.6,3.4,16.5L205.7,192.4z"/>
</g>
</svg>
