<?xml version="1.0" encoding="utf-8"?>
<!-- Generator: Adobe Illustrator 23.0.6, SVG Export Plug-In . SVG Version: 6.00 Build 0)  -->
<svg version="1.1" id="Layer_1" xmlns="http://www.w3.org/2000/svg" xmlns:xlink="http://www.w3.org/1999/xlink" x="0px" y="0px"
	 viewBox="0 0 288 360" style="enable-background:new 0 0 288 360;" xml:space="preserve">
<style type="text/css">
	.st0{opacity:0.5;}
	.st1{stroke:#9A5C53;stroke-miterlimit:10;}
	.st2{display:none;}
	.st3{display:inline;}
	.st4{fill:#AE9C95;}
	.st5{fill:#483D3B;}
	.st6{fill:#8C6E52;}
	.st7{fill:#C5C2C8;}
	.st8{fill:#6C647F;}
	.st9{fill:#615857;}
	.st10{fill:#FBFBFB;}
	.st11{fill:#F5F5F6;}
	.st12{fill:#D3C5B3;}
	.st13{fill:#AFB1B6;}
	.st14{fill:#9A5C53;}
	.st15{fill:#EAD8C7;}
	.st16{fill:#6F6059;}
	.st17{fill:#D0C9B9;}
	.st18{fill:#61524C;}
	.st19{fill:#84705F;}
	.st20{fill:#594841;}
	.st21{fill:none;stroke:#9A5C53;stroke-miterlimit:10;}
</style>
<g class="st0">
	<path d="M131.1,57.5c0,0-3-7-6-4s-3,6-3,6s1,12,11,15L131.1,57.5z"/>
	<path d="M187.6,74.7l2-16c0,0,4-8,7-5s3,5,3,5S197.6,76.7,187.6,74.7z"/>
	<path d="M148.8,92.9c-0.6,2.6-1.2,5.2-1.8,7.7c1.2,0.5,2.6,1.1,3.9,1.9c1.8,1,3.5,2,4.9,3c1.7,4.2,3.9,8.7,4.8,8.4
		c0.1,0,0.1,0,0.1-0.1c0.9-0.7,4.6-4.3,4.8-8.6c0-0.3,0-0.8,0.4-1.1c0.7-0.7,2.1-0.4,3.2,0c0.9-0.8,3-2.9,3.6-6.3c0.3-1.6,0.2-3,0-4
		L148.8,92.9z"/>
	<path d="M89.7,341.9c0,0-2.1,8.2,4.8,11.8s22.1,4.5,22.1,4.5s13.9,0.6,23.6-10.3c0,0,0.9-4.5,7-7c0,0,4.8-1.8,2.4-7.9
		s-5.8,1.5-5.8,1.5L89.7,341.9z"/>
	<path d="M181.7,341.9c0,0-0.3,13.6,7.9,15.1c8.2,1.5,18.5,1.5,18.5,1.5s20.3,0.3,20.6-6.4c0.3-6.7,0.6-10,0.6-10L181.7,341.9z"/>
	<path d="M98.8,333.1l-3.6,0.6c0,0-10.3,8.2-0.9,13s25.7,5.5,25.7,5.5s13.3,0.3,23.9-17.6l-26-12.4l-12.4,2.4L98.8,333.1z"/>
	<path d="M182.6,341.9c0,0,7.9,13.9,29.1,10.9s16.9-13.3,16.9-13.3l-2.4-3.9l-0.3-1.2l-9.1-10l-17.9-2.7l-14.5,11.8
		C184.5,333.4,180.8,339.1,182.6,341.9z"/>
	<path d="M155.4,276.5h14.5c0,0-3-37.8-8.5-38.8C156,236.8,155.4,276.5,155.4,276.5z"/>
	<path d="M102.1,281c0,0-0.9,30.9,1.5,33.6c0,0-5.2,7-3.3,10.9s0.3,6.4,0.3,6.4l3.6-2.7c0,0,2.7-6.7,11.8-5.8
		c9.1,0.9,18.2,7.9,18.2,7.9s10.9,5.8,15.4,1.8s3.9-11.5,3.9-11.5l-0.3-7.3l2.1-37.8c0,0,3.6-38.8,6.1-38.8c0,0,6.7,25.4,7.6,38.5
		c0.9,13,7.6,49.6,7.6,49.6s-3.6,11.2,5.1,16c0,0,2.4-7.6,6.7-7.6c0,0,21.8-14.8,29.7-5.5c0,0,7.6,3.6,7.9,5.5
		c0,0,2.7-19.7-6.7-30.3l-1.2-25.1l-41.2-80.2l-35.1,0.3L102.1,281z"/>
	<polygon points="141.8,199 176.9,198.7 176.7,186.5 142.7,186.3 	"/>
	<polygon points="168.4,199 167.8,186.3 150.3,186.3 150.3,199 	"/>
	<path d="M99.7,205.3c0,0-8.2,69.6-4.2,73.3c3.9,3.6,40.3,5.8,40.3,5.8l6.1-90.2l-10.3,0.9L99.7,205.3z"/>
	<path d="M176.9,94.8c0,0,35.7,12.4,40.3,22.1s5.8,17.3,5.8,17.3l4.5,4.2c0,0-2.1,5.8,1.5,11.8c3.6,6.1,8.2,35.1,8.2,35.1
		s-1.2,5.4-3.6,6.7S216.5,206,216.5,206v3c0,0,3-1.8,3.3,4.8s3.9,63.6,3.9,63.6s-31.2,10-44.8,8.2l-2.3-99.1
		c3.3-24,4.5-50.7,1.6-79.5C177.9,102.9,177.4,98.8,176.9,94.8z"/>
	<path d="M144.5,95.5c-4.9,1.1-11.9,3-20,6.1c-10.9,4.2-16.4,6.3-20.4,9.9c-15.8,14.1-13.9,45.4-13.9,45.4l0,0l-2.7,1.2
		c0,0-4.8,24.2-4.2,26s7.6,18.2,16.3,21.2c0,0,3,5.4,13.3,1.8s18.5-7,18.5-12.1L107,167.2l2.1-10.9l29.6-30.8c0,0-0.9-18.5,2.2-20.5
		s0,0,0,0c0.8-0.8,2.1-2.3,3-4.6C144.5,98.4,144.6,96.6,144.5,95.5z"/>
	<path d="M142.2,100.9c-1.4,2.1-2.9,5.1-3.9,8.9c-2,7.7-0.6,14.3,0.3,17.5c3.5,0.7,7.1,1.3,10.6,2l15.4,57l12.1,0.2
		c0.4-3.8,0.9-9.5,1.6-16.4c1.2-12.6,1.8-19,1.9-21.7c1.4-21,0-40.4,0-40.4l0,0l-7.5,9.9l-3.9-3.8l-4.5,8.6V135l-7.5,0.2V123
		l-4.5-10.1l-3.4,6.6C146.7,113.2,144.5,107.1,142.2,100.9z"/>
	<path d="M108.8,157.8l-5.2-24.5c0,0-2.1-4.2,3.3-4.8c5.4-0.6,38.4-2.7,38.4-2.7c1-0.2,2.4-0.3,3.6,0.5c1.4,1,1.7,2.8,1.9,3.4
		c0.6,3.4,4.1,17.1,9.1,36c-3.7,10-7.1,12.4-9.6,12.6c-3,0.2-5.1-2.8-9.5-2.3c-2.6,0.3-3.3,1.5-6,2.7c-7.5,3.4-18.5,1.5-22-4.3
		c-0.7-1.2-1-2.3-1.1-2.9C110.7,166.9,109.7,162.4,108.8,157.8z"/>
	<path d="M159.9,165.7l5.1,23.3c0,0,0.9,1.8-1.5,2.4s-27.2,0.3-27.2,0.3L159.9,165.7z"/>
	<path d="M106.3,168.4c0,0-9,15-4,27l9,1l-6-13c0,0,4-15,10-16c0,0,4-13-2-12S106.3,168.4,106.3,168.4z"/>
	<path d="M133.3,74.4c0,0-7-27-2-33l3-8l18,1c0,0,6,8,8,8v-3l7,2c0,0,1-6-1-7l18-1c0,0,5,5,6,25l-2,16l-2,9c0,0-12,11-20,13
		s-14,0-14,0s-16-10-17-13S133.3,74.4,133.3,74.4z"/>
	<path d="M105.3,183.4c0,0,3-14,10-16c0,0,23-10,26-7s1,5,1,5s-12,6-12,8s18-3,18-3s5-2,5,6c0,0-1,2-3,2c0,0,5,5-4,8c0,0,3,1,1,3
		s-9,7-9,7l-9-1c0,0-14,5-18,1S105.3,189.4,105.3,183.4z"/>
	<path d="M166.3,57.4v-4c0,0,13-13,16-8s2,9,2,9S175.3,50.4,166.3,57.4z"/>
	<path d="M153.3,57.4v-4c0,0-13-13-16-8s-2,9-2,9S144.3,50.4,153.3,57.4z"/>
	<path d="M125.8,52.9v-4l-7-6l3-1l-6-8h4l-6-11c0,0,9-5,15-3l-1-8c0,0,8,1,8,2v-5c0,0,10,2,10,3s0,1,0,1s20-4,32,1s13,7,13,7
		s6,3,6,15s0,18,0,18s-3-3.3-6.3,3.6l-3.2-1.1c0.5-2.6,0.8-6.2,0.4-10.4c-0.6-5.3-2.2-9.4-3.5-12c-5.3,0.2-10.6,0.5-15.9,0.8
		c0,1,0,2.3-0.2,3.8c-0.2,1.1-0.4,2-0.7,2.8l-7-2v4c0,0-8-6-8-9c-5.7-0.2-11.4-0.3-17.1-0.5c-1.3,2-2.7,4.7-3.8,7.9
		c-2.8,8.7-1.1,16.4,0,20C131.5,61.8,129.3,51.4,125.8,52.9z"/>
	<path d="M145.9,92.4c0,0-7.5,11.8-3.2,18.9c4.3,7.1,6.2,8.1,6.2,8.1l3.4-6.6l4.5,10.1l3.9-9c0,0-2.8-8.2-3-9.8c0,0-9-2.8-9.2-5.1
		s0.2-5.1,0.2-5.1L145.9,92.4z"/>
	<path d="M156.8,123c0,0,5.8-12.2,6-18.8c0,0,9.4-3.8,9.8-6s0-4.5,0-4.5l4.5-2.6c0,0,1.3,15.8,3.2,16.9c0,0-5.4,9.4-7.5,9.9
		s-3.9-3.8-3.9-3.8l-4.5,8.6V135l-7.5,0.2V123z"/>
	<ellipse cx="160.2" cy="124" rx="2.2" ry="2.7"/>
	<line class="st1" x1="113.5" y1="154" x2="121.7" y2="153.9"/>
	<line class="st1" x1="138.6" y1="152.6" x2="148" y2="152.4"/>
	<path class="st1" d="M124.6,151.7c0,0,0.8-4.3,4.3-4.1c3.4,0.1,5.3,3.1,5.3,3.1"/>
	<path class="st1" d="M125.3,154.3c0,0,1.3,3.8,4.8,3.8c3.5,0,4.8-4,4.8-4"/>
	<path d="M129.5,151.3c0,0-2.6,0.9-0.6,2.6c2,1.7,2.3-0.7,2.3-0.7S131.4,151.6,129.5,151.3z"/>
</g>
<g class="st2">
	<g id="yRk0UI.tif" class="st3">
		
			<image style="overflow:visible;enable-background:new    ;" width="172" height="383" id="Layer_0_1_" xlink:href="62393B7EFC2FC2C.png"  transform="matrix(0.933 0 0 0.933 75.2563 1)">
		</image>
	</g>
</g>
<g>
	<path class="st4" d="M126.3,52.6c0,0-3-7-6-4s-3,6-3,6s1,12,11,15L126.3,52.6z"/>
	<path class="st4" d="M182.8,69.8l2-16c0,0,4-8,7-5s3,5,3,5S192.8,71.8,182.8,69.8z"/>
	<path class="st4" d="M144,88c-0.6,2.6-1.2,5.2-1.8,7.7c1.2,0.5,2.6,1.1,3.9,1.9c1.8,1,3.5,2,4.9,3c1.7,4.2,3.9,8.7,4.8,8.4
		c0.1,0,0.1,0,0.1-0.1c0.9-0.7,4.6-4.3,4.8-8.6c0-0.3,0-0.8,0.4-1.1c0.7-0.7,2.1-0.4,3.2,0c0.9-0.8,3-2.9,3.6-6.3c0.3-1.6,0.2-3,0-4
		L144,88z"/>
	<path class="st5" d="M84.9,337c0,0-2.1,8.2,4.8,11.8s22.1,4.5,22.1,4.5s13.9,0.6,23.6-10.3c0,0,0.9-4.5,7-7c0,0,4.8-1.8,2.4-7.9
		s-5.8,1.5-5.8,1.5L84.9,337z"/>
	<path class="st5" d="M176.9,337c0,0-0.3,13.6,7.9,15.1c8.2,1.5,18.5,1.5,18.5,1.5s20.3,0.3,20.6-6.4c0.3-6.7,0.6-10,0.6-10
		L176.9,337z"/>
	<path class="st6" d="M94,328.2l-3.6,0.6c0,0-10.3,8.2-0.9,13s25.7,5.5,25.7,5.5s13.3,0.3,23.9-17.6l-26-12.4l-12.4,2.4L94,328.2z"
		/>
	<path class="st6" d="M177.9,337c0,0,7.9,13.9,29.1,10.9s16.9-13.3,16.9-13.3l-2.4-3.9l-0.3-1.2l-9.1-10l-17.9-2.7l-14.5,11.8
		C179.7,328.5,176,334.2,177.9,337z"/>
	<path class="st7" d="M150.6,271.6h14.5c0,0-3-37.8-8.5-38.8C151.2,231.9,150.6,271.6,150.6,271.6z"/>
	<path class="st8" d="M97.3,276.1c0,0-0.9,30.9,1.5,33.6c0,0-5.2,7-3.3,10.9s0.3,6.4,0.3,6.4l3.6-2.7c0,0,2.7-6.7,11.8-5.8
		c9.1,0.9,18.2,7.9,18.2,7.9s10.9,5.8,15.4,1.8s3.9-11.5,3.9-11.5l-0.3-7.3l2.1-37.8c0,0,3.6-38.8,6.1-38.8c0,0,6.7,25.4,7.6,38.5
		c0.9,13,7.6,49.6,7.6,49.6s-3.6,11.2,5.1,16c0,0,2.4-7.6,6.7-7.6c0,0,21.8-14.8,29.7-5.5c0,0,7.6,3.6,7.9,5.5
		c0,0,2.7-19.7-6.7-30.3l-1.2-25.1l-41.2-80.2l-35.1,0.3L97.3,276.1z"/>
	<polygon class="st9" points="137,194.1 172.1,193.8 171.9,181.6 137.9,181.4 	"/>
	<polygon class="st10" points="163.6,194.1 163,181.4 145.5,181.4 145.5,194.1 	"/>
	<path class="st7" d="M94.9,200.4c0,0-8.2,69.6-4.2,73.3c3.9,3.6,40.3,5.8,40.3,5.8l6.1-90.2l-10.3,0.9L94.9,200.4z"/>
	<path class="st11" d="M172.1,89.9c0,0,35.7,12.4,40.3,22.1s5.8,17.3,5.8,17.3l4.5,4.2c0,0-2.1,5.8,1.5,11.8
		c3.6,6.1,8.2,35.1,8.2,35.1s-1.2,5.4-3.6,6.7S211.8,201,211.8,201v3c0,0,3-1.8,3.3,4.8s3.9,63.6,3.9,63.6s-31.2,10-44.8,8.2
		l-2.3-99.1c3.3-24,4.5-50.7,1.6-79.5C173.1,98,172.6,93.9,172.1,89.9z"/>
	<path class="st11" d="M139.8,90.6c-4.9,1.1-11.9,3-20,6.1c-10.9,4.2-16.4,6.3-20.4,9.9C83.6,120.7,85.5,152,85.5,152l0,0l-2.7,1.2
		c0,0-4.8,24.2-4.2,26s7.6,18.2,16.3,21.2c0,0,3,5.4,13.3,1.8s18.5-7,18.5-12.1l-24.5-27.9l2.1-10.9l29.6-30.8
		c0,0-0.9-18.5,2.2-20.5s0,0,0,0c0.8-0.8,2.1-2.3,3-4.6C139.8,93.4,139.8,91.7,139.8,90.6z"/>
	<path class="st12" d="M137.4,96c-1.4,2.1-2.9,5.1-3.9,8.9c-2,7.7-0.6,14.3,0.3,17.5c3.5,0.7,7.1,1.3,10.6,2l15.4,57l12.1,0.2
		c0.4-3.8,0.9-9.5,1.6-16.4c1.2-12.6,1.8-19,1.9-21.7c1.4-21.1,0-40.4,0-40.4l0,0l-7.5,9.9l-3.9-3.8l-4.5,8.6v12.2l-7.5,0.2v-12.2
		l-4.5-10.1l-3.4,6.6C141.9,108.3,139.7,102.2,137.4,96z"/>
	<path class="st13" d="M104,152.9l-5.2-24.5c0,0-2.1-4.2,3.3-4.8c5.4-0.6,38.4-2.7,38.4-2.7c1-0.2,2.4-0.3,3.6,0.5
		c1.4,1,1.7,2.8,1.9,3.4c0.6,3.5,4.1,17.1,9.1,36c-3.7,10-7.1,12.4-9.6,12.6c-3,0.2-5.1-2.8-9.5-2.3c-2.6,0.3-3.3,1.5-6,2.7
		c-7.5,3.4-18.5,1.5-22-4.3c-0.7-1.2-1-2.3-1.1-2.9C105.9,162,105,157.5,104,152.9z"/>
	<path class="st14" d="M155.1,160.8l5.1,23.3c0,0,0.9,1.8-1.5,2.4s-27.2,0.3-27.2,0.3L155.1,160.8z"/>
	<path class="st4" d="M101.5,163.5c0,0-9,15-4,27l9,1l-6-13c0,0,4-15,10-16c0,0,4-13-2-12S101.5,163.5,101.5,163.5z"/>
	<path class="st15" d="M128.5,69.5c0,0-7-27-2-33l3-8l18,1c0,0,6,8,8,8v-3l7,2c0,0,1-6-1-7l18-1c0,0,5,5,6,25l-2,16l-2,9
		c0,0-12,11-20,13s-14,0-14,0s-16-10-17-13S128.5,69.5,128.5,69.5z"/>
	<path class="st15" d="M100.5,178.5c0,0,3-14,10-16c0,0,23-10,26-7s1,5,1,5s-12,6-12,8s18-3,18-3s5-2,5,6c0,0-1,2-3,2c0,0,5,5-4,8
		c0,0,3,1,1,3s-9,7-9,7l-9-1c0,0-14,5-18,1S100.5,184.5,100.5,178.5z"/>
	<path class="st16" d="M161.5,52.5v-4c0,0,13-13,16-8s2,9,2,9S170.5,45.5,161.5,52.5z"/>
	<path class="st16" d="M148.5,52.5v-4c0,0-13-13-16-8s-2,9-2,9S139.5,45.5,148.5,52.5z"/>
	<path class="st17" d="M121,48v-4l-7-6l3-1l-6-8h4l-6-11c0,0,9-5,15-3l-1-8c0,0,8,1,8,2V4c0,0,10,2,10,3s0,1,0,1s20-4,32,1
		s13,7,13,7s6,3,6,15s0,18,0,18s-3-3.3-6.3,3.6l-3.2-1.1c0.5-2.6,0.8-6.2,0.4-10.4c-0.6-5.3-2.2-9.4-3.5-12
		c-5.3,0.2-10.6,0.5-15.9,0.8c0,1,0,2.3-0.2,3.8c-0.2,1.1-0.4,2-0.7,2.8l-7-2v4c0,0-8-6-8-9c-5.7-0.2-11.4-0.3-17.1-0.5
		c-1.3,2-2.7,4.7-3.8,7.9c-2.8,8.7-1.1,16.4,0,20C126.7,56.9,124.5,46.5,121,48z"/>
	<path class="st18" d="M141.1,87.5c0,0-7.5,11.8-3.2,18.9c4.3,7.1,6.2,8.1,6.2,8.1l3.4-6.6L152,118l3.9-9c0,0-2.8-8.2-3-9.8
		c0,0-9-2.8-9.2-5.1s0.2-5.1,0.2-5.1L141.1,87.5z"/>
	<path class="st19" d="M152,118.1c0,0,5.8-12.2,6-18.8c0,0,9.4-3.8,9.8-6s0-4.5,0-4.5l4.5-2.6c0,0,1.3,15.8,3.2,16.9
		c0,0-5.4,9.4-7.5,9.9s-3.9-3.8-3.9-3.8l-4.5,8.6v12.2l-7.5,0.2V118.1z"/>
	<ellipse class="st20" cx="155.4" cy="119.1" rx="2.2" ry="2.7"/>
	<line class="st21" x1="108.7" y1="149.1" x2="116.9" y2="148.9"/>
	<line class="st21" x1="133.9" y1="147.7" x2="143.2" y2="147.5"/>
	<path class="st21" d="M119.8,146.8c0,0,0.8-4.3,4.3-4.1s5.3,3.1,5.3,3.1"/>
	<path class="st21" d="M120.5,149.4c0,0,1.3,3.8,4.8,3.8c3.5,0,4.8-4,4.8-4"/>
	<path class="st14" d="M124.8,146.4c0,0-2.6,0.9-0.6,2.6c2,1.7,2.3-0.7,2.3-0.7S126.6,146.7,124.8,146.4z"/>
</g>
</svg>
