<?xml version="1.0" encoding="utf-8"?>
<!-- Generator: Adobe Illustrator 23.0.6, SVG Export Plug-In . SVG Version: 6.00 Build 0)  -->
<svg version="1.1" id="Layer_1" xmlns="http://www.w3.org/2000/svg" xmlns:xlink="http://www.w3.org/1999/xlink" x="0px" y="0px"
	 viewBox="0 0 288 288" style="enable-background:new 0 0 288 288;" xml:space="preserve">
<style type="text/css">
	.st0{opacity:0.5;}
	.st1{fill:#353231;}
	.st2{fill:#F3D585;}
	.st3{fill:#C0A56B;}
	.st4{fill:#CCB074;}
	.st5{fill:#684A32;}
	.st6{fill:#BE965F;}
	.st7{fill:#5E442F;}
	.st8{fill:#F9EFDB;}
	.st9{fill:#ECD2AC;}
	.st10{fill:#6F5943;}
	.st11{fill:#D8AC68;}
	.st12{fill:#F5D88A;}
</style>
<g class="st0">
	<path d="M46.4,205.8c0,0-25.4,26.7-4.2,40.9c21.1,14.2,50.2-9.8,50.2-9.8s12.2-15.9,3.2-30.6c-8.9-14.5,35.7-52.1,35.7-52.1
		s16.4-6.1,21.6-4.2l-1.4,5.2c0,0-15-1.4-18.3,2.9c-3.2,4.2-30.6,43.6-30.6,43.6s8.9,31.5-18.3,47s-44.1,4.6-44.1,4.6
		s-16.9-11.7-8.9-30.1s14.1-23.5,14.1-23.5L46.4,205.8z"/>
	<path d="M236.7,148.5c0,0,41.3,19.8,49.3,40.9c0,0-51.7-20.6-54.5-17.9l-11.7-1.4c0,0,14.1,32.8,11.7,35.2l-35.7-32.4l19.8-17.4
		L236.7,148.5z"/>
	<path d="M153.1,149.8c0,0,33.3-1.9,47.5,2.4L182.3,125c0,0,47,16.4,54.5,23.5l-4.2,0.5l6.1,4.7l-8.5-1l10.3,5.6l-14.1-3.2l16.4,9.4
		h-12.8l8,5.2l-9.8-1.4l3.2,3.2c0,0-12.2-3.7-11.7-1.4c0.5,2.4,4.7,15.5,4.7,15.5l-5.6-1.9l0.5,3.2l-5.2-8.5l1,9.4l-4.2-5.2l1,4.2
		c0,0-43.6-33.8-60.2-31.9l-3.7-1.9l4.7-1l-3.7-1.4L153.1,149.8z"/>
	<path d="M33.3,40.4c0,0,1.9,21.1-1.4,22.1s-6.6-2.9-6.6-2.9s-13.2-1.4-7.5,8.5s7.5,3.7,7.5,3.7s0-6.1-4.2-5.2c0,0,4.4,2.4,3,4.3
		s-3,0-3,0s-8.3-9.7-0.2-8.9s13.4,12.7,13.4,12.7s1.4,5.9,10.3,12.6C44.6,87.4,46.3,55.3,33.3,40.4z"/>
	<path d="M120.2,81.3c0,0,11.1-2.3,18.6-12.6c7.5-10.3,14.9-4.4,15.1-2.3c0.2,2.3-1.8,6.4-1.8,6.4s-4,4.6-5.2,1.8
		c-1.2-2.9,3-4.7,3-4.7s-7.1,0.8-4.1,5c2.9,4.2,6.9-0.5,6.9-0.5s4-5.6,2.3-9c-1.8-3.4-4.9-3.7-4.9-3.7s-6.6-1.1-9.6,0.6
		c0,0-5.6-16.2,12.3-23.7c0,0-38.6,18.5-38.1,30.3C115.1,80.7,120.2,81.3,120.2,81.3z"/>
	<path d="M44.6,87.4c0,0,1-27.2-11.3-47s-8-14.5-8-14.5s29.6,24.9,31.5,47L44.6,87.4z"/>
	<path d="M102.8,71c0,0-6.1-27.7,60.2-37.6c0,0-68.6,30.1-42.8,47.9h-8.9L102.8,71z"/>
	<path d="M44.6,87.4c0,0-5.6,17.4-0.5,27.2s3.2,10.8,3.2,10.8s-17.4-1.4-21.6,1c-4.2,2.4-4.2,20.2-4.2,20.2s17.4,6.6,20.2,6.6
		l62,2.9c0,0-11.3,17.9-1.9,29.1c0,0-10.8,22.5-32.4,22.1c-21.6-0.4-28.6-15.9-28.6-15.9s5.6,22.5,26.7,30.1c0,0,1.9,24-3.7,31
		l2.9,8.5l10.3,1l7.5-15l1.9-21.6c0,0-1-4.7-4.2-5.2c0,0,4.2-15,29.1-17.9c0,0,14.5,4.2,16.4,2.9c1.9-1.4,1.9-1.4,1.9-1.4
		s-8-32.8-12.7-39.4c-4.7-6.6,8.9-12.2,8.9-12.2l-1.4-6.1h6.6l4.2-21.6l-14.1-2.9c0,0,3.7-38-18.3-50.2s-46,1.9-46,1.9
		S43.6,85.1,44.6,87.4z"/>
	<path d="M27.2,126C12,127.7,7.3,130.4,7,133l14.5,13.7l0,0l5.2,1.9l-3.2-3.2l6.6-1.4l-8.5-4.2l9.8-5.6
		C30,131.3,28.6,128.6,27.2,126z"/>
	<path d="M135.2,124.1c12,2.9,19.2,10.2,18.3,14.5c-0.8,4.4-10.5,8.7-23.5,6.6c0.8-1.1,1.6-2.2,2.4-3.2l-6.6-2.9l7.5-1.4l-8.5-5.6
		l3.2-1.4l-1.9-3.7c2.1,1.5,4.7,1.7,6.6,0.5C134.5,126.2,135.1,124.6,135.2,124.1z"/>
	<path d="M63.8,252.3c0,0-12.7,14.5-6.6,18.3c0,0,5.2,4.2,11.3,2.9c0,0,4.7,3.2,11.3-8.5s4.7-18.3,4.7-18.3s-13.7,8-14.1,9.8
		C69.9,258.4,63.8,252.3,63.8,252.3z"/>
	<path d="M41.7,153.2c0,0,11.7-35.2,34.8-28.2s27.2,31,27.2,31s-10.3,19.8-1.9,29.2c0,0-9.4,23-32.4,22.1c-23-1-28.6-15.9-28.6-15.9
		S32.4,176.7,41.7,153.2z"/>
	<path d="M127.7,204.8c0,0,8.5,14.1,13.7,1.9c5.2-12.2-0.5-31.9-0.5-31.9s-6.1-24.4-12.7-21.1c0,0-9.8-5.6-14.5,2.4
		c0,0-7.5,0.5-3.2,10.3c0,0,12.2,14.5,13.2,20.2C124.4,192.1,127.7,204.8,127.7,204.8z"/>
	<path d="M108.5,163c0,0-1.4-9.4,3.2-8.5c0,0,3.7-8.5,14.1-2.9c0,0,1.9-2.4,5.6,2.4l-3.2-0.5c0,0-11.7-4.2-14.5,2.4
		C113.6,156,108,159.3,108.5,163z"/>
	<path d="M129.1,191.7c0,0-1.4-11.3,7.1-6.6s2.4,14.5,2.4,14.5S131,200.2,129.1,191.7z"/>
	<path d="M103.3,88.8c0,0,10.8-1.9,9.8,15.5c0,0-5.2,12.2-13.2,1.4S103.3,88.8,103.3,88.8z"/>
	<path d="M47.8,94c0,0,7.1,1.9,5.2,10.8c-1.9,8.9-5.2,10.8-5.2,10.8s-8-1.9-6.1-12.2C43.6,93,47.8,94,47.8,94z"/>
</g>
<g>
	<path class="st1" d="M41.5,200.9c0,0-25.4,26.7-4.2,40.9s50.2-9.8,50.2-9.8s12.2-15.9,3.2-30.6c-8.9-14.5,35.7-52.1,35.7-52.1
		s16.4-6.1,21.6-4.2l-1.4,5.2c0,0-15-1.4-18.3,2.9c-3.2,4.2-30.6,43.6-30.6,43.6s8.9,31.5-18.3,47s-44.1,4.6-44.1,4.6
		s-16.9-11.7-8.9-30.1s14.1-23.5,14.1-23.5L41.5,200.9z"/>
	<path class="st2" d="M231.7,143.5c0,0,41.3,19.8,49.3,40.9c0,0-51.7-20.6-54.5-17.9l-11.7-1.4c0,0,14.1,32.8,11.7,35.2l-35.7-32.4
		l19.8-17.4L231.7,143.5z"/>
	<path class="st3" d="M148.2,144.9c0,0,33.3-1.9,47.5,2.4l-18.3-27.2c0,0,47,16.4,54.5,23.5l-4.2,0.5l6.1,4.7l-8.5-1l10.3,5.6
		l-14.1-3.2l16.4,9.4h-12.8l8,5.2l-9.8-1.4l3.2,3.2c0,0-12.2-3.7-11.7-1.4c0.5,2.4,4.7,15.5,4.7,15.5l-5.6-1.9l0.5,3.2l-5.2-8.5
		l1,9.4L206,178l1,4.2c0,0-43.6-33.8-60.2-31.9l-3.7-1.9l4.7-1l-3.7-1.4L148.2,144.9z"/>
	<path class="st4" d="M28.3,35.5c0,0,1.9,21.1-1.4,22.1s-6.6-2.9-6.6-2.9s-13.2-1.4-7.5,8.5s7.5,3.7,7.5,3.7s0-6.1-4.2-5.2
		c0,0,4.4,2.4,3,4.3c-1.4,2-3,0-3,0s-8.3-9.7-0.2-8.9s13.4,12.7,13.4,12.7s1.4,5.9,10.3,12.6C39.7,82.5,41.4,50.4,28.3,35.5z"/>
	<path class="st4" d="M115.2,76.4c0,0,11.1-2.3,18.6-12.6c7.5-10.3,14.9-4.4,15.1-2.3c0.2,2.3-1.8,6.4-1.8,6.4s-4,4.6-5.2,1.8
		c-1.2-2.9,3-4.7,3-4.7s-7.1,0.8-4.1,5c2.9,4.2,6.9-0.5,6.9-0.5s4-5.6,2.3-9c-1.8-3.4-4.9-3.7-4.9-3.7s-6.6-1.1-9.6,0.6
		c0,0-5.6-16.2,12.3-23.7c0,0-38.6,18.5-38.1,30.3C110.2,75.8,115.2,76.4,115.2,76.4z"/>
	<path class="st5" d="M39.7,82.5c0,0,1-27.2-11.3-47s-8-14.5-8-14.5S50,45.8,51.8,68L39.7,82.5z"/>
	<path class="st5" d="M97.8,66.1c0,0-6.1-27.7,60.2-37.6c0,0-68.6,30.1-42.8,47.9h-8.9L97.8,66.1z"/>
	<path class="st6" d="M39.7,82.5c0,0-5.6,17.4-0.5,27.2s3.2,10.8,3.2,10.8s-17.4-1.4-21.6,1c-4.2,2.4-4.2,20.2-4.2,20.2
		s17.4,6.6,20.2,6.6l62,2.9c0,0-11.3,17.9-1.9,29.1c0,0-10.8,22.5-32.4,22.1s-28.6-15.9-28.6-15.9s5.6,22.5,26.7,30.1
		c0,0,1.9,24-3.7,31l2.9,8.5l10.3,1l7.5-15l1.9-21.6c0,0-1-4.7-4.2-5.2c0,0,4.2-15,29.1-17.9c0,0,14.5,4.2,16.4,2.9
		c1.9-1.4,1.9-1.4,1.9-1.4s-8-32.8-12.7-39.4c-4.7-6.6,8.9-12.2,8.9-12.2l-1.4-6.1h6.6l4.2-21.6l-14.1-2.9c0,0,3.7-38-18.3-50.2
		s-46,1.9-46,1.9S38.7,80.1,39.7,82.5z"/>
	<path class="st7" d="M22.3,121c-15.1,1.8-19.9,4.4-20.2,7.1l14.5,13.7l0,0l5.2,1.9l-3.2-3.2l6.6-1.4l-8.5-4.2l9.8-5.6
		C25.1,126.3,23.7,123.7,22.3,121z"/>
	<path class="st7" d="M130.3,119.2c12,2.9,19.2,10.2,18.3,14.5c-0.8,4.4-10.5,8.7-23.5,6.6c0.8-1.1,1.6-2.2,2.4-3.2l-6.6-2.9
		l7.5-1.4l-8.5-5.6l3.2-1.4l-1.9-3.7c2.1,1.5,4.7,1.7,6.6,0.5C129.6,121.3,130.2,119.7,130.3,119.2z"/>
	<path class="st7" d="M58.9,247.4c0,0-12.7,14.5-6.6,18.3c0,0,5.2,4.2,11.3,2.9c0,0,4.7,3.2,11.3-8.5c6.6-11.7,4.7-18.3,4.7-18.3
		s-13.7,8-14.1,9.8C65,253.5,58.9,247.4,58.9,247.4z"/>
	<path class="st8" d="M36.8,148.3c0,0,11.7-35.2,34.8-28.2c23.1,7,27.2,31,27.2,31s-10.3,19.8-1.9,29.2c0,0-9.4,23-32.4,22.1
		c-23-1-28.6-15.9-28.6-15.9S27.5,171.8,36.8,148.3z"/>
	<path class="st9" d="M122.8,199.9c0,0,8.5,14.1,13.7,1.9s-0.5-31.9-0.5-31.9s-6.1-24.4-12.7-21.1c0,0-9.8-5.6-14.5,2.4
		c0,0-7.5,0.5-3.2,10.3c0,0,12.2,14.5,13.2,20.2C119.5,187.2,122.8,199.9,122.8,199.9z"/>
	<path class="st10" d="M103.5,158.1c0,0-1.4-9.4,3.2-8.5c0,0,3.7-8.5,14.1-2.9c0,0,1.9-2.4,5.6,2.4l-3.2-0.5c0,0-11.7-4.2-14.5,2.4
		C108.7,151.1,103.1,154.4,103.5,158.1z"/>
	<path class="st11" d="M124.2,186.8c0,0-1.4-11.3,7.1-6.6c8.5,4.7,2.4,14.5,2.4,14.5S126.1,195.3,124.2,186.8z"/>
	<path class="st12" d="M98.3,83.9c0,0,10.8-1.9,9.8,15.5c0,0-5.2,12.2-13.2,1.4S98.3,83.9,98.3,83.9z"/>
	<path class="st12" d="M42.9,89.1c0,0,7.1,1.9,5.2,10.8s-5.2,10.8-5.2,10.8s-8-1.9-6.1-12.2C38.7,88.1,42.9,89.1,42.9,89.1z"/>
</g>
</svg>
