<?xml version="1.0" encoding="utf-8"?>
<!-- Generator: Adobe Illustrator 23.0.6, SVG Export Plug-In . SVG Version: 6.00 Build 0)  -->
<svg version="1.1" id="Layer_1" xmlns="http://www.w3.org/2000/svg" xmlns:xlink="http://www.w3.org/1999/xlink" x="0px" y="0px"
	 viewBox="0 0 288 288" style="enable-background:new 0 0 288 288;" xml:space="preserve">
<style type="text/css">
	.st0{opacity:0.5;}
	.st1{fill:#FDE465;}
	.st2{fill:#93898E;}
	.st3{fill:#945A5D;}
	.st4{fill:#384361;}
	.st5{fill:#E07361;}
	.st6{fill:#FBF5E4;}
	.st7{fill:#C7746C;}
	.st8{fill:#445D81;}
</style>
<g class="st0">
	<path d="M138.6,125.7l-0.5-3.9c0,0-6.3,0.5-8.2-1.9c-1.9-2.4-3.9,2.9-3.9,2.9s-3.9,3.4-5.3,1.9s-3.4,1.9-3.4,1.9l7.7,4.3l-3.9,7.2
		l-7.7-9.6c0,0-3.4-1.4-3.4-4.3s-6.7-1.9-6.7-1.9l-3.9,3.9h-2.9l-2.4,2.9l3.9,5.8l-3.4-2.4l-3.9-4.8l-3.4-0.5l-2.9,3.9l4.8,8.2
		l-9.6,6.3l-12.1-13l3.9-12.1c0,0-2.9-1.9-3.4-3.9c-0.5-1.9-9.6-1-9.6-1s-4.3,5.8-6.7,4.3c-2.4-1.4-0.5,3.4-0.5,3.4
		s7.2,8.7,7.2,12.1l-5.3,0.5l-3.9-1l-1.9,0.5l-0.5-2.4l-4.8,2.9c0,0,1,4.8-1.9,2.9s-4.3-4.3-4.3-4.3s-3.4,6.3-7.7,3.9
		c-4.3-2.4-1.4,4.8-1.4,4.8s4.3,2.4,2.4,5.3s-4.3,4.3-4.3,4.3l4.8,7.7l-6.3-2.4l-3.9-3.9c0,0-5.3,1-3.4,5.8c1.9,4.8,3.9,7.7,3.9,7.7
		l-3.4,1.9c0,0-7.7,2.4,1.4,9.2l5.8-2.4l-1.4-6.7l2.4-5.8l13.5-4.3l4.8,2.9c0,0,4.3-0.5,4.8,5.8c0,0,1.9,0.5,5.3-1
		c3.4-1.4,3.4-1.4,3.4-1.4v-4.8l4.8-12.5L84.4,164L69,174.6c0,0,1.9,2.4,1.4,4.8c-0.5,2.4,1.9,2.9,1.9,2.9s5.8-1.9,7.2,3.4l4.8-6.3
		l8.7-27l18.8-10.1l33.3-8.2l6.3-9.2L138.6,125.7z"/>
	<path d="M157.4,51.5c0,0-3.9-8.7-1-9.6c0,0,6.7-2.9,5.8-6.7c-1-3.9-3.4-2.9-3.4-2.9s4.3-5.8,7.2-2.4c0,0-1,3.4,2.4,2.4
		s1.9-2.9,1.9-2.9s-0.5-5.8-3.9-2.9l-1.9-2.4c0,0,1.4-3.9-0.5-5.3l5.3-5.8c0,0,1,2.4,2.9,0.5s0-4.8,0-4.8s10.8-4.4,11.3,0.4
		c0,0-0.5,3.9,2.9,4.3c3.4,0.5,5.3,0,5.3,0s2.4-2.4-1-3.4l2.9-1l3.4-1.4l7.2,3.4c0,0,1.4,3.4,2.4,1s-1-3.9-1-3.9l3.4-2.4l2.9,0.5
		L209,8.6c0,0,5.8,2.9,1.9,4.8s-1,5.8-1,5.8s-5.8,2.4-5.8,4.3c0,0-2.9-9.6-4.8-5.3c0,0,1.4,5.3-1.4,5.3v1.9c0,0,4.3-1.4,3.4,1.4
		c-1,2.9-3.4,2.9-3.4,2.9l6.3,5.8l9.2-1.4l3.9-1l2.9,3.9l-5.8,15.4l-26,8.7L157.4,51.5z"/>
	<path d="M142,76.6l-7.2-6.7c0,0-7.2,0-8.7-7.2l2.4-3.4l-4.3-4.3c0,0-3.4,0.5-5.8-2.4s-2.9-1.4-2.9-1.4l-6.3,2.4
		c0,0-3.9,0.9-1.9,2.9c0.5,0.5,2.9,2.4,2.9,2.4l1.4-2.4c0,0,5.3,1.4,3.9,5.8l-0.5,4.8h-4.8c0,0-3.9-1.9-1.9-3.9
		c1.9-1.9-4.8-1.4-4.8-1.4s-2.9,4.8-4.3,1.9l-2.9,1.9c0,0,1,6.3-1.9,4.3C91.5,68,91.5,68,91.5,68l2.4-2.4c0,0-3.4-4.8-7.7-1.9
		c0,0-0.5,4.8-5.3,4.3l-1.4,6.7L72.3,79l-3.4-9.2c0,0-7.7-3.4-8.7-5.3c-1-1.9-5.3,1.4-5.3,1.4s-4.3,2.4-5.3,1
		c-1-1.4-3.9,5.8-3.9,5.8v4.8l-15.9,5.8l-0.6,6.8l0.5,2.9c0,0,3.9-1.9,6.3,0.5c2.4,2.4,2.9-1.9,2.9-1.9s0.5-2.9,3.9-1.4
		c3.4,1.4,3.9-1.4,3.9-1.4l-1.9-2.9l-3.9-3.4l10-6.4l19.8,7.2l14-0.5l12.1-4.3l3.7,10.6l6.7,3.4l12.5,13L143.3,91L142,76.6z"/>
	<path d="M221.1,156.1c0,0,1.4-2.4,1-4.8c-0.5-2.4,2.4-1.4,2.4-1.4s1,2.4,4.3,0.5s3.4,2.9,3.4,2.9l-1.4,2.9l-5.3,2.4l-5.3,4.3
		L221.1,156.1z"/>
	<polygon points="91.9,199 92.8,195.2 85.6,192.3 85.1,195.2 90.4,202.9 	"/>
	<path d="M88,234.7c0,0-3.9-3.4-1.4-5.8c2.4-2.4,0-4.3,0-4.3l-4.3,0.5l-2.9-5.3l2.9-4.8c0,0-1-5.3-2.4-3.9c0,0-6.3,3.4-8.2,0.5
		c-1.9-2.9-3.9,0.5-3.9,0.5l-2.9,1.9c0,0-1,2.4,3.4,1.9v8.2l-7.2-2.9c0,0-4.3-1.4-1.4-3.4c2.9-1.9-1.4-4.3-1.4-4.3s-7.7,2.9-8.7,0
		l-2.4,3.4l2.4,2.9l-4.8,4.3l-3.9,4.8c0,0-6.3,1.4-3.4,6.3l-0.5,2.4c0,0,4.3,1.4,7.7-3.9s4.8-6.7,4.8-6.7l3.4,0.5l7.2,4.3l5.3-5.3
		L77,236.6l-4.8,7.2c0,0-2.4,2.9-3.9,0.5c-1.4-2.4-1,4.8-1,4.8l3.9,1.4l14-6.3L88,234.7z"/>
	<path d="M162.7,242.9c0,0,1.9-2.4,0.5-5.8c-1.4-3.4,1.4-2.9,1.4-2.9s-5.8-4.8-7.2-0.5s-1.4,4.4-1.4,4.4l-9.6-6.3
		c0,0-3.4-4.8,2.4-6.3c0,0,1.4-6.3-0.5-6.3s-3.9,0-3.9,0s-3.4-4.8-3.9-1.4s-0.5,3.4-0.5,3.4s-5.3,1-2.9,4.3c2.4,3.4,3.9,5.8,3.9,5.8
		l-0.5,4.8l3.4,2.4l7.7,3.4l5.8,8.7l8.2,1L162.7,242.9z"/>
	<path d="M122.7,221.2l-2.9-5.3l1.9-3.4c0,0,3.4-3.4-1.4-3.9s-6.7,9.2-6.7,9.2l10.1,5.3L122.7,221.2z"/>
	<path d="M204.2,192.8c0,0-5.3-0.5-1.4,5.8c3.9,6.3,1,5.3,1,5.3s8.2,1,6.3-2.9l8.7-6.3l1-8.2l-1-4.8
		C218.7,181.7,204.2,189.9,204.2,192.8z"/>
	<polygon points="153.1,29.3 169.5,47.2 157.4,51.5 	"/>
	<path d="M131.4,189.9c0,0,0,22.2-6.3,29.9c0,0-1.4,5.3,1.4,6.7c2.8,1.4,7.7,8.2,7.7,8.2s5.3,10.1,4.8,16.4c0,0,5.8,5.3,5.3,6.7
		s11.6-2.4,11.6-2.4l-12.1-33.3c0,0,1-7.7,3.9-8.2s5.3-3.4,5.3-3.4s3.4-13.5,6.7-15.4C163.2,193.2,134.3,186.5,131.4,189.9z"/>
	<polygon points="153.1,29.3 153.1,42.8 157.4,51.5 	"/>
	<path d="M144.4,257.8l-0.5,6.3c0,0,11.6,3.9,13.5,2.4c0,0,0.5-9.2-1.4-11.1L144.4,257.8z"/>
	<path d="M210,201c0,0,1-3.9-1.9-2.9s5.3-2.4,5.3-2.4l-1.9-4.3l3.4-3.9l-10.6,5.3l-0.5-7.7l12.1-16.4l2.9-2.4c0,0,0.5-3.9-2.4-4.3
		l1.9-4.8l2.9-1l-1,6.7l5.3-4.3c0,0-1.9,7.2,2.9,7.2c0,0,1.9,0,0.5,2.4s-2.9,8.7-2.9,8.7l9.2,16.4l-1.4,1.9c0,0,0,7.2,4.8,2.9
		s-6.7,20.2-6.7,20.2h-3.4c0,0-1.4-10.1-2.4-7.2c-1,2.9-1,2.9-1,2.9s-2.4-4.8-5.3,0.5c0,0-4.8,1.9-4.8-1.9c0-3.9-2.4-5.8-2.4-5.8
		S213.8,199.5,210,201z"/>
	<path d="M157.9,54.4c0,0-1.9-8.2,0.5-9.2l3.9,5.3l1-8.2l1.9,1.4l2.4-5.3c0,0,1.9,9.6,4.8,9.2l2.4-5.8l3.9,8.2l6.3-4.3
		c0,0,2.9-1.9,1.9-4.3c0,0,7.7,3.9,7.2,9.6l1.9-3.4l5.3,3.4l-1.4-6.3l1.9,1c0,0-1.4-6.3-3.4-6.3l6.7,5.8l-1.9-4.8l4.3,2.9
		c0,0-6.3-9.6-11.6-9.2l8.2,1.4l4.3-4.3c0,0,4.3,1,4.8,2.9c0,0,2.4,4.3,4.8,1.4l1.9,1.4c0,0-2.4,3.9,3.4,4.3c0,0,4.3,2.4,1,6.7
		c0,0-5.8,3.9-2.4,6.3c3.4,2.4,4.8-1,4.8-1l3.9,2.9c0,0,0.5,4.3,2.9,4.8s-1.4,5.3-1.4,5.3s-4.8,2.4-1.9,6.7s-1,4.3-1,4.3
		s-2.4,7.2-1,7.7s-3.4,1-3.4,1l-2.4,0.5c0,0,2.9-9.2-1.4-8.7c-4.3,0.5-2.9,5.8-2.9,5.8s-2.9,4.8-4.8,3.4c-1.9-1.4-3.4-1-3.4-1v-4.3
		c0,0-5.3,3.9-1,8.2c0,0,1.4,1.9,0.5,4.3c-1,2.4-3.9,6.3-3.9,6.3l-3.9-1.4l-1.9-1.9l-4.8,3.4l-32.3,0.5c0,0-8.7-0.5-4.3,3.4l-1,4.3
		c0,0-4.3-1.9-6.3,4.3l-2.4,0.5l-3.9-3.9c0,0,1.4-5.8-8.2-4.3c0,0-2.9,1-2.4,2.4c0,0-4.8-2.4-4.8,1s-6.3,8.2-6.3,8.2
		s-3.4-2.4-4.8-1.4c0,0-2.9,0.5-4.3-2.9s-4.3-2.9-4.3-2.9s-5.3,1.4-6.7-1c-1.4-2.4-3.4-3.4-3.4-3.4l-0.5-2.4l2.9-1.4v-4.3l2.9,3.4
		l1.9-3.4l-2.9-2.4l-0.5-2.4l1.9-0.5l-1.9-1.4l2.9-3.9l1.4,2.9c0,0,1.9-9.6,4.3-7.7v4.3l2.4-1.4c0,0-1.4,1.8-2.4,3.9
		c-1,2-1.4,4.3,0.5,5.3l1.6-3.8l1.9,2.4l1-5.8l1.9,1.4l3.9-6.3l0.5,3.9l7.2,1L157.9,54.4z"/>
	<path d="M115.5,62.1l-5.3,4.8v2.4l2.4-0.5l-1.9,4.8l2.9-2.4l0.5,4.3c0,0,7.2-9.2,11.6-9.2l-8.2-0.5C117.4,66,120.3,56.3,115.5,62.1
		z"/>
	<path d="M100.5,89.1c0,0-1-6.7,1.4-9.2l-3.4,1c0,0,4.3-7.7,6.3-7.7c0,0-7.7,2.4-8.2,5.3c0,0-0.5-7.2,1.9-7.7c0,0-11.1,1.9-12.5,7.7
		l-1.4-2.4l-3.4,3.4l1.4-7.7l-5.3,3.9c0,0-6.7-3.4-7.7-2.9l-1-2.9c0,0-7.7,5.8-11.1,1.9l1.4-2.9c0,0-14.9,9.2-15.4,6.7L38.2,78
		l-1.8-2.9L34,73.7l-1,3.9l-1.9-4.3c0,0-4.8,1-3.4,3.4c1.4,2.4,1.4,3.9,1.4,3.9s-2.9,3.9-3.9,1.9v3.4c0,0,3.9,1,3.9,4.3
		c0,0,3.9-0.5,3.9-5.8c0,0,8.7,4.3,11.6,1.4l-1-3.9c0,0,1.9-2.4,2.4-0.5c0,0,6.3-7.7,10.6-0.5s-2.4,5.3-2.4,5.3l2.9,5.3
		c0,0,6.3-1.9,10.1,2.4l7.7-1.4c0,0,3.4-9.6,6.7-7.2c3.4,2.4,3.4,2.4,3.4,2.4l3.9-2.4l0.5-3.4c0,0,4.3-2.4,4.3,5.3l2.4,2.4
		L100.5,89.1z"/>
	<path d="M128,219.3c0,0-4.8-3.4-6.3,0h-3.9l-2.4-5.8l-14.9-14c0,0-3.9-1-4.8,1.4c-1,2.4-3.9-1.9-3.9-1.9l-3.9,5.8l2.4,4.3
		c0,0,4.3-2.4,5.3,1s12.1,14.9,12.1,14.9s5.3,0,5.8,5.3c0,0,5.3,0.5,5.3-2.4l3.9,3.4c0,0-1.9,4.3-2.9,2.9l-0.5,3.4
		c0,0,5.8,2.4,4.3,5.8c-1.4,3.4-2.4,1.4-2.4,1.4l1,1.9c0,0,5.8,0.5,6.7,2.9l2.4-1.4c0,0,5.3-4.8,10.1-0.5l-8.7-21.7L128,219.3z"/>
	<path d="M171.4,52.5l-2.4-1.9l-4.8,4.8l-4.8-4.3l-1.9,0.5c0,0-9.6-24.1-11.6-23.6c-1.9,0.5,5.3,27.5,5.3,27.5s-6.7,7.7-9.2,6.3
		l-0.5,8.2L127,84.9c0,0-1.9,7.7,1.4,10.1c3.4,2.4,5.3,3.4,5.3,3.4h2.4c0,0,8.2,5.8,10.1,2.9s8.2-8.2,8.2-8.2l4.8-0.5
		c0,0,5.8,21.2,0,32.8l-44.7,16.7c0,0-16.9,18.3-18.3,17.4c-1.4-1,1.4,16.4,1.4,16.4s4.8,20.2,2.9,23.6c0,0-5.8,17.4-11.1,17.8
		c0,0-1.4,2.4,0.5,5.3c1.9,2.9,2.4,9.6,2.4,9.6l-2.9,11.1l1.4,11.6c0,0,1.4,3.4-1,4.8c0,0,5.8,3.9,4.3,12.5l12.5-2.4
		c0,0-1-7.2,1.4-7.7c0,0-5.8-10.1-5.3-18.3s2.4-15.9,2.4-15.9s10.1-11.6,12.5-16.9c2.4-5.3,3.9-9.2,3.9-9.2s6.3-11.6,9.6-12.1
		c0,0,26,7.7,28.4,5.3c0,0,12.1,16.4,12.1,23.1c0,6.7,1.4,9.2,1.4,9.2s3.9,5.8,4.8,11.6c1,5.8,1.4,25.6,1.4,25.6l2.4,3.9
		c0,0,1.9,6.7,1.4,11.6c-0.5,4.8,14.5-4.3,14.5-4.3s-2.9-9.2-1.9-12.5c1-3.4-1.9-5.3-1.9-5.3s-6.7-14.9-5.3-30.4l-2.4-6.7l-2.4-28.4
		l3.9-2.4c0,0,44.8-0.5,49.2,6.3c0,0,1,17.8-14.9,25.6c0,0,0,4.3-3.9,4.8s1.4,12.5,1.4,12.5s9.2-13.5,14-13c0,0,17.4-29.9,22.2-30.4
		l-6.7-13.5c0,0-28.9-4.8-36.6-17.8c0,0-7.2-21.7-9.2-24.6c0,0-0.5-32.8-8.2-39.1l-7.7-33.3c0,0-1.9-35.7-7.2-36.2L171.4,52.5z"/>
	<path d="M136.2,98.3c0,0,5.3-4.8,11.6-4.3l-3.4,3.4L136.2,98.3z"/>
	<path d="M173.3,57.3L180,38c0,0,2.9,23.1,1.4,26.5C181.5,64.5,177.7,56.8,173.3,57.3z"/>
	<path d="M160.8,115.1c0,0-4.3,10.1-6.3,5.8c-1.9-4.3-1.9-4.3-1.9-4.3s-8.2,1.4-9.6,0s-2.4,4.8-2.4,4.8s5.3,0.5,2.4,2.9
		c-2.9,2.4-4.3,1.4-4.3,1.4l4.8,4.3l-5.8-1l-1.9,7.2l-2.9-3.9l-3.4,3.9c0,0,1.4-11.1-9.2-9.2c0,0,1,5.3,2.4,5.3s-1.4,0-1.4,0
		s-2.4,2.4-3.4,0.5c-1-1.9-1.9-3.9-1.9-3.9l-2.4-0.5l1.9,3.9l-1.4,2.4l1,3.9l-3.4-1.9l0.5,5.3l-3.4-8.7l-1.9,1L104,130
		c0,0-4.3,1-6.7-1.4c-2.4-2.4-2.9,0.5-2.9,0.5s4.8,1.9,0.5,3.4l-4.3,1l-1,5.8l-2.9-5.3l-2.4,5.3l-3.9,0.5c0,0-0.5-3.9-5.8-4.3v-4.4
		c0,0,3.9,1.9,3.4-2.9s-2.4-6.7-2.4-6.7l-3.9-1l-3.4,8.2l-2.9-5.3l-1.9,3.9l0.5-5.8l-3,8.6c0,0-5.3-0.5-2.9-3.9l-2.4,7.2l1,2.4h-3.4
		c0,0,12.1,4.8,7.2,6.3s-7.7-2.4-7.7-2.4l1,3.4l-4.3-1.4l2.4,7.2l-4.3-2.4l2.4,3.9l-3.9-1.9l1,5.8c0,0-3.9-0.5-3.9-4.3l-1.4,1.9
		c0,0-5.8-9.2-1.4-13c0,0-7.2,5.8-2.9,11.6l-2.4-2.4c0,0-7.2,10.1-2.4,13l-6.3-5.3l-2.9,2.4c0,0-1.9,8.2-3.9,7.2l-2.9,4.3
		c0,0,9.2,1,4.3,8.2l2.9,1.9l3.9-1c0,0-1.4-4.8,1-5.3c0,0-1-4.8-2.4-3.4c-1.4,1.4-1.4,1.4-1.4,1.4l-2.4-1.9c0,0,5.3-6.7,8.7-5.8
		c0,0,3.9,2.4,5.3,1.4c1.4-1,2.9-3.9,2.9-3.9l3.9,1l1-2.9l4.8,5.3l0.5-4.3l2.4,2.9l2.9-1.9l1,2.4l1.9,0.5l-1-3.4l3.9-2.9l2.9,0.5
		l1.4-5.3c0,0,7.7,1,7.2,8.2c0,0,3.9,1,3.9,3.4l-1.4,3.4c0,0-5.8,0.5-5.3-1.4l-1.9,4.8l1.9,2.9l9.6-6.3l-0.5,4.3l4.3-1.9l-5.8,8.7
		l3.9,1.4l-1,4.8l7-2.4l0.5-2.4l-2.9-1.4l4.8-4.3l2.9,3.4c0,0,3.4,1,5.3-2.4c0,0-4.8-10.6-2.4-14.5s19.3-19.3,19.3-19.3
		s9.2,2.4,9.2,5.8c0,0,2.9-0.5,5.3-1l-1-1.9l3.9-1.4c0,0-1-5.8,2.4-4.8l1.9,2.4l2.9-0.5l4.8,2.4c0,0,2.4-1.4,2.9-5.8
		c0,0,11.6-8.2,12.5-12.1C160.3,121.4,160.8,115.1,160.8,115.1z"/>
	<path d="M178.6,250.1c0,0,0-2.4-0.5-4.3c-0.5-1.9-6.3-2.4-6.3-2.4s1.4,6.7-9.2-0.5l-1.9,4.3l-0.5-3.4l-4.8,3.4
		c0,0,3.9-11.1,1.9-13.5c0,0-4.3,4.8-8.7,0.5l-2.4-2.4l-2.4,6.7c0,0-2.9-7.2-1.9-12.5l-2.4,2.9c0,0,1.4,3.4-0.5,5.3
		c0,0,1,8.2,4.3,7.2c3.4-1,5.3,1,5.3,1s1.9,5.8-1.4,4.8l1,3.9c0,0,14,1,12.5,7.2c-1.5,6.2-1.4,6.3-1.4,6.3l7.7,6.7
		c0,0,3.4-5.8,8.2-1.4l4.3-5.3L178.6,250.1z"/>
	<path d="M93.8,244.8l4.3-1l-1.9-2.9l1.9-1.9c0,0-5.8-4.3-7.7-2.4l-2.4-1.9l-6.3,6.3l0.5-4.8l-3.9,2.4l6.3-8.2l-5.8,2.9l1.4-6.3
		l-3.4,3.4l-1.9-3.4l-2.4-1.4l3.4-3.4c0,0-6.3-3.4-8.7-1.9l-3.4,2.4l-2.9-1.4l-3.4,2.9L58,229c0,0-1.9-4.8-13.5-4.8l0.5-1.9
		c0,0-4.3-1.4-4.8,1.4s2.4,3.4,2.4,3.4l-1.9,1.9c0,0,2.2,0,3.3,2c0.4,0.7,0.6,1.6,0.6,2.8l2.9-3.4l5.3-2.9c0,0,1,0,1.4,3.9l5.8,0.5
		l2.4-2.4l2.4,0.5c0,0-0.5,2.9,7.7,6.3c0,0-1.9,6.7-0.5,7.7l4.3,3.9l-5.3,2.9l4,0.3c0,0,3.9-2.9,8.2,0.5c0,0,2.9,5.8,5.3,4.8
		s5.3,1.9,5.3,1.9s-1-6.3,3.4-2.4l-1-3.9l3.4,0.5L93.8,244.8z"/>
	<path d="M94.3,272.3c0,0-2.4,5.3,3.4,5.8s13.5,0,13.5,0l-3.4-11.1C107.8,267,99.6,268,94.3,272.3z"/>
	<path d="M183.9,277.6c0,0,11.6-6.3,14-1.9c2.4,4.3,4.3,9.6,4.3,9.6s-14.5,2.9-19.3-1L183.9,277.6z"/>
	<path d="M218.2,226.5c0,0-6.7-3.9-6.7-1s-2.4,8.2-2.4,8.2l1.9,8.7c0,0,6.3-1.4,8.7-3.4C219.6,239,215.8,228,218.2,226.5z"/>
</g>
<g>
	<path class="st1" d="M133.6,120.6l-0.5-3.9c0,0-6.3,0.5-8.2-1.9c-1.9-2.4-3.9,2.9-3.9,2.9s-3.9,3.4-5.3,1.9s-3.4,1.9-3.4,1.9
		l7.7,4.3l-3.9,7.2l-7.7-9.6c0,0-3.4-1.4-3.4-4.3s-6.7-1.9-6.7-1.9l-3.9,3.9h-2.9l-2.4,2.9l3.9,5.8l-3.4-2.4l-3.9-4.8l-3.4-0.5
		l-2.9,3.9l4.8,8.2l-9.6,6.3l-12.1-13l3.9-12.1c0,0-2.9-1.9-3.4-3.9c-0.5-1.9-9.6-1-9.6-1s-4.3,5.8-6.7,4.3
		c-2.4-1.4-0.5,3.4-0.5,3.4s7.2,8.7,7.2,12.1l-5.3,0.5l-3.9-1l-1.9,0.5l-0.5-2.4l-4.8,2.9c0,0,1,4.8-1.9,2.9s-4.3-4.3-4.3-4.3
		s-3.4,6.3-7.7,3.9c-4.3-2.4-1.4,4.8-1.4,4.8s4.3,2.4,2.4,5.3s-4.3,4.3-4.3,4.3l4.8,7.7l-6.3-2.4l-3.9-3.9c0,0-5.3,1-3.4,5.8
		s3.9,7.7,3.9,7.7l-3.4,1.9c0,0-7.7,2.4,1.4,9.2l5.8-2.4l-1.4-6.7l2.4-5.8l13.5-4.3l4.8,2.9c0,0,4.3-0.5,4.8,5.8c0,0,1.9,0.5,5.3-1
		c3.4-1.4,3.4-1.4,3.4-1.4V156l4.8-12.5l23.1,15.4L64,169.5c0,0,1.9,2.4,1.4,4.8c-0.5,2.4,1.9,2.9,1.9,2.9s5.8-1.9,7.2,3.4l4.8-6.3
		l8.7-27l18.8-10.1l33.3-8.2l6.3-9.2L133.6,120.6z"/>
	<path class="st1" d="M152.4,46.4c0,0-3.9-8.7-1-9.6c0,0,6.7-2.9,5.8-6.7c-1-3.9-3.4-2.9-3.4-2.9s4.3-5.8,7.2-2.4c0,0-1,3.4,2.4,2.4
		s1.9-2.9,1.9-2.9s-0.5-5.8-3.9-2.9l-1.9-2.4c0,0,1.4-3.9-0.5-5.3l5.3-5.8c0,0,1,2.4,2.9,0.5s0-4.8,0-4.8S178-0.8,178.5,4
		c0,0-0.5,3.9,2.9,4.3c3.4,0.5,5.3,0,5.3,0s2.4-2.4-1-3.4l2.9-1l3.4-1.4l7.2,3.4c0,0,1.4,3.4,2.4,1s-1-3.9-1-3.9l3.4-2.4l2.9,0.5
		L204,3.5c0,0,5.8,2.9,1.9,4.8s-1,5.8-1,5.8s-5.8,2.4-5.8,4.3c0,0-2.9-9.6-4.8-5.3c0,0,1.4,5.3-1.4,5.3v1.9c0,0,4.3-1.4,3.4,1.4
		c-1,2.9-3.4,2.9-3.4,2.9l6.3,5.8l9.2-1.4l3.9-1l2.9,3.9l-5.8,15.4l-26,8.7L152.4,46.4z"/>
	<path class="st1" d="M137,71.5l-7.2-6.7c0,0-7.2,0-8.7-7.2l2.4-3.4l-4.3-4.3c0,0-3.4,0.5-5.8-2.4s-2.9-1.4-2.9-1.4l-6.3,2.4
		c0,0-3.9,0.9-1.9,2.9c0.5,0.5,2.9,2.4,2.9,2.4l1.4-2.4c0,0,5.3,1.4,3.9,5.8L110,62h-4.8c0,0-3.9-1.9-1.9-3.9
		c1.9-1.9-4.8-1.4-4.8-1.4s-2.9,4.8-4.3,1.9l-2.9,1.9c0,0,1,6.3-1.9,4.3c-2.9-1.9-2.9-1.9-2.9-1.9l2.4-2.4c0,0-3.4-4.8-7.7-1.9
		c0,0-0.5,4.8-5.3,4.3l-1.4,6.7l-7.2,4.3l-3.4-9.2c0,0-7.7-3.4-8.7-5.3s-5.3,1.4-5.3,1.4s-4.3,2.4-5.3,1c-1-1.4-3.9,5.8-3.9,5.8v4.8
		l-15.9,5.8L24.2,85l0.5,2.9c0,0,3.9-1.9,6.3,0.5s2.9-1.9,2.9-1.9s0.5-2.9,3.9-1.4c3.4,1.4,3.9-1.4,3.9-1.4l-1.9-2.9l-3.9-3.4
		l10-6.4l19.8,7.2l14-0.5l12.1-4.3L95.5,84l6.7,3.4l12.5,13l23.6-14.5L137,71.5z"/>
	<path class="st1" d="M216.1,151c0,0,1.4-2.4,1-4.8c-0.5-2.4,2.4-1.4,2.4-1.4s1,2.4,4.3,0.5s3.4,2.9,3.4,2.9l-1.4,2.9l-5.3,2.4
		l-5.3,4.3L216.1,151z"/>
	<polygon class="st1" points="86.9,193.9 87.8,190.1 80.6,187.2 80.1,190.1 85.4,197.8 	"/>
	<path class="st1" d="M83,229.6c0,0-3.9-3.4-1.4-5.8c2.4-2.4,0-4.3,0-4.3l-4.3,0.5l-2.9-5.3l2.9-4.8c0,0-1-5.3-2.4-3.9
		c0,0-6.3,3.4-8.2,0.5c-1.9-2.9-3.9,0.5-3.9,0.5l-2.9,1.9c0,0-1,2.4,3.4,1.9v8.2l-7.2-2.9c0,0-4.3-1.4-1.4-3.4
		c2.9-1.9-1.4-4.3-1.4-4.3s-7.7,2.9-8.7,0l-2.4,3.4l2.4,2.9l-4.8,4.3l-3.9,4.8c0,0-6.3,1.4-3.4,6.3l-0.5,2.4c0,0,4.3,1.4,7.7-3.9
		s4.8-6.7,4.8-6.7l3.4,0.5l7.2,4.3l5.3-5.3L72,231.5l-4.8,7.2c0,0-2.4,2.9-3.9,0.5c-1.4-2.4-1,4.8-1,4.8l3.9,1.4l14-6.3L83,229.6z"
		/>
	<path class="st1" d="M157.7,237.8c0,0,1.9-2.4,0.5-5.8c-1.4-3.4,1.4-2.9,1.4-2.9s-5.8-4.8-7.2-0.5S151,233,151,233l-9.6-6.3
		c0,0-3.4-4.8,2.4-6.3c0,0,1.4-6.3-0.5-6.3s-3.9,0-3.9,0s-3.4-4.8-3.9-1.4s-0.5,3.4-0.5,3.4s-5.3,1-2.9,4.3c2.4,3.4,3.9,5.8,3.9,5.8
		l-0.5,4.8l3.4,2.4l7.7,3.4l5.8,8.7l8.2,1L157.7,237.8z"/>
	<path class="st1" d="M117.7,216.1l-2.9-5.3l1.9-3.4c0,0,3.4-3.4-1.4-3.9s-6.7,9.2-6.7,9.2l10.1,5.3L117.7,216.1z"/>
	<path class="st1" d="M199.2,187.7c0,0-5.3-0.5-1.4,5.8c3.9,6.3,1,5.3,1,5.3s8.2,1,6.3-2.9l8.7-6.3l1-8.2l-1-4.8
		C213.7,176.6,199.2,184.8,199.2,187.7z"/>
	<polygon class="st2" points="148.1,24.2 164.5,42.1 152.4,46.4 	"/>
	<path class="st2" d="M126.4,184.8c0,0,0,22.2-6.3,29.9c0,0-1.4,5.3,1.4,6.7s7.7,8.2,7.7,8.2s5.3,10.1,4.8,16.4c0,0,5.8,5.3,5.3,6.7
		s11.6-2.4,11.6-2.4L138.8,217c0,0,1-7.7,3.9-8.2s5.3-3.4,5.3-3.4s3.4-13.5,6.7-15.4C158.2,188.1,129.3,181.4,126.4,184.8z"/>
	<polygon class="st3" points="148.1,24.2 148.1,37.7 152.4,46.4 	"/>
	<path class="st4" d="M139.4,252.7l-0.5,6.3c0,0,11.6,3.9,13.5,2.4c0,0,0.5-9.2-1.4-11.1L139.4,252.7z"/>
	<path class="st5" d="M205,195.9c0,0,1-3.9-1.9-2.9s5.3-2.4,5.3-2.4l-1.9-4.3l3.4-3.9l-10.6,5.3l-0.5-7.7l12.1-16.4l2.9-2.4
		c0,0,0.5-3.9-2.4-4.3l1.9-4.8l2.9-1l-1,6.7l5.3-4.3c0,0-1.9,7.2,2.9,7.2c0,0,1.9,0,0.5,2.4s-2.9,8.7-2.9,8.7l9.2,16.4l-1.4,1.9
		c0,0,0,7.2,4.8,2.9s-6.7,20.2-6.7,20.2h-3.4c0,0-1.4-10.1-2.4-7.2c-1,2.9-1,2.9-1,2.9s-2.4-4.8-5.3,0.5c0,0-4.8,1.9-4.8-1.9
		c0-3.9-2.4-5.8-2.4-5.8S208.8,194.4,205,195.9z"/>
	<path class="st5" d="M152.9,49.3c0,0-1.9-8.2,0.5-9.2l3.9,5.3l1-8.2l1.9,1.4l2.4-5.3c0,0,1.9,9.6,4.8,9.2l2.4-5.8l3.9,8.2l6.3-4.3
		c0,0,2.9-1.9,1.9-4.3c0,0,7.7,3.9,7.2,9.6l1.9-3.4l5.3,3.4l-1.4-6.3l1.9,1c0,0-1.4-6.3-3.4-6.3l6.7,5.8l-1.9-4.8l4.3,2.9
		c0,0-6.3-9.6-11.6-9.2l8.2,1.4l4.3-4.3c0,0,4.3,1,4.8,2.9c0,0,2.4,4.3,4.8,1.4l1.9,1.4c0,0-2.4,3.9,3.4,4.3c0,0,4.3,2.4,1,6.7
		c0,0-5.8,3.9-2.4,6.3c3.4,2.4,4.8-1,4.8-1l3.9,2.9c0,0,0.5,4.3,2.9,4.8s-1.4,5.3-1.4,5.3s-4.8,2.4-1.9,6.7s-1,4.3-1,4.3
		s-2.4,7.2-1,7.7s-3.4,1-3.4,1l-2.4,0.5c0,0,2.9-9.2-1.4-8.7c-4.3,0.5-2.9,5.8-2.9,5.8s-2.9,4.8-4.8,3.4c-1.9-1.4-3.4-1-3.4-1v-4.3
		c0,0-5.3,3.9-1,8.2c0,0,1.4,1.9,0.5,4.3c-1,2.4-3.9,6.3-3.9,6.3l-3.9-1.4l-1.9-1.9l-4.8,3.4l-32.3,0.5c0,0-8.7-0.5-4.3,3.4l-1,4.3
		c0,0-4.3-1.9-6.3,4.3l-2.4,0.5l-3.9-3.9c0,0,1.4-5.8-8.2-4.3c0,0-2.9,1-2.4,2.4c0,0-4.8-2.4-4.8,1s-6.3,8.2-6.3,8.2
		s-3.4-2.4-4.8-1.4c0,0-2.9,0.5-4.3-2.9s-4.3-2.9-4.3-2.9s-5.3,1.4-6.7-1c-1.4-2.4-3.4-3.4-3.4-3.4L94,97.8l2.9-1.4v-4.3l2.9,3.4
		l1.9-3.4l-2.9-2.4l-0.5-2.4l1.9-0.5l-1.9-1.4l2.9-3.9l1.4,2.9c0,0,1.9-9.6,4.3-7.7V81l2.4-1.4c0,0-1.4,1.8-2.4,3.9
		c-1,2-1.4,4.3,0.5,5.3L109,85l1.9,2.4l1-5.8l1.9,1.4l3.9-6.3l0.5,3.9l7.2,1L152.9,49.3z"/>
	<path class="st5" d="M110.5,57l-5.3,4.8v2.4l2.4-0.5l-1.9,4.8l2.9-2.4l0.5,4.3c0,0,7.2-9.2,11.6-9.2l-8.2-0.5
		C112.4,60.9,115.3,51.2,110.5,57z"/>
	<path class="st5" d="M95.5,84c0,0-1-6.7,1.4-9.2l-3.4,1c0,0,4.3-7.7,6.3-7.7c0,0-7.7,2.4-8.2,5.3c0,0-0.5-7.2,1.9-7.7
		c0,0-11.1,1.9-12.5,7.7L79.6,71l-3.4,3.4l1.4-7.7l-5.3,3.9c0,0-6.7-3.4-7.7-2.9l-1-2.9c0,0-7.7,5.8-11.1,1.9l1.4-2.9
		c0,0-14.9,9.2-15.4,6.7l-5.3,2.4L31.4,70L29,68.6l-1,3.9l-1.9-4.3c0,0-4.8,1-3.4,3.4c1.4,2.4,1.4,3.9,1.4,3.9s-2.9,3.9-3.9,1.9v3.4
		c0,0,3.9,1,3.9,4.3c0,0,3.9-0.5,3.9-5.8c0,0,8.7,4.3,11.6,1.4l-1-3.9c0,0,1.9-2.4,2.4-0.5c0,0,6.3-7.7,10.6-0.5s-2.4,5.3-2.4,5.3
		l2.9,5.3c0,0,6.3-1.9,10.1,2.4l7.7-1.4c0,0,3.4-9.6,6.7-7.2c3.4,2.4,3.4,2.4,3.4,2.4l3.9-2.4l0.5-3.4c0,0,4.3-2.4,4.3,5.3l2.4,2.4
		L95.5,84z"/>
	<path class="st5" d="M123,214.2c0,0-4.8-3.4-6.3,0h-3.9l-2.4-5.8l-14.9-14c0,0-3.9-1-4.8,1.4c-1,2.4-3.9-1.9-3.9-1.9l-3.9,5.8
		l2.4,4.3c0,0,4.3-2.4,5.3,1s12.1,14.9,12.1,14.9s5.3,0,5.8,5.3c0,0,5.3,0.5,5.3-2.4l3.9,3.4c0,0-1.9,4.3-2.9,2.9l-0.5,3.4
		c0,0,5.8,2.4,4.3,5.8c-1.4,3.4-2.4,1.4-2.4,1.4l1,1.9c0,0,5.8,0.5,6.7,2.9l2.4-1.4c0,0,5.3-4.8,10.1-0.5l-8.7-21.7L123,214.2z"/>
	<path class="st6" d="M166.4,47.4l-2.4-1.9l-4.8,4.8l-4.8-4.3l-1.9,0.5c0,0-9.6-24.1-11.6-23.6c-1.9,0.5,5.3,27.5,5.3,27.5
		s-6.7,7.7-9.2,6.3l-0.5,8.2L122,79.8c0,0-1.9,7.7,1.4,10.1c3.4,2.4,5.3,3.4,5.3,3.4h2.4c0,0,8.2,5.8,10.1,2.9s8.2-8.2,8.2-8.2
		l4.8-0.5c0,0,5.8,21.2,0,32.8L109.5,137c0,0-16.9,18.3-18.3,17.4c-1.4-1,1.4,16.4,1.4,16.4s4.8,20.2,2.9,23.6
		c0,0-5.8,17.4-11.1,17.8c0,0-1.4,2.4,0.5,5.3c1.9,2.9,2.4,9.6,2.4,9.6l-2.9,11.1l1.4,11.6c0,0,1.4,3.4-1,4.8c0,0,5.8,3.9,4.3,12.5
		l12.5-2.4c0,0-1-7.2,1.4-7.7c0,0-5.8-10.1-5.3-18.3s2.4-15.9,2.4-15.9s10.1-11.6,12.5-16.9c2.4-5.3,3.9-9.2,3.9-9.2
		s6.3-11.6,9.6-12.1c0,0,26,7.7,28.4,5.3c0,0,12.1,16.4,12.1,23.1c0,6.7,1.4,9.2,1.4,9.2s3.9,5.8,4.8,11.6c1,5.8,1.4,25.6,1.4,25.6
		l2.4,3.9c0,0,1.9,6.7,1.4,11.6c-0.5,4.8,14.5-4.3,14.5-4.3s-2.9-9.2-1.9-12.5c1-3.4-1.9-5.3-1.9-5.3s-6.7-14.9-5.3-30.4l-2.4-6.7
		l-2.4-28.4l3.9-2.4c0,0,44.8-0.5,49.2,6.3c0,0,1,17.8-14.9,25.6c0,0,0,4.3-3.9,4.8s1.4,12.5,1.4,12.5s9.2-13.5,14-13
		c0,0,17.4-29.9,22.2-30.4l-6.7-13.5c0,0-28.9-4.8-36.6-17.8c0,0-7.2-21.7-9.2-24.6c0,0-0.5-32.8-8.2-39.1l-7.7-33.3
		c0,0-1.9-35.7-7.2-36.2L166.4,47.4z"/>
	<path class="st7" d="M131.2,93.2c0,0,5.3-4.8,11.6-4.3l-3.4,3.4L131.2,93.2z"/>
	<path class="st7" d="M168.3,52.2l6.7-19.3c0,0,2.9,23.1,1.4,26.5C176.5,59.4,172.7,51.7,168.3,52.2z"/>
	<path class="st5" d="M155.8,110c0,0-4.3,10.1-6.3,5.8c-1.9-4.3-1.9-4.3-1.9-4.3s-8.2,1.4-9.6,0s-2.4,4.8-2.4,4.8s5.3,0.5,2.4,2.9
		c-2.9,2.4-4.3,1.4-4.3,1.4l4.8,4.3l-5.8-1l-1.9,7.2l-2.9-3.9l-3.4,3.9c0,0,1.4-11.1-9.2-9.2c0,0,1,5.3,2.4,5.3s-1.4,0-1.4,0
		s-2.4,2.4-3.4,0.5c-1-1.9-1.9-3.9-1.9-3.9l-2.4-0.5l1.9,3.9l-1.4,2.4l1,3.9l-3.4-1.9l0.5,5.3l-3.4-8.7l-1.9,1l-2.9-4.3
		c0,0-4.3,1-6.7-1.4c-2.4-2.4-2.9,0.5-2.9,0.5s4.8,1.9,0.5,3.4l-4.3,1l-1,5.8l-2.9-5.3l-2.4,5.3l-3.9,0.5c0,0-0.5-3.9-5.8-4.3V126
		c0,0,3.9,1.9,3.4-2.9c-0.5-4.8-2.4-6.7-2.4-6.7l-3.9-1l-3.4,8.2l-2.9-5.3l-1.9,3.9l0.5-5.8l-3,8.6c0,0-5.3-0.5-2.9-3.9l-2.4,7.2
		l1,2.4h-3.4c0,0,12.1,4.8,7.2,6.3s-7.7-2.4-7.7-2.4l1,3.4l-4.3-1.4l2.4,7.2l-4.3-2.4l2.4,3.9l-3.9-1.9l1,5.8c0,0-3.9-0.5-3.9-4.3
		l-1.4,1.9c0,0-5.8-9.2-1.4-13c0,0-7.2,5.8-2.9,11.6l-2.4-2.4c0,0-7.2,10.1-2.4,13l-6.3-5.3l-2.9,2.4c0,0-1.9,8.2-3.9,7.2l-2.9,4.3
		c0,0,9.2,1,4.3,8.2l2.9,1.9l3.9-1c0,0-1.4-4.8,1-5.3c0,0-1-4.8-2.4-3.4c-1.4,1.4-1.4,1.4-1.4,1.4l-2.4-1.9c0,0,5.3-6.7,8.7-5.8
		c0,0,3.9,2.4,5.3,1.4c1.4-1,2.9-3.9,2.9-3.9l3.9,1l1-2.9l4.8,5.3l0.5-4.3l2.4,2.9l2.9-1.9l1,2.4l1.9,0.5l-1-3.4l3.9-2.9l2.9,0.5
		l1.4-5.3c0,0,7.7,1,7.2,8.2c0,0,3.9,1,3.9,3.4l-1.4,3.4c0,0-5.8,0.5-5.3-1.4l-1.9,4.8l1.9,2.9l9.6-6.3l-0.5,4.3l4.3-1.9l-5.8,8.7
		l3.9,1.4l-1,4.8l7-2.4l0.5-2.4l-2.9-1.4l4.8-4.3l2.9,3.4c0,0,3.4,1,5.3-2.4c0,0-4.8-10.6-2.4-14.5s19.3-19.3,19.3-19.3
		s9.2,2.4,9.2,5.8c0,0,2.9-0.5,5.3-1l-1-1.9l3.9-1.4c0,0-1-5.8,2.4-4.8l1.9,2.4l2.9-0.5l4.8,2.4c0,0,2.4-1.4,2.9-5.8
		c0,0,11.6-8.2,12.5-12.1C155.3,116.3,155.8,110,155.8,110z"/>
	<path class="st5" d="M173.6,245c0,0,0-2.4-0.5-4.3c-0.5-1.9-6.3-2.4-6.3-2.4s1.4,6.7-9.2-0.5l-1.9,4.3l-0.5-3.4l-4.8,3.4
		c0,0,3.9-11.1,1.9-13.5c0,0-4.3,4.8-8.7,0.5l-2.4-2.4l-2.4,6.7c0,0-2.9-7.2-1.9-12.5l-2.4,2.9c0,0,1.4,3.4-0.5,5.3
		c0,0,1,8.2,4.3,7.2c3.4-1,5.3,1,5.3,1s1.9,5.8-1.4,4.8l1,3.9c0,0,14,1,12.5,7.2s-1.4,6.3-1.4,6.3l7.7,6.7c0,0,3.4-5.8,8.2-1.4
		l4.3-5.3L173.6,245z"/>
	<path class="st5" d="M88.8,239.7l4.3-1l-1.9-2.9l1.9-1.9c0,0-5.8-4.3-7.7-2.4l-2.4-1.9l-6.3,6.3l0.5-4.8l-3.9,2.4l6.3-8.2l-5.8,2.9
		l1.4-6.3l-3.4,3.4l-1.9-3.4l-2.4-1.4l3.4-3.4c0,0-6.3-3.4-8.7-1.9l-3.4,2.4l-2.9-1.4l-3.4,2.9l0.5,4.8c0,0-1.9-4.8-13.5-4.8
		l0.5-1.9c0,0-4.3-1.4-4.8,1.4s2.4,3.4,2.4,3.4l-1.9,1.9c0,0,2.2,0,3.3,2c0.4,0.7,0.6,1.6,0.6,2.8l2.9-3.4l5.3-2.9c0,0,1,0,1.4,3.9
		l5.8,0.5l2.4-2.4l2.4,0.5c0,0-0.5,2.9,7.7,6.3c0,0-1.9,6.7-0.5,7.7l4.3,3.9l-5.3,2.9l4,0.3c0,0,3.9-2.9,8.2,0.5
		c0,0,2.9,5.8,5.3,4.8s5.3,1.9,5.3,1.9s-1-6.3,3.4-2.4l-1-3.9l3.4,0.5L88.8,239.7z"/>
	<path class="st8" d="M89.3,267.2c0,0-2.4,5.3,3.4,5.8s13.5,0,13.5,0l-3.4-11.1C102.8,261.9,94.6,262.9,89.3,267.2z"/>
	<path class="st8" d="M178.9,272.5c0,0,11.6-6.3,14-1.9c2.4,4.3,4.3,9.6,4.3,9.6s-14.5,2.9-19.3-1L178.9,272.5z"/>
	<path class="st8" d="M213.2,221.4c0,0-6.7-3.9-6.7-1s-2.4,8.2-2.4,8.2l1.9,8.7c0,0,6.3-1.4,8.7-3.4
		C214.6,233.9,210.8,222.9,213.2,221.4z"/>
</g>
</svg>
