<?xml version="1.0" encoding="utf-8"?>
<!-- Generator: Adobe Illustrator 23.0.6, SVG Export Plug-In . SVG Version: 6.00 Build 0)  -->
<svg version="1.1" id="Layer_1" xmlns="http://www.w3.org/2000/svg" xmlns:xlink="http://www.w3.org/1999/xlink" x="0px" y="0px"
	 viewBox="0 0 288 288" style="enable-background:new 0 0 288 288;" xml:space="preserve">
<style type="text/css">
	.st0{opacity:0.5;}
	.st1{fill:#D5BEA4;}
	.st2{fill:#9A7348;}
	.st3{fill:#89735F;}
	.st4{fill:#A59789;}
	.st5{fill:#B58A54;}
	.st6{fill:#AC957A;}
	.st7{fill:#F5E0C0;}
	.st8{fill:#C19BAD;}
	.st9{fill:#FFFFFF;}
</style>
<g class="st0">
	<path d="M131.1,245.1l-10.3,3.8c0,0-7,11.7-3.8,14.6l8-4.2c0,0-2.3,14.1,2.8,10.3c0,0,7-11.3,18.8-10.8l12.7,1.9
		c0,0-2.3,23,1.9,19.7s13.1-16.4,13.1-16.4s6.6-5.2,9.4-11.3c2.8-6.1,15-14.6,15-14.6s0-8.9-2.3-10.3c-2.3-1.4,2.3,1.4,2.3,1.4
		L131.1,245.1z"/>
	<path d="M63,52.1l-1.4-11.3l7.5-4.2l6.6-26.3c0,0,20.7,16,20.2,32.4L63,52.1z"/>
	<path d="M69.6,49.3c0,0,1.4-21.6,12.7-24.4l3.8,17.8L69.6,49.3z"/>
	<path d="M39.5,71.8c0,0-23.5-33.3-31.9-32.9l27.7,36.6l-18.3-7c0,0-4.7,4.7,15.5,14.1l0.5,3.8c0,0-19.3,5.6-18.8,7.5
		S33.9,92,33.9,92S31.5,77.5,39.5,71.8z"/>
	<path d="M71,219.7l-4.2,0.5c0,0-9.9-6.1-13.6,1.9c0,0-20.7,7-14.6,21.1c0,0,14.6-10.8,16.4-7.5c0,0-6.1,16.9-0.5,13.1
		s10.8-8.5,10.8-8.5s8-3.8,15.5-1.9s18.3,0,18.3,0S71.9,216.5,71,219.7z"/>
	<path d="M211.4,195.3c0,0,48.4,0.9,59.2-49.8s-29.6-85-29.6-85s-26.3-19.7-12.2-17.8s33.3,30.1,33.3,30.1s42.3,39.9,17.4,93
		S202,221.7,202,221.7L211.4,195.3z"/>
	<path d="M57.8,157.3c0,0-5.2-5.6-9.4-2.8c0,0-5.6-11.3-11.7-8.9c0,0-19.3,2.8-15,16.4c0,0,2.3,0,3.8-2.3c1.4-2.3,6.1-0.9,6.1-0.9
		l-1.4,3.3c0,0-15.5,15-2.8,20.2c0,0,1.9-1.9,3.3-5.6c1.4-3.8,4.7-6.1,4.7-6.1s13.6,9.4,21.1,0l2.3-11.3L57.8,157.3z"/>
	<path d="M40.9,65.3c0,0,1.9-10.3,23-14.6l9.9-3.3c0,0,7.5-20.7,13.1-20.7L85,35.6l4.7-1.9l-3.8,8.9l6.1-3.3l-1.8,4.8
		c0,0,22.1-13.6,31-12.2l-5.6,8.5l5.6-3.3l-0.9,3.3l9.9-0.9l-2.3,6.1l10.3,0.9l-8,4.2l7,3.8c0,0,37.6-17.4,62.5-2.3l-12.2,15.5
		l8.9,10.8l-12.7,13.1c0,0,0.5,9.4-3.3,11.7l5.6,2.8l-2.8,2.8l12.7,6.6l-5.2,0.9l4.2,2.8l-2.3,1.4c0,0,11.3,3.8,13.1,7.5l-7.5,2.9
		l7.5,8l-5.2-0.5c0,0,21.6,34.3,13.1,57.8s-11.3,29.1-11.3,29.1s-25.4,31.9-66.2,23.5l-2.8-2.8l3.8-0.5l-2.3-2.8
		c0,0,13.6,7.5,17.4-11.3s-2.3-21.6-2.3-21.6l3.8,1.9l-13.6-13.6h2.8c0,0-31-32.9-32.4-31.9s4.7,0.9,4.7,0.9s-9.4-2.8-10.8-2.8
		s7.5-1.9,7.5-1.9l-9.4-2.3c0,0,16-0.9,12.2-19.7s-12.2-35.7-12.2-35.7l-4.3-13.7c0,0-5.6-8.5-9.9-8l4.2-0.5c0,0-22.5-8.5-27.7-5.6
		c0,0-2.3-9.9-7.5-9.9S40.9,65.3,40.9,65.3z"/>
	<path d="M138.6,72.3c0,0,17.4-23.5,42.3-17.8c0,0,8.9,34.3-11.3,42.7s-27.7-2.3-27.7-2.3l-2.3-7.5C139.5,87.3,140.5,77,138.6,72.3z
		"/>
	<path d="M40.9,65.3l0.5,5.6c0,0-11.7,5.6-7.5,21.1s5.6,23,5.6,23s1.9,16.4,0.5,18.8s0.9,7,0.9,7s10.8,10.3,16.4,12.2
		c0,0,1.9,8.9-0.9,17.4c-2.8,8.5,0.5,19.7,0.5,19.7l-2.3,7.5l3.3-0.5v9.9l3.8-2.8c0,0,10.8,19.7,29.6,30.1
		c18.8,10.3,45.1,14.6,45.1,14.6l-2.8-2.8l3.8-0.5l-2.3-2.8c0,0,15,6.1,17.4-11.3c2.3-17.4-2.3-21.6-2.3-21.6l5.6,1.9l-15.5-13.6
		h2.8c0,0-24.4-34.3-38.5-33.8l7.5-1.9l-9.4-2.3c0,0,25.8,0.9,4.7-44.6c0,0,33.8,20.2,41.8,18.3c0,0-43.2-25.8-46.5-27.2v-1.9
		c0,0,40.4,1.9,40.9-1.4s-43.7-4.7-43.7-4.7l4.2-2.8c0,0,63.9-1.9,65.7-3.3s-46.5-5.2-46.5-5.2s-19-2.4-25.1,3.7c0,0-3.3-8-9.9-8
		l4.2-0.5c0,0-19.7-9.4-27.7-5.6c0,0-2.8-10.8-7.5-9.9S40.9,65.3,40.9,65.3z"/>
	<path d="M121.7,174.7c0,0-17.4-11.3-14.6,14.6c0,0,3.3-0.5,7-5.2c0,0,4.2,1.4,5.2,5.6c0.9,4.2,8.9,8,8.9,8s13.6,1.4,13.1-2.8
		c0,0,3.8,4.2,7-2.3c3.3-6.6,3.3-6.6,3.3-6.6s0-11.3-9.9-3.8l-3.3-2.8c0,0-1.9-16-7.5-13.6C125.5,168.1,121.7,174.7,121.7,174.7z"/>
	<path d="M67.7,92c0,0,13.6,31.9,9.9,39S71,144.1,71,144.1s-18.3-9.9-13.6-26.8S67.7,92,67.7,92z"/>
	<path d="M42.8,85.9c0,0-1.9,24.4,2.3,29.1c0,0-2.3,25.8,9.4,29.1s16.4,0,16.4,0s-13.6-18.8-12.2-23.9c1.5-5.2,9-28.2,9-28.2
		s0-6.1-6.1-5.6S45.2,88.3,42.8,85.9z"/>
</g>
<g>
	<path class="st1" d="M125.9,240.1l-10.3,3.8c0,0-7,11.7-3.8,14.6l8-4.2c0,0-2.3,14.1,2.8,10.3c0,0,7-11.3,18.8-10.8l12.7,1.9
		c0,0-2.3,23,1.9,19.7s13.1-16.4,13.1-16.4s6.6-5.2,9.4-11.3c2.8-6.1,15-14.6,15-14.6s0-8.9-2.3-10.3c-2.3-1.4,2.3,1.4,2.3,1.4
		L125.9,240.1z"/>
	<path class="st2" d="M57.8,47.1l-1.4-11.3l7.5-4.2l6.6-26.3c0,0,20.7,16,20.2,32.4L57.8,47.1z"/>
	<path class="st3" d="M64.4,44.3c0,0,1.4-21.6,12.7-24.4l3.8,17.8L64.4,44.3z"/>
	<path class="st4" d="M34.3,66.8c0,0-23.5-33.3-31.9-32.9l27.7,36.6l-18.3-7c0,0-4.7,4.7,15.5,14.1l0.5,3.8c0,0-19.3,5.6-18.8,7.5
		S28.7,87,28.7,87S26.3,72.5,34.3,66.8z"/>
	<path class="st4" d="M65.8,214.7l-4.2,0.5c0,0-9.9-6.1-13.6,1.9c0,0-20.7,7-14.6,21.1c0,0,14.6-10.8,16.4-7.5
		c0,0-6.1,16.9-0.5,13.1s10.8-8.5,10.8-8.5s8-3.8,15.5-1.9s18.3,0,18.3,0S66.7,211.5,65.8,214.7z"/>
	<path class="st4" d="M206.2,190.3c0,0,48.4,0.9,59.2-49.8s-29.6-85-29.6-85s-26.3-19.7-12.2-17.8s33.3,30.1,33.3,30.1
		s42.3,39.9,17.4,93s-77.5,55.9-77.5,55.9L206.2,190.3z"/>
	<path class="st4" d="M52.6,152.3c0,0-5.2-5.6-9.4-2.8c0,0-5.6-11.3-11.7-8.9c0,0-19.3,2.8-15,16.4c0,0,2.3,0,3.8-2.3
		c1.4-2.3,6.1-0.9,6.1-0.9l-1.4,3.3c0,0-15.5,15-2.8,20.2c0,0,1.9-1.9,3.3-5.6c1.4-3.8,4.7-6.1,4.7-6.1s13.6,9.4,21.1,0l2.3-11.3
		L52.6,152.3z"/>
	<path class="st5" d="M35.7,60.3c0,0,1.9-10.3,23-14.6l9.9-3.3c0,0,7.5-20.7,13.1-20.7l-1.9,8.9l4.7-1.9l-3.8,8.9l6.1-3.3L85,39.1
		c0,0,22.1-13.6,31-12.2l-5.6,8.5l5.6-3.3l-0.9,3.3l9.9-0.9l-2.3,6.1l10.3,0.9l-8,4.2l7,3.8c0,0,37.6-17.4,62.5-2.3l-12.2,15.5
		l8.9,10.8l-12.7,13.1c0,0,0.5,9.4-3.3,11.7l5.6,2.8l-2.8,2.8l12.7,6.6l-5.2,0.9l4.2,2.8l-2.3,1.4c0,0,11.3,3.8,13.1,7.5L193,126
		l7.5,8l-5.2-0.5c0,0,21.6,34.3,13.1,57.8s-11.3,29.1-11.3,29.1s-25.4,31.9-66.2,23.5l-2.8-2.8l3.8-0.5l-2.3-2.8
		c0,0,13.6,7.5,17.4-11.3s-2.3-21.6-2.3-21.6l3.8,1.9l-13.6-13.6h2.8c0,0-31-32.9-32.4-31.9s4.7,0.9,4.7,0.9s-9.4-2.8-10.8-2.8
		s7.5-1.9,7.5-1.9l-9.4-2.3c0,0,16-0.9,12.2-19.7S97.3,99.8,97.3,99.8L93,86.1c0,0-5.6-8.5-9.9-8l4.2-0.5c0,0-22.5-8.5-27.7-5.6
		c0,0-2.3-9.9-7.5-9.9S35.7,60.3,35.7,60.3z"/>
	<path class="st6" d="M133.4,67.3c0,0,17.4-23.5,42.3-17.8c0,0,8.9,34.3-11.3,42.7s-27.7-2.3-27.7-2.3l-2.3-7.5
		C134.3,82.3,135.3,72,133.4,67.3z"/>
	<path class="st7" d="M35.7,60.3l0.5,5.6c0,0-11.7,5.6-7.5,21.1s5.6,23,5.6,23s1.9,16.4,0.5,18.8s0.9,7,0.9,7s10.8,10.3,16.4,12.2
		c0,0,1.9,8.9-0.9,17.4c-2.8,8.5,0.5,19.7,0.5,19.7l-2.3,7.5l3.3-0.5v9.9l3.8-2.8c0,0,10.8,19.7,29.6,30.1
		c18.8,10.3,45.1,14.6,45.1,14.6l-2.8-2.8l3.8-0.5l-2.3-2.8c0,0,15,6.1,17.4-11.3c2.3-17.4-2.3-21.6-2.3-21.6l5.6,1.9l-15.5-13.6
		h2.8c0,0-24.4-34.3-38.5-33.8l7.5-1.9l-9.4-2.3c0,0,25.8,0.9,4.7-44.6c0,0,33.8,20.2,41.8,18.3c0,0-43.2-25.8-46.5-27.2v-1.9
		c0,0,40.4,1.9,40.9-1.4s-43.7-4.7-43.7-4.7l4.2-2.8c0,0,63.9-1.9,65.7-3.3s-46.5-5.2-46.5-5.2S99.1,80,93,86.1c0,0-3.3-8-9.9-8
		l4.2-0.5c0,0-19.7-9.4-27.7-5.6c0,0-2.8-10.8-7.5-9.9S35.7,60.3,35.7,60.3z"/>
	<path class="st1" d="M116.5,169.7c0,0-17.4-11.3-14.6,14.6c0,0,3.3-0.5,7-5.2c0,0,4.2,1.4,5.2,5.6c0.9,4.2,8.9,8,8.9,8
		s13.6,1.4,13.1-2.8c0,0,3.8,4.2,7-2.3c3.3-6.6,3.3-6.6,3.3-6.6s0-11.3-9.9-3.8l-3.3-2.8c0,0-1.9-16-7.5-13.6
		C120.3,163.1,116.5,169.7,116.5,169.7z"/>
	<path class="st8" d="M62.5,87c0,0,13.6,31.9,9.9,39c-3.7,7.1-6.6,13.1-6.6,13.1s-18.3-9.9-13.6-26.8S62.5,87,62.5,87z"/>
	<path class="st9" d="M37.6,80.9c0,0-1.9,24.4,2.3,29.1c0,0-2.3,25.8,9.4,29.1s16.4,0,16.4,0s-13.6-18.8-12.2-23.9
		c1.5-5.2,9-28.2,9-28.2s0-6.1-6.1-5.6S40,83.3,37.6,80.9z"/>
</g>
</svg>
