<?xml version="1.0" encoding="utf-8"?>
<!-- Generator: Adobe Illustrator 23.0.6, SVG Export Plug-In . SVG Version: 6.00 Build 0)  -->
<svg version="1.1" id="Layer_1" xmlns="http://www.w3.org/2000/svg" xmlns:xlink="http://www.w3.org/1999/xlink" x="0px" y="0px"
	 viewBox="0 0 288 288" style="enable-background:new 0 0 288 288;" xml:space="preserve">
<style type="text/css">
	.st0{opacity:0.5;}
	.st1{fill:#C9BAA9;}
	.st2{fill:#8B8191;}
	.st3{fill:#D5C0AA;}
	.st4{fill:#82708A;}
	.st5{fill:#8E6F79;}
	.st6{fill:#DAC3C9;}
	.st7{fill:#FFFFFF;}
	.st8{fill:#9E89AB;}
</style>
<g class="st0">
	<path d="M193.1,221.6c0,0-14.5,6.7-15.6,8.9c0,0-3.3-7.2,1.1-7.8l-17.3,6.1l2.2-6.7l-6.1-2.8l17.8-11.1L193.1,221.6z"/>
	<path d="M181.4,206.5l-6.1,1.7c0,0,0.6,3.9,6.1,5.6c5.6,1.7,11.7,7.8,11.7,7.8s6.7,1.7,15.6-12.3L181.4,206.5z"/>
	<path d="M125.3,233.2c0,0-16.4,8.9-16,13.3l8.4-0.9c0,0-8,13.3-4,15.1c0,0,12.9-11.1,14.6-10.2c0,0-5.3,8.4-2.2,9.3l13.8-8.4
		C140,251.4,154.6,227.8,125.3,233.2"/>
	<path d="M259.8,224.3c-2.6,2.5-4.8,4.5-6.3,5.9c-3.7,3.4-6.1,5.3-5.8,7.6c0.1,0.7,0.4,1.2,0.6,1.6c0.7-0.4,2-0.7,3.6-1.1
		c1.8-0.4,3.6-0.7,3.6,0.2c0,0-3.1,12,1.8,12.4c0,0,7.5-15.5,11.5-13.8c-3.7,3.1-5.5,6.5-4.5,8.4c0.2,0.3,0.5,0.7,1,1
		c14.8-6.7,19.1-11,18.6-13.8v0c0,0,0-2.5-0.7-4.7C282.5,226.3,273.2,223.3,259.8,224.3z"/>
	<path d="M188.4,191.5l38.6-9.8l5.8,21.3c0,0-19.5,21.3-54.2,5.3S188.4,191.5,188.4,191.5z"/>
	<path d="M58.3,122.7c0,0-24-20.9-28.9-19.1l24.9,22.6L58.3,122.7z"/>
	<path d="M26.4,172.8c0,0-4.4,0.4-4.9,2.7c0,0-12.9-1.3-16,2.2l11.1,6.2c0,0-10.2,6.7-9.3,10.7s10.7-1.8,10.7-1.8s7.1,3.6,15.1,0
		S44.6,177.7,26.4,172.8z"/>
	<path d="M67.2,109.3c0,0-10.2-20.4,11.1-45.7c0,0,26.2,0,24,28L67.2,109.3z"/>
	<path d="M72.5,104c0,0-3.6-20,6.7-29.7c0,0,8,9.8,5.8,20.9C82.7,106.2,72.5,104,72.5,104z"/>
	<path d="M67.6,163c0,0-28-0.9-41.3,9.8c0,0,21.7,8.9,6.7,20c0,0,39.1-4.9,65.2,3.1C124.5,203.9,67.6,163,67.6,163z"/>
	<path d="M250.5,138.2c0,0,19.1-64.4-36.4-94.1c0,0-3.1,21.7-31.5,7.1c0,0-30.6-30.2,1.8-38.2s67,49.3,67,49.3s22.6,56.4,4.9,87.9
		S250.5,138.2,250.5,138.2z"/>
	<path d="M54.3,158.1c0,0,34.2,27.5,35.1,32.1c1,4.6-1,9.2-1,9.2s5.8-22,14-21.6c8.2,0.5-29.8-31.7-29.8-31.7L54.3,158.1z"/>
	<path d="M98.7,176.8c0,0-27.1,24-3.6,38.1s18.2-29.9,18.2-29.9L98.7,176.8z"/>
	<path d="M46.8,154.6c0,0-5.3,30.2,7.1,30.6c0,0,6.2,3.6,8.9,1.8s17.8-30.6,17.8-30.6S68.1,147.5,46.8,154.6z"/>
	<path d="M42.3,145.7c0,0,2.2,12.4,12,12l18.6-3.6c0,0,5.3,0.9,10.2,7.1c4.9,6.2,26.6,26.6,26.6,26.6s9.8,19.1-14.6,26.2
		c0,0-10.2-2.7-9.3-16.4c0,0-8.9,22.2,11.1,22.2s30.2-16.4,30.2-16.4c1.2-0.8,3.1-1.7,5.4-2.2c6.6-1.2,11.7,2.7,12.8,3.5
		c1.5-6.1,3-12.1,4.4-18.2c0,0-3.1-25.7-13.3-25.3s83-4.4,83-4.4l0.4-6.7l-92.7-0.4c-6.7-3.2-15.5-6.6-26.2-8.9
		c-15.1-3.2-28.2-2.8-37.3-1.8C56.6,141.3,49.5,143.5,42.3,145.7z"/>
	<path d="M58.3,122.7c0,0,27.1-54.2,83-19.1c0,0,42.6-36.1,49.3-11.8c6.7,24.2,1.3,44.2,1.3,44.2c3.1-2.2,6.9-4.6,11.5-6.7
		c10.2-4.6,19.5-5.6,25.8-5.8c5.3,2.1,13.8,6.3,21.3,14.6c15.3,17.1,14.5,38.2,14.2,43.1c0,0,4,15.1,20.4,21.3c0,0,6.2,8.4-1.3,30.2
		c0,0,1.8-6.7-13.3-2.2c-15.1,4.4-10.7-6.2-10.7-6.2l1.8-4.4c0,0-24.9-8.4-28.9-16.9c-4-8.4-5.3-14.2-5.3-14.2s-8.9-6.2-24,0
		s-16.4,3.6-16.4,3.6s-22.6,46.6-47,59c0,0,4-13.3-4.9-11.1s-9.8-7.1-9.8-7.1s19.5-43.9,24.4-46.6l-4.9-3.1c0,0-0.9-21.3-8.4-22.2
		s61.3-8,77.7-6.2c0,0,14.2-9.3-83-1.3c0,0-30.2-14.2-64.4-9.8c0,0-19.1,9.3-24.4,1.8c0,0-4.9-15.1-0.4-16.4
		C46.3,128,58.3,122.7,58.3,122.7z"/>
	<path d="M149.8,115.6c0,0,26.6-30.6,33.7-12.9s-4.9,39.5-4.9,39.5s-7.1,5.8-23.5-3.1C155.1,139.1,156.4,116,149.8,115.6z"/>
</g>
<g>
	<path class="st1" d="M188,216.9c0,0-14.5,6.7-15.6,8.9c0,0-3.3-7.2,1.1-7.8l-17.3,6.1l2.2-6.7l-6.1-2.8l17.8-11.1L188,216.9z"/>
	<path class="st2" d="M176.3,201.8l-6.1,1.7c0,0,0.6,3.9,6.1,5.6c5.6,1.7,11.7,7.8,11.7,7.8s6.7,1.7,15.6-12.3L176.3,201.8z"/>
	<path class="st3" d="M120.2,228.5c0,0-16.4,8.9-16,13.3l8.4-0.9c0,0-8,13.3-4,15.1c0,0,12.9-11.1,14.6-10.2c0,0-5.3,8.4-2.2,9.3
		l13.8-8.4C134.9,246.7,149.5,223.1,120.2,228.5"/>
	<path class="st3" d="M254.7,219.6c-2.6,2.5-4.8,4.5-6.3,5.9c-3.7,3.4-6.1,5.3-5.8,7.6c0.1,0.7,0.4,1.2,0.6,1.6
		c0.7-0.4,2-0.7,3.6-1.1c1.8-0.4,3.6-0.7,3.6,0.2c0,0-3.1,12,1.8,12.4c0,0,7.5-15.5,11.5-13.8c-3.7,3.1-5.5,6.5-4.5,8.4
		c0.2,0.3,0.5,0.7,1,1c14.8-6.7,19.1-11,18.6-13.8v0c0,0,0-2.5-0.7-4.7C277.4,221.6,268.1,218.6,254.7,219.6z"/>
	<path class="st3" d="M183.3,186.8l38.6-9.8l5.8,21.3c0,0-19.5,21.3-54.2,5.3S183.3,186.8,183.3,186.8z"/>
	<path class="st1" d="M53.2,118c0,0-24-20.9-28.9-19.1l24.9,22.6L53.2,118z"/>
	<path class="st1" d="M21.3,168.1c0,0-4.4,0.4-4.9,2.7c0,0-12.9-1.3-16,2.2l11.1,6.2c0,0-10.2,6.7-9.3,10.7s10.7-1.8,10.7-1.8
		s7.1,3.6,15.1,0S39.5,173,21.3,168.1z"/>
	<path class="st4" d="M62.1,104.6c0,0-10.2-20.4,11.1-45.7c0,0,26.2,0,24,28L62.1,104.6z"/>
	<path class="st1" d="M67.4,99.3c0,0-3.6-20,6.7-29.7c0,0,8,9.8,5.8,20.9C77.6,101.5,67.4,99.3,67.4,99.3z"/>
	<path class="st2" d="M62.5,158.3c0,0-28-0.9-41.3,9.8c0,0,21.7,8.9,6.7,20c0,0,39.1-4.9,65.2,3.1
		C119.4,199.2,62.5,158.3,62.5,158.3z"/>
	<path class="st2" d="M245.4,133.5c0,0,19.1-64.4-36.4-94.1c0,0-3.1,21.7-31.5,7.1c0,0-30.6-30.2,1.8-38.2s67,49.3,67,49.3
		s22.6,56.4,4.9,87.9S245.4,133.5,245.4,133.5z"/>
	<path class="st5" d="M49.2,153.4c0,0,34.2,27.5,35.1,32.1c1,4.6-1,9.2-1,9.2s5.8-22,14-21.6c8.2,0.5-29.8-31.7-29.8-31.7
		L49.2,153.4z"/>
	<path class="st6" d="M93.6,172.1c0,0-27.1,24-3.6,38.1s18.2-29.9,18.2-29.9L93.6,172.1z"/>
	<path class="st7" d="M41.7,149.9c0,0-5.3,30.2,7.1,30.6c0,0,6.2,3.6,8.9,1.8s17.8-30.6,17.8-30.6S63,142.8,41.7,149.9z"/>
	<path class="st3" d="M37.2,141c0,0,2.2,12.4,12,12l18.6-3.6c0,0,5.3,0.9,10.2,7.1c4.9,6.2,26.6,26.6,26.6,26.6s9.8,19.1-14.6,26.2
		c0,0-10.2-2.7-9.3-16.4c0,0-8.9,22.2,11.1,22.2s30.2-16.4,30.2-16.4c1.2-0.8,3.1-1.7,5.4-2.2c6.6-1.2,11.7,2.7,12.8,3.5
		c1.5-6.1,3-12.1,4.4-18.2c0,0-3.1-25.7-13.3-25.3s83-4.4,83-4.4l0.4-6.7L122,145c-6.7-3.2-15.5-6.6-26.2-8.9
		c-15.1-3.2-28.2-2.8-37.3-1.8C51.5,136.6,44.4,138.8,37.2,141z"/>
	<path class="st8" d="M53.2,118c0,0,27.1-54.2,83-19.1c0,0,42.6-36.1,49.3-11.8c6.7,24.2,1.3,44.2,1.3,44.2
		c3.1-2.2,6.9-4.6,11.5-6.7c10.2-4.6,19.5-5.6,25.8-5.8c5.3,2.1,13.8,6.3,21.3,14.6c15.3,17.1,14.5,38.2,14.2,43.1
		c0,0,4,15.1,20.4,21.3c0,0,6.2,8.4-1.3,30.2c0,0,1.8-6.7-13.3-2.2c-15.1,4.4-10.7-6.2-10.7-6.2l1.8-4.4c0,0-24.9-8.4-28.9-16.9
		c-4-8.4-5.3-14.2-5.3-14.2s-8.9-6.2-24,0s-16.4,3.6-16.4,3.6s-22.6,46.6-47,59c0,0,4-13.3-4.9-11.1s-9.8-7.1-9.8-7.1
		s19.5-43.9,24.4-46.6l-4.9-3.1c0,0-0.9-21.3-8.4-22.2s61.3-8,77.7-6.2c0,0,14.2-9.3-83-1.3c0,0-30.2-14.2-64.4-9.8
		c0,0-19.1,9.3-24.4,1.8c0,0-4.9-15.1-0.4-16.4C41.2,123.3,53.2,118,53.2,118z"/>
	<path class="st3" d="M144.7,110.9c0,0,26.6-30.6,33.7-12.9s-4.9,39.5-4.9,39.5s-7.1,5.8-23.5-3.1
		C150,134.4,151.3,111.3,144.7,110.9z"/>
</g>
</svg>
