<?xml version="1.0" encoding="utf-8"?>
<!-- Generator: Adobe Illustrator 23.0.6, SVG Export Plug-In . SVG Version: 6.00 Build 0)  -->
<svg version="1.1" id="Layer_1" xmlns="http://www.w3.org/2000/svg" xmlns:xlink="http://www.w3.org/1999/xlink" x="0px" y="0px"
	 viewBox="0 0 288 288" style="enable-background:new 0 0 288 288;" xml:space="preserve">
<style type="text/css">
	.st0{opacity:0.5;}
	.st1{fill:#AAB6BF;}
	.st2{fill:#545560;}
	.st3{fill:#302F2F;}
	.st4{fill:#FFFFFD;}
	.st5{fill:#B8B7C6;}
</style>
<g class="st0">
	<path d="M63.9,84.4c0,0-16-1.5-20.1,16l-3.6,17l-4.1,2.1L34,132.4l4.6,9.8c0,0-0.5,12.9-3.1,14.9v3.6c-1.1,2.4-8.1,18-10.3,30.9
		c-1.2,7.1-0.7,11.9-0.5,13.4c0.4,3,1,5.5,1.5,7.2c1.4,1.8,3.9,4.3,7.7,6.2c7.5,3.7,14.8,2.1,17,1.5c0,0,15.4,25.2,28.8,27.8
		s2.1,0,2.1,0s5.7,6.2,23.7-2.6c0,0,2.1-5.1,13.9-12.4s14.9-10.3,14.9-10.3c1.6,0.2,3.7,0.4,6.2,0c4.3-0.6,7.5-2.4,9.3-3.6
		c0,0.8-0.1,2.2-0.8,3.4c-1.7,2.7-5.1,2.2-6.4,4.3c-0.6,1-0.9,2.9,1,6.7c-0.7,3.6-1.4,7.2-2.1,10.8c0,0-0.5,10.3-2.6,11.8
		s-7.7,16.5,6.2,20.6s21.6,4.1,21.6,4.1s30.4,2.1,31.9-23.2l3.6-16l8.2-1c0,0,12.9-4.6,30.9-28.8l18,5.1c0,0,12.9-16.5,10.3-21.6
		c0,0-12.4-13.4-3.6-31.4c0,0,17.5-16.5-5.1-14.4l-18.5,5.1l-0.5-50.4c0,0-19-28.3-27.8-28.8l-6.2,2.6c0,0-27.3-41.2-57.1-14.4
		c0,0-27.3,17.5-23.7,39.1H124l5.7-49.9l53-18l-7.2-22.6c0,0-1.5-8.7-23.7-4.1c0,0,1.5,20.1-10.8,25.2c-4.8-4.5-7-8.7-8.2-11.8
		c-1.9-4.9-1.5-8.2-4.1-10.3c-3-2.5-7.8-1.6-11.3-0.5c0,0-13.9,13.9-13.4,17s2.6,28.3,2.6,28.3c-5.1,4.9-11.4,10.2-19,15.4
		C79,76.9,70.9,81.2,63.9,84.4z"/>
	<path d="M28.3,208.4c0,0-2.1,27.8,5.1,40.1c0,0-0.5,9.3,5.1,11.8c5.7,2.6,9.8,4.1,9.8,4.1s11.8,3.1,14.9,2.1h4.1
		c8.2-5.1,14.1-10.5,13.4-15.4c-0.6-4.1-5.3-4.6-12.9-11.3c-11.6-10.2-8.7-16.2-17-20.1c-8-3.7-15.1-0.3-20.1-6.2
		C29.4,211.7,28.7,209.7,28.3,208.4z"/>
	<path d="M63.9,84.4c0,0,13.9-19,17.5-17.5s6.2,4.1,6.2,4.1s-13.4,9.8-7.2,28.3c0,0-6.2-5.1-6.7-8.7S63.9,84.4,63.9,84.4z"/>
	<path d="M25.3,191.4c0,0-10.8,16-10.3,20.1s13.9,18,13.9,18S28.9,199.7,25.3,191.4z"/>
	<path d="M75.7,246c1.8,2,4.6,4.6,8.7,6.4c9.8,4.4,19.3,1.1,21.6,0.3c0,0,12.4-7.2,14.9-12.4c0,0,18,5.7,20.6,3.6
		c0,0,4.1-4.6,2.1-10.8c-2.1-6.2,3.6-6.7,3.6-6.7s5.1-9.3,8.2-8.7c0,0-14.4-1.5-21.1,4.6c-6.7,6.2-14.9,10.3-14.9,10.3
		s-12.9,7.7-13.9,12.4c-2.3,1.3-5.4,2.8-9.4,3.6C86.7,250.5,78.9,247.5,75.7,246z"/>
	<path d="M204.4,65.3c2.9,2.3,7.9,5.7,14.9,7.7c5.4,1.5,10.1,1.7,13.4,1.5c0,0,14.9,3.1,14.9,8.7c0,0-12.9,6.7-10.3,15.4
		c0,0-18-23.7-23.2-23.7l-6.2,2.6C206.8,73.6,205.6,69.5,204.4,65.3z"/>
	<path d="M210.5,240.3c0,0,6.7,13.4,31.4,8.7c0,0,18,1,19-13.4s-1.5-19-1.5-19s-14.9-6.2-18-5.1S218.3,240.3,210.5,240.3z"/>
	<path d="M188.4,203.3c0,0,15.4-1,13.4,28.8C201.8,232.1,213.6,200.7,188.4,203.3z"/>
	<path d="M266.1,163.6c0,0,7.2,11.3,1,28.3C267.2,192,254.3,181.1,266.1,163.6z"/>
	<path d="M261,149.2l4.6-9.3l-6.2-17.5l-4.1-1.5c0,0-9.8-21.6-18-22.1l4.6,5.1c0,0-7.2,42.2,0.5,50.4L261,149.2z"/>
	<polygon points="150.3,64.8 149.3,70 158,75.1 	"/>
	<path d="M166.3,94.7c0,0,0-5.1,5.7,1.5c5.7,6.7,3.6,9.8,3.6,9.8L166.3,94.7z"/>
	<path d="M166.3,94.7c0,0,0,21.6,3.6,20.6s5.7-9.3,5.7-9.3S172.5,97.8,166.3,94.7z"/>
	<path d="M185.3,146.1c0,0,12.4-5.1,14.4,1c0,0-9.8,8.7-11.8,8.2S185.3,146.1,185.3,146.1z"/>
	<path d="M39.7,119.9l8.7-20.1c0,0-7.2-2.1-7.7,3.1S39.7,119.9,39.7,119.9z"/>
	<path d="M80.3,97.3c0,0,35,17,60.2-7.7c0,0-9.8,83.4-47.9,96.8l-3.6,1c0,0-4.6-11.8-9.3-10.3c-4.6,1.5-4.1,7.7-4.1,7.7
		s-16.5-16-11.8-63.8c0,0-5.1-40.1,6.7-36C70.5,84.9,77.8,98.8,80.3,97.3z"/>
	<path d="M106.6,62.8c0,0-8.7,3.6-9.3,8.2l8.2-4.6L106.6,62.8z"/>
	<path d="M124.1,102.4c0,0-13.9-21.1-5.1-82.3l8.2-9.3c0.3-0.1,0.7-0.2,1.2-0.2c2.8,0.2,3.8,5.3,6.6,11c0,0,0.4,0.9,10.3,14.9l0,0
		c0,0,13.4,5.1,15.4-11.3c2.1-16.5,2.6-14.9,2.6-14.9s5.7-2.6,12.4,1.5c0,0,8.7,42.2,28.8,43.7c0,0,4.6,21.1,4.1,25.7
		c0,0-26.8-37.6-57.6-18l-1.5,6.7l-4.1-2.1c-15.7,16.7-17.9,23.9-16.5,27.3c0.3,0.7,1.6,3.3,0.5,5.1
		C128.3,101.9,125.9,102.3,124.1,102.4z"/>
	<path d="M155.5,262.5c0,0,9.8,5.7,5.1,16.5c-4.6,10.8-5.7,7.2-5.7,7.2s-10.8-7.2-8.7-13.4S151.4,259.9,155.5,262.5z"/>
	<path d="M181.7,263.5c0,0,8.2-4.1,6.7,20.6c0,0-12.4-1-11.8-6.2S178.6,263,181.7,263.5z"/>
	<path d="M49.4,263.5c0,0-1.5-9.8-5.1-9.8s-5.7,13.4-5.7,13.4S50,266.1,49.4,263.5z"/>
	<path d="M62.8,256.3c0,0-10.8,4.1,0,16.5C62.8,272.8,74.7,262.5,62.8,256.3z"/>
</g>
<g>
	<path class="st1" d="M59,78.8c0,0-16-1.5-20.1,16l-3.6,17l-4.1,2.1l-2.1,12.9l4.6,9.8c0,0-0.5,12.9-3.1,14.9v3.6
		c-1.1,2.4-8.1,18-10.3,30.9c-1.2,7.1-0.7,11.9-0.5,13.4c0.4,3,1,5.5,1.5,7.2c1.4,1.8,3.9,4.3,7.7,6.2c7.5,3.7,14.8,2.1,17,1.5
		c0,0,15.4,25.2,28.8,27.8s2.1,0,2.1,0s5.7,6.2,23.7-2.6c0,0,2.1-5.1,13.9-12.4s14.9-10.3,14.9-10.3c1.6,0.2,3.7,0.4,6.2,0
		c4.3-0.6,7.5-2.4,9.3-3.6c0,0.8-0.1,2.2-0.8,3.4c-1.7,2.7-5.1,2.2-6.4,4.3c-0.6,1-0.9,2.9,1,6.7c-0.7,3.6-1.4,7.2-2.1,10.8
		c0,0-0.5,10.3-2.6,11.8s-7.7,16.5,6.2,20.6s21.6,4.1,21.6,4.1s30.4,2.1,31.9-23.2l3.6-16l8.2-1c0,0,12.9-4.6,30.9-28.8l18,5.1
		c0,0,12.9-16.5,10.3-21.6c0,0-12.4-13.4-3.6-31.4c0,0,17.5-16.5-5.1-14.4l-18.5,5.1L237,98.3c0,0-19-28.3-27.8-28.8l-6.2,2.6
		c0,0-27.3-41.2-57.1-14.4c0,0-27.3,17.5-23.7,39.1h-3.1l5.7-49.9l53-18l-7.2-22.6c0,0-1.5-8.7-23.7-4.1c0,0,1.5,20.1-10.8,25.2
		c-4.8-4.5-7-8.7-8.2-11.8c-1.9-4.9-1.5-8.2-4.1-10.3c-3-2.5-7.8-1.6-11.3-0.5c0,0-13.9,13.9-13.4,17s2.6,28.3,2.6,28.3
		c-5.1,4.9-11.4,10.2-19,15.4C74.1,71.3,66,75.6,59,78.8z"/>
	<path class="st2" d="M23.4,202.8c0,0-2.1,27.8,5.1,40.1c0,0-0.5,9.3,5.1,11.8c5.7,2.6,9.8,4.1,9.8,4.1s11.8,3.1,14.9,2.1h4.1
		c8.2-5.1,14.1-10.5,13.4-15.4c-0.6-4.1-5.3-4.6-12.9-11.3c-11.6-10.2-8.7-16.2-17-20.1c-8-3.7-15.1-0.3-20.1-6.2
		C24.5,206.1,23.8,204.1,23.4,202.8z"/>
	<path class="st2" d="M59,78.8c0,0,13.9-19,17.5-17.5s6.2,4.1,6.2,4.1s-13.4,9.8-7.2,28.3c0,0-6.2-5.1-6.7-8.7S59,78.8,59,78.8z"/>
	<path class="st2" d="M20.4,185.8c0,0-10.8,16-10.3,20.1s13.9,18,13.9,18S24,194.1,20.4,185.8z"/>
	<path class="st2" d="M70.8,240.4c1.8,2,4.6,4.6,8.7,6.4c9.8,4.4,19.3,1.1,21.6,0.3c0,0,12.4-7.2,14.9-12.4c0,0,18,5.7,20.6,3.6
		c0,0,4.1-4.6,2.1-10.8c-2.1-6.2,3.6-6.7,3.6-6.7s5.1-9.3,8.2-8.7c0,0-14.4-1.5-21.1,4.6c-6.7,6.2-14.9,10.3-14.9,10.3
		s-12.9,7.7-13.9,12.4c-2.3,1.3-5.4,2.8-9.4,3.6C81.8,244.9,74,241.9,70.8,240.4z"/>
	<path class="st3" d="M199.5,59.7c2.9,2.3,7.9,5.7,14.9,7.7c5.4,1.5,10.1,1.7,13.4,1.5c0,0,14.9,3.1,14.9,8.7
		c0,0-12.9,6.7-10.3,15.4c0,0-18-23.7-23.2-23.7l-6.2,2.6C201.9,68,200.7,63.9,199.5,59.7z"/>
	<path class="st2" d="M205.6,234.7c0,0,6.7,13.4,31.4,8.7c0,0,18,1,19-13.4s-1.5-19-1.5-19s-14.9-6.2-18-5.1
		S213.4,234.7,205.6,234.7z"/>
	<path class="st2" d="M183.5,197.7c0,0,15.4-1,13.4,28.8C196.9,226.5,208.7,195.1,183.5,197.7z"/>
	<path class="st2" d="M261.2,158c0,0,7.2,11.3,1,28.3C262.3,186.4,249.4,175.5,261.2,158z"/>
	<path class="st2" d="M256.1,143.6l4.6-9.3l-6.2-17.5l-4.1-1.5c0,0-9.8-21.6-18-22.1l4.6,5.1c0,0-7.2,42.2,0.5,50.4L256.1,143.6z"/>
	<polygon class="st3" points="145.4,59.2 144.4,64.4 153.1,69.5 	"/>
	<path class="st2" d="M161.4,89.1c0,0,0-5.1,5.7,1.5c5.7,6.7,3.6,9.8,3.6,9.8L161.4,89.1z"/>
	<path class="st3" d="M161.4,89.1c0,0,0,21.6,3.6,20.6s5.7-9.3,5.7-9.3S167.6,92.2,161.4,89.1z"/>
	<path class="st3" d="M180.4,140.5c0,0,12.4-5.1,14.4,1c0,0-9.8,8.7-11.8,8.2S180.4,140.5,180.4,140.5z"/>
	<path class="st3" d="M34.8,114.3l8.7-20.1c0,0-7.2-2.1-7.7,3.1S34.8,114.3,34.8,114.3z"/>
	<path class="st2" d="M75.4,91.7c0,0,35,17,60.2-7.7c0,0-9.8,83.4-47.9,96.8l-3.6,1c0,0-4.6-11.8-9.3-10.3c-4.6,1.5-4.1,7.7-4.1,7.7
		s-16.5-16-11.8-63.8c0,0-5.1-40.1,6.7-36C65.6,79.3,72.9,93.2,75.4,91.7z"/>
	<path class="st2" d="M101.7,57.2c0,0-8.7,3.6-9.3,8.2l8.2-4.6L101.7,57.2z"/>
	<path class="st2" d="M119.2,96.8c0,0-13.9-21.1-5.1-82.3l8.2-9.3c0.3-0.1,0.7-0.2,1.2-0.2c2.8,0.2,3.8,5.3,6.6,11
		c0,0,0.4,0.9,10.3,14.9l0,0c0,0,13.4,5.1,15.4-11.3c2.1-16.5,2.6-14.9,2.6-14.9s5.7-2.6,12.4,1.5c0,0,8.7,42.2,28.8,43.7
		c0,0,4.6,21.1,4.1,25.7c0,0-26.8-37.6-57.6-18l-1.5,6.7l-4.1-2.1c-15.7,16.7-17.9,23.9-16.5,27.3c0.3,0.7,1.6,3.3,0.5,5.1
		C123.4,96.3,121,96.7,119.2,96.8z"/>
	<path class="st4" d="M150.6,256.9c0,0,9.8,5.7,5.1,16.5c-4.6,10.8-5.7,7.2-5.7,7.2s-10.8-7.2-8.7-13.4S146.5,254.3,150.6,256.9z"/>
	<path class="st4" d="M176.8,257.9c0,0,8.2-4.1,6.7,20.6c0,0-12.4-1-11.8-6.2S173.7,257.4,176.8,257.9z"/>
	<path class="st5" d="M44.5,257.9c0,0-1.5-9.8-5.1-9.8s-5.7,13.4-5.7,13.4S45.1,260.5,44.5,257.9z"/>
	<path class="st5" d="M57.9,250.7c0,0-10.8,4.1,0,16.5C57.9,267.2,69.8,256.9,57.9,250.7z"/>
</g>
</svg>
