<?xml version="1.0" encoding="utf-8"?>
<!-- Generator: Adobe Illustrator 23.0.6, SVG Export Plug-In . SVG Version: 6.00 Build 0)  -->
<svg version="1.1" id="Layer_1" xmlns="http://www.w3.org/2000/svg" xmlns:xlink="http://www.w3.org/1999/xlink" x="0px" y="0px"
	 viewBox="0 0 288 288" style="enable-background:new 0 0 288 288;" xml:space="preserve">
<style type="text/css">
	.st0{opacity:0.5;}
	.st1{fill:#8A785D;}
	.st2{fill:#573A2E;}
	.st3{fill:#C2A66E;}
	.st4{fill:#DED1BF;}
	.st5{fill:#916D42;}
	.st6{fill:#DDBC78;}
	.st7{fill:#C3C3CC;}
	.st8{fill:#D7D7E0;}
	.st9{fill:#F7F7F8;}
</style>
<g class="st0">
	<path d="M69.2,161.8c0,0-58.4,35.2-60.3,41.3c-1.9,6,75.1-5.6,75.1-5.6l6-43.6L69.2,161.8z"/>
	<path d="M181.4,146.5c0,0,6.5,0.5,8.8-4.6s-2.3-4.2-2.3-4.2S180.9,142.7,181.4,146.5z"/>
	<path d="M220.8,53.7c0,0,51.9-2.3,52.4,9.7c0.5,12.1-9.3,25-9.3,25l-8.8-0.5c0,0-13-13.4-15.3-11.1s-16.7-6.5-16.7-6.5L220.8,53.7z
		"/>
	<path d="M131.3,197.5c0,0,5.6,5.6,7.4,5.6c0,0,1.4,13.4,5.6,13.9s15.8-7,15.8-7l0.5-6.5c0,0,13.9-6.5,12.1-10.7
		c-1.9-4.2-8.8-7.4-8.8-7.4l-31.1,10.2L131.3,197.5z"/>
	<path d="M167,44c0,0-26.4-31.5-27.4-27.4s3.2,25.5,3.2,25.5l22.3,15.3l2.3-11.6L167,44z"/>
	<path d="M139.7,47.7c0,0-28.7-23.6-31.1-20.4c-2.3,3.2,8.3,27.4,8.3,27.4l26,11.1L139.7,47.7z"/>
	<path d="M85,88.5c0,0-24.1-10.7-23.6-5.6s19.5,22.3,19.5,22.3l21.8,1.9L85,88.5z"/>
	<path d="M53.9,124.7c0,0-24.6,6.5-23.6,9.7c0.9,3.2,21.8,7.4,21.8,7.4l19.9-9.3L53.9,124.7z"/>
	<path d="M85,202.1c0,0-7.9-6.5-8.3,7.9c-0.5,14.4,7,44.5,7,44.5l21.8-6c0,0,0.5-10.7-1.9-15.8s-2.8-23.6-2.8-23.6L85,202.1z"/>
	<path d="M170.3,129.3c-4.9-1.7-8.3-5.8-8.3-10.2c-0.1-6.7,7.6-10.1,8.8-10.7c1.7-0.8,5.2-2.1,8.8-1.1c8.9,2.5,11.1,16.8,11.1,16.8
		s8.8,26,18.1,25.5s11.6-16.7,11.6-16.7s4.2-8.8,8.3-7.4c0,0-1.4,9.7-5.6,12.1c-4.2,2.3-7,13.4-7,13.4s-9.7,6-17.2,0.9
		c0,0-8.3-15.3-11.1-14.4c-2.8,0.9-6.5,8.8-6.5,8.8l-17.6,39c0,0-18.5,17.6-32.5,12.1c-13.9-5.6,2.3-39.9,2.3-39.9
		S130.4,138.1,170.3,129.3z"/>
	<path d="M221.3,86.6c0,0,6-9.3,5.6-11.6c0,0-12.1-47.8-19.5-49.6l-5.1,29.7c0,0-30.1-37.6-33.9-35.7c-3.7,1.9-3.2,38-3.2,38
		s-22.7-23.6-30.1-22.7l7.9,31.1c0,0-33.4-28.7-56.6-25c0,0,8.3,24.6,19,32c0,0-31.1-10.7-33.9-6c-2.8,4.6,28.3,39.4,28.3,39.4
		S63.6,88.1,26.1,102c0,0,19.5,26,42.2,29.7c0,0-46.8,14.8-46.8,25c0,0,28.3,10.2,45,5.6c16.7-4.6,23.6-8.3,23.6-8.3l16.2-9.7
		l4.6-6.5c0,0,37.6,7,51.9-18.1l-0.9-30.1l16.2-9.3c0,0,7.9,3.2,8.8,6c0,0,1.9-2.3,0.5-5.1c-1.4-2.8,2.8,1.9,2.8,1.9v-2.8l9.3,11.6
		L221.3,86.6z"/>
	<path d="M103.5,146.5c3.9-6.5,8.2-10.3,11.6-12.5c10.5-6.9,16.2-2.3,30.1-9.3c8.2-4.1,13.8-9.5,16.7-7.4c1.2,0.9,1.4,2.8,1.4,4.2
		c1.3,1.1,2.7,2.3,4.2,3.7c1.4,1.3,2.6,2.6,3.7,3.8l-12.2,3.8c0,0-24.9,14.5-24.9,24.9c0,0.4,0,1.4-0.7,2.1
		C130,163,116,154.8,103.5,146.5z"/>
	<path d="M85,202.1c0,0-18.1-32,5.1-48.2s27.4-9.3,27.4-9.3s28.3,7.9,18.1,42.2s-46.4,18.5-46.4,18.5L85,202.1z"/>
	<path d="M146.2,146.9c0,0-7.4-10.2-3.2-11.1c4.2-0.9,9.7-4.6,9.7-4.6s6,1.9,6,6C158.7,141.4,146.2,146.9,146.2,146.9z"/>
	<path d="M143.4,159.9c0,0,4.2-25,18.1-22.7c13.9,2.3,17.6,9.7,18.5,11.1c0.9,1.4,20.4,8.3,20.4,8.3s10.2,1.9,9.7,13.4
		c-0.5,11.6-31.1,27.4-31.1,27.4S141.1,170.1,143.4,159.9z"/>
	<path d="M162.9,119.6c0,0-2.3-28.3-0.9-30.1c0,0-23.6-15.8-26.9-54.7c0,0,31.1,11.6,43.1,45.4c0,0,6.5,0,8.8,6l0.5-6.5l2.8,3.2
		v-5.6l9.3,14.4c0,0,5.1-35.2,10.2-33.4c5,1.9,11.9,26.9,11.9,26.9l5.1-10.2l-3.2-13.4c0,0,17.6-26.4,19.9-24.1
		c0,0,10.7,33.4-10.2,53.8c0,0,5.6,12.1-1.9,17.6c-0.9,5.6-1.9,11.1-2.8,16.7c-0.9,0.2-3.4,0.7-5.6,2.8c-1.8,1.8-2.5,3.7-2.8,4.6
		c-0.2,1.5-2.1,15.7-8.7,17c-0.1,0-1-0.1-2.9-0.3c-2.2-0.2-4.5-0.4-4.6-0.5c-1.3-0.1-4.6-2.2-12.5-20.4c0-1.4-0.2-7.7-5.1-13
		c-5.5-5.9-12.7-6-13.9-6C171.7,108.5,169.3,105.6,162.9,119.6z"/>
	<path d="M273.2,63.4c0,0,15.3,20.9,8.8,35.2c0,0-1.4,16.7-5.1,18.5c0,0-7.4-31.5-15.3-33.4l7.4-13l1.4-4.2L273.2,63.4z"/>
	<path d="M150.3,210.4c0,0,9.3-10.2,9.7-0.5S149.3,234,149.3,234l-0.5-7.4c0,0-3.2,10.7-4.6,11.1c-1.4,0.5-3.2-25-3.2-25
		S146.6,200.7,150.3,210.4z"/>
	<path d="M83.6,251.7c0,0,8.3-19.5,12.1,0c0,0,8.8-16.7,10.2-2.3c1.4,14.4-2.8,28.7-2.8,28.7l-5.2-13.9c0,0,0,16.2-1.9,16.7
		C94.2,281.4,83.6,251.7,83.6,251.7z"/>
	<path d="M187,181.7c0,0-14.4-12.1-0.5-15.3s19.5,0.5,19.5,0.5s32,26.4,57,31.5c0,0-8.8,5.6-13,5.1l0.5,1.9c0,0-26.4,11.1-58-0.5
		c-31.5-11.6-12.1-21.8-12.1-21.8L187,181.7z"/>
</g>
<g>
	<path class="st1" d="M63.9,156.6c0,0-58.4,35.2-60.3,41.3c-1.9,6,75.1-5.6,75.1-5.6l6-43.6L63.9,156.6z"/>
	<path class="st1" d="M176.1,141.3c0,0,6.5,0.5,8.8-4.6s-2.3-4.2-2.3-4.2S175.6,137.5,176.1,141.3z"/>
	<path class="st1" d="M215.5,48.5c0,0,51.9-2.3,52.4,9.7c0.5,12.1-9.3,25-9.3,25l-8.8-0.5c0,0-13-13.4-15.3-11.1s-16.7-6.5-16.7-6.5
		L215.5,48.5z"/>
	<path class="st1" d="M126,192.3c0,0,5.6,5.6,7.4,5.6c0,0,1.4,13.4,5.6,13.9s15.8-7,15.8-7l0.5-6.5c0,0,13.9-6.5,12.1-10.7
		c-1.9-4.2-8.8-7.4-8.8-7.4l-31.1,10.2L126,192.3z"/>
	<path class="st2" d="M161.7,38.8c0,0-26.4-31.5-27.4-27.4s3.2,25.5,3.2,25.5l22.3,15.3l2.3-11.6L161.7,38.8z"/>
	<path class="st2" d="M134.4,42.5c0,0-28.7-23.6-31.1-20.4c-2.3,3.2,8.3,27.4,8.3,27.4l26,11.1L134.4,42.5z"/>
	<path class="st2" d="M79.7,83.3c0,0-24.1-10.7-23.6-5.6S75.6,100,75.6,100l21.8,1.9L79.7,83.3z"/>
	<path class="st2" d="M48.6,119.5c0,0-24.6,6.5-23.6,9.7c0.9,3.2,21.8,7.4,21.8,7.4l19.9-9.3L48.6,119.5z"/>
	<path class="st3" d="M79.7,196.9c0,0-7.9-6.5-8.3,7.9c-0.5,14.4,7,44.5,7,44.5l21.8-6c0,0,0.5-10.7-1.9-15.8s-2.8-23.6-2.8-23.6
		L79.7,196.9z"/>
	<path class="st4" d="M165,124.1c-4.9-1.7-8.3-5.8-8.3-10.2c-0.1-6.7,7.6-10.1,8.8-10.7c1.7-0.8,5.2-2.1,8.8-1.1
		c8.9,2.5,11.1,16.8,11.1,16.8s8.8,26,18.1,25.5s11.6-16.7,11.6-16.7s4.2-8.8,8.3-7.4c0,0-1.4,9.7-5.6,12.1c-4.2,2.3-7,13.4-7,13.4
		s-9.7,6-17.2,0.9c0,0-8.3-15.3-11.1-14.4c-2.8,0.9-6.5,8.8-6.5,8.8l-17.6,39c0,0-18.5,17.6-32.5,12.1c-13.9-5.6,2.3-39.9,2.3-39.9
		S125.1,132.9,165,124.1z"/>
	<path class="st5" d="M216,81.4c0,0,6-9.3,5.6-11.6c0,0-12.1-47.8-19.5-49.6L197,49.9c0,0-30.1-37.6-33.9-35.7
		c-3.7,1.9-3.2,38-3.2,38s-22.7-23.6-30.1-22.7l7.9,31.1c0,0-33.4-28.7-56.6-25c0,0,8.3,24.6,19,32c0,0-31.1-10.7-33.9-6
		C63.4,66.2,94.5,101,94.5,101s-36.2-18.1-73.7-4.2c0,0,19.5,26,42.2,29.7c0,0-46.8,14.8-46.8,25c0,0,28.3,10.2,45,5.6
		c16.7-4.6,23.6-8.3,23.6-8.3l16.2-9.7l4.6-6.5c0,0,37.6,7,51.9-18.1l-0.9-30.1l16.2-9.3c0,0,7.9,3.2,8.8,6c0,0,1.9-2.3,0.5-5.1
		c-1.4-2.8,2.8,1.9,2.8,1.9v-2.8l9.3,11.6L216,81.4z"/>
	<path class="st3" d="M98.2,141.3c3.9-6.5,8.2-10.3,11.6-12.5c10.5-6.9,16.2-2.3,30.1-9.3c8.2-4.1,13.8-9.5,16.7-7.4
		c1.2,0.9,1.4,2.8,1.4,4.2c1.3,1.1,2.7,2.3,4.2,3.7c1.4,1.3,2.6,2.6,3.7,3.8l-12.2,3.8c0,0-24.9,14.5-24.9,24.9c0,0.4,0,1.4-0.7,2.1
		C124.7,157.8,110.7,149.6,98.2,141.3z"/>
	<path class="st6" d="M79.7,196.9c0,0-18.1-32,5.1-48.2s27.4-9.3,27.4-9.3s28.3,7.9,18.1,42.2s-46.4,18.5-46.4,18.5L79.7,196.9z"/>
	<path class="st1" d="M140.9,141.7c0,0-7.4-10.2-3.2-11.1c4.2-0.9,9.7-4.6,9.7-4.6s6,1.9,6,6C153.4,136.2,140.9,141.7,140.9,141.7z"
		/>
	<path class="st6" d="M138.1,154.7c0,0,4.2-25,18.1-22.7c13.9,2.3,17.6,9.7,18.5,11.1c0.9,1.4,20.4,8.3,20.4,8.3s10.2,1.9,9.7,13.4
		c-0.5,11.6-31.1,27.4-31.1,27.4S135.8,164.9,138.1,154.7z"/>
	<path class="st6" d="M157.6,114.4c0,0-2.3-28.3-0.9-30.1c0,0-23.6-15.8-26.9-54.7c0,0,31.1,11.6,43.1,45.4c0,0,6.5,0,8.8,6l0.5-6.5
		l2.8,3.2v-5.6l9.3,14.4c0,0,5.1-35.2,10.2-33.4c5,1.9,11.9,26.9,11.9,26.9l5.1-10.2l-3.2-13.4c0,0,17.6-26.4,19.9-24.1
		c0,0,10.7,33.4-10.2,53.8c0,0,5.6,12.1-1.9,17.6c-0.9,5.6-1.9,11.1-2.8,16.7c-0.9,0.2-3.4,0.7-5.6,2.8c-1.8,1.8-2.5,3.7-2.8,4.6
		c-0.2,1.5-2.1,15.7-8.7,17c-0.1,0-1-0.1-2.9-0.3c-2.2-0.2-4.5-0.4-4.6-0.5c-1.3-0.1-4.6-2.2-12.5-20.4c0-1.4-0.2-7.7-5.1-13
		c-5.5-5.9-12.7-6-13.9-6C166.4,103.3,164,100.4,157.6,114.4z"/>
	<path class="st7" d="M267.9,58.2c0,0,15.3,20.9,8.8,35.2c0,0-1.4,16.7-5.1,18.5c0,0-7.4-31.5-15.3-33.4l7.4-13l1.4-4.2L267.9,58.2z
		"/>
	<path class="st7" d="M145,205.2c0,0,9.3-10.2,9.7-0.5S144,228.8,144,228.8l-0.5-7.4c0,0-3.2,10.7-4.6,11.1c-1.4,0.5-3.2-25-3.2-25
		S141.3,195.5,145,205.2z"/>
	<path class="st8" d="M78.3,246.5c0,0,8.3-19.5,12.1,0c0,0,8.8-16.7,10.2-2.3c1.4,14.4-2.8,28.7-2.8,28.7L92.6,259
		c0,0,0,16.2-1.9,16.7C88.9,276.2,78.3,246.5,78.3,246.5z"/>
	<path class="st9" d="M181.7,176.5c0,0-14.4-12.1-0.5-15.3s19.5,0.5,19.5,0.5s32,26.4,57,31.5c0,0-8.8,5.6-13,5.1l0.5,1.9
		c0,0-26.4,11.1-58-0.5c-31.5-11.6-12.1-21.8-12.1-21.8L181.7,176.5z"/>
</g>
</svg>
