<?xml version="1.0" encoding="utf-8"?>
<!-- Generator: Adobe Illustrator 23.0.6, SVG Export Plug-In . SVG Version: 6.00 Build 0)  -->
<svg version="1.1" id="Layer_1" xmlns="http://www.w3.org/2000/svg" xmlns:xlink="http://www.w3.org/1999/xlink" x="0px" y="0px"
	 viewBox="0 0 288 288" style="enable-background:new 0 0 288 288;" xml:space="preserve">
<style type="text/css">
	.st0{opacity:0.5;}
	.st1{fill:#FAFDFF;}
	.st2{fill:#A3936D;}
	.st3{fill:#EDE7D3;}
	.st4{fill:#E9D6AA;}
	.st5{fill:#DFE6F4;}
</style>
<g class="st0">
	<path d="M37.7,235.1c0,0-16.1,13.8-14.7,19.7h5c0,0-1.8,0-0.5,1.8c0,0,26.6-2.8,26.6-5.5C54.2,251.2,59.7,233.7,37.7,235.1z"/>
	<path d="M44.6,173.1c0,0-29.4,34,1.4,56.5l-8.3,5.5c0,0,6.9,1.8,6,4.1c0,0,12.9-1.8,10.6,11.9c0,0,34.4-2.3,38.6-18.8l6.4-5
		c0,0-23.4-5.5-46.8-50.5L44.6,173.1z"/>
	<path d="M173.1,265.9c0,0,7.8,13.8,15.6,16.5c0,0,1.8,0,1.8-2.8c0,0,1.8,3.7,4.1,5c0,0,8.7-10.6,9.6-18.8c0,0-3.7-21.6-15.6-6
		C188.7,259.9,172.7,248.4,173.1,265.9z"/>
	<path d="M52.4,176.8c0,0,22,69.8,90.9,54.2c0,0-21.6-35.8,15.1-61.1l0.5-8.7c0,0-10.1,16.1-43.2,16.1l-11.9-24.4
		c0,0,2.8-15.1,23.4-23c0,0,0.5-3.2,11-17.9c0,0,3.2-10.6-7.3-8.3c-10.6,2.3-64.3,24.8-64.3,24.8"/>
	<path d="M38.6,79.1c0.9,5.6,2.6,12.6,6.1,20.2c6.7,14.8,16.5,24.3,22.7,29.3c0,0,7.1,11,21.7,7.8c0,0,6.1-5,12.7-12.4
		c0,0,27.4-11,29.7-17.9c0,0,11.3-6-2.4-23s-21.2,2.8-21.2,2.8c-19,22.8-28.9,25.4-34.4,23.4c-7.4-2.6-8.3-13.8-22.2-23.6
		C46.3,82.1,41.6,80.1,38.6,79.1z"/>
	<path d="M193.8,160.3c0,0,40.9,9.2,71.2-26.6c0,0,8.7-8.7,5.5,14.7c0,0-11.9,71.6-62,74.8c0,0,9.2-38.1-16.5-54.2L193.8,160.3z"/>
	<path d="M43.2,46.4c0,0-10.1,28-2.8,36.7c0,0,4.6,3.2,17,19.3s33.1,3.2,33.1,3.2s17.4-14.2,18.8-20.7s20.7-5.5,22.5,6
		S129,106,129,106s3.2,0.5,3.7-0.9c0,0,6,4.6,5.5,6.9c0,0-14.7,8.7-11,17.9c0,0-23,7.3-23.4,23l2.3-0.9c0,0,0.9,9.6-2.3,10.1
		l-2.8,0.5l1.4,3.2l4.6-1.4c0,0,10.1,3.7,8.7,6.9l-0.5,2.3c0,0,2.8,2.3,0.5,3.7c0,0,7.3,4.1,28-4.1c0,0,11.9-4.6,14.2-8.3l0.5,3.2
		c0,0-38.6,24.3-15.1,62.9c0,0,8.3,14.7,25.2,18.4c0,0-3.7,10.1,4.6,16.5c0,0,3.7-14.2,15.6-6c0,0,11.9-9.6,15.6,6
		c0,0,10.1-4.1-3.2-23.4c0,0,16.1-27.1,6.4-53.3c0,0-5-18.8-15.6-20.2c0,0,21.6-74.4-31.7-108.3l-3.2-4.1c0,0,11.5-32.6,8.7-39
		s-38.1,2.3-38.1,2.3s-36.2-18.5-60.1-1c0,0-20.2-7.3-30.3-4.1C37.2,14.7,37.2,38.6,43.2,46.4z"/>
	<path d="M46.4,102.9c0,0-24.3,9.9-19.7,39.1s25.7,34.8,25.7,34.8s0-6.1,1.4-5.2c0,0-6.4-3.3,2.3-11.3c0,0,6.4,2.4,6.4,4.7l2.8-2.8
		l-4.6-3.3c0,0,2.8-5.2,5.5-4.7l1.8,2.4c0,0,0.5-8-2.8-12.7c0,0,4.1-10.4,1.4-16.5c-4.8-3.9-8-7.6-10.1-10.3
		c-1.1-1.4-2.9-3.9-6.4-8.9C48.6,106,47.3,104.1,46.4,102.9z"/>
	<path d="M139.6,33.6l12.9,19.3c0,0,7.8-23,7.8-30.3L139.6,33.6z"/>
	<path d="M43.2,40.9l4.6-6c0,0-4.6-16.1-6.9-15.6C38.6,19.8,43.2,40.9,43.2,40.9z"/>
	<path d="M104.7,174c0,0,4.1,5,8.7,5s4.1-2.3,4.1-2.3L117,173L104.7,174z"/>
	<path d="M53.1,171.5l-1.5,4.7c0,0,9.4,2.6,12.8-3.9L53.1,171.5z"/>
	<path d="M105.8,151.6c0,0-12,4.2-12.6,8.9l9.3,2.1C102.5,162.6,111.3,160,105.8,151.6z"/>
	<path d="M107.5,163.6c0,0-11.5,3.5-11.5,8.9c0,0,5,3,7.3,2s12.4-1,12.4-1S120.8,165,107.5,163.6z"/>
	<path d="M55.9,159.2c0,0,12.2,7.8,11.7,12.5c0,0-8,3.6-14.1,0C53.5,171.7,47,167.5,55.9,159.2z"/>
	<path d="M63.1,154.2c-0.7,0.5-2.5,2.2-2.5,4.2c0.1,2.8,3.7,6,9.2,5.9c0.1-0.4,1.4-6.9-2.4-9.8c-0.5-0.4-1.2-0.8-2.1-1"/>
</g>
<g>
	<path class="st1" d="M32.6,230.2c0,0-16.1,13.8-14.7,19.7h5c0,0-1.8,0-0.5,1.8c0,0,26.6-2.8,26.6-5.5
		C49.1,246.3,54.6,228.8,32.6,230.2z"/>
	<path class="st2" d="M39.5,168.2c0,0-29.4,34,1.4,56.5l-8.3,5.5c0,0,6.9,1.8,6,4.1c0,0,12.9-1.8,10.6,11.9c0,0,34.4-2.3,38.6-18.8
		l6.4-5c0,0-23.4-5.5-46.8-50.5L39.5,168.2z"/>
	<path class="st1" d="M168,261c0,0,7.8,13.8,15.6,16.5c0,0,1.8,0,1.8-2.8c0,0,1.8,3.7,4.1,5c0,0,8.7-10.6,9.6-18.8
		c0,0-3.7-21.6-15.6-6C183.6,255,167.6,243.5,168,261z"/>
	<path class="st3" d="M47.3,171.9c0,0,22,69.8,90.9,54.2c0,0-21.6-35.8,15.1-61.1l0.5-8.7c0,0-10.1,16.1-43.2,16.1L98.7,148
		c0,0,2.8-15.1,23.4-23c0,0,0.5-3.2,11-17.9c0,0,3.2-10.6-7.3-8.3c-10.6,2.3-64.3,24.8-64.3,24.8"/>
	<path class="st3" d="M33.5,74.2c0.9,5.6,2.6,12.6,6.1,20.2c6.7,14.8,16.5,24.3,22.7,29.3c0,0,7.1,11,21.7,7.8c0,0,6.1-5,12.7-12.4
		c0,0,27.4-11,29.7-17.9c0,0,11.3-6-2.4-23S102.8,81,102.8,81c-19,22.8-28.9,25.4-34.4,23.4c-7.4-2.6-8.3-13.8-22.2-23.6
		C41.2,77.2,36.5,75.2,33.5,74.2z"/>
	<path class="st2" d="M188.7,155.4c0,0,40.9,9.2,71.2-26.6c0,0,8.7-8.7,5.5,14.7c0,0-11.9,71.6-62,74.8c0,0,9.2-38.1-16.5-54.2
		L188.7,155.4z"/>
	<path class="st4" d="M38.1,41.5c0,0-10.1,28-2.8,36.7c0,0,4.6,3.2,17,19.3s33.1,3.2,33.1,3.2s17.4-14.2,18.8-20.7s20.7-5.5,22.5,6
		s-2.8,15.1-2.8,15.1s3.2,0.5,3.7-0.9c0,0,6,4.6,5.5,6.9c0,0-14.7,8.7-11,17.9c0,0-23,7.3-23.4,23l2.3-0.9c0,0,0.9,9.6-2.3,10.1
		l-2.8,0.5l1.4,3.2l4.6-1.4c0,0,10.1,3.7,8.7,6.9l-0.5,2.3c0,0,2.8,2.3,0.5,3.7c0,0,7.3,4.1,28-4.1c0,0,11.9-4.6,14.2-8.3l0.5,3.2
		c0,0-38.6,24.3-15.1,62.9c0,0,8.3,14.7,25.2,18.4c0,0-3.7,10.1,4.6,16.5c0,0,3.7-14.2,15.6-6c0,0,11.9-9.6,15.6,6
		c0,0,10.1-4.1-3.2-23.4c0,0,16.1-27.1,6.4-53.3c0,0-5-18.8-15.6-20.2c0,0,21.6-74.4-31.7-108.3l-3.2-4.1c0,0,11.5-32.6,8.7-39
		S122.5,15,122.5,15S86.3-3.5,62.4,14c0,0-20.2-7.3-30.3-4.1C32.1,9.8,32.1,33.7,38.1,41.5z"/>
	<path class="st4" d="M41.3,98c0,0-24.3,9.9-19.7,39.1s25.7,34.8,25.7,34.8s0-6.1,1.4-5.2c0,0-6.4-3.3,2.3-11.3c0,0,6.4,2.4,6.4,4.7
		l2.8-2.8l-4.6-3.3c0,0,2.8-5.2,5.5-4.7l1.8,2.4c0,0,0.5-8-2.8-12.7c0,0,4.1-10.4,1.4-16.5c-4.8-3.9-8-7.6-10.1-10.3
		c-1.1-1.4-2.9-3.9-6.4-8.9C43.5,101.1,42.2,99.2,41.3,98z"/>
	<path class="st3" d="M134.5,28.7L147.4,48c0,0,7.8-23,7.8-30.3L134.5,28.7z"/>
	<path class="st3" d="M38.1,36l4.6-6c0,0-4.6-16.1-6.9-15.6C33.5,14.9,38.1,36,38.1,36z"/>
	<path class="st5" d="M99.6,169.1c0,0,4.1,5,8.7,5s4.1-2.3,4.1-2.3l-0.5-3.7L99.6,169.1z"/>
	<path class="st5" d="M48,166.6l-1.5,4.7c0,0,9.4,2.6,12.8-3.9L48,166.6z"/>
	<path class="st1" d="M100.7,146.7c0,0-12,4.2-12.6,8.9l9.3,2.1C97.4,157.7,106.2,155.1,100.7,146.7z"/>
	<path class="st1" d="M102.4,158.7c0,0-11.5,3.5-11.5,8.9c0,0,5,3,7.3,2s12.4-1,12.4-1S115.7,160.1,102.4,158.7z"/>
	<path class="st1" d="M50.8,154.3c0,0,12.2,7.8,11.7,12.5c0,0-8,3.6-14.1,0C48.4,166.8,41.9,162.6,50.8,154.3z"/>
	<path class="st1" d="M58,149.3c-0.7,0.5-2.5,2.2-2.5,4.2c0.1,2.8,3.7,6,9.2,5.9c0.1-0.4,1.4-6.9-2.4-9.8c-0.5-0.4-1.2-0.8-2.1-1"/>
</g>
</svg>
