<?xml version="1.0" encoding="utf-8"?>
<!-- Generator: Adobe Illustrator 23.0.6, SVG Export Plug-In . SVG Version: 6.00 Build 0)  -->
<svg version="1.1" id="Layer_1" xmlns="http://www.w3.org/2000/svg" xmlns:xlink="http://www.w3.org/1999/xlink" x="0px" y="0px"
	 viewBox="0 0 288 288" style="enable-background:new 0 0 288 288;" xml:space="preserve">
<style type="text/css">
	.st0{opacity:0.5;}
	.st1{fill:#B4BFCC;}
	.st2{fill:#9A928D;}
	.st3{fill:#6D826F;}
	.st4{fill:#EFE7C1;}
	.st5{fill:#F7F9F8;}
	.st6{fill:#A6CB95;}
</style>
<g class="st0">
	<path d="M75.2,18.3c0,0,34.7,5,24.8,57c0,0,18.8-7.9,25.3,23.3l6.4-15.9l-6-16.9l2-21.3l-10.4-14.9l-16.9-7.9
		C100.5,21.8,82.7,14.9,75.2,18.3z"/>
	<path d="M263.2,86.3c0,0-27.3,30.3-32.2,31.2c0,0,10.9-2,10.9,0c0,0-32.7,34.7-51.1,34.7s-20.3-5-20.3-5s4-5-2-11.4
		C168.5,135.9,213.1,86.3,263.2,86.3z"/>
	<path d="M162,37.7c0.2,10.2,0.8,18.2,1.5,23.8c0.5,4.2,1.1,8.1-0.5,12.9c-1.6,4.9-4.7,8.4-6.9,10.4c0.1-6.1,0.5-12.7,1.2-19.7
		C158.4,55,160.1,45.8,162,37.7z"/>
	<path d="M151.1,195.4c0,0,4.5-15.9,2-23.3c0,0,9.9,2,9.9,2.5s4,11.4,4,11.4l-13.9,13.4L151.1,195.4z"/>
	<polygon points="165.5,205.8 171.5,211.8 179.9,221.2 185.9,214.2 177.4,206.3 169.5,194.9 	"/>
	<path d="M146.2,204.3c0,0,16.9,12.9,26.8-6.4c0,0,4.5-12.4-4.5-27.8L165,177l-2-2.5c0,0-3.5,9.9-9.9,9.9c0,0,3.5,12.9-2,10.9
		L146.2,204.3z"/>
	<path d="M171.5,211.8c0,0,7.9,6.9,10.9,5c3-2-5-10.4-5-10.4s3.5-3,14.4,12.4l12.9,14.4l9.9,16.4l-2,16.4l-17.4-0.5l-11.9-2.5
		c0,0-8.9-15.4-6.9-33.7c0,0-4.5-12.4-6-13.9C169,213.8,171.5,211.8,171.5,211.8z"/>
	<path d="M152.1,84.8c0,0,5-46.1,9.9-47.1c0,0-6.9,41.7-5,44.1L152.1,84.8z"/>
	<path d="M163,125l2,2.5c0,0-0.5,5.5,1.5,4.5c0,0,43.1-44.6,99.7-48.6l-3,3c0,0-49.6,5-94.7,49.6l-7.4-3.5L163,125z"/>
	<path d="M138.7,126l-7.4,7.4c0,0-11.9-6.4-1.5-20.3l-3-1c0,0,2.5-8.4,2-10.4l-4.5,0.5c0,0,4.5-11.8,4.5-19.3c0-3.5-4-8.9-5-11.9
		c0,0,2.5-23.3,1-26.3c0,0-9.4-24.8-49.6-26.3c0,0,8.9-4,17.4-1.5s23.3,9.9,23.3,9.9s14.9,13.9,14.9,18.4s-2,20.3-2,20.3
		s0,9.9,4,11.9l3.5,11.9l-2.5,6.4l2.5,3l-6,9.4C130.3,108.1,138.7,118,138.7,126z"/>
	<path d="M95.2,193c0,0-16.5,17-16.5,19.7c0,0,10.1,1.1,12.8-3.3c1.2-2.1,2.9-4.6,5.1-7.1c1.5-1.7,3.1-3.2,4.5-4.4L95.2,193z"/>
	<path d="M102.5,161.2c0,0,14.9-7.4,15.4,11.9l-10.4-3.5l-6-3.5L102.5,161.2z"/>
	<path d="M134.8,155.2c0,0-2,12.9,0,14.9s5.5,2,5.5,2s5.5-4.5,5.5-7.4C145.7,161.7,134.8,155.2,134.8,155.2z"/>
	<path d="M140.7,128.9c0,0-4.5,5.5-4,8.9c0,0-3.5,3.5-3,6s2.5,3,2.5,3l9.9-7.4l1.5-4.5L140.7,128.9z"/>
	<path d="M161.5,160.7c0,0,11.4,7.9,7.4,23.8c0,0,10.4,2.5,19.8,3.5c0,0,26.3,6.9,24.3,59l-3,22.8c0,0,27.8-19.3,34.7-47.6
		s-0.5-39.2-0.5-39.2l-25.8-6l-38.7-18.8l-14.4-3.5L161.5,160.7z"/>
	<path d="M131.3,133.4c0,0-7.4,12.4,3.5,21.8l10.9,9.4c0,0,11.9,2,14.9,1s3-3,3-3l-2-2c0,0,9.4-3.5,13.4-1.5s34.2,18.4,34.2,18.4
		s23.8,7.9,28.8,7.4s6.9,7.9,6.9,7.9s3,30.3-5.5,42.7c-8.4,12.4-29.3,34.2-29.3,34.2s-7.4,6.9,6.4-2c13.9-8.9,29.3-30.8,29.3-30.8
		l8.4-41.2c0,0-2.5-16.9-12.4-17.9s-26.3-3.5-26.3-3.5s-30.8-14.9-31.7-17.4c-1-2.5-12.4-5-12.4-5s2.5-13.4-3-16.4S161,132,161,132
		l2-7.4l10.4-3.5c0,0,0,0.5,1-5s1-11.9,1-11.9l11.4-11.9l-15.9-0.5l-4.5-5l-1.5-16.9c0,0-4,3.5-7.9,11.4c0,0-6.4,5-10.4,4
		c0,0-11.9-10.9-13.9-8.4c-2,2.5,5,16.9,5,16.9l-7.4,13.9c0,0,8.4,7.4,8.4,17.9C138.7,126,132.3,129.4,131.3,133.4z"/>
	<path d="M87.6,200.9c0,0-11.9,4.5-14.4,10.9c0,0-39.7,41.2-32.7,61.5c0,0,3.5,12.4,42.7-3c0,0,8.9-34.2,9.4-52.1
		c0,0,7.4-8.4,2.5-14.4l-3,5c0,0-8.4,6.9-11.9,3L87.6,200.9z"/>
	<path d="M134.8,155.2c0,0-16.4,8.4-16.4,11.4l-0.5,6.4l-4-7.9v4.5l-5.5-12.9l-4,9.4l-8.9-21.8c0,0-8.4,38.7,0,49.6
		s16.4,2.5,16.4,2.5s0,19.8,10.9,20.3s23.3-12.4,23.3-12.4s12.4-7.9,6-38.2l-6.4-1.5l-5.5,7.5l-5.5-2v-14.9H134.8z"/>
	<path d="M191.8,256.9c0,0-6.4,6.4,5,15.9C196.8,272.8,196.3,266.3,191.8,256.9z"/>
	<path d="M205.2,253.4c0,0,0,12.9,5,16.4l1.5-9.4L205.2,253.4z"/>
	<polygon points="213.1,247 210.2,245.5 212.1,250.9 	"/>
	<path d="M42.8,255.9c0,0-14.4,12.9-13.9,16.4l10.9-3L42.8,255.9z"/>
	<path d="M52.9,260.4c0,0-18.4,17.4-17.4,26.8l13.9-9.9C49.5,277.2,54.9,266.3,52.9,260.4z"/>
	<path d="M68.8,264.8c0,0-8.9,11.4-6.4,21.3C62.4,286.2,72.8,272.8,68.8,264.8z"/>
</g>
<g>
	<path class="st1" d="M70,13.2c0,0,34.7,5,24.8,57c0,0,18.8-7.9,25.3,23.3l6.4-15.9l-6-16.9l2-21.3l-10.4-14.9l-16.9-7.9
		C95.3,16.7,77.5,9.8,70,13.2z"/>
	<path class="st2" d="M258,81.2c0,0-27.3,30.3-32.2,31.2c0,0,10.9-2,10.9,0c0,0-32.7,34.7-51.1,34.7s-20.3-5-20.3-5s4-5-2-11.4
		C163.3,130.8,207.9,81.2,258,81.2z"/>
	<path class="st2" d="M156.8,32.6c0.2,10.2,0.8,18.2,1.5,23.8c0.5,4.2,1.1,8.1-0.5,12.9c-1.6,4.9-4.7,8.4-6.9,10.4
		c0.1-6.1,0.5-12.7,1.2-19.7C153.2,49.9,154.9,40.7,156.8,32.6z"/>
	<path class="st2" d="M145.9,190.3c0,0,4.5-15.9,2-23.3c0,0,9.9,2,9.9,2.5s4,11.4,4,11.4l-13.9,13.4L145.9,190.3z"/>
	<polygon class="st2" points="160.3,200.7 166.3,206.7 174.7,216.1 180.7,209.1 172.2,201.2 164.3,189.8 	"/>
	<path class="st3" d="M141,199.2c0,0,16.9,12.9,26.8-6.4c0,0,4.5-12.4-4.5-27.8l-3.5,6.9l-2-2.5c0,0-3.5,9.9-9.9,9.9
		c0,0,3.5,12.9-2,10.9L141,199.2z"/>
	<path class="st3" d="M166.3,206.7c0,0,7.9,6.9,10.9,5c3-2-5-10.4-5-10.4s3.5-3,14.4,12.4l12.9,14.4l9.9,16.4l-2,16.4l-17.4-0.5
		l-11.9-2.5c0,0-8.9-15.4-6.9-33.7c0,0-4.5-12.4-6-13.9C163.8,208.7,166.3,206.7,166.3,206.7z"/>
	<path class="st3" d="M146.9,79.7c0,0,5-46.1,9.9-47.1c0,0-6.9,41.7-5,44.1L146.9,79.7z"/>
	<path class="st3" d="M157.8,119.9l2,2.5c0,0-0.5,5.5,1.5,4.5c0,0,43.1-44.6,99.7-48.6l-3,3c0,0-49.6,5-94.7,49.6l-7.4-3.5
		L157.8,119.9z"/>
	<path class="st3" d="M133.5,120.9l-7.4,7.4c0,0-11.9-6.4-1.5-20.3l-3-1c0,0,2.5-8.4,2-10.4l-4.5,0.5c0,0,4.5-11.8,4.5-19.3
		c0-3.5-4-8.9-5-11.9c0,0,2.5-23.3,1-26.3c0,0-9.4-24.8-49.6-26.3c0,0,8.9-4,17.4-1.5s23.3,9.9,23.3,9.9s14.9,13.9,14.9,18.4
		s-2,20.3-2,20.3s0,9.9,4,11.9l3.5,11.9l-2.5,6.4l2.5,3l-6,9.4C125.1,103,133.5,112.9,133.5,120.9z"/>
	<path class="st4" d="M90,187.9c0,0-16.5,17-16.5,19.7c0,0,10.1,1.1,12.8-3.3c1.2-2.1,2.9-4.6,5.1-7.1c1.5-1.7,3.1-3.2,4.5-4.4
		L90,187.9z"/>
	<path class="st4" d="M97.3,156.1c0,0,14.9-7.4,15.4,11.9l-10.4-3.5l-6-3.5L97.3,156.1z"/>
	<path class="st4" d="M129.6,150.1c0,0-2,12.9,0,14.9s5.5,2,5.5,2s5.5-4.5,5.5-7.4C140.5,156.6,129.6,150.1,129.6,150.1z"/>
	<path class="st4" d="M135.5,123.8c0,0-4.5,5.5-4,8.9c0,0-3.5,3.5-3,6s2.5,3,2.5,3l9.9-7.4l1.5-4.5L135.5,123.8z"/>
	<path class="st5" d="M156.3,155.6c0,0,11.4,7.9,7.4,23.8c0,0,10.4,2.5,19.8,3.5c0,0,26.3,6.9,24.3,59l-3,22.8
		c0,0,27.8-19.3,34.7-47.6s-0.5-39.2-0.5-39.2l-25.8-6l-38.7-18.8l-14.4-3.5L156.3,155.6z"/>
	<path class="st6" d="M126.1,128.3c0,0-7.4,12.4,3.5,21.8l10.9,9.4c0,0,11.9,2,14.9,1s3-3,3-3l-2-2c0,0,9.4-3.5,13.4-1.5
		s34.2,18.4,34.2,18.4s23.8,7.9,28.8,7.4s6.9,7.9,6.9,7.9s3,30.3-5.5,42.7c-8.4,12.4-29.3,34.2-29.3,34.2s-7.4,6.9,6.4-2
		c13.9-8.9,29.3-30.8,29.3-30.8l8.4-41.2c0,0-2.5-16.9-12.4-17.9s-26.3-3.5-26.3-3.5s-30.8-14.9-31.7-17.4c-1-2.5-12.4-5-12.4-5
		s2.5-13.4-3-16.4s-7.4-3.5-7.4-3.5l2-7.4l10.4-3.5c0,0,0,0.5,1-5s1-11.9,1-11.9l11.4-11.9l-15.9-0.5l-4.5-5l-1.5-16.9
		c0,0-4,3.5-7.9,11.4c0,0-6.4,5-10.4,4c0,0-11.9-10.9-13.9-8.4c-2,2.5,5,16.9,5,16.9l-7.4,13.9c0,0,8.4,7.4,8.4,17.9
		C133.5,120.9,127.1,124.3,126.1,128.3z"/>
	<path class="st6" d="M82.4,195.8c0,0-11.9,4.5-14.4,10.9c0,0-39.7,41.2-32.7,61.5c0,0,3.5,12.4,42.7-3c0,0,8.9-34.2,9.4-52.1
		c0,0,7.4-8.4,2.5-14.4l-3,5c0,0-8.4,6.9-11.9,3L82.4,195.8z"/>
	<path class="st6" d="M129.6,150.1c0,0-16.4,8.4-16.4,11.4l-0.5,6.4l-4-7.9v4.5l-5.5-12.9l-4,9.4l-8.9-21.8c0,0-8.4,38.7,0,49.6
		s16.4,2.5,16.4,2.5s0,19.8,10.9,20.3s23.3-12.4,23.3-12.4s12.4-7.9,6-38.2l-6.4-1.5L135,167l-5.5-2v-14.9H129.6z"/>
	<path class="st1" d="M186.6,251.8c0,0-6.4,6.4,5,15.9C191.6,267.7,191.1,261.2,186.6,251.8z"/>
	<path class="st1" d="M200,248.3c0,0,0,12.9,5,16.4l1.5-9.4L200,248.3z"/>
	<polygon class="st1" points="207.9,241.9 205,240.4 206.9,245.8 	"/>
	<path class="st5" d="M37.6,250.8c0,0-14.4,12.9-13.9,16.4l10.9-3L37.6,250.8z"/>
	<path class="st5" d="M47.7,255.3c0,0-18.4,17.4-17.4,26.8l13.9-9.9C44.3,272.1,49.7,261.2,47.7,255.3z"/>
	<path class="st5" d="M63.6,259.7c0,0-8.9,11.4-6.4,21.3C57.2,281.1,67.6,267.7,63.6,259.7z"/>
</g>
</svg>
