<?xml version="1.0" encoding="utf-8"?>
<!-- Generator: Adobe Illustrator 23.0.6, SVG Export Plug-In . SVG Version: 6.00 Build 0)  -->
<svg version="1.1" id="Layer_1" xmlns="http://www.w3.org/2000/svg" xmlns:xlink="http://www.w3.org/1999/xlink" x="0px" y="0px"
	 viewBox="0 0 288 288" style="enable-background:new 0 0 288 288;" xml:space="preserve">
<style type="text/css">
	.st0{opacity:0.5;}
	.st1{filter:url(#Adobe_OpacityMaskFilter);}
	.st2{mask:url(#SVGID_1_);}
	.st3{fill:#AB9F9A;}
	.st4{fill:#6692A7;}
	.st5{fill:#E3D8BF;}
	.st6{fill:#92D1E7;}
	.st7{fill:#393939;}
</style>
<g class="st0">
	<defs>
		<filter id="Adobe_OpacityMaskFilter" filterUnits="userSpaceOnUse" x="14.8" y="37.9" width="268.9" height="232.9">
			<feFlood  style="flood-color:white;flood-opacity:1" result="back"/>
			<feBlend  in="SourceGraphic" in2="back" mode="normal"/>
		</filter>
	</defs>
	<mask maskUnits="userSpaceOnUse" x="14.8" y="37.9" width="268.9" height="232.9" id="SVGID_1_">
		<g class="st1">
			
				<image style="overflow:visible;" width="274" height="238" xlink:href="FD56E1B8BD4AEDCA.jpg"  transform="matrix(1 0 0 1 12 35)">
			</image>
		</g>
	</mask>
	<g class="st2">
		<g>
			<path d="M144.9,61.6c0,0,28.9-24.8,30.4-23.7s-17,32.5-13.9,43.8c0,0,20.1-10.8,21.7-7.7c1.5,3.1-1.5,7.7-1.5,7.7
				s-13.4,12.9-12.9,15s7.7,3.6,7.7,3.6l-6.7,6.2l-20.1-1l-7.7-27.8L144.9,61.6z"/>
			<path d="M147.4,81.1l2-0.4l8.8-1.7c0,0,45.9-2.6,46.9,0s-43.8,18-43.3,21.1s7.7,7.2,7.7,7.2l-1.5,10.8l-8.8,11.3l-14.4-15
				L138.1,95L147.4,81.1z"/>
			<polygon points="150.6,160.6 221.1,174 211.9,152.9 208.2,146.7 215.6,135.4 213.9,124.5 209.9,92.6 189.8,102.9 159.2,118.9 
				140.8,134.3 140.2,160.6 145.9,159.1 			"/>
			<path d="M77.9,67.3c0,0-11.9-1-11.9,12.9l6.7,1L77.9,67.3z"/>
			<path d="M189.8,102.9c0,0,54.1-40.7,56.2-37.1c2.1,3.6-34,49-34,49s70.6-4.6,71.7-0.5c1,4.1-71.7,32-71.7,32s6.8,7.3,13.6,15
				c9.9,11.1,14.3,14.6,13.2,16.5c-1,1.7-7,0.5-19.1-2.1c-1.9-0.4-5.2-1.1-9.3-2.6c-2.1-0.7-3.9-1.5-5.2-2.1c3.4,0,6.9,0,10.3,0
				l-17-7.7l15.5-3.1l-9.8-2.1l2.6-3.6l-6.7-0.5l2.1-5.2l-9.8,0.5l5.2-2.1l-5.2-1l23.2-10.8l-17,2.1l7.7-5.2l-10.3,2.6l4.1-4.1
				l-12.9,2.1l15-6.2l-17-1.5l18-12.9l-4.1-3.6l5.7-3.1l-3.1-2.1c2.4-2.9,4.8-5.8,7.2-8.8C202.4,97.4,196.1,100.1,189.8,102.9z"/>
			<path d="M102.6,136.4c0,0-6.7,15.5-5.7,17.5l3.6,2.1c0,0-3.1,11.9-1.5,15c1.5,3.1,1.5,3.1,1.5,3.1l-2.1,15c0,0,2.6,4.1,6.7,3.1
				c0,0,11.3,16,20.1,19.6l11.9-17l-8.8-19.1l-5.7-19.1l2.1-1l-5.2-22.7L102.6,136.4z"/>
			<path d="M63.9,108.6c0,0-17.5-9.3-27.3-11.3s-20.1-5.2-20.1-5.2s-3.1-10.3-1-15.5s7.7-18,10.8-18s11.9,7.7,11.9,7.7L66,80.2h2.1
				l9.8-16c0,0,40.7-28.4,65-22.2c0,0-3.6,5.2-6.2,5.2s-5.2,13.9-5.2,13.9s36.1-3.6,38.7,1.5c0,0-24.2,11.3-22.7,17.5
				s9.8,14.4,9.8,14.4s1,1.5-3.1,3.6s-4.6,7.2-4.6,7.2s49-2.6,57.8,7.7l-47.4,8.8c0,0-3.1,3.1,6.2,8.3s17,15,17,15s2.6,3.1-6.7,1.5
				c-9.3-1.5-34-9.3-34-9.3l-1.5,11.3l0.5,9.3l20.1,4.6l5.2,6.2l-1,3.6c0,0,45.9,13.9,41.3,54.7c-4.6,40.7-37.1,43.8-37.1,43.8
				s-48.5,1-52.1-35.6s19.6-40.7,19.6-40.7l-8.8-19.1l-5.7-19.1l2.1-1l-4.6-20.6C120.2,134.9,82.9,146.7,63.9,108.6z"/>
			<path d="M18.7,87.1c0,0,0-21.7,7.7-23.2c0,0,4.1,23.2,2.1,25.8C26.4,92.3,18.7,87.1,18.7,87.1z"/>
		</g>
	</g>
</g>
<g>
	<path class="st3" d="M139.6,56.6c0,0,28.9-24.8,30.4-23.7s-17,32.5-13.9,43.8c0,0,20.1-10.8,21.7-7.7c1.5,3.1-1.5,7.7-1.5,7.7
		s-13.4,12.9-12.9,15s7.7,3.6,7.7,3.6l-6.7,6.2l-20.1-1l-7.7-27.8L139.6,56.6z"/>
	<path class="st4" d="M142.2,76.1l2-0.4L153,74c0,0,45.9-2.6,46.9,0s-43.8,18-43.3,21.1s7.7,7.2,7.7,7.2l-1.5,10.8l-8.8,11.3
		l-14.4-15L132.9,90L142.2,76.1z"/>
	<polygon class="st4" points="145.3,155.6 215.9,169 206.6,147.9 203,141.7 210.3,130.4 208.7,119.5 204.6,87.6 184.5,97.9 
		154,113.9 135.5,129.3 135,155.6 140.6,154.1 	"/>
	<path class="st4" d="M72.6,62.3c0,0-11.9-1-11.9,12.9l6.7,1L72.6,62.3z"/>
	<path class="st3" d="M184.5,97.9c0,0,54.1-40.7,56.2-37.1c2.1,3.6-34,49-34,49s70.6-4.6,71.7-0.5c1,4.1-71.7,32-71.7,32
		s6.8,7.3,13.6,15c9.9,11.1,14.3,14.6,13.2,16.5c-1,1.7-7,0.5-19.1-2.1c-1.9-0.4-5.2-1.1-9.3-2.6c-2.1-0.7-3.9-1.5-5.2-2.1
		c3.4,0,6.9,0,10.3,0l-17-7.7l15.5-3.1l-9.8-2.1l2.6-3.6l-6.7-0.5l2.1-5.2l-9.8,0.5l5.2-2.1l-5.2-1l23.2-10.8l-17,2.1l7.7-5.2
		l-10.3,2.6l4.1-4.1l-12.9,2.1l15-6.2l-17-1.5l18-12.9l-4.1-3.6l5.7-3.1l-3.1-2.1c2.4-2.9,4.8-5.8,7.2-8.8
		C197.2,92.4,190.8,95.1,184.5,97.9z"/>
	<path class="st5" d="M98.3,131.4c0,0-6.7,15.5-5.7,17.5l3.6,2.1c0,0-3.1,11.9-1.5,15c1.5,3.1,1.5,3.1,1.5,3.1l-2.1,15
		c0,0,2.6,4.1,6.7,3.1c0,0,11.3,16,20.1,19.6l11.9-17l-8.8-19.1l-5.7-19.1l2.1-1l-5.2-22.7L98.3,131.4z"/>
	<path class="st6" d="M58.6,103.6c0,0-17.5-9.3-27.3-11.3s-20.1-5.2-20.1-5.2s-3.1-10.3-1-15.5s7.7-18,10.8-18s11.9,7.7,11.9,7.7
		l27.8,13.9h2.1l9.8-16c0,0,40.7-28.4,65-22.2c0,0-3.6,5.2-6.2,5.2s-5.2,13.9-5.2,13.9s36.1-3.6,38.7,1.5c0,0-24.2,11.3-22.7,17.5
		s9.8,14.4,9.8,14.4s1,1.5-3.1,3.6s-4.6,7.2-4.6,7.2s49-2.6,57.8,7.7l-47.4,8.8c0,0-3.1,3.1,6.2,8.3s17,15,17,15s2.6,3.1-6.7,1.5
		c-9.3-1.5-34-9.3-34-9.3l-1.5,11.3l0.5,9.3l20.1,4.6l5.2,6.2l-1,3.6c0,0,45.9,13.9,41.3,54.7c-4.6,40.7-37.1,43.8-37.1,43.8
		s-48.5,1-52.1-35.6s19.6-40.7,19.6-40.7l-8.8-19.1l-5.7-19.1l2.1-1l-4.6-20.6C114.9,129.9,77.7,141.7,58.6,103.6z"/>
	<path class="st7" d="M13.4,82.1c0,0,0-21.7,7.7-23.2c0,0,4.1,23.2,2.1,25.8C21.1,87.3,13.4,82.1,13.4,82.1z"/>
</g>
</svg>
