<?xml version="1.0" encoding="utf-8"?>
<!-- Generator: Adobe Illustrator 23.0.6, SVG Export Plug-In . SVG Version: 6.00 Build 0)  -->
<svg version="1.1" id="Layer_1" xmlns="http://www.w3.org/2000/svg" xmlns:xlink="http://www.w3.org/1999/xlink" x="0px" y="0px"
	 viewBox="0 0 288 288" style="enable-background:new 0 0 288 288;" xml:space="preserve">
<style type="text/css">
	.st0{opacity:0.5;}
	.st1{fill:#CCC8DB;}
	.st2{fill:#040404;}
	.st3{fill:#E6EAEA;}
	.st4{fill:#C5725F;}
	.st5{fill:#EFF2F1;}
	.st6{fill:#E9D8C6;}
	.st7{fill:#DAB4C2;}
	.st8{fill:#E4E4E8;}
</style>
<g class="st0">
	<path d="M39.5,170c0,0-36.6,20.3-23.9,32c0,0,11.7,4.1,21.3,1.5s12.7,7.1,12.7,7.1s15.2,5.6,15.7,0s-1.5-14.7-1.5-14.7l5.1-6.1
		L39.5,170z"/>
	<path d="M144.6,54.7c0,0,17.3-31.5,30.5-19.3s3,56.9,3,56.9s0,17.8,7.1,20.3S171,139,171,139l-26.9-54.3L144.6,54.7z"/>
	<path d="M123.3,204.5l-14.7,21.8c0,0-10.7,20.8,9.6,24.9s25.9-18.3,25.9-18.3s2.5-17.3,2.5-23.4s4.1-12.7,4.1-12.7l-0.5-12.2
		L123.3,204.5z"/>
	<rect x="170.8" y="55.3" transform="matrix(0.7071 -0.7071 0.7071 0.7071 10.1113 138.5337)" width="2.9" height="3.6"/>
	<path d="M162.9,66.4l2-2.5c0,0,4.1,4.1,4.6,7.6c0.5,3.6-1,5.6-1,5.6l-3.6-1l1.5-3l-7.1-4.1l0.5-4.1L162.9,66.4z"/>
	<polygon points="172,81.1 173,77.5 176.1,79.1 174.6,82.6 	"/>
	<polygon points="123.8,212.6 131.4,208 133.9,210.6 131.4,217.2 126.3,219.2 123.8,217.7 126.8,215.7 	"/>
	<polygon points="121.3,220.7 124.8,223.3 120.7,226.8 	"/>
	<polygon points="42,178.1 43.1,181.6 46.1,181.6 48.1,178.1 45.6,175.5 	"/>
	<polygon points="31.4,188.7 38.5,188.2 37.5,193.8 30.9,198.9 	"/>
	<path d="M94.3,70.4c0,0,1-32-4.6-44.2l2-2c0,0,78.2,12.2,76.7,91.4L94.3,70.4z"/>
	<path d="M174.6,127.8c0,0,10.2-48.2,64-74.6c0,0,27.9-13.2,37.6,8.6c9.6,21.8-8.1,44.7-8.1,44.7s-26.9,23.4-16.8,44.2
		c10.2,20.8,9.6,26.9,9.6,26.9s-4.1,32.5-23.9,25.4s-24.9-13.2-32-7.6c-7.1,5.6,3,20.8,3,20.8s39.1,31,8.1,50.8s-38-12.8-38-12.8
		s-3.6-28.4-7.1-33.5c-3.6-5.1-1.5-64-1.5-64L174.6,127.8z"/>
	<polygon points="210.1,149.6 214.7,152.2 218.7,147.6 214.7,145.6 	"/>
	<path d="M220.3,156.8l-2,4.1l6.6,1.5l11.7-4.6c0,0,2-5.1-1-5.6S220.3,156.8,220.3,156.8z"/>
	<path d="M229.4,180.6l-4.1,2.5l2,6.6c0,0,5.6-1,6.6,2h4.1l-1.5-4.6L229.4,180.6z"/>
	<path d="M231.4,88.2l-4.6,7.1h7.1l1-3C235,92.3,236.5,87.2,231.4,88.2z"/>
	<path d="M219.8,75c0,0,4.6-6.1,5.6-4.1s-2,4.6-2,4.6L219.8,75z"/>
	<path d="M237,76l3.6-6.6l2.5-4.1l7.6,1.5l1,4.1c0,0-2.5,6.1-6.1,5.1l-5.6,2L237,76z"/>
	<path d="M195.9,217.2c0,0-4.1,3-3,6.1c1,3,5.1,8.1,5.1,8.1l10.7,5.1c0,0,3.6-5.1-1-6.1v-3l-6.1-2.5l-0.5-3
		C201,221.7,198.4,216.2,195.9,217.2z"/>
	<path d="M206.6,241h6.1c0,0,1.5,6.6-2,5.1C207.1,244.6,206.6,241,206.6,241z"/>
	<path d="M31.4,116.6c0,0,7.1-17.3,21.8-24.4l10.7-8.1c0,0,20.3-18.3,43.2-12.2s60.4,41.6,60.4,41.6s14.7,18.8,7.1,46.2
		c-7.6,27.4-51.3,44.7-51.3,44.7s-48.7,8.1-83.8-34.5L31.4,116.6z"/>
	<path d="M144,157.8l15.2,1l4.1-3.6c0,0,5.1-2,5.6-4.1c0.5-2,2-4.6,2-4.6l3.6,0.5l0.5-3.6l2.5,1l-2,15.2c0,0,32,2.5,37.6,12.7
		c0,0-15.7,8.6-14.2,21.3s-2,15.7-2,15.7s-9.1,7.6-18.3,6.6s-17.8,22.3-17.8,22.3s-2.5,2.5-4.1-2c-1.5-4.6-8.6-41.6-8.6-41.6
		s-26.9,19.8-56.4,7.6c0,0,39.1-4.1,47.2-23.9l-4.1-2.5C134.9,176,136.9,158.3,144,157.8z"/>
	<path d="M29.9,135.4c0,0-3.6,16.8,9.6,34.5l3.6,3.6c0,0,7.6-7.1,20.3,3.6c0,0,10.7,2.5,12.7-10.7s-10.7-21.8-10.2-28.9
		c0.5-7.1-1.5-7.6-1.5-7.6s-1-5.6-8.6,0C48.1,135.4,29.9,135.4,29.9,135.4z"/>
	<path d="M96.9,140.5c0,0,15.7-2,18.8-6.1c0,0,9.1-5.6,6.1,4.1s-15.7,8.6-15.7,8.6S95.9,146.1,96.9,140.5z"/>
	<path d="M98.9,149.6l18.8-0.5c0,0,2,10.2-8.6,7.6C98.4,154.2,98.9,149.6,98.9,149.6z"/>
	<path d="M104,71.3c0,0,31,15.2,26.4,51.8c-4.6,36.6-13.2,51.3-13.2,51.3s31.5-11.2,25.9-65l7.6,17.8c0,0,2.5,1.5,3.6-4.1
		c1-5.6,2-12.7,2-12.7l7.1,20.3c0,0,9.6-3.6,4.1-16.2C167.5,114.5,142.1,70.8,104,71.3z"/>
	<polygon points="148.2,142 152.2,143 151.7,134.4 147.7,132.9 145.6,134.9 	"/>
	<path d="M154.8,132.9l5.1,4.6l2-2.5l-3-5.6C158.8,129.3,153.2,127.8,154.8,132.9z"/>
	<polygon points="159.3,145.1 155.3,152.2 158.3,158.8 164.4,149.6 163.4,146.1 	"/>
	<polygon points="171.5,135.4 169,142 171.5,144.1 174.1,140 	"/>
	<path d="M45.6,101.4c0,0-13.7-47.2-11.2-46.2s32.5,30,32.5,30S65.4,103.4,45.6,101.4z"/>
	<path d="M39.5,115.6c0,0,9.6-3,13.2,7.6c3.6,10.7,3.6,10.7,3.6,10.7s-9.1,5.6-13.7,3.6s-9.1,0-9.1,0s-8.1-2-6.1-5.6
		c2-3.6-0.5-7.6-0.5-7.6s-1.5-7.6,4.6-7.6S39.5,115.6,39.5,115.6z"/>
	<path d="M28.8,125.8l2,3c0,0,1-3,0.5-4.6C30.9,122.7,28.8,125.8,28.8,125.8z"/>
	<path d="M44.6,126.3c0,0-2,4.6,0.5,4.1s2.5-2.5,2.5-2.5L44.6,126.3z"/>
</g>
<g>
	<path class="st1" d="M34.4,165c0,0-36.6,20.3-23.9,32c0,0,11.7,4.1,21.3,1.5s12.7,7.1,12.7,7.1s15.2,5.6,15.7,0s-1.5-14.7-1.5-14.7
		l5.1-6.1L34.4,165z"/>
	<path class="st1" d="M139.5,49.7c0,0,17.3-31.5,30.5-19.3s3,56.9,3,56.9s0,17.8,7.1,20.3S165.9,134,165.9,134L139,79.7L139.5,49.7z
		"/>
	<path class="st1" d="M118.2,199.5l-14.7,21.8c0,0-10.7,20.8,9.6,24.9s25.9-18.3,25.9-18.3s2.5-17.3,2.5-23.4s4.1-12.7,4.1-12.7
		l-0.5-12.2L118.2,199.5z"/>
	
		<rect x="165.7" y="50.2" transform="matrix(0.7071 -0.7071 0.7071 0.7071 12.1818 133.4458)" class="st2" width="2.9" height="3.6"/>
	<path class="st2" d="M157.8,61.4l2-2.5c0,0,4.1,4.1,4.6,7.6c0.5,3.6-1,5.6-1,5.6l-3.6-1l1.5-3l-7.1-4.1l0.5-4.1L157.8,61.4z"/>
	<polygon class="st2" points="166.9,76.1 167.9,72.5 171,74.1 169.5,77.6 	"/>
	<polygon class="st2" points="118.7,207.6 126.3,203 128.8,205.6 126.3,212.2 121.2,214.2 118.7,212.7 121.7,210.7 	"/>
	<polygon class="st2" points="116.2,215.7 119.7,218.3 115.6,221.8 	"/>
	<polygon class="st2" points="36.9,173.1 38,176.6 41,176.6 43,173.1 40.5,170.5 	"/>
	<polygon class="st2" points="26.3,183.7 33.4,183.2 32.4,188.8 25.8,193.9 	"/>
	<path class="st3" d="M89.2,65.4c0,0,1-32-4.6-44.2l2-2c0,0,78.2,12.2,76.7,91.4L89.2,65.4z"/>
	<path class="st3" d="M169.5,122.8c0,0,10.2-48.2,64-74.6c0,0,27.9-13.2,37.6,8.6c9.6,21.8-8.1,44.7-8.1,44.7s-26.9,23.4-16.8,44.2
		c10.2,20.8,9.6,26.9,9.6,26.9s-4.1,32.5-23.9,25.4s-24.9-13.2-32-7.6c-7.1,5.6,3,20.8,3,20.8s39.1,31,8.1,50.8s-38-12.8-38-12.8
		s-3.6-28.4-7.1-33.5c-3.6-5.1-1.5-64-1.5-64L169.5,122.8z"/>
	<polygon class="st2" points="205,144.6 209.6,147.2 213.6,142.6 209.6,140.6 	"/>
	<path class="st2" d="M215.2,151.8l-2,4.1l6.6,1.5l11.7-4.6c0,0,2-5.1-1-5.6S215.2,151.8,215.2,151.8z"/>
	<path class="st2" d="M224.3,175.6l-4.1,2.5l2,6.6c0,0,5.6-1,6.6,2h4.1l-1.5-4.6L224.3,175.6z"/>
	<path class="st2" d="M226.3,83.2l-4.6,7.1h7.1l1-3C229.9,87.3,231.4,82.2,226.3,83.2z"/>
	<path class="st2" d="M214.7,70c0,0,4.6-6.1,5.6-4.1s-2,4.6-2,4.6L214.7,70z"/>
	<path class="st2" d="M231.9,71l3.6-6.6l2.5-4.1l7.6,1.5l1,4.1c0,0-2.5,6.1-6.1,5.1l-5.6,2L231.9,71z"/>
	<path class="st2" d="M190.8,212.2c0,0-4.1,3-3,6.1c1,3,5.1,8.1,5.1,8.1l10.7,5.1c0,0,3.6-5.1-1-6.1v-3l-6.1-2.5l-0.5-3
		C195.9,216.7,193.3,211.2,190.8,212.2z"/>
	<path class="st2" d="M201.5,236h6.1c0,0,1.5,6.6-2,5.1C202,239.6,201.5,236,201.5,236z"/>
	<path class="st4" d="M26.3,111.6c0,0,7.1-17.3,21.8-24.4l10.7-8.1c0,0,20.3-18.3,43.2-12.2s60.4,41.6,60.4,41.6s14.7,18.8,7.1,46.2
		c-7.6,27.4-51.3,44.7-51.3,44.7s-48.7,8.1-83.8-34.5L26.3,111.6z"/>
	<path class="st5" d="M138.9,152.8l15.2,1l4.1-3.6c0,0,5.1-2,5.6-4.1c0.5-2,2-4.6,2-4.6l3.6,0.5l0.5-3.6l2.5,1l-2,15.2
		c0,0,32,2.5,37.6,12.7c0,0-15.7,8.6-14.2,21.3s-2,15.7-2,15.7s-9.1,7.6-18.3,6.6s-17.8,22.3-17.8,22.3s-2.5,2.5-4.1-2
		c-1.5-4.6-8.6-41.6-8.6-41.6s-26.9,19.8-56.4,7.6c0,0,39.1-4.1,47.2-23.9l-4.1-2.5C129.8,171,131.8,153.3,138.9,152.8z"/>
	<path class="st5" d="M24.8,130.4c0,0-3.6,16.8,9.6,34.5l3.6,3.6c0,0,7.6-7.1,20.3,3.6c0,0,10.7,2.5,12.7-10.7s-10.7-21.8-10.2-28.9
		c0.5-7.1-1.5-7.6-1.5-7.6s-1-5.6-8.6,0C43,130.4,24.8,130.4,24.8,130.4z"/>
	<path class="st2" d="M91.8,135.5c0,0,15.7-2,18.8-6.1c0,0,9.1-5.6,6.1,4.1s-15.7,8.6-15.7,8.6S90.8,141.1,91.8,135.5z"/>
	<path class="st2" d="M93.8,144.6l18.8-0.5c0,0,2,10.2-8.6,7.6C93.3,149.2,93.8,144.6,93.8,144.6z"/>
	<path class="st2" d="M98.9,66.3c0,0,31,15.2,26.4,51.8c-4.6,36.6-13.2,51.3-13.2,51.3s31.5-11.2,25.9-65l7.6,17.8
		c0,0,2.5,1.5,3.6-4.1c1-5.6,2-12.7,2-12.7l7.1,20.3c0,0,9.6-3.6,4.1-16.2C162.4,109.5,137,65.8,98.9,66.3z"/>
	<polygon class="st2" points="143.1,137 147.1,138 146.6,129.4 142.6,127.9 140.5,129.9 	"/>
	<path class="st2" d="M149.7,127.9l5.1,4.6l2-2.5l-3-5.6C153.7,124.3,148.1,122.8,149.7,127.9z"/>
	<polygon class="st2" points="154.2,140.1 150.2,147.2 153.2,153.8 159.3,144.6 158.3,141.1 	"/>
	<polygon class="st2" points="166.4,130.4 163.9,137 166.4,139.1 169,135 	"/>
	<path class="st6" d="M40.5,96.4c0,0-13.7-47.2-11.2-46.2s32.5,30,32.5,30S60.3,98.4,40.5,96.4z"/>
	<path class="st7" d="M34.4,110.6c0,0,9.6-3,13.2,7.6c3.6,10.7,3.6,10.7,3.6,10.7s-9.1,5.6-13.7,3.6s-9.1,0-9.1,0s-8.1-2-6.1-5.6
		s-0.5-7.6-0.5-7.6s-1.5-7.6,4.6-7.6S34.4,110.6,34.4,110.6z"/>
	<path class="st8" d="M23.7,120.8l2,3c0,0,1-3,0.5-4.6C25.8,117.7,23.7,120.8,23.7,120.8z"/>
	<path class="st8" d="M39.5,121.3c0,0-2,4.6,0.5,4.1s2.5-2.5,2.5-2.5L39.5,121.3z"/>
</g>
</svg>
