<?xml version="1.0" encoding="utf-8"?>
<!-- Generator: Adobe Illustrator 23.0.6, SVG Export Plug-In . SVG Version: 6.00 Build 0)  -->
<svg version="1.1" id="Layer_1" xmlns="http://www.w3.org/2000/svg" xmlns:xlink="http://www.w3.org/1999/xlink" x="0px" y="0px"
	 viewBox="0 0 288 288" style="enable-background:new 0 0 288 288;" xml:space="preserve">
<style type="text/css">
	.st0{opacity:0.5;}
	.st1{fill:#3C3736;}
	.st2{fill:#29292A;}
	.st3{fill:#7A799E;}
	.st4{fill:#756E86;}
	.st5{fill:#D0ABB3;}
	.st6{fill:#A5A6C7;}
</style>
<g class="st0">
	<path d="M58.4,181c35.1,21.4,65.7,27.3,83.7,29.1c32.3,3.3,42.8-4.4,45.4-6.4c9-7.1,20-23.3,23.7-34.6c0.7-2.2,2.9-9.6,9.2-16.7
		c1.5-1.7,2.9-3,3.8-3.8c1.7,10.8,4.2,23,8.1,36.2c3.9,13.3,8.5,25,13,35.1c-1.6,2.3-4.4,5.6-8.6,8.6c-4.4,3.1-8.6,4.6-11.3,5.4
		c-2.6,0.6-6.5,1-10.8,0c-3.3-0.8-5.5-2.1-6.5-2.7c-3.8-2.2-10-4.7-20.5-5.9c-5.6,1.2-11.3,2.3-17.1,3.4c-8.7,1.7-17.2,3.2-25.6,4.7
		c0,0-51.8,5.4-77.2-17.8l-18.9,8.6l-7.6-13C46.8,201.2,52.6,191.1,58.4,181z"/>
	<path d="M48.6,149.2c0,0-4.3,22.7,2.2,32.4c0,0,17.3,42.1,95,36.2s79.9-81.5,79.9-81.5s-24.3,37.8-38.3,25.9
		C173.4,150.3,141,139,141,139s-32.4-8.6-41.6-6.5C99.4,132.5,57.3,136.2,48.6,149.2z"/>
	<path d="M252.6,146c0,0,36.7,27.5,33.5,35.1c-3.2,7.6-8.6,5.4-8.6,5.4s-31.3-6.5-35.1-4.9C242.4,181.6,252.6,149.2,252.6,146z"/>
	<path d="M162.5,42.9c0,0,3.2-18.9,17.3-21c14-2.2,29.1-0.5,29.1-0.5s11.3,1.6,14.6,10.3l22.1,7c-1.1,3-3.6,8.6-9.2,13.5
		c-4,3.6-8.1,5.5-10.8,6.5C218.7,55.3,210.6,52.2,162.5,42.9z"/>
	<path d="M247.8,79.6c0,0,17.3-9.2,17.8-11.3c0.5-2.2,4.9,1.6,4.9,1.6s-12.4,14.6-20.5,13L247.8,79.6z"/>
	<path d="M164.7,36.9c0,0-14.3,4.4-10.8,5.9c3.8,1.6,8.6,0,8.6,0L164.7,36.9z"/>
	<path d="M246.2,82.8c1.4,4.3,2.9,8.6,4.3,13c0,0,19.4-10.8,20-25.9c-2.6,2-5.7,4.2-9.2,6.3C255.7,79.3,250.5,81.4,246.2,82.8z"/>
	<path d="M251.7,68.7c0,0,2.2,4.9,13,0.5c0,0-13.5,13-17.8,11.3C246.8,80.5,247.9,70.3,251.7,68.7z"/>
	<path d="M248.9,105.5c0,0,16.7,36.2-11.9,89c0,0-10.8-50.7-2.2-68.5L248.9,105.5z"/>
	<path d="M56.7,189.1L41,211.2l7.6,13l18.9-8.6c0,0,29.1,27,77.2,17.8s42.6-11.3,42.6-11.3s7-0.5,17.8,4.3c10.8,4.9,20,7.6,20,7.6
		s13.5-9.2,13-14.6c0,0-21.6-69.1-12.4-83.1l9.2-10.3c0,0-7,64.2,11.9,90.1c0,0,0.5,19.4-16.7,24.8c0,0-14,1.1-37.8-9.7
		c0,0-4.9,0-11.3,3.8s-37.2,9.7-37.2,9.7l-64.2-10.8c0,0-16.7-8.6-16.2-10.8l-15.7,7.6c0,0-17.3-14-13-20.5c0,0,14-19.4,16.2-28.6
		L56.7,189.1z"/>
	<path d="M102.1,196.1c0,0-50.7,56.1-17.3,84.2c0,0,48,21.6,61-13.5l-0.5-60.4C145.2,206.4,142,187,102.1,196.1z"/>
	<path d="M162.5,42.9c0,0-58.8-0.5-86.9,27.5c0,0-4.3,8.1-26.4-10.8S21.1,46.1,21.1,46.1S10.9,51,24.9,68.8s16.7,29.7,16.7,29.7
		s-43.2,54.5-27,76.6c0,0,4.9,13.5,20.5-13s64.2-29.7,64.2-29.7s48.6-0.5,88,29.7c2,1.4,4.9,3,8.6,3.2c4.7,0.3,12.4-1.6,30.8-26.4
		c12.7-17.3,22.4-34.6,22.6-34.5c0,0-0.2,0.6-0.5,1c0,0,4.3-18.3-1.1-25.9c0,0,9.2-22.1,16.2-30.2s0.5-17.8,0.5-17.8
		s-8.1-5.9-18.9,7c-10.8,13-20,20-20,20S196,41.3,162.5,42.9z"/>
</g>
<g>
	<path class="st1" d="M53.1,176.2c35.1,21.4,65.7,27.3,83.7,29.1c32.3,3.3,42.8-4.4,45.4-6.4c9-7.1,20-23.3,23.7-34.6
		c0.7-2.2,2.9-9.6,9.2-16.7c1.5-1.7,2.9-3,3.8-3.8c1.7,10.8,4.2,23,8.1,36.2c3.9,13.3,8.5,25,13,35.1c-1.6,2.3-4.4,5.6-8.6,8.6
		c-4.4,3.1-8.6,4.6-11.3,5.4c-2.6,0.6-6.5,1-10.8,0c-3.3-0.8-5.5-2.1-6.5-2.7c-3.8-2.2-10-4.7-20.5-5.9c-5.6,1.2-11.3,2.3-17.1,3.4
		c-8.7,1.7-17.2,3.2-25.6,4.7c0,0-51.8,5.4-77.2-17.8l-18.9,8.6l-7.6-13C41.5,196.4,47.3,186.3,53.1,176.2z"/>
	<path class="st2" d="M43.3,144.4c0,0-4.3,22.7,2.2,32.4c0,0,17.3,42.1,95,36.2s79.9-81.5,79.9-81.5s-24.3,37.8-38.3,25.9
		c-14-11.9-46.4-23.2-46.4-23.2s-32.4-8.6-41.6-6.5C94.1,127.7,52,131.4,43.3,144.4z"/>
	<path class="st3" d="M247.3,141.2c0,0,36.7,27.5,33.5,35.1c-3.2,7.6-8.6,5.4-8.6,5.4s-31.3-6.5-35.1-4.9
		C237.1,176.8,247.3,144.4,247.3,141.2z"/>
	<path class="st3" d="M157.2,38.1c0,0,3.2-18.9,17.3-21c14-2.2,29.1-0.5,29.1-0.5s11.3,1.6,14.6,10.3l22.1,7
		c-1.1,3-3.6,8.6-9.2,13.5c-4,3.6-8.1,5.5-10.8,6.5C213.4,50.5,205.3,47.4,157.2,38.1z"/>
	<path class="st3" d="M242.5,74.8c0,0,17.3-9.2,17.8-11.3c0.5-2.2,4.9,1.6,4.9,1.6s-12.4,14.6-20.5,13L242.5,74.8z"/>
	<path class="st4" d="M159.4,32.1c0,0-14.3,4.4-10.8,5.9c3.8,1.6,8.6,0,8.6,0L159.4,32.1z"/>
	<path class="st4" d="M240.9,78c1.4,4.3,2.9,8.6,4.3,13c0,0,19.4-10.8,20-25.9c-2.6,2-5.7,4.2-9.2,6.3
		C250.4,74.5,245.2,76.6,240.9,78z"/>
	<path class="st1" d="M246.4,63.9c0,0,2.2,4.9,13,0.5c0,0-13.5,13-17.8,11.3C241.5,75.7,242.6,65.5,246.4,63.9z"/>
	<path class="st3" d="M243.6,100.7c0,0,16.7,36.2-11.9,89c0,0-10.8-50.7-2.2-68.5L243.6,100.7z"/>
	<path class="st3" d="M51.4,184.3l-15.7,22.1l7.6,13l18.9-8.6c0,0,29.1,27,77.2,17.8s42.6-11.3,42.6-11.3s7-0.5,17.8,4.3
		c10.8,4.9,20,7.6,20,7.6s13.5-9.2,13-14.6c0,0-21.6-69.1-12.4-83.1l9.2-10.3c0,0-7,64.2,11.9,90.1c0,0,0.5,19.4-16.7,24.8
		c0,0-14,1.1-37.8-9.7c0,0-4.9,0-11.3,3.8s-37.2,9.7-37.2,9.7l-64.2-10.8c0,0-16.7-8.6-16.2-10.8l-15.7,7.6c0,0-17.3-14-13-20.5
		c0,0,14-19.4,16.2-28.6L51.4,184.3z"/>
	<path class="st5" d="M96.8,191.3c0,0-50.7,56.1-17.3,84.2c0,0,48,21.6,61-13.5l-0.5-60.4C139.9,201.6,136.7,182.2,96.8,191.3z"/>
	<path class="st6" d="M157.2,38.1c0,0-58.8-0.5-86.9,27.5c0,0-4.3,8.1-26.4-10.8S15.8,41.3,15.8,41.3S5.6,46.2,19.6,64
		s16.7,29.7,16.7,29.7s-43.2,54.5-27,76.6c0,0,4.9,13.5,20.5-13S94,127.6,94,127.6s48.6-0.5,88,29.7c2,1.4,4.9,3,8.6,3.2
		c4.7,0.3,12.4-1.6,30.8-26.4c12.7-17.3,22.4-34.6,22.6-34.5c0,0-0.2,0.6-0.5,1c0,0,4.3-18.3-1.1-25.9c0,0,9.2-22.1,16.2-30.2
		s0.5-17.8,0.5-17.8s-8.1-5.9-18.9,7c-10.8,13-20,20-20,20S190.7,36.5,157.2,38.1z"/>
</g>
</svg>
