<?xml version="1.0" encoding="utf-8"?>
<!-- Generator: Adobe Illustrator 23.0.6, SVG Export Plug-In . SVG Version: 6.00 Build 0)  -->
<svg version="1.1" id="Layer_1" xmlns="http://www.w3.org/2000/svg" xmlns:xlink="http://www.w3.org/1999/xlink" x="0px" y="0px"
	 viewBox="0 0 288 288" style="enable-background:new 0 0 288 288;" xml:space="preserve">
<style type="text/css">
	.st0{opacity:0.5;}
	.st1{fill:#7A8999;}
	.st2{fill:#7E8FA0;}
	.st3{fill:#372A36;}
	.st4{fill:#7C6666;}
	.st5{fill:#EEEFF8;}
	.st6{fill:#DCAAB7;}
	.st7{fill:#DFD5C4;}
	.st8{fill:#E6E4EB;}
	.st9{fill:#CFAEC4;}
</style>
<g class="st0">
	<path d="M248.4,84.1c0,0,4.7,2.9,7.1,2.4c2.4-0.5-1.4,4.2-1.4,4.2l-8.6,4.7L248.4,84.1z"/>
	<path d="M252.9,162.3c0,0,7.6,5.2,13.8,5.7c6.2,0.5-2.4,6.2-2.4,6.2l-14.3,3.4L252.9,162.3z"/>
	<path d="M166.2,118.8c0,0,6.7-7.6,12.4-6.7c0,0,5.2-6.7,5.2-8.6c0-2.4-8.1-31.5,5.2-33.4c0,0,2.9,0,2.9,4.7
		c0,4.7,10.5,16.7,10.5,16.7s6.2-3.9,9.1-1.9c0,0,9.6-6.2,9.1-8.1c0,0-3.4-23.4,1.9-23.8c0,0,2.9,0.5,3.9,4.2c1,3.8,6.2,9.6,6.2,9.6
		s8.1-10.5,11.5-8.1c3.4,2.4,8.1,33.9,6.7,42.9s-0.5,1.9-0.5,1.9l3.9,3.9c0,0,6.2-3.4,6.2,1c0,4.3-2.9,8.1-2.9,8.1s6.7,14.8-7.6,30
		c0,0,12.4,27.6-4.2,40.5c0,0,1.4,44.8-22.4,47.7l-2.9,1c0,0-12.8,16.2-31,13.3l-8.1-6.2c0,0-15.7-102-15.7-103.9
		C165.2,141.8,166.2,118.8,166.2,118.8z"/>
	<path d="M202.5,230.4c0,0,15.2,3.9,26.2-16.2c0,0-1.4-15.2-7.6-20.5L202.5,230.4z"/>
	<path d="M189.5,187.1l12.4-0.5c0,0,12.4-2.9,19.1,7.1c0,0-4.7,24.8-23.8,41C197.1,234.7,206.7,209.9,189.5,187.1z"/>
	<path d="M196.2,186.6c0,0,0,8.1,1.4,6.7s4.2-6.7,4.2-6.7H196.2z"/>
	<path d="M208.1,186.2c0,0-1.9,9.6,0.5,9.6c2.4,0,5.2-1.4,6.7-7.1C215.3,188.6,211,184.8,208.1,186.2z"/>
	<path d="M226.7,202.3l-7.6,5.2c0,0,1,4.7,9.6,1L226.7,202.3z"/>
	<path d="M55.1,45.5c0,0-23.4-3.9-7.1-27.2s32.4-1.9,29,2.9c0,0,29.5-11.5,47.7,0.5c0,0,7.6-21.4,29-9.6s-0.5,37.2-3.4,30.5
		c0,0,7.6,35.3,4.7,43.3c-2.9,8.1,2.9,19.1,2.9,19.1s20,23.4,12.8,46.7c0,0,5.2,20.9,10.5,24.8c0,0,26.7,25.3,15.7,58.2
		c0,0-7.1,14.3-10,15.7c0,0,13.3,17.7,7.6,25.3c-5.7,7.6-20.9,2.9-20.9,2.9l-11.5-1l-11.9,2.4c0,0-11-7.1-7.6-14.3
		c3.4-7.1,4.7-13.3,4.7-13.3l-2.9-1.9l-59.5-7.1c0,0,1,8.1,3.4,10.5s-34.4,13.3-34.4,13.3l-15.7-4.7l-8.6-9.6l8.1-6.7
		c0,0-20-11-19.1-32.4c1-21.4,14.8-34.8,17.2-39.6c2.4-4.7,4.2-10.5,4.2-10.5s-7.6-31,10-54.3C50.4,109.4,48,53.1,55.1,45.5z"/>
	<path d="M61.4,67.9c3.5-1,7.2-2.4,11.3-4.1c5.8-2.6,10.6-5.5,14.5-8.2c0,0,12.8-10,31.9,1.9c3.9,3.3,7.5,5.1,10.5,6.2
		c4.7,1.8,7.2,1.4,11,3.4c4,2.1,6.7,5.2,8.6,8.1c0.4,1.6,1.3,6.6-1.3,12.1c-3,6.2-8.4,8.8-9.7,9.3c0,0-13.8,19.6-34.8,18.6
		S67.1,99.3,67.1,99.3l-4.8-3.8c-0.4-0.3-8.5-6.9-7.1-16.7C56,72.6,60.2,68.9,61.4,67.9z"/>
	<path d="M43.2,169.4c0,0-8.1,59.1,42,73.9c50.1,14.7,59.5,7.1,59.5,7.1s-12.8-17.7-9.6-33.4c3.4-15.7,9.6-25.8,9.6-25.8v-2.9
		l-6.7,4.2c0,0-10.5,1.9-12.4-0.5c-1.9-2.4-5.7-6.7-5.7-6.7l0.5-12.8c0,0-26.2,6.2-41.5-1c0,0-2.4,12.4-4.7,15.7
		c-2.4,3.4-11,2.4-11,2.4S42.7,177,43.2,169.4z"/>
	<path d="M29.9,252.8c0,0-18.1,10.5-11.9,13.3c6.2,2.9,19.1-1.9,19.1-1.9s-4.7,6.7-1,7.1s19.6-5.7,19.6-5.7s-0.5-17.2-15.7-6.2
		l-1.4,2.9C38.5,262.3,34.6,250.5,29.9,252.8z"/>
	<path d="M150.4,280c0,0-1-14.3,9.1-11.5c10,2.9,10,9.1,10,9.1s-3.4,9.6-6.7,8.6C159.5,285.2,150.4,280,150.4,280z"/>
	<path d="M173.8,278.5c0,0-1.4-11.9,10-10c11.4,2,11,7.1,11,7.1s-4.7,11.9-9.6,10.5C180.3,284.6,173.8,278.5,173.8,278.5z"/>
	<path d="M63.2,189.9c0,0,3.4,5.7,4.7,4.7s1-5.7,1-5.7L63.2,189.9z"/>
	<path d="M72.3,183.2c0,0-6.7,4.7-3.4,5.7s8.6,3.9,8.6,3.9S75.7,183.7,72.3,183.2z"/>
	<path d="M78,176.1c0,0,6.2,4.7,4.2,6.7c-1.9,1.9-5.7,1-5.7,1L78,176.1z"/>
	<path d="M120.9,178.5c0,0-6.7,6.2-5.2,8.1c1.4,1.9,7.1-0.5,7.1-0.5S125.2,178,120.9,178.5z"/>
	<path d="M128.5,189.4c0,0-4.7-2.4-5.7,0c-1,2.4,0.5,7.6,0.5,7.6S130,191.3,128.5,189.4z"/>
	<path d="M133.3,191.3c0,0-4.2,6.7-1.4,6.2c2.9-0.5,6.2-4.7,6.2-4.7S135.7,189,133.3,191.3z"/>
	<path d="M71.8,91.7c0,0,13.8,19.6,33.4,14.8s26.7-17.2,26.7-17.2l0.5-3.9c0,0-45.3-5.2-59.5,1L71.8,91.7z"/>
	<path d="M67.5,87c0,0,2.9,5.7,4.2,4.7c1.4-1,1-5.2,1-5.2L67.5,87z"/>
	<path d="M128.1,84.7c0,0,2.4,7.6,3.9,5.7c1.4-1.9,2.4-5.7,2.4-5.7H128.1z"/>
	<polygon points="241.5,89.3 244.8,88.8 243.4,92.7 	"/>
	<polygon points="232,107 229.1,106.5 229.6,108.4 	"/>
	<path d="M225.3,102.2c0,0,8.1,1.4,7.1-1c-1-2.4-3.4-4.2-3.4-4.2S224.8,99.8,225.3,102.2z"/>
	<polygon points="249.2,132.3 246.7,132.3 248.7,135.5 	"/>
	<path d="M234.4,136.5l3.4,2.9c0,0,0.5,6.7-4.2,6.7c-4.7,0-4.7-2.4-4.7-2.4s1.4-2.9,0.5-5.7C228.1,135,234.4,136.5,234.4,136.5z"/>
	<path d="M219.5,137c0,0,4.2,3.4,1.4,3.9c-2.9,0.5-5.2-1.9-5.2-1.9L219.5,137z"/>
	<polygon points="221.9,185.1 227.6,179.4 232.9,179.4 235.7,183.2 234.4,187.5 235.7,189.9 232.5,192.3 	"/>
	<path d="M235.7,198.5c0,0-4.2,4.2-1.9,5.7c2.4,1.4,2.4,1.4,2.4,1.4S238.6,199.4,235.7,198.5z"/>
</g>
<g>
	<path class="st1" d="M243.1,79c0,0,4.7,2.9,7.1,2.4c2.4-0.5-1.4,4.2-1.4,4.2l-8.6,4.7L243.1,79z"/>
	<path class="st1" d="M247.7,157.2c0,0,7.6,5.2,13.8,5.7c6.2,0.5-2.4,6.2-2.4,6.2l-14.3,3.4L247.7,157.2z"/>
	<path class="st2" d="M161,113.8c0,0,6.7-7.6,12.4-6.7c0,0,5.2-6.7,5.2-8.6c0-2.4-8.1-31.5,5.2-33.4c0,0,2.9,0,2.9,4.7
		c0,4.7,10.5,16.7,10.5,16.7s6.2-3.9,9.1-1.9c0,0,9.6-6.2,9.1-8.1c0,0-3.4-23.4,1.9-23.8c0,0,2.9,0.5,3.9,4.2c1,3.8,6.2,9.6,6.2,9.6
		s8.1-10.5,11.5-8.1c3.4,2.4,8.1,33.9,6.7,42.9s-0.5,1.9-0.5,1.9l3.9,3.9c0,0,6.2-3.4,6.2,1s-2.9,8.1-2.9,8.1s6.7,14.8-7.6,30
		c0,0,12.4,27.6-4.2,40.5c0,0,1.4,44.8-22.4,47.7l-2.9,1c0,0-12.8,16.2-31,13.3l-8.1-6.2c0,0-15.7-102-15.7-103.9
		C160,136.7,161,113.8,161,113.8z"/>
	<path class="st3" d="M197.2,225.4c0,0,15.2,3.9,26.2-16.2c0,0-1.4-15.2-7.6-20.5L197.2,225.4z"/>
	<path class="st4" d="M184.3,182l12.4-0.5c0,0,12.4-2.9,19.1,7.1c0,0-4.7,24.8-23.8,41C191.9,229.6,201.5,204.8,184.3,182z"/>
	<path class="st5" d="M191,181.5c0,0,0,8.1,1.4,6.7s4.2-6.7,4.2-6.7H191z"/>
	<path class="st5" d="M202.9,181.1c0,0-1.9,9.6,0.5,9.6c2.4,0,5.2-1.4,6.7-7.1C210.1,183.5,205.7,179.8,202.9,181.1z"/>
	<path class="st5" d="M221.4,197.2l-7.6,5.2c0,0,1,4.7,9.6,1L221.4,197.2z"/>
	<path class="st6" d="M49.9,40.4c0,0-23.4-3.9-7.1-27.2s32.4-1.9,29,2.9c0,0,29.5-11.5,47.7,0.5c0,0,7.6-21.4,29-9.6
		s-0.5,37.2-3.4,30.5c0,0,7.6,35.3,4.7,43.3s2.9,19.1,2.9,19.1s20,23.4,12.8,46.7c0,0,5.2,20.9,10.5,24.8c0,0,26.7,25.3,15.7,58.2
		c0,0-7.1,14.3-10,15.7c0,0,13.3,17.7,7.6,25.3s-20.9,2.9-20.9,2.9l-11.5-1l-11.9,2.4c0,0-11-7.1-7.6-14.3
		c3.4-7.1,4.7-13.3,4.7-13.3l-2.9-1.9l-59.5-7.1c0,0,1,8.1,3.4,10.5S48.8,262,48.8,262l-15.7-4.7l-8.6-9.6l8.1-6.7
		c0,0-20-11-19.1-32.4s14.8-34.8,17.2-39.6c2.4-4.7,4.2-10.5,4.2-10.5s-7.6-31,10-54.3C45.2,104.3,42.8,48,49.9,40.4z"/>
	<path class="st7" d="M56.1,62.8c3.5-1,7.2-2.4,11.3-4.1c5.8-2.6,10.6-5.5,14.5-8.2c0,0,12.8-10,31.9,1.9c3.9,3.3,7.5,5.1,10.5,6.2
		c4.7,1.8,7.2,1.4,11,3.4c4,2.1,6.7,5.2,8.6,8.1c0.4,1.6,1.3,6.6-1.3,12.1c-3,6.2-8.4,8.8-9.7,9.3c0,0-13.8,19.6-34.8,18.6
		c-20.9-1-36.2-15.8-36.2-15.8L57,90.5c-0.4-0.3-8.5-6.9-7.1-16.7C50.8,67.6,54.9,63.8,56.1,62.8z"/>
	<path class="st7" d="M38,164.4c0,0-8.1,59.1,42,73.9c50.1,14.7,59.5,7.1,59.5,7.1s-12.8-17.7-9.6-33.4c3.4-15.7,9.6-25.8,9.6-25.8
		v-2.9l-6.7,4.2c0,0-10.5,1.9-12.4-0.5c-1.9-2.4-5.7-6.7-5.7-6.7l0.5-12.8c0,0-26.2,6.2-41.5-1c0,0-2.4,12.4-4.7,15.7
		c-2.4,3.4-11,2.4-11,2.4S37.5,172,38,164.4z"/>
	<path class="st8" d="M24.6,247.8c0,0-18.1,10.5-11.9,13.3c6.2,2.9,19.1-1.9,19.1-1.9s-4.7,6.7-1,7.1s19.6-5.7,19.6-5.7
		s-0.5-17.2-15.7-6.2l-1.4,2.9C33.2,257.3,29.4,245.4,24.6,247.8z"/>
	<path class="st8" d="M145.2,274.9c0,0-1-14.3,9.1-11.5c10,2.9,10,9.1,10,9.1s-3.4,9.6-6.7,8.6C154.3,280.2,145.2,274.9,145.2,274.9
		z"/>
	<path class="st8" d="M168.6,273.5c0,0-1.4-11.9,10-10c11.4,2,11,7.1,11,7.1s-4.7,11.9-9.6,10.5
		C175.1,279.6,168.6,273.5,168.6,273.5z"/>
	<path class="st8" d="M58,184.9c0,0,3.4,5.7,4.7,4.7c1.4-1,1-5.7,1-5.7L58,184.9z"/>
	<path class="st8" d="M67.1,178.2c0,0-6.7,4.7-3.4,5.7c3.4,1,8.6,3.9,8.6,3.9S70.4,178.7,67.1,178.2z"/>
	<path class="st8" d="M72.8,171.1c0,0,6.2,4.7,4.2,6.7c-1.9,1.9-5.7,1-5.7,1L72.8,171.1z"/>
	<path class="st8" d="M115.7,173.4c0,0-6.7,6.2-5.2,8.1c1.4,1.9,7.1-0.5,7.1-0.5S120,172.9,115.7,173.4z"/>
	<path class="st8" d="M123.3,184.4c0,0-4.7-2.4-5.7,0c-1,2.4,0.5,7.6,0.5,7.6S124.8,186.3,123.3,184.4z"/>
	<path class="st8" d="M128.1,186.3c0,0-4.2,6.7-1.4,6.2c2.9-0.5,6.2-4.7,6.2-4.7S130.5,183.9,128.1,186.3z"/>
	<path class="st9" d="M66.6,86.6c0,0,13.8,19.6,33.4,14.8c19.6-4.7,26.7-17.2,26.7-17.2l0.5-3.9c0,0-45.3-5.2-59.5,1L66.6,86.6z"/>
	<path class="st8" d="M62.3,81.9c0,0,2.9,5.7,4.2,4.7c1.4-1,1-5.2,1-5.2L62.3,81.9z"/>
	<path class="st8" d="M122.9,79.6c0,0,2.4,7.6,3.9,5.7c1.4-1.9,2.4-5.7,2.4-5.7H122.9z"/>
	<polygon class="st1" points="236.2,84.3 239.6,83.8 238.2,87.6 	"/>
	<polygon class="st1" points="226.8,101.9 223.9,101.5 224.4,103.3 	"/>
	<path class="st1" d="M220,97.1c0,0,8.1,1.4,7.1-1s-3.4-4.2-3.4-4.2S219.5,94.7,220,97.1z"/>
	<polygon class="st1" points="243.9,127.2 241.5,127.2 243.4,130.5 	"/>
	<path class="st1" d="M229.1,131.5l3.4,2.9c0,0,0.5,6.7-4.2,6.7c-4.7,0-4.7-2.4-4.7-2.4s1.4-2.9,0.5-5.7
		C222.9,130,229.1,131.5,229.1,131.5z"/>
	<path class="st1" d="M214.3,132c0,0,4.2,3.4,1.4,3.9c-2.9,0.5-5.2-1.9-5.2-1.9L214.3,132z"/>
	<polygon class="st1" points="216.7,180.1 222.4,174.3 227.6,174.3 230.5,178.2 229.1,182.4 230.5,184.9 227.2,187.3 	"/>
	<path class="st1" d="M230.5,193.5c0,0-4.2,4.2-1.9,5.7c2.4,1.4,2.4,1.4,2.4,1.4S233.4,194.4,230.5,193.5z"/>
</g>
</svg>
