<?xml version="1.0" encoding="utf-8"?>
<!-- Generator: Adobe Illustrator 23.0.6, SVG Export Plug-In . SVG Version: 6.00 Build 0)  -->
<svg version="1.1" id="Layer_1" xmlns="http://www.w3.org/2000/svg" xmlns:xlink="http://www.w3.org/1999/xlink" x="0px" y="0px"
	 viewBox="0 0 288 288" style="enable-background:new 0 0 288 288;" xml:space="preserve">
<style type="text/css">
	.st0{opacity:0.5;}
	.st1{fill:#B69098;}
	.st2{fill:#CBCCD1;}
	.st3{fill:#D0A3AF;}
	.st4{fill:#F1E2E6;}
	.st5{fill:#F4F4F6;}
	.st6{fill:#E5E0DA;}
	.st7{fill:#97828F;}
	.st8{fill:#D0AFC4;}
</style>
<g class="st0">
	<polygon points="83.8,233.9 88.7,245.2 97.8,233.3 	"/>
	<path d="M279.6,232.8c0,0,9.1,3.8,3.8,7.5c-5.4,3.8-8.1,3.2-8.1,3.2L279.6,232.8z"/>
	<path d="M45.6,195.7c0,0-52.7,12.4-21.5,49.5c0,0,51.7,17.2,44.1-10.2C60.7,207.5,45.6,195.7,45.6,195.7z"/>
	<path d="M223.7,140c1.8-7.8,2.6-17.6-0.1-28c-9.8-38.9-57.9-50.9-60.2-51.4c-5.4-2.8-10.8-5.5-16.1-8.3c4.9-3.6,9.9-7.2,14.8-10.8
		c8.5-1,22.8-1.5,39.3,3.4c7.3,2.2,42.5,12.2,58.4,47.2c25.8,57-5.9,101.2-5.9,101.2L223.7,140z"/>
	<path d="M261.2,217.7c0,0,19.9,9.7,18.8,18.3s-11.3,11.8-11.3,11.8s-11.8,3.8-19.9,1.6s-13.5,0-13.5,0S251,233.9,261.2,217.7z"/>
	<path d="M69.3,127.3c0,0-7-16.1-28-7S40.2,151,40.2,151L69.3,127.3z"/>
	<path d="M162.4,40.5c0,0-50,4.3-47.3,24.2c0,0-4.3,5.4,11.8-2.2s36.6-1.6,36.6-1.6c2.9,0.8,5.7,1.6,8.6,2.4
		c-4-2.7-6.1-7.6-5.4-12.4c0.8-4.9,4.4-8.9,9.1-10.2C171.4,40.6,166.9,40.5,162.4,40.5z"/>
	<path d="M33.3,172.5c0,0,1.6-24.8,25.8-40.4s44.1-6.5,44.1-6.5l10.8,4.3c0,0,9.7-21.5,30.7-8.1c0,0,6.5,3.8,8.1,8.1
		c0,0,23.1-10.8,47.3-0.5s37.1,17.2,37.1,17.2s29.6,25.3,26.4,60.8s-32.3,44.7-32.3,44.7s-24.2,7-50.6-1.1c0,0-69.9,17.8-93.1,4.8
		c-23.1-12.9,23.7-35.5,23.7-35.5l10.2-21.5L33.3,172.5z"/>
	<path d="M92.4,245.2c0,0-15.6-0.5-16.7,8.1c-1.1,8.6,17.2,0.5,17.2,0.5S98.9,250,92.4,245.2z"/>
	<path d="M61.2,240.3c0,0-19.4,4.3-9.1,8.6s15.6-0.5,15.6-0.5S70.9,242.5,61.2,240.3z"/>
	<path d="M66.6,160.7c0,0-55.4,7.5-37.7,34.4c0,0,2.4,1.3,5.7,2.1c4.6,1,7.4-0.9,11-1.5c5.9-1.1,8.1,1.8,19.1,4.8
		c0,0,6.6,1.8,15.9,3c7,0.8,18.2,1.1,32.8-3.5c0,0-10.8,37.7-47.9,24.8s-9.7-37.7-9.7-37.7l-8.6,5.4c0,0-16.7,32.3,17.2,40.4
		l23.7,2.7c0,0,21-17.8,32.3-17.8c0,0,22.1-22.1,2.2-33.4C102.7,173.1,95.7,171.4,66.6,160.7z"/>
	<path d="M49.9,194c-0.4,0.5-5.9,8-2.7,16.9c2.1,6,7.4,10.5,13.7,11.6c-1.4-1.1-4.4-3.9-5.7-8.6c-2.3-8.1,2.7-14.8,3.3-15.6
		C58.5,198.4,51,193.5,49.9,194z"/>
	<path d="M56.9,197.3c-0.3,0.5-5.9,9.8-1.1,19c3,5.6,8.2,7.9,9.7,8.5c3,1.2,7.7,2.6,13.7,2.7c1.8,0,4.8,0,8.3-0.8
		c7.9-1.9,13-6.8,15.6-9.4c6.3-6.3,9-13.3,10.2-17.2c-6,1.3-13.3,2.3-21.5,2.4C77.5,202.6,65.5,199.9,56.9,197.3z"/>
	<path d="M35.9,197.3c0,0,1.6,5.9,3.2,4.8s1.6-4.8,1.6-4.8H35.9z"/>
	<path d="M83,202.1c0.7,3.3,1.3,4.4,1.9,4.4c1.2,0,2.7-4.3,2.7-4.3l0,0C86.1,202.2,84.6,202.2,83,202.1z"/>
</g>
<g>
	<polygon class="st1" points="78.6,228.3 83.5,239.6 92.6,227.7 	"/>
	<path class="st2" d="M274.4,227.2c0,0,9.1,3.8,3.8,7.5c-5.4,3.8-8.1,3.2-8.1,3.2L274.4,227.2z"/>
	<path class="st3" d="M40.4,190.1c0,0-52.7,12.4-21.5,49.5c0,0,51.7,17.2,44.1-10.2C55.5,201.9,40.4,190.1,40.4,190.1z"/>
	<path class="st1" d="M218.5,134.4c1.8-7.8,2.6-17.6-0.1-28c-9.8-38.9-57.9-50.9-60.2-51.4c-5.4-2.8-10.8-5.5-16.1-8.3
		c4.9-3.6,9.9-7.2,14.8-10.8c8.5-1,22.8-1.5,39.3,3.4c7.3,2.2,42.5,12.2,58.4,47.2c25.8,57-5.9,101.2-5.9,101.2L218.5,134.4z"/>
	<path class="st1" d="M256,212.1c0,0,19.9,9.7,18.8,18.3s-11.3,11.8-11.3,11.8s-11.8,3.8-19.9,1.6s-13.5,0-13.5,0
		S245.8,228.3,256,212.1z"/>
	<path class="st1" d="M64.1,121.7c0,0-7-16.1-28-7S35,145.4,35,145.4L64.1,121.7z"/>
	<path class="st4" d="M157.2,34.9c0,0-50,4.3-47.3,24.2c0,0-4.3,5.4,11.8-2.2s36.6-1.6,36.6-1.6c2.9,0.8,5.7,1.6,8.6,2.4
		c-4-2.7-6.1-7.6-5.4-12.4c0.8-4.9,4.4-8.9,9.1-10.2C166.2,35,161.7,34.9,157.2,34.9z"/>
	<path class="st3" d="M28.1,166.9c0,0,1.6-24.8,25.8-40.4S98,120,98,120l10.8,4.3c0,0,9.7-21.5,30.7-8.1c0,0,6.5,3.8,8.1,8.1
		c0,0,23.1-10.8,47.3-0.5S232,141,232,141s29.6,25.3,26.4,60.8s-32.3,44.7-32.3,44.7s-24.2,7-50.6-1.1c0,0-69.9,17.8-93.1,4.8
		c-23.1-12.9,23.7-35.5,23.7-35.5l10.2-21.5L28.1,166.9z"/>
	<path class="st5" d="M87.2,239.6c0,0-15.6-0.5-16.7,8.1s17.2,0.5,17.2,0.5S93.7,244.4,87.2,239.6z"/>
	<path class="st5" d="M56,234.7c0,0-19.4,4.3-9.1,8.6s15.6-0.5,15.6-0.5S65.7,236.9,56,234.7z"/>
	<path class="st6" d="M61.4,155.1c0,0-55.4,7.5-37.7,34.4c0,0,2.4,1.3,5.7,2.1c4.6,1,7.4-0.9,11-1.5c5.9-1.1,8.1,1.8,19.1,4.8
		c0,0,6.6,1.8,15.9,3c7,0.8,18.2,1.1,32.8-3.5c0,0-10.8,37.7-47.9,24.8s-9.7-37.7-9.7-37.7l-8.6,5.4c0,0-16.7,32.3,17.2,40.4
		l23.7,2.7c0,0,21-17.8,32.3-17.8c0,0,22.1-22.1,2.2-33.4C97.5,167.5,90.5,165.8,61.4,155.1z"/>
	<path class="st7" d="M44.7,188.4c-0.4,0.5-5.9,8-2.7,16.9c2.1,6,7.4,10.5,13.7,11.6c-1.4-1.1-4.4-3.9-5.7-8.6
		c-2.3-8.1,2.7-14.8,3.3-15.6C53.3,192.8,45.8,187.9,44.7,188.4z"/>
	<path class="st8" d="M51.7,191.7c-0.3,0.5-5.9,9.8-1.1,19c3,5.6,8.2,7.9,9.7,8.5c3,1.2,7.7,2.6,13.7,2.7c1.8,0,4.8,0,8.3-0.8
		c7.9-1.9,13-6.8,15.6-9.4c6.3-6.3,9-13.3,10.2-17.2c-6,1.3-13.3,2.3-21.5,2.4C72.3,197,60.3,194.3,51.7,191.7z"/>
	<path class="st5" d="M30.7,191.7c0,0,1.6,5.9,3.2,4.8s1.6-4.8,1.6-4.8H30.7z"/>
	<path class="st5" d="M77.8,196.5c0.7,3.3,1.3,4.4,1.9,4.4c1.2,0,2.7-4.3,2.7-4.3l0,0C80.9,196.6,79.4,196.6,77.8,196.5z"/>
</g>
</svg>
