<?xml version="1.0" encoding="utf-8"?>
<!-- Generator: Adobe Illustrator 23.0.6, SVG Export Plug-In . SVG Version: 6.00 Build 0)  -->
<svg version="1.1" id="Layer_1" xmlns="http://www.w3.org/2000/svg" xmlns:xlink="http://www.w3.org/1999/xlink" x="0px" y="0px"
	 viewBox="0 0 288 288" style="enable-background:new 0 0 288 288;" xml:space="preserve">
<style type="text/css">
	.st0{opacity:0.5;}
	.st1{fill:#2E5769;}
	.st2{fill:#55889D;}
	.st3{fill:#E4DBD0;}
	.st4{fill:#A39282;}
	.st5{fill:#E1E2E6;}
</style>
<g class="st0">
	<path d="M75.1,221.7l31.5,18.4c0,0-11.2,7.1-31.1,2.6L75.1,221.7z"/>
	<path d="M176.7,245.3l33.4-16.5l4.9,18C215,246.8,199.2,254.7,176.7,245.3z"/>
	<path d="M31.2,148.5c0,0-10.9-6.7,5.6-25.9s39.4-32.2,39.4-32.2c2-1.3,4.4-2.7,7.2-3.9c4.2-1.9,8.1-2.9,11.2-3.6
		c0.2-1.8,0.8-4.3,2-7.1c1.7-3.8,4-6.4,5.5-7.9c0.3-4.3,1-10.5,2.6-17.6c1.8-7.8,2.7-11.7,5.2-13.1c4.8-2.6,14.1,3.1,23.2,13.1
		c0,0,22.5-8.2,37.9,2.6c0,0,22.9-13.5,28.9-9.8c6,3.8,3,32.2,3,32.2s83.6,46.1,79.9,77.2c0,0,1.1,18.4-29.6,7.1
		c0,0,8.2,33.4,6.8,39l-29.6,3.4c0,0,6.4-54.4-44.6-79.9c0,0,19.1-31.5-24-47.2l-18.7,18c0,0-15.7-9-17.6-18.4
		c0,0-46.5,11.6-13.9,47.6l3,2.2c0,0-58.9,19.1-51.7,78l-14-8c0,0-5.6-16.5,6-46.5C54.9,147.8,36.9,154.9,31.2,148.5z"/>
	<path d="M124.6,72.8c0,0-30,7.5-25.5,26.6s12.4,22.9,12.4,22.9s-30.7,9-41.6,34.1S60.5,195,60.5,195s0.8,5.6,2.2,7.5
		c0,0-21.4-17.6-36.7-6C10.6,208.2,11.4,216,11.4,216s-1.1,30,32.6,38.2s33.7-21.4,33.7-21.4s-1.1-9.4-2.6-11.2
		c-1.5-1.9,33.4,30.4,71.2,28.5s63.4-19.1,63.4-19.1s-1.5,30.7,32.2,29.2s36-35.2,36-35.2s-0.4-23.6-26.2-28.5c0,0-17.6,0-20.6,2.6
		c0.1-9-0.9-22.7-6.8-37.1c-4-9.8-8.7-16.5-10.1-18.4c-3-4.1-5.6-7.7-10.1-11.2c0,0-3.4-2.7-18.4-10.1l0,0c0,0,15.4-15,3-29.2
		s-27-18-27-18l-18.7,18C143,93,122.7,75.4,124.6,72.8z"/>
	<path d="M255.5,226.5c0,0-24.4-8.6-28.5,12s19.5,14.2,19.5,14.2S273.9,243,255.5,226.5z"/>
	<path d="M28.2,217.5c0,0-16.5,13.1,4.1,27.4s26.6-5.6,26.6-5.6s-0.4-14.6-14.2-19.9C30.9,214.2,28.2,217.5,28.2,217.5z"/>
	<path d="M126.1,121.9c0,0,1.9-4.5,2.6-3c0.8,1.5,1.5,4.9,1.5,4.9L126.1,121.9z"/>
	<path d="M157.2,124.9c0,0-0.4-6.4,1.1-6s2.6,3.4,2.6,3.4L157.2,124.9z"/>
	<path d="M27.1,139.9l-3,2.6l3.4,1.5l-3.7,4.9l4.5-1.1l0.4,6.7l4.9-4.1c0,0-0.4,6.4,1.9,6.4s4.9-6.4,4.9-6.4s-4.5-3-6-1.9
		s-3-3-4.5-1.9s1.1-3-0.7-3C27.4,143.6,29.4,140.7,27.1,139.9z"/>
	<path d="M41.7,150c0,0,1.5,4.1,3,4.1s3-4.9,3-4.9S44.4,147.8,41.7,150z"/>
	<path d="M262.6,160.9c0,0,1.5,6.7,2.6,6.7s3.4-4.9,3.4-4.9S268.6,159.4,262.6,160.9z"/>
	<path d="M273.1,162.4l6.4,4.1c0,0-0.4-5.6-2.2-6S273.1,162.4,273.1,162.4z"/>
	<path d="M280.2,160.9l3.7,1.9l-1.5-4.5l4.9-1.1l-2.2-3l-2.2-4.9c0,0-1.1,4.1,0,4.5c0,0-2.6,1.1-1.9,2.6S278.7,158.3,280.2,160.9z"
		/>
	<path d="M227,201.8c0,0,2.6-15,4.9-13.1c2.2,1.9,8.2,12.7,8.2,12.7S235.6,211.2,227,201.8z"/>
	<path d="M248.4,200.7c0,0,9-13.9,10.1-11.6c1.1,2.2,2.6,14.6,2.6,14.6S257,213,248.4,200.7z"/>
	<path d="M267.1,207c0,0,10.9-9.4,12.4-5.6c1.5,3.7-3.4,15-3.4,15S270.9,218.3,267.1,207z"/>
	<path d="M11.4,216c0,0-6.7-10.1-4.9-10.9c1.9-0.7,9.4,1.1,9.4,1.1S18.1,215.3,11.4,216z"/>
	<path d="M23.4,203.3c0,0-1.9-12.7-0.4-13.5c1.5-0.7,11.2,8.6,11.2,8.6S27.9,206.3,23.4,203.3z"/>
	<path d="M42.5,197.3c0,0,3.7-13.1,6.4-12c2.6,1.1,6.4,12,6.4,12S53.7,205.5,42.5,197.3z"/>
</g>
<g>
	<path class="st1" d="M69,217.4l31.5,18.4c0,0-11.2,7.1-31.1,2.6L69,217.4z"/>
	<path class="st1" d="M170.6,241l33.4-16.5l4.9,18C208.9,242.5,193.1,250.4,170.6,241z"/>
	<path class="st2" d="M25.1,144.2c0,0-10.9-6.7,5.6-25.9s39.4-32.2,39.4-32.2c2-1.3,4.4-2.7,7.2-3.9c4.2-1.9,8.1-2.9,11.2-3.6
		c0.2-1.8,0.8-4.3,2-7.1c1.7-3.8,4-6.4,5.5-7.9c0.3-4.3,1-10.5,2.6-17.6c1.8-7.8,2.7-11.7,5.2-13.1c4.8-2.6,14.1,3.1,23.2,13.1
		c0,0,22.5-8.2,37.9,2.6c0,0,22.9-13.5,28.9-9.8c6,3.8,3,32.2,3,32.2s83.6,46.1,79.9,77.2c0,0,1.1,18.4-29.6,7.1
		c0,0,8.2,33.4,6.8,39l-29.6,3.4c0,0,6.4-54.4-44.6-79.9c0,0,19.1-31.5-24-47.2l-18.7,18c0,0-15.7-9-17.6-18.4
		c0,0-46.5,11.6-13.9,47.6l3,2.2c0,0-58.9,19.1-51.7,78l-14-8c0,0-5.6-16.5,6-46.5C48.8,143.5,30.8,150.6,25.1,144.2z"/>
	<path class="st3" d="M118.5,68.5c0,0-30,7.5-25.5,26.6s12.4,22.9,12.4,22.9s-30.7,9-41.6,34.1s-9.4,38.6-9.4,38.6s0.8,5.6,2.2,7.5
		c0,0-21.4-17.6-36.7-6C4.5,203.9,5.3,211.7,5.3,211.7s-1.1,30,32.6,38.2c33.7,8.2,33.7-21.4,33.7-21.4s-1.1-9.4-2.6-11.2
		c-1.5-1.9,33.4,30.4,71.2,28.5s63.4-19.1,63.4-19.1s-1.5,30.7,32.2,29.2s36-35.2,36-35.2s-0.4-23.6-26.2-28.5c0,0-17.6,0-20.6,2.6
		c0.1-9-0.9-22.7-6.8-37.1c-4-9.8-8.7-16.5-10.1-18.4c-3-4.1-5.6-7.7-10.1-11.2c0,0-3.4-2.7-18.4-10.1l0,0c0,0,15.4-15,3-29.2
		s-27-18-27-18l-18.7,18C136.9,88.7,116.6,71.1,118.5,68.5z"/>
	<path class="st4" d="M249.4,222.2c0,0-24.4-8.6-28.5,12s19.5,14.2,19.5,14.2S267.8,238.7,249.4,222.2z"/>
	<path class="st4" d="M22.1,213.2c0,0-16.5,13.1,4.1,27.4s26.6-5.6,26.6-5.6s-0.4-14.6-14.2-19.9C24.8,209.9,22.1,213.2,22.1,213.2z
		"/>
	<path class="st5" d="M120,117.6c0,0,1.9-4.5,2.6-3c0.8,1.5,1.5,4.9,1.5,4.9L120,117.6z"/>
	<path class="st5" d="M151.1,120.6c0,0-0.4-6.4,1.1-6s2.6,3.4,2.6,3.4L151.1,120.6z"/>
	<path class="st5" d="M21,135.6l-3,2.6l3.4,1.5l-3.7,4.9l4.5-1.1l0.4,6.7l4.9-4.1c0,0-0.4,6.4,1.9,6.4s4.9-6.4,4.9-6.4s-4.5-3-6-1.9
		s-3-3-4.5-1.9s1.1-3-0.7-3S23.3,136.4,21,135.6z"/>
	<path class="st5" d="M35.6,145.7c0,0,1.5,4.1,3,4.1s3-4.9,3-4.9S38.3,143.5,35.6,145.7z"/>
	<path class="st5" d="M256.5,156.6c0,0,1.5,6.7,2.6,6.7s3.4-4.9,3.4-4.9S262.5,155.1,256.5,156.6z"/>
	<path class="st5" d="M267,158.1l6.4,4.1c0,0-0.4-5.6-2.2-6S267,158.1,267,158.1z"/>
	<path class="st5" d="M274.1,156.6l3.7,1.9l-1.5-4.5l4.9-1.1l-2.2-3l-2.2-4.9c0,0-1.1,4.1,0,4.5c0,0-2.6,1.1-1.9,2.6
		S272.6,154,274.1,156.6z"/>
	<path class="st5" d="M220.9,197.5c0,0,2.6-15,4.9-13.1c2.2,1.9,8.2,12.7,8.2,12.7S229.5,206.9,220.9,197.5z"/>
	<path class="st5" d="M242.3,196.4c0,0,9-13.9,10.1-11.6c1.1,2.2,2.6,14.6,2.6,14.6S250.9,208.7,242.3,196.4z"/>
	<path class="st5" d="M261,202.7c0,0,10.9-9.4,12.4-5.6c1.5,3.7-3.4,15-3.4,15S264.8,214,261,202.7z"/>
	<path class="st5" d="M5.3,211.7c0,0-6.7-10.1-4.9-10.9c1.9-0.7,9.4,1.1,9.4,1.1S12,211,5.3,211.7z"/>
	<path class="st5" d="M17.3,199c0,0-1.9-12.7-0.4-13.5c1.5-0.7,11.2,8.6,11.2,8.6S21.8,202,17.3,199z"/>
	<path class="st5" d="M36.4,193c0,0,3.7-13.1,6.4-12c2.6,1.1,6.4,12,6.4,12S47.6,201.2,36.4,193z"/>
</g>
</svg>
