<?xml version="1.0" encoding="utf-8"?>
<!-- Generator: Adobe Illustrator 23.0.6, SVG Export Plug-In . SVG Version: 6.00 Build 0)  -->
<svg version="1.1" id="Layer_1" xmlns="http://www.w3.org/2000/svg" xmlns:xlink="http://www.w3.org/1999/xlink" x="0px" y="0px"
	 viewBox="0 0 288 288" style="enable-background:new 0 0 288 288;" xml:space="preserve">
<style type="text/css">
	.st0{opacity:0.5;}
	.st1{fill:#3E3B3A;}
	.st2{fill:#CBC8C7;}
	.st3{fill:#FFFFFF;}
	.st4{fill:#AC9388;}
	.st5{fill:#E1C7C6;}
	.st6{fill:#C7746F;}
	.st7{fill:#F2E3CC;}
	.st8{fill:#90644E;}
	.st9{fill:#AE917E;}
	.st10{fill:#856770;}
</style>
<g class="st0">
	<path d="M147.2,116.4c0,0,13,7,6.5,47s26.5-29.3,26.5-29.3S154.2,104.7,147.2,116.4z"/>
	<path d="M161.7,254.1c0,0-3.3,4.2-0.5,6l4.7-3.3C165.9,256.9,164.9,251.8,161.7,254.1z"/>
	<path d="M231.9,264.3l6,5.6c0,0,1.4-7.9-2.8-11.6c0,0-2.3-8.8-10.7-5.6C216.1,255.9,231.9,264.3,231.9,264.3z"/>
	<path d="M73.4,269.4c-0.9,0.9-2.5,2.8-3.3,5.6c-1.2,4.5,0.4,8.2,0.9,9.2l6.4-5.4c3.1-2.3,3.5-6.3,1.7-8.3
		C77.9,269.2,75.6,268.8,73.4,269.4z"/>
	<path d="M133.3,282.5l3.3,3.7c0.3-0.6,4-9.3-0.2-14.6c-0.6-0.8-2.1-2.6-4.6-3c-2.9-0.4-5,1.4-5.5,1.7
		C126.3,270.4,126.8,278.7,133.3,282.5z"/>
	<path d="M199.4,264.8l7.9,8.8c0,0,3.3-7.9,0-12.6C207.3,261.1,198.4,248,199.4,264.8z"/>
	<path d="M176.6,241.1c0,0-4.7,5.1-8.4,2.8c0,0-8.4,4.2-6.5,10.2c0,0,1.4,3.3,4.2,2.8s6.5-6,12.1-4.7S176.6,241.1,176.6,241.1z"/>
	<path d="M111.9,250.8c0,0,5.6,0.5,7,6c1.4,5.6-1.4,8.8-1.4,8.8L111.9,250.8z"/>
	<path d="M104,229c0,0-2.8,22.3-5.1,27.9c0,0-8.8,7-19.1,5.6c0,0-3.7,3.7-6.5,3.7l-0.5,4.2c0,0,7.4-4.2,6,6.5l-1.9,2.3
		c0,0,5.1,0.9,8.8-5.6l8.8-2.8c0,0,13.5,1.4,15.4,0.9s17.2,7,17.2,7s2.8,3.3,6,3.7c0,0-9.3-7-2.8-13c0,0,5.6,0.5,6,2.8
		c0,0-0.9-6.5-12.1-7.9c0,0-14.4-3.3-11.6-21.4l0.9-25.1L104,229z"/>
	<path d="M168.2,223.4l-1.9,5.1c0,0,10.7,7.9,10.2,12.6c0,0,0,4.7-1.9,5.6c-1.9,0.9,3.3,5.6,3.3,5.6s12.6,2.8,16.7,10.7
		c0,0,2.3,4.7,4.7,1.9c0,0,0-7,2.8-7s5.1,3.3,5.1,3.3s1.9-2.3,0.5-3.7s6-1.9,12.1-0.5c0,0,5.1,7,7.4,7.4c2.3,0.5,4.7,0,4.7,0
		s-6-7-1.9-9.3c4.2-2.3,5.1,3.3,5.1,3.3l-0.9-5.6c0,0-13-2.8-14.9-5.6c0,0-2.3-1.4-7.4,0.5c0,0-15.8,0.9-27.5-15.8
		c-11.6-16.7-11.2-24.7-11.2-24.7L168.2,223.4z"/>
	<path d="M213.8,123.8c2.9,2.3,8.4,7.3,11.5,15.4c5.7,14.9-1,28.4-2.2,30.6c-5.5,8.8-11.1,14.6-14.9,18.1c-3.5,3.2-7.9,6.6-14,8.4
		c-2.4,0.7-3.7,1.1-4.4,0.7C186.7,195.4,189.8,179.8,213.8,123.8z"/>
	<path d="M168.6,145.2c0,0-7.9,14.4-13,17.7c0,0-17.2,37.2-66.1,17.7v6.5c0,0,5.1,13.5,10.7,16.3c0,0-1.4,11.2,2.8,17.2
		c0,0-3.3,5.1-5.6,5.1l6,1.4l-1.9,3.7l5.6-2.8v4.2l3.3-4.7l6.5,7.9l-0.5-7.4c0,0,13-6,13-12.1c0,0,16.3,3.7,29.3-1.4
		c0,0,3.3,6.5,9.3,8.8l-0.5-2.3l5.6,6l0.9-6l7,6l-2.8-7.4c0,0,8.8-10.7,6-15.4c0,0,15.4-10.7,22.3-24.2c7-13.5-0.5-36.3-0.5-36.3
		L168.6,145.2z"/>
	<path d="M154.7,41.9c0,0,0.9-20.9,3.7-23.3l3.7,11.6c0,0,17.7-22.3,21.9-21.4l-6,21.9C177.9,30.8,163.5,45.2,154.7,41.9z"/>
	<path d="M68.6,164.3c0,0-53-26.1-61-19.5c0,0,8.8,23.3,18.1,27c0,0,17.7,9.8,35.8,12.1c0,0-30.7,4.7-28.8,10.2
		c0,0,3.3,4.7,15.4,6.5c0,0,31.2-6.5,41.4-13.5S68.6,164.3,68.6,164.3z"/>
	<path d="M213.8,129.4l-16.3,13.5c0,0,14.4,28.8,9.3,37.2S225.9,163.8,213.8,129.4z"/>
	<path d="M150,71.7l-4.6-15.4c0,0-2.3-7.4,9.3-14.4c0,0,65.1-33,68.4-32.1l-14.9,24.7c0,0,26.1-5.6,27.9-4.2l-3.7,3.3h19.5
		l-28.4,20.9c0,0,29.3,0.5,29.8,1.9c0,0-12.6,5.1-12.6,8.4c0,0,13.5,8.4,34.4,10.7c0,0-11.2,6-46.1,14.9c0,0,6,5.1,8.8,6.5
		l-12.6,1.9c0,0,1.9,17.7,7.4,28.4c0,0-7.9-7.9-8.8-5.6l4.7,21.4c0,0-13-15.4-14.9-13.5l-1.9,18.6l-4.2-8.4c0,0-5.1,30.7-6.5,32.6
		s-1.4,1.9-1.4,1.9s-2.3-26.1-4.7-26.1l-5.1,16.3l-3.7-10.7c0,0-16.7,22.3-20.9,24.2c0,0-0.5-21.9,2.8-36.8l-14.4,9.8
		c0,0,4.2-24.2,9.3-28.4l-11.2,6l4.2-13l-13,1.4c0,0,4.7-9.8,7-9.8h-6l4.7-6L150,71.7z"/>
	<path d="M154.7,89.8c0,0,10.2,8.4,8.4,12.1l5.6,0.9l7-16.3l-21.9-5.1L154.7,89.8z"/>
	<path d="M157.9,65.2c0,0-3.7,4.2-2.8,5.6c0,0-2.3,1.4-9.3,1.4c0,0-13.5,11.2-5.6,22.8c0,0,5.6,7,11.2,6.5c0,0,0.9-22.8,19.1-9.3
		c0,0,1.4,11.6-14,10.7c0,0,4.7,6.5,11.6,4.7c0,0,10.2-6,11.2-21.9c0,0-8.4-8.8-8.4-10.7c0,0-1.4-2.8-3.7-1.4
		C167.2,73.6,161.7,63.3,157.9,65.2z"/>
	<path d="M48.3,139.6c0,0-8-9.8-3.7-13.1c0,0-25.7-31.8-18.7-38.8c0,0,5.1-2.3,8,1.9c0,0-19.2-15.9-12.6-23.4
		c0,0,11.7-5.1,59.9,26.7c0,0-26.7-18.7-19.7-22.5s23.9,8,23.9,8s17.8,0.5,20.1,6.1c2.3,5.6-1.9,47.3-1.9,47.3
		S62.3,152.2,48.3,139.6z"/>
	<path d="M48.3,139.6c0,0,17.8,31.4,41.7,41.7c0,0,25.7,16.4,51.5-1.9s14-52,14-52s-19.2-41.2-50.1-43.1l-8-0.9l1.9,4.7l-4.2-2.3
		l1.4,3.3l-12.2-3.3l6.1,7.5L81,92.8l6.2,6.5l-10.8-4.2l7.5,7l-7-1.4c0,0,12.2,7.5,13.6,14l-20.2-10.2l2.3,5.6l-7-1.4l4.2,5.1
		l-6.6-3.7l4.2,6.6l-14-7l4.2,5.1l-2.3,1.4l4.2,3.7l-8-3.3l4.7,7.5L45,117.5l3.3,7.5l-8.9-5.6c0,0,9.8,12.2,14,15l3.7,8L48.3,139.6z
		"/>
</g>
<g>
	<path class="st1" d="M142,111.1c0,0,13,7,6.5,47s26.5-29.3,26.5-29.3S149,99.4,142,111.1z"/>
	<path class="st2" d="M156.5,248.8c0,0-3.3,4.2-0.5,6l4.7-3.3C160.7,251.6,159.7,246.5,156.5,248.8z"/>
	<path class="st3" d="M226.7,259l6,5.6c0,0,1.4-7.9-2.8-11.6c0,0-2.3-8.8-10.7-5.6C210.9,250.6,226.7,259,226.7,259z"/>
	<path class="st3" d="M68.2,264.1c-0.9,0.9-2.5,2.8-3.3,5.6c-1.2,4.5,0.4,8.2,0.9,9.2l6.4-5.4c3.1-2.3,3.5-6.3,1.7-8.3
		C72.7,263.9,70.4,263.5,68.2,264.1z"/>
	<path class="st3" d="M128.1,277.2l3.3,3.7c0.3-0.6,4-9.3-0.2-14.6c-0.6-0.8-2.1-2.6-4.6-3c-2.9-0.4-5,1.4-5.5,1.7
		C121.1,265.1,121.6,273.4,128.1,277.2z"/>
	<path class="st3" d="M194.2,259.5l7.9,8.8c0,0,3.3-7.9,0-12.6C202.1,255.8,193.2,242.7,194.2,259.5z"/>
	<path class="st4" d="M171.4,235.8c0,0-4.7,5.1-8.4,2.8c0,0-8.4,4.2-6.5,10.2c0,0,1.4,3.3,4.2,2.8s6.5-6,12.1-4.7
		S171.4,235.8,171.4,235.8z"/>
	<path class="st4" d="M106.7,245.5c0,0,5.6,0.5,7,6c1.4,5.6-1.4,8.8-1.4,8.8L106.7,245.5z"/>
	<path class="st5" d="M98.8,223.7c0,0-2.8,22.3-5.1,27.9c0,0-8.8,7-19.1,5.6c0,0-3.7,3.7-6.5,3.7l-0.5,4.2c0,0,7.4-4.2,6,6.5
		l-1.9,2.3c0,0,5.1,0.9,8.8-5.6l8.8-2.8c0,0,13.5,1.4,15.4,0.9s17.2,7,17.2,7s2.8,3.3,6,3.7c0,0-9.3-7-2.8-13c0,0,5.6,0.5,6,2.8
		c0,0-0.9-6.5-12.1-7.9c0,0-14.4-3.3-11.6-21.4l0.9-25.1L98.8,223.7z"/>
	<path class="st5" d="M163,218.1l-1.9,5.1c0,0,10.7,7.9,10.2,12.6c0,0,0,4.7-1.9,5.6c-1.9,0.9,3.3,5.6,3.3,5.6s12.6,2.8,16.7,10.7
		c0,0,2.3,4.7,4.7,1.9c0,0,0-7,2.8-7s5.1,3.3,5.1,3.3s1.9-2.3,0.5-3.7s6-1.9,12.1-0.5c0,0,5.1,7,7.4,7.4c2.3,0.5,4.7,0,4.7,0
		s-6-7-1.9-9.3c4.2-2.3,5.1,3.3,5.1,3.3l-0.9-5.6c0,0-13-2.8-14.9-5.6c0,0-2.3-1.4-7.4,0.5c0,0-15.8,0.9-27.5-15.8
		c-11.6-16.7-11.2-24.7-11.2-24.7L163,218.1z"/>
	<path class="st6" d="M208.6,118.5c2.9,2.3,8.4,7.3,11.5,15.4c5.7,14.9-1,28.4-2.2,30.6c-5.5,8.8-11.1,14.6-14.9,18.1
		c-3.5,3.2-7.9,6.6-14,8.4c-2.4,0.7-3.7,1.1-4.4,0.7C181.5,190.1,184.6,174.5,208.6,118.5z"/>
	<path class="st7" d="M163.4,139.9c0,0-7.9,14.4-13,17.7c0,0-17.2,37.2-66.1,17.7v6.5c0,0,5.1,13.5,10.7,16.3c0,0-1.4,11.2,2.8,17.2
		c0,0-3.3,5.1-5.6,5.1l6,1.4l-1.9,3.7l5.6-2.8v4.2l3.3-4.7l6.5,7.9l-0.5-7.4c0,0,13-6,13-12.1c0,0,16.3,3.7,29.3-1.4
		c0,0,3.3,6.5,9.3,8.8l-0.5-2.3l5.6,6l0.9-6l7,6l-2.8-7.4c0,0,8.8-10.7,6-15.4c0,0,15.4-10.7,22.3-24.2c7-13.5-0.5-36.3-0.5-36.3
		L163.4,139.9z"/>
	<path class="st8" d="M149.5,36.6c0,0,0.9-20.9,3.7-23.3l3.7,11.6c0,0,17.7-22.3,21.9-21.4l-6,21.9
		C172.7,25.5,158.3,39.9,149.5,36.6z"/>
	<path class="st8" d="M63.4,159c0,0-53-26.1-61-19.5c0,0,8.8,23.3,18.1,27c0,0,17.7,9.8,35.8,12.1c0,0-30.7,4.7-28.8,10.2
		c0,0,3.3,4.7,15.4,6.5c0,0,31.2-6.5,41.4-13.5S63.4,159,63.4,159z"/>
	<path class="st1" d="M208.6,124.1l-16.3,13.5c0,0,14.4,28.8,9.3,37.2S220.7,158.5,208.6,124.1z"/>
	<path class="st9" d="M144.8,66.4L140.2,51c0,0-2.3-7.4,9.3-14.4c0,0,65.1-33,68.4-32.1L203,29.2c0,0,26.1-5.6,27.9-4.2l-3.7,3.3
		h19.5l-28.4,20.9c0,0,29.3,0.5,29.8,1.9c0,0-12.6,5.1-12.6,8.4c0,0,13.5,8.4,34.4,10.7c0,0-11.2,6-46.1,14.9c0,0,6,5.1,8.8,6.5
		L220,93.5c0,0,1.9,17.7,7.4,28.4c0,0-7.9-7.9-8.8-5.6l4.7,21.4c0,0-13-15.4-14.9-13.5l-1.9,18.6l-4.2-8.4c0,0-5.1,30.7-6.5,32.6
		s-1.4,1.9-1.4,1.9s-2.3-26.1-4.7-26.1l-5.1,16.3l-3.7-10.7c0,0-16.7,22.3-20.9,24.2c0,0-0.5-21.9,2.8-36.8l-14.4,9.8
		c0,0,4.2-24.2,9.3-28.4l-11.2,6l4.2-13l-13,1.4c0,0,4.7-9.8,7-9.8h-6l4.7-6L144.8,66.4z"/>
	<path class="st10" d="M149.5,84.5c0,0,10.2,8.4,8.4,12.1l5.6,0.9l7-16.3l-21.9-5.1L149.5,84.5z"/>
	<path class="st5" d="M152.7,59.9c0,0-3.7,4.2-2.8,5.6c0,0-2.3,1.4-9.3,1.4c0,0-13.5,11.2-5.6,22.8c0,0,5.6,7,11.2,6.5
		c0,0,0.9-22.8,19.1-9.3c0,0,1.4,11.6-14,10.7c0,0,4.7,6.5,11.6,4.7c0,0,10.2-6,11.2-21.9c0,0-8.4-8.8-8.4-10.7c0,0-1.4-2.8-3.7-1.4
		C162,68.3,156.5,58,152.7,59.9z"/>
	<path class="st5" d="M43.1,134.3c0,0-8-9.8-3.7-13.1c0,0-25.7-31.8-18.7-38.8c0,0,5.1-2.3,8,1.9c0,0-19.2-15.9-12.6-23.4
		c0,0,11.7-5.1,59.9,26.7c0,0-26.7-18.7-19.7-22.5s23.9,8,23.9,8s17.8,0.5,20.1,6.1c2.3,5.6-1.9,47.3-1.9,47.3
		S57.1,146.9,43.1,134.3z"/>
	<path class="st6" d="M43.1,134.3c0,0,17.8,31.4,41.7,41.7c0,0,25.7,16.4,51.5-1.9s14-52,14-52S131.1,80.9,100.2,79l-8-0.9l1.9,4.7
		l-4.2-2.3l1.4,3.3l-12.2-3.3l6.1,7.5l-9.4-0.5L82,94l-10.8-4.2l7.5,7l-7-1.4c0,0,12.2,7.5,13.6,14L65.1,99.2l2.3,5.6l-7-1.4
		l4.2,5.1l-6.6-3.7l4.2,6.6l-14-7l4.2,5.1l-2.3,1.4l4.2,3.7l-8-3.3l4.7,7.5l-11.2-6.6l3.3,7.5l-8.9-5.6c0,0,9.8,12.2,14,15l3.7,8
		L43.1,134.3z"/>
</g>
</svg>
