<?xml version="1.0" encoding="utf-8"?>
<!-- Generator: Adobe Illustrator 23.0.6, SVG Export Plug-In . SVG Version: 6.00 Build 0)  -->
<svg version="1.1" id="Layer_1" xmlns="http://www.w3.org/2000/svg" xmlns:xlink="http://www.w3.org/1999/xlink" x="0px" y="0px"
	 viewBox="0 0 288 288" style="enable-background:new 0 0 288 288;" xml:space="preserve">
<style type="text/css">
	.st0{opacity:0.5;}
	.st1{fill:#A57D70;}
	.st2{fill:#EBEBEE;}
	.st3{fill:#ADB1B9;}
	.st4{fill:#98C2CE;}
	.st5{fill:#E4D8BE;}
	.st6{fill:#71A2B3;}
</style>
<g class="st0">
	<path d="M173.8,99.5c0,0,31.5,24,31.5,62.9s-13.7,60.1-13.7,60.1l-17.2-24.6l-8.6-88.1L173.8,99.5"/>
	<path d="M157.1,112.7l-2.7-2.9l1.7-1.4l17.3-14.6c0,0,1.4,4.6-1.4,13.7s14.3,40,14.3,40s-2.7,17.7-5.4,35.5s13.6,39.5,13.6,39.5
		l-25.1-14.3c0,0-6.8-34.3-2-40C172,162.4,157.1,112.7,157.1,112.7z"/>
	<path d="M125.8,240.2c0,0,4.6,6.9,15.4,6.3c10.9-0.6-2.9-13.2-2.9-13.2L125.8,240.2z"/>
	<path d="M66.3,195c0,0-25.7,18.3-17.2,49.2c0,0-9.7,5.1-9.7,8l8,3.4c0,0-5.7,3.4-3.4,5.1l13.7-0.6c0,0-2.3,2.3-1.1,5.1
		c0,0,30.3-8,33.8-10.3c0,0,5.7-18.3,10.9-18.3L66.3,195z"/>
	<path d="M89.7,113.8c-3.7,3.6-32.3,32.5-27.5,70.4c0.8,6.2,3.4,26.2,19.4,41.8c5.2,5.1,10.5,8.3,14.3,10.3c2.3,1.1,5.6,2.4,9.7,3.4
		c0,0,9.8,2.1,20,0.6c20.6-2.9,45.8-39.5,45.8-39.5s-7.4-20.6-2.9-32.6c4.6-12-10.9-58.3-10.9-58.3S124.1,131,89.7,113.8z"/>
	<path d="M191.6,222.5c5.6-0.9,13.6-3,21.2-8.6c14.4-10.7,12.6-23.7,23.5-28.6c11.2-5.1,28.8,1.4,37.8,14.3
		c12.6,18.2,0.8,39.2,0,40.6c-4.6,8-11,12.1-13.3,13.6c-26.2,16.6-63.9-2.4-67.9-4.4L191.6,222.5z"/>
	<path d="M65.1,65.8c1.7-4.4,3.4-8.8,5.1-13.2c-0.5-3.4-0.9-8.9,1.1-14.9c4.5-13.2,17-19.3,22.9-21.7c5.7-2.3,15.9-5.5,28.5-4.7
		c26.4,1.6,42.5,19.5,46.4,23.6c42.3,43.5-18.9,81.8-18.9,81.8s14.9-7.4,23.5,4.6s15.4,33.8-12.6,52.6c0,0-12.6,14.3-37.2,1.7
		c0,0-6.9-2.3-8.6-0.6s5.1-10.3,8-10.3c0,0,6.3-34.3,20.6-45.2c0,0-25.2,8-54.3-5.7c0,0-24,24.6-25.7,48.1c0,0-12,8.6-48.6-1.1
		c0,0,0.6-5.7,6.3-9.7c0,0,6.3,3.4-2.9-12.6c0,0,4.6-4.6,10.3-3.4c0,0,47.5-26.3,54.9-24.6c-17.4-9-27.1-23.5-24.5-35
		C60,73.1,61.3,69.5,65.1,65.8z"/>
	<path d="M137.2,239.7c0,0-9.7-11.4,10.3-32s38.9,5.1,38.9,5.1s11.4,16,6.3,36.6c-5.1,20.6,2.9,26.3,2.9,26.3s-0.6,4.6-6.3,1.7
		s-10.3,0-10.3,0s-1.7,5.1-5.1,4.6c-3.4-0.6-8.6-9.2-13.7-8c-5.1,1.1-10.9,3.4-10.9,3.4s-1.1-3.4-1.1-5.7
		C148.1,269.4,142.4,239.7,137.2,239.7z"/>
</g>
<g>
	<path class="st1" d="M169.2,94c0,0,31.5,24,31.5,62.9S187,217,187,217l-17.2-24.6l-8.6-88.1L169.2,94"/>
	<path class="st2" d="M152.5,107.2l-2.7-2.9l1.7-1.4l17.3-14.6c0,0,1.4,4.6-1.4,13.7s14.3,40,14.3,40s-2.7,17.7-5.4,35.5
		s13.6,39.5,13.6,39.5l-25.1-14.3c0,0-6.8-34.3-2-40C167.4,156.9,152.5,107.2,152.5,107.2z"/>
	<path class="st3" d="M121.2,234.7c0,0,4.6,6.9,15.4,6.3c10.9-0.6-2.9-13.2-2.9-13.2L121.2,234.7z"/>
	<path class="st4" d="M61.7,189.5c0,0-25.7,18.3-17.2,49.2c0,0-9.7,5.1-9.7,8l8,3.4c0,0-5.7,3.4-3.4,5.1l13.7-0.6
		c0,0-2.3,2.3-1.1,5.1c0,0,30.3-8,33.8-10.3c0,0,5.7-18.3,10.9-18.3L61.7,189.5z"/>
	<path class="st5" d="M85.1,108.3c-3.7,3.6-32.3,32.5-27.5,70.4c0.8,6.2,3.4,26.2,19.4,41.8c5.2,5.1,10.5,8.3,14.3,10.3
		c2.3,1.1,5.6,2.4,9.7,3.4c0,0,9.8,2.1,20,0.6c20.6-2.9,45.8-39.5,45.8-39.5s-7.4-20.6-2.9-32.6c4.6-12-10.9-58.3-10.9-58.3
		S119.5,125.5,85.1,108.3z"/>
	<path class="st6" d="M187,217c5.6-0.9,13.6-3,21.2-8.6c14.4-10.7,12.6-23.7,23.5-28.6c11.2-5.1,28.8,1.4,37.8,14.3
		c12.6,18.2,0.8,39.2,0,40.6c-4.6,8-11,12.1-13.3,13.6c-26.2,16.6-63.9-2.4-67.9-4.4L187,217z"/>
	<path class="st4" d="M60.5,60.3c1.7-4.4,3.4-8.8,5.1-13.2c-0.5-3.4-0.9-8.9,1.1-14.9c4.5-13.2,17-19.3,22.9-21.7
		c5.7-2.3,15.9-5.5,28.5-4.7c26.4,1.6,42.5,19.5,46.4,23.6c42.3,43.5-18.9,81.8-18.9,81.8s14.9-7.4,23.5,4.6s15.4,33.8-12.6,52.6
		c0,0-12.6,14.3-37.2,1.7c0,0-6.9-2.3-8.6-0.6s5.1-10.3,8-10.3c0,0,6.3-34.3,20.6-45.2c0,0-25.2,8-54.3-5.7c0,0-24,24.6-25.7,48.1
		c0,0-12,8.6-48.6-1.1c0,0,0.6-5.7,6.3-9.7c0,0,6.3,3.4-2.9-12.6c0,0,4.6-4.6,10.3-3.4c0,0,47.5-26.3,54.9-24.6
		c-17.4-9-27.1-23.5-24.5-35C55.4,67.6,56.7,64,60.5,60.3z"/>
	<path class="st4" d="M132.6,234.2c0,0-9.7-11.4,10.3-32s38.9,5.1,38.9,5.1s11.4,16,6.3,36.6c-5.1,20.6,2.9,26.3,2.9,26.3
		s-0.6,4.6-6.3,1.7s-10.3,0-10.3,0s-1.7,5.1-5.1,4.6c-3.4-0.6-8.6-9.2-13.7-8c-5.1,1.1-10.9,3.4-10.9,3.4s-1.1-3.4-1.1-5.7
		C143.5,263.9,137.8,234.2,132.6,234.2z"/>
</g>
</svg>
