<?xml version="1.0" encoding="utf-8"?>
<!-- Generator: Adobe Illustrator 23.0.6, SVG Export Plug-In . SVG Version: 6.00 Build 0)  -->
<svg version="1.1" id="Layer_1" xmlns="http://www.w3.org/2000/svg" xmlns:xlink="http://www.w3.org/1999/xlink" x="0px" y="0px"
	 viewBox="0 0 288 288" style="enable-background:new 0 0 288 288;" xml:space="preserve">
<style type="text/css">
	.st0{opacity:0.5;}
	.st1{fill:#7D6854;}
	.st2{fill:#D1BB8E;}
	.st3{fill:#9C946B;}
	.st4{fill:#F4E2A4;}
	.st5{fill:#A35261;}
</style>
<g class="st0">
	<path d="M19.7,82.2l0.9,0.5l63.1,35.6l-8.8,48.5c0,0-13.9,5.2-14.4,7.7C60.5,174.5,12.5,97.6,19.7,82.2z"/>
	<path d="M42.4,277.7c0,0,37.2-78.9,46.4-81.5c9.3-2.6,23.7-3.1,23.7-3.1l9.8,29.9C122.4,223,54.8,292.7,42.4,277.7z"/>
	<path d="M164.2,194.6c21.3,30.1,42.7,60.2,64,90.3c0,0,5.2,1.5,4.1-20.1s-14.4-81-14.4-81l0,0c0,0,0-0.7,0-5.2
		c-10.1-4.8-20.3-9.6-30.4-14.4l-21.7,18.6C165.2,186.7,164.7,190.7,164.2,194.6z"/>
	<path d="M180.2,116.7l101.1-51.1c0,0,6.7,21.2-59.3,102.2L185.9,157L180.2,116.7z"/>
	<path d="M129.1,93c0,0,13.4-87.7,19.6-87.2s8.8,7.7,8.8,7.7l25.3,77.9l-20.6,11.4L129.1,93z"/>
	<path d="M19.7,82.2c0,0,5.2-5.2,17-1.5s48.5,10.8,48.5,10.8l11.9,19.1l-13.4,7.7L19.7,82.2z"/>
	<path d="M99.7,87.3c0,0,37.7-82.6,49-81.5L129.1,93L109,99.2l-11.4-7.7L99.7,87.3z"/>
	<path d="M180.2,116.7L173,111l16-21.2c0,0,81-36.1,92.4-24.3L180.2,116.7z"/>
	<path d="M171.9,205l-15-9.8l-25.8,7.2l5.2,19.6c0,0,79.5,71.7,91.8,63L171.9,205z"/>
	<path d="M59.4,172.4c0,0-28.9,97.5-17,105.3c15.3-28.2,30.6-56.4,45.9-84.6c0.5-7.7,1-15.5,1.5-23.2l-15-3.1L59.4,172.4z"/>
	<path d="M87.3,204.4c0,0,10.8-6.2,12.4-8.8c0,0,11.4,5.7,15.5,6.2c0,0,2.1,23.7,7.2,24.3h18.1l-4.6-6.2l2.1-16c0,0,15.5,0,17-3.6
		l11.9,6.2l-25.3-35.1c0,0-22.2,7.2-27.3,0L87.3,204.4z"/>
	<path d="M150.2,163.7l26.8,34.1l-3.1-7.7c0,0,15-13.9,15-18.1c0,0,28.4,7.2,28.9,11.9c0,0,6.7-6.2,4.1-16L193,157.1l9.3-1
		l-44.9-5.7C157.5,150.3,153.9,163.2,150.2,163.7z"/>
	<path d="M87.3,204.4l-10.8-7.2l6.7-16.5c0,0-11.9-19.1-11.4-22.2l-6.7-1L63,146.1l8.8-4.1c0,0,10.8-31.5,16.5-31.5l-4.6-23.2
		c0,0,9.8-6.7,12.4-6.2L108,95.5c0,0,29.9-8.8,48.5,3.1l22.2-15.5l10.3,6.7l-10.8,22.7c0,0,15.5,17.5,16,27.9l10.3,3.1l-2.1,12.4
		l-44.9-5.7c0,0-4.6,13.4-7.2,13.4l26.8,34.1l-10.3,8.8l-25.3-35.1c0,0-19.6,8.3-27.3,0L87.3,204.4z"/>
	<circle cx="127.8" cy="145.4" r="23.5"/>
</g>
<g>
	<path class="st1" d="M14.7,77.3l0.9,0.5l63.1,35.6l-8.8,48.5c0,0-13.9,5.2-14.4,7.7C55.5,169.6,7.5,92.7,14.7,77.3z"/>
	<path class="st1" d="M37.4,272.8c0,0,37.2-78.9,46.4-81.5c9.3-2.6,23.7-3.1,23.7-3.1l9.8,29.9C117.4,218.1,49.8,287.8,37.4,272.8z"
		/>
	<path class="st1" d="M159.2,189.7c21.3,30.1,42.7,60.2,64,90.3c0,0,5.2,1.5,4.1-20.1s-14.4-81-14.4-81l0,0c0,0,0-0.7,0-5.2
		c-10.1-4.8-20.3-9.6-30.4-14.4l-21.7,18.6C160.2,181.8,159.7,185.8,159.2,189.7z"/>
	<path class="st1" d="M175.2,111.8l101.1-51.1c0,0,6.7,21.2-59.3,102.2l-36.1-10.8L175.2,111.8z"/>
	<path class="st1" d="M124.1,88.1c0,0,13.4-87.7,19.6-87.2s8.8,7.7,8.8,7.7l25.3,77.9l-20.6,11.4L124.1,88.1z"/>
	<path class="st2" d="M14.7,77.3c0,0,5.2-5.2,17-1.5s48.5,10.8,48.5,10.8l11.9,19.1l-13.4,7.7L14.7,77.3z"/>
	<path class="st2" d="M94.7,82.4c0,0,37.7-82.6,49-81.5l-19.6,87.2L104,94.3l-11.4-7.7L94.7,82.4z"/>
	<path class="st2" d="M175.2,111.8l-7.2-5.7l16-21.2c0,0,81-36.1,92.4-24.3L175.2,111.8z"/>
	<path class="st2" d="M166.9,200.1l-15-9.8l-25.8,7.2l5.2,19.6c0,0,79.5,71.7,91.8,63L166.9,200.1z"/>
	<path class="st2" d="M54.4,167.5c0,0-28.9,97.5-17,105.3c15.3-28.2,30.6-56.4,45.9-84.6c0.5-7.7,1-15.5,1.5-23.2l-15-3.1
		L54.4,167.5z"/>
	<path class="st3" d="M82.3,199.5c0,0,10.8-6.2,12.4-8.8c0,0,11.4,5.7,15.5,6.2c0,0,2.1,23.7,7.2,24.3h18.1l-4.6-6.2l2.1-16
		c0,0,15.5,0,17-3.6l11.9,6.2l-25.3-35.1c0,0-22.2,7.2-27.3,0L82.3,199.5z"/>
	<path class="st3" d="M145.2,158.8l26.8,34.1l-3.1-7.7c0,0,15-13.9,15-18.1c0,0,28.4,7.2,28.9,11.9c0,0,6.7-6.2,4.1-16L188,152.2
		l9.3-1l-44.9-5.7C152.5,145.4,148.9,158.3,145.2,158.8z"/>
	<path class="st4" d="M82.3,199.5l-10.8-7.2l6.7-16.5c0,0-11.9-19.1-11.4-22.2l-6.7-1L58,141.2l8.8-4.1c0,0,10.8-31.5,16.5-31.5
		l-4.6-23.2c0,0,9.8-6.7,12.4-6.2L103,90.6c0,0,29.9-8.8,48.5,3.1l22.2-15.5l10.3,6.7l-10.8,22.7c0,0,15.5,17.5,16,27.9l10.3,3.1
		l-2.1,12.4l-44.9-5.7c0,0-4.6,13.4-7.2,13.4l26.8,34.1l-10.3,8.8l-25.3-35.1c0,0-19.6,8.3-27.3,0L82.3,199.5z"/>
	<circle class="st5" cx="122.8" cy="140.5" r="23.5"/>
</g>
</svg>
