<?xml version="1.0" encoding="utf-8"?>
<!-- Generator: Adobe Illustrator 23.0.6, SVG Export Plug-In . SVG Version: 6.00 Build 0)  -->
<svg version="1.1" id="Layer_1" xmlns="http://www.w3.org/2000/svg" xmlns:xlink="http://www.w3.org/1999/xlink" x="0px" y="0px"
	 viewBox="0 0 288 288" style="enable-background:new 0 0 288 288;" xml:space="preserve">
<style type="text/css">
	.st0{opacity:0.5;}
	.st1{fill:#686774;}
	.st2{fill:#BBBDD7;}
	.st3{fill:#F8E9B3;}
	.st4{fill:#A89573;}
	.st5{fill:#D08A8C;}
</style>
<g class="st0">
	<path d="M70.8,127.5c0,0-32.6-89.9-25.7-92.6s66.4,34.8,66.4,34.8l12.3-1.6l50.8-3.2c0,0,76.5-43.9,84.5-35.9
		c8,8-41.7,94.7-41.7,94.7l35.9,50.8c5.5,9,10,16.3,13.1,21.1c6.7,10.8,8.3,13.2,11.6,19c3.3,5.8,8,15,8,15l0,0
		c0,0-3.2,6.4-12.9,5.4c-9.6-1.1-62-9.6-62-9.6L166.7,241c0,0-12.3,36.4-24.6,32.6c-12.3-3.8-24.1-40.1-24.1-40.1l-44.4-4.9
		c0,0-63.7,10.7-68,5.8c-4.3-4.9,49.3-58.4,49.3-58.4L70.8,127.5z"/>
	<path d="M101.2,101.8c0,0,33.2-86.1,49.3-87.8s29.9,80.3,37.5,85.1c7.5,4.9,87.2,57.3,88.8,69.1l-3.8,5.4l-58.9,9.6
		c0,0,16.5,93.2,15.6,94.7s-15,0.5-15,0.5s-66.9-53.5-70.7-53c-3.8,0.5-12.9,4.3-12.9,4.3s-45,41.7-47.7,46.6
		c-2.7,4.9-12.9,2.7-12.9,2.7l-3.8-6.4l13.4-87.8c0,0-60.4-5.8-61.5-11.8c-1.1-5.8,18.7-21.4,18.7-21.4s46.6-38,60.4-40.6
		L101.2,101.8z"/>
	<path d="M67,158.5v-9.6l17.1-4.9l12.3-21.9l-10.7-18.7c0,0-2.2-9.1,7.5-9.1l16.1,12.9l16.1-8l7.5-32.1l10.7-0.5l3.2,29.4l21.4,9.1
		L188,91.2l9.1,6.4L182,117.9l13.9,20.9l20.9,3.2l-2.2,13.9l-19.2,3.2l-15,25.7l9.1,16.1l-5.8,7.5l-17.6-11.2l-19.8,9.1l-2.2,25.2
		l-13.5,0.5c0,0-8-24.1-4.9-26.8l-19.2-9.1l-17.1,13.9l-8.5-7.5l13.9-20.9L86.2,160L67,158.5z"/>
	<polygon points="89.5,209.9 109.2,183.2 114.6,199.2 106.5,196 	"/>
	<path d="M140.8,190.6c0,0,0,36.4,3.2,40.6l2.2-25.2L140.8,190.6z"/>
	<path d="M167,174.1l22.5,26.8l-9.1-16.1l3.8-5.4C184.1,179.4,166.5,170.9,167,174.1z"/>
	<path d="M176.1,153.2c0,0,37.5,1.1,38.5,2.7l-19.2,3.2L176.1,153.2z"/>
	<polygon points="169.7,121 194.8,100.2 182,117.9 184.1,121 	"/>
	<polygon points="140.1,104.6 143.9,69.3 147.7,95 	"/>
	<polygon points="100.7,121 85.7,103.4 96.4,122.1 	"/>
	<polygon points="109.8,112.5 93.2,94.3 109.2,107.2 	"/>
	<polygon points="70.8,159.1 94.8,154.8 86.2,160.2 	"/>
	<path d="M96.9,136.6l18.7-24.6c0,0,28.9-3.2,32.1-1.6c3.2,1.6,23,20.3,23,20.3v33.7l-22.5,20.8l-31,0.5c0,0-19.8-18.2-19.2-21.9
		C98.6,160.2,96.9,136.6,96.9,136.6z"/>
</g>
<g>
	<path class="st1" d="M66,122.1c0,0-32.6-89.9-25.7-92.6c6.9-2.7,66.4,34.8,66.4,34.8l12.3-1.6l50.8-3.2c0,0,76.5-43.9,84.5-35.9
		c8,8-41.7,94.7-41.7,94.7l35.9,50.8c5.5,9,10,16.3,13.1,21.1c6.7,10.8,8.3,13.2,11.6,19c3.3,5.8,8,15,8,15l0,0
		c0,0-3.2,6.4-12.9,5.4c-9.6-1.1-62-9.6-62-9.6l-44.4,15.6c0,0-12.3,36.4-24.6,32.6c-12.3-3.8-24.1-40.1-24.1-40.1l-44.4-4.9
		c0,0-63.7,10.7-68,5.8c-4.3-4.9,49.3-58.4,49.3-58.4L66,122.1z"/>
	<path class="st2" d="M96.4,96.5c0,0,33.2-86.1,49.3-87.8s29.9,80.3,37.5,85.1c7.5,4.9,87.2,57.3,88.8,69.1l-3.8,5.4l-58.9,9.6
		c0,0,16.5,93.2,15.6,94.7c-1,1.6-15,0.5-15,0.5s-66.9-53.5-70.7-53c-3.8,0.5-12.9,4.3-12.9,4.3s-45,41.7-47.7,46.6
		c-2.7,4.9-12.9,2.7-12.9,2.7l-3.8-6.4l13.4-87.8c0,0-60.4-5.8-61.5-11.8c-1.1-5.8,18.7-21.4,18.7-21.4s46.6-38,60.4-40.6L96.4,96.5
		z"/>
	<path class="st3" d="M62.2,153.2v-9.6l17.1-4.9l12.3-21.9L81,98.1c0,0-2.2-9.1,7.5-9.1l16.1,12.9l16.1-8l7.5-32.1l10.7-0.5
		l3.2,29.4l21.4,9.1l19.8-13.9l9.1,6.4l-15.1,20.2l13.9,20.9l20.9,3.2l-2.2,13.9l-19.2,3.2l-15,25.7l9.1,16.1l-5.8,7.5l-17.6-11.2
		l-19.8,9.1l-2.2,25.2l-13.5,0.5c0,0-8-24.1-4.9-26.8l-19.2-9.1l-17.1,13.9l-8.5-7.5L90,176l-8.5-21.4L62.2,153.2z"/>
	<polygon class="st4" points="84.7,204.6 104.5,177.8 109.8,193.9 101.8,190.6 	"/>
	<path class="st4" d="M136.1,185.3c0,0,0,36.4,3.2,40.6l2.2-25.2L136.1,185.3z"/>
	<path class="st4" d="M162.2,168.7l22.5,26.8l-9.1-16.1l3.8-5.4C179.4,174.1,161.7,165.5,162.2,168.7z"/>
	<path class="st4" d="M171.3,147.8c0,0,37.5,1.1,38.5,2.7l-19.2,3.2L171.3,147.8z"/>
	<polygon class="st4" points="164.9,115.7 190.1,94.9 177.3,112.5 179.4,115.7 	"/>
	<polygon class="st4" points="135.4,99.2 139.1,64 142.9,89.6 	"/>
	<polygon class="st4" points="95.9,115.7 81,98.1 91.7,116.8 	"/>
	<polygon class="st4" points="105,107.2 88.4,88.9 104.5,101.8 	"/>
	<polygon class="st4" points="66,153.7 90.1,149.5 81.5,154.8 	"/>
	<path class="st5" d="M92.2,131.2l18.7-24.6c0,0,28.9-3.2,32.1-1.6s23,20.3,23,20.3v33.7l-22.5,20.8l-31,0.5
		c0,0-19.8-18.2-19.2-21.9C93.9,154.8,92.2,131.2,92.2,131.2z"/>
</g>
</svg>
