<?xml version="1.0" encoding="utf-8"?>
<!-- Generator: Adobe Illustrator 23.0.6, SVG Export Plug-In . SVG Version: 6.00 Build 0)  -->
<svg version="1.1" id="Layer_1" xmlns="http://www.w3.org/2000/svg" xmlns:xlink="http://www.w3.org/1999/xlink" x="0px" y="0px"
	 viewBox="0 0 288 288" style="enable-background:new 0 0 288 288;" xml:space="preserve">
<style type="text/css">
	.st0{opacity:0.5;}
	.st1{fill:#373435;}
	.st2{fill:#4A4E58;}
	.st3{fill:#657E9A;}
	.st4{fill:#73A2BD;}
	.st5{fill:#DC8C7B;}
</style>
<g class="st0">
	<polygon points="111.1,118.6 86,136.1 88,179.7 132.1,192 201.9,185.8 222.9,173.5 221.9,119.7 220.3,109.4 185,114.5 171.1,89.4 
		147,98.6 140.9,112.5 	"/>
	<path d="M102.4,105.1c0,0,7.2-17.5-16-22.4c0,0-11.2,9.7,6.4,23.6L102.4,105.1z"/>
	<path d="M96.8,74.3c0,0,13.5,5.2,15.3,9.4c0,0,7.2-22,9.9-22C121.9,61.7,100.3,60.7,96.8,74.3z"/>
	<path d="M222.7,140.2c0,0-11.6,12.9,16.2,32.3C238.9,172.5,251.7,153.9,222.7,140.2z"/>
	<path d="M246,117.6c0,0-6.7,12.3-9.7,12.3l-1.5,3.1c0,0,16.4,7.2,16.9,10.8C251.6,143.8,259.8,125.8,246,117.6z"/>
	<path d="M252.7,163.3c-0.7,0.6-2.5,2.5-3.1,5.6c-0.5,2.6,0.2,4.7,0.5,5.6c0,0,2.8,0.4,5.9,0.5c3.9,0.2,6.9,0.1,7.4-1
		C264,172.8,262.1,170,252.7,163.3z"/>
	<path d="M232.7,186.8c0,0,6.6,11.7,5.9,15.4c0,0,6.6-7.3,7.3-11.7C245.8,190.5,234.9,188.3,232.7,186.8z"/>
	<path d="M207.2,186.1c0,0,15.4,4,18.1,18.2l-6,6.5C219.3,210.7,210.8,185.2,207.2,186.1z"/>
	<path d="M169.1,224.8c0,0,6.3,12.2,1.3,16.4c0,0,20.3-3.6,20.3-8.5C190.6,232.7,170.3,228.4,169.1,224.8z"/>
	<path d="M106.4,195.3c0,0-3.6,15.5,8.4,19.4c0,0,10.8-7.7,13.2-11.6C128,203,111.2,192.1,106.4,195.3z"/>
	<path d="M101.6,188.9c0,0-13.4,24.7,11.8,42.6l-3.9,3c0,0-20.5-26.9-26.8-26.2C82.6,208.3,81.1,191.9,101.6,188.9z"/>
	<path d="M65,161.5c0,0,7.8,3.6,7.8,10.9c0,0,7.8-7.3,8.6-16.4C81.4,156.1,65.7,164.3,65,161.5z"/>
	<path d="M51.3,172.9c0,0,14.8,1.5,14.1,8.3c0,0-2.2,7.5-5.9,5.3C59.5,186.4,52.8,178.9,51.3,172.9z"/>
	<path d="M39.5,184.3c0,0-10.9,4.1,1.3,20.5l4.5-7.6C45.3,197.2,40.1,187.2,39.5,184.3z"/>
	<path d="M31.1,117c0,0-2.6,8.1,2.6,12.4c0,0,6.7-13,8.7-11.2c0,0,4.6-13.6,6.7-12.4C49.1,105.8,39.8,107.7,31.1,117z"/>
	<path d="M121.4,60.7c0,0,6.3,9.4,4,14.7c0,0,16.1-1.3,22.5,16.1C147.9,91.5,157.7,69.4,121.4,60.7z"/>
	<path d="M190.7,195.6c0,0-2.9,14.2-9.4,14.7c0,0,17.3,8.4,23.1,2.6C204.4,212.9,204.4,199.8,190.7,195.6z"/>
	<path d="M98.3,72c0,0,29.8,7.7,20.9,39.5l-18.5-2.4c0,0,5.4-20.6-11.9-21.8C88.7,87.3,86.4,81.4,98.3,72z"/>
	<path d="M99.3,122.7c0,0,0.5,4.1-1,5.1c0,0,11.3-2.1,12.3-5.6C111.6,118.6,99.3,122.7,99.3,122.7z"/>
	<path d="M57.8,72.5c0,0-25.6-2.1-27.7,25.6c0,0,12.8-11.8,25.1-9.2c0,0,3.1-7.2,6.2-7.2L57.8,72.5z"/>
	<path d="M16.2,136.1c0,0-20.5,24.6,4.1,47.7c0,0-0.5,20,15.9,27.7l3.6-9.2c0,0-9.7-11.3-1-17.9c0,0-19.5-39,24.1-67.2
		c-0.2-2.7-0.7-6.1-2.1-9.7c-0.5-1.3-1-2.5-1.5-3.6c-4.7-2.3-10.2-1.4-13.8,2.1c-3.2,3.1-4.4,7.9-3.1,12.3c0,0-7.7,2.1-8.7,9.2
		c0,0-4.1-7.7-2.6-10.3c0,0-12.3,11.3-9.7,20.5C19.7,137.1,18,136.6,16.2,136.1z"/>
	<path d="M114.2,196.1c0,0-3.6,11.8,3.6,15.4c0,0-8.2,10.3-13.3,10.3c0,0-16.9-13.8-7.7-29.2C96.8,192.5,108.6,188.4,114.2,196.1z"
		/>
	<path d="M103.9,230.9h5.8c0,0,12.2,15.6,30.1,18.3c0,0-19.9,9.8-30.8,3.9C109.1,253.1,108.4,236.2,103.9,230.9z"/>
	<path d="M141.9,248.9c0,0-10.8,11.8-5.6,15.9c5.1,4.2,13.3,0,13.3,0s10.8-7.6,11.3-11.1C160.9,253.7,141.9,250.3,141.9,248.9z"/>
	<path d="M189.6,250.9c0,0,17.9,12.7,21.5,5.5c0,0-3.6-8.9-7.8-11.6C203.3,244.8,191.4,254.8,189.6,250.9z"/>
	<path d="M151.1,190.4c0,0,7.7,23.9,11.5,23.9c0,0-12.3,19.4-32.3,9.1C130.3,223.4,146.4,193.7,151.1,190.4z"/>
	<path d="M113.2,236.1c0,0,43.6,40.5,91.3,9.7c0,0,33.3-29.7,0-63.1c0,0-8.2-7.2-19.5-4.1l-2.6,4.1c0,0,8.7,6.7,7.7,13.8
		c0,0,24.6,17.4-2.6,35.9s-35.9,5.6-35.9,5.6s-21,2.1-28.2-6.7C123.4,231.5,114.7,237.6,113.2,236.1z"/>
	<path d="M240.9,81.7c0,0,30.3,0,35.9,39c0,0-16.9-19.2-28.7-19.8C248,100.9,245,83.9,240.9,81.7z"/>
	<path d="M246,117.6c2.1,8.1,4,16.9,5.6,26.2c1,5.8,1.9,11.5,2.6,16.9c2.5-0.9,6.8-2.9,10.7-7c6.3-6.6,7.5-14.4,7.8-17.1
		C272.7,136.6,258.8,117.1,246,117.6z"/>
	<path d="M222.4,203.3c0,0,1,9.7-3.1,13.3c0,0,2.1-9.2-1-10.8L222.4,203.3z"/>
	<path d="M170.1,225.8c0,0,4.6,8.7,1,13.8c0,0-7.7,6.7-19.5-1.5C151.6,238.1,169.6,229.9,170.1,225.8z"/>
	<path d="M76.2,66.8c0,0-7.2-14.4-4.6-23.6s-9.2,0-9.2,0s-16.9,19-1,38.5c0,0,5.1-4.6,6.7-3.1L76.2,66.8z"/>
	<path d="M54.7,139.7c-2.6,1.2-5.9,3.4-8.2,7.2c-4.5,7.5-2.9,18.4,4.1,27.2c3.3-2.6,7.4-5.5,12.3-8.2c6.5-3.5,12.5-5.8,17.4-7.2
		c0-3.1-0.1-6.5-0.4-10c-0.8-8.7-2.7-16.2-4.7-22.3C68.4,130.8,61.5,135.2,54.7,139.7z"/>
	<path d="M85.5,125.8l6.7,9.7c1.4-1.3,2.9-2.6,4.4-3.9c4.7-4.4,9.1-8.7,13.1-13C101.5,121,93.5,123.4,85.5,125.8z"/>
	<path d="M51.1,156.6c0,0,22.6,6.2,24.1,13.3c0,0-7.2,11.3-12.3,11.8c0,0-5.1-7.7-9.7-5.6C53.2,176.1,47.5,170.9,51.1,156.6z"/>
	<path d="M128,75.1c0,0-10.9,6.4-11.5,18.5s-1.8,13.8-1.8,13.8s8.5,1.1,10.9-2.1c0,0,4.8-5.3,0.6-12.2C122,86.2,128,75.1,128,75.1z"
		/>
	<path d="M96.2,51.7c0,0,18.5-26.7,39-19s29.7,22.1,29.7,22.1s22.1-21,40.5-11.8s23.1,28.7,23.1,28.7s-21-8.2-21.5-5.6
		c0,0-16.9-17.9-46.7-4.1C160.3,62,142.4,37.9,96.2,51.7z"/>
	<path d="M135.2,222.2c0,0,8.2,9.2,21.5-7.2c0,0,6.2,9.2,13.3,10.8c5.4,16.7,0.9,22.6-0.5,24.1c-8.1,8.8-32.5,3.8-60.5-15.4
		c2.9-2.7,7.7-6.5,14.4-9.2C127.9,223.5,132,222.6,135.2,222.2z"/>
	<path d="M94.7,106.3c0,0-21-24.6,16.9-41.5c0,0,41-4.1,36.4,23.6l2.1,15.9c0,0,25.6,2.6,14.9-35.9c0,0-10.3-29.2-54.9-22.6
		s-42.6,42-42.6,42s1.6,19.6,9.8,22.6L94.7,106.3z"/>
	<path d="M156.2,62.7c0,0,12.8-12.3,30.8-7.2c17.9,5.1,20,8.7,20,8.7s16.9,0,21.5,5.6c0,0,20.5,7.2,19.5,29.7c0,0,42,7.2,36.4,49.7
		c0,0,0,12.8-16.4-17.9c-4.6-3.8-11.8-8.6-21.5-10.8c-2.3-0.5-4.6-0.9-6.7-1c-1.7-0.2-3.3,0.6-3.9,1.9c-0.8,1.7,0.2,4.4,2.9,5.3
		c-9.9,11.7-13.7,24.6-9,33.2c1.9,3.3,4.5,5.4,6.9,6.8c19.5,11.3,30.8,5.6,30.8,5.6c2.6,0.9,5.3,2.3,5.8,4.6
		c1.1,5-8.9,12.6-18.6,14.9c-10.8,2.6-23.2-1-30.8-8.2c-5.6-5.4-11.3-15.4-11.3-15.4l0,0c0,0-5.6-20.5,3.1-34.9c0,0,5.1-10.8,0-16.9
		c0,0-35.4,20.5-48.2-12.8l-2.1-20L156.2,62.7z"/>
	<path d="M197.8,84.8c0,0,3.1,12.3-4.1,16.9C193.7,101.7,176.8,93,197.8,84.8z"/>
	<path d="M214.7,84.3c0,0,4.1,13.8-1.5,17.9l15.9-3.1C229.1,99.2,226,84.8,214.7,84.3z"/>
	<path d="M119.8,63.3c0,0-13.3,3.6-12.3,14.4c0,0,13.3,11.8,10.8,16.4c0,0,5.6-19.5,9.7-17.9C128,76.1,132.7,67.4,119.8,63.3z"/>
	<path d="M234.7,133c0,0,35.9,8.2,15.4,41.5l-13.3-7.7c0,0,1.5-14.9-7.2-20.5C220.9,140.7,234.7,133,234.7,133z"/>
	<path d="M212.7,191.5c1.2,0,3.1,0.3,4.8,1.3c4.6,2.8,6.5,9.6,4.4,12c-1.9,2.2-6.4-0.3-7.7,1.5c-1.2,1.8,1.5,6,5.1,10.3
		c3.6-1,7.2-2.1,10.8-3.1l8.2-9.2c0,0,0.5-12.8-3.6-16.4c0,0-11.3-3.6-22.1-19.5c0,0-13.3,7.2-12.8,11.8
		C199.8,180.2,201.9,190.4,212.7,191.5z"/>
	<path d="M55.2,88.9c0,0-36.9-6.2-39,47.2c0,0,2.6,10.8,5.1,1.5c0,0,0.5-23.1,27.7-29.7l6.7-2.1c0,0,3.6,8.7,7.2,11.3
		c0,0-53.3,20.5-19.5,78.5c0,0-23.6,25.6,3.1,44.1c0,0-3.1-33.8,20-36.4c0,0,11.8-1,17.9,2.6c0,0,6.7-28.7,39-3.6
		c0,0-10.3,19.5-23.6,19s-2.1,0-2.1,0l10.3,17.4l15.4-7.2c0,0,14.9-7.7,19-24.6c0,0,3.1-10.8,6.7-10.8c0,0,4.6,33.3,38.5,36.4
		c1.8-0.9,4.3-2.3,6.5-4.7c5.2-5.4,6.1-11.9,6.3-14.3c-1.8,0.3-4,0.5-6.6,0.3c-4.5-0.4-8-1.7-10.3-2.8c0,0,15.9-15.4-1-28.2
		c0,0-14.4-17.4-33.3-8.7c-19,8.7-17.9,12.8-17.9,12.8s-20-19-41.5-10.3c0,0,19.5-25.1,2.6-41l-6.7-9.7l-14.4,6.7
		c0,0,24.6,30.3-12.3,52.8c0,0-26.2-26.7,8.7-51.8c0,0,32.3-13.3,38.5-12.8c0,0,37.4,12.8,41.5-6.2s0.5-26.2,0.5-26.2
		c-0.4-1.5-2.4-7.6-8.7-11.3c-4.5-2.7-8.9-2.7-10.8-2.6c-1.2,1-3,2.8-4.1,5.6c-2.5,6.6,1.6,12.6,2.1,13.3c0,0,5.6,21-25.6,11.8
		c0,0-16.4-0.5-23.6,5.1c0,0-12.3-17.9-7.2-31.8C70.1,78.6,56.2,77.1,55.2,88.9z"/>
	<path d="M248.5,119.2c-1.8,2.2-4.1,4.7-7.2,7.2c-1.8,1.4-3.5,2.6-5.1,3.6l-2.6-14.9c1.3-0.4,3.1-0.8,5.4-0.6
		C244.3,114.8,247.6,118.1,248.5,119.2z"/>
	<path d="M243.9,190.4l-5.1,8.2l-4.1,6.7l22.1-11.3l12.3,2.6c0,0,5.1-7.2,0.5-12.8C269.6,183.8,255.2,194.5,243.9,190.4z"/>
	<path d="M63.9,202.7c0,0-29.2,7.7-14.9,46.2s45.6,32.8,45.6,32.8s30.3-6.2,13.3-43.1s-26.2-33.8-26.2-33.8S70.1,199.1,63.9,202.7z"
		/>
	<path d="M269.1,196.6c0,0-19-14.4-39,16.9c0,0-20.5-1-17.9,23.6c0,0,2.1,12.8,9.2,14.4c0,0-1.5,33.8,34.4,14.9s21.5-58,21.5-58
		S274.2,198.1,269.1,196.6z"/>
</g>
<g>
	<polygon class="st1" points="105.8,114.2 80.7,131.7 82.7,175.3 126.8,187.6 196.6,181.4 217.6,169.1 216.6,115.3 215,105 
		179.7,110.1 165.8,85 141.7,94.2 135.6,108.1 	"/>
	<path class="st2" d="M97.1,100.7c0,0,7.2-17.5-16-22.4c0,0-11.2,9.7,6.4,23.6L97.1,100.7z"/>
	<path class="st2" d="M91.5,69.9c0,0,13.5,5.2,15.3,9.4c0,0,7.2-22,9.9-22C116.6,57.3,95,56.3,91.5,69.9z"/>
	<path class="st2" d="M217.4,135.8c0,0-11.6,12.9,16.2,32.3C233.6,168.1,246.4,149.5,217.4,135.8z"/>
	<path class="st2" d="M240.7,113.2c0,0-6.7,12.3-9.7,12.3l-1.5,3.1c0,0,16.4,7.2,16.9,10.8C246.3,139.4,254.5,121.4,240.7,113.2z"/>
	<path class="st2" d="M247.4,158.9c-0.7,0.6-2.5,2.5-3.1,5.6c-0.5,2.6,0.2,4.7,0.5,5.6c0,0,2.8,0.4,5.9,0.5c3.9,0.2,6.9,0.1,7.4-1
		C258.7,168.4,256.8,165.6,247.4,158.9z"/>
	<path class="st2" d="M227.4,182.4c0,0,6.6,11.7,5.9,15.4c0,0,6.6-7.3,7.3-11.7C240.5,186.1,229.6,183.9,227.4,182.4z"/>
	<path class="st2" d="M201.9,181.7c0,0,15.4,4,18.1,18.2l-6,6.5C214,206.3,205.5,180.8,201.9,181.7z"/>
	<path class="st2" d="M163.8,220.4c0,0,6.3,12.2,1.3,16.4c0,0,20.3-3.6,20.3-8.5C185.3,228.3,165,224,163.8,220.4z"/>
	<path class="st2" d="M101.1,190.9c0,0-3.6,15.5,8.4,19.4c0,0,10.8-7.7,13.2-11.6C122.7,198.6,105.9,187.7,101.1,190.9z"/>
	<path class="st2" d="M96.3,184.5c0,0-13.4,24.7,11.8,42.6l-3.9,3c0,0-20.5-26.9-26.8-26.2C77.3,203.9,75.8,187.5,96.3,184.5z"/>
	<path class="st2" d="M59.7,157.1c0,0,7.8,3.6,7.8,10.9c0,0,7.8-7.3,8.6-16.4C76.1,151.7,60.4,159.9,59.7,157.1z"/>
	<path class="st2" d="M46,168.5c0,0,14.8,1.5,14.1,8.3c0,0-2.2,7.5-5.9,5.3C54.2,182,47.5,174.5,46,168.5z"/>
	<path class="st2" d="M34.2,179.9c0,0-10.9,4.1,1.3,20.5l4.5-7.6C40,192.8,34.8,182.8,34.2,179.9z"/>
	<path class="st2" d="M25.8,112.6c0,0-2.6,8.1,2.6,12.4c0,0,6.7-13,8.7-11.2c0,0,4.6-13.6,6.7-12.4
		C43.8,101.4,34.5,103.3,25.8,112.6z"/>
	<path class="st2" d="M116.1,56.3c0,0,6.3,9.4,4,14.7c0,0,16.1-1.3,22.5,16.1C142.6,87.1,152.4,65,116.1,56.3z"/>
	<path class="st2" d="M185.4,191.2c0,0-2.9,14.2-9.4,14.7c0,0,17.3,8.4,23.1,2.6C199.1,208.5,199.1,195.4,185.4,191.2z"/>
	<path class="st3" d="M93,67.6c0,0,29.8,7.7,20.9,39.5l-18.5-2.4c0,0,5.4-20.6-11.9-21.8C83.4,82.9,81.1,77,93,67.6z"/>
	<path class="st3" d="M94,118.3c0,0,0.5,4.1-1,5.1c0,0,11.3-2.1,12.3-5.6C106.3,114.2,94,118.3,94,118.3z"/>
	<path class="st3" d="M52.5,68.1c0,0-25.6-2.1-27.7,25.6c0,0,12.8-11.8,25.1-9.2c0,0,3.1-7.2,6.2-7.2L52.5,68.1z"/>
	<path class="st3" d="M10.9,131.7c0,0-20.5,24.6,4.1,47.7c0,0-0.5,20,15.9,27.7l3.6-9.2c0,0-9.7-11.3-1-17.9c0,0-19.5-39,24.1-67.2
		c-0.2-2.7-0.7-6.1-2.1-9.7c-0.5-1.3-1-2.5-1.5-3.6c-4.7-2.3-10.2-1.4-13.8,2.1c-3.2,3.1-4.4,7.9-3.1,12.3c0,0-7.7,2.1-8.7,9.2
		c0,0-4.1-7.7-2.6-10.3c0,0-12.3,11.3-9.7,20.5C14.4,132.7,12.7,132.2,10.9,131.7z"/>
	<path class="st3" d="M108.9,191.7c0,0-3.6,11.8,3.6,15.4c0,0-8.2,10.3-13.3,10.3c0,0-16.9-13.8-7.7-29.2
		C91.5,188.1,103.3,184,108.9,191.7z"/>
	<path class="st2" d="M98.6,226.5h5.8c0,0,12.2,15.6,30.1,18.3c0,0-19.9,9.8-30.8,3.9C103.8,248.7,103.1,231.8,98.6,226.5z"/>
	<path class="st2" d="M136.6,244.5c0,0-10.8,11.8-5.6,15.9c5.1,4.2,13.3,0,13.3,0s10.8-7.6,11.3-11.1
		C155.6,249.3,136.6,245.9,136.6,244.5z"/>
	<path class="st2" d="M184.3,246.5c0,0,17.9,12.7,21.5,5.5c0,0-3.6-8.9-7.8-11.6C198,240.4,186.1,250.4,184.3,246.5z"/>
	<path class="st2" d="M145.8,186c0,0,7.7,23.9,11.5,23.9c0,0-12.3,19.4-32.3,9.1C125,219,141.1,189.3,145.8,186z"/>
	<path class="st3" d="M107.9,231.7c0,0,43.6,40.5,91.3,9.7c0,0,33.3-29.7,0-63.1c0,0-8.2-7.2-19.5-4.1l-2.6,4.1
		c0,0,8.7,6.7,7.7,13.8c0,0,24.6,17.4-2.6,35.9s-35.9,5.6-35.9,5.6s-21,2.1-28.2-6.7C118.1,227.1,109.4,233.2,107.9,231.7z"/>
	<path class="st3" d="M235.6,77.3c0,0,30.3,0,35.9,39c0,0-16.9-19.2-28.7-19.8C242.7,96.5,239.7,79.5,235.6,77.3z"/>
	<path class="st3" d="M240.7,113.2c2.1,8.1,4,16.9,5.6,26.2c1,5.8,1.9,11.5,2.6,16.9c2.5-0.9,6.8-2.9,10.7-7
		c6.3-6.6,7.5-14.4,7.8-17.1C267.4,132.2,253.5,112.7,240.7,113.2z"/>
	<path class="st3" d="M217.1,198.9c0,0,1,9.7-3.1,13.3c0,0,2.1-9.2-1-10.8L217.1,198.9z"/>
	<path class="st3" d="M164.8,221.4c0,0,4.6,8.7,1,13.8c0,0-7.7,6.7-19.5-1.5C146.3,233.7,164.3,225.5,164.8,221.4z"/>
	<path class="st3" d="M70.9,62.4c0,0-7.2-14.4-4.6-23.6s-9.2,0-9.2,0s-16.9,19-1,38.5c0,0,5.1-4.6,6.7-3.1L70.9,62.4z"/>
	<path class="st3" d="M49.4,135.3c-2.6,1.2-5.9,3.4-8.2,7.2c-4.5,7.5-2.9,18.4,4.1,27.2c3.3-2.6,7.4-5.5,12.3-8.2
		c6.5-3.5,12.5-5.8,17.4-7.2c0-3.1-0.1-6.5-0.4-10c-0.8-8.7-2.7-16.2-4.7-22.3C63.1,126.4,56.2,130.8,49.4,135.3z"/>
	<path class="st3" d="M80.2,121.4l6.7,9.7c1.4-1.3,2.9-2.6,4.4-3.9c4.7-4.4,9.1-8.7,13.1-13C96.2,116.6,88.2,119,80.2,121.4z"/>
	<path class="st3" d="M45.8,152.2c0,0,22.6,6.2,24.1,13.3c0,0-7.2,11.3-12.3,11.8c0,0-5.1-7.7-9.7-5.6
		C47.9,171.7,42.2,166.5,45.8,152.2z"/>
	<path class="st3" d="M122.7,70.7c0,0-10.9,6.4-11.5,18.5s-1.8,13.8-1.8,13.8s8.5,1.1,10.9-2.1c0,0,4.8-5.3,0.6-12.2
		C116.7,81.8,122.7,70.7,122.7,70.7z"/>
	<path class="st3" d="M90.9,47.3c0,0,18.5-26.7,39-19s29.7,22.1,29.7,22.1s22.1-21,40.5-11.8s23.1,28.7,23.1,28.7s-21-8.2-21.5-5.6
		c0,0-16.9-17.9-46.7-4.1C155,57.6,137.1,33.5,90.9,47.3z"/>
	<path class="st3" d="M129.9,217.8c0,0,8.2,9.2,21.5-7.2c0,0,6.2,9.2,13.3,10.8c5.4,16.7,0.9,22.6-0.5,24.1
		c-8.1,8.8-32.5,3.8-60.5-15.4c2.9-2.7,7.7-6.5,14.4-9.2C122.6,219.1,126.7,218.2,129.9,217.8z"/>
	<path class="st4" d="M89.4,101.9c0,0-21-24.6,16.9-41.5c0,0,41-4.1,36.4,23.6l2.1,15.9c0,0,25.6,2.6,14.9-35.9
		c0,0-10.3-29.2-54.9-22.6s-42.6,42-42.6,42S63.8,103,72,106L89.4,101.9z"/>
	<path class="st4" d="M150.9,58.3c0,0,12.8-12.3,30.8-7.2c17.9,5.1,20,8.7,20,8.7s16.9,0,21.5,5.6c0,0,20.5,7.2,19.5,29.7
		c0,0,42,7.2,36.4,49.7c0,0,0,12.8-16.4-17.9c-4.6-3.8-11.8-8.6-21.5-10.8c-2.3-0.5-4.6-0.9-6.7-1c-1.7-0.2-3.3,0.6-3.9,1.9
		c-0.8,1.7,0.2,4.4,2.9,5.3c-9.9,11.7-13.7,24.6-9,33.2c1.9,3.3,4.5,5.4,6.9,6.8c19.5,11.3,30.8,5.6,30.8,5.6
		c2.6,0.9,5.3,2.3,5.8,4.6c1.1,5-8.9,12.6-18.6,14.9c-10.8,2.6-23.2-1-30.8-8.2c-5.6-5.4-11.3-15.4-11.3-15.4l0,0
		c0,0-5.6-20.5,3.1-34.9c0,0,5.1-10.8,0-16.9c0,0-35.4,20.5-48.2-12.8l-2.1-20L150.9,58.3z"/>
	<path class="st2" d="M192.5,80.4c0,0,3.1,12.3-4.1,16.9C188.4,97.3,171.5,88.6,192.5,80.4z"/>
	<path class="st2" d="M209.4,79.9c0,0,4.1,13.8-1.5,17.9l15.9-3.1C223.8,94.8,220.7,80.4,209.4,79.9z"/>
	<path class="st4" d="M114.5,58.9c0,0-13.3,3.6-12.3,14.4c0,0,13.3,11.8,10.8,16.4c0,0,5.6-19.5,9.7-17.9
		C122.7,71.7,127.4,63,114.5,58.9z"/>
	<path class="st4" d="M229.4,128.6c0,0,35.9,8.2,15.4,41.5l-13.3-7.7c0,0,1.5-14.9-7.2-20.5C215.6,136.3,229.4,128.6,229.4,128.6z"
		/>
	<path class="st3" d="M207.4,187.1c1.2,0,3.1,0.3,4.8,1.3c4.6,2.8,6.5,9.6,4.4,12c-1.9,2.2-6.4-0.3-7.7,1.5c-1.2,1.8,1.5,6,5.1,10.3
		c3.6-1,7.2-2.1,10.8-3.1l8.2-9.2c0,0,0.5-12.8-3.6-16.4c0,0-11.3-3.6-22.1-19.5c0,0-13.3,7.2-12.8,11.8
		C194.5,175.8,196.6,186,207.4,187.1z"/>
	<path class="st4" d="M49.9,84.5c0,0-36.9-6.2-39,47.2c0,0,2.6,10.8,5.1,1.5c0,0,0.5-23.1,27.7-29.7l6.7-2.1c0,0,3.6,8.7,7.2,11.3
		c0,0-53.3,20.5-19.5,78.5c0,0-23.6,25.6,3.1,44.1c0,0-3.1-33.8,20-36.4c0,0,11.8-1,17.9,2.6c0,0,6.7-28.7,39-3.6
		c0,0-10.3,19.5-23.6,19s-2.1,0-2.1,0l10.3,17.4l15.4-7.2c0,0,14.9-7.7,19-24.6c0,0,3.1-10.8,6.7-10.8c0,0,4.6,33.3,38.5,36.4
		c1.8-0.9,4.3-2.3,6.5-4.7c5.2-5.4,6.1-11.9,6.3-14.3c-1.8,0.3-4,0.5-6.6,0.3c-4.5-0.4-8-1.7-10.3-2.8c0,0,15.9-15.4-1-28.2
		c0,0-14.4-17.4-33.3-8.7c-19,8.7-17.9,12.8-17.9,12.8s-20-19-41.5-10.3c0,0,19.5-25.1,2.6-41l-6.7-9.7L66,128.2
		c0,0,24.6,30.3-12.3,52.8c0,0-26.2-26.7,8.7-51.8c0,0,32.3-13.3,38.5-12.8c0,0,37.4,12.8,41.5-6.2s0.5-26.2,0.5-26.2
		c-0.4-1.5-2.4-7.6-8.7-11.3c-4.5-2.7-8.9-2.7-10.8-2.6c-1.2,1-3,2.8-4.1,5.6c-2.5,6.6,1.6,12.6,2.1,13.3c0,0,5.6,21-25.6,11.8
		c0,0-16.4-0.5-23.6,5.1c0,0-12.3-17.9-7.2-31.8C64.8,74.2,50.9,72.7,49.9,84.5z"/>
	<path class="st3" d="M243.2,114.8c-1.8,2.2-4.1,4.7-7.2,7.2c-1.8,1.4-3.5,2.6-5.1,3.6l-2.6-14.9c1.3-0.4,3.1-0.8,5.4-0.6
		C239,110.4,242.3,113.7,243.2,114.8z"/>
	<path class="st3" d="M238.6,186l-5.1,8.2l-4.1,6.7l22.1-11.3l12.3,2.6c0,0,5.1-7.2,0.5-12.8C264.3,179.4,249.9,190.1,238.6,186z"/>
	<path class="st5" d="M58.6,198.3c0,0-29.2,7.7-14.9,46.2s45.6,32.8,45.6,32.8s30.3-6.2,13.3-43.1s-26.2-33.8-26.2-33.8
		S64.8,194.7,58.6,198.3z"/>
	<path class="st5" d="M263.8,192.2c0,0-19-14.4-39,16.9c0,0-20.5-1-17.9,23.6c0,0,2.1,12.8,9.2,14.4c0,0-1.5,33.8,34.4,14.9
		s21.5-58,21.5-58S268.9,193.7,263.8,192.2z"/>
</g>
</svg>
