<?xml version="1.0" encoding="utf-8"?>
<!-- Generator: Adobe Illustrator 23.0.6, SVG Export Plug-In . SVG Version: 6.00 Build 0)  -->
<svg version="1.1" id="Layer_1" xmlns="http://www.w3.org/2000/svg" xmlns:xlink="http://www.w3.org/1999/xlink" x="0px" y="0px"
	 viewBox="0 0 288 288" style="enable-background:new 0 0 288 288;" xml:space="preserve">
<style type="text/css">
	.st0{opacity:0.5;}
	.st1{fill:#5B4744;}
	.st2{fill:#484A61;}
	.st3{fill:#615A56;}
	.st4{fill:#6B7797;}
	.st5{fill:#8E919D;}
	.st6{fill:#CEA175;}
	.st7{fill:#5A5F72;}
	.st8{fill:#827976;}
	.st9{fill:#C5C8D1;}
</style>
<g class="st0">
	<path d="M157.9,199.3c0,0,13.3,16.8,12.8,21.2s-13.3,22.2-13.3,22.2l0.5,3.5l12.8-2.5c0,0,7.4-19.7,13.8-21.7
		c6.4-2,4.4-6.4,3.9-7.9s-7.9-16.3-5.9-22.7C184.6,185,157.9,199.3,157.9,199.3z"/>
	<path d="M70,197.3c0,0-1.5,16.3-11.8,27.6c0,0-1.5,1.5,0,7.9s5.9,27.6,5.9,27.6l4.4,3.9l5.9-10.9l-3.5-17.8
		c0,0,10.9-14.3,22.7-16.3S70,197.3,70,197.3z"/>
	<path d="M157.9,246.2c0,0-3.9,4.9-2,7.4c0,0,10.4,1,13.3-1.5l1.5-8.4L157.9,246.2z"/>
	<path d="M68.6,264.5c0,0,0,8.4,5.9,4.9s6.4-13.3,6.4-13.3l-6.4-2.5L68.6,264.5z"/>
	<path d="M206.3,132.7c0,0-2.5-11.8,4.4-25.2s2-31.1,2-31.1s-8.4-29.1-43.4-20.7l-0.5-3.5c0,0,25.7-6.9,41.5,11.8s5.4,34.6,5.4,34.6
		s28.6-39.5,45.9-42.5l4.9,0.5c0,0-49.9,26.2-57.3,68.1c0,0,17.8-31.6,54.3-24.7c0,0,39,8.4-9.9,57.3l-2-2.5c0,0,40-31.1,13.3-49.9
		c0,0-38-14.3-54.3,29.1L206.3,132.7z"/>
	<path d="M251.7,154.9c0,0-9.4,0-10.9-4.4v3l-5.9-2.5l3.5,4.9l-3.9,1l4.4,1c0,0-14.3,16.3,0.5,24.7c0,0,3.5-8.9,6.4-11.4
		c3-2.5,6.9-6.9,6.9-6.9S259.1,158.8,251.7,154.9z"/>
	<path d="M168.8,52.2c0,0-3.5-6.4-19.3-5.4l3.9,3H148l5.9,3c0,0-12.3,1.5-18.8-9.9c-6.4-11.4,1,3,1,3s-1.5,8.4,3.5,12.3
		c0,0,15.3,13.8,24.7,4.9C173.7,54.2,168.8,52.2,168.8,52.2z"/>
	<path d="M261.6,56.2c0,0-4.4-4.9,2.5-11.4c4.3-4,5.9-9.5,6.5-13.1C271,29.5,271,28,271,28l2,5.4l1.5-12.3c0,0,13.8,11.4,3.9,31.6
		l2.5,2.5C280.8,55.2,272,63.1,261.6,56.2z"/>
	<path d="M36.5,130.7c0,0-6.4,1-6.4,3.5c0,0-11.8-4.4-9.9-12.3s3.9-11.8,3.9-11.8s-1.5-3.5-7.9,2.5c-6.4,5.9-7.4,10.9-7.4,10.9
		s-4.1,15.3,15.3,25c2,1,3.5,5.4,3.5,5.4L36.5,130.7z"/>
	<path d="M49.3,123.3c0,0-19.7,5.4-21.7,30.6l0.5,11.4l-4.9,14.8l15.3,11.8c0,0,10.9,2.5,15.3-6.4s12.3-6.4,12.3-6.4l51.8,42.9
		c0,0,2,10.4,3.5,14.3c1.5,3.9-3,24.7-3,24.7l3,3.9l10.9-2.5c0,0,5.4-2.5,3.9-9.4c-1.5-6.9-1-20.2-1-20.2s9.9-16.3,9.9-21.7
		s0.5-13.3,0.5-13.3s19.3,4.4,28.1-1c8.9-5.4,11.8-7.4,11.8-7.4s10.4-2,11.8,1.5c1.5,3.5,14.3,18.8,14.3,18.8s10.4,15.8,10.4,33.1
		l-1,8.4c0,0,12.8,3.9,15.3-1c0,0-1-7.4-4.4-16.8s-2.5-24.7-2.5-24.7s0-3.9-3-8.4c-3-4.4-9.4-30.6-9.4-30.6s3.9-32.6-13.3-42
		c-2.6-0.8-5.8-1.7-9.4-2.5c-3.9-0.9-5.5-1.1-8.8-1.9c-2.7-0.7-5.9-1.6-9.4-3c-2.6-1.6-6.6-4.1-11.4-7.4c-6.1-4.3-8.3-6.4-13.3-9.9
		c-6.4-4.4-12.2-7.4-14.3-8.4c-12.8-5.9-27.3-2.2-37.5,0.5C76.3,101.3,59.3,114.1,49.3,123.3z"/>
	<path d="M118.4,261c0,0-5.4,8.9-3.9,11.4s18.3,0,18.3,0l-0.5-9.9C132.2,262.5,118.4,264.5,118.4,261z"/>
	<path d="M221.1,251.2c0,0-6.9,6.9-0.5,9.9c6.4,3,16.3,1,16.3,1l-0.5-11.8C236.4,250.2,222.6,254.1,221.1,251.2z"/>
	<path d="M49.3,123.3c0,0,13.8-7.4,22.2,13.8s6.9,27.6,6.9,27.6S58.2,178,58.2,180.5l5.4,3.9c0,0,6.4,13.8,9.9,17.3
		s10.9,16.8,10.9,16.8l1-3.9l10.9,9.9l-0.5-4.9l9.4,8.4l0.5-3.5l4.9,4.4v-5.4l3.5,4.4V220l3.9,2c0,0-4.9-21.7,3.5-30.1
		s16.8-34.1,16.8-34.1s3.9-17.3-7.4-36s-20.7-28.1-20.7-28.1l-1,2v-5.9l-3,2l0.5-6.4l-9.4,5.9l-1-4.9c0,0-1.5,7.4-12.3,9.4
		C73,97.6,49.3,123.3,49.3,123.3z"/>
	<path d="M69.1,132.7c0,0,18.8-1,18.3-12.8s-2-8.4-2-8.4s3-4.4,6.9,3s4.4,16.8,4.4,16.8s-1,17.3-22.7,20.2c0,0-14.8,7.4-18.3-6.9
		S67.6,129.7,69.1,132.7z"/>
	<path d="M38.9,133.2c0,0,3.9-3,3-4.4C40.9,127.2,37,130.2,38.9,133.2z"/>
	<path d="M36.5,137.6c0,0-5.4,2.5-2,5.4C38,146,36.5,140.1,36.5,137.6z"/>
	<path d="M33,151.4c0,0-5.9,0-2,7.9s5.4-2.5,5.4-2.5S34,152.9,33,151.4z"/>
	<path d="M23.1,180.1c-0.1-1.5,4.9,4.9,9.9,3.5c4.9-1.5,6.9-1.5,6.9-1.5s8.4,3,3.5,6.9S33,192.5,33,192.5S24.1,191.9,23.1,180.1z"/>
</g>
<g>
	<path class="st1" d="M153.2,194.3c0,0,13.3,16.8,12.8,21.2s-13.3,22.2-13.3,22.2l0.5,3.5l12.8-2.5c0,0,7.4-19.7,13.8-21.7
		c6.4-2,4.4-6.4,3.9-7.9s-7.9-16.3-5.9-22.7C179.9,180,153.2,194.3,153.2,194.3z"/>
	<path class="st1" d="M65.3,192.3c0,0-1.5,16.3-11.8,27.6c0,0-1.5,1.5,0,7.9s5.9,27.6,5.9,27.6l4.4,3.9l5.9-10.9l-3.5-17.8
		c0,0,10.9-14.3,22.7-16.3S65.3,192.3,65.3,192.3z"/>
	<path class="st2" d="M153.2,241.2c0,0-3.9,4.9-2,7.4c0,0,10.4,1,13.3-1.5l1.5-8.4L153.2,241.2z"/>
	<path class="st2" d="M63.9,259.5c0,0,0,8.4,5.9,4.9s6.4-13.3,6.4-13.3l-6.4-2.5L63.9,259.5z"/>
	<path class="st3" d="M201.6,127.7c0,0-2.5-11.8,4.4-25.2s2-31.1,2-31.1s-8.4-29.1-43.4-20.7l-0.5-3.5c0,0,25.7-6.9,41.5,11.8
		s5.4,34.6,5.4,34.6s28.6-39.5,45.9-42.5l4.9,0.5c0,0-49.9,26.2-57.3,68.1c0,0,17.8-31.6,54.3-24.7c0,0,39,8.4-9.9,57.3l-2-2.5
		c0,0,40-31.1,13.3-49.9c0,0-38-14.3-54.3,29.1L201.6,127.7z"/>
	<path class="st4" d="M247,149.9c0,0-9.4,0-10.9-4.4v3l-5.9-2.5l3.5,4.9l-3.9,1l4.4,1c0,0-14.3,16.3,0.5,24.7c0,0,3.5-8.9,6.4-11.4
		c3-2.5,6.9-6.9,6.9-6.9S254.4,153.8,247,149.9z"/>
	<path class="st4" d="M164.1,47.2c0,0-3.5-6.4-19.3-5.4l3.9,3h-5.4l5.9,3c0,0-12.3,1.5-18.8-9.9c-6.4-11.4,1,3,1,3
		s-1.5,8.4,3.5,12.3c0,0,15.3,13.8,24.7,4.9C169,49.2,164.1,47.2,164.1,47.2z"/>
	<path class="st4" d="M256.9,51.2c0,0-4.4-4.9,2.5-11.4c4.3-4,5.9-9.5,6.5-13.1c0.4-2.2,0.4-3.7,0.4-3.7l2,5.4l1.5-12.3
		c0,0,13.8,11.4,3.9,31.6l2.5,2.5C276.1,50.2,267.3,58.1,256.9,51.2z"/>
	<path class="st5" d="M31.8,125.7c0,0-6.4,1-6.4,3.5c0,0-11.8-4.4-9.9-12.3s3.9-11.8,3.9-11.8s-1.5-3.5-7.9,2.5
		c-6.4,5.9-7.4,10.9-7.4,10.9s-4.1,15.3,15.3,25c2,1,3.5,5.4,3.5,5.4L31.8,125.7z"/>
	<path class="st6" d="M44.6,118.3c0,0-19.7,5.4-21.7,30.6l0.5,11.4l-4.9,14.8l15.3,11.8c0,0,10.9,2.5,15.3-6.4s12.3-6.4,12.3-6.4
		l51.8,42.9c0,0,2,10.4,3.5,14.3c1.5,3.9-3,24.7-3,24.7l3,3.9l10.9-2.5c0,0,5.4-2.5,3.9-9.4s-1-20.2-1-20.2s9.9-16.3,9.9-21.7
		s0.5-13.3,0.5-13.3s19.3,4.4,28.1-1c8.9-5.4,11.8-7.4,11.8-7.4s10.4-2,11.8,1.5c1.5,3.5,14.3,18.8,14.3,18.8s10.4,15.8,10.4,33.1
		l-1,8.4c0,0,12.8,3.9,15.3-1c0,0-1-7.4-4.4-16.8s-2.5-24.7-2.5-24.7s0-3.9-3-8.4c-3-4.4-9.4-30.6-9.4-30.6s3.9-32.6-13.3-42
		c-2.6-0.8-5.8-1.7-9.4-2.5c-3.9-0.9-5.5-1.1-8.8-1.9c-2.7-0.7-5.9-1.6-9.4-3c-2.6-1.6-6.6-4.1-11.4-7.4c-6.1-4.3-8.3-6.4-13.3-9.9
		c-6.4-4.4-12.2-7.4-14.3-8.4c-12.8-5.9-27.3-2.2-37.5,0.5C71.6,96.3,54.6,109.1,44.6,118.3z"/>
	<path class="st7" d="M113.7,256c0,0-5.4,8.9-3.9,11.4s18.3,0,18.3,0l-0.5-9.9C127.5,257.5,113.7,259.5,113.7,256z"/>
	<path class="st7" d="M216.4,246.2c0,0-6.9,6.9-0.5,9.9c6.4,3,16.3,1,16.3,1l-0.5-11.8C231.7,245.2,217.9,249.1,216.4,246.2z"/>
	<path class="st8" d="M44.6,118.3c0,0,13.8-7.4,22.2,13.8s6.9,27.6,6.9,27.6S53.5,173,53.5,175.5l5.4,3.9c0,0,6.4,13.8,9.9,17.3
		s10.9,16.8,10.9,16.8l1-3.9l10.9,9.9l-0.5-4.9l9.4,8.4l0.5-3.5l4.9,4.4v-5.4l3.5,4.4V215l3.9,2c0,0-4.9-21.7,3.5-30.1
		s16.8-34.1,16.8-34.1s3.9-17.3-7.4-36s-20.7-28.1-20.7-28.1l-1,2v-5.9l-3,2l0.5-6.4l-9.4,5.9l-1-4.9c0,0-1.5,7.4-12.3,9.4
		C68.3,92.6,44.6,118.3,44.6,118.3z"/>
	<path class="st9" d="M64.4,127.7c0,0,18.8-1,18.3-12.8s-2-8.4-2-8.4s3-4.4,6.9,3s4.4,16.8,4.4,16.8s-1,17.3-22.7,20.2
		c0,0-14.8,7.4-18.3-6.9S62.9,124.7,64.4,127.7z"/>
	<path class="st9" d="M34.2,128.2c0,0,3.9-3,3-4.4C36.2,122.2,32.3,125.2,34.2,128.2z"/>
	<path class="st9" d="M31.8,132.6c0,0-5.4,2.5-2,5.4C33.3,141,31.8,135.1,31.8,132.6z"/>
	<path class="st9" d="M28.3,146.4c0,0-5.9,0-2,7.9s5.4-2.5,5.4-2.5S29.3,147.9,28.3,146.4z"/>
	<path class="st8" d="M18.4,175.1c-0.1-1.5,4.9,4.9,9.9,3.5c4.9-1.5,6.9-1.5,6.9-1.5s8.4,3,3.5,6.9s-10.4,3.5-10.4,3.5
		S19.4,186.9,18.4,175.1z"/>
</g>
</svg>
