<?xml version="1.0" encoding="utf-8"?>
<!-- Generator: Adobe Illustrator 23.0.6, SVG Export Plug-In . SVG Version: 6.00 Build 0)  -->
<svg version="1.1" id="Layer_1" xmlns="http://www.w3.org/2000/svg" xmlns:xlink="http://www.w3.org/1999/xlink" x="0px" y="0px"
	 viewBox="0 0 288 288" style="enable-background:new 0 0 288 288;" xml:space="preserve">
<style type="text/css">
	.st0{opacity:0.5;}
	.st1{fill:#9F4657;}
	.st2{fill:#121112;}
	.st3{fill:#B2A9A0;}
	.st4{fill:#5D8092;}
	.st5{fill:#7CBCDC;}
	.st6{fill:#B66E83;}
	.st7{fill:#817974;}
</style>
<g class="st0">
	<path d="M108.4,70.7c0,0-33.2,21-18.2,53L108.4,70.7z"/>
	<path d="M102.9,190.7c0,0-14.2,4.7,3.6,16.2c0,0,6.7,5.7,18.9,11.2c23.9,10.8,45.2,10.2,51.6,9.7c27.2-1.8,46.3-13.7,54.2-19.4
		c13.3-14.4,18.6-28,14.2-33.6c-1-1.2-3.2-3.2-9.1-3.2c-11.2,5.8-20.4,9.5-26.9,11.9c-4.1,1.5-15.7,5.5-15.8,5.5l0,0
		c0,0-9.5-0.8-11.5-5.1c0,0-15.8,16.6-29.7,14.2c0,0-21.4-0.4-31.7-9.9l-7.9,9.5L102.9,190.7z"/>
	<path d="M189.5,188.3c1.7,4.1,6,13,15.5,19c19.9,12.4,42.9,0.2,43.8-0.4c2.3-1.7,14.3-10.8,16.7-27.4c2.9-20.2-10.9-34.1-12.4-35.6
		c0,0-12.7-14.2-5.1-19l30.1,32.1l4.7,4.4l0.8,2.4c0,0,4.7,39.6-33.6,53c-38.4,13.5-55.4-10.7-55.4-10.7s-14.6-17-12.7-22.2
		c0.1-0.3,0.5-1.2,1.3-1.5C185.5,181.8,188.8,187.1,189.5,188.3z"/>
	<path d="M112.8,197.8c0,0-9.9,24.5-39.2,21c-29.3-3.6-46.3,10.7-46.3,10.7s-23,15-8.7,34.8c0,0,5.5,7.9,13.9-9.5
		c0,0,17.4-27.3,38.8-27.7s35.2-11.5,35.2-11.5s17.4-18.2,14.2-27.3C117.5,179.2,112.8,197.8,112.8,197.8z"/>
	<path d="M182,183.9c-0.8,1.4-10.5,16.9-29.7,18.2c-19,1.3-30.6-12.6-31.7-13.9c0.2-1.2,1.8-10.7,10.7-15.8
		c10.2-5.9,20.7-0.8,21.4-0.4c3.8,0.4,7.7,0.8,11.5,1.2c0.7-1.3,1.3-2.6,2-4l5.9,2L182,183.9z"/>
	<path d="M151.5,49.4c0,0-34-3.6-52.6,36.4c0,0-12.3,25.7-7.9,45.1l4.4,5.5c0,0,2.8,18.2,0.8,22.6l7.9,8.3c0,0-12.7,23.4,6.3,28.5
		l2.4,2c0,0,14.2-21.4,26.5-24.9c12.3-3.6,25.3,2.8,25.3,2.8s2-1.6,1.6-6.3c0,0,7.5,2.8,8.3,5.5c0.8,2.8,7.5,9.1,7.5,9.1
		s11.1,11.5,28.1,1.6s24.1-11.5,24.1-11.5s6.6-1.5,9.8,2.1c2.2,2.6,1.7,6.2,1.3,8.6c-2.1,12.3-15.1,23.5-19.8,27.3
		c3.5-1.5,8.8-4.2,13.6-9.5c9.8-10.7,10.2-23.7,10.1-27.3c0,0-3.2-19-47.1-14.2c0,0-5.5-5.5-7.1-5.1c0,0,21.8-27.7,18.6-52.2
		s-16.2-33.6-16.2-33.6L151.5,49.4z"/>
	<path d="M106.8,100.8c-2.7-1-4.3-0.5-5.2-0.2c-4.1,1.7-6.2,9-3.9,18c2.1,4.2,5.6,7.1,8.7,6.8c4.1-0.4,8.6-6.9,6.8-15.5
		C113.2,109.9,111.2,100.4,106.8,100.8z"/>
	<path d="M148.8,52.9c0,0-25.7,17.4-6.7,48.3s45.5,13.5,45.5,13.5s24.1-13.9,7.9-49.9S148.8,52.9,148.8,52.9z"/>
	<path d="M248.1,125c0,0,15.8-9.1,29.7,16.6s2,29.7,2,29.7s-10.7,2-12.7-15.4c0,0-11.1-18.6-16.2-22.2
		C245.7,130.1,248.1,125,248.1,125z"/>
</g>
<g>
	<path class="st1" d="M103.4,65.7c0,0-33.2,21-18.2,53L103.4,65.7z"/>
	<path class="st2" d="M97.9,185.7c0,0-14.2,4.7,3.6,16.2c0,0,6.7,5.7,18.9,11.2c23.9,10.8,45.2,10.2,51.6,9.7
		c27.2-1.8,46.3-13.7,54.2-19.4c13.3-14.4,18.6-28,14.2-33.6c-1-1.2-3.2-3.2-9.1-3.2c-11.2,5.8-20.4,9.5-26.9,11.9
		c-4.1,1.5-15.7,5.5-15.8,5.5l0,0c0,0-9.5-0.8-11.5-5.1c0,0-15.8,16.6-29.7,14.2c0,0-21.4-0.4-31.7-9.9l-7.9,9.5L97.9,185.7z"/>
	<path class="st3" d="M184.5,183.3c1.7,4.1,6,13,15.5,19c19.9,12.4,42.9,0.2,43.8-0.4c2.3-1.7,14.3-10.8,16.7-27.4
		c2.9-20.2-10.9-34.1-12.4-35.6c0,0-12.7-14.2-5.1-19l30.1,32.1l4.7,4.4l0.8,2.4c0,0,4.7,39.6-33.6,53
		c-38.4,13.5-55.4-10.7-55.4-10.7s-14.6-17-12.7-22.2c0.1-0.3,0.5-1.2,1.3-1.5C180.5,176.8,183.8,182.1,184.5,183.3z"/>
	<path class="st3" d="M107.8,192.8c0,0-9.9,24.5-39.2,21c-29.3-3.6-46.3,10.7-46.3,10.7s-23,15-8.7,34.8c0,0,5.5,7.9,13.9-9.5
		c0,0,17.4-27.3,38.8-27.7s35.2-11.5,35.2-11.5s17.4-18.2,14.2-27.3C112.5,174.2,107.8,192.8,107.8,192.8z"/>
	<path class="st4" d="M177,178.9c-0.8,1.4-10.5,16.9-29.7,18.2c-19,1.3-30.6-12.6-31.7-13.9c0.2-1.2,1.8-10.7,10.7-15.8
		c10.2-5.9,20.7-0.8,21.4-0.4c3.8,0.4,7.7,0.8,11.5,1.2c0.7-1.3,1.3-2.6,2-4l5.9,2L177,178.9z"/>
	<path class="st5" d="M146.5,44.4c0,0-34-3.6-52.6,36.4c0,0-12.3,25.7-7.9,45.1l4.4,5.5c0,0,2.8,18.2,0.8,22.6l7.9,8.3
		c0,0-12.7,23.4,6.3,28.5l2.4,2c0,0,14.2-21.4,26.5-24.9c12.3-3.6,25.3,2.8,25.3,2.8s2-1.6,1.6-6.3c0,0,7.5,2.8,8.3,5.5
		c0.8,2.8,7.5,9.1,7.5,9.1s11.1,11.5,28.1,1.6s24.1-11.5,24.1-11.5s6.6-1.5,9.8,2.1c2.2,2.6,1.7,6.2,1.3,8.6
		c-2.1,12.3-15.1,23.5-19.8,27.3c3.5-1.5,8.8-4.2,13.6-9.5c9.8-10.7,10.2-23.7,10.1-27.3c0,0-3.2-19-47.1-14.2c0,0-5.5-5.5-7.1-5.1
		c0,0,21.8-27.7,18.6-52.2s-16.2-33.6-16.2-33.6L146.5,44.4z"/>
	<path class="st6" d="M101.8,95.8c-2.7-1-4.3-0.5-5.2-0.2c-4.1,1.7-6.2,9-3.9,18c2.1,4.2,5.6,7.1,8.7,6.8c4.1-0.4,8.6-6.9,6.8-15.5
		C108.2,104.9,106.2,95.4,101.8,95.8z"/>
	<path class="st6" d="M143.8,47.9c0,0-25.7,17.4-6.7,48.3s45.5,13.5,45.5,13.5s24.1-13.9,7.9-49.9S143.8,47.9,143.8,47.9z"/>
	<path class="st7" d="M243.1,120c0,0,15.8-9.1,29.7,16.6s2,29.7,2,29.7s-10.7,2-12.7-15.4c0,0-11.1-18.6-16.2-22.2
		C240.7,125.1,243.1,120,243.1,120z"/>
</g>
</svg>
