<?xml version="1.0" encoding="utf-8"?>
<!-- Generator: Adobe Illustrator 23.0.6, SVG Export Plug-In . SVG Version: 6.00 Build 0)  -->
<svg version="1.1" id="Layer_1" xmlns="http://www.w3.org/2000/svg" xmlns:xlink="http://www.w3.org/1999/xlink" x="0px" y="0px"
	 viewBox="0 0 288 288" style="enable-background:new 0 0 288 288;" xml:space="preserve">
<style type="text/css">
	.st0{opacity:0.5;}
	.st1{fill:#507E95;}
	.st2{fill:#222425;}
	.st3{fill:#737883;}
	.st4{fill:#ACA69D;}
	.st5{fill:#D0CCC8;}
	.st6{fill:#65ABCF;}
	.st7{fill:#B36D82;}
</style>
<g class="st0">
	<path d="M179.3,161.3c0,0,3.8,4.8,3.4,10.1c-0.5,5.3,3.8,7.2,3.8,7.2s4.3,1.9,2.4,6.2c-1.9,4.3,2.9,7.7,2.9,7.7s3.8,5.3-1,14.4
		s-14.8,34-14.8,34s16.3-10.1,26.8-28.2c10.5-18.2,6.2-26.8,6.2-26.8s-7.2-22.5-5.7-27.8c1.4-5.3-9.6-12.4-9.6-12.4L179.3,161.3z"/>
	<path d="M106.1,136.5c0,0,12.4,20.6,25.4,24.4l15.3,2.4c0,0,19.6,4.3,32.6-1.9c12.9-6.2,24.9-21.1,24.9-21.1L191.4,124l-46.9-2.4
		C144.4,121.6,105.1,128.3,106.1,136.5z"/>
	<path d="M115.7,168.5c0,0-13.9,17.2-26.8,19.6S52,201.5,52,201.5S31.9,218.3,38.1,225s10.5-12,25.9-15.8l7.7-4.8l11.5-3.8
		c0,0,21.1-9.6,25.9-13.9c4.8-4.3-0.5,7.7-0.5,7.7s-27.8,27.8-11,37.8c0,0,3.4-1.4,4.3-7.7c1-6.2,7.7-19.2,7.7-19.2l33-46.4
		C142.5,159,117.6,162.8,115.7,168.5z"/>
	<path d="M149.7,165.7c0,0,0.5,12-7.2,18.2s-17.2,19.6-17.2,19.6s-22,35.4-11,42.6c11,7.2,8.1-22,8.1-22l9.1-10.1
		c0,0,9.6-19.2,11.5-18.7s9.1-12.9,9.1-12.9s5.3-10.1,3.4-17.2C153.5,158,149.7,165.7,149.7,165.7z"/>
	<path d="M165.5,163.8c0,0-17.7,28.7-13.4,37.8c0,0-18.2,25.4-5.7,30.6c0,0,1.4,1.4,2.4-5.3s3.4-12,3.4-12s6.2,26.3,16.3,23
		s-9.1-24.9-9.1-24.9l-0.5-6.2c0,0,24.9-30.6,20.6-46.4l-8.6,3.4c0,0,5.7,16.8-12,31.6c0,0,1.4-14.4,9.6-30.6L165.5,163.8z"/>
	<path d="M206.2,141.7c0,0,11.5,12.9,27.3,19.6c15.8,6.7,31.6,36.4,31.6,36.4s4.8,23.9-1.4,21.1c-6.2-2.9-2.4-23.9-12.4-33.5
		l-8.1-11.5c0,0-23.9-22.5-44-24.9l-2.4-4.8l7.7-3.8L206.2,141.7z"/>
	<path d="M193.2,151.3c0,0,1-10.1,3.4-7.2c0,0,14.8,21.5,26.3,24.9s28.2,42.1,28.2,42.1s7.2,20.6,1.9,25.4c-5.3,4.8-6.2-5.3-6.2-5.3
		s-7.7-39.3-16.3-45l-5.7-7.2c0,0-10.1-12-16.8-15.3S193.2,151.3,193.2,151.3z"/>
	<path d="M182.7,154.6c0,0,2.4-13.9,6.2-8.1c3.8,5.7,4.8,12,9.1,13.9s22,22,22,22s7.2,10.1,5.7,17.2c0,0,19.6,33.5,2.9,58.4
		c0,0-9.1,2.9-7.2-7.2c1.9-10.1,0-34.5,0-34.5s-15.8,35.9-26.8,33c0,0-4.3-3.4,0.5-8.1c0,0,25.4-26.3,23.5-37.8
		c0,0-4.3-12.9-9.6-17.7c0,0-30.6-25.4-39.3-26.3l6.2-9.1c0,0,4.8-2.9,4.8,2.4s6.2,11.5,6.2,11.5s24.4,16.8,25.4,18.2
		C212.4,182.4,194.2,160.4,182.7,154.6z"/>
	<path d="M141,177.6c0,0,7.2,27.8,20.1,34.9c12.9,7.2,11.5,12,11.5,12s-10.5,6.7-23.5-11c-12.9-17.7-12-33.5-12-33.5L141,177.6z"/>
	<path d="M111.4,144.1l4.8,5.7c0,0,2.9-3.8,3.8-1c1,2.9,0.5,5.7,0.5,5.7s-15.3,9.1-15.8,11s-6.7,5.7-6.7,5.7s-15.8,25.9-3.8,44.5
		c0,0,3.8,10.5-4.3,6.7s-9.6-21.1-9.6-21.1s3.4-27.3,9.1-29.7c0,0-23.5,14.8-18.2,54.6c0,0-0.5,13.4-5.7,5.7
		c-5.3-7.7-2.4-27.8-2.4-27.8s8.1-32.1,17.7-35.9l3.3-2.5c0,0,11.5-8.1,17.7-12C108,149.9,111.4,144.1,111.4,144.1z"/>
	<path d="M127.6,158l-3.4-5.7c0,0-8.1,12.4-14.8,12.4s-29.7,0-29.7,0s-46-6.2-59.8,9.6s-12,27.3-12,27.3s1,12.4,8.6,15.3
		c7.7,2.9,9.1-8.1,9.1-8.1s-2.4-22,15.8-30.2s39.7-6.7,39.7-6.7s37.3,0,42.1-7.7C128.1,156.6,127.6,158,127.6,158z"/>
	<path d="M156.8,160.9l3.4-6.2c0,0,2.9,1,3.8,5.7c1,4.8,7.2,13.4,7.2,13.4s11.5,18.2,35.4,11c0,0,33-19.2,57.9-7.2
		s19.6,24.9,19.6,24.9s-7.7,6.7-15.8-2.4c-8.1-9.1-28.7-13.9-28.7-13.9s-13.4,0.5-32.1,6.2s-33-8.6-33-8.6L156.8,160.9z"/>
	<path d="M132.4,146.5c0,0-11.5-5.3-13.4-9.6s-12.9-0.5-12.9-0.5s-9.1,9.1-18.7,3.4c-9.6-5.7-13.9-12-13.9-12s-2.4-12.9,9.1-16.3
		s13.9-13.4,13.9-13.4l41.7-44c0,0,6.7-10.1,17.7-8.6s15.3,5.7,15.3,5.7l46.9,34c0,0,5.7,6.7,6.2,10.5c0,0,36.9,14.8,36.4,26.3
		s-10.5,7.2-10.5,7.2s-20.1-3.4-26.8,2.4c-6.7,5.7-13.4,9.1-13.4,9.1s-9.6,2.4-17.7-2.4c-8.1-4.8-16.3-7.7-16.3-7.7
		s-13.4,0-20.6,7.2c-7.2,7.2-18.2,9.6-18.2,9.6s6.7,7.7,11.5,8.6s2.9,5.3,2.9,5.3s-4.8,2.9-4.8,7.2s-5.7,9.1-5.7,9.1
		s0.5,9.6-7.2,9.6c0,0,3.8,9.1-2.9,12.4c0,0-2.9,25.4,25.4,50.3c0,0-23.5,6.2-50.3-38.8c0,0,2.9-13.9,1.4-21.5
		c-1.4-7.7,3.4-10.1,3.4-10.1S130,160.4,132.4,146.5z"/>
	<path d="M167.4,48.4c0,0,27.3-1.9,39.3,12.9s11.5,23.9,11.5,23.9s8.6,35.9-25.9,29.7s-36.9-30.2-36.9-30.2S149.2,57.5,167.4,48.4z"
		/>
	<path d="M99.9,73.3c2-3.2,5.2-7.3,10.1-11c11.4-8.5,24-8.4,28.2-8.1c0,0-13.9,26.3-13.4,31.6c0.5,5.3-6.7,17.7-6.7,17.7
		s-9.9,13.8-16.8,11.5c-1.5-0.5-2.3-1.7-3.8-3.8c-6.9-10-4.9-22.1-4.3-25.4c0.5-2.8,1.2-5,2.4-7.2C97,76,98.7,74.3,99.9,73.3z"/>
	<ellipse cx="136.3" cy="108.6" rx="10.5" ry="10.3"/>
</g>
<g>
	<path class="st1" d="M174.2,155.6c0,0,3.8,4.8,3.4,10.1c-0.5,5.3,3.8,7.2,3.8,7.2s4.3,1.9,2.4,6.2c-1.9,4.3,2.9,7.7,2.9,7.7
		s3.8,5.3-1,14.4s-14.8,34-14.8,34s16.3-10.1,26.8-28.2c10.5-18.2,6.2-26.8,6.2-26.8s-7.2-22.5-5.7-27.8c1.4-5.3-9.6-12.4-9.6-12.4
		L174.2,155.6z"/>
	<path class="st2" d="M101,130.8c0,0,12.4,20.6,25.4,24.4l15.3,2.4c0,0,19.6,4.3,32.6-1.9c12.9-6.2,24.9-21.1,24.9-21.1l-12.9-16.3
		l-46.9-2.4C139.3,115.9,100,122.6,101,130.8z"/>
	<path class="st3" d="M110.6,162.8c0,0-13.9,17.2-26.8,19.6s-36.9,13.4-36.9,13.4S26.8,212.6,33,219.3s10.5-12,25.9-15.8l7.7-4.8
		l11.5-3.8c0,0,21.1-9.6,25.9-13.9c4.8-4.3-0.5,7.7-0.5,7.7s-27.8,27.8-11,37.8c0,0,3.4-1.4,4.3-7.7c1-6.2,7.7-19.2,7.7-19.2
		l33-46.4C137.4,153.3,112.5,157.1,110.6,162.8z"/>
	<path class="st3" d="M144.6,160c0,0,0.5,12-7.2,18.2s-17.2,19.6-17.2,19.6s-22,35.4-11,42.6c11,7.2,8.1-22,8.1-22l9.1-10.1
		c0,0,9.6-19.2,11.5-18.7s9.1-12.9,9.1-12.9s5.3-10.1,3.4-17.2C148.4,152.3,144.6,160,144.6,160z"/>
	<path class="st3" d="M160.4,158.1c0,0-17.7,28.7-13.4,37.8c0,0-18.2,25.4-5.7,30.6c0,0,1.4,1.4,2.4-5.3s3.4-12,3.4-12
		s6.2,26.3,16.3,23s-9.1-24.9-9.1-24.9l-0.5-6.2c0,0,24.9-30.6,20.6-46.4l-8.6,3.4c0,0,5.7,16.8-12,31.6c0,0,1.4-14.4,9.6-30.6
		L160.4,158.1z"/>
	<path class="st3" d="M201.1,136c0,0,11.5,12.9,27.3,19.6C244.2,162.3,260,192,260,192s4.8,23.9-1.4,21.1
		c-6.2-2.9-2.4-23.9-12.4-33.5l-8.1-11.5c0,0-23.9-22.5-44-24.9l-2.4-4.8l7.7-3.8L201.1,136z"/>
	<path class="st4" d="M188.1,145.6c0,0,1-10.1,3.4-7.2c0,0,14.8,21.5,26.3,24.9s28.2,42.1,28.2,42.1s7.2,20.6,1.9,25.4
		c-5.3,4.8-6.2-5.3-6.2-5.3s-7.7-39.3-16.3-45l-5.7-7.2c0,0-10.1-12-16.8-15.3S188.1,145.6,188.1,145.6z"/>
	<path class="st4" d="M177.6,148.9c0,0,2.4-13.9,6.2-8.1c3.8,5.7,4.8,12,9.1,13.9s22,22,22,22s7.2,10.1,5.7,17.2
		c0,0,19.6,33.5,2.9,58.4c0,0-9.1,2.9-7.2-7.2c1.9-10.1,0-34.5,0-34.5s-15.8,35.9-26.8,33c0,0-4.3-3.4,0.5-8.1
		c0,0,25.4-26.3,23.5-37.8c0,0-4.3-12.9-9.6-17.7c0,0-30.6-25.4-39.3-26.3l6.2-9.1c0,0,4.8-2.9,4.8,2.4s6.2,11.5,6.2,11.5
		s24.4,16.8,25.4,18.2C207.3,176.7,189.1,154.7,177.6,148.9z"/>
	<path class="st4" d="M135.9,171.9c0,0,7.2,27.8,20.1,34.9c12.9,7.2,11.5,12,11.5,12s-10.5,6.7-23.5-11c-12.9-17.7-12-33.5-12-33.5
		L135.9,171.9z"/>
	<path class="st4" d="M106.3,138.4l4.8,5.7c0,0,2.9-3.8,3.8-1c1,2.9,0.5,5.7,0.5,5.7s-15.3,9.1-15.8,11s-6.7,5.7-6.7,5.7
		s-15.8,25.9-3.8,44.5c0,0,3.8,10.5-4.3,6.7s-9.6-21.1-9.6-21.1s3.4-27.3,9.1-29.7c0,0-23.5,14.8-18.2,54.6c0,0-0.5,13.4-5.7,5.7
		c-5.3-7.7-2.4-27.8-2.4-27.8s8.1-32.1,17.7-35.9L79,160c0,0,11.5-8.1,17.7-12C102.9,144.2,106.3,138.4,106.3,138.4z"/>
	<path class="st5" d="M122.5,152.3l-3.4-5.7c0,0-8.1,12.4-14.8,12.4s-29.7,0-29.7,0s-46-6.2-59.8,9.6s-12,27.3-12,27.3
		s1,12.4,8.6,15.3c7.7,2.9,9.1-8.1,9.1-8.1s-2.4-22,15.8-30.2s39.7-6.7,39.7-6.7s37.3,0,42.1-7.7C123,150.9,122.5,152.3,122.5,152.3
		z"/>
	<path class="st5" d="M151.7,155.2l3.4-6.2c0,0,2.9,1,3.8,5.7c1,4.8,7.2,13.4,7.2,13.4s11.5,18.2,35.4,11c0,0,33-19.2,57.9-7.2
		s19.6,24.9,19.6,24.9s-7.7,6.7-15.8-2.4c-8.1-9.1-28.7-13.9-28.7-13.9s-13.4,0.5-32.1,6.2s-33-8.6-33-8.6L151.7,155.2z"/>
	<path class="st6" d="M127.3,140.8c0,0-11.5-5.3-13.4-9.6s-12.9-0.5-12.9-0.5s-9.1,9.1-18.7,3.4c-9.6-5.7-13.9-12-13.9-12
		s-2.4-12.9,9.1-16.3s13.9-13.4,13.9-13.4l41.7-44c0,0,6.7-10.1,17.7-8.6s15.3,5.7,15.3,5.7l46.9,34c0,0,5.7,6.7,6.2,10.5
		c0,0,36.9,14.8,36.4,26.3s-10.5,7.2-10.5,7.2s-20.1-3.4-26.8,2.4c-6.7,5.7-13.4,9.1-13.4,9.1s-9.6,2.4-17.7-2.4
		c-8.1-4.8-16.3-7.7-16.3-7.7s-13.4,0-20.6,7.2c-7.2,7.2-18.2,9.6-18.2,9.6s6.7,7.7,11.5,8.6s2.9,5.3,2.9,5.3s-4.8,2.9-4.8,7.2
		s-5.7,9.1-5.7,9.1s0.5,9.6-7.2,9.6c0,0,3.8,9.1-2.9,12.4c0,0-2.9,25.4,25.4,50.3c0,0-23.5,6.2-50.3-38.8c0,0,2.9-13.9,1.4-21.5
		c-1.4-7.7,3.4-10.1,3.4-10.1S124.9,154.7,127.3,140.8z"/>
	<path class="st7" d="M162.3,42.7c0,0,27.3-1.9,39.3,12.9s11.5,23.9,11.5,23.9s8.6,35.9-25.9,29.7S150.3,79,150.3,79
		S144.1,51.8,162.3,42.7z"/>
	<path class="st7" d="M94.8,67.6c2-3.2,5.2-7.3,10.1-11c11.4-8.5,24-8.4,28.2-8.1c0,0-13.9,26.3-13.4,31.6
		c0.5,5.3-6.7,17.7-6.7,17.7s-9.9,13.8-16.8,11.5c-1.5-0.5-2.3-1.7-3.8-3.8c-6.9-10-4.9-22.1-4.3-25.4c0.5-2.8,1.2-5,2.4-7.2
		C91.9,70.3,93.6,68.6,94.8,67.6z"/>
	<ellipse class="st7" cx="131.2" cy="102.9" rx="10.5" ry="10.3"/>
</g>
</svg>
