<?xml version="1.0" encoding="utf-8"?>
<!-- Generator: Adobe Illustrator 23.0.6, SVG Export Plug-In . SVG Version: 6.00 Build 0)  -->
<svg version="1.1" id="Layer_1" xmlns="http://www.w3.org/2000/svg" xmlns:xlink="http://www.w3.org/1999/xlink" x="0px" y="0px"
	 viewBox="0 0 288 288" style="enable-background:new 0 0 288 288;" xml:space="preserve">
<style type="text/css">
	.st0{opacity:0.5;}
	.st1{fill:#6790A0;}
	.st2{fill:#8BCDDE;}
	.st3{fill:#E8EFF6;}
	.st4{fill:#BFC3CD;}
	.st5{fill:#E8E3C6;}
	.st6{fill:#D4CCB0;}
	.st7{fill:#86687C;}
	.st8{fill:#CCABC3;}
	.st9{fill:#3E6275;}
</style>
<g class="st0">
	<path d="M174.7,157c0,0,3.2,23.1,5,26.7c1.8,3.6,1.8,10.9,1.8,10.9s-10.4,32.1-15.4,32.1s4.6,6.3,4.6,6.3l-5.9,28.1
		c0,0,0,7.7,2.3,10.9c2.3,3.2-2.3,7.7-2.3,7.7s-3.7,3.7-8.6-0.5c0,0-5,9.9-14.1,3.7c-9-6.3-9.9-24.9-9.9-24.9l19.9-44.8
		c0,0,18.6-23.5,9.9-53L174.7,157z"/>
	<path d="M110.2,97.6c0.6,3.7,1.7,9.2,3.4,15.8c2.2,8.5,3.6,11.5,4.3,15.1c1.3,6.3,1.1,15.6-6.2,28.6c-1.9,3.2-4.4,6.9-7.8,10.8
		c-3.8,4.3-7.6,7.4-10.8,9.7c-1.6,1.4-4.7,3.6-8.3,5c-1.8,0.7-3.6,1.1-3.9,1.1c-2.3,0.5-4,0.7-4.3,0.7c-2.9,0.3-14.2,3.2-22.3,8.5
		c-13.3,8.8-18.1,24.5-19.1,28.5L27,241.2c0,0-3.2,15.4,2.3,23.1S42,277.1,42,277.1s24.9,19,61.6,2.3c36.7-16.8,35.8-30.4,58.4-41.7
		s42.2-15.4,42.2-15.4s-4.6,29.5,19,41.2c23.5,11.8,29,21.7,29,21.7s7.7-35.3-15.4-58.9c0,0,19,3.7,27.7-9s13.6-15,13.6-15
		s-28.1-13.1-44-10.4c-15.9,2.7-23.1,15.4-23.1,15.4s-36.2-4.6-58.9,5.9c0,0,19-18.2,9.9-53l21.3-45.7c3.8-17.9,2.1-24.4-0.4-27
		c-0.4-0.4-2-1.9-3.7-4.3c-2.6-3.7-2.8-5.6-4-7.6c0,0-2.1-3.5-20-9.1l0,0l-13.1,14.5l-15.9-7.7c-2.4,2.1-5.2,4.9-7.8,8.3
		C113.9,87.6,111.5,93.4,110.2,97.6z"/>
	<path d="M91.5,132.9c0,0,3.5,4.9,0.7,7.6c0,0,15.7,1.8,20.8,19.4c0,0,17.4-2.8,26.8,9.4c0,0,17.4-13.6,31-6
		c0,0,12.5-13.6,23.6-13.6c0,0-0.7-17.8,11.5-20.5c0,0-3.5-13.2,2.5-19.4c0,0-4.6-3.2-3.5-7.6l-21.5-1.1c0,0,1.4,10.4-2.1,17.1
		S163.5,136,157,137c-6.6,1.1-12.5,0.7-12.5,0.7s-18.1-2.2-24-9.2s-5.3-11.2-5.3-11.2c-0.4-0.1-0.9-0.2-1.6-0.3
		c-3.8-0.4-6.9,1.8-10.3,4.5C100.1,124,96,127.6,91.5,132.9z"/>
	<path d="M95.3,84.9c0,0,2.1-2.5,1.1-7.6c0,0,9.7-4.9,10.1-13.9c0,0,10.4-0.7,14.3-10.4c0,0,13.2,4.9,21.2-3.5
		c0,0,12.5,6.9,18.8,0.7c0,0,5.6,6.3,16.7,6c0,0-0.4,8.3,5.3,7.3l-6.3,8l-24.3-9.7l-25.4,7.6l-16,17.1l-3.2,2.1L95.3,84.9z"/>
	<path d="M109.9,96.4c0,0-34.7-15.3-52.1-16.4C40.5,78.9,31,75.8,31,75.8S45.3,88.3,45.6,96c0,0,49-2.1,66,8L109.9,96.4z"/>
	<path d="M179.3,83.2c0,0,12.3-28.8,42.6-48.6c0,0,17.8-13.6,19.8-11.8c0,0-4.9,20.1-3.2,21.9c-9.1,6.3-19,13.5-29,21.9
		c-10.3,8.6-19.4,17.3-27.3,25.4C182.2,91.8,181.2,85.9,179.3,83.2z"/>
	<path d="M45.6,96c0,0,30.6,12.9,36.8,42.8c0,0,0,2.8,2.1,1.4c0,0,21.9-22.9,30.6-22.9l-3.5-13.2C111.7,104,96.3,91.8,45.6,96z"/>
	<path d="M183.2,101.2c0,0,32.3,0.7,38.9,6c0,0,0-0.4-0.4-2.5c0,0-12.5-33.7,16.7-60.1c0,0-58.3,37.9-56.3,47.2L183.2,101.2z"/>
	<path d="M141.2,117.5c0,0,7.3-4.6,8-7.6c0,0,5.6,3.2,9.4,3.9c0,0,1.1,10.4-0.4,10.8c0,0-8.7-4.2-11.5,3.2
		C146.7,127.6,141.9,121.7,141.2,117.5z"/>
	<path d="M146.7,127.6c0,0,1.8,3.5,6.9,2.8c5.3-0.7,4.6-6,4.6-6S148.5,120,146.7,127.6z"/>
	<path d="M31,75.8c0,0,49.3-2.5,76.8,10.8c0,0,12.5-22.9,24-24.7c0,0-14.3-50-10.4-56.3c0,0,12.9,23.3,20.1,52.8
		c0,0,23.6-0.7,33,10.8c0,0,42.4-45.1,68.8-49.3l-1.8,2.8c0,0-44.4,20.8-62.3,60.4c0,0-13.4-16-24.1-14.9l-13,12.7l-15.9-7.7
		c0,0-15.2,15.2-15.4,24.9c0,0-40.5-19.4-54.5-18.4C42.5,80.9,31,75.8,31,75.8z"/>
	<path d="M107.5,150.3c0,0-0.2,3-4.2,2.8c0,0-2-1.1-2,2.2c0,0-0.8,7.1-5.2,8.2c-4.4,1.1-3.3,4.6-3.3,4.6s0.6,7.6-7,7.1
		c0,0-3.8-2.7-5.3-1.4c-1.6,1.3-3,3.3-3,3.3s-4.4,4.6-8.1,2.5c-3.8-2-4.4,0-4.4,0s-3.1,7.8-7.3,6.4s-6.8-1.7-6.8-1.7
		s-3.6,10.6-9.3,10.8s-5.8,0.2-5.8,0.2s1.3,10.9-3.1,12.3c-4.4,1.4-6.5,3-6.5,3s1.4,5.7,2.2,7.3c0.8,1.7-1.4,5.2-1.4,5.2l-4.2,3.6
		c0,0,4.1,5.3,3.6,15c0,0,5.2,2.2,8.9,7.1c3.8,5,36,19.5,86.5-10.8s78.5-25.4,93.9-21.7c0,0-0.8-2.5-8.6-8.9c0,0-4.2,3.8-8.1,0.9
		c-3.9-2.8-3.9-2.8-3.9-2.8s-0.9-0.5-2.4,0.5c-2.3,3.4-6,5-8.7,4.2c-2.1-0.6-4.6-2.8-4.8-3.7c0-0.1-0.1-0.5-0.4-0.7
		c-0.2-0.1-0.5,0-0.6,0.1c-0.5,0.3-0.9,0.7-1.1,0.9c-0.8,0.8-1,1.4-1.9,2.1c-0.3,0.2-0.6,0.4-0.8,0.5c-3.5,1-5.8,0.5-7.1-0.2
		l-3.8-2.2c0,0-2.2,0.6-2,2.7c0.2,2-6.3,4.7-6.3,4.7s-6.1,0.6-8.1-0.6c-2-1.3-2-1.3-2-1.3s-3,8.9-8.6,9.2s-9.3-0.2-9.3-0.2
		s-1.6,1.3-1.6,2.8c0,1.6-3.9,5.3-3.9,5.3s-8.9,3.5-12.5-0.6c0,0-1.6,0-1.4,3.8c0.2,3.8-6,7.3-6,7.3s-7.8,1.7-9.8-0.9
		c0,0-1.3-0.5-1.6,0.8c-0.3,1.3-1.7,2.8-1.7,2.8s-2.8,3.6-7.6,3c-4.9-0.6-7.6-2.4-7.6-2.4s-2.7,6.8-6.7,6.8
		c-4.1,0-10.6-5.2-10.6-5.2s-5.3,6-9.8,2.8c-4.6-3.2-5.3-3.6-5.3-3.6s-0.5,3.3-1.4,2.4c-0.9-0.9-5.2-9-5.2-9s-1.4-7,0.8-13.1
		c2.2-6.1,14.2-29.5,20.4-31.3s42.3-14.5,42.3-14.5s11-11.6,14.1-21.6C111.7,157,108.4,150.6,107.5,150.3z"/>
</g>
<g>
	<path class="st1" d="M169.8,151.9c0,0,3.2,23.1,5,26.7s1.8,10.9,1.8,10.9s-10.4,32.1-15.4,32.1s4.6,6.3,4.6,6.3l-5.9,28.1
		c0,0,0,7.7,2.3,10.9c2.3,3.2-2.3,7.7-2.3,7.7s-3.7,3.7-8.6-0.5c0,0-5,9.9-14.1,3.7c-9-6.3-9.9-24.9-9.9-24.9l19.9-44.8
		c0,0,18.6-23.5,9.9-53L169.8,151.9z"/>
	<path class="st2" d="M105.3,92.4c0.6,3.7,1.7,9.2,3.4,15.8c2.2,8.5,3.6,11.5,4.3,15.1c1.3,6.3,1.1,15.6-6.2,28.6
		c-1.9,3.2-4.4,6.9-7.8,10.8c-3.8,4.3-7.6,7.4-10.8,9.7c-1.6,1.4-4.7,3.6-8.3,5c-1.8,0.7-3.6,1.1-3.9,1.1c-2.3,0.5-4,0.7-4.3,0.7
		c-2.9,0.3-14.2,3.2-22.3,8.5c-13.3,8.8-18.1,24.5-19.1,28.5l-8.1,19.9c0,0-3.2,15.4,2.3,23.1S37,271.9,37,271.9s24.9,19,61.6,2.3
		c36.7-16.8,35.8-30.4,58.4-41.7s42.2-15.4,42.2-15.4s-4.6,29.5,19,41.2c23.5,11.8,29,21.7,29,21.7s7.7-35.3-15.4-58.9
		c0,0,19,3.7,27.7-9s13.6-15,13.6-15s-28.1-13.1-44-10.4c-15.9,2.7-23.1,15.4-23.1,15.4s-36.2-4.6-58.9,5.9c0,0,19-18.2,9.9-53
		l21.3-45.7c3.8-17.9,2.1-24.4-0.4-27c-0.4-0.4-2-1.9-3.7-4.3c-2.6-3.7-2.8-5.6-4-7.6c0,0-2.1-3.5-20-9.1l0,0l-13.1,14.5l-15.9-7.7
		c-2.4,2.1-5.2,4.9-7.8,8.3C109,82.4,106.6,88.3,105.3,92.4z"/>
	<path class="st3" d="M86.6,127.8c0,0,3.5,4.9,0.7,7.6c0,0,15.7,1.8,20.8,19.4c0,0,17.4-2.8,26.8,9.4c0,0,17.4-13.6,31-6
		c0,0,12.5-13.6,23.6-13.6c0,0-0.7-17.8,11.5-20.5c0,0-3.5-13.2,2.5-19.4c0,0-4.6-3.2-3.5-7.6L178.4,96c0,0,1.4,10.4-2.1,17.1
		s-17.8,17.8-24.3,18.8c-6.6,1.1-12.5,0.7-12.5,0.7s-18.1-2.2-24-9.2c-6-7-5.3-11.2-5.3-11.2c-0.4-0.1-0.9-0.2-1.6-0.3
		c-3.8-0.4-6.9,1.8-10.3,4.5C95.2,118.8,91.1,122.5,86.6,127.8z"/>
	<path class="st4" d="M90.4,79.7c0,0,2.1-2.5,1.1-7.6c0,0,9.7-4.9,10.1-13.9c0,0,10.4-0.7,14.3-10.4c0,0,13.2,4.9,21.2-3.5
		c0,0,12.5,6.9,18.8,0.7c0,0,5.6,6.3,16.7,6c0,0-0.4,8.3,5.3,7.3l-6.3,8l-24.3-9.7l-25.4,7.6l-16,17.1l-3.2,2.1L90.4,79.7z"/>
	<path class="st5" d="M105,91.2c0,0-34.7-15.3-52.1-16.4s-26.8-4.2-26.8-4.2s14.3,12.5,14.6,20.1c0,0,49-2.1,66,8L105,91.2z"/>
	<path class="st5" d="M174.4,78c0,0,12.3-28.8,42.6-48.6c0,0,17.8-13.6,19.8-11.8c0,0-4.9,20.1-3.2,21.9c-9.1,6.3-19,13.5-29,21.9
		c-10.3,8.6-19.4,17.3-27.3,25.4C177.2,86.7,176.3,80.7,174.4,78z"/>
	<path class="st6" d="M40.7,90.8c0,0,30.6,12.9,36.8,42.8c0,0,0,2.8,2.1,1.4c0,0,21.9-22.9,30.6-22.9l-3.5-13.2
		C106.8,98.9,91.4,86.7,40.7,90.8z"/>
	<path class="st6" d="M178.3,96.1c0,0,32.3,0.7,38.9,6c0,0,0-0.4-0.4-2.5c0,0-12.5-33.7,16.7-60.1c0,0-58.3,37.9-56.3,47.2
		L178.3,96.1z"/>
	<path class="st7" d="M136.3,112.4c0,0,7.3-4.6,8-7.6c0,0,5.6,3.2,9.4,3.9c0,0,1.1,10.4-0.4,10.8c0,0-8.7-4.2-11.5,3.2
		C141.8,122.5,137,116.5,136.3,112.4z"/>
	<path class="st8" d="M141.8,122.5c0,0,1.8,3.5,6.9,2.8c5.3-0.7,4.6-6,4.6-6S143.6,114.9,141.8,122.5z"/>
	<path class="st9" d="M26.1,70.7c0,0,49.3-2.5,76.8,10.8c0,0,12.5-22.9,24-24.7c0,0-14.3-50-10.4-56.3c0,0,12.9,23.3,20.1,52.8
		c0,0,23.6-0.7,33,10.8c0,0,42.4-45.1,68.8-49.3l-1.8,2.8c0,0-44.4,20.8-62.3,60.4c0,0-13.4-16-24.1-14.9l-13,12.7l-15.9-7.7
		c0,0-15.2,15.2-15.4,24.9c0,0-40.5-19.4-54.5-18.4S26.1,70.7,26.1,70.7z"/>
	<path class="st9" d="M102.6,145.1c0,0-0.2,3-4.2,2.8c0,0-2-1.1-2,2.2c0,0-0.8,7.1-5.2,8.2c-4.4,1.1-3.3,4.6-3.3,4.6s0.6,7.6-7,7.1
		c0,0-3.8-2.7-5.3-1.4c-1.6,1.3-3,3.3-3,3.3s-4.4,4.6-8.1,2.5c-3.8-2-4.4,0-4.4,0s-3.1,7.8-7.3,6.4s-6.8-1.7-6.8-1.7
		s-3.6,10.6-9.3,10.8c-5.8,0.2-5.8,0.2-5.8,0.2s1.3,10.9-3.1,12.3s-6.5,3-6.5,3s1.4,5.7,2.2,7.3c0.8,1.7-1.4,5.2-1.4,5.2l-4.2,3.6
		c0,0,4.1,5.3,3.6,15c0,0,5.2,2.2,8.9,7.1s36,19.5,86.5-10.8s78.5-25.4,93.9-21.7c0,0-0.8-2.5-8.6-8.9c0,0-4.2,3.8-8.1,0.9
		c-3.9-2.8-3.9-2.8-3.9-2.8s-0.9-0.5-2.4,0.5c-2.3,3.4-6,5-8.7,4.2c-2.1-0.6-4.6-2.8-4.8-3.7c0-0.1-0.1-0.5-0.4-0.7
		c-0.2-0.1-0.5,0-0.6,0.1c-0.5,0.3-0.9,0.7-1.1,0.9c-0.8,0.8-1,1.4-1.9,2.1c-0.3,0.2-0.6,0.4-0.8,0.5c-3.5,1-5.8,0.5-7.1-0.2
		l-3.8-2.2c0,0-2.2,0.6-2,2.7c0.2,2-6.3,4.7-6.3,4.7s-6.1,0.6-8.1-0.6c-2-1.3-2-1.3-2-1.3s-3,8.9-8.6,9.2c-5.7,0.3-9.3-0.2-9.3-0.2
		s-1.6,1.3-1.6,2.8c0,1.6-3.9,5.3-3.9,5.3s-8.9,3.5-12.5-0.6c0,0-1.6,0-1.4,3.8c0.2,3.8-6,7.3-6,7.3s-7.8,1.7-9.8-0.9
		c0,0-1.3-0.5-1.6,0.8c-0.3,1.3-1.7,2.8-1.7,2.8s-2.8,3.6-7.6,3c-4.9-0.6-7.6-2.4-7.6-2.4s-2.7,6.8-6.7,6.8s-10.6-5.2-10.6-5.2
		s-5.3,6-9.8,2.8s-5.3-3.6-5.3-3.6s-0.5,3.3-1.4,2.4s-5.2-9-5.2-9s-1.4-7,0.8-13.1c2.2-6.1,14.2-29.5,20.4-31.3
		c6.3-1.8,42.3-14.5,42.3-14.5s11-11.6,14.1-21.6C106.8,151.9,103.5,145.4,102.6,145.1z"/>
</g>
</svg>
