<?xml version="1.0" encoding="utf-8"?>
<!-- Generator: Adobe Illustrator 23.0.6, SVG Export Plug-In . SVG Version: 6.00 Build 0)  -->
<svg version="1.1" id="Layer_1" xmlns="http://www.w3.org/2000/svg" xmlns:xlink="http://www.w3.org/1999/xlink" x="0px" y="0px"
	 viewBox="0 0 288 288" style="enable-background:new 0 0 288 288;" xml:space="preserve">
<style type="text/css">
	.st0{opacity:0.5;}
	.st1{fill:#B1A08D;}
	.st2{fill:#7478AC;}
	.st3{fill:#D1C3B1;}
	.st4{fill:#F0EFF0;}
	.st5{fill:#CB96A3;}
</style>
<g class="st0">
	<path d="M134.5,237.8c0,0-12.8,20.3-26.9,23.4c0,0-19.4,16.3,5.7,22.9c0,0,11.5,6.6,32.6-11s6.2-49.8,6.2-49.8L134.5,237.8z"/>
	<path d="M225.6,239.6c0,0,5.7,10.1,24.7,10.6c0,0,19.4,12.3-1.8,22c0,0-35.7,6.2-47.6-15S225.6,239.6,225.6,239.6z"/>
	<path d="M158.6,86.2c0,0-64.8-12.8-86.4-2.2c0,0,48.9,12.3,64.8,14.1c0,0-40.5,6.2-44.1,13.7c0,0,9.3,2.6,11.9,2.6l-7.5,4.8
		l5.3,0.4l-10.1,7l13.7,0.9c0,0-20.3,16.7-20.3,18.5h6.6c0,0-18.1,26-17.6,30.4l15.9-8.4l-1.8,11l12.3-4.8c0,0-11.9,18.9-11.5,20.7
		l7.5-2.6l-5.6,19.9l4.4-1.8l-0.4,9.7l4.4-4.4l0.4,8.4l7.5-5.3c0,0,7,22.5,8.8,21.6l1.3-5.3l6.6,11.9l3.1-6.2l2.2,5.7l0.9-2.6
		l3.1,6.2l2.6-12.8l4.4,8.4l2.2-5.7l7,15.4l3.5-7.5c0,0,5.3,11,6.6,11c1.3,0-1.3,0-1.3,0l4-4.8l6.2,7c0,0,1.3-6.6,1.8-9.3l4.8,8.4
		l3.1-5.3l4.8,9.3c0,0,5.7-10.6,6.2-12.3l2.2,3.5l2.2-4.8c0,0,5.3,6.2,4.8,8.4c0,0,5.3-7.5,5.3-10.6c0,0,5.3,1.3,4.8,4.8l1.8-6.2
		c0,0,8.8,8.8,8.8,11.9c0,0,2.6-10.6,2.2-14.1l3.1,3.1l0.4-8.4l3.1,5.7c0,0,1.3-8.4,0-9.3c-1.3-0.9,2.6-2.2,2.6-2.2l5.7,8.4l1.3-2.2
		l3.1,4.4l3.5-15.4l4.8,6.2l-1.8-15.4l3.5,2.6l0.9-2.6l5.7,4.4l-1.8-11l5.7,1.8l-6.6-19.4l7.9-3.5l-3.5-8.8l4.8,1.8l-0.9-4.8
		l8.4,2.6c0,0-11.9-14.5-13.7-14.5l6.6,1.8l-3.5-5.3l7.9,1.8c0,0-7.5-10.6-8.8-10.6l4.8-1.3c-2.3-2.2-4.7-4.4-7-6.6
		c4.7-1,5.8-1.5,5.7-1.8c0-0.3-1.2-0.1-2.8-0.8c-0.1-0.1-3.1-1.4-2.9-2.7c0.1-0.9,1.6-1.5,2.6-1.7c0.8-0.1,1.3,0,1.4-0.1
		c0-0.2-2.1-0.4-4.1-1.7c-1.5-1.1-2.9-2.8-2.5-3.6c0.5-0.9,3.6-0.1,3.8-0.1c0.7,0.2,1.2,0.4,1.2,0.3c0-0.1-1.1-0.5-2.4-1.2
		c-3.7-1.8-4-2.6-4.1-3c-0.1-0.3,0.1-0.7,0.3-1.7c0.4-1.2,0.7-2.3,1.3-3.3c1.2-1.7,2.7-2.1,2.6-2.5c-0.1-0.4-1.9,0.4-4.1,0.2
		c-2.9-0.3-4.9-1.9-5.6-2.5c-1.3-1.1-2.9-2.4-3.1-4.4c-0.3-2.3,0.9-3.9,0.9-3.9c0.3-0.5,0.9-1.1,0.7-1.2c-0.1-0.1-0.4,0.1-0.8,0.2
		c-0.5,0.2-1,0.1-2.1-0.1c-0.9-0.2-1.5-0.3-2.4-0.6c-1.5-0.5-1.4-0.7-3-1.2c-1.2-0.5-2.4-1.1-3.6-1.5c-0.2-0.1-0.7-0.2-0.7-0.5
		c-0.1-0.4,0.5-0.8,1-1.2c2.5-1.8,1.9-1.8,3.6-2.9c1.2-0.8,2-1.1,2-1.2c-0.1-0.1-1.2,0.2-1.6,0.3c-2.3,0.7-4.7,0.1-8.6-1.2
		c-3.7-1.1-6.8-2.2-9.3-3.1c1.9-2.2,3.8-4.4,5.7-6.6h-7l2.2-7l-16.7,10.6l4.8-11.9l-4,2.2l1.3-12.8c0,0-14.5,8.4-14.5,11
		c0,0-4.8-12.3-6.6-11.5L184.2,84c0,0-43.2-40.5-47.6-38.8L158.6,86.2z"/>
	<path d="M257.4,180.4c0,0-2.2,4.8,0,7.5c0,0-11.5,0-10.6,3.1s5.3,9.7,5.3,9.7s-4.4,2.2-2.2,4c2.2,1.8,15.9,1.8,15.9-6.6
		C265.8,198.1,271.1,185.4,257.4,180.4z"/>
	<path d="M178.6,190.6c0,0,8.4-15,18.1-6.6c0,0,3.1,3.5,1.8,4.8c-1.3,1.3-6.6,2.2-6.6,2.2l6.2,5.3c0,0,4.8,3.1-8.4,4.8l5.3,6.6
		c0,0-12.8,5.3-16.7-4.8C174.1,192.9,178.6,190.6,178.6,190.6z"/>
	<path d="M240.6,141.8c0,0,14.1,3.1,8.8,17.2l-12.3-11L240.6,141.8z"/>
	<path d="M221.6,135.4c8.5-3.3,16.1-1.6,18.5,2.6c1.8,3.2,0.3,7.1,0,7.9c-2.2,5.8-8.9,9.5-17,9.9c0,0-16.3,1.3-11-12.8
		c0.4-0.9,0.9-1.8,1.7-2.8C216.4,136.9,219.9,135.8,221.6,135.4z"/>
	<path d="M214.1,148.8c0,0-6.6-4.4-6.6,11c0,0,4,11.5,11.5,10.6l1.8-15.9C220.9,154.6,219.5,148.4,214.1,148.8z"/>
	<path d="M201.5,100.8c0,0-4.4-37.5-54.2-74c0,0-21.6,1.8-29.1-14.1c0,0-0.4-12.3,20.7-1.8c0,0,13.2,9.7,12.8,13.2
		C151.6,24.1,203.1,60.7,201.5,100.8z"/>
	<path d="M187.4,109.6c0,0-50.2-46.3-111.5-40.1c0,0-22,11.5-37.9,4.4s7-14.1,7-14.1s22.5-4,30.8,3.5
		C75.9,63.3,160.9,64.7,187.4,109.6z"/>
</g>
<g>
	<path class="st1" d="M128.5,233.5c0,0-12.8,20.3-26.9,23.4c0,0-19.4,16.3,5.7,22.9c0,0,11.5,6.6,32.6-11s6.2-49.8,6.2-49.8
		L128.5,233.5z"/>
	<path class="st1" d="M219.7,235.3c0,0,5.7,10.1,24.7,10.6c0,0,19.4,12.3-1.8,22c0,0-35.7,6.2-47.6-15S219.7,235.3,219.7,235.3z"/>
	<path class="st2" d="M152.7,82c0,0-64.8-12.8-86.4-2.2c0,0,48.9,12.3,64.8,14.1c0,0-40.5,6.2-44.1,13.7c0,0,9.3,2.6,11.9,2.6
		l-7.5,4.8l5.3,0.4l-10.1,7l13.7,0.9c0,0-20.3,16.7-20.3,18.5h6.6c0,0-18.1,26-17.6,30.4l15.9-8.4l-1.8,11l12.3-4.8
		c0,0-11.9,18.9-11.5,20.7l7.5-2.6L85.8,208l4.4-1.8l-0.4,9.7l4.4-4.4l0.4,8.4l7.5-5.3c0,0,7,22.5,8.8,21.6l1.3-5.3l6.6,11.9
		l3.1-6.2l2.2,5.7l0.9-2.6l3.1,6.2l2.6-12.8l4.4,8.4l2.2-5.7l7,15.4l3.5-7.5c0,0,5.3,11,6.6,11s-1.3,0-1.3,0l4-4.8l6.2,7
		c0,0,1.3-6.6,1.8-9.3l4.8,8.4l3.1-5.3l4.8,9.3c0,0,5.7-10.6,6.2-12.3l2.2,3.5l2.2-4.8c0,0,5.3,6.2,4.8,8.4c0,0,5.3-7.5,5.3-10.6
		c0,0,5.3,1.3,4.8,4.8l1.8-6.2c0,0,8.8,8.8,8.8,11.9c0,0,2.6-10.6,2.2-14.1l3.1,3.1l0.4-8.4l3.1,5.7c0,0,1.3-8.4,0-9.3
		s2.6-2.2,2.6-2.2l5.7,8.4l1.3-2.2l3.1,4.4l3.5-15.4l4.8,6.2l-1.8-15.4l3.5,2.6l0.9-2.6l5.7,4.4l-1.8-11l5.7,1.8l-6.6-19.4l7.9-3.5
		l-3.5-8.8l4.8,1.8l-0.9-4.8l8.4,2.6c0,0-11.9-14.5-13.7-14.5l6.6,1.8l-3.5-5.3l7.9,1.8c0,0-7.5-10.6-8.8-10.6l4.8-1.3
		c-2.3-2.2-4.7-4.4-7-6.6c4.7-1,5.8-1.5,5.7-1.8c0-0.3-1.2-0.1-2.8-0.8c-0.1-0.1-3.1-1.4-2.9-2.7c0.1-0.9,1.6-1.5,2.6-1.7
		c0.8-0.1,1.3,0,1.4-0.1c0-0.2-2.1-0.4-4.1-1.7c-1.5-1.1-2.9-2.8-2.5-3.6c0.5-0.9,3.6-0.1,3.8-0.1c0.7,0.2,1.2,0.4,1.2,0.3
		c0-0.1-1.1-0.5-2.4-1.2c-3.7-1.8-4-2.6-4.1-3c-0.1-0.3,0.1-0.7,0.3-1.7c0.4-1.2,0.7-2.3,1.3-3.3c1.2-1.7,2.7-2.1,2.6-2.5
		c-0.1-0.4-1.9,0.4-4.1,0.2c-2.9-0.3-4.9-1.9-5.6-2.5c-1.3-1.1-2.9-2.4-3.1-4.4c-0.3-2.3,0.9-3.9,0.9-3.9c0.3-0.5,0.9-1.1,0.7-1.2
		c-0.1-0.1-0.4,0.1-0.8,0.2c-0.5,0.2-1,0.1-2.1-0.1c-0.9-0.2-1.5-0.3-2.4-0.6c-1.5-0.5-1.4-0.7-3-1.2c-1.2-0.5-2.4-1.1-3.6-1.5
		c-0.2-0.1-0.7-0.2-0.7-0.5c-0.1-0.4,0.5-0.8,1-1.2c2.5-1.8,1.9-1.8,3.6-2.9c1.2-0.8,2-1.1,2-1.2c-0.1-0.1-1.2,0.2-1.6,0.3
		c-2.3,0.7-4.7,0.1-8.6-1.2c-3.7-1.1-6.8-2.2-9.3-3.1c1.9-2.2,3.8-4.4,5.7-6.6h-7l2.2-7l-16.7,10.6l4.8-11.9l-4,2.2l1.3-12.8
		c0,0-14.5,8.4-14.5,11c0,0-4.8-12.3-6.6-11.5l-2.6,10.6c0,0-43.2-40.5-47.6-38.8L152.7,82z"/>
	<path class="st3" d="M251.4,176.2c0,0-2.2,4.8,0,7.5c0,0-11.5,0-10.6,3.1s5.3,9.7,5.3,9.7s-4.4,2.2-2.2,4s15.9,1.8,15.9-6.6
		C259.8,193.9,265.1,181.1,251.4,176.2z"/>
	<path class="st3" d="M172.6,186.4c0,0,8.4-15,18.1-6.6c0,0,3.1,3.5,1.8,4.8s-6.6,2.2-6.6,2.2l6.2,5.3c0,0,4.8,3.1-8.4,4.8l5.3,6.6
		c0,0-12.8,5.3-16.7-4.8C168.1,188.6,172.6,186.4,172.6,186.4z"/>
	<path class="st4" d="M234.7,137.5c0,0,14.1,3.1,8.8,17.2l-12.3-11L234.7,137.5z"/>
	<path class="st5" d="M215.6,131.1c8.5-3.3,16.1-1.6,18.5,2.6c1.8,3.2,0.3,7.1,0,7.9c-2.2,5.8-8.9,9.5-17,9.9c0,0-16.3,1.3-11-12.8
		c0.4-0.9,0.9-1.8,1.7-2.8C210.4,132.7,213.9,131.5,215.6,131.1z"/>
	<path class="st4" d="M208.2,144.5c0,0-6.6-4.4-6.6,11c0,0,4,11.5,11.5,10.6l1.8-15.9C214.9,150.3,213.5,144.1,208.2,144.5z"/>
	<path class="st4" d="M195.5,96.5c0,0-4.4-37.5-54.2-74c0,0-21.6,1.8-29.1-14.1c0,0-0.4-12.3,20.7-1.8c0,0,13.2,9.7,12.8,13.2
		C145.7,19.8,197.2,56.4,195.5,96.5z"/>
	<path class="st4" d="M181.4,105.3c0,0-50.2-46.3-111.5-40.1c0,0-22,11.5-37.9,4.4s7-14.1,7-14.1s22.5-4,30.8,3.5
		C69.9,59,154.9,60.4,181.4,105.3z"/>
</g>
</svg>
