<?xml version="1.0" encoding="utf-8"?>
<!-- Generator: Adobe Illustrator 23.0.6, SVG Export Plug-In . SVG Version: 6.00 Build 0)  -->
<svg version="1.1" id="Layer_1" xmlns="http://www.w3.org/2000/svg" xmlns:xlink="http://www.w3.org/1999/xlink" x="0px" y="0px"
	 viewBox="0 0 288 288" style="enable-background:new 0 0 288 288;" xml:space="preserve">
<style type="text/css">
	.st0{opacity:0.5;}
	.st1{fill:#E3DCEB;}
	.st2{fill:#AFA6B5;}
	.st3{fill:#9D96A2;}
	.st4{fill:#B3ADAB;}
	.st5{fill:#FFFFFF;}
	.st6{fill:#7A7E9A;}
	.st7{fill:#BAB8D3;}
</style>
<g class="st0">
	<path d="M85.2,145.6c0,0-49.2-56.2-65.6-47.8s0.9,33.3,0.9,33.3S43,155.5,44.4,163c1.4,7.5,8.4,19.2,8.4,19.2
		c2.3,2.9,6.1,6.9,11.5,10.5c2.9,2,14.7,9.8,29.3,8.7c9.3-0.7,20.2-5.2,20.2-5.2l0,0L103,168.6L85.2,145.6z"/>
	<path d="M134.9,174.8c0,0,8.9-42.7,84.4-84.8s62.3,8,62.3,8s-9.4,25.8-29.5,41.2l-4.2,25.3c0,0-7.5,24.8-36.1,31.9l-64.7-3.7
		l-8.9-1.9L134.9,174.8z"/>
	<path d="M104.4,199.6c0,0-40.3,4.2-27.7,19.2c0,0,6.1,7,8.4,8c0,0-10.3,6.1-2.3,10.8c8,4.7,10.3-7,10.3-7s17.3,6.6,23-5.2
		c5.6-11.7,5.2-15.9,5.2-15.9L104.4,199.6z"/>
	<path d="M149.4,193c0,0,46.4-9.4,68.9,8.4c0,0,4.7,11.2-8.9,19.7c0,0,17.3,11.2,8.4,16.9c-8.9,5.6-14.5-10.3-14.5-10.3
		s-10.8,17.3-33.7-5.6C146.7,199.1,149.4,193,149.4,193z"/>
	<path d="M121.3,209.5c0,0-3.7,37,32.8,40.3c0,0,5.6,1.4,10.8-8.9s4.2-20.6,4.2-20.6s-0.9-24.4-23.9-28.1L121.3,209.5z"/>
	<path d="M115.2,208.5l-3.7,0.5c0,0,2.8,2.3,5.6,1.9C119.9,210.4,115.2,208.5,115.2,208.5z"/>
	<path d="M104.2,198.6c0,0,3.5,7,6.1,6.6s3.3,2.6,3.3,2.6S102.8,212.6,104.2,198.6z"/>
	<path d="M104.2,187.6c0,0-6.8,19.9,15.7,22.3c22.5,2.4,24.8-13.4,24.8-13.4s6.1-19.5-16.9-25.1S104.2,187.6,104.2,187.6z"/>
	<path d="M138.1,194.5c0,0,3.3-1.9,3.3,1.9l2.3,0.9c0,0,2.6,13.8-9.4,12.7c0,0-5.4,0.7-5.6-0.9C128.8,209,140.7,203.6,138.1,194.5z"
		/>
	<path d="M138.6,195.6c0,0-0.2-5.4-1.4-4.2c-1.2,1.2-3.5,15-10.3,16.6c0,0-0.5,1.9,2.3,2.1C129.2,210.1,139.1,206.1,138.6,195.6z"/>
	<path d="M110.3,198.9c0,0-2.3-4.7-3-3c-0.7,1.7,1.4,10.3,1.4,10.3L110.3,198.9z"/>
	<path d="M114.5,203.4c0,0-8.9-3.5-10.8-18.5c0,0-21.1-36.1-18.7-40.1c2.3-4,10.1,18.3,19,21.1c0,0,6.1-50.9,18.5-62.1
		c0,0,1.2,0.5,0.7,3.7c-0.5,3.3-8.2,50.6-5.6,53.9c0,0,18.5-28.6,20.2-26.5c1.7,2.1-11,32.1-9.6,34.2c1.4,2.1-4.9,23.9-5.9,26
		C121.3,197.2,116.6,204.2,114.5,203.4z"/>
	<path d="M117.8,196.2c0,0,3.7-3.7,4.5-0.2c0.7,3.5-2.6,9.8-2.6,9.8L117.8,196.2z"/>
</g>
<g>
	<path class="st1" d="M80.2,138.4c0,0-49.2-56.2-65.6-47.8s0.9,33.3,0.9,33.3s22.5,24.4,23.9,31.9c1.4,7.5,8.4,19.2,8.4,19.2
		c2.3,2.9,6.1,6.9,11.5,10.5c2.9,2,14.7,9.8,29.3,8.7c9.3-0.7,20.2-5.2,20.2-5.2l0,0L98,161.4L80.2,138.4z"/>
	<path class="st1" d="M129.9,167.5c0,0,8.9-42.7,84.4-84.8s62.3,8,62.3,8s-9.4,25.8-29.5,41.2l-4.2,25.3c0,0-7.5,24.8-36.1,31.9
		l-64.7-3.7l-8.9-1.9L129.9,167.5z"/>
	<path class="st2" d="M99.4,192.3c0,0-40.3,4.2-27.7,19.2c0,0,6.1,7,8.4,8c0,0-10.3,6.1-2.3,10.8s10.3-7,10.3-7s17.3,6.6,23-5.2
		c5.6-11.7,5.2-15.9,5.2-15.9L99.4,192.3z"/>
	<path class="st2" d="M144.4,185.7c0,0,46.4-9.4,68.9,8.4c0,0,4.7,11.2-8.9,19.7c0,0,17.3,11.2,8.4,16.9
		c-8.9,5.6-14.5-10.3-14.5-10.3s-10.8,17.3-33.7-5.6S144.4,185.7,144.4,185.7z"/>
	<path class="st3" d="M116.3,202.2c0,0-3.7,37,32.8,40.3c0,0,5.6,1.4,10.8-8.9c5.2-10.3,4.2-20.6,4.2-20.6s-0.9-24.4-23.9-28.1
		L116.3,202.2z"/>
	<path class="st4" d="M110.2,201.2l-3.7,0.5c0,0,2.8,2.3,5.6,1.9C114.9,203.1,110.2,201.2,110.2,201.2z"/>
	<path class="st5" d="M99.2,191.4c0,0,3.5,7,6.1,6.6s3.3,2.6,3.3,2.6S97.8,205.4,99.2,191.4z"/>
	<path class="st6" d="M99.2,180.4c0,0-6.8,19.9,15.7,22.3s24.8-13.4,24.8-13.4s6.1-19.5-16.9-25.1S99.2,180.4,99.2,180.4z"/>
	<path class="st4" d="M133.1,187.2c0,0,3.3-1.9,3.3,1.9l2.3,0.9c0,0,2.6,13.8-9.4,12.7c0,0-5.4,0.7-5.6-0.9
		C123.8,201.7,135.7,196.3,133.1,187.2z"/>
	<path class="st5" d="M133.6,188.3c0,0-0.2-5.4-1.4-4.2s-3.5,15-10.3,16.6c0,0-0.5,1.9,2.3,2.1C124.2,202.9,134.1,198.9,133.6,188.3
		z"/>
	<path class="st5" d="M105.3,191.6c0,0-2.3-4.7-3-3s1.4,10.3,1.4,10.3L105.3,191.6z"/>
	<path class="st7" d="M109.5,196.1c0,0-8.9-3.5-10.8-18.5c0,0-21.1-36.1-18.7-40.1c2.3-4,10.1,18.3,19,21.1c0,0,6.1-50.9,18.5-62.1
		c0,0,1.2,0.5,0.7,3.7c-0.5,3.3-8.2,50.6-5.6,53.9c0,0,18.5-28.6,20.2-26.5c1.7,2.1-11,32.1-9.6,34.2c1.4,2.1-4.9,23.9-5.9,26
		C116.3,190,111.6,197,109.5,196.1z"/>
	<path class="st5" d="M112.8,189c0,0,3.7-3.7,4.5-0.2c0.7,3.5-2.6,9.8-2.6,9.8L112.8,189z"/>
</g>
</svg>
