<?xml version="1.0" encoding="utf-8"?>
<!-- Generator: Adobe Illustrator 23.0.6, SVG Export Plug-In . SVG Version: 6.00 Build 0)  -->
<svg version="1.1" id="Layer_1" xmlns="http://www.w3.org/2000/svg" xmlns:xlink="http://www.w3.org/1999/xlink" x="0px" y="0px"
	 viewBox="0 0 288 288" style="enable-background:new 0 0 288 288;" xml:space="preserve">
<style type="text/css">
	.st0{opacity:0.5;}
	.st1{fill:#3D544C;}
	.st2{fill:#5F4F41;}
	.st3{fill:#C37077;}
	.st4{fill:#C8878C;}
	.st5{fill:#4D7B80;}
	.st6{fill:#5B918D;}
	.st7{fill:#5F785A;}
	.st8{fill:#9A876B;}
	.st9{fill:#C1A779;}
	.st10{fill:#C4A3A7;}
	.st11{fill:#E8CCCD;}
	.st12{fill:#90B8B5;}
	.st13{fill:#839C7D;}
	.st14{fill:#A35F5E;}
	.st15{fill:#C4AEBC;}
	.st16{fill:#D3D4D3;}
	.st17{fill:#FFFFFF;}
</style>
<g class="st0">
	<path d="M97.5,127.7l3.5-4l10.5-5l3.5,1.5c0,0,1-4.5,4-4l5,1.5l42.5,3.5l4.5-2.5l4,3l4.5-1.5l6.5,3l-6,3.5l10-2l2,3.5l-9,5.5
		l-21,8.5l-37-6l-24.5-4.5L97.5,127.7z"/>
	<path d="M128.4,94.7c0,0-10,27.5,0,38.5l15,7.5l21.5-5.5c0,0,9.5-20-1.5-43C163.4,92.2,147.4,75.2,128.4,94.7z"/>
	<path d="M143.9,65.2c0,0-5-13.5-25.5-11.5s-33,12.5-33,12.5l43.5,8h15.5l22.5-0.5c0,0,18-9,40.5-3c0,0-27-29.5-54.5-9L143.9,65.2z"
		/>
	<path d="M128.4,70.7c0,0-52-17-78.5,11l-1,4.5l-3.5,2.5c0,0-3.5,16,1,16c0,0,27-19,29.5-18.5c0,0-20.5,18.5-16,22l2.5,1.5l2-2
		l-0.5,4l21,8.5l3.5-3v3.5l13,6.5c0,0,17.5-36.5,45-40c0,0,14.5-9.5,45.5,41l7-3l0.5-3.5l3.5,3.5l28-10.5l-0.5-4l3.5,1.5l3.5-4.5
		c0,0-4-9-8-10.5c0,0,14,6,14.5,8.5l2.5-7.5l-2.5-3l3,1c0,0-2.5-16-26-23c0,0-29-9.5-52.5-2L128.4,70.7z"/>
	<path d="M43,170.7c0,0-10.5,14-8.5,26.5c0,0-3.5,2.5,0,5.5c0,0,1.5,14.5,10,18l-3.5,8c0,0,12,6.5,25.5,4.5L64,187.7l11.5-23
		l-4.5-15l-18.5,0.5L43,170.7z"/>
	<path d="M246.4,169.2c0,0,30.5,28,2,54.5l-2.5,7c0,0-8,4.5-10.5,3s-6,0-6,0l-4.5-60.5l-2.5-21.5l22.5,9L246.4,169.2z"/>
	<path d="M73,166.2c0,0-23.5,20.5-15,46c0,0-6,5,2,9c0,0,10,19,16.5,22.5l1,8l17.5,4c0,0,12-2.5,13-4.5s7-9,6-17.5s-9.5-18-9.5-18
		l-17-59l-11-6.5L73,166.2z"/>
	<path d="M225.4,163.7c0,0,24,45.5-2,75.5c0,0,3,4.5-5,7.5l-9.5,15l-5,2c0,0-6,5.5-17.5,1.5c0,0-14,0.5-19-6.5l3.5-27l27-46l7.5-36
		l20.5,7.5L225.4,163.7z"/>
	<path d="M120.9,134.2c0,0-13.5-7-17.5-5.5l-1,4l-3-6.5l-8.5,0.5v2.5l-3.5-5l-12,2.5l4.5,5l-7-5l-10.5,1l7.5,7.5l-10.5-6.5l-9.5,1.5
		l3,4.5l-14-4l-5,4.5l2.5,1.5l-7,5.5l3,1.5l-12.5-1l-7,5.5l7,2.5l-13,7v9l4-1.2l4.5-1.3l-4,5.5l8.5,2.5l9-10.5l-3,8l11,3l7.5-16
		l-1.5,14l8-1l2-5.5l2,6l7-2l3-9.5l1,7l9.5-1l4.5-6.5v6.5h7l34-17V134.2z"/>
	<path d="M171.4,134.7c0,0,8.5-5,10-3.5l1.5,2.5l1-4.5l15-1.5l1,3.5l3-3.5l7,0.5l0.5,3l2.5-2.5l10.5,0.5l0.5,3.5l2.5-2l14,2l-3,4.5
		l9-2.5c0,0,13.5,3,12.5,5.5l-3.5,2c0,0,34,10.5,32,13l-6,5.5l-13.5-5l15.5,12l-9,3l-10.5-6.5l5,7l-10-1l-9.5-10l4,8l-7,1l-6-7l2,7
		h-6.5l-9-10l2.5,6.5l-10,1l-7-11.5l0.5,8l-9.5-2l-22.5-9.5l-13.5-6L171.4,134.7z"/>
	<polygon points="128.9,67.2 130.9,62.7 134.9,66.2 137.9,61.2 143.9,65.2 147.4,57.7 154.9,64.7 159.4,60.2 162.4,65.7 167.4,64.2 
		169.9,68.2 161.9,76.7 138.9,74.7 128.4,70.7 	"/>
	<path d="M128.9,74.2l-2-9.5l6,7l2-5.5l5.5,5l3.5-6l4.5,6.5l6.5-7l3.5,6.5l4-5.5l3.5,4.5l4-2l-3.5,8c0,0-17,5.5-17,10l-3,1
		C146.4,87.2,141.4,76.7,128.9,74.2z"/>
	<path d="M105,55.7c0,0-3.5,8.5,0,7s8.5-7,8.5-7S115,53.2,105,55.7z"/>
	<path d="M128.9,54.7c0,0-9.5,1.5-6.5,3s9.5-1.5,9.5-1.5S132.4,53.7,128.9,54.7z"/>
	<path d="M111.5,62.2c0,0-2,3,0.5,2.5S111.5,62.2,111.5,62.2z"/>
	<path d="M175.9,58.2l-4.5,2.5c0,0,2,6,6,4.5s5-4.5,5-4.5S177.9,57.7,175.9,58.2z"/>
	<polygon points="187.9,67.2 190.9,65.2 196.4,67.7 	"/>
	<path d="M74,68.7c0,0-4.5,3.5,2.5,5l0.5,3l12-5.5c0,0,2-3,0.5-4S74,68.7,74,68.7z"/>
	<path d="M71,79.2c0,0-16,6.5-11.5,9.5s12-4.5,12-4.5S78,77.7,71,79.2z"/>
	<path d="M114,74.7c0,0-5,7,0.5,5s6-4,6-4S116.5,73.7,114,74.7z"/>
	<polygon points="104.5,80.2 93,85.7 91,96.2 97,101.2 103.5,96.7 110,83.2 	"/>
	<path d="M125.9,87.2c0,0,2.5,1,4.5,0c2-1,2,5.5,2,5.5s-9.5,4.5-10,6.5l-5-4.5c0,0,1.5-3,2-5.5C119.9,86.7,125.9,87.2,125.9,87.2z"
		/>
	<path d="M168.4,77.2c0,0-6,6.5,1.5,5s5.5-5,5.5-5H168.4z"/>
	<path d="M191.4,89.2l7,3.5C198.4,92.7,202.9,84.2,191.4,89.2z"/>
	<path d="M185.9,109.2l5.5-8l9-1c0,0,2.5,3,1,5s1.5,4,1.5,4s-6,8-9,7S185.9,109.2,185.9,109.2z"/>
	<path d="M185.4,70.2c0,0-1,3,3,1.5S185.4,70.2,185.4,70.2z"/>
	<path d="M215.4,74.2c0,0-16,0.5-13,3s11,2.5,11,2.5l-1.5,2.5l5,3.5c0,0,13,0.5,8.5-4S215.4,74.2,215.4,74.2z"/>
	<path d="M231.4,90.2c0,0-6.5-2-5,1s7,2.5,7,2.5S235.4,89.7,231.4,90.2z"/>
	<path d="M111,146.7c0,0-29.5-7-31-2.5s6.5,23,6.5,23S68,186.2,70,191.7s6.5,14.5,6.5,14.5s13,2,16.5,9s8.5,10.5,8.5,10.5l20,13
		c0,0,8,2.5,21.5,1.5c0,0,21.5,2.5,27.5-1.5s18-14,18-14l5.5-9.5c0,0,15-10.5,17-10.5s9-15.5,9-15.5s-14-22-16.5-21.5l7-23.5
		c0,0-21-4-34,1.5L111,146.7z"/>
	<polygon points="141.4,137.7 121.9,132.2 117.5,139.7 111,141.7 111,149.7 108.5,149.2 112,159.2 115.8,157.9 123.4,155.2 
		117.5,160.7 120.9,169.7 132.9,162.7 125.9,172.2 128.9,177.2 135.9,170.7 131.9,178.2 143.4,184.7 144.4,175.7 147.9,182.7 
		155.9,175.7 152.9,171.2 159.4,175.2 164.9,171.2 159.9,160.7 168.4,168.2 171.9,165.7 167.9,162.2 172.9,163.7 177.9,157.7 
		168.9,152.7 179.4,154.7 175.4,143.7 169.4,134.2 148.4,139.2 145.4,136.7 	"/>
	<path d="M83.5,148.7c0,0,17,11,17,13.5c0,0-10,2.5-10.5,4L83.5,148.7z"/>
	<path d="M186.4,160.2c0,0,17.5-15,20-14.5l-7,18.5L186.4,160.2z"/>
	<path d="M109,205.2c0,0-6.5,17.5,16,24s50-7,50-7l2.5-18l11.5-2.5l-3,16c0,0-8,10-19,18c0,0-31.5,0.5-40,0.5s-24.5-16.5-24.5-16.5
		l-3-16.5L109,205.2z"/>
	<path d="M109,205.2c0,0,15.5,1.5,19,6s25,3,25,3s12-5,11.5-6.5s13-3.5,13-3.5s12.5,22-18.5,25.5s-42.5-4-42.5-4
		S103.5,219.2,109,205.2z"/>
	<path d="M44.5,225.7c0,0-5.5,5-3.5,6s6.5,0,6.5,0L44.5,225.7z"/>
	<path d="M58.5,228.7c0,0-6,0.5-4,3.5s2,3,2,3s5.5-0.5,4.5-3S58.5,228.7,58.5,228.7z"/>
	<path d="M247.4,226.7c0,0,4.5,5,4,6.5s-5.5-2.5-5.5-2.5L247.4,226.7z"/>
	<path d="M235.4,233.7c0,0-2-5.5-6,0l3.5,3.5L235.4,233.7z"/>
	<path d="M186.9,258.2c0,0-6.5,0.5-6,5.5s3,7.5,3,7.5l5-4C188.9,267.2,189.9,257.7,186.9,258.2z"/>
	<path d="M204.9,258.7c0,0-8.5,5-5,7s6,5,6,5S207.9,260.2,204.9,258.7z"/>
	<path d="M169.4,253.7c0,0-7.5,9-5.5,10s8-2,8-2S170.9,253.7,169.4,253.7z"/>
	<path d="M108,246.7l2.5,7.5l-6-2.5C104.5,251.7,106,245.2,108,246.7z"/>
	<path d="M83.5,252.7c0,0-4.5-6.5-5.5-4.5s-2,5.5-2,5.5L83.5,252.7z"/>
	<path d="M93,250.7c0,0-4,1.5-2,5c2,3.5,2,3.5,2,3.5l4-4.5C97,254.7,94.5,249.7,93,250.7z"/>
	<path d="M185.4,202.2c0,0,2,6.5,3.5,5.5s3-6,3-6L185.4,202.2z"/>
	<path d="M97,202.7c0,0,1.5,8,3.5,6.5s3-5.5,3-5.5L97,202.7z"/>
	<path d="M171.8,231.9c0,0-2-5,0.5-5.5s3,4,3,4L171.8,231.9z"/>
	<path d="M168.4,233.7c0,0-3-2-0.5-6l4.5,4.5L168.4,233.7z"/>
	<path d="M114.5,230.5c0,0,0.5-1.5,2-3s1.5,5.5,1.5,5.5L114.5,230.5z"/>
	<path d="M118.5,233.3c0,0-0.5-7.5,2.5-6s0,7.5,0,7.5L118.5,233.3z"/>
</g>
<g>
	<path class="st1" d="M92.5,122.6l3.5-4l10.5-5l3.5,1.5c0,0,1-4.5,4-4l5,1.5l42.5,3.5l4.5-2.5l4,3l4.5-1.5l6.5,3l-6,3.5l10-2l2,3.5
		l-9,5.5l-21,8.5l-37-6l-24.5-4.5L92.5,122.6z"/>
	<path class="st2" d="M123.4,89.6c0,0-10,27.5,0,38.5l15,7.5l21.5-5.5c0,0,9.5-20-1.5-43C158.4,87.1,142.4,70.1,123.4,89.6z"/>
	<path class="st3" d="M138.9,60.1c0,0-5-13.5-25.5-11.5s-33,12.5-33,12.5l43.5,8h15.5l22.5-0.5c0,0,18-9,40.5-3c0,0-27-29.5-54.5-9
		L138.9,60.1z"/>
	<path class="st4" d="M123.4,65.6c0,0-52-17-78.5,11l-1,4.5l-3.5,2.5c0,0-3.5,16,1,16c0,0,27-19,29.5-18.5c0,0-20.5,18.5-16,22
		l2.5,1.5l2-2l-0.5,4l21,8.5l3.5-3v3.5l13,6.5c0,0,17.5-36.5,45-40c0,0,14.5-9.5,45.5,41l7-3l0.5-3.5l3.5,3.5l28-10.5l-0.5-4
		l3.5,1.5l3.5-4.5c0,0-4-9-8-10.5c0,0,14,6,14.5,8.5l2.5-7.5l-2.5-3l3,1c0,0-2.5-16-26-23c0,0-29-9.5-52.5-2L123.4,65.6z"/>
	<path class="st5" d="M38,165.6c0,0-10.5,14-8.5,26.5c0,0-3.5,2.5,0,5.5c0,0,1.5,14.5,10,18l-3.5,8c0,0,12,6.5,25.5,4.5L59,182.6
		l11.5-23l-4.5-15l-18.5,0.5L38,165.6z"/>
	<path class="st5" d="M241.4,164.1c0,0,30.5,28,2,54.5l-2.5,7c0,0-8,4.5-10.5,3s-6,0-6,0l-4.5-60.5l-2.5-21.5l22.5,9L241.4,164.1z"
		/>
	<path class="st6" d="M68,161.1c0,0-23.5,20.5-15,46c0,0-6,5,2,9c0,0,10,19,16.5,22.5l1,8l17.5,4c0,0,12-2.5,13-4.5s7-9,6-17.5
		s-9.5-18-9.5-18l-17-59l-11-6.5L68,161.1z"/>
	<path class="st6" d="M220.4,158.6c0,0,24,45.5-2,75.5c0,0,3,4.5-5,7.5l-9.5,15l-5,2c0,0-6,5.5-17.5,1.5c0,0-14,0.5-19-6.5l3.5-27
		l27-46l7.5-36l20.5,7.5L220.4,158.6z"/>
	<path class="st7" d="M115.9,129.1c0,0-13.5-7-17.5-5.5l-1,4l-3-6.5l-8.5,0.5v2.5l-3.5-5l-12,2.5l4.5,5l-7-5l-10.5,1l7.5,7.5
		l-10.5-6.5l-9.5,1.5l3,4.5l-14-4l-5,4.5l2.5,1.5l-7,5.5l3,1.5l-12.5-1l-7,5.5l7,2.5l-13,7v9l4-1.2l4.5-1.3l-4,5.5l8.5,2.5l9-10.5
		l-3,8l11,3l7.5-16l-1.5,14l8-1l2-5.5l2,6l7-2l3-9.5l1,7l9.5-1l4.5-6.5v6.5h7l34-17V129.1z"/>
	<path class="st7" d="M166.4,129.6c0,0,8.5-5,10-3.5l1.5,2.5l1-4.5l15-1.5l1,3.5l3-3.5l7,0.5l0.5,3l2.5-2.5l10.5,0.5l0.5,3.5l2.5-2
		l14,2l-3,4.5l9-2.5c0,0,13.5,3,12.5,5.5l-3.5,2c0,0,34,10.5,32,13l-6,5.5l-13.5-5l15.5,12l-9,3l-10.5-6.5l5,7l-10-1l-9.5-10l4,8
		l-7,1l-6-7l2,7h-6.5l-9-10l2.5,6.5l-10,1l-7-11.5l0.5,8l-9.5-2l-22.5-9.5l-13.5-6L166.4,129.6z"/>
	<polygon class="st8" points="123.9,62.1 125.9,57.6 129.9,61.1 132.9,56.1 138.9,60.1 142.4,52.6 149.9,59.6 154.4,55.1 
		157.4,60.6 162.4,59.1 164.9,63.1 156.9,71.6 133.9,69.6 123.4,65.6 	"/>
	<path class="st9" d="M123.9,69.1l-2-9.5l6,7l2-5.5l5.5,5l3.5-6l4.5,6.5l6.5-7l3.5,6.5l4-5.5l3.5,4.5l4-2l-3.5,8c0,0-17,5.5-17,10
		l-3,1C141.4,82.1,136.4,71.6,123.9,69.1z"/>
	<path class="st10" d="M100,50.6c0,0-3.5,8.5,0,7s8.5-7,8.5-7S110,48.1,100,50.6z"/>
	<path class="st10" d="M123.9,49.6c0,0-9.5,1.5-6.5,3s9.5-1.5,9.5-1.5S127.4,48.6,123.9,49.6z"/>
	<path class="st10" d="M106.5,57.1c0,0-2,3,0.5,2.5S106.5,57.1,106.5,57.1z"/>
	<path class="st10" d="M170.9,53.1l-4.5,2.5c0,0,2,6,6,4.5s5-4.5,5-4.5S172.9,52.6,170.9,53.1z"/>
	<polygon class="st10" points="182.9,62.1 185.9,60.1 191.4,62.6 	"/>
	<path class="st11" d="M69,63.6c0,0-4.5,3.5,2.5,5l0.5,3l12-5.5c0,0,2-3,0.5-4S69,63.6,69,63.6z"/>
	<path class="st11" d="M66,74.1c0,0-16,6.5-11.5,9.5s12-4.5,12-4.5S73,72.6,66,74.1z"/>
	<path class="st11" d="M109,69.6c0,0-5,7,0.5,5s6-4,6-4S111.5,68.6,109,69.6z"/>
	<polygon class="st11" points="99.5,75.1 88,80.6 86,91.1 92,96.1 98.5,91.6 105,78.1 	"/>
	<path class="st11" d="M120.9,82.1c0,0,2.5,1,4.5,0c2-1,2,5.5,2,5.5s-9.5,4.5-10,6.5l-5-4.5c0,0,1.5-3,2-5.5
		C114.9,81.6,120.9,82.1,120.9,82.1z"/>
	<path class="st11" d="M163.4,72.1c0,0-6,6.5,1.5,5s5.5-5,5.5-5H163.4z"/>
	<path class="st11" d="M186.4,84.1l7,3.5C193.4,87.6,197.9,79.1,186.4,84.1z"/>
	<path class="st11" d="M180.9,104.1l5.5-8l9-1c0,0,2.5,3,1,5s1.5,4,1.5,4s-6,8-9,7S180.9,104.1,180.9,104.1z"/>
	<path class="st11" d="M180.4,65.1c0,0-1,3,3,1.5S180.4,65.1,180.4,65.1z"/>
	<path class="st11" d="M210.4,69.1c0,0-16,0.5-13,3s11,2.5,11,2.5l-1.5,2.5l5,3.5c0,0,13,0.5,8.5-4S210.4,69.1,210.4,69.1z"/>
	<path class="st11" d="M226.4,85.1c0,0-6.5-2-5,1s7,2.5,7,2.5S230.4,84.6,226.4,85.1z"/>
	<path class="st12" d="M106,141.6c0,0-29.5-7-31-2.5s6.5,23,6.5,23S63,181.1,65,186.6s6.5,14.5,6.5,14.5s13,2,16.5,9
		s8.5,10.5,8.5,10.5l20,13c0,0,8,2.5,21.5,1.5c0,0,21.5,2.5,27.5-1.5s18-14,18-14l5.5-9.5c0,0,15-10.5,17-10.5s9-15.5,9-15.5
		s-14-22-16.5-21.5l7-23.5c0,0-21-4-34,1.5L106,141.6z"/>
	<polygon class="st13" points="136.4,132.6 116.9,127.1 112.5,134.6 106,136.6 106,144.6 103.5,144.1 107,154.1 110.8,152.8 
		118.4,150.1 112.5,155.6 115.9,164.6 127.9,157.6 120.9,167.1 123.9,172.1 130.9,165.6 126.9,173.1 138.4,179.6 139.4,170.6 
		142.9,177.6 150.9,170.6 147.9,166.1 154.4,170.1 159.9,166.1 154.9,155.6 163.4,163.1 166.9,160.6 162.9,157.1 167.9,158.6 
		172.9,152.6 163.9,147.6 174.4,149.6 170.4,138.6 164.4,129.1 143.4,134.1 140.4,131.6 	"/>
	<path class="st14" d="M78.5,143.6c0,0,17,11,17,13.5c0,0-10,2.5-10.5,4L78.5,143.6z"/>
	<path class="st14" d="M181.4,155.1c0,0,17.5-15,20-14.5l-7,18.5L181.4,155.1z"/>
	<path class="st14" d="M104,200.1c0,0-6.5,17.5,16,24s50-7,50-7l2.5-18l11.5-2.5l-3,16c0,0-8,10-19,18c0,0-31.5,0.5-40,0.5
		s-24.5-16.5-24.5-16.5l-3-16.5L104,200.1z"/>
	<path class="st15" d="M104,200.1c0,0,15.5,1.5,19,6s25,3,25,3s12-5,11.5-6.5s13-3.5,13-3.5s12.5,22-18.5,25.5s-42.5-4-42.5-4
		S98.5,214.1,104,200.1z"/>
	<path class="st16" d="M39.5,220.6c0,0-5.5,5-3.5,6s6.5,0,6.5,0L39.5,220.6z"/>
	<path class="st16" d="M53.5,223.6c0,0-6,0.5-4,3.5s2,3,2,3s5.5-0.5,4.5-3S53.5,223.6,53.5,223.6z"/>
	<path class="st16" d="M242.4,221.6c0,0,4.5,5,4,6.5s-5.5-2.5-5.5-2.5L242.4,221.6z"/>
	<path class="st16" d="M230.4,228.6c0,0-2-5.5-6,0l3.5,3.5L230.4,228.6z"/>
	<path class="st17" d="M181.9,253.1c0,0-6.5,0.5-6,5.5s3,7.5,3,7.5l5-4C183.9,262.1,184.9,252.6,181.9,253.1z"/>
	<path class="st17" d="M199.9,253.6c0,0-8.5,5-5,7s6,5,6,5S202.9,255.1,199.9,253.6z"/>
	<path class="st17" d="M164.4,248.6c0,0-7.5,9-5.5,10s8-2,8-2S165.9,248.6,164.4,248.6z"/>
	<path class="st17" d="M103,241.6l2.5,7.5l-6-2.5C99.5,246.6,101,240.1,103,241.6z"/>
	<path class="st17" d="M78.5,247.6c0,0-4.5-6.5-5.5-4.5s-2,5.5-2,5.5L78.5,247.6z"/>
	<path class="st17" d="M88,245.6c0,0-4,1.5-2,5s2,3.5,2,3.5l4-4.5C92,249.6,89.5,244.6,88,245.6z"/>
	<path class="st17" d="M180.4,197.1c0,0,2,6.5,3.5,5.5s3-6,3-6L180.4,197.1z"/>
	<path class="st17" d="M92,197.6c0,0,1.5,8,3.5,6.5s3-5.5,3-5.5L92,197.6z"/>
	<path class="st16" d="M166.8,226.8c0,0-2-5,0.5-5.5s3,4,3,4L166.8,226.8z"/>
	<path class="st16" d="M163.4,228.6c0,0-3-2-0.5-6l4.5,4.5L163.4,228.6z"/>
	<path class="st16" d="M109.5,225.4c0,0,0.5-1.5,2-3s1.5,5.5,1.5,5.5L109.5,225.4z"/>
	<path class="st16" d="M113.5,228.2c0,0-0.5-7.5,2.5-6s0,7.5,0,7.5L113.5,228.2z"/>
</g>
</svg>
