<?xml version="1.0" encoding="utf-8"?>
<!-- Generator: Adobe Illustrator 23.0.6, SVG Export Plug-In . SVG Version: 6.00 Build 0)  -->
<svg version="1.1" id="Layer_1" xmlns="http://www.w3.org/2000/svg" xmlns:xlink="http://www.w3.org/1999/xlink" x="0px" y="0px"
	 viewBox="0 0 288 288" style="enable-background:new 0 0 288 288;" xml:space="preserve">
<style type="text/css">
	.st0{opacity:0.5;}
	.st1{fill:#678963;}
	.st2{fill:#5D5F5E;}
	.st3{fill:#ABAA69;}
	.st4{fill:#F1E99E;}
	.st5{fill:#E0B9BC;}
	.st6{fill:#3A3B3A;}
	.st7{fill:#D9DCDA;}
	.st8{fill:#B0CE94;}
	.st9{fill:#ABAE5C;}
</style>
<g class="st0">
	<path d="M75.2,135.6c0,0-15.8-6.7-22.5,0c0,0-29.1-4.8-29.6,24.4c0,0,16.7-10.5,21-5.3s4.3,16.2,4.3,16.2s-10,42,15.3,56.9
		s39.7,2.9,39.7,2.9l11-60.2C114.4,170.4,86.2,132.7,75.2,135.6z"/>
	<path d="M44.2,235.4c0,0,18.6,18.2,50.2,13.4l4.3,2.4l-0.5,2.9c0,0-24.8,7.6-57.3-14.3L44.2,235.4z"/>
	<path d="M44.2,235.4c0,0,7.2-13.9-15.3-24.8c-22.5-11-19.6-20.1-19.6-20.1s-6.7,39.7,11.9,48.7C39.9,248.3,44.2,235.4,44.2,235.4z"
		/>
	<path d="M92.9,64.4c0,0-6.7-19.6,8.1-27.2s34.4,3.3,34.4,3.3s75,54,79.3,101.3l-8.1,1.9c0,0-12.4-52.1-56.9-79.8L92.9,64.4z"/>
	<path d="M100.6,156.1c0,0,10,11.5,6.7,22s-11.5,26.8-11.5,26.8s-16.7,36.8,2.4,49.2c19.1,12.4,29.6,13.4,29.6,13.4
		s44.4,7.2,61.6-27.2s-1.9-82.2-1.9-82.2s-20.5-27.2-23.9-41.6L100.6,156.1z"/>
	<path d="M78.1,104.5c0,0,2.4,3.8,0,11s-2.9,20.1-2.9,20.1s-1.9,20.1,27.2,21c28,0.9,49.7-18,53.5-21.5c1.9-1.7,3.3-3.2,4.3-4.3
		c1.6-2,3.7-5,5.3-9.1c5.4-14.3-1.6-27.7-2.9-30.1C153.9,75.4,136.4,72,134,71.5L78.1,104.5z"/>
	<path d="M88.1,105.9c2.3,4.9,2.1,8.3,1.4,10.5c-0.8,3-2.3,3.2-3.8,7.6c-1.4,3.9-1.5,7.2-1.4,8.6c0,1.9,0.1,3.9,1,6.2
		c0,0,0.3,0.8,2.4,4.8l0,0c2,0.4,5,1,8.6,1.4c6.6,0.9,12.6,1,15.3,1c7.7-0.2,23.1-3.7,33-16.7c1.6-2.1,9.9-14.3,8.1-27.8
		c-2-14.3-13.3-22.4-13.3-22.4L88.1,105.9z"/>
	<path d="M87.7,144.5c0,0-3.3-9.6,6.7-13.4c0,0,2.4,12.9,0.5,13.4C92.9,145,87.7,144.5,87.7,144.5z"/>
	<path d="M135.4,137.9c0,0-7.6-15.8-3.3-15.3c4.3,0.5,12.4,7.6,12.4,7.6L135.4,137.9z"/>
	<path d="M182.3,191.9c0,0-19.1-33.9,30.6-51.6s70.7-6.2,70.7-6.2l1,2.4c0,0-29.6,9.1-31.5,41.6s-17.7,48.7-17.7,48.7
		s-28.7,31.5-55.4,3.8C179.9,230.6,166.5,216.3,182.3,191.9z"/>
	<path d="M90.5,53.9c0,0-48.7-6.7-63.5,53c0,0,22.9-18.2,26.8-15.3c0,0,0,7.2,24.4,12.9s22,11.9,22,11.9s1.9-16.2,29.1-25.3
		s23.4-31.5,23.4-31.5s36.3,0,40.1,2.9c0,0-11.5-22.9-60.7-23.9c0,0-32.5,1.4-39.2,25.8C92.9,64.4,92,60.1,90.5,53.9z"/>
	<path d="M181.8,161.4l-5.7-1.9c0,0-1.4-6.2,2.4-5.7c3.8,0.5,6.2,3.8,6.2,3.8L181.8,161.4z"/>
	<path d="M164.1,180l1.4-4.3c0,0-0.5-3.8-4.3-1.9c-3.8,1.9-5.7,3.3-5.7,3.3S162.2,181,164.1,180z"/>
	<path d="M105.8,202l6.2-12.9c0,0,0.5-6.7-3.8-4.3s-6.2,11.5-6.2,11.5S100.6,202.5,105.8,202z"/>
	<path d="M102.9,245.9l3.3,6.2c0,0-2.9,1.4-4.3-1C100.6,248.8,102.9,245.9,102.9,245.9z"/>
	<path d="M147.4,247.9l-6.2,9.6c0,0,5.3,1,7.2-2.4c1.9-3.4,1.4-5.7,1.4-5.7L147.4,247.9z"/>
	<path d="M179.9,234.9c0,0-4.3,13.4-0.5,11.9c3.8-1.4,6.2-7.2,6.2-7.2S185.1,234.9,179.9,234.9z"/>
	<path d="M126.4,234c0,0,7.2-8.1,5.3-11s-4.3-3.8-4.3-3.8l-7.6,4.8C119.7,224,118.2,234,126.4,234z"/>
	<path d="M139.7,195.8l4.8-2.4c0,0,5.7-1.4,6.2,2.9s0.5,11.5,0.5,11.5s-6.2,8.6-8.1,3.8C141.2,206.8,139.7,195.8,139.7,195.8z"/>
</g>
<g>
	<path class="st1" d="M69.8,130.6c0,0-15.8-6.7-22.5,0c0,0-29.1-4.8-29.6,24.4c0,0,16.7-10.5,21-5.3s4.3,16.2,4.3,16.2
		s-10,42,15.3,56.9s39.7,2.9,39.7,2.9l11-60.2C109,165.4,80.8,127.7,69.8,130.6z"/>
	<path class="st2" d="M38.8,230.4c0,0,18.6,18.2,50.2,13.4l4.3,2.4l-0.5,2.9c0,0-24.8,7.6-57.3-14.3L38.8,230.4z"/>
	<path class="st3" d="M38.8,230.4c0,0,7.2-13.9-15.3-24.8C1,194.6,3.9,185.5,3.9,185.5s-6.7,39.7,11.9,48.7
		C34.5,243.3,38.8,230.4,38.8,230.4z"/>
	<path class="st2" d="M87.5,59.4c0,0-6.7-19.6,8.1-27.2s34.4,3.3,34.4,3.3s75,54,79.3,101.3l-8.1,1.9c0,0-12.4-52.1-56.9-79.8
		L87.5,59.4z"/>
	<path class="st4" d="M95.2,151.1c0,0,10,11.5,6.7,22s-11.5,26.8-11.5,26.8s-16.7,36.8,2.4,49.2s29.6,13.4,29.6,13.4
		s44.4,7.2,61.6-27.2s-1.9-82.2-1.9-82.2s-20.5-27.2-23.9-41.6L95.2,151.1z"/>
	<path class="st5" d="M72.7,99.5c0,0,2.4,3.8,0,11s-2.9,20.1-2.9,20.1s-1.9,20.1,27.2,21c28,0.9,49.7-18,53.5-21.5
		c1.9-1.7,3.3-3.2,4.3-4.3c1.6-2,3.7-5,5.3-9.1c5.4-14.3-1.6-27.7-2.9-30.1C148.5,70.4,131,67,128.6,66.5L72.7,99.5z"/>
	<path class="st6" d="M82.7,100.9c2.3,4.9,2.1,8.3,1.4,10.5c-0.8,3-2.3,3.2-3.8,7.6c-1.4,3.9-1.5,7.2-1.4,8.6c0,1.9,0.1,3.9,1,6.2
		c0,0,0.3,0.8,2.4,4.8l0,0c2,0.4,5,1,8.6,1.4c6.6,0.9,12.6,1,15.3,1c7.7-0.2,23.1-3.7,33-16.7c1.6-2.1,9.9-14.3,8.1-27.8
		c-2-14.3-13.3-22.4-13.3-22.4L82.7,100.9z"/>
	<path class="st7" d="M82.3,139.5c0,0-3.3-9.6,6.7-13.4c0,0,2.4,12.9,0.5,13.4C87.5,140,82.3,139.5,82.3,139.5z"/>
	<path class="st7" d="M130,132.9c0,0-7.6-15.8-3.3-15.3c4.3,0.5,12.4,7.6,12.4,7.6L130,132.9z"/>
	<path class="st8" d="M176.9,186.9c0,0-19.1-33.9,30.6-51.6s70.7-6.2,70.7-6.2l1,2.4c0,0-29.6,9.1-31.5,41.6S230,221.8,230,221.8
		s-28.7,31.5-55.4,3.8C174.5,225.6,161.1,211.3,176.9,186.9z"/>
	<path class="st8" d="M85.1,48.9c0,0-48.7-6.7-63.5,53c0,0,22.9-18.2,26.8-15.3c0,0,0,7.2,24.4,12.9s22,11.9,22,11.9
		s1.9-16.2,29.1-25.3s23.4-31.5,23.4-31.5s36.3,0,40.1,2.9c0,0-11.5-22.9-60.7-23.9c0,0-32.5,1.4-39.2,25.8
		C87.5,59.4,86.6,55.1,85.1,48.9z"/>
	<path class="st9" d="M176.4,156.4l-5.7-1.9c0,0-1.4-6.2,2.4-5.7c3.8,0.5,6.2,3.8,6.2,3.8L176.4,156.4z"/>
	<path class="st9" d="M158.7,175l1.4-4.3c0,0-0.5-3.8-4.3-1.9c-3.8,1.9-5.7,3.3-5.7,3.3S156.8,176,158.7,175z"/>
	<path class="st9" d="M100.4,197l6.2-12.9c0,0,0.5-6.7-3.8-4.3s-6.2,11.5-6.2,11.5S95.2,197.5,100.4,197z"/>
	<path class="st9" d="M97.5,240.9l3.3,6.2c0,0-2.9,1.4-4.3-1C95.2,243.8,97.5,240.9,97.5,240.9z"/>
	<path class="st9" d="M142,242.9l-6.2,9.6c0,0,5.3,1,7.2-2.4s1.4-5.7,1.4-5.7L142,242.9z"/>
	<path class="st9" d="M174.5,229.9c0,0-4.3,13.4-0.5,11.9c3.8-1.4,6.2-7.2,6.2-7.2S179.7,229.9,174.5,229.9z"/>
	<path class="st9" d="M121,229c0,0,7.2-8.1,5.3-11s-4.3-3.8-4.3-3.8l-7.6,4.8C114.3,219,112.8,229,121,229z"/>
	<path class="st9" d="M134.3,190.8l4.8-2.4c0,0,5.7-1.4,6.2,2.9s0.5,11.5,0.5,11.5s-6.2,8.6-8.1,3.8
		C135.8,201.8,134.3,190.8,134.3,190.8z"/>
</g>
</svg>
