<?xml version="1.0" encoding="utf-8"?>
<!-- Generator: Adobe Illustrator 23.0.6, SVG Export Plug-In . SVG Version: 6.00 Build 0)  -->
<svg version="1.1" id="Layer_1" xmlns="http://www.w3.org/2000/svg" xmlns:xlink="http://www.w3.org/1999/xlink" x="0px" y="0px"
	 viewBox="0 0 288 288" style="enable-background:new 0 0 288 288;" xml:space="preserve">
<style type="text/css">
	.st0{opacity:0.5;}
	.st1{fill:#475975;}
	.st2{fill:#5F7291;}
	.st3{fill:#C3717E;}
	.st4{fill:#CF8892;}
	.st5{fill:#D7A584;}
	.st6{fill:#C39C84;}
	.st7{fill:#2B2B2B;}
	.st8{fill:#D89EA8;}
	.st9{fill:#F1E3E6;}
	.st10{fill:#F5E9EA;}
	.st11{fill:#F3E6E8;}
</style>
<g class="st0">
	<path d="M105.9,201.6c0,0-4.9,6.8-18.6,6.4c-13.7-0.5-12.2,8.8-12.2,8.8s2.4,8.8,19.1,5.9c16.6-2.9,20-10.8,20-10.8L105.9,201.6z"
		/>
	<path d="M144.5,239.3l-4.4,4.9c0,0-42.5,7.3-39.1,17.1s22.5,4.9,22.5,4.9s25.9-6.4,28.8-21s1.5-10.8,1.5-10.8L144.5,239.3z"/>
	<path d="M200.3,234.4c0,0,7.3,13.2,23.5,13.2s22,9.3,22,9.3s9.8,14.7-8.8,13.2s-36.2-13.7-36.2-13.7s-11.2-12.7-8.8-19.1
		S200.3,234.4,200.3,234.4z"/>
	<path d="M105.9,189.9c0,0-3.9,40.1,34.2,47.9c38.1,7.8,60.1-3.4,60.1-3.4s24.4-12.2,24.4-35.2c0,0,29.8,4.9,32.3-8.3
		c2.4-13.2-28.8-7.8-28.8-7.8s-9.8-37.2-16.6-39.6s-32.8-3.4-32.8-3.4L105.9,189.9z"/>
	<path d="M142.6,41.2c0,0-56.2-11.7-88,50.4h55.2l34.7-31.8L142.6,41.2z"/>
	<path d="M100,86.7c0,0-64-15.2-90,53.8c0,0-20,51.3,47.9,44.5l50.4-81.7L100,86.7z"/>
	<path d="M136.2,59.3c0,0,1.5-40.6,71.9-43s64.5,41.1,64.5,41.1l-117.8,21L136.2,59.3z"/>
	<path d="M100,105.3c0,0-5.9-19.1,9.3-30.8s26.9-15.2,26.9-15.2s12.7-4.4,22,1.5s12.2,10.3,12.2,10.3l-15.2,26.4L100,105.3z"/>
	<path d="M115.2,86.7c0,0,8.3-19.1,32.3-16.6C147.5,70.1,138.7,83.8,115.2,86.7z"/>
	<path d="M115.2,86.7c0,0,9.3-19.1,32.3-16.6c0,0,9.8-6.8,0.5-7.8c0,0-39.1,7.8-40.6,22C107.4,84.3,105.4,88.7,115.2,86.7z"/>
	<path d="M100,105.3c0,0-74.8,63.6-34.7,84.1s126.2-32.3,126.2-32.3s6.4-4.9,6.8-10.3c0,0,27.4,1.5,64-37.2s20-61.6,20-61.6
		s-10.8-15.2-46.4-10.3s-70.8,33.4-70.8,33.4s-13.7,13.2-11.7,25.4C153.3,96.5,115.2,96,100,105.3z"/>
	<path d="M86.3,54.9c0,0-0.5,10.3,6.8,2.4S92.7,50,86.3,54.9z"/>
	<path d="M115.2,49.6c0,0-6.4,4.4,0,3.9s7.3-3.9,7.3-3.9S120.6,45.6,115.2,49.6z"/>
	<path d="M77.5,68.6c0,0-7.8,3.4-3.4,3.4S77.5,68.6,77.5,68.6z"/>
	<path d="M90.7,71.1c0,0-10.3,8.3-4.4,5.9C92.2,74.5,90.7,71.1,90.7,71.1z"/>
	<path d="M56,96.5c0,0-8.8,5.4-1,5.9s9.8-5.9,9.8-5.9S61.9,94.5,56,96.5z"/>
	<path d="M69.7,104.8c0,0-4.9,8.3-0.5,6.8C73.6,110.2,77.5,104.8,69.7,104.8z"/>
	<path d="M36,113.6c0,0-5.9,6.4-1.5,4.9S39.9,113.6,36,113.6z"/>
	<path d="M63.4,120.9c0,0-4.9-2-3.4,3.9C61.4,130.7,67.3,123.9,63.4,120.9z"/>
	<path d="M42.8,131.2c0,0-18.1,2-16.6,7.3c1.5,5.4,14.7,1,14.7,1l4.4-4.9L42.8,131.2z"/>
	<path d="M170.9,41.2c0,0-11.7-2-11.2,1.5c0.5,3.4,8.3,2.9,8.3,2.9L170.9,41.2z"/>
	<path d="M186.1,25.1c0,0-14.7,4.4-6.4,7.3s13.7-4.9,13.7-4.9S189.5,24.1,186.1,25.1z"/>
	<path d="M205.1,20.7l4.9,2.4c0,0,3.4-2,0-2.9C206.6,19.2,205.1,20.7,205.1,20.7z"/>
	<path d="M223.2,26.1c0,0-8.8,3.4-0.5,4.4s7.3-2,7.3-2S227.1,24.6,223.2,26.1z"/>
	<path d="M202.7,35.9c0,0-13.7,7.3-3.9,8.8s16.6-8.8,16.6-8.8S203.2,34.4,202.7,35.9z"/>
	<path d="M104.9,121.9c0,0-8.3-6.8-9.3,2.9C94.6,134.6,107.9,130.2,104.9,121.9z"/>
	<path d="M140.1,109.7c0,0-11.7,1-9.3,5.9s10.8-2.4,10.8-2.4S143.5,108.2,140.1,109.7z"/>
	<path d="M117.6,128.3c0,0-6.4,3.9-2,4.4c4.4,0.5,6.4-4.4,3.9-4.9C117.1,127.3,117.6,128.3,117.6,128.3z"/>
	<path d="M97.6,143.9c0,0-18.6-1.5-16.6,4.4s15.2,1.5,15.2,1.5S100,145.4,97.6,143.9z"/>
	<path d="M114.2,155.2c0,0-8.3,8.3,0.5,8.3s12.2-7.8,12.2-7.8S125.9,147.8,114.2,155.2z"/>
	<path d="M147,130.2c0,0-4.9,5.9,3.4,6.4c8.3,0.5,16.1-1,19.1-8.8C172.4,120,147,130.2,147,130.2z"/>
	<path d="M171.9,87.7c0,0-8.8,3.9-1.5,4.9S171.9,87.7,171.9,87.7z"/>
	<path d="M190.5,83.3c0,0-8.3,3.4-2,2.9S190.5,83.3,190.5,83.3z"/>
	<path d="M205.1,54l-2-1c0,0-8.8,0.5-8.8,6.4s1.5,4.4,1.5,4.4L205.1,54z"/>
	<path d="M242.3,43.2l-6.4,1c0,0-7.8,6.8-1.5,7.3s9.3-2.4,9.3-2.4L242.3,43.2z"/>
	<path d="M207.1,73l4.4-0.5l1-4.9l-1-3.4C211.5,64.2,204.7,65.2,207.1,73z"/>
	<path d="M183.6,87.2c0,0,7.8,2.4,9.3-3.4C194.4,77.9,183.6,87.2,183.6,87.2z"/>
	<path d="M208.6,88.7l5.4,2.4c0,0,12.7-9.8,5.9-10.8C213,79.4,208.6,88.7,208.6,88.7z"/>
	<path d="M238.9,79.4l2,2.4l4.9-0.5c0,0,11.2-7.8,4.9-10.3c-6.4-2.4-6.4,1-6.4,1L238.9,79.4z"/>
	<path d="M227.6,98.9l-4.9-1.5c0,0-18.6,5.9-14.2,14.7S227.6,98.9,227.6,98.9z"/>
</g>
<g>
	<path class="st1" d="M100.8,196.5c0,0-4.9,6.8-18.6,6.4c-13.7-0.5-12.2,8.8-12.2,8.8s2.4,8.8,19.1,5.9c16.6-2.9,20-10.8,20-10.8
		L100.8,196.5z"/>
	<path class="st1" d="M139.4,234.2l-4.4,4.9c0,0-42.5,7.3-39.1,17.1s22.5,4.9,22.5,4.9s25.9-6.4,28.8-21s1.5-10.8,1.5-10.8
		L139.4,234.2z"/>
	<path class="st1" d="M195.2,229.3c0,0,7.3,13.2,23.5,13.2s22,9.3,22,9.3s9.8,14.7-8.8,13.2s-36.2-13.7-36.2-13.7
		s-11.2-12.7-8.8-19.1S195.2,229.3,195.2,229.3z"/>
	<path class="st2" d="M100.8,184.8c0,0-3.9,40.1,34.2,47.9c38.1,7.8,60.1-3.4,60.1-3.4s24.4-12.2,24.4-35.2c0,0,29.8,4.9,32.3-8.3
		c2.4-13.2-28.8-7.8-28.8-7.8s-9.8-37.2-16.6-39.6s-32.8-3.4-32.8-3.4L100.8,184.8z"/>
	<path class="st3" d="M137.5,36.1c0,0-56.2-11.7-88,50.4h55.2l34.7-31.8L137.5,36.1z"/>
	<path class="st4" d="M94.9,81.6c0,0-64-15.2-90,53.8c0,0-20,51.3,47.9,44.5l50.4-81.7L94.9,81.6z"/>
	<path class="st4" d="M131.1,54.2c0,0,1.5-40.6,71.9-43s64.5,41.1,64.5,41.1l-117.8,21L131.1,54.2z"/>
	<path class="st5" d="M94.9,100.2c0,0-5.9-19.1,9.3-30.8s26.9-15.2,26.9-15.2s12.7-4.4,22,1.5S165.3,66,165.3,66l-15.2,26.4
		L94.9,100.2z"/>
	<path class="st6" d="M110.1,81.6c0,0,8.3-19.1,32.3-16.6C142.4,65,133.6,78.7,110.1,81.6z"/>
	<path class="st7" d="M110.1,81.6c0,0,9.3-19.1,32.3-16.6c0,0,9.8-6.8,0.5-7.8c0,0-39.1,7.8-40.6,22
		C102.3,79.2,100.3,83.6,110.1,81.6z"/>
	<path class="st8" d="M94.9,100.2c0,0-74.8,63.6-34.7,84.1S186.4,152,186.4,152s6.4-4.9,6.8-10.3c0,0,27.4,1.5,64-37.2
		s20-61.6,20-61.6s-10.8-15.2-46.4-10.3S160,66,160,66s-13.7,13.2-11.7,25.4C148.2,91.4,110.1,90.9,94.9,100.2z"/>
	<path class="st9" d="M81.2,49.8c0,0-0.5,10.3,6.8,2.4S87.6,44.9,81.2,49.8z"/>
	<path class="st9" d="M110.1,44.5c0,0-6.4,4.4,0,3.9s7.3-3.9,7.3-3.9S115.5,40.5,110.1,44.5z"/>
	<path class="st9" d="M72.4,63.5c0,0-7.8,3.4-3.4,3.4S72.4,63.5,72.4,63.5z"/>
	<path class="st9" d="M85.6,66c0,0-10.3,8.3-4.4,5.9C87.1,69.4,85.6,66,85.6,66z"/>
	<path class="st10" d="M50.9,91.4c0,0-8.8,5.4-1,5.9s9.8-5.9,9.8-5.9S56.8,89.4,50.9,91.4z"/>
	<path class="st10" d="M64.6,99.7c0,0-4.9,8.3-0.5,6.8C68.5,105.1,72.4,99.7,64.6,99.7z"/>
	<path class="st10" d="M30.9,108.5c0,0-5.9,6.4-1.5,4.9S34.8,108.5,30.9,108.5z"/>
	<path class="st10" d="M58.3,115.8c0,0-4.9-2-3.4,3.9C56.3,125.6,62.2,118.8,58.3,115.8z"/>
	<path class="st10" d="M37.7,126.1c0,0-18.1,2-16.6,7.3c1.5,5.4,14.7,1,14.7,1l4.4-4.9L37.7,126.1z"/>
	<path class="st10" d="M165.8,36.1c0,0-11.7-2-11.2,1.5c0.5,3.4,8.3,2.9,8.3,2.9L165.8,36.1z"/>
	<path class="st10" d="M181,20c0,0-14.7,4.4-6.4,7.3s13.7-4.9,13.7-4.9S184.4,19,181,20z"/>
	<path class="st10" d="M200,15.6l4.9,2.4c0,0,3.4-2,0-2.9C201.5,14.1,200,15.6,200,15.6z"/>
	<path class="st10" d="M218.1,21c0,0-8.8,3.4-0.5,4.4s7.3-2,7.3-2S222,19.5,218.1,21z"/>
	<path class="st10" d="M197.6,30.8c0,0-13.7,7.3-3.9,8.8s16.6-8.8,16.6-8.8S198.1,29.3,197.6,30.8z"/>
	<path class="st11" d="M99.8,116.8c0,0-8.3-6.8-9.3,2.9C89.5,129.5,102.8,125.1,99.8,116.8z"/>
	<path class="st11" d="M135,104.6c0,0-11.7,1-9.3,5.9s10.8-2.4,10.8-2.4S138.4,103.1,135,104.6z"/>
	<path class="st11" d="M112.5,123.2c0,0-6.4,3.9-2,4.4c4.4,0.5,6.4-4.4,3.9-4.9C112,122.2,112.5,123.2,112.5,123.2z"/>
	<path class="st11" d="M92.5,138.8c0,0-18.6-1.5-16.6,4.4s15.2,1.5,15.2,1.5S94.9,140.3,92.5,138.8z"/>
	<path class="st11" d="M109.1,150.1c0,0-8.3,8.3,0.5,8.3s12.2-7.8,12.2-7.8S120.8,142.7,109.1,150.1z"/>
	<path class="st11" d="M141.9,125.1c0,0-4.9,5.9,3.4,6.4c8.3,0.5,16.1-1,19.1-8.8C167.3,114.9,141.9,125.1,141.9,125.1z"/>
	<path class="st11" d="M166.8,82.6c0,0-8.8,3.9-1.5,4.9S166.8,82.6,166.8,82.6z"/>
	<path class="st11" d="M185.4,78.2c0,0-8.3,3.4-2,2.9S185.4,78.2,185.4,78.2z"/>
	<path class="st11" d="M200,48.9l-2-1c0,0-8.8,0.5-8.8,6.4s1.5,4.4,1.5,4.4L200,48.9z"/>
	<path class="st11" d="M237.2,38.1l-6.4,1c0,0-7.8,6.8-1.5,7.3s9.3-2.4,9.3-2.4L237.2,38.1z"/>
	<path class="st11" d="M202,67.9l4.4-0.5l1-4.9l-1-3.4C206.4,59.1,199.6,60.1,202,67.9z"/>
	<path class="st11" d="M178.5,82.1c0,0,7.8,2.4,9.3-3.4C189.3,72.8,178.5,82.1,178.5,82.1z"/>
	<path class="st11" d="M203.5,83.6l5.4,2.4c0,0,12.7-9.8,5.9-10.8C207.9,74.3,203.5,83.6,203.5,83.6z"/>
	<path class="st11" d="M233.8,74.3l2,2.4l4.9-0.5c0,0,11.2-7.8,4.9-10.3c-6.4-2.4-6.4,1-6.4,1L233.8,74.3z"/>
	<path class="st11" d="M222.5,93.8l-4.9-1.5c0,0-18.6,5.9-14.2,14.7S222.5,93.8,222.5,93.8z"/>
</g>
</svg>
