<?xml version="1.0" encoding="utf-8"?>
<!-- Generator: Adobe Illustrator 23.0.6, SVG Export Plug-In . SVG Version: 6.00 Build 0)  -->
<svg version="1.1" id="Layer_1" xmlns="http://www.w3.org/2000/svg" xmlns:xlink="http://www.w3.org/1999/xlink" x="0px" y="0px"
	 viewBox="0 0 288 288" style="enable-background:new 0 0 288 288;" xml:space="preserve">
<style type="text/css">
	.st0{opacity:0.5;}
	.st1{fill:#E6E6E9;}
	.st2{fill:#D6908B;}
</style>
<g class="st0">
	<path d="M15.4,123.6c0,0-24.6,133.5,113.8,157.1c0,0,70.6,13.1,125.3-61.8L15.4,123.6z"/>
	<path d="M15.4,123.6c0,0,0.3,0.5,1,1.5c8.5,12.4,72,95.7,238.2,93.7c0,0,12-19.2,15.9-46.5c0,0,26.8-11.5,1.6-56.4
		c0,0-37.2-118.8-159.3-92.5C112.8,23.5,24.1,42.1,15.4,123.6z"/>
</g>
<g>
	<path class="st1" d="M8.6,118.9c0,0-24.6,133.5,113.8,157.1c0,0,70.6,13.1,125.3-61.8L8.6,118.9z"/>
	<path class="st2" d="M8.6,118.9c0,0,0.3,0.5,1,1.5c8.5,12.4,72,95.7,238.2,93.7c0,0,12-19.2,15.9-46.5c0,0,26.8-11.5,1.6-56.4
		c0,0-37.2-118.8-159.3-92.5C106.1,18.8,17.4,37.4,8.6,118.9z"/>
</g>
</svg>
