<?xml version="1.0" encoding="utf-8"?>
<!-- Generator: Adobe Illustrator 23.0.6, SVG Export Plug-In . SVG Version: 6.00 Build 0)  -->
<svg version="1.1" id="Layer_1" xmlns="http://www.w3.org/2000/svg" xmlns:xlink="http://www.w3.org/1999/xlink" x="0px" y="0px"
	 viewBox="0 0 288 288" style="enable-background:new 0 0 288 288;" xml:space="preserve">
<style type="text/css">
	.st0{opacity:0.5;}
	.st1{fill:#E9DFC5;}
	.st2{fill:#9A6450;}
	.st3{fill:#583429;}
	.st4{fill:#8B7062;}
	.st5{fill:#BF8163;}
	.st6{fill:#DCA183;}
	.st7{fill:#B98874;}
</style>
<g class="st0">
	<path d="M82.6,191.8c0,0-30.1-38.3-25.7-3.9s34,38.3,34,38.3s28.8,12.6,55.8-4.4s-0.4-33.1-0.4-33.1s-102.5-40-89.4-0.8"/>
	<path d="M94,104.2l15.2,32.7l4.8-13.5c0,0,36.2-22.2,39.6-39.6c3.5-17.4,0,0,0,0S86.5,71.6,94,102.9"/>
	<path d="M18.6,48c0,0-3,38.8,9.6,48.8s6.5-10.9,6.5-10.9S30.8,54.1,18.6,48z"/>
	<path d="M51.7,65c0,0-19.6-17.4-33.1-17c0,0,18.3,31.8,16.1,37.9C32.5,92,51.7,65,51.7,65z"/>
	<path d="M57.8,68.5c0,0-12.6-32.7,16.6-30.9c0,0,15.2-13.1,34.9,7.8S83.9,78.5,83.9,78.5"/>
	<path d="M138,225.8c0,0-5.2,21.3-8.3,23.5c-3.1,2.2-5.2,6.1-5.2,6.1s-0.9,8.3,10.9,8.3s15.7-8.3,15.7-8.3l7.4-21.3l-8.3-14.4
		L138,225.8z"/>
	<path d="M154.9,162.6c0,0-29.6-3.5-28.8-27.4C127,111.2,140,113,140,113s4.9-21,21.5-20.5s36.2,79.3,36.2,79.3l-37-0.9L154.9,162.6
		z"/>
	<path d="M173.7,169.6c0,0,7-20.5-13.5-35.7s4.8-52.7,4.8-52.7s27.4-28.8,53.6,0c0,0,44-10,45.7,46.6c0,0,47.1,32.7-2.6,71.9
		c0,0-4.8,30.1-27.4,26.1c-22.7-3.9-21.8-16.1-21.8-16.1s-17-13.5-23.1-11.8s-16.1-30.1-16.1-30.1"/>
	<path d="M34.7,85.5c-2.3,1.8-6.5,5.6-9,12c-1.3,3.5-1.8,6.6-1.9,8.9c0,0-15.7,3-15.7,10.5c0,7.4,5.7,20.5,13.5,25.3
		c0,0,7.4,10.5,12.2,13.9c4.8,3.5,17.4,3.5,21.3,8.3c0,0-3,42.3,13.9,62.7c0,0,7.8,30.1-2.2,33.1c0,0-3,6.1,2.6,8.7
		c0,0,3.9,2.2,7,2.2c0,0,3.9-0.4,5.2,0.4c0,0,0.9,4.4,5.7,4.8c0,0,5.2,2.6,9.6,0.9c0,0,10.9,5.7,16.1-9.6
		c5.2-15.2,13.1-58.4,13.1-58.4l-35.3,17c0,0,4.4,12.6,2.6,19.2c0,0-5.2-17.4-4.8-20.9c0,0-28.8-14.4-31.8-36.6s16.1-8.7,16.1-8.7
		l9.6,12.6l2.2,10.9l39.2-40.5c0,0-24.4-4.4-20-16.6c0,0,7.8-10.9,10-22.2l-3.9,0.4l1.3-4.4l-5.7,3l0.9-5.2l-3.9,2.6l10-10h-10
		l13.9-6.1l-22.7,0.4c0,0,20.9-26.6,59.7-20.5c0,0-39.6-17.4-73.6,3.9s0,0,0,0C64.9,87,49.8,86.2,34.7,85.5z"/>
	<path d="M179.8,173.5c0,0,11.3,0,7.8,49.7c0,0,3.9,10.9,6.1,12.6c0,0-2.6,39.6-20.5,41.8s-16.6-10-16.6-10s6.5-3,9.1-9.6
		s2.2-17.9,2.2-17.9s-18.7-8.3-21.3-18.3s-3.5-17.9-3.5-17.9s-16.1,9.6-17,5.2c-0.9-4.4-2.2-47.1-2.2-47.1s20.5,0,21.3-2.2
		S171.9,156.5,179.8,173.5z"/>
	<path d="M84.4,73.7c0,0-30.5-27-48.4,0.9c0,0-11.8,23.5,5.2,31.4c0,0,3-17.9,38.8-18.3l42.3-11.3c0,0,16.6-30.1-21.3-31.4
		C100.9,45,76.1,49.3,84.4,73.7z"/>
	<polygon points="84.8,202.7 90.9,226.2 126.2,209.2 124,162.2 87.4,176.1 	"/>
</g>
<g>
	<path class="st1" d="M77.7,185.8c0,0-30.1-38.3-25.7-3.9s34,38.3,34,38.3s28.8,12.6,55.8-4.4s-0.4-33.1-0.4-33.1
		s-102.5-40-89.4-0.8"/>
	<path class="st2" d="M89.1,99.2l15.2,32.7l4.8-13.5c0,0,36.2-22.2,39.6-39.6c3.5-17.4,0,0,0,0S81.6,66.6,89.1,97.9"/>
	<path class="st3" d="M13.7,43c0,0-3,38.8,9.6,48.8s6.5-10.9,6.5-10.9S25.9,49.1,13.7,43z"/>
	<path class="st4" d="M46.8,60c0,0-19.6-17.4-33.1-17c0,0,18.3,31.8,16.1,37.9S46.8,60,46.8,60z"/>
	<path class="st5" d="M52.9,63.5c0,0-12.6-32.7,16.6-30.9c0,0,15.2-13.1,34.9,7.8S79,73.5,79,73.5"/>
	<path class="st4" d="M133.1,220.8c0,0-5.2,21.3-8.3,23.5s-5.2,6.1-5.2,6.1s-0.9,8.3,10.9,8.3s15.7-8.3,15.7-8.3l7.4-21.3l-8.3-14.4
		L133.1,220.8z"/>
	<path class="st5" d="M150,157.6c0,0-29.6-3.5-28.8-27.4c0.9-24,13.9-22.2,13.9-22.2s4.9-21,21.5-20.5s36.2,79.3,36.2,79.3l-37-0.9
		L150,157.6z"/>
	<path class="st6" d="M168.8,164.6c0,0,7-20.5-13.5-35.7s4.8-52.7,4.8-52.7s27.4-28.8,53.6,0c0,0,44-10,45.7,46.6
		c0,0,47.1,32.7-2.6,71.9c0,0-4.8,30.1-27.4,26.1c-22.7-3.9-21.8-16.1-21.8-16.1s-17-13.5-23.1-11.8s-16.1-30.1-16.1-30.1"/>
	<path class="st7" d="M29.8,80.5c-2.3,1.8-6.5,5.6-9,12c-1.3,3.5-1.8,6.6-1.9,8.9c0,0-15.7,3-15.7,10.5c0,7.4,5.7,20.5,13.5,25.3
		c0,0,7.4,10.5,12.2,13.9c4.8,3.5,17.4,3.5,21.3,8.3c0,0-3,42.3,13.9,62.7c0,0,7.8,30.1-2.2,33.1c0,0-3,6.1,2.6,8.7
		c0,0,3.9,2.2,7,2.2c0,0,3.9-0.4,5.2,0.4c0,0,0.9,4.4,5.7,4.8c0,0,5.2,2.6,9.6,0.9c0,0,10.9,5.7,16.1-9.6
		c5.2-15.2,13.1-58.4,13.1-58.4l-35.3,17c0,0,4.4,12.6,2.6,19.2c0,0-5.2-17.4-4.8-20.9c0,0-28.8-14.4-31.8-36.6s16.1-8.7,16.1-8.7
		l9.6,12.6c1.1,3.4,2.2,6.9,3.2,10.3c12.7-13.3,25.4-26.6,38.2-39.9c0,0-24.4-4.4-20-16.6c0,0,7.8-10.9,10-22.2l-3.9,0.4l1.3-4.4
		l-5.7,3l0.9-5.2l-3.9,2.6l10-10h-10l13.9-6.1l-22.7,0.4c0,0,20.9-26.6,59.7-20.5c0,0-39.6-17.4-73.6,3.9s0,0,0,0
		C60,82,44.9,81.2,29.8,80.5z"/>
	<path class="st7" d="M166.1,156c4.2,3.7,9.9,9.9,14,18.8c9,19.4,4.3,37.9,2.6,43.5c0,0,3.9,10.9,6.1,12.6c0,0-2.6,39.6-20.5,41.8
		s-16.6-10-16.6-10s6.5-3,9.1-9.6s2.2-17.9,2.2-17.9s-18.7-8.3-21.3-18.3s-3.5-17.9-3.5-17.9c-12.3,5.9-26.9,11.8-29.7,8
		c-1.5-2,1.6-5.1,4.9-13.5c6.9-17.7,5.6-36.2,5.6-36.4c2.9,0.5,7.3,0.9,12.5,0.1c4.4-0.6,7.4-1.8,8.8-2.3
		C145.1,153.1,153,152.2,166.1,156z"/>
	<path class="st6" d="M79.5,68.7c0,0-30.5-27-48.4,0.9c0,0-11.8,23.5,5.2,31.4c0,0,3-17.9,38.8-18.3l42.3-11.3
		c0,0,16.6-30.1-21.3-31.4C96,40,71.2,44.3,79.5,68.7z"/>
	<path class="st7" d="M80.3,196.3c2.1,9,4.2,18.1,6.3,27.1c13.2-6.6,26.3-13.2,39.5-19.9c-2.1-15.4-4.2-30.9-6.3-46.3l-37.3,14.5
		C81.8,179.9,81,188.1,80.3,196.3z"/>
</g>
</svg>
