<?xml version="1.0" encoding="utf-8"?>
<!-- Generator: Adobe Illustrator 23.0.6, SVG Export Plug-In . SVG Version: 6.00 Build 0)  -->
<svg version="1.1" id="Layer_1" xmlns="http://www.w3.org/2000/svg" xmlns:xlink="http://www.w3.org/1999/xlink" x="0px" y="0px"
	 viewBox="0 0 288 288" style="enable-background:new 0 0 288 288;" xml:space="preserve">
<style type="text/css">
	.st0{opacity:0.5;}
	.st1{fill:#BFDEEA;}
	.st2{fill:#908174;}
	.st3{fill:#C2C9D4;}
	.st4{fill:#7698BE;}
	.st5{fill:#ABB4C0;}
	.st6{fill:#515658;}
	.st7{fill:#F9EACC;}
	.st8{fill:#D7DCE8;}
	.st9{fill:#BDDCE7;}
	.st10{fill:#B1BED8;}
	.st11{fill:#FFFFFF;}
	.st12{fill:#D3E6EE;}
</style>
<g class="st0">
	<path d="M195.6,130.5c0,0,13.2-44.4,40.7-38.8s22.7,26.9,22.7,26.9s-5.2,12.3-10.4,11.3c0,0,11.3,13.2,9.5,27.9
		c0,0,18,15.1,10.4,32.1c-7.6,17-19.9,29.8-19.9,29.8s-18,16.5-41.6,17S195.6,130.5,195.6,130.5z"/>
	<path d="M164,117.3c0,0,29.8,16.1,34.5,42.6s1.9,54.4,1.9,54.4l-18.9-27.4l-0.9-27.4l-19.4-35L164,117.3z"/>
	<path d="M158.8,105.5c0,0,7.1,3.1,5.4,20.4c-0.1,0.6-0.1,1.2-0.2,1.8c-2.4,18.9,19.9,42.1,19.9,42.1s1.9,24.6,11.3,32.6
		c0,0,7.6,9.5,6.6,17l-20.3-15.6c-3.3-3.8-7.4-9.7-8.5-17.5c-1-6.9,0.8-12.2,1.4-14.7c2-8.2-0.4-21.7-21.3-44.9L158.8,105.5z"/>
	<path d="M56.2,133.8c0,0-35.9,7.1-38.8,17c-2.8,9.9,1.4,16.1,1.4,16.1s20.3,13.7,54.8,9l6.1-30.3L56.2,133.8z"/>
	<path d="M160.6,244l-9,3.3c0,0,6.1,2.8,10.9,0.5L160.6,244z"/>
	<path d="M86.4,152.3c2.8,2.6,5.7,5.2,8.7,7.9c3,2.6,5.9,5,8.7,7.3c7.4,2.6,15.4,1.2,20.8-3.8c5.6-5.2,6.1-12.1,6.1-13.7
		c-4.3,0.8-8.9,1.4-13.7,1.9C105.8,152.9,95.5,152.9,86.4,152.3z"/>
	<path d="M79.8,208.1c0,0-30.3,21.7-18.9,46.8c0,0-9.5,7.6-7.1,8c2.4,0.5,11.3,0,11.3,0s0,9,3.3,9s12.8-4.7,12.8-4.7
		s5.7,7.1,7.1,6.1c1.4-0.9,11.3-13.2,11.3-13.2s9.5-18,15.6-18c-2.2-4.7-5.7-10.9-11.3-17C95.2,215.5,85.7,210.5,79.8,208.1z"/>
	<path d="M76.5,150.4c0,0-14.7,29.8,3.3,57.7s40.7,36.4,40.7,36.4s18.9,8.5,40.2-0.5c0,0-8.5-6.1,4.7-26.9c0,0,10.4-12.3,16.1-13.2
		c0,0-11.3-11.8-7.1-32.1c0,0-25.1,6.6-26.9-33.6c0,0-11.8,11.8-16.5,11.8c0,0-16.1,17-24.1,15.6S88,153.8,88,153.8L76.5,150.4z"/>
	<path d="M33,169.8c0,0,5.7-8.5,1.9-10.4c-3.8-1.9-16.1,7.6-16.1,7.6L33,169.8z"/>
	<path d="M20.2,159.8l8-12.3c0,0-9.5-9-12.3,2.4c0,0-8,5.7-6.6,8.5s6.6,4.3,6.6,4.3v-6.1L20.2,159.8z"/>
	<path d="M53.8,96.5c0,0-15.6-9-9.9-23.2c0,0,5.2-1.9,7.6,1.4c0,0-11.3-31.2-1.4-38.8c0,0,4.3-23.2,9.5-20.3S70,34,70,34
		s7.6,26,5.2,32.1C72.7,72.4,53.8,96.5,53.8,96.5z"/>
	<path d="M75.1,66.2c0,0-26,10.9-19.4,45.9c0,0,3.8,11.8,0.5,21.7c0,0,0.5,10.9,20.3,16.5c0,0,44.9,15.6,70.9-12.3
		c0,0-1.4,37.3,26.9,33.6c0,0,28.4-1.4,40.7-20.8s-27.4-22.7-27.4-22.7s-31.2-3.3-34.5-1.4c0,0,7.1-7.1,5.7-21.3s-18-39.7-18-39.7
		S107.7,40.7,75.1,66.2z"/>
	<path d="M160.6,244l12.8,23.6c0,0-7.1,8-0.5,9.9s11.3-1.9,11.3-1.9l14.7,7.1l9.5-8.5l17,3.3c0,0-1.9-8-4.3-11.8
		c0,0-15.6-61-39.7-61.9C181.4,203.8,149.3,219.4,160.6,244z"/>
	<path d="M63.7,139c0,0,1.9,8.5,4.3,6.1c2.4-2.4,2.4-4.3,2.4-4.3L63.7,139z"/>
	<path d="M126.6,142.8c0,0,2.8,6.1,4.3,4.3c1.4-1.9,2.8-6.1,2.8-6.1L126.6,142.8z"/>
	<path d="M206.5,144.7c0,0,3.8-9.9,8-7.6c4.3,2.4,3.8,4.7,3.8,4.7s8,7.6,7.1,9s-7.1,4.3-7.1,4.3l-3.3,2.4
		C215,157.5,208.4,143.8,206.5,144.7z"/>
	<path d="M202.7,149.9c0,0-7.1,10.9-2.4,11.3c4.7,0.5,12.8-1.9,12.8-1.9S203.7,147.5,202.7,149.9z"/>
	<path d="M137,92.7c0,0-10.9-29.3,20.3-53.4s31.2-15.1,31.2-15.1s0.5,12.8-5.7,19.4c0,0,10.4,25.5-15.1,45.4c0,0-1.4,17-13.2,15.1
		S137,92.7,137,92.7z"/>
</g>
<g>
	<path class="st1" d="M190.3,125.3c0,0,13.2-44.4,40.7-38.8s22.7,26.9,22.7,26.9s-5.2,12.3-10.4,11.3c0,0,11.3,13.2,9.5,27.9
		c0,0,18,15.1,10.4,32.1c-7.6,17-19.9,29.8-19.9,29.8s-18,16.5-41.6,17S190.3,125.3,190.3,125.3z"/>
	<path class="st2" d="M158.7,112.1c0,0,29.8,16.1,34.5,42.6s1.9,54.4,1.9,54.4l-18.9-27.4l-0.9-27.4l-19.4-35L158.7,112.1z"/>
	<path class="st3" d="M153.5,100.3c0,0,7.1,3.1,5.4,20.4c-0.1,0.6-0.1,1.2-0.2,1.8c-2.4,18.9,19.9,42.1,19.9,42.1
		s1.9,24.6,11.3,32.6c0,0,7.6,9.5,6.6,17l-20.3-15.6c-3.3-3.8-7.4-9.7-8.5-17.5c-1-6.9,0.8-12.2,1.4-14.7c2-8.2-0.4-21.7-21.3-44.9
		L153.5,100.3z"/>
	<path class="st4" d="M50.9,128.6c0,0-35.9,7.1-38.8,17c-2.8,9.9,1.4,16.1,1.4,16.1s20.3,13.7,54.8,9l6.1-30.3L50.9,128.6z"/>
	<path class="st5" d="M155.3,238.8l-9,3.3c0,0,6.1,2.8,10.9,0.5L155.3,238.8z"/>
	<path class="st6" d="M81.1,147.1c2.8,2.6,5.7,5.2,8.7,7.9c3,2.6,5.9,5,8.7,7.3c7.4,2.6,15.4,1.2,20.8-3.8
		c5.6-5.2,6.1-12.1,6.1-13.7c-4.3,0.8-8.9,1.4-13.7,1.9C100.5,147.7,90.2,147.7,81.1,147.1z"/>
	<path class="st4" d="M74.5,202.9c0,0-30.3,21.7-18.9,46.8c0,0-9.5,7.6-7.1,8c2.4,0.5,11.3,0,11.3,0s0,9,3.3,9
		c3.3,0,12.8-4.7,12.8-4.7s5.7,7.1,7.1,6.1c1.4-0.9,11.3-13.2,11.3-13.2s9.5-18,15.6-18c-2.2-4.7-5.7-10.9-11.3-17
		C89.9,210.3,80.4,205.3,74.5,202.9z"/>
	<path class="st7" d="M71.2,145.2c0,0-14.7,29.8,3.3,57.7s40.7,36.4,40.7,36.4s18.9,8.5,40.2-0.5c0,0-8.5-6.1,4.7-26.9
		c0,0,10.4-12.3,16.1-13.2c0,0-11.3-11.8-7.1-32.1c0,0-25.1,6.6-26.9-33.6c0,0-11.8,11.8-16.5,11.8c0,0-16.1,17-24.1,15.6
		s-18.9-11.8-18.9-11.8L71.2,145.2z"/>
	<path class="st8" d="M27.7,164.6c0,0,5.7-8.5,1.9-10.4s-16.1,7.6-16.1,7.6L27.7,164.6z"/>
	<path class="st8" d="M14.9,154.6l8-12.3c0,0-9.5-9-12.3,2.4c0,0-8,5.7-6.6,8.5s6.6,4.3,6.6,4.3v-6.1L14.9,154.6z"/>
	<path class="st9" d="M48.5,91.3c0,0-15.6-9-9.9-23.2c0,0,5.2-1.9,7.6,1.4c0,0-11.3-31.2-1.4-38.8c0,0,4.3-23.2,9.5-20.3
		s10.4,18.4,10.4,18.4s7.6,26,5.2,32.1C67.4,67.2,48.5,91.3,48.5,91.3z"/>
	<path class="st10" d="M69.8,61c0,0-26,10.9-19.4,45.9c0,0,3.8,11.8,0.5,21.7c0,0,0.5,10.9,20.3,16.5c0,0,44.9,15.6,70.9-12.3
		c0,0-1.4,37.3,26.9,33.6c0,0,28.4-1.4,40.7-20.8s-27.4-22.7-27.4-22.7s-31.2-3.3-34.5-1.4c0,0,7.1-7.1,5.7-21.3s-18-39.7-18-39.7
		S102.4,35.5,69.8,61z"/>
	<path class="st10" d="M155.3,238.8l12.8,23.6c0,0-7.1,8-0.5,9.9s11.3-1.9,11.3-1.9l14.7,7.1l9.5-8.5l17,3.3c0,0-1.9-8-4.3-11.8
		c0,0-15.6-61-39.7-61.9C176.1,198.6,144,214.2,155.3,238.8z"/>
	<path class="st11" d="M58.4,133.8c0,0,1.9,8.5,4.3,6.1s2.4-4.3,2.4-4.3L58.4,133.8z"/>
	<path class="st11" d="M121.3,137.6c0,0,2.8,6.1,4.3,4.3c1.4-1.9,2.8-6.1,2.8-6.1L121.3,137.6z"/>
	<path class="st11" d="M201.2,139.5c0,0,3.8-9.9,8-7.6c4.3,2.4,3.8,4.7,3.8,4.7s8,7.6,7.1,9s-7.1,4.3-7.1,4.3l-3.3,2.4
		C209.7,152.3,203.1,138.6,201.2,139.5z"/>
	<path class="st11" d="M197.4,144.7c0,0-7.1,10.9-2.4,11.3c4.7,0.5,12.8-1.9,12.8-1.9S198.4,142.3,197.4,144.7z"/>
	<path class="st12" d="M131.7,87.5c0,0-10.9-29.3,20.3-53.4S183.2,19,183.2,19s0.5,12.8-5.7,19.4c0,0,10.4,25.5-15.1,45.4
		c0,0-1.4,17-13.2,15.1S131.7,87.5,131.7,87.5z"/>
</g>
</svg>
