<?xml version="1.0" encoding="utf-8"?>
<!-- Generator: Adobe Illustrator 23.0.6, SVG Export Plug-In . SVG Version: 6.00 Build 0)  -->
<svg version="1.1" id="Layer_1" xmlns="http://www.w3.org/2000/svg" xmlns:xlink="http://www.w3.org/1999/xlink" x="0px" y="0px"
	 viewBox="0 0 288 288" style="enable-background:new 0 0 288 288;" xml:space="preserve">
<style type="text/css">
	.st0{opacity:0.5;}
	.st1{fill:#6C6D6A;}
	.st2{fill:#DCD278;}
	.st3{fill:#678963;}
	.st4{fill:#F4EDAB;}
	.st5{fill:#B2CF94;}
	.st6{fill:#9CA14D;}
	.st7{fill:#DFBBBD;}
	.st8{fill:#030404;}
	.st9{fill:#825C70;}
</style>
<g class="st0">
	<path d="M184.1,76.3c0,0,31.1-29.2,47.9-9.6s6.7,24.4,6.7,24.4s0.5-18.7-23-13.4S198,104,198,104L184.1,76.3z"/>
	<path d="M160.2,80.1c0,0,17.2-14.4,34.5,3.8s-1,36.9-1,36.9L160.2,80.1z"/>
	<path d="M103.2,124.1c0,0-34.9-62.7-94.8-36.4v2.9c0,0,21.1,18.2,24.9,45.9s14.4,32.1,14.4,32.1s9.6,7.2,20.6,3.4
		C79.3,168.2,112.8,145.7,103.2,124.1z"/>
	<path d="M103.2,127c0,0,18.7-44.5,57-46.9s43.1,48.8,43.1,48.8L189.9,204c0,0-30.6,51.2-59.4,56l-54.1-93.8
		C76.4,166.2,102.2,139.4,103.2,127z"/>
	<path d="M188.9,135.6c0,0,45.5-57.4,96.2-26.3c0,0-27.8,11-31.1,37.3c-3.4,26.3-23.5,47.4-23.5,47.4s-27.8,24.4-50.3,4.3
		S183.6,140.9,188.9,135.6z"/>
	<path d="M117.6,116.5c0,0-0.5-5.7-5.3,0s1,5.3,1,5.3S116.6,120.3,117.6,116.5z"/>
	<path d="M153.9,109.3c0,0-7.2,1-7.2,7.7s9.6-0.5,9.6-0.5S161.1,109.3,153.9,109.3z"/>
	<path d="M138.1,93.5c0,0,6.7-1.4,4.8,2.4s-6.2,1.4-6.2,1.4S134.8,94.4,138.1,93.5z"/>
	<path d="M76.4,166.2c0,0,43.1-1.4,56.5,34.9s3.8,50.3,3.8,50.3s-19.1,43.1-57,16.3c0,0-8.6-6.2-9.1-20.6
		c-0.5-14.4-10.1-28.7-10.1-28.7s-19.1-31.1-2.9-43.1S76.4,166.2,76.4,166.2z"/>
	<path d="M69.2,194.5c0,0,7.2-10.1,23.9,0c16.8,10.1,29.7,50.7,29.7,50.7s-15.8,23.5-32.5,9.6c0,0-2.9,0-3.8-10.5
		c-1-10.5-5.7-29.2-5.7-29.2S74,194,69.2,194.5z"/>
	<path d="M96.5,197.3c0,0-4.8,34,26.3,47.9C122.8,245.2,128.1,209.3,96.5,197.3z"/>
</g>
<g>
	<path class="st1" d="M178.8,71.1c0,0,31.1-29.2,47.9-9.6s6.7,24.4,6.7,24.4s0.5-18.7-23-13.4s-17.7,26.3-17.7,26.3L178.8,71.1z"/>
	<path class="st2" d="M154.9,74.9c0,0,17.2-14.4,34.5,3.8s-1,36.9-1,36.9L154.9,74.9z"/>
	<path class="st3" d="M97.9,118.9c0,0-34.9-62.7-94.8-36.4v2.9c0,0,21.1,18.2,24.9,45.9s14.4,32.1,14.4,32.1s9.6,7.2,20.6,3.4
		C74,163,107.5,140.5,97.9,118.9z"/>
	<path class="st4" d="M97.9,121.8c0,0,18.7-44.5,57-46.9s43.1,48.8,43.1,48.8l-13.4,75.1c0,0-30.6,51.2-59.4,56L71.1,161
		C71.1,161,96.9,134.2,97.9,121.8z"/>
	<path class="st5" d="M183.6,130.4c0,0,45.5-57.4,96.2-26.3c0,0-27.8,11-31.1,37.3c-3.4,26.3-23.5,47.4-23.5,47.4
		s-27.8,24.4-50.3,4.3S178.3,135.7,183.6,130.4z"/>
	<path class="st6" d="M112.3,111.3c0,0-0.5-5.7-5.3,0s1,5.3,1,5.3S111.3,115.1,112.3,111.3z"/>
	<path class="st6" d="M148.6,104.1c0,0-7.2,1-7.2,7.7s9.6-0.5,9.6-0.5S155.8,104.1,148.6,104.1z"/>
	<path class="st6" d="M132.8,88.3c0,0,6.7-1.4,4.8,2.4s-6.2,1.4-6.2,1.4S129.5,89.2,132.8,88.3z"/>
	<path class="st7" d="M71.1,161c0,0,43.1-1.4,56.5,34.9s3.8,50.3,3.8,50.3s-19.1,43.1-57,16.3c0,0-8.6-6.2-9.1-20.6
		s-10.1-28.7-10.1-28.7s-19.1-31.1-2.9-43.1S71.1,161,71.1,161z"/>
	<path class="st8" d="M63.9,189.3c0,0,7.2-10.1,23.9,0c16.8,10.1,29.7,50.7,29.7,50.7s-15.8,23.5-32.5,9.6c0,0-2.9,0-3.8-10.5
		c-1-10.5-5.7-29.2-5.7-29.2S68.7,188.8,63.9,189.3z"/>
	<path class="st9" d="M91.2,192.1c0,0-4.8,34,26.3,47.9C117.5,240,122.8,204.1,91.2,192.1z"/>
</g>
</svg>
