<?xml version="1.0" encoding="utf-8"?>
<!-- Generator: Adobe Illustrator 23.0.6, SVG Export Plug-In . SVG Version: 6.00 Build 0)  -->
<svg version="1.1" id="Layer_1" xmlns="http://www.w3.org/2000/svg" xmlns:xlink="http://www.w3.org/1999/xlink" x="0px" y="0px"
	 viewBox="0 0 288 288" style="enable-background:new 0 0 288 288;" xml:space="preserve">
<style type="text/css">
	.st0{opacity:0.5;}
	.st1{fill:#73686E;}
	.st2{fill:#ADA8C1;}
	.st3{fill:#CCC7C2;}
	.st4{fill:#B89095;}
	.st5{fill:#F3F1F8;}
	.st6{fill:#DAD9C9;}
</style>
<g class="st0">
	<path d="M67.6,222.7l23.6,13l-9.1,4.8c0,0-15.4-6.3-14.9-8.2C67.6,230.4,67.6,222.7,67.6,222.7z"/>
	<path d="M121,240.5l26-2.9c0,0,0,7.7-9.1,9.1c-9.1,1.4-9.1,1.4-9.1,1.4L121,240.5z"/>
	<path d="M171.6,223.6l14.4-17.3c0,0,4.8,2.9,2.9,8.7c-1.9,5.8-5.3,9.6-5.3,9.6L171.6,223.6z"/>
	<polygon points="191.3,193.8 194.7,183.2 200,185.6 203.9,178.4 210.6,176.4 211.6,174 225.5,173.6 224.1,176.4 232.3,181.3 
		234.7,188.5 232.3,198.1 227.9,205.3 219.7,208.7 214.4,211.1 207.7,209.2 206.3,206.3 201.4,203.4 200,196.2 	"/>
	<path d="M246.7,92.7c0,0,10.6,10.1,10.6,11.6c0,0-1.9-8.2-3.4-9.6C252.5,93.1,246.7,92.7,246.7,92.7z"/>
	<path d="M261.7,126.8c0,0-2.9,17.8-4.3,19.7c0,0,9.1,0,10.1-6.7s0.5-10.1,0.5-10.1S263.7,126.4,261.7,126.8z"/>
	<path d="M244.3,164.9l-13.5,6.7c0,0,1.4,4.3,6.7,1.9C242.9,171.1,244.3,164.9,244.3,164.9z"/>
	<path d="M67.6,222.7l-2.9-2.4c0,0,1-1.4-3.4-5.8c-4.3-4.3-11.6-14-11.6-14s-1-17.3-4.8-21.7c-3.9-4.3,0-17.3,0-17.3
		s-12-17.3-4.8-21.7s13.5-8.7,13.5-8.7s2.4-8.7,6.3-11.1c0,0-2.9-10.6,2.9-14.9s7.7-5.3,7.7-5.3l10.1,1.4c0,0,14.4-9.1,22.1-7.7
		c0,0,15.9-4.8,26.5-1c0,0,2.4-9.6,15.9-7.7s14.9,16.4,14.9,16.4s9.6,6.7,10.6,8.7l5.3-6.7c0,0-3.9-10.1,1.4-12.5s6.7-3.9,6.7-3.9
		s5.8-1.9,7.2,1.4c0,0,12-6.7,18.8-6.3c0,0,1.9-8.7,10.6-6.7c8.7,1.9,9.6,3.9,9.6,3.9l0.5,5.8c0,0,32.7,4.8,31.8,41.9
		c0,0-2.9,27-18.3,38c-15.4,11.1-18.8,8.7-18.8,8.7s-19.7,1.4-27.9-2.4c0,0-3.4,26.5-11.6,35.1c0,0-19.7,28.4-39,31.3
		c-19.3,2.9-26,2.9-26,2.9s-14.9,2.4-29.9-4.8S67.6,222.7,67.6,222.7z"/>
	<ellipse transform="matrix(0.3095 -0.9509 0.9509 0.3095 18.84 310.9542)" cx="223.5" cy="142.5" rx="8.2" ry="16.1"/>
	<ellipse transform="matrix(0.3095 -0.9509 0.9509 0.3095 19.2113 311.1984)" cx="223.9" cy="142.4" rx="4.6" ry="9.9"/>
	<path d="M80.1,209.7c0,0,26.5,10.1,33.2,6.7c6.7-3.4,23.1-17.8,23.1-17.8s2.9-11.1,13.5-7.7c10.6,3.4-6.7,14-6.7,14l-14.4,12
		l20.2,1c0,0,13.5-6.7,13-1.4s-6.3,11.1-6.3,11.1s-2.4,0.5-6.7-1.9s-29.9,0-29.9,0l-13,9.1c0,0,1.9,2.9-0.5,4.3
		c-2.4,1.4-17.8-4.8-17.8-4.8s0.5-1.9,4.3-1.9s14.4-8.2,14.4-8.2l-22.1-5.3c0,0-13,0-15.4-4.8s1.4-7.2,1.4-7.2
		S75.8,203.4,80.1,209.7z"/>
	<path d="M95.5,187c-8.2,0.8-13.3,7.4-12.6,13.1c0.5,3.8,3.7,7,7.8,8.6l11.1,1c0,0,1.4,3.9,6.7,3.4c5.3-0.5,7.7-2.4,7.7-2.4
		s2.4-3.4,2.4-4.8c0-1.2,9.6-6.9,8.6-12.7c-0.3-1.5-1.1-2.5-1.8-3.2C118.9,183.1,98.3,186.5,95.5,187z"/>
	<ellipse cx="104.4" cy="198.7" rx="13.5" ry="5.3"/>
	<path d="M56,178.4c0,0,10.6-13.5,15.9-14.4s25-6.3,25-6.3l23.1-8.2c0,0,31.3,0,35.1,6.3c3.9,6.3,3.9,11.1,3.9,11.1s0,4.3-19.3-1
		s-53,4.8-53,4.8s-24.6,9.6-26,17.3C60.9,188,51.7,189,56,178.4z"/>
	<path d="M71.9,163.9c0,0,1.4,4.8,8.7,2.4c7.2-2.4,7.2-2.4,7.2-2.4V160L71.9,163.9z"/>
	<path d="M107.1,155.3c0,0-0.5,2.4,11.1,1.9s9.1-7.2,9.1-7.2S114.8,149.5,107.1,155.3z"/>
	<path d="M60.9,188c0,0-12-13-5.3-21.2c0,0,12.5,3.9,15.4,10.6C71,177.4,59.9,185.1,60.9,188z"/>
	<path d="M135,164.4c0,0,7.2-20.7,9.6-19.7c2.4,1,8.7,24.6,8.7,24.6L135,164.4z"/>
	<path d="M78.7,251.1c0,0-4.8-1.9-3.9,1.9c1,3.9,4.3,1.4,4.3,1.4S80.1,251.6,78.7,251.1z"/>
	<path d="M59.4,247.7c0,0-9.1-4.8-11.1,3.9c0,0-12.5,6.3-1.9,16.4c0,0,5.3,13,17.8,4.3c0,0,13-4.8,5.3-16.4
		C69.5,255.9,71.4,245.8,59.4,247.7z"/>
	<path d="M27.1,120.6c0,0-10.6-10.1-16.9,4.8c0,0-11.6,11.6,4.3,16.4c0,0,10.6,6.3,14-2.9c0,0,6.3-5.8,2.4-10.6
		C31,128.3,31,121.6,27.1,120.6z"/>
	<path d="M33.4,77.7c0,0-0.5-9.1,4.8-11.1c0,0,8.2-13,20.7-2.9c0,0,11.1-4.3,11.6,6.3S69,83.5,69,83.5s-0.5,11.1-4.8,9.1
		c0,0-4.8,14-17.8,4.8c0,0-13.5,0-14.9-6.3C30,85,33.4,77.7,33.4,77.7z"/>
	<path d="M76.7,78.7c0,0-3.9,5.8,2.4,7.2l1.4-2.9C80.6,83,84.4,77.3,76.7,78.7z"/>
	<path d="M129.7,46.9c0,0-13.5,6.7,2.4,20.7c0,0,4.3,10.6,15.4,4.8c0,0,8.7,2.4,10.1-4.3c0,0,7.7-1,6.7-6.7c0,0,7.7-7.7,1.4-15.4
		s-14-5.8-14-5.8S139.3,28.6,129.7,46.9z"/>
	<path d="M208.7,221.2c0,0-13-4.8-14.9,8.7s8.2,16.4,8.2,16.4s3.9,8.2,14.9,2.9c0,0,14.4-2.9,7.2-16.4
		C224.1,232.8,224.6,213.5,208.7,221.2z"/>
	<path d="M261.6,166.8c0,0-1-12,7.7-11.6c8.7,0.5,10.1,6.3,10.1,6.3s12.5,1.4,6.3,13.5c0,0,0,9.1-5.3,8.2c0,0-8.7,8.2-14,0
		C266.4,183.2,251.5,178.4,261.6,166.8z"/>
</g>
<g>
	<path class="st1" d="M62.7,218.2l23.6,13l-9.1,4.8c0,0-15.4-6.3-14.9-8.2C62.7,225.9,62.7,218.2,62.7,218.2z"/>
	<path class="st1" d="M116.1,236l26-2.9c0,0,0,7.7-9.1,9.1c-9.1,1.4-9.1,1.4-9.1,1.4L116.1,236z"/>
	<path class="st1" d="M166.7,219.1l14.4-17.3c0,0,4.8,2.9,2.9,8.7c-1.9,5.8-5.3,9.6-5.3,9.6L166.7,219.1z"/>
	<polygon class="st1" points="186.4,189.3 189.8,178.7 195.1,181.1 199,173.9 205.7,171.9 206.7,169.5 220.6,169.1 219.2,171.9 
		227.4,176.8 229.8,184 227.4,193.6 223,200.8 214.8,204.2 209.5,206.6 202.8,204.7 201.4,201.8 196.5,198.9 195.1,191.7 	"/>
	<path class="st1" d="M241.8,88.2c0,0,10.6,10.1,10.6,11.6c0,0-1.9-8.2-3.4-9.6C247.6,88.6,241.8,88.2,241.8,88.2z"/>
	<path class="st1" d="M256.8,122.3c0,0-2.9,17.8-4.3,19.7c0,0,9.1,0,10.1-6.7s0.5-10.1,0.5-10.1S258.8,121.9,256.8,122.3z"/>
	<path class="st1" d="M239.4,160.4l-13.5,6.7c0,0,1.4,4.3,6.7,1.9C238,166.6,239.4,160.4,239.4,160.4z"/>
	<path class="st2" d="M62.7,218.2l-2.9-2.4c0,0,1-1.4-3.4-5.8c-4.3-4.3-11.6-14-11.6-14s-1-17.3-4.8-21.7c-3.9-4.3,0-17.3,0-17.3
		s-12-17.3-4.8-21.7s13.5-8.7,13.5-8.7s2.4-8.7,6.3-11.1c0,0-2.9-10.6,2.9-14.9s7.7-5.3,7.7-5.3l10.1,1.4c0,0,14.4-9.1,22.1-7.7
		c0,0,15.9-4.8,26.5-1c0,0,2.4-9.6,15.9-7.7s14.9,16.4,14.9,16.4s9.6,6.7,10.6,8.7l5.3-6.7c0,0-3.9-10.1,1.4-12.5s6.7-3.9,6.7-3.9
		s5.8-1.9,7.2,1.4c0,0,12-6.7,18.8-6.3c0,0,1.9-8.7,10.6-6.7c8.7,1.9,9.6,3.9,9.6,3.9l0.5,5.8c0,0,32.7,4.8,31.8,41.9
		c0,0-2.9,27-18.3,38c-15.4,11.1-18.8,8.7-18.8,8.7s-19.7,1.4-27.9-2.4c0,0-3.4,26.5-11.6,35.1c0,0-19.7,28.4-39,31.3
		c-19.3,2.9-26,2.9-26,2.9s-14.9,2.4-29.9-4.8S62.7,218.2,62.7,218.2z"/>
	<ellipse transform="matrix(0.3095 -0.9509 0.9509 0.3095 19.7736 303.1903)" class="st3" cx="218.7" cy="138" rx="8.2" ry="16.1"/>
	<ellipse transform="matrix(0.3095 -0.9509 0.9509 0.3095 20.1449 303.4346)" class="st2" cx="219" cy="137.8" rx="4.6" ry="9.9"/>
	<path class="st3" d="M75.2,205.2c0,0,26.5,10.1,33.2,6.7c6.7-3.4,23.1-17.8,23.1-17.8s2.9-11.1,13.5-7.7c10.6,3.4-6.7,14-6.7,14
		l-14.4,12l20.2,1c0,0,13.5-6.7,13-1.4s-6.3,11.1-6.3,11.1s-2.4,0.5-6.7-1.9s-29.9,0-29.9,0l-13,9.1c0,0,1.9,2.9-0.5,4.3
		c-2.4,1.4-17.8-4.8-17.8-4.8s0.5-1.9,4.3-1.9s14.4-8.2,14.4-8.2l-22.1-5.3c0,0-13,0-15.4-4.8s1.4-7.2,1.4-7.2
		S70.9,198.9,75.2,205.2z"/>
	<path class="st3" d="M90.6,182.5c-8.2,0.8-13.3,7.4-12.6,13.1c0.5,3.8,3.7,7,7.8,8.6l11.1,1c0,0,1.4,3.9,6.7,3.4
		c5.3-0.5,7.7-2.4,7.7-2.4s2.4-3.4,2.4-4.8c0-1.2,9.6-6.9,8.6-12.7c-0.3-1.5-1.1-2.5-1.8-3.2C114,178.6,93.4,182,90.6,182.5z"/>
	<ellipse class="st2" cx="99.5" cy="194.2" rx="13.5" ry="5.3"/>
	<path class="st4" d="M51.1,173.9c0,0,10.6-13.5,15.9-14.4s25-6.3,25-6.3l23.1-8.2c0,0,31.3,0,35.1,6.3c3.9,6.3,3.9,11.1,3.9,11.1
		s0,4.3-19.3-1s-53,4.8-53,4.8s-24.6,9.6-26,17.3C56,183.5,46.8,184.5,51.1,173.9z"/>
	<path class="st5" d="M67,159.4c0,0,1.4,4.8,8.7,2.4c7.2-2.4,7.2-2.4,7.2-2.4v-3.9L67,159.4z"/>
	<path class="st5" d="M102.2,150.8c0,0-0.5,2.4,11.1,1.9s9.1-7.2,9.1-7.2S109.9,145,102.2,150.8z"/>
	<path class="st5" d="M56,183.5c0,0-12-13-5.3-21.2c0,0,12.5,3.9,15.4,10.6C66.1,172.9,55,180.6,56,183.5z"/>
	<path class="st5" d="M130.1,159.9c0,0,7.2-20.7,9.6-19.7c2.4,1,8.7,24.6,8.7,24.6L130.1,159.9z"/>
	<path class="st6" d="M73.8,246.6c0,0-4.8-1.9-3.9,1.9c1,3.9,4.3,1.4,4.3,1.4S75.2,247.1,73.8,246.6z"/>
	<path class="st6" d="M54.5,243.2c0,0-9.1-4.8-11.1,3.9c0,0-12.5,6.3-1.9,16.4c0,0,5.3,13,17.8,4.3c0,0,13-4.8,5.3-16.4
		C64.6,251.4,66.5,241.3,54.5,243.2z"/>
	<path class="st6" d="M22.2,116.1c0,0-10.6-10.1-16.9,4.8c0,0-11.6,11.6,4.3,16.4c0,0,10.6,6.3,14-2.9c0,0,6.3-5.8,2.4-10.6
		C26.1,123.8,26.1,117.1,22.2,116.1z"/>
	<path class="st6" d="M28.5,73.2c0,0-0.5-9.1,4.8-11.1c0,0,8.2-13,20.7-2.9c0,0,11.1-4.3,11.6,6.3S64.1,79,64.1,79
		s-0.5,11.1-4.8,9.1c0,0-4.8,14-17.8,4.8c0,0-13.5,0-14.9-6.3C25.1,80.5,28.5,73.2,28.5,73.2z"/>
	<path class="st6" d="M71.8,74.2c0,0-3.9,5.8,2.4,7.2l1.4-2.9C75.7,78.5,79.5,72.8,71.8,74.2z"/>
	<path class="st6" d="M124.8,42.4c0,0-13.5,6.7,2.4,20.7c0,0,4.3,10.6,15.4,4.8c0,0,8.7,2.4,10.1-4.3c0,0,7.7-1,6.7-6.7
		c0,0,7.7-7.7,1.4-15.4s-14-5.8-14-5.8S134.4,24.1,124.8,42.4z"/>
	<path class="st6" d="M203.8,216.7c0,0-13-4.8-14.9,8.7s8.2,16.4,8.2,16.4s3.9,8.2,14.9,2.9c0,0,14.4-2.9,7.2-16.4
		C219.2,228.3,219.7,209,203.8,216.7z"/>
	<path class="st6" d="M256.7,162.3c0,0-1-12,7.7-11.6c8.7,0.5,10.1,6.3,10.1,6.3s12.5,1.4,6.3,13.5c0,0,0,9.1-5.3,8.2
		c0,0-8.7,8.2-14,0C261.5,178.7,246.6,173.9,256.7,162.3z"/>
</g>
</svg>
