<?xml version="1.0" encoding="utf-8"?>
<!-- Generator: Adobe Illustrator 23.0.6, SVG Export Plug-In . SVG Version: 6.00 Build 0)  -->
<svg version="1.1" id="Layer_1" xmlns="http://www.w3.org/2000/svg" xmlns:xlink="http://www.w3.org/1999/xlink" x="0px" y="0px"
	 viewBox="0 0 288 288" style="enable-background:new 0 0 288 288;" xml:space="preserve">
<style type="text/css">
	.st0{opacity:0.5;}
	.st1{fill:#C5A4AE;}
	.st2{fill:#E7E0E8;}
	.st3{fill:#313232;}
	.st4{fill:#F0D6DA;}
	.st5{fill:#F3EFF1;}
	.st6{fill:#E0C6CF;}
	.st7{fill:#F5EFF4;}
	.st8{fill:#7D7E7E;}
</style>
<g class="st0">
	<path d="M201.5,59.9c2.2-3.4,34.2-52,43.3-47.5c9.2,4.5-9.7,60-11,63.7c-14.3,24.8-19.5,30.1-21.4,29.2c-1.6-0.7,0.5-5.2-2.1-11
		c-3.5-8-11.2-8.1-14.1-14.1C194.6,76.8,194.4,70.7,201.5,59.9z"/>
	<path d="M218.2,35.9l6.8-4.2l-5.2,10.4l6.3-4.2l2.1,10.4l7.3-7.3l1,10.4l4.2-5.2l1,4.7c6.5-21.1,7.6-37.5,2.6-39.7
		C239.6,9.2,228.8,19.9,218.2,35.9z"/>
	<path d="M205.7,74c0,0,22.5-43.3,27.2-41.8c4.7,1.6-6.8,35-6.8,35s-12,20.9-17.8,20.4c-5.7-0.5-4.2-2.6-4.2-2.6L205.7,74z"/>
	<path d="M231.3,143c0,0,21.9-8.9,25.1,0c3.1,8.9-20.4,28.7-20.4,28.7L231.3,143z"/>
	<path d="M150.8,63.6l3.7-3.1c0,0-1.6-20.9,13.1-20.4s27.2,11,27.2,11s14.1,14.6,9.4,33.9c0,0,29.2,21.9,31.9,86.7
		c2.6,64.8-39.7,75.2-39.7,75.2l8.9,1.6c0,0,17.8-3.1,16.7,10.4c-1,13.6-21.9,8.4-21.9,8.4s-31.3-8.4-31.9-13.6
		c-0.6-5.2-36.6-0.5-36.6-0.5s-1.6,6.8,4.2,14.6c5.7,7.8-10.4,15.7-10.4,15.7s-25.6,2.1-24-12.5s6.3-26.1,6.3-26.1
		s-39.4-25.2-34.7-45s7.8-40.2,7.8-40.2s8.9-60.6,18.8-64.2c0,0-71-32.4-64.8-74.2c0,0,37.1-11.5,82.5,52.7
		C117.4,74,144.6,57.3,150.8,63.6z"/>
	<path d="M131.5,253.1c0,0-51.2-23.5-4.2-79.9s67.4-41.8,67.4-41.8s33.4,18.8,33.4,59s-31.9,56.4-31.9,56.4S148.8,263.1,131.5,253.1
		z"/>
	<path d="M170.7,136.7c0,0,19.3,4.2,26.1,1.6C196.8,138.3,184.3,161.2,170.7,136.7z"/>
	<path d="M51.6,61.5v-5.8l6.3,6.3l-3.1-11l12,5.7l1.6-12.5l11.5,1.6L78.3,38l2.6,0.5c-0.5-1.9-1-3.8-1.6-5.7
		C59.8,17.4,40.2,15,34.9,21.3C29.8,27.4,35.2,45.3,51.6,61.5z"/>
	<path d="M115.9,86.6c0,0-21.9-50.7-64.8-55.4c0,0,5.2,46.5,58.5,59l-2.1-3.1l5.2,3.1l-3.7-6.3L115.9,86.6z"/>
</g>
<g>
	<path class="st1" d="M196.1,55.2c2.2-3.4,34.2-52,43.3-47.5c9.2,4.5-9.7,60-11,63.7c-14.3,24.8-19.5,30.1-21.4,29.2
		c-1.6-0.7,0.5-5.2-2.1-11c-3.5-8-11.2-8.1-14.1-14.1C189.2,72.1,189,66,196.1,55.2z"/>
	<path class="st2" d="M212.8,31.2l6.8-4.2l-5.2,10.4l6.3-4.2l2.1,10.4l7.3-7.3l1,10.4l4.2-5.2l1,4.7c6.5-21.1,7.6-37.5,2.6-39.7
		C234.2,4.5,223.4,15.2,212.8,31.2z"/>
	<path class="st3" d="M200.3,69.3c0,0,22.5-43.3,27.2-41.8c4.7,1.6-6.8,35-6.8,35s-12,20.9-17.8,20.4c-5.7-0.5-4.2-2.6-4.2-2.6
		L200.3,69.3z"/>
	<path class="st1" d="M225.9,138.3c0,0,21.9-8.9,25.1,0c3.1,8.9-20.4,28.7-20.4,28.7L225.9,138.3z"/>
	<path class="st4" d="M145.4,58.9l3.7-3.1c0,0-1.6-20.9,13.1-20.4s27.2,11,27.2,11s14.1,14.6,9.4,33.9c0,0,29.2,21.9,31.9,86.7
		c2.6,64.8-39.7,75.2-39.7,75.2l8.9,1.6c0,0,17.8-3.1,16.7,10.4c-1,13.6-21.9,8.4-21.9,8.4s-31.3-8.4-31.9-13.6s-36.6-0.5-36.6-0.5
		s-1.6,6.8,4.2,14.6c5.7,7.8-10.4,15.7-10.4,15.7s-25.6,2.1-24-12.5s6.3-26.1,6.3-26.1s-39.4-25.2-34.7-45s7.8-40.2,7.8-40.2
		s8.9-60.6,18.8-64.2c0,0-71-32.4-64.8-74.2c0,0,37.1-11.5,82.5,52.7C112,69.3,139.2,52.6,145.4,58.9z"/>
	<path class="st5" d="M126.1,248.4c0,0-51.2-23.5-4.2-79.9s67.4-41.8,67.4-41.8s33.4,18.8,33.4,59s-31.9,56.4-31.9,56.4
		S143.4,258.4,126.1,248.4z"/>
	<path class="st6" d="M165.3,132c0,0,19.3,4.2,26.1,1.6C191.4,133.6,178.9,156.5,165.3,132z"/>
	<path class="st7" d="M46.2,56.8V51l6.3,6.3l-3.1-11l12,5.7L63,39.5l11.5,1.6l-1.6-7.8l2.6,0.5c-0.5-1.9-1-3.8-1.6-5.7
		C54.4,12.7,34.8,10.3,29.5,16.6C24.4,22.7,29.8,40.6,46.2,56.8z"/>
	<path class="st8" d="M110.5,81.9c0,0-21.9-50.7-64.8-55.4c0,0,5.2,46.5,58.5,59l-2.1-3.1l5.2,3.1l-3.7-6.3L110.5,81.9z"/>
</g>
</svg>
