<?xml version="1.0" encoding="utf-8"?>
<!-- Generator: Adobe Illustrator 23.0.6, SVG Export Plug-In . SVG Version: 6.00 Build 0)  -->
<svg version="1.1" id="Layer_1" xmlns="http://www.w3.org/2000/svg" xmlns:xlink="http://www.w3.org/1999/xlink" x="0px" y="0px"
	 viewBox="0 0 288 288" style="enable-background:new 0 0 288 288;" xml:space="preserve">
<style type="text/css">
	.st0{opacity:0.5;}
	.st1{fill:#1A3D5E;}
	.st2{fill:#C0A77A;}
	.st3{fill:#F9D388;}
	.st4{fill:#9D9489;}
	.st5{fill:#B28D6C;}
	.st6{fill:#AE8D68;}
	.st7{fill:#E4B27A;}
	.st8{fill:#EAE9E5;}
</style>
<g class="st0">
	<polygon points="117.8,208.7 111.3,222.7 122.6,214.9 126.8,204.2 	"/>
	<polygon points="129.3,222.2 131.3,236.2 136.6,224.1 136.6,210.1 	"/>
	<polygon points="146.2,223.3 155.2,235.9 156.1,222.4 147.9,211.8 	"/>
	<path d="M163.6,214.9l11.8,6.2c-1.1-3.6-2.2-7.1-3.4-10.7c-3.8-2.2-7.5-4.3-11.2-6.5L163.6,214.9z"/>
	<polygon points="192.9,83.2 215.1,71.7 202.7,87.7 185,94.5 	"/>
	<polygon points="210.3,122.3 244.9,91.4 282.3,87.2 	"/>
	<polygon points="69.7,90.3 59,79 84.9,87.2 90,97.6 	"/>
	<polygon points="49.2,103.5 26.4,100.4 73.1,124.9 75.9,124.6 	"/>
	<path d="M99,90.3c0,0-24.7-27.6-26.4-27.3L90,97.6c0,0-77.3-29-84.1-28.7l70,55.7L28.4,124c0,0,60.5,21.1,65,21.7
		c0,0-21.7,21.1-21.7,22.2l46.7-15.7l-0.6-7.6l-2.8-17.2l-5.9-23.6L99,90.3z"/>
	<path d="M159.7,103.2c0,0,45.6-37.4,46.4-37.7c0.8-0.3-0.8,0.3-0.8,0.3l-20.2,28.7c0,0,95.9-41.3,101-38.5l-75.7,66.4l46.1,1.7
		l-77.1,23.8c0,0,27.8,26.2,27.8,30.1l-53.7-24.2l-5.6,29.8c0,0,34.6,21.4,41.9,37.7L161.4,205c0,0,11,34,10.7,36.6
		c0,0-10.1-5.6-24.2-29.8c0,0-3.7,35.2-6.5,38c0,0-7.9-32.1-4.8-39.7c0,0-18,31.8-21.4,32.3c0,0,6.7-34.9,11.5-38.2
		c0,0-21.4,13.8-23.9,12.9c0,0,17.7-28.7,28.4-30.1c0,0-7.3-11-7.9-16.9c-0.6-5.9-3.7-8.2-3.7-8.2l-1.4-9.8l-2-16.6l-9.3,2.5
		l7.9-10.7l-15.7,5.1l11.8-14.6L93.3,87.7l13.5,7.6l-2.2-8.4L117,97.3l-2.8-32.6c0,0,12.9,34.9,14.6,34.9c0,0,27.3-34.6,30.1-34.9
		l-18.3,36.8l26.2-9.8l-15.5,13.2L159.7,103.2z"/>
	<path d="M145.1,152.1c0,0,17.2,9,16.3,22.5c-0.8,0.3-1.7,0.6-1.7,1.1c0,0.2,0.2,0.3,0.3,0.6c0.2,0.4,0,1.2-1.4,2.5
		c0,0-12.4,1.7-15.2-7.3l1.4,0.3l-3.7-5.3l3.4,1.1l-2.8-5.6h1.4l-1.1-5.1l3.4,2.2L145.1,152.1z"/>
	<path d="M110.8,174.9c0,0,2.8-13.5,11.5-19.4l0.3,6.5l2.5-2l-0.3,3.9l3.7-0.3l-3.4,5.6l2.5,0.3l-1.7,3.1l2.8,2c0,0-7.9,7-14.6,5.3
		C113,178.3,111.9,176.6,110.8,174.9z"/>
	<path d="M110.8,174.9l-8.2,6.5c0,0-2.5-3.7-3.4-8.7l-3.9-9.3c0,0-0.3-2.2-2-2.8s-5.1,2.5-5.1,2.5s0.6,6.2,5.3,14.6l-7.6-3.4
		c0,0-7.9-5.6-9.8-3.7c-2,2-1.4,5.3-1.4,5.3s2,1.7,4.2,1.1c2.2-0.6,9.3,5.3,9.3,5.3s-13.2,1.4-14.3,3.9c-1.1,2.5,0.8,3.7,0.8,3.7
		s0.8,1.1,2,0.6s8.4-2.5,8.4-2.5s10.4-0.8,13.2,3.7s2.5,7.9,2.5,7.9s1.7,0.6,3.1,0.3c1.4-0.3,2.5-1.1,2.5-1.1s-0.8-3.4-1.4-4.8
		c-0.6-1.4-0.6-5.6-0.6-5.6l9.6-8.4C114.1,180,117.8,173.8,110.8,174.9z"/>
	<path d="M161.4,174.6l5.9,7.3l3.7-7.9c0,0-0.3-10.1,2-9.8c2.2,0.3,4.2,0.8,4.2,0.8s3.1,1.7,0.8,4.2c-2.2,2.5-4.2,13.2-4.2,13.2
		s2,1.1,3.7,0.6s11.8-6.7,11.8-6.7s4.2-5.1,5.3-2s1.4,5.6,1.4,5.6s-0.8,1.4-3.4,1.7c-2.5,0.3-11.8,5.3-11.8,5.3s-2,3.1,2,3.1
		c3.9,0,13.2-1.7,13.2-1.7s2,1.4,0.6,3.4s0.8,3.7,0.8,3.7s-2-0.3-5.3-0.8c-3.4-0.6-22.8,3.4-22.8,3.4s-3.7,0.8-5.3,9.6
		c0,0-6.7,2-5.9-2.5s2.8-7.6,2.8-7.6s3.9-4.2,2.5-10.4s-4.8-8.2-4.8-8.2S156.6,167.9,161.4,174.6z"/>
	<path d="M128.2,127.2c0,0,0,10.4-7.3,11.5L128.2,127.2z"/>
	<path d="M129.9,126l-3.9-2.2c0,0-2.8-5.3-5.9,0c0,0-3.9,4.2-4.2,6.5c-0.3,2.2-18.3,43-18.3,43s-2.2,5.6,0,4.8s24.2-40.8,24.2-40.8
		L129.9,126z"/>
	<path d="M93.3,160.6c0,0-7.3-4.5-8.7-2.8l3.7,5.3C88.3,163.1,93.3,165.4,93.3,160.6z"/>
	<path d="M76.2,170.7c0,0-8.4,0.8-8.4,3.1l9,2C76.7,175.8,79,173.2,76.2,170.7z"/>
	<path d="M73.9,186.4c0,0-4.8,3.1-4.2,7l7-2.8C76.7,190.7,76.2,186.7,73.9,186.4z"/>
	<path d="M102.1,200.5l-0.3,5.9c0,0,5.1-0.3,3.9-6.5L102.1,200.5z"/>
	<path d="M158,205c0,0-1.1,5.1,1.1,6.8l2.2-4.5C161.4,207.3,158.9,203,158,205z"/>
	<path d="M173.2,165.4c0,0,2.2-7,7.3-6.5c0,0-3.4,6.2-2,7.6C178.6,166.5,175.5,167.9,173.2,165.4z"/>
	<path d="M193.2,174.4c0,0,7.6-3.1,10.1,1.7c0,0-6.7,2.2-7.3,3.9C196,180,191.5,178.9,193.2,174.4z"/>
	<path d="M197.4,190.1c0,0,5.3,2.2,5.6,7.3l-5.6-2C197.4,195.4,193.7,192.6,197.4,190.1z"/>
</g>
<g>
	<polygon class="st1" points="113.3,203.8 106.8,217.8 118.1,210 122.3,199.3 	"/>
	<polygon class="st1" points="124.8,217.3 126.8,231.3 132.1,219.2 132.1,205.2 	"/>
	<polygon class="st1" points="141.7,218.4 150.7,231 151.6,217.5 143.4,206.9 	"/>
	<path class="st1" d="M159.1,210l11.8,6.2c-1.1-3.6-2.2-7.1-3.4-10.7c-3.8-2.2-7.5-4.3-11.2-6.5L159.1,210z"/>
	<polygon class="st1" points="188.4,78.3 210.6,66.8 198.2,82.8 180.5,89.6 	"/>
	<polygon class="st1" points="205.8,117.4 240.4,86.5 277.8,82.3 	"/>
	<polygon class="st1" points="65.2,85.4 54.5,74.1 80.4,82.3 85.5,92.7 	"/>
	<polygon class="st1" points="44.7,98.6 21.9,95.5 68.6,120 71.4,119.7 	"/>
	<path class="st2" d="M94.5,85.4c0,0-24.7-27.6-26.4-27.3l17.4,34.6c0,0-77.3-29-84.1-28.7l70,55.7l-47.5-0.6c0,0,60.5,21.1,65,21.7
		c0,0-21.7,21.1-21.7,22.2l46.7-15.7l-0.6-7.6l-2.8-17.2l-5.9-23.6L94.5,85.4z"/>
	<path class="st3" d="M155.2,98.3c0,0,45.6-37.4,46.4-37.7c0.8-0.3-0.8,0.3-0.8,0.3l-20.2,28.7c0,0,95.9-41.3,101-38.5l-75.7,66.4
		l46.1,1.7L174.9,143c0,0,27.8,26.2,27.8,30.1L149,148.9l-5.6,29.8c0,0,34.6,21.4,41.9,37.7l-28.4-16.3c0,0,11,34,10.7,36.6
		c0,0-10.1-5.6-24.2-29.8c0,0-3.7,35.2-6.5,38c0,0-7.9-32.1-4.8-39.7c0,0-18,31.8-21.4,32.3c0,0,6.7-34.9,11.5-38.2
		c0,0-21.4,13.8-23.9,12.9c0,0,17.7-28.7,28.4-30.1c0,0-7.3-11-7.9-16.9s-3.7-8.2-3.7-8.2l-1.4-9.8l-2-16.6l-9.3,2.5l7.9-10.7
		l-15.7,5.1l11.8-14.6L88.8,82.8l13.5,7.6l-2.2-8.4l12.4,10.4l-2.8-32.6c0,0,12.9,34.9,14.6,34.9c0,0,27.3-34.6,30.1-34.9
		l-18.3,36.8l26.2-9.8L146.8,100L155.2,98.3z"/>
	<path class="st4" d="M140.6,147.2c0,0,17.2,9,16.3,22.5c-0.8,0.3-1.7,0.6-1.7,1.1c0,0.2,0.2,0.3,0.3,0.6c0.2,0.4,0,1.2-1.4,2.5
		c0,0-12.4,1.7-15.2-7.3l1.4,0.3l-3.7-5.3l3.4,1.1l-2.8-5.6h1.4l-1.1-5.1l3.4,2.2L140.6,147.2z"/>
	<path class="st4" d="M106.3,170c0,0,2.8-13.5,11.5-19.4l0.3,6.5l2.5-2l-0.3,3.9l3.7-0.3l-3.4,5.6l2.5,0.3l-1.7,3.1l2.8,2
		c0,0-7.9,7-14.6,5.3C108.5,173.4,107.4,171.7,106.3,170z"/>
	<path class="st5" d="M106.3,170l-8.2,6.5c0,0-2.5-3.7-3.4-8.7l-3.9-9.3c0,0-0.3-2.2-2-2.8s-5.1,2.5-5.1,2.5s0.6,6.2,5.3,14.6
		l-7.6-3.4c0,0-7.9-5.6-9.8-3.7c-2,2-1.4,5.3-1.4,5.3s2,1.7,4.2,1.1c2.2-0.6,9.3,5.3,9.3,5.3s-13.2,1.4-14.3,3.9
		c-1.1,2.5,0.8,3.7,0.8,3.7s0.8,1.1,2,0.6s8.4-2.5,8.4-2.5s10.4-0.8,13.2,3.7c2.8,4.5,2.5,7.9,2.5,7.9s1.7,0.6,3.1,0.3
		s2.5-1.1,2.5-1.1s-0.8-3.4-1.4-4.8c-0.6-1.4-0.6-5.6-0.6-5.6l9.6-8.4C109.6,175.1,113.3,168.9,106.3,170z"/>
	<path class="st5" d="M156.9,169.7l5.9,7.3l3.7-7.9c0,0-0.3-10.1,2-9.8c2.2,0.3,4.2,0.8,4.2,0.8s3.1,1.7,0.8,4.2
		c-2.2,2.5-4.2,13.2-4.2,13.2s2,1.1,3.7,0.6s11.8-6.7,11.8-6.7s4.2-5.1,5.3-2s1.4,5.6,1.4,5.6s-0.8,1.4-3.4,1.7
		c-2.5,0.3-11.8,5.3-11.8,5.3s-2,3.1,2,3.1c3.9,0,13.2-1.7,13.2-1.7s2,1.4,0.6,3.4s0.8,3.7,0.8,3.7s-2-0.3-5.3-0.8
		c-3.4-0.6-22.8,3.4-22.8,3.4s-3.7,0.8-5.3,9.6c0,0-6.7,2-5.9-2.5s2.8-7.6,2.8-7.6s3.9-4.2,2.5-10.4s-4.8-8.2-4.8-8.2
		S152.1,163,156.9,169.7z"/>
	<path class="st6" d="M123.7,122.3c0,0,0,10.4-7.3,11.5L123.7,122.3z"/>
	<path class="st7" d="M125.4,121.1l-3.9-2.2c0,0-2.8-5.3-5.9,0c0,0-3.9,4.2-4.2,6.5c-0.3,2.2-18.3,43-18.3,43s-2.2,5.6,0,4.8
		s24.2-40.8,24.2-40.8L125.4,121.1z"/>
	<path class="st8" d="M88.8,155.7c0,0-7.3-4.5-8.7-2.8l3.7,5.3C83.8,158.2,88.8,160.5,88.8,155.7z"/>
	<path class="st8" d="M71.7,165.8c0,0-8.4,0.8-8.4,3.1l9,2C72.2,170.9,74.5,168.3,71.7,165.8z"/>
	<path class="st8" d="M69.4,181.5c0,0-4.8,3.1-4.2,7l7-2.8C72.2,185.8,71.7,181.8,69.4,181.5z"/>
	<path class="st8" d="M97.6,195.6l-0.3,5.9c0,0,5.1-0.3,3.9-6.5L97.6,195.6z"/>
	<path class="st8" d="M153.5,200.1c0,0-1.1,5.1,1.1,6.8l2.2-4.5C156.9,202.4,154.4,198.1,153.5,200.1z"/>
	<path class="st8" d="M168.7,160.5c0,0,2.2-7,7.3-6.5c0,0-3.4,6.2-2,7.6C174.1,161.6,171,163,168.7,160.5z"/>
	<path class="st8" d="M188.7,169.5c0,0,7.6-3.1,10.1,1.7c0,0-6.7,2.2-7.3,3.9C191.5,175.1,187,174,188.7,169.5z"/>
	<path class="st8" d="M192.9,185.2c0,0,5.3,2.2,5.6,7.3l-5.6-2C192.9,190.5,189.2,187.7,192.9,185.2z"/>
</g>
</svg>
