<?xml version="1.0" encoding="utf-8"?>
<!-- Generator: Adobe Illustrator 23.0.6, SVG Export Plug-In . SVG Version: 6.00 Build 0)  -->
<svg version="1.1" id="Layer_1" xmlns="http://www.w3.org/2000/svg" xmlns:xlink="http://www.w3.org/1999/xlink" x="0px" y="0px"
	 viewBox="0 0 288 288" style="enable-background:new 0 0 288 288;" xml:space="preserve">
<style type="text/css">
	.st0{opacity:0.5;}
	.st1{fill:#6999B3;}
	.st2{fill:#9C75A4;}
	.st3{fill:#7D6081;}
	.st4{fill:#5A475B;}
	.st5{fill:#434343;}
	.st6{fill:#FFFFFF;}
</style>
<g class="st0">
	<path d="M179.9,139.7c0,0,56.8,9.5,83.7-60.7c0,0,3.9-3,7.8,11.3c0,0,29.5,93.6-3.5,147.4l4.8-43.8l-38.6,4.8l-6.1,10.4
		c0,0-4.8,0.9-0.4-6.9c4.3-7.8,8.7-74.1,8.7-74.1l-30.8,24.3l-27.3-2.6c-0.9,3.1-2.6,7.3-5.6,11.7c-4.1,6-9,9.7-12.1,11.7
		c-2.7,22.3-5.6,44.8-8.7,67.6c-1.4,10.3-2.9,20.6-4.3,30.8c-2.6,9.1-3.5,10.9-3.9,10.8c-1.5-0.3,7-31.7,6.5-69.8
		c-0.2-15.9-2-28.9-3.5-37.7c0,0-9.5-0.9-13.9-4.8c-3.8,3.2-9,8-14.7,14.4c-3.7,4.1-9.2,10.7-20.8,28.9c-5.1,8-11.5,18.5-18.6,31.2
		c-3.5,4.9-7.3,10.3-7.8,10c-0.2-0.1,0-1.5,13.9-26c14.9-26.5,20.3-35.1,23.8-40.3c2.3-3.5,4.5-7,6.9-10.4c4.7-6.7,6.2-8,7.4-11.3
		c1.1-3,1.9-7.6,0-14.3c-1.2-15-0.4-20.9,1.3-22.5c3.5-3.5-55.9-12.6-55.9-12.6s-9.5,5.2-9.1,7.4c0,0-6.1,3.5,3.9-13.9
		s5.2-20.8,5.2-20.8l-55.6,18.2l-3.5,6.1c0,0-13.9-14.3,51.6-65.9c0,0,45.9-33.8,68.5-21.2c0,0-28.6,52.4,4.8,92.3
		c0,0,6.1-10.4,4.8-15.6s-20.4-14.7-2.6-50.7c0,0,15.2,1.7,25.1,33.8c0,0,19.9,5.2,21.7,11.3c0,0,29-13.9,46.4-3.5
		c0,0,4.8,30.3-43.3,31.6C186,126.3,179.5,134.5,179.9,139.7z"/>
	<path d="M171.3,162.3c0,0,6.1-5.6,6.9-18.6c0,0,29,7.8,58.1-15.6c0,0,8.2,40.7-8.7,74.1C227.6,202.2,201.6,151,171.3,162.3z"/>
	<path d="M242.8,124.1c0,0,22.1-23.4,21.2-28.6c0,0,32.5,58.5,4.3,132.6c0,0-8.2-34.7-39.4-22.5
		C228.9,205.6,246.2,180.9,242.8,124.1z"/>
	<path d="M186,102.9c3.4-2,8.2-4.3,14.2-5.8c11.1-2.7,20.5-1.1,25.7,0.2c0,0-2.2,28.6-39,26c0.4-2.8,0.6-6.2,0.5-10.1
		C187.2,109.2,186.6,105.7,186,102.9z"/>
	<path d="M185.6,103.8c0,0,10.8-6.9,15.6,6.1c0,0-2.2,13.4-14.3,13.4C186.9,123.3,187.7,105.1,185.6,103.8z"/>
	<path d="M140,100.3c0,0-15.6-15.2-3.9-42.9c0,0,17.8,10,19.9,31.2C156.1,88.6,141.8,94.7,140,100.3z"/>
	<path d="M122.3,141.9c0,0,6.5-17.3,8.7-16.9c0,0-18.2-24.3-16.9-54.2c0,0-25.1,6.9-52.9,50.7c5-1.3,11.6-2.3,19.1-1.7
		C103.2,121.6,118,137.1,122.3,141.9z"/>
	<path d="M57.7,120.2c0,0,15.6-33.8,55.9-55.9c0,0-3.5-3,5.2-32.9c0,0-62-0.9-106.2,76.7C12.6,108.1,42.1,90.3,57.7,120.2z"/>
	<path d="M140,100.3c0,0-3.9-16.5,4.8-17.3s11.3,5.6,11.3,5.6S139.2,97.3,140,100.3z"/>
	<path d="M140.9,120.7c0,0-5.6-29,27.7-25.6c0,0,25.6,9.1,9.1,36c-0.1,0.4-0.4,1-0.9,1.5c-2.3,2.4-7.1,0.8-7.8,0.6
		c-3.2-1.1-3.8-2.7-7.4-5.2c-1.7-1.2-4.3-2.7-7.8-3.9c-1.5,0.3-5.2,0.9-9.1-0.9C143.1,122.5,141.8,121.5,140.9,120.7z"/>
	<path d="M156.5,95.5l1.7,6.5c0,0,4.3-4.3,4.8-6.9C163.4,92.5,156.5,95.5,156.5,95.5z"/>
	<path d="M176.5,99.1c0,0-5.6,8.7-3,9.1s6.1-4.8,6.1-4.8L176.5,99.1z"/>
	<path d="M166.5,132.2c0,0,6.1-8.2,6.9-6.1c0.9,2.2-2.2,8.2-2.2,8.2L166.5,132.2z"/>
	<path d="M140.9,120.7c0,0,2.2-7.4,3.5-7.4s0.4,10,0.4,10L140.9,120.7z"/>
</g>
<g>
	<path class="st1" d="M175.2,135.9c0,0,56.8,9.5,83.7-60.7c0,0,3.9-3,7.8,11.3c0,0,29.5,93.6-3.5,147.4l4.8-43.8l-38.6,4.8
		l-6.1,10.4c0,0-4.8,0.9-0.4-6.9c4.3-7.8,8.7-74.1,8.7-74.1l-30.8,24.3l-27.3-2.6c-0.9,3.1-2.6,7.3-5.6,11.7c-4.1,6-9,9.7-12.1,11.7
		c-2.7,22.3-5.6,44.8-8.7,67.6c-1.4,10.3-2.9,20.6-4.3,30.8c-2.6,9.1-3.5,10.9-3.9,10.8c-1.5-0.3,7-31.7,6.5-69.8
		c-0.2-15.9-2-28.9-3.5-37.7c0,0-9.5-0.9-13.9-4.8c-3.8,3.2-9,8-14.7,14.4c-3.7,4.1-9.2,10.7-20.8,28.9c-5.1,8-11.5,18.5-18.6,31.2
		c-3.5,4.9-7.3,10.3-7.8,10c-0.2-0.1,0-1.5,13.9-26c14.9-26.5,20.3-35.1,23.8-40.3c2.3-3.5,4.5-7,6.9-10.4c4.7-6.7,6.2-8,7.4-11.3
		c1.1-3,1.9-7.6,0-14.3c-1.2-15-0.4-20.9,1.3-22.5c3.5-3.5-55.9-12.6-55.9-12.6s-9.5,5.2-9.1,7.4c0,0-6.1,3.5,3.9-13.9
		s5.2-20.8,5.2-20.8L7.9,104.3l-3.5,6.1c0,0-13.9-14.3,51.6-65.9c0,0,45.9-33.8,68.5-21.2c0,0-28.6,52.4,4.8,92.3
		c0,0,6.1-10.4,4.8-15.6s-20.4-14.7-2.6-50.7c0,0,15.2,1.7,25.1,33.8c0,0,19.9,5.2,21.7,11.3c0,0,29-13.9,46.4-3.5
		c0,0,4.8,30.3-43.3,31.6C181.3,122.5,174.8,130.7,175.2,135.9z"/>
	<path class="st2" d="M166.6,158.5c0,0,6.1-5.6,6.9-18.6c0,0,29,7.8,58.1-15.6c0,0,8.2,40.7-8.7,74.1
		C222.9,198.4,196.9,147.2,166.6,158.5z"/>
	<path class="st2" d="M238.1,120.3c0,0,22.1-23.4,21.2-28.6c0,0,32.5,58.5,4.3,132.6c0,0-8.2-34.7-39.4-22.5
		C224.2,201.8,241.5,177.1,238.1,120.3z"/>
	<path class="st2" d="M181.3,99.1c3.4-2,8.2-4.3,14.2-5.8c11.1-2.7,20.5-1.1,25.7,0.2c0,0-2.2,28.6-39,26c0.4-2.8,0.6-6.2,0.5-10.1
		C182.5,105.4,181.9,101.9,181.3,99.1z"/>
	<path class="st3" d="M180.9,100c0,0,10.8-6.9,15.6,6.1c0,0-2.2,13.4-14.3,13.4C182.2,119.5,183,101.3,180.9,100z"/>
	<path class="st3" d="M135.3,96.5c0,0-15.6-15.2-3.9-42.9c0,0,17.8,10,19.9,31.2C151.4,84.8,137.1,90.9,135.3,96.5z"/>
	<path class="st3" d="M117.6,138.1c0,0,6.5-17.3,8.7-16.9c0,0-18.2-24.3-16.9-54.2c0,0-25.1,6.9-52.9,50.7c5-1.3,11.6-2.3,19.1-1.7
		C98.5,117.8,113.3,133.3,117.6,138.1z"/>
	<path class="st3" d="M53,116.4c0,0,15.6-33.8,55.9-55.9c0,0-3.5-3,5.2-32.9c0,0-62-0.9-106.2,76.7C7.9,104.3,37.4,86.5,53,116.4z"
		/>
	<path class="st4" d="M135.3,96.5c0,0-3.9-16.5,4.8-17.3s11.3,5.6,11.3,5.6S134.5,93.5,135.3,96.5z"/>
	<path class="st5" d="M136.2,116.9c0,0-5.6-29,27.7-25.6c0,0,25.6,9.1,9.1,36c-0.1,0.4-0.4,1-0.9,1.5c-2.3,2.4-7.1,0.8-7.8,0.6
		c-3.2-1.1-3.8-2.7-7.4-5.2c-1.7-1.2-4.3-2.7-7.8-3.9c-1.5,0.3-5.2,0.9-9.1-0.9C138.4,118.7,137.1,117.7,136.2,116.9z"/>
	<path class="st6" d="M151.8,91.7l1.7,6.5c0,0,4.3-4.3,4.8-6.9C158.7,88.7,151.8,91.7,151.8,91.7z"/>
	<path class="st6" d="M171.8,95.3c0,0-5.6,8.7-3,9.1s6.1-4.8,6.1-4.8L171.8,95.3z"/>
	<path class="st6" d="M161.8,128.4c0,0,6.1-8.2,6.9-6.1c0.9,2.2-2.2,8.2-2.2,8.2L161.8,128.4z"/>
	<path class="st6" d="M136.2,116.9c0,0,2.2-7.4,3.5-7.4s0.4,10,0.4,10L136.2,116.9z"/>
</g>
</svg>
